<?xml version="1.0" encoding="utf-8"?><svg xmlns="http://www.w3.org/2000/svg" xmlns:xlink="http://www.w3.org/1999/xlink"><symbol viewBox="0 0 50 50" id="leaderboard-down" xmlns="http://www.w3.org/2000/svg"><path opacity=".28" d="M2.71 42.5V13.33H40V46H5.58" data-name="Welcome Page Web"/><g data-name="Sprite buttons"><path fill="#d62d7a" d="M8.03 37.19V9.31H2.72V42.5M2.72 9.31h1.31V8"/><path fill="#d62d7a" d="M8.03 37.19v5.31h-5.4"/><path d="M37.19 41.16l-1.37 1.34H8v-5.31h29.22" fill="#d62d7a"/><path fill="#d62d7a" d="M4.03 8h33.19v33.19H4.03z"/><path data-name="Icon ionic-ios-trophy" d="M31.21 16.13h-3.69V15a.89.89 0 00-.89-.89h-12.5a.89.89 0 00-.9.89v1.12H9.55a.78.78 0 00-.78.78A8.74 8.74 0 0010 22a4.5 4.5 0 003.14 2.25.46.46 0 01.35.28 6 6 0 002.85 2.91 10.8 10.8 0 002.89 1.21.43.43 0 01.34.43v4.51a.45.45 0 01-.44.45h-3.64a.8.8 0 00-.8.74.78.78 0 00.74.82h9.84a.8.8 0 00.81-.74.79.79 0 00-.75-.82h-3.72a.46.46 0 01-.45-.45V29a.47.47 0 01.35-.44 10.77 10.77 0 002.89-1.2 6 6 0 002.85-2.92.45.45 0 01.35-.27A4.53 4.53 0 0030.74 22 9 9 0 0032 16.91a.78.78 0 00-.79-.78zm-18 6.17a.22.22 0 01-.22.23h-.08a3.24 3.24 0 01-1.71-1.61 5.82 5.82 0 01-.84-2.72.45.45 0 01.41-.49h2a.45.45 0 01.44.45zm16.3-1.4a3.24 3.24 0 01-1.71 1.61.22.22 0 01-.29-.13v-4.24a.45.45 0 01.45-.45h2a.45.45 0 01.45.45 5.86 5.86 0 01-.88 2.76z" fill="#d62d7a"/><path fill="#d62d7a" d="M8.03 37.19V9.31H2.72V42.5M2.72 9.31h1.31V8"/><path fill="#871242" d="M8.03 37.19v5.31h-5.4"/><path d="M37.19 41.16l-1.37 1.34H8v-5.31h29.22" fill="#871242"/><path fill="#d91a60" d="M4.03 8h33.19v33.19H4.03z"/><path data-name="Icon ionic-ios-trophy" d="M31.21 16.13h-3.69V15a.89.89 0 00-.89-.89h-12.5a.89.89 0 00-.9.89v1.12H9.55a.78.78 0 00-.78.78h0A8.74 8.74 0 0010 22a4.5 4.5 0 003.14 2.25.46.46 0 01.35.28 6 6 0 002.85 2.91 10.8 10.8 0 002.89 1.21.43.43 0 01.34.43v4.51a.45.45 0 01-.44.45h-3.64a.8.8 0 00-.8.74.78.78 0 00.74.82h9.84a.8.8 0 00.81-.74.79.79 0 00-.75-.82h-3.72a.46.46 0 01-.45-.45V29a.47.47 0 01.35-.44 10.77 10.77 0 002.89-1.2 6 6 0 002.85-2.92.45.45 0 01.35-.27A4.53 4.53 0 0030.74 22 9 9 0 0032 16.91h0a.78.78 0 00-.79-.78zm-18 6.17a.22.22 0 01-.22.23h-.08a3.24 3.24 0 01-1.71-1.61 5.82 5.82 0 01-.84-2.72.45.45 0 01.41-.49h2a.45.45 0 01.44.45zm16.3-1.4a3.24 3.24 0 01-1.71 1.61.22.22 0 01-.29-.13v-4.24a.45.45 0 01.45-.45h2a.45.45 0 01.45.45.08.08 0 010 0 5.86 5.86 0 01-.88 2.76z" fill="#c7b299" stroke="#c7b299" stroke-miterlimit="10"/></g></symbol><symbol viewBox="0 0 50 50" id="leaderboard-up" xmlns="http://www.w3.org/2000/svg"><path opacity=".28" d="M3.01 43.5V14.33h43.17V47H6.33" data-name="Welcome Page Web"/><g data-name="Sprite buttons"><path fill="#d62d7a" d="M8.33 38.19V10.31H3.02V43.5M3.02 10.31h5.31V5"/><path fill="#d62d7a" d="M8.33 38.19v5.31H2.94M36.13 43.5H8.33v-5.31h33.19M8.33 5h33.19v33.19H8.33z"/><path data-name="Icon ionic-ios-trophy" d="M36.21 14.13h-3.69V13a.89.89 0 00-.89-.89h-12.5a.89.89 0 00-.9.89v1.12h-3.68a.78.78 0 00-.78.78A8.74 8.74 0 0015 20a4.5 4.5 0 003.14 2.25.46.46 0 01.35.28 6 6 0 002.85 2.91 10.8 10.8 0 002.89 1.21.43.43 0 01.34.43v4.51a.45.45 0 01-.44.45h-3.64a.8.8 0 00-.8.74.78.78 0 00.74.82h9.84a.8.8 0 00.81-.74.79.79 0 00-.75-.82h-3.72a.46.46 0 01-.45-.45V27a.47.47 0 01.35-.44 10.77 10.77 0 002.89-1.2 6 6 0 002.85-2.92.45.45 0 01.35-.27A4.53 4.53 0 0035.74 20 9 9 0 0037 14.91a.78.78 0 00-.79-.78zm-18 6.17a.22.22 0 01-.22.23h-.08a3.24 3.24 0 01-1.71-1.61 5.82 5.82 0 01-.84-2.72.45.45 0 01.41-.49h2a.45.45 0 01.44.45zm16.3-1.4a3.24 3.24 0 01-1.71 1.61.22.22 0 01-.29-.13v-4.24a.45.45 0 01.45-.45h2a.45.45 0 01.45.45 5.86 5.86 0 01-.88 2.76z" fill="#d62d7a"/><path fill="#d62d7a" d="M8.33 38.19V10.31H3.02V43.5M3.02 10.31h5.31V5"/><path fill="#871242" d="M8.33 38.19v5.31H2.94M36.13 43.5H8.33v-5.31h33.19"/><path fill="#d91a60" d="M8.33 5h33.19v33.19H8.33z"/><path data-name="Icon ionic-ios-trophy" d="M36.21 14.13h-3.69V13a.89.89 0 00-.89-.89h-12.5a.89.89 0 00-.9.89v1.12h-3.68a.78.78 0 00-.78.78h0A8.74 8.74 0 0015 20a4.5 4.5 0 003.14 2.25.46.46 0 01.35.28 6 6 0 002.85 2.91 10.8 10.8 0 002.89 1.21.43.43 0 01.34.43v4.51a.45.45 0 01-.44.45h-3.64a.8.8 0 00-.8.74.78.78 0 00.74.82h9.84a.8.8 0 00.81-.74.79.79 0 00-.75-.82h-3.72a.46.46 0 01-.45-.45V27a.47.47 0 01.35-.44 10.77 10.77 0 002.89-1.2 6 6 0 002.85-2.92.45.45 0 01.35-.27A4.53 4.53 0 0035.74 20 9 9 0 0037 14.91h0a.78.78 0 00-.79-.78zm-18 6.17a.22.22 0 01-.22.23h-.08a3.24 3.24 0 01-1.71-1.61 5.82 5.82 0 01-.84-2.72.45.45 0 01.41-.49h2a.45.45 0 01.44.45zm16.3-1.4a3.24 3.24 0 01-1.71 1.61.22.22 0 01-.29-.13v-4.24a.45.45 0 01.45-.45h2a.45.45 0 01.45.45.08.08 0 010 0 5.86 5.86 0 01-.88 2.76z" fill="#c7b299" stroke="#c7b299" stroke-miterlimit="10"/></g></symbol><symbol viewBox="0 0 50 50" id="logo-floating" xmlns="http://www.w3.org/2000/svg"><g data-name="Layer 23"><path opacity=".28" d="M50.05 14.54V50.3H7.66V10.25h39.13"/><path fill="#a59481" d="M44.11 38.6v-33h-44v38.35h42.17"/><path fill="#c7b299" d="M2.11.25h42V38.6h-42z"/><path fill="#ddc6ac" d="M2.11.25l-2 5.35v38.35l2-5.35V.25z"/><g data-name="Logo M"><g data-name="Nopal Logo Sin M"><g data-name="Tuna 6"><path d="M11.35 9.74c.6 1.4 1.94 2.17 3 1.72s1.41-2 .81-3.34a4.83 4.83 0 00-1.71-2.27c-.2-.09-.6.25-1.27.55s-1.15.26-1.27.54c-.46 1.11.4 2.7.44 2.8z" fill="#ff7bac"/><path d="M11.5 10.15c.6 1.4 1.94 2.17 3 1.72s1.41-1.94.81-3.34c-.08-.2-.76-1.82-1.71-2.26-.2-.1-.6.24-1.27.54s-1.15.26-1.27.54c-.46 1.11.4 2.71.44 2.8z" fill="#d91a60"/></g><g data-name="Tuna 5"><path d="M16 6c.37 1.48 1.57 2.45 2.68 2.17S20.37 6.45 20 5a4.85 4.85 0 00-1.34-2.51c-.18-.12-.63.15-1.34.34s-1.17.07-1.33.33C15.36 4.17 16 5.88 16 6z" fill="#ff7bac"/><path d="M16.08 6.41c.37 1.48 1.57 2.45 2.67 2.17s1.7-1.7 1.33-3.17a4.78 4.78 0 00-1.34-2.51c-.18-.12-.62.15-1.33.34s-1.18.07-1.34.34c-.62 1.02-.02 2.73.01 2.83z" fill="#d91a60"/></g><g data-name="Tuna 7"><path d="M7.82 15.09c.87 1.25 2.34 1.72 3.27 1.07s1-2.2.11-3.44c-.13-.18-1.12-1.62-2.15-1.86-.21 0-.53.36-1.12.79s-1.08.49-1.13.79c-.22 1.19.96 2.56 1.02 2.65z" fill="#ff7bac"/><path d="M8.05 15.46c.88 1.25 2.34 1.73 3.28 1.07s1-2.2.1-3.44c-.12-.18-1.12-1.62-2.14-1.86-.22-.05-.54.36-1.13.79s-1.07.49-1.13.79C6.81 14 8 15.38 8.05 15.46z" fill="#d91a60"/></g><path d="M36.77 21.12c0 5.59-1.38 5.85-4.82 10-3 3.55-3.44 4.13-8.61 4.13-5.48 0-5-.56-8.61-4.13s-5-4.64-4.82-10C10.13 14.76 15.26 7 23.34 7c7.41 0 13.43 6.32 13.43 14.12z" fill="#324001"/><path d="M35.39 21.12c0 5.59-1.38 5.85-4.82 10-3 3.55-3.43 4.13-8.61 4.13-5.48 0-5-.56-8.61-4.13s-5-4.64-4.82-10C8.75 14.76 13.88 7 22 7c7.38 0 13.39 6.32 13.39 14.12z" fill="#7c8c03"/><g data-name="Tuna 1"><path d="M38.56 15.09c-.87 1.25-2.34 1.72-3.27 1.07s-1-2.2-.11-3.44c.13-.18 1.12-1.62 2.15-1.86.21 0 .53.36 1.12.79s1.08.49 1.13.79c.22 1.19-.96 2.56-1.02 2.65z" fill="#ff7bac"/><path d="M39.35 12.81c-.06-.3-.64-.43-1.13-.79s-.91-.84-1.13-.79c-1 .24-2 1.68-2.14 1.86a3.09 3.09 0 00-.58 2.32 2.89 2.89 0 01.86 1.21 2.55 2.55 0 003.1-1.16c.06-.08 1.24-1.46 1.02-2.65z" fill="#d91a60"/></g><g data-name="Tuna 2"><path d="M35.67 9.74c-.6 1.4-1.94 2.17-3 1.72s-1.42-2-.82-3.34c.09-.21.76-1.82 1.72-2.27.19-.09.59.25 1.26.55s1.15.26 1.27.54c.48 1.11-.39 2.7-.43 2.8z" fill="#ff7bac"/><path d="M36 7.35c-.12-.28-.72-.29-1.27-.54s-1.07-.64-1.26-.54c-1 .44-1.63 2.06-1.72 2.26a3.09 3.09 0 00-.09 2.36A2.79 2.79 0 0132.82 12a2.61 2.61 0 002.7-1.8c.04-.14.91-1.74.48-2.85z" fill="#d91a60"/></g><g data-name="Tuna 3"><path d="M30.93 6c-.38 1.48-1.57 2.45-2.68 2.17S26.55 6.45 26.92 5a4.85 4.85 0 011.34-2.51c.18-.12.63.15 1.33.34s1.18.07 1.34.33c.63 1.01.07 2.72 0 2.84z" fill="#ff7bac"/><path d="M30.85 3.58c-.16-.27-.76-.18-1.34-.34s-1.16-.46-1.33-.34a4.89 4.89 0 00-1.35 2.51 2.94 2.94 0 00.54 2.68 3 3 0 011.51.5 2.82 2.82 0 002-2.18c-.01-.1.59-1.81-.03-2.83z" fill="#d91a60"/></g><g data-name="Tuna 4"><path d="M25.44 4.1c0 1.52-.93 2.76-2.07 2.76S21.3 5.62 21.3 4.1a4.87 4.87 0 01.7-2.75c.15-.17.65 0 1.38 0s1.16-.22 1.38 0c.84.84.68 2.65.68 2.75z" fill="#ff7bac"/><path d="M22.68 7.11a4.22 4.22 0 01.64-.06 3.43 3.43 0 01.74.08 2.79 2.79 0 001.4-2.59c0-.11.17-1.91-.69-2.76-.22-.21-.77 0-1.38 0s-1.23-.16-1.37 0a4.83 4.83 0 00-.69 2.76 2.82 2.82 0 001.35 2.57z" fill="#d91a60"/></g><ellipse cx="13.64" cy="15.6" rx=".42" ry=".33" transform="rotate(-66.4 13.648 15.599)" fill="#4d4d4d" stroke="#4d4d4d" stroke-miterlimit="10" stroke-width=".5"/><ellipse cx="14.49" cy="31.43" rx=".27" ry=".37" transform="rotate(-20.83 14.498 31.433)" fill="#4d4d4d" stroke="#4d4d4d" stroke-miterlimit="10" stroke-width=".5"/><ellipse cx="17.5" cy="27.81" rx=".21" ry=".26" transform="rotate(-13.56 17.508 27.8)" fill="#4d4d4d" stroke="#4d4d4d" stroke-miterlimit="10" stroke-width=".5"/><ellipse cx="26.83" cy="29.45" rx=".29" ry=".35" transform="rotate(-6.22 26.829 29.424)" fill="#4d4d4d" stroke="#4d4d4d" stroke-miterlimit="10" stroke-width=".5"/><ellipse cx="22.73" cy="24.52" rx=".22" ry=".31" fill="#4d4d4d" stroke="#4d4d4d" stroke-miterlimit="10" stroke-width=".5"/><ellipse cx="22.11" cy="30.46" rx=".25" ry=".3" transform="translate(-.63 .47)" fill="#4d4d4d" stroke="#4d4d4d" stroke-miterlimit="10" stroke-width=".5"/><ellipse cx="27.82" cy="24.77" rx=".23" ry=".19" transform="matrix(.08 -1 1 .08 .99 50.6)" fill="#4d4d4d" stroke="#4d4d4d" stroke-miterlimit="10" stroke-width=".5"/><ellipse cx="26.43" cy="20.05" rx=".25" ry=".18" transform="rotate(-84.34 26.422 20.054)" fill="#4d4d4d" stroke="#4d4d4d" stroke-miterlimit="10" stroke-width=".5"/><ellipse cx="29.68" cy="16.85" rx=".23" ry=".27" transform="rotate(-1.11 29.777 16.807)" fill="#4d4d4d" stroke="#4d4d4d" stroke-miterlimit="10" stroke-width=".5"/><ellipse cx="32.08" cy="21.44" rx=".21" ry=".26" fill="#4d4d4d" stroke="#4d4d4d" stroke-miterlimit="10" stroke-width=".5"/><ellipse cx="33.99" cy="25.28" rx=".25" ry=".46" transform="rotate(-4.65 34.004 25.31)" fill="#4d4d4d" stroke="#4d4d4d" stroke-miterlimit="10" stroke-width=".5"/><ellipse cx="33.06" cy="15.91" rx=".19" ry=".45" transform="rotate(-20.5 33.044 15.912)" fill="#4d4d4d" stroke="#4d4d4d" stroke-miterlimit="10" stroke-width=".5"/><ellipse cx="24.98" cy="12.39" rx=".18" ry=".21" transform="rotate(-65.63 24.975 12.394)" fill="#4d4d4d" stroke="#4d4d4d" stroke-miterlimit="10" stroke-width=".5"/><ellipse cx="27.22" cy="9.99" rx=".21" ry=".34" transform="rotate(-67.84 27.211 9.985)" fill="#4d4d4d" stroke="#4d4d4d" stroke-miterlimit="10" stroke-width=".5"/><ellipse cx="13.1" cy="24.64" rx=".34" ry=".25" transform="rotate(-80.44 13.1 24.646)" fill="#4d4d4d" stroke="#4d4d4d" stroke-miterlimit="10" stroke-width=".5"/><ellipse cx="12.39" cy="20.89" rx=".34" ry=".25" transform="rotate(-80.44 12.395 20.886)" fill="#4d4d4d" stroke="#4d4d4d" stroke-miterlimit="10" stroke-width=".5"/><ellipse cx="17.89" cy="21.28" rx=".29" ry=".23" transform="rotate(-74.8 17.891 21.285)" fill="#4d4d4d" stroke="#4d4d4d" stroke-miterlimit="10" stroke-width=".5"/><ellipse cx="20.77" cy="17.46" rx=".39" ry=".25" transform="rotate(-84.72 20.77 17.453)" fill="#4d4d4d" stroke="#4d4d4d" stroke-miterlimit="10" stroke-width=".5"/><ellipse cx="9.51" cy="22.4" rx=".29" ry=".59" transform="rotate(-1.79 9.577 22.24)" fill="#4d4d4d" stroke="#4d4d4d" stroke-miterlimit="10" stroke-width=".5"/><ellipse cx="10.4" cy="15.52" rx=".58" ry=".27" transform="rotate(-79.22 10.398 15.517)" fill="#4d4d4d" stroke="#4d4d4d" stroke-miterlimit="10" stroke-width=".5"/><ellipse cx="17.9" cy="11.05" rx=".24" ry=".29" transform="rotate(-6.75 17.898 11.01)" fill="#4d4d4d" stroke="#4d4d4d" stroke-miterlimit="10" stroke-width=".5"/><ellipse cx="20.62" cy="13.27" rx=".2" ry=".23" transform="rotate(-1.4 20.711 13.35)" fill="#4d4d4d" stroke="#4d4d4d" stroke-miterlimit="10" stroke-width=".5"/><g fill="#fcee21"><path d="M13.58 15.57a1.09 1.09 0 01-.49-.19 1.24 1.24 0 01-.29-.38c-.18-.25-.34-.51-.5-.78.27.18.53.36.78.56a1.48 1.48 0 01.36.3.87.87 0 01.14.47zM20.65 17.33a1.49 1.49 0 01-.81.34 3.2 3.2 0 01-.82 0 1.88 1.88 0 00-1.45.45 1.93 1.93 0 011.43-.88 3.9 3.9 0 01.82-.07c.27 0 .52 0 .81.12zM9.48 22.42a3.4 3.4 0 01-.4.91 5.4 5.4 0 01-.62.74c-.42.48-.85 1-1.3 1.43.33-.56.67-1.11 1-1.64a4.49 4.49 0 01.54-.8 3.39 3.39 0 01.76-.64zM10.23 15.34a1.22 1.22 0 01-.54.13 1.71 1.71 0 01-.49-.14l-1-.36v-.05h1a1.4 1.4 0 01.5.05 1.1 1.1 0 01.46.31zM22.67 24.37a1.42 1.42 0 01-.42-.43 1.61 1.61 0 01-.15-.53c-.1-.36-.18-.72-.25-1.09q.3.48.57 1a1.89 1.89 0 01.25.49 1.36 1.36 0 010 .6zM22.64 24.72a1.6 1.6 0 010 .62 1.79 1.79 0 01-.27.51c-.18.34-.39.67-.6 1h-.05c.08-.38.18-.76.28-1.13a2.16 2.16 0 01.18-.56 1.38 1.38 0 01.43-.44zM34 25.19a3.78 3.78 0 011-.51 5.65 5.65 0 011.09-.19 16.12 16.12 0 012.19-.15v.05c-.72.15-1.43.31-2.13.49a10.09 10.09 0 01-1 .29 5.76 5.76 0 01-1.11.07zM27 10a2.87 2.87 0 01-.88 0 3.78 3.78 0 01-.79-.3c-.53-.2-1.05-.42-1.57-.65V9c.56.09 1.12.2 1.67.32a4.57 4.57 0 01.83.2 2.92 2.92 0 01.74.46zM33.09 15.77a1 1 0 01.43-.29 1.24 1.24 0 01.47 0h.95v.05c-.3.11-.6.21-.9.29a1.24 1.24 0 01-.46.11 1.17 1.17 0 01-.49-.16zM33 16a.9.9 0 01.17.43 1.07 1.07 0 01-.1.39 6.55 6.55 0 01-.28.78 7.74 7.74 0 01-.07-.83.94.94 0 010-.41A.85.85 0 0133 16zM17.86 11a3.21 3.21 0 01-.8.68 4.24 4.24 0 01-1 .4 14.88 14.88 0 01-2 .59v-.05q.93-.43 1.83-.9a7 7 0 01.89-.48 4.7 4.7 0 011-.28zM18 10.74a.61.61 0 010-.57 5.52 5.52 0 01.16-.54 5.42 5.42 0 010 .57.62.62 0 01-.16.55zM20.61 13.21a1.1 1.1 0 01.53.16 1.17 1.17 0 01.34.36c.22.25.44.52.64.79-.3-.17-.59-.34-.87-.53a1.33 1.33 0 01-.41-.29 1.06 1.06 0 01-.23-.5zM24.91 12.43a.67.67 0 01-.55-.19c-.16-.11-.32-.22-.47-.34l.55.19a.68.68 0 01.47.35zM25.05 12.52a1 1 0 01-.1.53 1.33 1.33 0 01-.33.38c-.23.24-.47.48-.72.7.13-.31.28-.61.44-.91a1.4 1.4 0 01.24-.43 1.14 1.14 0 01.47-.27zM26.39 20.07a3.83 3.83 0 011.06.44 5.51 5.51 0 01.86.74 12.51 12.51 0 011.5 1.67c-.56-.5-1.13-1-1.73-1.41-.3-.21-.62-.39-.9-.63a6.08 6.08 0 01-.79-.81zM29.74 16.67a.9.9 0 01-.41.23 1 1 0 01-.42 0 8 8 0 01-.82-.17v-.05c.27-.07.55-.13.82-.18a1 1 0 01.41-.05.86.86 0 01.42.22zM32.09 21.28a4 4 0 01.83-.66 5.38 5.38 0 01.95-.42c.64-.27 1.28-.53 1.93-.78-.59.37-1.18.74-1.78 1.09a7.33 7.33 0 01-.91.51 4.2 4.2 0 01-1 .26zM27.68 24.86a1.1 1.1 0 01-.48-.19 1.29 1.29 0 01-.28-.37c-.18-.26-.35-.53-.5-.8a8.85 8.85 0 01.76.57 1.31 1.31 0 01.36.3 1.05 1.05 0 01.15.5zM18 21.3a1.12 1.12 0 01-.28.45 1.4 1.4 0 01-.42.22c-.29.13-.59.26-.89.37.23-.23.46-.46.7-.67a1.32 1.32 0 01.37-.3 1 1 0 01.52-.07zM17.59 21.14a1.32 1.32 0 01-.59-.24 1.73 1.73 0 01-.36-.44c-.22-.29-.44-.6-.65-.92q.46.33.9.69a1.65 1.65 0 01.43.36 1.4 1.4 0 01.22.56zM12.36 20.94a3.68 3.68 0 01-1.06-.1 5.43 5.43 0 01-1-.35c-.63-.25-1.3-.49-1.92-.79v-.05c.69.14 1.37.29 2 .45a5.92 5.92 0 011 .27 3.73 3.73 0 01.93.52zM12.56 20.78a.53.53 0 01.33-.38l.45-.24c-.11.13-.22.26-.34.38a.51.51 0 01-.45.24zM13 24.4a4.2 4.2 0 011.11-.07 6.62 6.62 0 011.08.2c.71.14 1.43.3 2.14.47v.05c-.73 0-1.46-.07-2.19-.13a5.57 5.57 0 01-1.08-.1 4.11 4.11 0 01-1.06-.37zM17.54 27.76a2.79 2.79 0 01-.85.3 4.1 4.1 0 01-.86 0h-1.74c.57-.12 1.14-.23 1.71-.32a4.24 4.24 0 01.86-.12 3 3 0 01.88.14zM17.65 27.66a.71.71 0 010-.59.91.91 0 01.4-.4 1.55 1.55 0 011-.27v.05a1.72 1.72 0 00-.77.53 3.22 3.22 0 01-.24.36c-.11.09-.21.2-.38.33zM14.28 31.33a2.13 2.13 0 01-.79 0 3.1 3.1 0 01-.73-.23c-.48-.16-1-.34-1.44-.53.51 0 1 .11 1.52.19a2.75 2.75 0 01.76.13 2.33 2.33 0 01.69.4zM14.56 31.37a2.37 2.37 0 01.67-.41 3.14 3.14 0 01.74-.15c.5-.08 1-.16 1.51-.22v.05c-.47.2-.94.39-1.41.56a3.21 3.21 0 01-.72.24 2.35 2.35 0 01-.79 0zM22.05 30.24a4.45 4.45 0 01.84-.94 6.33 6.33 0 011-.68 20.85 20.85 0 012.19-1.16v.05q-1 .69-2 1.44c-.32.25-.62.53-1 .75a6.76 6.76 0 01-1.1.58zM26.82 29.38a2.27 2.27 0 01-1.08.26l-1.1.08c.36-.1.72-.18 1.08-.26a2.32 2.32 0 011.11-.08zM26.94 29.38a2.06 2.06 0 01.68.27 2.52 2.52 0 01.5.48c.32.33.64.67.95 1-.4-.24-.8-.49-1.18-.75a2.84 2.84 0 01-.56-.4 2 2 0 01-.39-.62zM22.1 30.72a1.18 1.18 0 01-.2.39 1.25 1.25 0 01-.3.21 2.5 2.5 0 00-.54.58 1.69 1.69 0 01.29-.82.76.76 0 01.29-.35.68.68 0 01.49 0zM33.89 25.57c-.26 0-.46 0-.66.05s-.39 0-.6 0a1.79 1.79 0 00-1 .71 1.71 1.71 0 011-1.07 1.24 1.24 0 01.76-.14 1 1 0 01.65.41z"/></g></g><text transform="translate(13.97 31.54)" font-size="33.867" fill="#fff" stroke="#7c8c03" stroke-miterlimit="10" font-family="HVDSteinzeit-FillIn,HVD Steinzeit">M</text><text transform="translate(14.03 31.79)" font-size="33.867" fill="#d91a60" stroke="#7c8c03" stroke-miterlimit="10" font-family="HVDSteinzeit,HVD Steinzeit">M</text></g></g></symbol><symbol viewBox="0 0 50 50" id="menu-down" xmlns="http://www.w3.org/2000/svg"><path opacity=".28" d="M2.71 42.5V13.33H40V46H5.58" data-name="Welcome Page Web"/><g data-name="Sprite buttons"><path fill="#d62d7a" d="M8.03 37.19V9.31H2.72V42.5M2.72 9.31h1.31V8"/><path fill="#d62d7a" d="M8.03 37.19v5.31h-5.4"/><path d="M37.19 41.16l-1.37 1.34H8v-5.31h29.22" fill="#d62d7a"/><path fill="#d62d7a" d="M4.03 8h33.19v33.19H4.03z"/><g fill="#d62d7a"><path d="M12.65 23.24h16.52c.53 0 1 .62 1 1.38v.14c0 .76-.44 1.38-1 1.38H12.65c-.54 0-1-.62-1-1.38v-.14c.02-.76.46-1.38 1-1.38zM12.65 30.48h16.52c.53 0 1 .62 1 1.38V32c0 .76-.44 1.38-1 1.38H12.65c-.54 0-1-.62-1-1.38v-.14c.02-.76.46-1.38 1-1.38zM12.65 16h16.52c.53 0 1 .62 1 1.38v.14c0 .76-.44 1.38-1 1.38H12.65c-.54 0-1-.62-1-1.38v-.14c.02-.76.46-1.38 1-1.38z"/></g><path fill="#d62d7a" d="M8.03 37.19V9.31H2.72V42.5M2.72 9.31h1.31V8"/><path fill="#871242" d="M8.03 37.19v5.31h-5.4"/><path d="M37.19 41.16l-1.37 1.34H8v-5.31h29.22" fill="#871242"/><path fill="#d91a60" d="M4.03 8h33.19v33.19H4.03z"/><g data-name="menu-outline" fill="#c7b299"><path d="M12.65 23.24h16.52c.53 0 1 .62 1 1.38v.14c0 .76-.44 1.38-1 1.38H12.65c-.54 0-1-.62-1-1.38v-.14c.02-.76.46-1.38 1-1.38zM12.65 30.48h16.52c.53 0 1 .62 1 1.38V32c0 .76-.44 1.38-1 1.38H12.65c-.54 0-1-.62-1-1.38v-.14c.02-.76.46-1.38 1-1.38zM12.65 16h16.52c.53 0 1 .62 1 1.38v.14c0 .76-.44 1.38-1 1.38H12.65c-.54 0-1-.62-1-1.38v-.14c.02-.76.46-1.38 1-1.38z"/></g></g></symbol><symbol viewBox="0 0 50 50" id="menu-up" xmlns="http://www.w3.org/2000/svg"><path opacity=".28" d="M3.01 43.5V14.33h43.17V47H6.33" data-name="Welcome Page Web"/><g data-name="Sprite buttons"><path fill="#d62d7a" d="M8.33 38.19V10.31H3.02V43.5M3.02 10.31h5.31V5"/><path fill="#d62d7a" d="M8.33 38.19v5.31H2.94M36.13 43.5H8.33v-5.31h33.19M8.33 5h33.19v33.19H8.33z"/><g fill="#d62d7a"><path d="M17 19.24h16.47c.53 0 1 .62 1 1.38v.14c0 .76-.44 1.38-1 1.38H17c-.54 0-1-.62-1-1.38v-.14c0-.76.41-1.38 1-1.38zM17 26.48h16.47c.53 0 1 .62 1 1.38V28c0 .76-.44 1.38-1 1.38H17c-.54 0-1-.62-1-1.38v-.14c0-.76.41-1.38 1-1.38zM17 12h16.47c.53 0 1 .62 1 1.38v.14c0 .76-.44 1.38-1 1.38H17c-.54 0-1-.62-1-1.38v-.14c0-.76.41-1.38 1-1.38z"/></g><path fill="#d62d7a" d="M8.33 38.19V10.31H3.02V43.5M3.02 10.31h5.31V5"/><path fill="#871242" d="M8.33 38.19v5.31H2.94M36.13 43.5H8.33v-5.31h33.19"/><path fill="#d91a60" d="M8.33 5h33.19v33.19H8.33z"/><g data-name="menu-outline" fill="#c7b299"><path d="M17 19.24h16.47c.53 0 1 .62 1 1.38v.14c0 .76-.44 1.38-1 1.38H17c-.54 0-1-.62-1-1.38v-.14c0-.76.41-1.38 1-1.38zM17 26.48h16.47c.53 0 1 .62 1 1.38V28c0 .76-.44 1.38-1 1.38H17c-.54 0-1-.62-1-1.38v-.14c0-.76.41-1.38 1-1.38zM17 12h16.47c.53 0 1 .62 1 1.38v.14c0 .76-.44 1.38-1 1.38H17c-.54 0-1-.62-1-1.38v-.14c0-.76.41-1.38 1-1.38z"/></g></g></symbol></svg>