<?xml version="1.0" encoding="utf-8"?><svg xmlns="http://www.w3.org/2000/svg" xmlns:xlink="http://www.w3.org/1999/xlink"><symbol viewBox="0 0 960 560" id="hero-box" xmlns="http://www.w3.org/2000/svg"><path fill="#253659" stroke="#000" stroke-miterlimit="10" d="M.5.5h960v560H.5z" data-name="HeroBox Web Background"/><g data-name="HeroBox Web"><path d="M0 559h948.73l-64.4-22.26c-11.45-4-23.11-8-35.22-8.3-21.62-.61-43.05 10.49-64.23 6.1-26.35-5.46-43.45-33-69.53-39.64-31.39-8-63.09 17-95.23 13-30.28-3.77-51.28-31.43-78.38-45.47-49.29-25.52-108.7-2.81-164.2-3.83C318 457.46 263 428.63 210.5 400.5l-66.8-35.82c-9.8-5.25-19.7-10.57-28-17.95-14.06-12.49-22.57-29.87-31.52-46.41s-19.31-33.33-35.44-43c-14.94-9-36.13-9.62-48.72 1.84z" fill="#c7b299"/><path data-name="mountain 2" d="M959.13 560V252.64a29.35 29.35 0 00-18.6 4c-14.25 8.36-18.41 26.5-24.53 40.63-5.38 12.43-14.43 25.12-27.83 27.18-14.62 2.25-30.1-9-43.6-2.91-10.46 4.69-14.25 17.66-14.62 29.12s1.37 23.42-2.94 34c-6.62 16.3-25.49 24.18-43 25.79s-35.32-1.31-52.71 1.34c-44.49 6.8-75.71 47.45-117.19 64.93-31.69 13.35-67.34 12.38-101.69 10.89s-69.86-3.08-102 9.19c-27.78 10.61-51.13 34.63-55.77 63.13z" fill="#603813"/><g data-name="Nopal 2"><g data-name="Tuna 4"><path d="M288.56 168.21c8.14 7.47 17.52 14.24 28.39 16.22 16.39 3 32.49-5.33 47.08-13.37 12.76-7 26.16-14.68 33.24-27.4 6-10.77 6.57-23.75 5.32-36a136.2 136.2 0 00-32.49-74.92c-6.47-7.43-13.93-14.26-22.91-18.31-7.22-3.26-15.13-4.6-22.95-5.91-4.61-.78-9.36-1.52-13.92-.52a36.42 36.42 0 00-8.5 3.52l-16.94 8.79c-9.11 4.73-18.23 9.46-27.3 14.26-3.51 1.86-7.14 3.83-9.48 7.05-6.89 9.49-1.57 25.08-3 36-1.34 10.56-.93 18.12 2.68 28.45 8.22 23.44 22.22 45.58 40.78 62.14z" fill="#d91a60"/><path d="M403.34 107.62a136.08 136.08 0 00-32.48-74.9c-6.47-7.43-13.93-14.27-22.86-18.32-7.22-3.26-15.13-4.6-22.95-5.91-4.66-.77-9.41-1.49-13.97-.49a36 36 0 00-8.5 3.53l-16.95 8.77Q272 27.38 258.34 34.55c-3.51 1.86-7.14 3.83-9.48 7.05-6.89 9.49-1.58 25.08-3 36-1.34 10.56-.93 18.13 2.68 28.46 8.17 23.39 22.18 45.53 40.73 62.09-5.38-6.77-6.57-17.42-5-25.92.83-4.47 2.67-9.1 1.23-13.41-1.24-3.71-4.64-6.26-6.54-9.68-5.32-9.6 2.42-23-3.76-32.09-3.5-5.14-10.78-7.48-12.62-13.42-1.8-5.78 3-11.94 8.76-13.85s12-.76 17.95.41L313.6 65c5.79 1.15 13.23 1.6 16.15-3.54 3.34-5.9-2.59-14 .91-19.85 2.72-4.52 9.26-4.52 14.38-3.23a56.63 56.63 0 0127.2 16c10.82 11.47 16.31 26.84 21.51 41.74 1.62 4.62 7.97 6.88 9.59 11.5z" fill="#ff7bac"/><path d="M397.45 141.25c.11 3.12-3 5.92-5.54 8.66-7.48 8-17.28 13.43-26.78 18.67-14.59 8-30.69 16.35-47.08 13.36-6.19-1.12-27.88-9.25-27.66-17.21.25-9.32 22.55-12.26 28.81-12.74 10.75-.81 21.9-.3 31.9-4.36 5.55-2.25 10.46-5.82 15.61-8.9s10.8-5.73 16.79-5.84c4.36-.09 9.43 1.46 12.38 4.84a5.75 5.75 0 011.57 3.52z" fill="#9e005d"/></g><path d="M840.19 559.61h.2a407 407 0 009.52-96c-2.39-107.47-55.73-215.84-147.67-271.52-40.48-24.51-86.61-38.34-133.15-46.91-61.88-11.39-126.29-13.78-187.3 1.61s-118.51 49.72-154.45 101.36c-24 34.44-37.61 75.1-46.22 116.16a548.86 548.86 0 00-9 58.73c-4.46 45.55-3.08 92 7 136.57z" fill="#324001"/><path d="M832.48 559.61a107.06 107.06 0 002.32-13.3c2.28-20.39 2.48-40.95 2.68-61.46.34-34.14.6-68.9-9.36-101.55-6.7-21.95-18.29-43.27-18.85-66.65-.2-8.09 1.35-7.7-6.19-9.64-5.72-1.47-11.68-2.05-17.42-3.61a109.9 109.9 0 01-32.38-14.33c-14.32-9.59-23.75-20.56-34-34.19-3.72-4.94-7.19-10-10.64-15.15-1.92-2.86-3.87-5.69-5.81-8.53l-.33-.48a80.02 80.02 0 01-3.78-5.42c-1.7-1-3.37-2-5.09-3-4.57-2.62-9.13-5.26-13.79-7.71q-3.48-1.84-7-3.55l-1.9-.88c-2.7-.68-5.61-1.23-6.18-1.43l-2.15-.44c-1.09-.08-2.17-.16-3.27-.21a127.73 127.73 0 00-15.9.36l-33.22 3.9a151.79 151.79 0 01-17.71.9c-28.07-.44-55.11-9.82-79.45-23.34-4.11-2.28-6.85-4.12-11.49-4.7a87.18 87.18 0 01-12.89-2.64A94.94 94.94 0 01464.57 172a93.42 93.42 0 01-16.72-13c-2.19-2.16-4.26-5.54-6.88-7.1s-6.38-2.43-9.28-3.86a75.37 75.37 0 01-13.36-8.52q-13.26 1.85-26.36 4.69a69.28 69.28 0 01-73.2 26.05q-4.68 2.38-9.28 4.94a83.84 83.84 0 014.37 20.8c3.8 46.48-40.05 85.17-85.62 70.15a84.62 84.62 0 01-9.92-4c-18.46 31.19-29.71 66.45-37.16 102a546.55 546.55 0 00-9 58.72c-4.47 45.62-3.08 92.16 7.05 136.77z" fill="#7c8c03"/><path d="M644.39 208.39c-7.89 2.06-17 4.74-23.27 10.08-5.33 4.54-11 11-11.29 18.35-.17 4.44.73 9-.26 13.3-1.81 7.9-10.7 13.45-18.58 11.53s-13.21-11-10.94-18.83 10-12.17 17.07-15.88c3.24-1.7 6.49-3.63 8.82-6.51 2.15-2.66 4.82-6.14 5.51-9.55" fill="#324001"/><g data-name="Black spots"><path d="M389.67 446.32c-1.74 2.49-3.56 5.28-3.23 8.3.44 4.07 4.48 6.62 8.08 8.56 4.66 2.51 9.79 5.09 15 4.14s9.52-5.86 10.39-11.22-1.29-11-5-14.92c-3.13-3.33-9.1-7.66-14-6.8-5.3.91-8.52 8.04-11.24 11.94zM271.21 316.06c-2 6-.7 13.4 4.34 17.2 4.17 3.14 10.05 3.25 15 1.47s9-5.21 12.88-8.76a25.57 25.57 0 005.52-6.5 9.63 9.63 0 00.66-8.26c-1.77-3.92-6.47-5.41-10.64-6.47-5.08-1.29-12.62-5.1-17.41-2.12-4.56 2.8-8.69 8.48-10.35 13.44zM567.07 424.62c2.09 8.92 3.48 18.31 8.5 26s15.09 13.05 23.46 9.32c8-3.54 10.9-13.34 11.39-22s-.44-17.88 3.41-25.7c5.27-10.68 19.79-15.6 30.46-10.31s15.57 19.81 10.27 30.48c-2.09 4.19-5.41 7.63-8 11.54A37.67 37.67 0 00662.45 499c8 3.65 17.07 4.35 25.86 5.24s17.85 2.11 25.46 6.62 13.43 13.13 12 21.86c-1.74 11-13.31 17.28-23.86 20.77-11.83 3.91-26 6.06-35.81-1.58s-11.24-21.4-17.22-32.15a41.1 41.1 0 00-68.14-5.51c-8.3 10.48-11.51 25-22.06 33.2-12.5 9.74-33.32 5.51-41-8.33s-.35-33.77 14.51-39.28c5.75-2.13 12-2.28 18-3.48s12.25-3.85 15.26-9.19c4.62-8.21-.32-18.32-5.17-26.39q-12.31-20.52-24.65-41c-4.33-7.22-10.14-15.32-18.56-15.37-6.5 0-12 4.92-18.29 6.35s-13.17-.87-18.48-4.71-9.41-9.1-13.43-14.28c-6.69-8.62-13.69-18-14.08-28.94a26.71 26.71 0 0111.23-22.45c6.92-4.81 17.67-6.75 25.23-2.43 3.29 1.87 5.51 5.36 8.45 7.67 4.5 3.54 4.73 9.57 3.81 15.22-.56 3.45-1.92 6.83-1.71 10.32.26 4.31 2.91 8.15 6.09 11.07 9.7 8.87 23.8 10.59 35.59 16.39 10.83 5.29 22.85 14.28 25.59 26zM186.82 459c2.54 2.84 4.18 6.34 5.81 9.78 4.65 9.86 13.61 34.65 27.58 34.24 4.66-.14 8.94-3 11.7-6.75s4.17-8.34 5.08-12.91a69.62 69.62 0 00.46-24.68c-1.12-7-3.29-14.27-1-21a16.64 16.64 0 0132.39 5.09c.08 4.55-2 9.29-5.9 11.61-4.52 2.69-10.68 1.89-14.71 5.26-4.76 4-4.05 11.41-2.4 17.38s3.76 12.69.65 18c-1.3 2.24-3.43 4-4.24 6.46-1.33 4.07 1.63 8.54 5.48 10.4 12.35 6 27.31-2.66 38.91 6.76a18.76 18.76 0 01-13.92 33.21c-7-.78-12.91-5.37-17.88-10.32s-9.49-10.51-15.47-14.18c-6.84-4.2-15-5.55-22.64-7.95s-15.51-6.44-18.95-13.68c-1.5-3.15-2.07-6.73-3.9-9.7s-5.75-5.19-8.82-3.53c-3.91 2.14-3.5 8.71-7.48 10.73-2.74 1.38-6.23-.36-7.83-3s-1.8-5.83-1.95-8.9c-.21-4.12-.91-7.63-.13-11.58.92-4.66 2.24-8.53 1.62-13.42a34.39 34.39 0 01-.67-6.61c.62-9.03 14.28-5.55 18.21-.71zM708.53 355.32a18.41 18.41 0 0015.33 8.9 16.73 16.73 0 0014.93-9.22c4.79-10.09-3.65-23-15.08-22.13-11.13.83-21.71 11.57-15.18 22.45zM203.23 335.14a18.41 18.41 0 0015.87-7.89 16.74 16.74 0 00.54-17.54c-5.79-9.56-21.2-9.62-26.79.39-5.44 9.75-2.3 24.5 10.38 25.04zM453.62 258.15c-.82 4.52.79 9.23 3.46 13s6.33 6.65 10.05 9.35c4.52 3.28 9.66 6.46 15.23 6.09 6.18-.41 11.49-5.52 13-11.53 5.96-23.65-37.14-42.13-41.74-16.91zM385.51 215.67c.15 10.34 9.52 19.65 19.85 19.74s19.86-9.06 20.19-19.39c.24-7.48-3.65-14.39-7.42-20.85-1.48-2.52-3-5.14-5.46-6.76-9.51-6.37-9.45 8.18-14 12-6.28 5.3-13.32 4.04-13.16 15.26zM796.53 330.9a25 25 0 0018.59 19.1c3.92.88 8.93.26 10.6-3.4 1.25-2.73.06-5.9-1.12-8.66q-4.94-11.47-9.85-22.95c-8.34-19.43-20.53 4.22-18.22 15.91zM777.05 429.7c-3.35 3.55-4.59 8.54-5.7 13.3-1.79 7.7-3.44 16.37.78 23.05 4.36 6.91 13.25 9 20.32 13.1a37.21 37.21 0 0117.74 25c3-1.35 4.94-4.59 5.55-7.87s.13-6.67-.34-10q-2.19-15.28-4.4-30.56c-.78-5.48-1.64-11.16-4.68-15.79-4.97-7.56-21.18-18.78-29.27-10.23zM827.43 549.35c.05 2.63.11 5.33 1.15 7.74a8.45 8.45 0 001.67 2.52h8.55a8.5 8.5 0 001.48-2 20.41 20.41 0 001.75-7.14c.88-7.3 3.06-15 2.56-22.32a25.29 25.29 0 00-1.59-8.52c-1.18-2.66-3.53-5-6.41-5.3-3.52-.39-6.79 2.34-8.19 5.6s-1.36 6.92-1.3 10.46z" fill="#324001"/><ellipse cx="287.2" cy="319.25" rx="10.18" ry="8.46" transform="rotate(-45 287.206 319.245)" stroke="#000" stroke-miterlimit="10"/><ellipse cx="534.24" cy="524.31" rx="6" ry="7.2" stroke="#000" stroke-miterlimit="10"/><ellipse cx="672.81" cy="530.03" rx="5.32" ry="5.06" transform="rotate(-70.4 672.815 530.03)" stroke="#000" stroke-miterlimit="10"/><ellipse cx="634.89" cy="421.64" rx="5.88" ry="4.94" transform="rotate(-78.73 634.886 421.639)" stroke="#000" stroke-miterlimit="10"/><ellipse cx="723.39" cy="348.06" rx="6.21" ry="6.26" transform="rotate(-37.66 723.45 348.068)" stroke="#000" stroke-miterlimit="10"/><ellipse cx="788.79" cy="453.55" rx="5.7" ry="6" stroke="#000" stroke-miterlimit="10"/><ellipse cx="840.67" cy="541.82" rx="6.69" ry="10.52" transform="rotate(-6.56 840.09 541.477)" stroke="#000" stroke-miterlimit="10"/><ellipse cx="815.23" cy="326.46" rx="5.11" ry="10.52" transform="rotate(-25.84 815.127 326.437)" stroke="#000" stroke-miterlimit="10"/><ellipse cx="595.47" cy="245.55" rx="4.23" ry="5.73" transform="rotate(-78.07 595.504 245.547)" stroke="#000" stroke-miterlimit="10"/><ellipse cx="656.36" cy="190.16" rx="4.93" ry="9.14" transform="rotate(-73.8 656.407 190.145)" stroke="#000" stroke-miterlimit="10"/><ellipse cx="272.35" cy="527.19" rx="7.88" ry="6.63" transform="rotate(-70.88 272.355 527.189)" stroke="#000" stroke-miterlimit="10"/><ellipse cx="253.16" cy="440.84" rx="7.88" ry="6.63" transform="rotate(-70.88 253.163 440.839)" stroke="#000" stroke-miterlimit="10"/><ellipse cx="402.77" cy="449.86" rx="6.95" ry="6.01" transform="rotate(-56.57 402.77 449.862)" stroke="#000" stroke-miterlimit="10"/><ellipse cx="481.12" cy="361.91" rx="8.92" ry="6.91" transform="rotate(-81.4 478.763 361.453)" stroke="#000" stroke-miterlimit="10"/><ellipse cx="174.63" cy="475.64" rx="7.83" ry="13.64" transform="rotate(-2.41 174.768 475.97)" stroke="#000" stroke-miterlimit="10"/><ellipse cx="198.91" cy="317.39" rx="13.53" ry="7.24" transform="rotate(-75.87 198.92 317.392)" stroke="#000" stroke-miterlimit="10"/><ellipse cx="402.87" cy="214.56" rx="6.33" ry="6.65" transform="rotate(-33.42 402.828 214.545)" stroke="#000" stroke-miterlimit="10"/><ellipse cx="476.96" cy="265.73" rx="5.27" ry="5.34" transform="rotate(-70.88 476.965 265.725)" stroke="#000" stroke-miterlimit="10"/></g><g data-name="Tuna 1"><path d="M720 121.21c2.07-10.71 5-21.45 10.7-30.75s14.56-17.09 25.2-19.54c7.09-1.63 14.48-.84 21.71 0l43.53 4.8c12.18 1.34 25 2.9 34.94 10 13.57 9.65 18.84 27.32 20.3 43.9C881 181 855.18 234 811.91 262.27c-12 7.82-25.58 13.93-39.89 14.45-10.7.38-23.73-2.79-31.49-10.69-5.92-6-8-16.81-10.8-24.57A228.69 228.69 0 01716 165.7a225.14 225.14 0 014-44.49z" fill="#d91a60"/><path d="M877.17 130.17c-1.46-16.59-6.73-34.26-20.3-43.91-10-7.1-22.76-8.66-34.94-10l-43.53-4.79c-7.23-.8-14.63-1.59-21.72 0-10.63 2.53-19.48 10.29-25.2 19.58 1.87 3.45 8.24 3.74 11.93 2.42s6.55-4.22 9.38-6.93 6-5.42 9.82-6.17c6.37-1.23 12.36 3.23 17 7.75s9.51 9.71 15.95 10.48c4.58.55 9.06-1.27 13.58-2.2s9.93-.64 12.77 3c3.81 4.86 1.29 13.5 6.49 16.82 4.35 2.76 9.86-.92 13.43-4.63s8.1-8.06 13-6.61c4.14 1.22 6.06 6 6.55 10.31s.2 8.87 2.29 12.66 10.77 5.57 13.5 2.22z" fill="#ff7bac"/><path d="M876 164.33c-6.46 39.53-29.52 76.47-63.16 98.41-12 7.82-25.58 13.94-39.9 14.45a51.15 51.15 0 01-10.19-.66 47.25 47.25 0 01-10.94-3.15c-1.67-.72-3.21-1.65-4.91-2.27a23.21 23.21 0 01-5.19-2.68c-1-.72-2-1.56-2.92-2.36a3.66 3.66 0 01-1.56-2.78c.1-1.94 2.15-3.29 4.08-3.39s3.79.71 5.61 1.38c13.31 4.92 29.76 3.5 38.51-8.95a27.53 27.53 0 003.18-25.05c7.58 8 21.94 7.91 29.46-.11 5.87-6.27 7.16-15.42 10.71-23.24a42.58 42.58 0 0124-21.86c4.47-1.65 11.1-1.08 14.93-3.72S874 168.2 876 164.33z" fill="#9e005d"/></g><g data-name="Tuna 2"><path d="M692.59 0H549.87c-2 .07-4 .08-6 0h-15.15a186.36 186.36 0 00-3.65 34.61 190.65 190.65 0 0016.43 79.91c4.13 9.24 9.75 17.66 13.53 27.05 4.71 11.68 10.43 21.79 21.23 28.95a52.42 52.42 0 0044.32 6.12c14-4.5 25.42-14.75 35-25.93a177.76 177.76 0 0042.14-116.55A120.34 120.34 0 00692.59 0z" fill="#d91a60"/><path d="M549.87 0c-2 .07-4 .08-6 0h-15.64a186.66 186.66 0 00-3.39 33.26 190.49 190.49 0 0016.43 79.91c2.8-5.45 6.71-12.06 9.51-17.52 2.34-4.56 4.71-9.21 5.53-14.26 2.21-13.63-7-26.11-12.24-38.88-2.27-5.52-3.21-13.14 1.85-16.31 3.23-2 7.57-1.09 10.81.92s5.81 4.95 8.86 7.23c10.58 7.91 27.08 6.31 35.94-3.48 7.59-8.37 9.17-20.55 13.72-30.87zM686 0c.63.76 1.23 1.53 1.81 2.32a53 53 0 019.32 22.22A115.77 115.77 0 00692.76 0zM697.48 32.81a35.47 35.47 0 00-.35-8.26q.3 4.16.35 8.26z" fill="#ff7bac"/><path d="M697.79 32.17a177.76 177.76 0 01-42.17 116.56c-9.55 11.18-21 21.43-35 25.93a52.39 52.39 0 01-44.32-6.12c-10.8-7.15-16.52-17.26-21.23-28.95-3.78-9.39-9.4-17.8-13.53-27 8.61 5.68 16.16 10.7 22.4 18.9 4.48 5.9 8.23 12.33 12.81 18.15s10.14 11.14 17 13.83 15.32 2.31 21.08-2.34 7.66-14 3-19.78c8.28-1.67 16.63-3.36 24.37-6.72s14.94-8.58 19.19-15.87 5.13-16.85.89-24.15c-2.88-5-7.94-8.84-9-14.47-1.34-7.24 4.47-13.64 9.81-18.71 10.53-9.96 24.26-19.35 34.7-29.26z" fill="#9e005d"/></g><g data-name="Tuna 3"><path d="M363.51 0c1.75 9.21 8.51 19.4 12 26.32a385.22 385.22 0 0049 74.4 381.55 381.55 0 0033.8 35.38c9.31 8.56 19.25 16.78 31 21.59s25.51 5.79 36.77 0c17.17-8.82 23.56-30 25.93-49.16A244.22 244.22 0 00540.58 0z" fill="#d91a60"/><path d="M533.17 0a67.09 67.09 0 011.37 19c-1.1 11.27-6.57 21.69-13.24 30.84s-14.6 17.32-21.54 26.26c-4.4 5.68-8.61 12.74-6.65 19.65s8.91 10.58 15.39 13.3 13.65 5.57 16.92 11.79c3.54 6.73.8 15.72-5.27 20.29s-14.64 5-21.72 2.26-12.53-8.09-19.36-11-16.33-1.92-19.69 4.72c9.31 8.56 19.25 16.78 30.95 21.59s25.52 5.79 36.77 0c17.18-8.82 23.56-30 25.93-49.16A244.32 244.32 0 00541.29 0z" fill="#9e005d"/><path d="M405.74 41.82c0-3.49 1.2-6.88 1.51-10.36.79-8.72-4-16.8-7.69-24.75A51.23 51.23 0 01397 0h-32.72c1.5 9.41 8.55 20 12.14 27.12a384.94 384.94 0 0049 74.39 381.61 381.61 0 0033.8 35.38c-11.74-26.44-25.35-54.09-43.83-76.34-4.58-5.55-9.62-11.55-9.65-18.73z" fill="#ff7bac"/></g><g data-name="Tuna 5"><path d="M146.23 128.21c6-14.26 21.18-23.41 36.6-24.65s30.8 4.56 43.45 13.47 22.89 20.78 32.41 33c8.9 11.39 17.46 23.5 21.32 37.43s2.26 30.14-7.4 40.89c-7.47 8.29-18.61 12.3-29.61 14.55a130.08 130.08 0 01-85.57-12C140.78 222.25 111 200 114 177.8c1.66-12.11 14.2-12.7 21.19-20.32 7.18-7.83 7.09-19.87 11.04-29.27z" fill="#d91a60"/><path d="M262 195.7a51.08 51.08 0 002.6-13.14c.07-2.81 2.68-6.12 5.55-6.48 3.43-.44 4.77 4.22 7.35 6.09 4 2.88 3.18 5.56 3.95 9.84a52.41 52.41 0 01.76 13.11c-.6 8.45-3.5 16.84-9.22 23.2-7.47 8.32-18.62 12.32-29.58 14.58a130.08 130.08 0 01-85.57-12c6.65-5.67 15.39-9.38 23.91-7.46 2.55.57 5 1.5 7.65 1.69s5.48-.51 7.06-2.59c2.15-2.85 1-7.08-1.21-9.85s-5.41-4.63-8-7.13-4.53-6.15-3.44-9.55c4.09-3.83 10.7-3.22 15.84-1 6.58 2.85 12.19 7.89 19.79 8.21a11.29 11.29 0 007.3-2.13c5.17-3.94 4-10 1.89-14.89-2-4.59-4.68-9.07-3.69-14.31a7.34 7.34 0 013.72-5.22c4.41-2.24 8.41 1.29 10.06 5.17 1.34 3.17 1.63 6.71 2.83 9.94 2.6 6.97 13.09 13.68 20.45 13.92z" fill="#9e005d"/><path d="M241.88 243.36a130 130 0 01-85.58-12c-16.68-8.7-46.48-31-43.45-53.15 1.66-12.11 14.19-12.7 21.18-20.32 7.19-7.83 7.09-19.87 11-29.27 7 5.35 7 15.72 5.3 24.34s-5.25 17.09-4.53 25.85c.92 11.11 8.53 20.51 16.73 28.08 21.12 19.51 50.83 33.29 79.35 36.47z" fill="#ff7bac"/></g><g><path d="M400.77 450.49c-1.26-1-2.47-2-3.69-3.11s-2.25-2.3-3.34-3.49-2-2.53-3-3.8L388 436c-.79-1.41-1.57-2.83-2.31-4.27s-1.28-3-1.88-4.48l-1.52-4.61L381 418a82.64 82.64 0 01-2.43-19.07A74.62 74.62 0 01381 380l.39.08a78.24 78.24 0 00-.75 18.77 79.76 79.76 0 003.51 18.28l1.55 4.38 1.83 4.26 2 4.18c.72 1.36 1.39 2.75 2.06 4.14l2.16 4.09c.77 1.34 1.58 2.66 2.32 4s1.66 2.64 2.48 4 1.75 2.61 2.58 4zM401 214.74c-1 1.53-2.12 3-3.19 4.41s-2 3-3 4.47-1.83 3-2.75 4.57l-2.51 4.68c-.75 1.6-1.51 3.2-2.31 4.77s-1.41 3.24-2.15 4.85l-1.91 5-1.55 5.1a78.29 78.29 0 00-2.58 21.2 74.58 74.58 0 003.23 21.21l-.38.13a72.85 72.85 0 01-4.9-21.29 81.11 81.11 0 011.46-22l1.27-5.4 1.61-5.34c.66-1.73 1.35-3.47 2.07-5.18s1.7-3.31 2.58-5l3.05-4.67c1.16-1.46 2.29-2.94 3.47-4.36s2.57-2.67 3.87-4 2.83-2.39 4.29-3.5z" fill="#fcee21"/><path d="M402 447.69a81 81 0 00-17.86 12.47 71.06 71.06 0 00-13.66 16.68 63.77 63.77 0 00-6.95 42.36l-.29.06a62.69 62.69 0 015.13-43.56 56.79 56.79 0 0113.78-17.79 51.55 51.55 0 0119.74-10.5z" fill="#fcee21"/><path d="M285.78 319.82a31 31 0 01-9.11-9 36.83 36.83 0 01-5.09-11.8 44 44 0 01-1.37-12.71 39.59 39.59 0 012.57-12.43l.15.19-1.34.11v-.2l1.33-.19h.22l-.07.22a39.3 39.3 0 00-1.79 12.35 42.27 42.27 0 001.89 12.25 53.57 53.57 0 005.18 11.18 55.81 55.81 0 007.57 9.87z" fill="#d9e021"/><path d="M287.35 319.71c-7.14 1.48-14.21 2.84-21.23 4.45s-14.08 3-21 5a219.83 219.83 0 00-40.12 16.2l-.15-.27a195.36 195.36 0 0139.55-18.19 144.19 144.19 0 0121.13-5.69 114.61 114.61 0 0121.79-1.8z" fill="#d9e021"/><path d="M284.57 319.28c-1.52 3.82-3.08 7.55-4.47 11.34s-2.91 7.54-4 11.43a97.76 97.76 0 00-2.67 11.86 96.4 96.4 0 00-1.25 12.14h-.2a96.65 96.65 0 01.46-12.26 98.18 98.18 0 012.12-12.14 67.61 67.61 0 013.72-11.77 54.36 54.36 0 016.16-10.69zM195.72 315.49a127 127 0 01-17-11.88 169.31 169.31 0 01-15-14.33q-7.17-7.48-13.79-15.46c-4.36-5.35-8.56-10.83-12.49-16.5l.24-.18c4.31 5.38 8.74 10.64 13.39 15.69s9.39 10 14.35 14.75 10.23 9.12 15.27 13.75 10.2 9.16 15.23 13.92zM197.27 318.41a149.48 149.48 0 00-20 8.1 126.42 126.42 0 00-18.5 10.9A98.31 98.31 0 00142.89 352a94.29 94.29 0 00-12.4 17.77l-.27-.13a95.27 95.27 0 0111.52-18.6 100.16 100.16 0 0115.54-15.54A83.09 83.09 0 01176 323.79a69.79 69.79 0 0121.24-5.67zM476.42 264.82a25.68 25.68 0 01.74-4.64 42.71 42.71 0 011.3-4.39 27.87 27.87 0 011.86-4.13c.74-1.33 1.5-2.64 2.19-4q2.07-4 4.22-8c1.48-2.65 2.9-5.32 4.41-7.95l.37.17c-.94 2.89-2 5.74-3 8.62s-2.06 5.7-3.13 8.53c-.54 1.41-1 2.86-1.5 4.3a28.85 28.85 0 01-1.82 4.15 40.1 40.1 0 01-2.38 3.89 25.62 25.62 0 01-2.94 3.64z" fill="#d9e021"/><path d="M477.78 265.32a78.66 78.66 0 01-9.74-1.11c-3.21-.52-6.35-1.44-9.51-2.19l-9.5-2.28-9.47-2.39v-.19l9.64 1.6 9.61 1.69c3.21.58 6.44 1 9.6 1.8a76.59 76.59 0 019.37 2.87zM480.67 360.07c-8.94-3.69-17.84-7.31-26.87-10.55s-18.06-6.51-27.33-9a262 262 0 00-28.16-6.13 258.3 258.3 0 00-28.72-3.11v-.3a249.17 249.17 0 0157.48 7.22 199.15 199.15 0 0127.79 8.57 164.56 164.56 0 0125.94 13.08zM722.59 348c2.22 6 4.24 12 6.45 18s4.17 11.94 6.67 17.77A190 190 0 00744 400.8c3 5.59 6.34 11 9.88 16.32l-.24.17a178.76 178.76 0 01-10.94-15.74q-5-8.19-9.18-16.88a124.35 124.35 0 01-7.32-17.81 97 97 0 01-3.9-18.86zM842.64 542a15.35 15.35 0 012.93 1.24 23.26 23.26 0 012.63 1.59 35 35 0 014.51 4.1c1.49 1.39 3 2.79 4.42 4.22s2.91 2.86 4.32 4.33l-.19.23c-1.72-1.1-3.39-2.27-5.08-3.4s-3.35-2.33-5-3.53a35.69 35.69 0 01-4.9-3.63 26.32 26.32 0 01-2.06-2.28 15.44 15.44 0 01-1.78-2.64zM791.35 453a81.78 81.78 0 017.69-9.69 106 106 0 019-8.51q4.65-4.06 9.51-7.88c3.25-2.52 6.59-4.92 10-7.24l.5-.34-.26.53-.8 1.65-.18-.08.69-1.7.24.19c-3.24 2.52-6.39 5.14-9.49 7.82s-6.13 5.42-9.07 8.27-5.72 5.84-8.67 8.66-5.87 5.7-9 8.45zM786.64 456.45a76.34 76.34 0 008.12 9.71c.76.71 1.51 1.42 2.24 2.16s1.54 1.38 2.3 2.1l2.38 2 2.54 1.84a44.8 44.8 0 0011.32 5.45 43.59 43.59 0 0012.5 2.14h.56l-.36.39-1.24 1.4-.23-.19 1.13-1.5.2.4a41.92 41.92 0 01-12.95-1.09 47.55 47.55 0 01-12.19-4.88l-2.83-1.72-2.72-1.91c-.85-.7-1.7-1.42-2.52-2.17s-1.53-1.61-2.27-2.43a30.17 30.17 0 01-6.21-11.58zM596.32 247.13c-3.44-3.2-6.8-6.41-10.27-9.49s-6.88-6.22-10.51-9.12a133.42 133.42 0 00-11.34-8.11 139.6 139.6 0 00-12.12-6.95l.22-.24 1.26 2.39-.17.1-1.39-2.33-.28-.46.51.22a125.81 125.81 0 0112.53 6.35 136.36 136.36 0 0111.79 7.71 89.88 89.88 0 0110.85 9 75.35 75.35 0 019.07 10.8zM674 529.12a71.53 71.53 0 00-11.32 2.39 60.49 60.49 0 00-10.68 4.16 46.45 46.45 0 00-9.42 6.64 43 43 0 00-7.53 8.83l-.17-.1a44.09 44.09 0 017-9.45 47.27 47.27 0 019.33-7.31 38.5 38.5 0 0110.94-4.71 32.17 32.17 0 0111.84-.65zM673.37 531c-.31 2.34-.67 4.56-.9 6.79s-.63 4.44-.65 6.71a36.76 36.76 0 00.51 6.77 39.75 39.75 0 001.68 6.65l-.18.08a34.87 34.87 0 01-2.47-6.52 37.65 37.65 0 01-1.14-6.94 24.66 24.66 0 01.27-7.07 18.94 18.94 0 012.69-6.54zM636.49 419.11a64.08 64.08 0 01-11-22.78 70.08 70.08 0 01-1.66-25.39 77.35 77.35 0 0120.8-45.27l.23.21a78.76 78.76 0 00-18.64 45.26 87.92 87.92 0 002.18 24.48 99.75 99.75 0 008.34 23.38zM534.09 519.42l-9.88-8.36c-3.31-2.73-6.56-5.53-10-8.17s-6.95-5.08-10.59-7.38-7.37-4.48-11.2-6.46l.23-.36 3 2.7-.13.15-3.1-2.54-1.32-1 1.55.7c4 1.78 7.84 3.71 11.6 5.88s7.44 4.49 11 7a83 83 0 0110.23 8.09 72.92 72.92 0 018.75 9.67zM534.5 524.21c-1.79 2.12-3.68 4-5.54 6s-3.88 3.71-5.73 5.69-3.61 4-5.27 6.15-3.27 4.32-4.79 6.57l-.18-.1a79.6 79.6 0 014.16-7.06c1.52-2.28 3.15-4.48 4.88-6.62a46.42 46.42 0 015.56-6.08 33.49 33.49 0 016.78-4.7zM654.72 189.25a62 62 0 019.09-5.79c3.13-1.73 6.52-2.9 9.79-4.31l9.86-4.17c3.31-1.34 6.6-2.72 9.92-4l.13.27c-3.12 1.74-6.27 3.41-9.41 5.12l-9.47 5c-3.17 1.64-6.22 3.52-9.54 4.85a62.91 62.91 0 01-10.24 3.35zM172.89 476.63A114.26 114.26 0 00126.25 506a96.58 96.58 0 00-15.79 22.89 88.49 88.49 0 00-8.46 26.62h-.3a89.6 89.6 0 017.38-27.22 98.42 98.42 0 0115.37-23.85 87.44 87.44 0 0121.68-18.46 74.46 74.46 0 0126.68-9.6zM172.54 471.2a38.72 38.72 0 01-7.7-8.61 50.83 50.83 0 01-5-10.39 85.53 85.53 0 01-3.42-11 77.64 77.64 0 01-1.72-11.31h.29a87.94 87.94 0 002.88 10.94 81.28 81.28 0 004.13 10.41c1.61 3.39 3.66 6.51 5.39 9.8s3.63 6.52 5.38 10zM172.88 472.75a114.5 114.5 0 01-17.43 3.6 164.17 164.17 0 01-17.74 1.09q-8.88.24-17.75.05c-5.91-.18-11.82-.46-17.71-1v-.3c5.9 0 11.8 0 17.68-.23s11.77-.49 17.64-.95 11.69-1.29 17.55-1.68 11.74-.83 17.69-.91zM249.66 440.69a87.52 87.52 0 01-16.13-14.94 102.9 102.9 0 01-12.15-18.39 127 127 0 01-8.76-20.18 39.93 39.93 0 01-1.93-10.89 19.14 19.14 0 012.73-10.59l.26.16a18.5 18.5 0 00-2.09 10.39A39.36 39.36 0 00214 386.7c1.23 3.37 2.75 6.68 4.29 9.94s3.28 6.44 5.14 9.53 3.81 6.13 5.94 9 4.26 5.8 6.45 8.66 4.48 5.64 6.8 8.42 4.77 5.45 7.2 8.19zM254.29 439.87a81 81 0 0112.27-20.45 95.6 95.6 0 0117.49-16.32 115.3 115.3 0 0120.47-12.23 110.15 110.15 0 0122.53-7.49l.07.29a109.71 109.71 0 00-21.94 8.55A113.81 113.81 0 00285.52 405a144.91 144.91 0 00-16.68 16.37A171.62 171.62 0 00254.55 440zM270.84 526.17a48.82 48.82 0 014.93 7.4c1.46 2.54 2.41 5.33 3.64 8s2.44 5.34 3.71 8 2.54 5.3 3.8 8l-.26.15c-1.68-2.42-3.26-4.91-4.85-7.39s-3.06-5-4.54-7.6a60.88 60.88 0 01-4.2-7.79 38.18 38.18 0 01-2.5-8.58zM815.15 324.38a152.56 152.56 0 0114.18-8.26c2.41-1.27 4.86-2.47 7.35-3.58l7.49-3.29 14.93-6.69 15-6.58 1.58-.7-1.27 1.14-2.41 2.15-.21-.21L874 296l.31.44L859.8 304l-14.55 7.47-7.25 3.81q-3.65 1.86-7.39 3.49a153.7 153.7 0 01-15.32 5.88zM815.85 326.56a123.18 123.18 0 0117.48 5.62 174.33 174.33 0 0116.53 8q8.13 4.23 16 8.85c5.25 3.12 10.44 6.33 15.51 9.73l-.16.25c-5.31-3-10.65-5.91-16.08-8.67s-10.86-5.47-16.37-8-11.19-4.74-16.67-7.36-11-5.17-16.39-8.09z" fill="#d9e021"/></g></g></g></symbol><symbol viewBox="0 0 50 50" id="leaderboard-down" xmlns="http://www.w3.org/2000/svg"><path opacity=".28" d="M2.71 42.5V13.33H40V46H5.58" data-name="Welcome Page Web"/><g data-name="Sprite buttons"><path fill="#d62d7a" d="M8.03 37.19V9.31H2.72V42.5M2.72 9.31h1.31V8"/><path fill="#d62d7a" d="M8.03 37.19v5.31h-5.4"/><path d="M37.19 41.16l-1.37 1.34H8v-5.31h29.22" fill="#d62d7a"/><path fill="#d62d7a" d="M4.03 8h33.19v33.19H4.03z"/><path data-name="Icon ionic-ios-trophy" d="M31.21 16.13h-3.69V15a.89.89 0 00-.89-.89h-12.5a.89.89 0 00-.9.89v1.12H9.55a.78.78 0 00-.78.78A8.74 8.74 0 0010 22a4.5 4.5 0 003.14 2.25.46.46 0 01.35.28 6 6 0 002.85 2.91 10.8 10.8 0 002.89 1.21.43.43 0 01.34.43v4.51a.45.45 0 01-.44.45h-3.64a.8.8 0 00-.8.74.78.78 0 00.74.82h9.84a.8.8 0 00.81-.74.79.79 0 00-.75-.82h-3.72a.46.46 0 01-.45-.45V29a.47.47 0 01.35-.44 10.77 10.77 0 002.89-1.2 6 6 0 002.85-2.92.45.45 0 01.35-.27A4.53 4.53 0 0030.74 22 9 9 0 0032 16.91a.78.78 0 00-.79-.78zm-18 6.17a.22.22 0 01-.22.23h-.08a3.24 3.24 0 01-1.71-1.61 5.82 5.82 0 01-.84-2.72.45.45 0 01.41-.49h2a.45.45 0 01.44.45zm16.3-1.4a3.24 3.24 0 01-1.71 1.61.22.22 0 01-.29-.13v-4.24a.45.45 0 01.45-.45h2a.45.45 0 01.45.45 5.86 5.86 0 01-.88 2.76z" fill="#d62d7a"/><path fill="#d62d7a" d="M8.03 37.19V9.31H2.72V42.5M2.72 9.31h1.31V8"/><path fill="#871242" d="M8.03 37.19v5.31h-5.4"/><path d="M37.19 41.16l-1.37 1.34H8v-5.31h29.22" fill="#871242"/><path fill="#d91a60" d="M4.03 8h33.19v33.19H4.03z"/><path data-name="Icon ionic-ios-trophy" d="M31.21 16.13h-3.69V15a.89.89 0 00-.89-.89h-12.5a.89.89 0 00-.9.89v1.12H9.55a.78.78 0 00-.78.78h0A8.74 8.74 0 0010 22a4.5 4.5 0 003.14 2.25.46.46 0 01.35.28 6 6 0 002.85 2.91 10.8 10.8 0 002.89 1.21.43.43 0 01.34.43v4.51a.45.45 0 01-.44.45h-3.64a.8.8 0 00-.8.74.78.78 0 00.74.82h9.84a.8.8 0 00.81-.74.79.79 0 00-.75-.82h-3.72a.46.46 0 01-.45-.45V29a.47.47 0 01.35-.44 10.77 10.77 0 002.89-1.2 6 6 0 002.85-2.92.45.45 0 01.35-.27A4.53 4.53 0 0030.74 22 9 9 0 0032 16.91h0a.78.78 0 00-.79-.78zm-18 6.17a.22.22 0 01-.22.23h-.08a3.24 3.24 0 01-1.71-1.61 5.82 5.82 0 01-.84-2.72.45.45 0 01.41-.49h2a.45.45 0 01.44.45zm16.3-1.4a3.24 3.24 0 01-1.71 1.61.22.22 0 01-.29-.13v-4.24a.45.45 0 01.45-.45h2a.45.45 0 01.45.45.08.08 0 010 0 5.86 5.86 0 01-.88 2.76z" fill="#c7b299" stroke="#c7b299" stroke-miterlimit="10"/></g></symbol><symbol viewBox="0 0 50 50" id="leaderboard-up" xmlns="http://www.w3.org/2000/svg"><path opacity=".28" d="M3.01 43.5V14.33h43.17V47H6.33" data-name="Welcome Page Web"/><g data-name="Sprite buttons"><path fill="#d62d7a" d="M8.33 38.19V10.31H3.02V43.5M3.02 10.31h5.31V5"/><path fill="#d62d7a" d="M8.33 38.19v5.31H2.94M36.13 43.5H8.33v-5.31h33.19M8.33 5h33.19v33.19H8.33z"/><path data-name="Icon ionic-ios-trophy" d="M36.21 14.13h-3.69V13a.89.89 0 00-.89-.89h-12.5a.89.89 0 00-.9.89v1.12h-3.68a.78.78 0 00-.78.78A8.74 8.74 0 0015 20a4.5 4.5 0 003.14 2.25.46.46 0 01.35.28 6 6 0 002.85 2.91 10.8 10.8 0 002.89 1.21.43.43 0 01.34.43v4.51a.45.45 0 01-.44.45h-3.64a.8.8 0 00-.8.74.78.78 0 00.74.82h9.84a.8.8 0 00.81-.74.79.79 0 00-.75-.82h-3.72a.46.46 0 01-.45-.45V27a.47.47 0 01.35-.44 10.77 10.77 0 002.89-1.2 6 6 0 002.85-2.92.45.45 0 01.35-.27A4.53 4.53 0 0035.74 20 9 9 0 0037 14.91a.78.78 0 00-.79-.78zm-18 6.17a.22.22 0 01-.22.23h-.08a3.24 3.24 0 01-1.71-1.61 5.82 5.82 0 01-.84-2.72.45.45 0 01.41-.49h2a.45.45 0 01.44.45zm16.3-1.4a3.24 3.24 0 01-1.71 1.61.22.22 0 01-.29-.13v-4.24a.45.45 0 01.45-.45h2a.45.45 0 01.45.45 5.86 5.86 0 01-.88 2.76z" fill="#d62d7a"/><path fill="#d62d7a" d="M8.33 38.19V10.31H3.02V43.5M3.02 10.31h5.31V5"/><path fill="#871242" d="M8.33 38.19v5.31H2.94M36.13 43.5H8.33v-5.31h33.19"/><path fill="#d91a60" d="M8.33 5h33.19v33.19H8.33z"/><path data-name="Icon ionic-ios-trophy" d="M36.21 14.13h-3.69V13a.89.89 0 00-.89-.89h-12.5a.89.89 0 00-.9.89v1.12h-3.68a.78.78 0 00-.78.78h0A8.74 8.74 0 0015 20a4.5 4.5 0 003.14 2.25.46.46 0 01.35.28 6 6 0 002.85 2.91 10.8 10.8 0 002.89 1.21.43.43 0 01.34.43v4.51a.45.45 0 01-.44.45h-3.64a.8.8 0 00-.8.74.78.78 0 00.74.82h9.84a.8.8 0 00.81-.74.79.79 0 00-.75-.82h-3.72a.46.46 0 01-.45-.45V27a.47.47 0 01.35-.44 10.77 10.77 0 002.89-1.2 6 6 0 002.85-2.92.45.45 0 01.35-.27A4.53 4.53 0 0035.74 20 9 9 0 0037 14.91h0a.78.78 0 00-.79-.78zm-18 6.17a.22.22 0 01-.22.23h-.08a3.24 3.24 0 01-1.71-1.61 5.82 5.82 0 01-.84-2.72.45.45 0 01.41-.49h2a.45.45 0 01.44.45zm16.3-1.4a3.24 3.24 0 01-1.71 1.61.22.22 0 01-.29-.13v-4.24a.45.45 0 01.45-.45h2a.45.45 0 01.45.45.08.08 0 010 0 5.86 5.86 0 01-.88 2.76z" fill="#c7b299" stroke="#c7b299" stroke-miterlimit="10"/></g></symbol><symbol viewBox="0 0 50 50" id="logo-floating" xmlns="http://www.w3.org/2000/svg"><g data-name="Layer 23"><path opacity=".28" d="M50.05 14.54V50.3H7.66V10.25h39.13"/><path fill="#a59481" d="M44.11 38.6v-33h-44v38.35h42.17"/><path fill="#c7b299" d="M2.11.25h42V38.6h-42z"/><path fill="#ddc6ac" d="M2.11.25l-2 5.35v38.35l2-5.35V.25z"/><g data-name="Logo M"><g data-name="Nopal Logo Sin M"><g data-name="Tuna 6"><path d="M11.35 9.74c.6 1.4 1.94 2.17 3 1.72s1.41-2 .81-3.34a4.83 4.83 0 00-1.71-2.27c-.2-.09-.6.25-1.27.55s-1.15.26-1.27.54c-.46 1.11.4 2.7.44 2.8z" fill="#ff7bac"/><path d="M11.5 10.15c.6 1.4 1.94 2.17 3 1.72s1.41-1.94.81-3.34c-.08-.2-.76-1.82-1.71-2.26-.2-.1-.6.24-1.27.54s-1.15.26-1.27.54c-.46 1.11.4 2.71.44 2.8z" fill="#d91a60"/></g><g data-name="Tuna 5"><path d="M16 6c.37 1.48 1.57 2.45 2.68 2.17S20.37 6.45 20 5a4.85 4.85 0 00-1.34-2.51c-.18-.12-.63.15-1.34.34s-1.17.07-1.33.33C15.36 4.17 16 5.88 16 6z" fill="#ff7bac"/><path d="M16.08 6.41c.37 1.48 1.57 2.45 2.67 2.17s1.7-1.7 1.33-3.17a4.78 4.78 0 00-1.34-2.51c-.18-.12-.62.15-1.33.34s-1.18.07-1.34.34c-.62 1.02-.02 2.73.01 2.83z" fill="#d91a60"/></g><g data-name="Tuna 7"><path d="M7.82 15.09c.87 1.25 2.34 1.72 3.27 1.07s1-2.2.11-3.44c-.13-.18-1.12-1.62-2.15-1.86-.21 0-.53.36-1.12.79s-1.08.49-1.13.79c-.22 1.19.96 2.56 1.02 2.65z" fill="#ff7bac"/><path d="M8.05 15.46c.88 1.25 2.34 1.73 3.28 1.07s1-2.2.1-3.44c-.12-.18-1.12-1.62-2.14-1.86-.22-.05-.54.36-1.13.79s-1.07.49-1.13.79C6.81 14 8 15.38 8.05 15.46z" fill="#d91a60"/></g><path d="M36.77 21.12c0 5.59-1.38 5.85-4.82 10-3 3.55-3.44 4.13-8.61 4.13-5.48 0-5-.56-8.61-4.13s-5-4.64-4.82-10C10.13 14.76 15.26 7 23.34 7c7.41 0 13.43 6.32 13.43 14.12z" fill="#324001"/><path d="M35.39 21.12c0 5.59-1.38 5.85-4.82 10-3 3.55-3.43 4.13-8.61 4.13-5.48 0-5-.56-8.61-4.13s-5-4.64-4.82-10C8.75 14.76 13.88 7 22 7c7.38 0 13.39 6.32 13.39 14.12z" fill="#7c8c03"/><g data-name="Tuna 1"><path d="M38.56 15.09c-.87 1.25-2.34 1.72-3.27 1.07s-1-2.2-.11-3.44c.13-.18 1.12-1.62 2.15-1.86.21 0 .53.36 1.12.79s1.08.49 1.13.79c.22 1.19-.96 2.56-1.02 2.65z" fill="#ff7bac"/><path d="M39.35 12.81c-.06-.3-.64-.43-1.13-.79s-.91-.84-1.13-.79c-1 .24-2 1.68-2.14 1.86a3.09 3.09 0 00-.58 2.32 2.89 2.89 0 01.86 1.21 2.55 2.55 0 003.1-1.16c.06-.08 1.24-1.46 1.02-2.65z" fill="#d91a60"/></g><g data-name="Tuna 2"><path d="M35.67 9.74c-.6 1.4-1.94 2.17-3 1.72s-1.42-2-.82-3.34c.09-.21.76-1.82 1.72-2.27.19-.09.59.25 1.26.55s1.15.26 1.27.54c.48 1.11-.39 2.7-.43 2.8z" fill="#ff7bac"/><path d="M36 7.35c-.12-.28-.72-.29-1.27-.54s-1.07-.64-1.26-.54c-1 .44-1.63 2.06-1.72 2.26a3.09 3.09 0 00-.09 2.36A2.79 2.79 0 0132.82 12a2.61 2.61 0 002.7-1.8c.04-.14.91-1.74.48-2.85z" fill="#d91a60"/></g><g data-name="Tuna 3"><path d="M30.93 6c-.38 1.48-1.57 2.45-2.68 2.17S26.55 6.45 26.92 5a4.85 4.85 0 011.34-2.51c.18-.12.63.15 1.33.34s1.18.07 1.34.33c.63 1.01.07 2.72 0 2.84z" fill="#ff7bac"/><path d="M30.85 3.58c-.16-.27-.76-.18-1.34-.34s-1.16-.46-1.33-.34a4.89 4.89 0 00-1.35 2.51 2.94 2.94 0 00.54 2.68 3 3 0 011.51.5 2.82 2.82 0 002-2.18c-.01-.1.59-1.81-.03-2.83z" fill="#d91a60"/></g><g data-name="Tuna 4"><path d="M25.44 4.1c0 1.52-.93 2.76-2.07 2.76S21.3 5.62 21.3 4.1a4.87 4.87 0 01.7-2.75c.15-.17.65 0 1.38 0s1.16-.22 1.38 0c.84.84.68 2.65.68 2.75z" fill="#ff7bac"/><path d="M22.68 7.11a4.22 4.22 0 01.64-.06 3.43 3.43 0 01.74.08 2.79 2.79 0 001.4-2.59c0-.11.17-1.91-.69-2.76-.22-.21-.77 0-1.38 0s-1.23-.16-1.37 0a4.83 4.83 0 00-.69 2.76 2.82 2.82 0 001.35 2.57z" fill="#d91a60"/></g><ellipse cx="13.64" cy="15.6" rx=".42" ry=".33" transform="rotate(-66.4 13.648 15.599)" fill="#4d4d4d" stroke="#4d4d4d" stroke-miterlimit="10" stroke-width=".5"/><ellipse cx="14.49" cy="31.43" rx=".27" ry=".37" transform="rotate(-20.83 14.498 31.433)" fill="#4d4d4d" stroke="#4d4d4d" stroke-miterlimit="10" stroke-width=".5"/><ellipse cx="17.5" cy="27.81" rx=".21" ry=".26" transform="rotate(-13.56 17.508 27.8)" fill="#4d4d4d" stroke="#4d4d4d" stroke-miterlimit="10" stroke-width=".5"/><ellipse cx="26.83" cy="29.45" rx=".29" ry=".35" transform="rotate(-6.22 26.829 29.424)" fill="#4d4d4d" stroke="#4d4d4d" stroke-miterlimit="10" stroke-width=".5"/><ellipse cx="22.73" cy="24.52" rx=".22" ry=".31" fill="#4d4d4d" stroke="#4d4d4d" stroke-miterlimit="10" stroke-width=".5"/><ellipse cx="22.11" cy="30.46" rx=".25" ry=".3" transform="translate(-.63 .47)" fill="#4d4d4d" stroke="#4d4d4d" stroke-miterlimit="10" stroke-width=".5"/><ellipse cx="27.82" cy="24.77" rx=".23" ry=".19" transform="matrix(.08 -1 1 .08 .99 50.6)" fill="#4d4d4d" stroke="#4d4d4d" stroke-miterlimit="10" stroke-width=".5"/><ellipse cx="26.43" cy="20.05" rx=".25" ry=".18" transform="rotate(-84.34 26.422 20.054)" fill="#4d4d4d" stroke="#4d4d4d" stroke-miterlimit="10" stroke-width=".5"/><ellipse cx="29.68" cy="16.85" rx=".23" ry=".27" transform="rotate(-1.11 29.777 16.807)" fill="#4d4d4d" stroke="#4d4d4d" stroke-miterlimit="10" stroke-width=".5"/><ellipse cx="32.08" cy="21.44" rx=".21" ry=".26" fill="#4d4d4d" stroke="#4d4d4d" stroke-miterlimit="10" stroke-width=".5"/><ellipse cx="33.99" cy="25.28" rx=".25" ry=".46" transform="rotate(-4.65 34.004 25.31)" fill="#4d4d4d" stroke="#4d4d4d" stroke-miterlimit="10" stroke-width=".5"/><ellipse cx="33.06" cy="15.91" rx=".19" ry=".45" transform="rotate(-20.5 33.044 15.912)" fill="#4d4d4d" stroke="#4d4d4d" stroke-miterlimit="10" stroke-width=".5"/><ellipse cx="24.98" cy="12.39" rx=".18" ry=".21" transform="rotate(-65.63 24.975 12.394)" fill="#4d4d4d" stroke="#4d4d4d" stroke-miterlimit="10" stroke-width=".5"/><ellipse cx="27.22" cy="9.99" rx=".21" ry=".34" transform="rotate(-67.84 27.211 9.985)" fill="#4d4d4d" stroke="#4d4d4d" stroke-miterlimit="10" stroke-width=".5"/><ellipse cx="13.1" cy="24.64" rx=".34" ry=".25" transform="rotate(-80.44 13.1 24.646)" fill="#4d4d4d" stroke="#4d4d4d" stroke-miterlimit="10" stroke-width=".5"/><ellipse cx="12.39" cy="20.89" rx=".34" ry=".25" transform="rotate(-80.44 12.395 20.886)" fill="#4d4d4d" stroke="#4d4d4d" stroke-miterlimit="10" stroke-width=".5"/><ellipse cx="17.89" cy="21.28" rx=".29" ry=".23" transform="rotate(-74.8 17.891 21.285)" fill="#4d4d4d" stroke="#4d4d4d" stroke-miterlimit="10" stroke-width=".5"/><ellipse cx="20.77" cy="17.46" rx=".39" ry=".25" transform="rotate(-84.72 20.77 17.453)" fill="#4d4d4d" stroke="#4d4d4d" stroke-miterlimit="10" stroke-width=".5"/><ellipse cx="9.51" cy="22.4" rx=".29" ry=".59" transform="rotate(-1.79 9.577 22.24)" fill="#4d4d4d" stroke="#4d4d4d" stroke-miterlimit="10" stroke-width=".5"/><ellipse cx="10.4" cy="15.52" rx=".58" ry=".27" transform="rotate(-79.22 10.398 15.517)" fill="#4d4d4d" stroke="#4d4d4d" stroke-miterlimit="10" stroke-width=".5"/><ellipse cx="17.9" cy="11.05" rx=".24" ry=".29" transform="rotate(-6.75 17.898 11.01)" fill="#4d4d4d" stroke="#4d4d4d" stroke-miterlimit="10" stroke-width=".5"/><ellipse cx="20.62" cy="13.27" rx=".2" ry=".23" transform="rotate(-1.4 20.711 13.35)" fill="#4d4d4d" stroke="#4d4d4d" stroke-miterlimit="10" stroke-width=".5"/><g fill="#fcee21"><path d="M13.58 15.57a1.09 1.09 0 01-.49-.19 1.24 1.24 0 01-.29-.38c-.18-.25-.34-.51-.5-.78.27.18.53.36.78.56a1.48 1.48 0 01.36.3.87.87 0 01.14.47zM20.65 17.33a1.49 1.49 0 01-.81.34 3.2 3.2 0 01-.82 0 1.88 1.88 0 00-1.45.45 1.93 1.93 0 011.43-.88 3.9 3.9 0 01.82-.07c.27 0 .52 0 .81.12zM9.48 22.42a3.4 3.4 0 01-.4.91 5.4 5.4 0 01-.62.74c-.42.48-.85 1-1.3 1.43.33-.56.67-1.11 1-1.64a4.49 4.49 0 01.54-.8 3.39 3.39 0 01.76-.64zM10.23 15.34a1.22 1.22 0 01-.54.13 1.71 1.71 0 01-.49-.14l-1-.36v-.05h1a1.4 1.4 0 01.5.05 1.1 1.1 0 01.46.31zM22.67 24.37a1.42 1.42 0 01-.42-.43 1.61 1.61 0 01-.15-.53c-.1-.36-.18-.72-.25-1.09q.3.48.57 1a1.89 1.89 0 01.25.49 1.36 1.36 0 010 .6zM22.64 24.72a1.6 1.6 0 010 .62 1.79 1.79 0 01-.27.51c-.18.34-.39.67-.6 1h-.05c.08-.38.18-.76.28-1.13a2.16 2.16 0 01.18-.56 1.38 1.38 0 01.43-.44zM34 25.19a3.78 3.78 0 011-.51 5.65 5.65 0 011.09-.19 16.12 16.12 0 012.19-.15v.05c-.72.15-1.43.31-2.13.49a10.09 10.09 0 01-1 .29 5.76 5.76 0 01-1.11.07zM27 10a2.87 2.87 0 01-.88 0 3.78 3.78 0 01-.79-.3c-.53-.2-1.05-.42-1.57-.65V9c.56.09 1.12.2 1.67.32a4.57 4.57 0 01.83.2 2.92 2.92 0 01.74.46zM33.09 15.77a1 1 0 01.43-.29 1.24 1.24 0 01.47 0h.95v.05c-.3.11-.6.21-.9.29a1.24 1.24 0 01-.46.11 1.17 1.17 0 01-.49-.16zM33 16a.9.9 0 01.17.43 1.07 1.07 0 01-.1.39 6.55 6.55 0 01-.28.78 7.74 7.74 0 01-.07-.83.94.94 0 010-.41A.85.85 0 0133 16zM17.86 11a3.21 3.21 0 01-.8.68 4.24 4.24 0 01-1 .4 14.88 14.88 0 01-2 .59v-.05q.93-.43 1.83-.9a7 7 0 01.89-.48 4.7 4.7 0 011-.28zM18 10.74a.61.61 0 010-.57 5.52 5.52 0 01.16-.54 5.42 5.42 0 010 .57.62.62 0 01-.16.55zM20.61 13.21a1.1 1.1 0 01.53.16 1.17 1.17 0 01.34.36c.22.25.44.52.64.79-.3-.17-.59-.34-.87-.53a1.33 1.33 0 01-.41-.29 1.06 1.06 0 01-.23-.5zM24.91 12.43a.67.67 0 01-.55-.19c-.16-.11-.32-.22-.47-.34l.55.19a.68.68 0 01.47.35zM25.05 12.52a1 1 0 01-.1.53 1.33 1.33 0 01-.33.38c-.23.24-.47.48-.72.7.13-.31.28-.61.44-.91a1.4 1.4 0 01.24-.43 1.14 1.14 0 01.47-.27zM26.39 20.07a3.83 3.83 0 011.06.44 5.51 5.51 0 01.86.74 12.51 12.51 0 011.5 1.67c-.56-.5-1.13-1-1.73-1.41-.3-.21-.62-.39-.9-.63a6.08 6.08 0 01-.79-.81zM29.74 16.67a.9.9 0 01-.41.23 1 1 0 01-.42 0 8 8 0 01-.82-.17v-.05c.27-.07.55-.13.82-.18a1 1 0 01.41-.05.86.86 0 01.42.22zM32.09 21.28a4 4 0 01.83-.66 5.38 5.38 0 01.95-.42c.64-.27 1.28-.53 1.93-.78-.59.37-1.18.74-1.78 1.09a7.33 7.33 0 01-.91.51 4.2 4.2 0 01-1 .26zM27.68 24.86a1.1 1.1 0 01-.48-.19 1.29 1.29 0 01-.28-.37c-.18-.26-.35-.53-.5-.8a8.85 8.85 0 01.76.57 1.31 1.31 0 01.36.3 1.05 1.05 0 01.15.5zM18 21.3a1.12 1.12 0 01-.28.45 1.4 1.4 0 01-.42.22c-.29.13-.59.26-.89.37.23-.23.46-.46.7-.67a1.32 1.32 0 01.37-.3 1 1 0 01.52-.07zM17.59 21.14a1.32 1.32 0 01-.59-.24 1.73 1.73 0 01-.36-.44c-.22-.29-.44-.6-.65-.92q.46.33.9.69a1.65 1.65 0 01.43.36 1.4 1.4 0 01.22.56zM12.36 20.94a3.68 3.68 0 01-1.06-.1 5.43 5.43 0 01-1-.35c-.63-.25-1.3-.49-1.92-.79v-.05c.69.14 1.37.29 2 .45a5.92 5.92 0 011 .27 3.73 3.73 0 01.93.52zM12.56 20.78a.53.53 0 01.33-.38l.45-.24c-.11.13-.22.26-.34.38a.51.51 0 01-.45.24zM13 24.4a4.2 4.2 0 011.11-.07 6.62 6.62 0 011.08.2c.71.14 1.43.3 2.14.47v.05c-.73 0-1.46-.07-2.19-.13a5.57 5.57 0 01-1.08-.1 4.11 4.11 0 01-1.06-.37zM17.54 27.76a2.79 2.79 0 01-.85.3 4.1 4.1 0 01-.86 0h-1.74c.57-.12 1.14-.23 1.71-.32a4.24 4.24 0 01.86-.12 3 3 0 01.88.14zM17.65 27.66a.71.71 0 010-.59.91.91 0 01.4-.4 1.55 1.55 0 011-.27v.05a1.72 1.72 0 00-.77.53 3.22 3.22 0 01-.24.36c-.11.09-.21.2-.38.33zM14.28 31.33a2.13 2.13 0 01-.79 0 3.1 3.1 0 01-.73-.23c-.48-.16-1-.34-1.44-.53.51 0 1 .11 1.52.19a2.75 2.75 0 01.76.13 2.33 2.33 0 01.69.4zM14.56 31.37a2.37 2.37 0 01.67-.41 3.14 3.14 0 01.74-.15c.5-.08 1-.16 1.51-.22v.05c-.47.2-.94.39-1.41.56a3.21 3.21 0 01-.72.24 2.35 2.35 0 01-.79 0zM22.05 30.24a4.45 4.45 0 01.84-.94 6.33 6.33 0 011-.68 20.85 20.85 0 012.19-1.16v.05q-1 .69-2 1.44c-.32.25-.62.53-1 .75a6.76 6.76 0 01-1.1.58zM26.82 29.38a2.27 2.27 0 01-1.08.26l-1.1.08c.36-.1.72-.18 1.08-.26a2.32 2.32 0 011.11-.08zM26.94 29.38a2.06 2.06 0 01.68.27 2.52 2.52 0 01.5.48c.32.33.64.67.95 1-.4-.24-.8-.49-1.18-.75a2.84 2.84 0 01-.56-.4 2 2 0 01-.39-.62zM22.1 30.72a1.18 1.18 0 01-.2.39 1.25 1.25 0 01-.3.21 2.5 2.5 0 00-.54.58 1.69 1.69 0 01.29-.82.76.76 0 01.29-.35.68.68 0 01.49 0zM33.89 25.57c-.26 0-.46 0-.66.05s-.39 0-.6 0a1.79 1.79 0 00-1 .71 1.71 1.71 0 011-1.07 1.24 1.24 0 01.76-.14 1 1 0 01.65.41z"/></g></g><text transform="translate(13.97 31.54)" font-size="33.867" fill="#fff" stroke="#7c8c03" stroke-miterlimit="10" font-family="HVDSteinzeit-FillIn,HVD Steinzeit">M</text><text transform="translate(14.03 31.79)" font-size="33.867" fill="#d91a60" stroke="#7c8c03" stroke-miterlimit="10" font-family="HVDSteinzeit,HVD Steinzeit">M</text></g></g></symbol><symbol viewBox="0 0 50 50" id="menu-down" xmlns="http://www.w3.org/2000/svg"><path opacity=".28" d="M2.71 42.5V13.33H40V46H5.58" data-name="Welcome Page Web"/><g data-name="Sprite buttons"><path fill="#d62d7a" d="M8.03 37.19V9.31H2.72V42.5M2.72 9.31h1.31V8"/><path fill="#d62d7a" d="M8.03 37.19v5.31h-5.4"/><path d="M37.19 41.16l-1.37 1.34H8v-5.31h29.22" fill="#d62d7a"/><path fill="#d62d7a" d="M4.03 8h33.19v33.19H4.03z"/><g fill="#d62d7a"><path d="M12.65 23.24h16.52c.53 0 1 .62 1 1.38v.14c0 .76-.44 1.38-1 1.38H12.65c-.54 0-1-.62-1-1.38v-.14c.02-.76.46-1.38 1-1.38zM12.65 30.48h16.52c.53 0 1 .62 1 1.38V32c0 .76-.44 1.38-1 1.38H12.65c-.54 0-1-.62-1-1.38v-.14c.02-.76.46-1.38 1-1.38zM12.65 16h16.52c.53 0 1 .62 1 1.38v.14c0 .76-.44 1.38-1 1.38H12.65c-.54 0-1-.62-1-1.38v-.14c.02-.76.46-1.38 1-1.38z"/></g><path fill="#d62d7a" d="M8.03 37.19V9.31H2.72V42.5M2.72 9.31h1.31V8"/><path fill="#871242" d="M8.03 37.19v5.31h-5.4"/><path d="M37.19 41.16l-1.37 1.34H8v-5.31h29.22" fill="#871242"/><path fill="#d91a60" d="M4.03 8h33.19v33.19H4.03z"/><g data-name="menu-outline" fill="#c7b299"><path d="M12.65 23.24h16.52c.53 0 1 .62 1 1.38v.14c0 .76-.44 1.38-1 1.38H12.65c-.54 0-1-.62-1-1.38v-.14c.02-.76.46-1.38 1-1.38zM12.65 30.48h16.52c.53 0 1 .62 1 1.38V32c0 .76-.44 1.38-1 1.38H12.65c-.54 0-1-.62-1-1.38v-.14c.02-.76.46-1.38 1-1.38zM12.65 16h16.52c.53 0 1 .62 1 1.38v.14c0 .76-.44 1.38-1 1.38H12.65c-.54 0-1-.62-1-1.38v-.14c.02-.76.46-1.38 1-1.38z"/></g></g></symbol><symbol viewBox="0 0 50 50" id="menu-up" xmlns="http://www.w3.org/2000/svg"><path opacity=".28" d="M3.01 43.5V14.33h43.17V47H6.33" data-name="Welcome Page Web"/><g data-name="Sprite buttons"><path fill="#d62d7a" d="M8.33 38.19V10.31H3.02V43.5M3.02 10.31h5.31V5"/><path fill="#d62d7a" d="M8.33 38.19v5.31H2.94M36.13 43.5H8.33v-5.31h33.19M8.33 5h33.19v33.19H8.33z"/><g fill="#d62d7a"><path d="M17 19.24h16.47c.53 0 1 .62 1 1.38v.14c0 .76-.44 1.38-1 1.38H17c-.54 0-1-.62-1-1.38v-.14c0-.76.41-1.38 1-1.38zM17 26.48h16.47c.53 0 1 .62 1 1.38V28c0 .76-.44 1.38-1 1.38H17c-.54 0-1-.62-1-1.38v-.14c0-.76.41-1.38 1-1.38zM17 12h16.47c.53 0 1 .62 1 1.38v.14c0 .76-.44 1.38-1 1.38H17c-.54 0-1-.62-1-1.38v-.14c0-.76.41-1.38 1-1.38z"/></g><path fill="#d62d7a" d="M8.33 38.19V10.31H3.02V43.5M3.02 10.31h5.31V5"/><path fill="#871242" d="M8.33 38.19v5.31H2.94M36.13 43.5H8.33v-5.31h33.19"/><path fill="#d91a60" d="M8.33 5h33.19v33.19H8.33z"/><g data-name="menu-outline" fill="#c7b299"><path d="M17 19.24h16.47c.53 0 1 .62 1 1.38v.14c0 .76-.44 1.38-1 1.38H17c-.54 0-1-.62-1-1.38v-.14c0-.76.41-1.38 1-1.38zM17 26.48h16.47c.53 0 1 .62 1 1.38V28c0 .76-.44 1.38-1 1.38H17c-.54 0-1-.62-1-1.38v-.14c0-.76.41-1.38 1-1.38zM17 12h16.47c.53 0 1 .62 1 1.38v.14c0 .76-.44 1.38-1 1.38H17c-.54 0-1-.62-1-1.38v-.14c0-.76.41-1.38 1-1.38z"/></g></g></symbol></svg>