<?xml version="1.0" encoding="utf-8"?><svg xmlns="http://www.w3.org/2000/svg" xmlns:xlink="http://www.w3.org/1999/xlink"><symbol viewBox="0 0 210 90" id="button-play" xmlns="http://www.w3.org/2000/svg"><g data-name="Play Button"><rect x="21" y="23.5" width="185" height="62" rx="23.25" opacity=".41"/><rect x="8" y="13.5" width="185" height="62" rx="23.25" fill="#fff" stroke="#19253a" stroke-miterlimit="10" stroke-width="8"/><g data-name="Play Button"><path d="M170.75 75.5H32.25a23.16 23.16 0 01-6.25-.84" fill="none" stroke="#19253a" stroke-linecap="round" stroke-miterlimit="10" stroke-width="8"/><path d="M21 73.1A23.26 23.26 0 018 52.25v-15.5a23.25 23.25 0 0110-19.08" fill="none" stroke="#375282" stroke-linecap="round" stroke-miterlimit="10" stroke-width="8"/><rect x="12" y="8.5" width="185" height="62" rx="23.25" fill="#fff" stroke="#253659" stroke-miterlimit="10" stroke-width="8"/><path d="M32.69 41.42V40.45s0-.33.08-.37l.34-1.26a1.85 1.85 0 00.29-.17H33.7a3.31 3.31 0 01.71 0c.12 0 .5.08.54 0s.55.17.63.17a6.93 6.93 0 01.63.5 4.41 4.41 0 01.59.76s.17.62.21.71a3 3 0 01-.84 0l-.5-.63-.21-.16H34.87a1.42 1.42 0 00-.38.25 2.38 2.38 0 01-.25.16l-.12.17V40.88a8.26 8.26 0 00.88.79c0 .09.08.13.17.13a2.6 2.6 0 00.46.25 5.53 5.53 0 01.63.17 1.81 1.81 0 00.42 0s.55 0 .75-.08l.76-.17a5.24 5.24 0 001-.29s.37-.17.42-.21 1-.42 1.17-.55h.13c.08 0 .75-.25.79-.25l1.3-.3c.05 0 1.1-.17 1.47-.25l1.47-.25a1.63 1.63 0 00.63.08A8.68 8.68 0 0148 39.7a8.2 8.2 0 011 0l1-.17c.17 0 .88-.21 1-.21a.7.7 0 00.29-.17s-.08-.09-.08-.13-.76-.67-.84-.8-.63-.71-.72-.75l-.92-1.14a3.59 3.59 0 01-.33-.5l-.59-.67s-.25-.34-.34-.29a6.33 6.33 0 00-.71-.68c-.3-.21-1.76-1.3-2.1-1.46l-.59-.34-1-.29c-.13 0-.8-.09-.8-.09s-.55.09-.67.09a6.5 6.5 0 00-.8.16s-.21.09-.21.17-.13.13-.17.13-.17.46-.21.46-.29.59-.25.67a4 4 0 000 .71s0 .47.08.68a4.41 4.41 0 00.17.54.93.93 0 00.17.46l.46.3a1.31 1.31 0 00.46.08h.13a.4.4 0 00.12 0s.25-.13.25-.21l.38-.34a.5.5 0 01.13 0h.67c0 .05.21.09.25.09l.3.25a2 2 0 010 .21v.25c0 .04-.13.25-.21.29a2.69 2.69 0 01-.5.51 2.37 2.37 0 01-.34 0 1.91 1.91 0 01-.34.08c-.08 0-.58-.12-.75-.16a2.94 2.94 0 01-.76-.26 10.51 10.51 0 01-1.42-.92 2.61 2.61 0 01-.42-.38s-.59-.54-.68-.63l.04-.24v-.12c0-.3-.09-1.22-.09-1.3a3.5 3.5 0 010-.63c0-.13.09-.63.13-.67a3 3 0 01.38-.68 1.6 1.6 0 00.33-.37 7.89 7.89 0 01.68-.47c0-.12.5-.42.58-.46s.72-.3.84-.3a2.26 2.26 0 01.46-.13c.13 0 .51 0 .55-.08s.5 0 .67 0a7.45 7.45 0 011.22.21c.21 0 .8.08.92.08s1.22.42 1.64.63a4.12 4.12 0 01.75.25 9.69 9.69 0 001.39.59c.08.09.59.42.63.51l.59.5s.25.21.33.25.3.29.3.29l.21.17s.16.21.21.21.58.59.63.67.46.42.54.47.63.84.71 1a4.29 4.29 0 00.72.55 5.46 5.46 0 00.29 1 1.29 1.29 0 01.17.47 2.46 2.46 0 00.46.46 8.35 8.35 0 00.93.71l.5.63 1.38.34a1.36 1.36 0 01.34.08 3.74 3.74 0 00.71.13s.38.12.42.08a.81.81 0 01.3.09 1.48 1.48 0 01.08.25 1.11 1.11 0 010 .29c0 .13-.16.29-.25.38a6.57 6.57 0 00-.71.12c-.17.05-.63.13-.63.13a1.24 1.24 0 01-.46-.13c-.09 0-.42-.21-.47-.21a2 2 0 01-.71 0H55.53c0 .05-.21.21-.25.26s-.38-.05-.42-.13a2.8 2.8 0 01-.63-.13 3 3 0 00-.59 0 3.83 3.83 0 01-.51.09 4 4 0 01-.5.08l-.21.17a2.57 2.57 0 01-.29-.09 1 1 0 00-.34.09h-.38l-.58.25a5.77 5.77 0 01-.63.21 1.17 1.17 0 01-.38.21h-.13l-.5.59a.91.91 0 00-.38.21 4.16 4.16 0 00-.59.25s-.16.17-.21.17l-.67.38a.63.63 0 01-.21.17.5.5 0 00-.12.21 7.34 7.34 0 00-1.26.5 1.58 1.58 0 00-.38.21s-.46.21-.51.21a3.56 3.56 0 00-.54.38c-.29.08-1.68.12-2 .16a4.79 4.79 0 01-.84 0h-1c-.08 0-.88.17-1 .17a10 10 0 00-1.68-.3h-.12c-.17 0-.76-.12-.88-.12a1.17 1.17 0 01-.38-.21 4.65 4.65 0 01-1-.3s-.58-.33-.79-.42l-.13-.08c-.21-.21-.71-.76-.75-.76s-.21-.46-.21-.54-.8-1.09-1-1.3zM48 47s.25-.88.34-1.22l.21-.46.67-1a9.21 9.21 0 00.8-.55 4.57 4.57 0 01.63-.42c.12 0 .67-.38.84-.42a4.56 4.56 0 00.5-.21 4.66 4.66 0 01.67-.29l1.39-.38a.14.14 0 00.08 0 4.86 4.86 0 00.93.29s.37.09.42.09a.9.9 0 01.46.21s0 .12.08.21 0 .16 0 .16-.17.21-.25.21a7.36 7.36 0 00-.84.17c-.09 0-.55.21-.63.21s-.93.55-1.09.63c0 0-.55.46-.59.59a1.27 1.27 0 00-.38.17 2.38 2.38 0 01-.25.16c0 .09-.42.42-.5.55a8.4 8.4 0 00-.63.67c0 .13-.42.55-.38.63a1.65 1.65 0 00-.13.29v.17a.22.22 0 010 .13s.17.12.21.12a5 5 0 01.55.21 1.57 1.57 0 01.46.17l.34.25c.08 0 .12.21.16.26s.09.29.09.37a1.29 1.29 0 010 .34 2.84 2.84 0 00-.21.29 3.22 3.22 0 01-.54.38l-.34.21h-.23a4.68 4.68 0 01-.84 0 1.45 1.45 0 01-.51-.08 1.8 1.8 0 01-.46-.29 12.83 12.83 0 01-.8-1.43 3.13 3.13 0 01-.16-.76A4.46 4.46 0 0148 47zM162.14 47.17a2.63 2.63 0 00-.17-.76s-.37-.42-.5-.5c-.42-.25-1.26-.92-1.51-1a6.52 6.52 0 00-1.26-.91 1.33 1.33 0 01-.46-.17 5.9 5.9 0 00-.59-.16 2.41 2.41 0 00-.46-.3l-.29-.21a7.38 7.38 0 00-1.1-.59l.26-.25c0-.08 1.09-.12 1.09-.21h.16a3.2 3.2 0 00.89.21h.33l1.39.47.92.37h.09s.33.21.37.21a3.24 3.24 0 00.38.21l.88.55a3.08 3.08 0 01.72.54l.5.51a4 4 0 01.84 1 2.74 2.74 0 01.38.68s.08.5.08.62a3.19 3.19 0 01.08.8v.8c0 .04-.08.46-.21.59s-.08.29-.12.29-.42.3-.51.34-.37.38-.42.38-.75-.09-.88-.09a5.85 5.85 0 01-.8-.29l-.46-.59v-1.47c0-.02.38-1.03.38-1.07zm-3.86-6.09a6.83 6.83 0 00-.88.17h-.4a1.77 1.77 0 01-.46-.25l-.3-.17a2.09 2.09 0 00-.25-.3c-.21-.25.38-1.21 1-1.13s.33-.08.38-.17a3.09 3.09 0 001.09 0l.5-.46a16.14 16.14 0 001.14-1.18 3.29 3.29 0 01.46-.33 6.17 6.17 0 01.71-.76 4.42 4.42 0 01.71-1.05 19.88 19.88 0 012-1.85l.42-.29c.17 0 .92-.67 1-.67a7.77 7.77 0 01.67-.46 1.53 1.53 0 00.25-.13 14.78 14.78 0 001.43-.5 11.66 11.66 0 011.17-.21s.76.08 1 .08 1.17.09 1.22.09.67.12.75.25a2.12 2.12 0 00.42.33 5 5 0 00.55.51 11.82 11.82 0 011.05 1.42c0 .05.17.26.12.3s.26.21.34.29a5.25 5.25 0 01.17 1 3.88 3.88 0 01.08.63v.29l-.21 1s-.17.33-.21.38-.29.42-.33.54c-.26.17-1.1 1-1.26 1a4 4 0 01-.76.42 2.38 2.38 0 01-.76.13c-.08 0-.62-.13-.71-.3a6.77 6.77 0 01-.75-.29c-.09-.08-.3-.17-.34-.25s-.29-.46-.34-.63-.42-.8-.42-.8v-.46c0-.08 0-.3.05-.3l.5-.16.67.88h.25a1.08 1.08 0 00.34 0 2.05 2.05 0 01.42-.29 6.66 6.66 0 00.67-.63l.33-.51c.09-.08.13-.46.17-.54a1.6 1.6 0 000-.25v-.3a3.14 3.14 0 00-.08-.5 1.9 1.9 0 01-.13-.34c-.21-.12-.75-.54-.88-.59s-.59 0-.84-.08h-.84a7 7 0 01-.88.46s-.54.25-.71.38a3.85 3.85 0 00-.51.29s-.25.09-.29.09-.46.29-.55.25a1.66 1.66 0 01-.46.5s-.29 0-.29.09a9 9 0 00-1 .88 4.46 4.46 0 00-.84 1.05 2.88 2.88 0 01-.63.33 7.09 7.09 0 01-.79.76s-.42.17-.42.21-.09.17-.09.21 0 .17.09.21l1.55.25a5.67 5.67 0 001 .25 9.48 9.48 0 001 .38c.08 0 1.13.54 1.3.63a7.5 7.5 0 011 .33h.36c.08 0 .25.26.29.26h.38c.38.08 3.4.46 3.78.46a4.25 4.25 0 01.84.12h.63c.04 0 .54.12.71 0a2.81 2.81 0 00.88-.17 4.55 4.55 0 01.93-.38 3.26 3.26 0 00.75-.29s.21-.09.21-.13l.84-.5c.09 0 .3-.34.34-.34s.59-.59.67-.75-.08-.72-.08-.76-.89-.63-1-.63-.67.8-.76.76h-.33s-.25-.3-.38-.34-.13-.13-.13-.13.17-.33.17-.46.51-.46.51-.54l1.55-.21a1.32 1.32 0 01.34.16l.16.13c.13.13.93.5 1 .59a7.54 7.54 0 00.42.63 2.93 2.93 0 01.34 1v.38a3 3 0 00-.09.42 6.42 6.42 0 01-.29.8 2.4 2.4 0 00-.38.29s-.25.42-.29.42a9.2 9.2 0 00-1 .72c-.17.16-.8.71-.92.88 0 0-.55.29-.76.38 0 0-.33.08-.38.08a1 1 0 01-.29.29 6.22 6.22 0 00-.63.3c-.17 0-1.38.46-1.55.46l-.63.25c-.13.08-.63.21-.72.25a3.08 3.08 0 00-.71.17c-.08 0-.59.08-.63.08s-.54 0-.63-.08a4.18 4.18 0 01-.75.13h-1.22c-.04 0-.34-.25-.42-.29s-.5-.17-.59-.17-.33-.17-.38-.17l-.63-.21a1.45 1.45 0 00-.5-.33 3.5 3.5 0 00-.46-.42c-.13 0-.92-.55-1.18-.63a5.94 5.94 0 00-1.26-.76 2.25 2.25 0 00-.46-.21 4.35 4.35 0 00-.67-.42s-.46-.12-.59-.25H162c-.29 0-2.39-.59-2.64-.67a2.88 2.88 0 00-.5-.09z"/></g></g></symbol><symbol viewBox="0 0 960 560" id="hero-box" xmlns="http://www.w3.org/2000/svg"><path fill="#253659" stroke="#000" stroke-miterlimit="10" d="M.5.5h960v560H.5z" data-name="HeroBox Web Background"/><g data-name="HeroBox Web"><path d="M0 559h948.73l-64.4-22.26c-11.45-4-23.11-8-35.22-8.3-21.62-.61-43.05 10.49-64.23 6.1-26.35-5.46-43.45-33-69.53-39.64-31.39-8-63.09 17-95.23 13-30.28-3.77-51.28-31.43-78.38-45.47-49.29-25.52-108.7-2.81-164.2-3.83C318 457.46 263 428.63 210.5 400.5l-66.8-35.82c-9.8-5.25-19.7-10.57-28-17.95-14.06-12.49-22.57-29.87-31.52-46.41s-19.31-33.33-35.44-43c-14.94-9-36.13-9.62-48.72 1.84z" fill="#c7b299"/><path data-name="mountain 2" d="M959.13 560V252.64a29.35 29.35 0 00-18.6 4c-14.25 8.36-18.41 26.5-24.53 40.63-5.38 12.43-14.43 25.12-27.83 27.18-14.62 2.25-30.1-9-43.6-2.91-10.46 4.69-14.25 17.66-14.62 29.12s1.37 23.42-2.94 34c-6.62 16.3-25.49 24.18-43 25.79s-35.32-1.31-52.71 1.34c-44.49 6.8-75.71 47.45-117.19 64.93-31.69 13.35-67.34 12.38-101.69 10.89s-69.86-3.08-102 9.19c-27.78 10.61-51.13 34.63-55.77 63.13z" fill="#603813"/><g data-name="Nopal 2"><g data-name="Tuna 4"><path d="M288.56 168.21c8.14 7.47 17.52 14.24 28.39 16.22 16.39 3 32.49-5.33 47.08-13.37 12.76-7 26.16-14.68 33.24-27.4 6-10.77 6.57-23.75 5.32-36a136.2 136.2 0 00-32.49-74.92c-6.47-7.43-13.93-14.26-22.91-18.31-7.22-3.26-15.13-4.6-22.95-5.91-4.61-.78-9.36-1.52-13.92-.52a36.42 36.42 0 00-8.5 3.52l-16.94 8.79c-9.11 4.73-18.23 9.46-27.3 14.26-3.51 1.86-7.14 3.83-9.48 7.05-6.89 9.49-1.57 25.08-3 36-1.34 10.56-.93 18.12 2.68 28.45 8.22 23.44 22.22 45.58 40.78 62.14z" fill="#d91a60"/><path d="M403.34 107.62a136.08 136.08 0 00-32.48-74.9c-6.47-7.43-13.93-14.27-22.86-18.32-7.22-3.26-15.13-4.6-22.95-5.91-4.66-.77-9.41-1.49-13.97-.49a36 36 0 00-8.5 3.53l-16.95 8.77Q272 27.38 258.34 34.55c-3.51 1.86-7.14 3.83-9.48 7.05-6.89 9.49-1.58 25.08-3 36-1.34 10.56-.93 18.13 2.68 28.46 8.17 23.39 22.18 45.53 40.73 62.09-5.38-6.77-6.57-17.42-5-25.92.83-4.47 2.67-9.1 1.23-13.41-1.24-3.71-4.64-6.26-6.54-9.68-5.32-9.6 2.42-23-3.76-32.09-3.5-5.14-10.78-7.48-12.62-13.42-1.8-5.78 3-11.94 8.76-13.85s12-.76 17.95.41L313.6 65c5.79 1.15 13.23 1.6 16.15-3.54 3.34-5.9-2.59-14 .91-19.85 2.72-4.52 9.26-4.52 14.38-3.23a56.63 56.63 0 0127.2 16c10.82 11.47 16.31 26.84 21.51 41.74 1.62 4.62 7.97 6.88 9.59 11.5z" fill="#ff7bac"/><path d="M397.45 141.25c.11 3.12-3 5.92-5.54 8.66-7.48 8-17.28 13.43-26.78 18.67-14.59 8-30.69 16.35-47.08 13.36-6.19-1.12-27.88-9.25-27.66-17.21.25-9.32 22.55-12.26 28.81-12.74 10.75-.81 21.9-.3 31.9-4.36 5.55-2.25 10.46-5.82 15.61-8.9s10.8-5.73 16.79-5.84c4.36-.09 9.43 1.46 12.38 4.84a5.75 5.75 0 011.57 3.52z" fill="#9e005d"/></g><path d="M840.19 559.61h.2a407 407 0 009.52-96c-2.39-107.47-55.73-215.84-147.67-271.52-40.48-24.51-86.61-38.34-133.15-46.91-61.88-11.39-126.29-13.78-187.3 1.61s-118.51 49.72-154.45 101.36c-24 34.44-37.61 75.1-46.22 116.16a548.86 548.86 0 00-9 58.73c-4.46 45.55-3.08 92 7 136.57z" fill="#324001"/><path d="M832.48 559.61a107.06 107.06 0 002.32-13.3c2.28-20.39 2.48-40.95 2.68-61.46.34-34.14.6-68.9-9.36-101.55-6.7-21.95-18.29-43.27-18.85-66.65-.2-8.09 1.35-7.7-6.19-9.64-5.72-1.47-11.68-2.05-17.42-3.61a109.9 109.9 0 01-32.38-14.33c-14.32-9.59-23.75-20.56-34-34.19-3.72-4.94-7.19-10-10.64-15.15-1.92-2.86-3.87-5.69-5.81-8.53l-.33-.48a80.02 80.02 0 01-3.78-5.42c-1.7-1-3.37-2-5.09-3-4.57-2.62-9.13-5.26-13.79-7.71q-3.48-1.84-7-3.55l-1.9-.88c-2.7-.68-5.61-1.23-6.18-1.43l-2.15-.44c-1.09-.08-2.17-.16-3.27-.21a127.73 127.73 0 00-15.9.36l-33.22 3.9a151.79 151.79 0 01-17.71.9c-28.07-.44-55.11-9.82-79.45-23.34-4.11-2.28-6.85-4.12-11.49-4.7a87.18 87.18 0 01-12.89-2.64A94.94 94.94 0 01464.57 172a93.42 93.42 0 01-16.72-13c-2.19-2.16-4.26-5.54-6.88-7.1s-6.38-2.43-9.28-3.86a75.37 75.37 0 01-13.36-8.52q-13.26 1.85-26.36 4.69a69.28 69.28 0 01-73.2 26.05q-4.68 2.38-9.28 4.94a83.84 83.84 0 014.37 20.8c3.8 46.48-40.05 85.17-85.62 70.15a84.62 84.62 0 01-9.92-4c-18.46 31.19-29.71 66.45-37.16 102a546.55 546.55 0 00-9 58.72c-4.47 45.62-3.08 92.16 7.05 136.77z" fill="#7c8c03"/><path d="M644.39 208.39c-7.89 2.06-17 4.74-23.27 10.08-5.33 4.54-11 11-11.29 18.35-.17 4.44.73 9-.26 13.3-1.81 7.9-10.7 13.45-18.58 11.53s-13.21-11-10.94-18.83 10-12.17 17.07-15.88c3.24-1.7 6.49-3.63 8.82-6.51 2.15-2.66 4.82-6.14 5.51-9.55" fill="#324001"/><g data-name="Black spots"><path d="M389.67 446.32c-1.74 2.49-3.56 5.28-3.23 8.3.44 4.07 4.48 6.62 8.08 8.56 4.66 2.51 9.79 5.09 15 4.14s9.52-5.86 10.39-11.22-1.29-11-5-14.92c-3.13-3.33-9.1-7.66-14-6.8-5.3.91-8.52 8.04-11.24 11.94zM271.21 316.06c-2 6-.7 13.4 4.34 17.2 4.17 3.14 10.05 3.25 15 1.47s9-5.21 12.88-8.76a25.57 25.57 0 005.52-6.5 9.63 9.63 0 00.66-8.26c-1.77-3.92-6.47-5.41-10.64-6.47-5.08-1.29-12.62-5.1-17.41-2.12-4.56 2.8-8.69 8.48-10.35 13.44zM567.07 424.62c2.09 8.92 3.48 18.31 8.5 26s15.09 13.05 23.46 9.32c8-3.54 10.9-13.34 11.39-22s-.44-17.88 3.41-25.7c5.27-10.68 19.79-15.6 30.46-10.31s15.57 19.81 10.27 30.48c-2.09 4.19-5.41 7.63-8 11.54A37.67 37.67 0 00662.45 499c8 3.65 17.07 4.35 25.86 5.24s17.85 2.11 25.46 6.62 13.43 13.13 12 21.86c-1.74 11-13.31 17.28-23.86 20.77-11.83 3.91-26 6.06-35.81-1.58s-11.24-21.4-17.22-32.15a41.1 41.1 0 00-68.14-5.51c-8.3 10.48-11.51 25-22.06 33.2-12.5 9.74-33.32 5.51-41-8.33s-.35-33.77 14.51-39.28c5.75-2.13 12-2.28 18-3.48s12.25-3.85 15.26-9.19c4.62-8.21-.32-18.32-5.17-26.39q-12.31-20.52-24.65-41c-4.33-7.22-10.14-15.32-18.56-15.37-6.5 0-12 4.92-18.29 6.35s-13.17-.87-18.48-4.71-9.41-9.1-13.43-14.28c-6.69-8.62-13.69-18-14.08-28.94a26.71 26.71 0 0111.23-22.45c6.92-4.81 17.67-6.75 25.23-2.43 3.29 1.87 5.51 5.36 8.45 7.67 4.5 3.54 4.73 9.57 3.81 15.22-.56 3.45-1.92 6.83-1.71 10.32.26 4.31 2.91 8.15 6.09 11.07 9.7 8.87 23.8 10.59 35.59 16.39 10.83 5.29 22.85 14.28 25.59 26zM186.82 459c2.54 2.84 4.18 6.34 5.81 9.78 4.65 9.86 13.61 34.65 27.58 34.24 4.66-.14 8.94-3 11.7-6.75s4.17-8.34 5.08-12.91a69.62 69.62 0 00.46-24.68c-1.12-7-3.29-14.27-1-21a16.64 16.64 0 0132.39 5.09c.08 4.55-2 9.29-5.9 11.61-4.52 2.69-10.68 1.89-14.71 5.26-4.76 4-4.05 11.41-2.4 17.38s3.76 12.69.65 18c-1.3 2.24-3.43 4-4.24 6.46-1.33 4.07 1.63 8.54 5.48 10.4 12.35 6 27.31-2.66 38.91 6.76a18.76 18.76 0 01-13.92 33.21c-7-.78-12.91-5.37-17.88-10.32s-9.49-10.51-15.47-14.18c-6.84-4.2-15-5.55-22.64-7.95s-15.51-6.44-18.95-13.68c-1.5-3.15-2.07-6.73-3.9-9.7s-5.75-5.19-8.82-3.53c-3.91 2.14-3.5 8.71-7.48 10.73-2.74 1.38-6.23-.36-7.83-3s-1.8-5.83-1.95-8.9c-.21-4.12-.91-7.63-.13-11.58.92-4.66 2.24-8.53 1.62-13.42a34.39 34.39 0 01-.67-6.61c.62-9.03 14.28-5.55 18.21-.71zM708.53 355.32a18.41 18.41 0 0015.33 8.9 16.73 16.73 0 0014.93-9.22c4.79-10.09-3.65-23-15.08-22.13-11.13.83-21.71 11.57-15.18 22.45zM203.23 335.14a18.41 18.41 0 0015.87-7.89 16.74 16.74 0 00.54-17.54c-5.79-9.56-21.2-9.62-26.79.39-5.44 9.75-2.3 24.5 10.38 25.04zM453.62 258.15c-.82 4.52.79 9.23 3.46 13s6.33 6.65 10.05 9.35c4.52 3.28 9.66 6.46 15.23 6.09 6.18-.41 11.49-5.52 13-11.53 5.96-23.65-37.14-42.13-41.74-16.91zM385.51 215.67c.15 10.34 9.52 19.65 19.85 19.74s19.86-9.06 20.19-19.39c.24-7.48-3.65-14.39-7.42-20.85-1.48-2.52-3-5.14-5.46-6.76-9.51-6.37-9.45 8.18-14 12-6.28 5.3-13.32 4.04-13.16 15.26zM796.53 330.9a25 25 0 0018.59 19.1c3.92.88 8.93.26 10.6-3.4 1.25-2.73.06-5.9-1.12-8.66q-4.94-11.47-9.85-22.95c-8.34-19.43-20.53 4.22-18.22 15.91zM777.05 429.7c-3.35 3.55-4.59 8.54-5.7 13.3-1.79 7.7-3.44 16.37.78 23.05 4.36 6.91 13.25 9 20.32 13.1a37.21 37.21 0 0117.74 25c3-1.35 4.94-4.59 5.55-7.87s.13-6.67-.34-10q-2.19-15.28-4.4-30.56c-.78-5.48-1.64-11.16-4.68-15.79-4.97-7.56-21.18-18.78-29.27-10.23zM827.43 549.35c.05 2.63.11 5.33 1.15 7.74a8.45 8.45 0 001.67 2.52h8.55a8.5 8.5 0 001.48-2 20.41 20.41 0 001.75-7.14c.88-7.3 3.06-15 2.56-22.32a25.29 25.29 0 00-1.59-8.52c-1.18-2.66-3.53-5-6.41-5.3-3.52-.39-6.79 2.34-8.19 5.6s-1.36 6.92-1.3 10.46z" fill="#324001"/><ellipse cx="287.2" cy="319.25" rx="10.18" ry="8.46" transform="rotate(-45 287.206 319.245)" stroke="#000" stroke-miterlimit="10"/><ellipse cx="534.24" cy="524.31" rx="6" ry="7.2" stroke="#000" stroke-miterlimit="10"/><ellipse cx="672.81" cy="530.03" rx="5.32" ry="5.06" transform="rotate(-70.4 672.815 530.03)" stroke="#000" stroke-miterlimit="10"/><ellipse cx="634.89" cy="421.64" rx="5.88" ry="4.94" transform="rotate(-78.73 634.886 421.639)" stroke="#000" stroke-miterlimit="10"/><ellipse cx="723.39" cy="348.06" rx="6.21" ry="6.26" transform="rotate(-37.66 723.45 348.068)" stroke="#000" stroke-miterlimit="10"/><ellipse cx="788.79" cy="453.55" rx="5.7" ry="6" stroke="#000" stroke-miterlimit="10"/><ellipse cx="840.67" cy="541.82" rx="6.69" ry="10.52" transform="rotate(-6.56 840.09 541.477)" stroke="#000" stroke-miterlimit="10"/><ellipse cx="815.23" cy="326.46" rx="5.11" ry="10.52" transform="rotate(-25.84 815.127 326.437)" stroke="#000" stroke-miterlimit="10"/><ellipse cx="595.47" cy="245.55" rx="4.23" ry="5.73" transform="rotate(-78.07 595.504 245.547)" stroke="#000" stroke-miterlimit="10"/><ellipse cx="656.36" cy="190.16" rx="4.93" ry="9.14" transform="rotate(-73.8 656.407 190.145)" stroke="#000" stroke-miterlimit="10"/><ellipse cx="272.35" cy="527.19" rx="7.88" ry="6.63" transform="rotate(-70.88 272.355 527.189)" stroke="#000" stroke-miterlimit="10"/><ellipse cx="253.16" cy="440.84" rx="7.88" ry="6.63" transform="rotate(-70.88 253.163 440.839)" stroke="#000" stroke-miterlimit="10"/><ellipse cx="402.77" cy="449.86" rx="6.95" ry="6.01" transform="rotate(-56.57 402.77 449.862)" stroke="#000" stroke-miterlimit="10"/><ellipse cx="481.12" cy="361.91" rx="8.92" ry="6.91" transform="rotate(-81.4 478.763 361.453)" stroke="#000" stroke-miterlimit="10"/><ellipse cx="174.63" cy="475.64" rx="7.83" ry="13.64" transform="rotate(-2.41 174.768 475.97)" stroke="#000" stroke-miterlimit="10"/><ellipse cx="198.91" cy="317.39" rx="13.53" ry="7.24" transform="rotate(-75.87 198.92 317.392)" stroke="#000" stroke-miterlimit="10"/><ellipse cx="402.87" cy="214.56" rx="6.33" ry="6.65" transform="rotate(-33.42 402.828 214.545)" stroke="#000" stroke-miterlimit="10"/><ellipse cx="476.96" cy="265.73" rx="5.27" ry="5.34" transform="rotate(-70.88 476.965 265.725)" stroke="#000" stroke-miterlimit="10"/></g><g data-name="Tuna 1"><path d="M720 121.21c2.07-10.71 5-21.45 10.7-30.75s14.56-17.09 25.2-19.54c7.09-1.63 14.48-.84 21.71 0l43.53 4.8c12.18 1.34 25 2.9 34.94 10 13.57 9.65 18.84 27.32 20.3 43.9C881 181 855.18 234 811.91 262.27c-12 7.82-25.58 13.93-39.89 14.45-10.7.38-23.73-2.79-31.49-10.69-5.92-6-8-16.81-10.8-24.57A228.69 228.69 0 01716 165.7a225.14 225.14 0 014-44.49z" fill="#d91a60"/><path d="M877.17 130.17c-1.46-16.59-6.73-34.26-20.3-43.91-10-7.1-22.76-8.66-34.94-10l-43.53-4.79c-7.23-.8-14.63-1.59-21.72 0-10.63 2.53-19.48 10.29-25.2 19.58 1.87 3.45 8.24 3.74 11.93 2.42s6.55-4.22 9.38-6.93 6-5.42 9.82-6.17c6.37-1.23 12.36 3.23 17 7.75s9.51 9.71 15.95 10.48c4.58.55 9.06-1.27 13.58-2.2s9.93-.64 12.77 3c3.81 4.86 1.29 13.5 6.49 16.82 4.35 2.76 9.86-.92 13.43-4.63s8.1-8.06 13-6.61c4.14 1.22 6.06 6 6.55 10.31s.2 8.87 2.29 12.66 10.77 5.57 13.5 2.22z" fill="#ff7bac"/><path d="M876 164.33c-6.46 39.53-29.52 76.47-63.16 98.41-12 7.82-25.58 13.94-39.9 14.45a51.15 51.15 0 01-10.19-.66 47.25 47.25 0 01-10.94-3.15c-1.67-.72-3.21-1.65-4.91-2.27a23.21 23.21 0 01-5.19-2.68c-1-.72-2-1.56-2.92-2.36a3.66 3.66 0 01-1.56-2.78c.1-1.94 2.15-3.29 4.08-3.39s3.79.71 5.61 1.38c13.31 4.92 29.76 3.5 38.51-8.95a27.53 27.53 0 003.18-25.05c7.58 8 21.94 7.91 29.46-.11 5.87-6.27 7.16-15.42 10.71-23.24a42.58 42.58 0 0124-21.86c4.47-1.65 11.1-1.08 14.93-3.72S874 168.2 876 164.33z" fill="#9e005d"/></g><g data-name="Tuna 2"><path d="M692.59 0H549.87c-2 .07-4 .08-6 0h-15.15a186.36 186.36 0 00-3.65 34.61 190.65 190.65 0 0016.43 79.91c4.13 9.24 9.75 17.66 13.53 27.05 4.71 11.68 10.43 21.79 21.23 28.95a52.42 52.42 0 0044.32 6.12c14-4.5 25.42-14.75 35-25.93a177.76 177.76 0 0042.14-116.55A120.34 120.34 0 00692.59 0z" fill="#d91a60"/><path d="M549.87 0c-2 .07-4 .08-6 0h-15.64a186.66 186.66 0 00-3.39 33.26 190.49 190.49 0 0016.43 79.91c2.8-5.45 6.71-12.06 9.51-17.52 2.34-4.56 4.71-9.21 5.53-14.26 2.21-13.63-7-26.11-12.24-38.88-2.27-5.52-3.21-13.14 1.85-16.31 3.23-2 7.57-1.09 10.81.92s5.81 4.95 8.86 7.23c10.58 7.91 27.08 6.31 35.94-3.48 7.59-8.37 9.17-20.55 13.72-30.87zM686 0c.63.76 1.23 1.53 1.81 2.32a53 53 0 019.32 22.22A115.77 115.77 0 00692.76 0zM697.48 32.81a35.47 35.47 0 00-.35-8.26q.3 4.16.35 8.26z" fill="#ff7bac"/><path d="M697.79 32.17a177.76 177.76 0 01-42.17 116.56c-9.55 11.18-21 21.43-35 25.93a52.39 52.39 0 01-44.32-6.12c-10.8-7.15-16.52-17.26-21.23-28.95-3.78-9.39-9.4-17.8-13.53-27 8.61 5.68 16.16 10.7 22.4 18.9 4.48 5.9 8.23 12.33 12.81 18.15s10.14 11.14 17 13.83 15.32 2.31 21.08-2.34 7.66-14 3-19.78c8.28-1.67 16.63-3.36 24.37-6.72s14.94-8.58 19.19-15.87 5.13-16.85.89-24.15c-2.88-5-7.94-8.84-9-14.47-1.34-7.24 4.47-13.64 9.81-18.71 10.53-9.96 24.26-19.35 34.7-29.26z" fill="#9e005d"/></g><g data-name="Tuna 3"><path d="M363.51 0c1.75 9.21 8.51 19.4 12 26.32a385.22 385.22 0 0049 74.4 381.55 381.55 0 0033.8 35.38c9.31 8.56 19.25 16.78 31 21.59s25.51 5.79 36.77 0c17.17-8.82 23.56-30 25.93-49.16A244.22 244.22 0 00540.58 0z" fill="#d91a60"/><path d="M533.17 0a67.09 67.09 0 011.37 19c-1.1 11.27-6.57 21.69-13.24 30.84s-14.6 17.32-21.54 26.26c-4.4 5.68-8.61 12.74-6.65 19.65s8.91 10.58 15.39 13.3 13.65 5.57 16.92 11.79c3.54 6.73.8 15.72-5.27 20.29s-14.64 5-21.72 2.26-12.53-8.09-19.36-11-16.33-1.92-19.69 4.72c9.31 8.56 19.25 16.78 30.95 21.59s25.52 5.79 36.77 0c17.18-8.82 23.56-30 25.93-49.16A244.32 244.32 0 00541.29 0z" fill="#9e005d"/><path d="M405.74 41.82c0-3.49 1.2-6.88 1.51-10.36.79-8.72-4-16.8-7.69-24.75A51.23 51.23 0 01397 0h-32.72c1.5 9.41 8.55 20 12.14 27.12a384.94 384.94 0 0049 74.39 381.61 381.61 0 0033.8 35.38c-11.74-26.44-25.35-54.09-43.83-76.34-4.58-5.55-9.62-11.55-9.65-18.73z" fill="#ff7bac"/></g><g data-name="Tuna 5"><path d="M146.23 128.21c6-14.26 21.18-23.41 36.6-24.65s30.8 4.56 43.45 13.47 22.89 20.78 32.41 33c8.9 11.39 17.46 23.5 21.32 37.43s2.26 30.14-7.4 40.89c-7.47 8.29-18.61 12.3-29.61 14.55a130.08 130.08 0 01-85.57-12C140.78 222.25 111 200 114 177.8c1.66-12.11 14.2-12.7 21.19-20.32 7.18-7.83 7.09-19.87 11.04-29.27z" fill="#d91a60"/><path d="M262 195.7a51.08 51.08 0 002.6-13.14c.07-2.81 2.68-6.12 5.55-6.48 3.43-.44 4.77 4.22 7.35 6.09 4 2.88 3.18 5.56 3.95 9.84a52.41 52.41 0 01.76 13.11c-.6 8.45-3.5 16.84-9.22 23.2-7.47 8.32-18.62 12.32-29.58 14.58a130.08 130.08 0 01-85.57-12c6.65-5.67 15.39-9.38 23.91-7.46 2.55.57 5 1.5 7.65 1.69s5.48-.51 7.06-2.59c2.15-2.85 1-7.08-1.21-9.85s-5.41-4.63-8-7.13-4.53-6.15-3.44-9.55c4.09-3.83 10.7-3.22 15.84-1 6.58 2.85 12.19 7.89 19.79 8.21a11.29 11.29 0 007.3-2.13c5.17-3.94 4-10 1.89-14.89-2-4.59-4.68-9.07-3.69-14.31a7.34 7.34 0 013.72-5.22c4.41-2.24 8.41 1.29 10.06 5.17 1.34 3.17 1.63 6.71 2.83 9.94 2.6 6.97 13.09 13.68 20.45 13.92z" fill="#9e005d"/><path d="M241.88 243.36a130 130 0 01-85.58-12c-16.68-8.7-46.48-31-43.45-53.15 1.66-12.11 14.19-12.7 21.18-20.32 7.19-7.83 7.09-19.87 11-29.27 7 5.35 7 15.72 5.3 24.34s-5.25 17.09-4.53 25.85c.92 11.11 8.53 20.51 16.73 28.08 21.12 19.51 50.83 33.29 79.35 36.47z" fill="#ff7bac"/></g><g><path d="M400.77 450.49c-1.26-1-2.47-2-3.69-3.11s-2.25-2.3-3.34-3.49-2-2.53-3-3.8L388 436c-.79-1.41-1.57-2.83-2.31-4.27s-1.28-3-1.88-4.48l-1.52-4.61L381 418a82.64 82.64 0 01-2.43-19.07A74.62 74.62 0 01381 380l.39.08a78.24 78.24 0 00-.75 18.77 79.76 79.76 0 003.51 18.28l1.55 4.38 1.83 4.26 2 4.18c.72 1.36 1.39 2.75 2.06 4.14l2.16 4.09c.77 1.34 1.58 2.66 2.32 4s1.66 2.64 2.48 4 1.75 2.61 2.58 4zM401 214.74c-1 1.53-2.12 3-3.19 4.41s-2 3-3 4.47-1.83 3-2.75 4.57l-2.51 4.68c-.75 1.6-1.51 3.2-2.31 4.77s-1.41 3.24-2.15 4.85l-1.91 5-1.55 5.1a78.29 78.29 0 00-2.58 21.2 74.58 74.58 0 003.23 21.21l-.38.13a72.85 72.85 0 01-4.9-21.29 81.11 81.11 0 011.46-22l1.27-5.4 1.61-5.34c.66-1.73 1.35-3.47 2.07-5.18s1.7-3.31 2.58-5l3.05-4.67c1.16-1.46 2.29-2.94 3.47-4.36s2.57-2.67 3.87-4 2.83-2.39 4.29-3.5z" fill="#fcee21"/><path d="M402 447.69a81 81 0 00-17.86 12.47 71.06 71.06 0 00-13.66 16.68 63.77 63.77 0 00-6.95 42.36l-.29.06a62.69 62.69 0 015.13-43.56 56.79 56.79 0 0113.78-17.79 51.55 51.55 0 0119.74-10.5z" fill="#fcee21"/><path d="M285.78 319.82a31 31 0 01-9.11-9 36.83 36.83 0 01-5.09-11.8 44 44 0 01-1.37-12.71 39.59 39.59 0 012.57-12.43l.15.19-1.34.11v-.2l1.33-.19h.22l-.07.22a39.3 39.3 0 00-1.79 12.35 42.27 42.27 0 001.89 12.25 53.57 53.57 0 005.18 11.18 55.81 55.81 0 007.57 9.87z" fill="#d9e021"/><path d="M287.35 319.71c-7.14 1.48-14.21 2.84-21.23 4.45s-14.08 3-21 5a219.83 219.83 0 00-40.12 16.2l-.15-.27a195.36 195.36 0 0139.55-18.19 144.19 144.19 0 0121.13-5.69 114.61 114.61 0 0121.79-1.8z" fill="#d9e021"/><path d="M284.57 319.28c-1.52 3.82-3.08 7.55-4.47 11.34s-2.91 7.54-4 11.43a97.76 97.76 0 00-2.67 11.86 96.4 96.4 0 00-1.25 12.14h-.2a96.65 96.65 0 01.46-12.26 98.18 98.18 0 012.12-12.14 67.61 67.61 0 013.72-11.77 54.36 54.36 0 016.16-10.69zM195.72 315.49a127 127 0 01-17-11.88 169.31 169.31 0 01-15-14.33q-7.17-7.48-13.79-15.46c-4.36-5.35-8.56-10.83-12.49-16.5l.24-.18c4.31 5.38 8.74 10.64 13.39 15.69s9.39 10 14.35 14.75 10.23 9.12 15.27 13.75 10.2 9.16 15.23 13.92zM197.27 318.41a149.48 149.48 0 00-20 8.1 126.42 126.42 0 00-18.5 10.9A98.31 98.31 0 00142.89 352a94.29 94.29 0 00-12.4 17.77l-.27-.13a95.27 95.27 0 0111.52-18.6 100.16 100.16 0 0115.54-15.54A83.09 83.09 0 01176 323.79a69.79 69.79 0 0121.24-5.67zM476.42 264.82a25.68 25.68 0 01.74-4.64 42.71 42.71 0 011.3-4.39 27.87 27.87 0 011.86-4.13c.74-1.33 1.5-2.64 2.19-4q2.07-4 4.22-8c1.48-2.65 2.9-5.32 4.41-7.95l.37.17c-.94 2.89-2 5.74-3 8.62s-2.06 5.7-3.13 8.53c-.54 1.41-1 2.86-1.5 4.3a28.85 28.85 0 01-1.82 4.15 40.1 40.1 0 01-2.38 3.89 25.62 25.62 0 01-2.94 3.64z" fill="#d9e021"/><path d="M477.78 265.32a78.66 78.66 0 01-9.74-1.11c-3.21-.52-6.35-1.44-9.51-2.19l-9.5-2.28-9.47-2.39v-.19l9.64 1.6 9.61 1.69c3.21.58 6.44 1 9.6 1.8a76.59 76.59 0 019.37 2.87zM480.67 360.07c-8.94-3.69-17.84-7.31-26.87-10.55s-18.06-6.51-27.33-9a262 262 0 00-28.16-6.13 258.3 258.3 0 00-28.72-3.11v-.3a249.17 249.17 0 0157.48 7.22 199.15 199.15 0 0127.79 8.57 164.56 164.56 0 0125.94 13.08zM722.59 348c2.22 6 4.24 12 6.45 18s4.17 11.94 6.67 17.77A190 190 0 00744 400.8c3 5.59 6.34 11 9.88 16.32l-.24.17a178.76 178.76 0 01-10.94-15.74q-5-8.19-9.18-16.88a124.35 124.35 0 01-7.32-17.81 97 97 0 01-3.9-18.86zM842.64 542a15.35 15.35 0 012.93 1.24 23.26 23.26 0 012.63 1.59 35 35 0 014.51 4.1c1.49 1.39 3 2.79 4.42 4.22s2.91 2.86 4.32 4.33l-.19.23c-1.72-1.1-3.39-2.27-5.08-3.4s-3.35-2.33-5-3.53a35.69 35.69 0 01-4.9-3.63 26.32 26.32 0 01-2.06-2.28 15.44 15.44 0 01-1.78-2.64zM791.35 453a81.78 81.78 0 017.69-9.69 106 106 0 019-8.51q4.65-4.06 9.51-7.88c3.25-2.52 6.59-4.92 10-7.24l.5-.34-.26.53-.8 1.65-.18-.08.69-1.7.24.19c-3.24 2.52-6.39 5.14-9.49 7.82s-6.13 5.42-9.07 8.27-5.72 5.84-8.67 8.66-5.87 5.7-9 8.45zM786.64 456.45a76.34 76.34 0 008.12 9.71c.76.71 1.51 1.42 2.24 2.16s1.54 1.38 2.3 2.1l2.38 2 2.54 1.84a44.8 44.8 0 0011.32 5.45 43.59 43.59 0 0012.5 2.14h.56l-.36.39-1.24 1.4-.23-.19 1.13-1.5.2.4a41.92 41.92 0 01-12.95-1.09 47.55 47.55 0 01-12.19-4.88l-2.83-1.72-2.72-1.91c-.85-.7-1.7-1.42-2.52-2.17s-1.53-1.61-2.27-2.43a30.17 30.17 0 01-6.21-11.58zM596.32 247.13c-3.44-3.2-6.8-6.41-10.27-9.49s-6.88-6.22-10.51-9.12a133.42 133.42 0 00-11.34-8.11 139.6 139.6 0 00-12.12-6.95l.22-.24 1.26 2.39-.17.1-1.39-2.33-.28-.46.51.22a125.81 125.81 0 0112.53 6.35 136.36 136.36 0 0111.79 7.71 89.88 89.88 0 0110.85 9 75.35 75.35 0 019.07 10.8zM674 529.12a71.53 71.53 0 00-11.32 2.39 60.49 60.49 0 00-10.68 4.16 46.45 46.45 0 00-9.42 6.64 43 43 0 00-7.53 8.83l-.17-.1a44.09 44.09 0 017-9.45 47.27 47.27 0 019.33-7.31 38.5 38.5 0 0110.94-4.71 32.17 32.17 0 0111.84-.65zM673.37 531c-.31 2.34-.67 4.56-.9 6.79s-.63 4.44-.65 6.71a36.76 36.76 0 00.51 6.77 39.75 39.75 0 001.68 6.65l-.18.08a34.87 34.87 0 01-2.47-6.52 37.65 37.65 0 01-1.14-6.94 24.66 24.66 0 01.27-7.07 18.94 18.94 0 012.69-6.54zM636.49 419.11a64.08 64.08 0 01-11-22.78 70.08 70.08 0 01-1.66-25.39 77.35 77.35 0 0120.8-45.27l.23.21a78.76 78.76 0 00-18.64 45.26 87.92 87.92 0 002.18 24.48 99.75 99.75 0 008.34 23.38zM534.09 519.42l-9.88-8.36c-3.31-2.73-6.56-5.53-10-8.17s-6.95-5.08-10.59-7.38-7.37-4.48-11.2-6.46l.23-.36 3 2.7-.13.15-3.1-2.54-1.32-1 1.55.7c4 1.78 7.84 3.71 11.6 5.88s7.44 4.49 11 7a83 83 0 0110.23 8.09 72.92 72.92 0 018.75 9.67zM534.5 524.21c-1.79 2.12-3.68 4-5.54 6s-3.88 3.71-5.73 5.69-3.61 4-5.27 6.15-3.27 4.32-4.79 6.57l-.18-.1a79.6 79.6 0 014.16-7.06c1.52-2.28 3.15-4.48 4.88-6.62a46.42 46.42 0 015.56-6.08 33.49 33.49 0 016.78-4.7zM654.72 189.25a62 62 0 019.09-5.79c3.13-1.73 6.52-2.9 9.79-4.31l9.86-4.17c3.31-1.34 6.6-2.72 9.92-4l.13.27c-3.12 1.74-6.27 3.41-9.41 5.12l-9.47 5c-3.17 1.64-6.22 3.52-9.54 4.85a62.91 62.91 0 01-10.24 3.35zM172.89 476.63A114.26 114.26 0 00126.25 506a96.58 96.58 0 00-15.79 22.89 88.49 88.49 0 00-8.46 26.62h-.3a89.6 89.6 0 017.38-27.22 98.42 98.42 0 0115.37-23.85 87.44 87.44 0 0121.68-18.46 74.46 74.46 0 0126.68-9.6zM172.54 471.2a38.72 38.72 0 01-7.7-8.61 50.83 50.83 0 01-5-10.39 85.53 85.53 0 01-3.42-11 77.64 77.64 0 01-1.72-11.31h.29a87.94 87.94 0 002.88 10.94 81.28 81.28 0 004.13 10.41c1.61 3.39 3.66 6.51 5.39 9.8s3.63 6.52 5.38 10zM172.88 472.75a114.5 114.5 0 01-17.43 3.6 164.17 164.17 0 01-17.74 1.09q-8.88.24-17.75.05c-5.91-.18-11.82-.46-17.71-1v-.3c5.9 0 11.8 0 17.68-.23s11.77-.49 17.64-.95 11.69-1.29 17.55-1.68 11.74-.83 17.69-.91zM249.66 440.69a87.52 87.52 0 01-16.13-14.94 102.9 102.9 0 01-12.15-18.39 127 127 0 01-8.76-20.18 39.93 39.93 0 01-1.93-10.89 19.14 19.14 0 012.73-10.59l.26.16a18.5 18.5 0 00-2.09 10.39A39.36 39.36 0 00214 386.7c1.23 3.37 2.75 6.68 4.29 9.94s3.28 6.44 5.14 9.53 3.81 6.13 5.94 9 4.26 5.8 6.45 8.66 4.48 5.64 6.8 8.42 4.77 5.45 7.2 8.19zM254.29 439.87a81 81 0 0112.27-20.45 95.6 95.6 0 0117.49-16.32 115.3 115.3 0 0120.47-12.23 110.15 110.15 0 0122.53-7.49l.07.29a109.71 109.71 0 00-21.94 8.55A113.81 113.81 0 00285.52 405a144.91 144.91 0 00-16.68 16.37A171.62 171.62 0 00254.55 440zM270.84 526.17a48.82 48.82 0 014.93 7.4c1.46 2.54 2.41 5.33 3.64 8s2.44 5.34 3.71 8 2.54 5.3 3.8 8l-.26.15c-1.68-2.42-3.26-4.91-4.85-7.39s-3.06-5-4.54-7.6a60.88 60.88 0 01-4.2-7.79 38.18 38.18 0 01-2.5-8.58zM815.15 324.38a152.56 152.56 0 0114.18-8.26c2.41-1.27 4.86-2.47 7.35-3.58l7.49-3.29 14.93-6.69 15-6.58 1.58-.7-1.27 1.14-2.41 2.15-.21-.21L874 296l.31.44L859.8 304l-14.55 7.47-7.25 3.81q-3.65 1.86-7.39 3.49a153.7 153.7 0 01-15.32 5.88zM815.85 326.56a123.18 123.18 0 0117.48 5.62 174.33 174.33 0 0116.53 8q8.13 4.23 16 8.85c5.25 3.12 10.44 6.33 15.51 9.73l-.16.25c-5.31-3-10.65-5.91-16.08-8.67s-10.86-5.47-16.37-8-11.19-4.74-16.67-7.36-11-5.17-16.39-8.09z" fill="#d9e021"/></g></g></g></symbol><symbol viewBox="0 0 50 50" id="leaderboard-down" xmlns="http://www.w3.org/2000/svg"><path opacity=".28" d="M2.71 42.5V13.33H40V46H5.58" data-name="Welcome Page Web"/><g data-name="Sprite buttons"><path fill="#d62d7a" d="M8.03 37.19V9.31H2.72V42.5M2.72 9.31h1.31V8"/><path fill="#d62d7a" d="M8.03 37.19v5.31h-5.4"/><path d="M37.19 41.16l-1.37 1.34H8v-5.31h29.22" fill="#d62d7a"/><path fill="#d62d7a" d="M4.03 8h33.19v33.19H4.03z"/><path data-name="Icon ionic-ios-trophy" d="M31.21 16.13h-3.69V15a.89.89 0 00-.89-.89h-12.5a.89.89 0 00-.9.89v1.12H9.55a.78.78 0 00-.78.78A8.74 8.74 0 0010 22a4.5 4.5 0 003.14 2.25.46.46 0 01.35.28 6 6 0 002.85 2.91 10.8 10.8 0 002.89 1.21.43.43 0 01.34.43v4.51a.45.45 0 01-.44.45h-3.64a.8.8 0 00-.8.74.78.78 0 00.74.82h9.84a.8.8 0 00.81-.74.79.79 0 00-.75-.82h-3.72a.46.46 0 01-.45-.45V29a.47.47 0 01.35-.44 10.77 10.77 0 002.89-1.2 6 6 0 002.85-2.92.45.45 0 01.35-.27A4.53 4.53 0 0030.74 22 9 9 0 0032 16.91a.78.78 0 00-.79-.78zm-18 6.17a.22.22 0 01-.22.23h-.08a3.24 3.24 0 01-1.71-1.61 5.82 5.82 0 01-.84-2.72.45.45 0 01.41-.49h2a.45.45 0 01.44.45zm16.3-1.4a3.24 3.24 0 01-1.71 1.61.22.22 0 01-.29-.13v-4.24a.45.45 0 01.45-.45h2a.45.45 0 01.45.45 5.86 5.86 0 01-.88 2.76z" fill="#d62d7a"/><path fill="#d62d7a" d="M8.03 37.19V9.31H2.72V42.5M2.72 9.31h1.31V8"/><path fill="#871242" d="M8.03 37.19v5.31h-5.4"/><path d="M37.19 41.16l-1.37 1.34H8v-5.31h29.22" fill="#871242"/><path fill="#d91a60" d="M4.03 8h33.19v33.19H4.03z"/><path data-name="Icon ionic-ios-trophy" d="M31.21 16.13h-3.69V15a.89.89 0 00-.89-.89h-12.5a.89.89 0 00-.9.89v1.12H9.55a.78.78 0 00-.78.78h0A8.74 8.74 0 0010 22a4.5 4.5 0 003.14 2.25.46.46 0 01.35.28 6 6 0 002.85 2.91 10.8 10.8 0 002.89 1.21.43.43 0 01.34.43v4.51a.45.45 0 01-.44.45h-3.64a.8.8 0 00-.8.74.78.78 0 00.74.82h9.84a.8.8 0 00.81-.74.79.79 0 00-.75-.82h-3.72a.46.46 0 01-.45-.45V29a.47.47 0 01.35-.44 10.77 10.77 0 002.89-1.2 6 6 0 002.85-2.92.45.45 0 01.35-.27A4.53 4.53 0 0030.74 22 9 9 0 0032 16.91h0a.78.78 0 00-.79-.78zm-18 6.17a.22.22 0 01-.22.23h-.08a3.24 3.24 0 01-1.71-1.61 5.82 5.82 0 01-.84-2.72.45.45 0 01.41-.49h2a.45.45 0 01.44.45zm16.3-1.4a3.24 3.24 0 01-1.71 1.61.22.22 0 01-.29-.13v-4.24a.45.45 0 01.45-.45h2a.45.45 0 01.45.45.08.08 0 010 0 5.86 5.86 0 01-.88 2.76z" fill="#c7b299" stroke="#c7b299" stroke-miterlimit="10"/></g></symbol><symbol viewBox="0 0 50 50" id="leaderboard-up" xmlns="http://www.w3.org/2000/svg"><path opacity=".28" d="M3.01 43.5V14.33h43.17V47H6.33" data-name="Welcome Page Web"/><g data-name="Sprite buttons"><path fill="#d62d7a" d="M8.33 38.19V10.31H3.02V43.5M3.02 10.31h5.31V5"/><path fill="#d62d7a" d="M8.33 38.19v5.31H2.94M36.13 43.5H8.33v-5.31h33.19M8.33 5h33.19v33.19H8.33z"/><path data-name="Icon ionic-ios-trophy" d="M36.21 14.13h-3.69V13a.89.89 0 00-.89-.89h-12.5a.89.89 0 00-.9.89v1.12h-3.68a.78.78 0 00-.78.78A8.74 8.74 0 0015 20a4.5 4.5 0 003.14 2.25.46.46 0 01.35.28 6 6 0 002.85 2.91 10.8 10.8 0 002.89 1.21.43.43 0 01.34.43v4.51a.45.45 0 01-.44.45h-3.64a.8.8 0 00-.8.74.78.78 0 00.74.82h9.84a.8.8 0 00.81-.74.79.79 0 00-.75-.82h-3.72a.46.46 0 01-.45-.45V27a.47.47 0 01.35-.44 10.77 10.77 0 002.89-1.2 6 6 0 002.85-2.92.45.45 0 01.35-.27A4.53 4.53 0 0035.74 20 9 9 0 0037 14.91a.78.78 0 00-.79-.78zm-18 6.17a.22.22 0 01-.22.23h-.08a3.24 3.24 0 01-1.71-1.61 5.82 5.82 0 01-.84-2.72.45.45 0 01.41-.49h2a.45.45 0 01.44.45zm16.3-1.4a3.24 3.24 0 01-1.71 1.61.22.22 0 01-.29-.13v-4.24a.45.45 0 01.45-.45h2a.45.45 0 01.45.45 5.86 5.86 0 01-.88 2.76z" fill="#d62d7a"/><path fill="#d62d7a" d="M8.33 38.19V10.31H3.02V43.5M3.02 10.31h5.31V5"/><path fill="#871242" d="M8.33 38.19v5.31H2.94M36.13 43.5H8.33v-5.31h33.19"/><path fill="#d91a60" d="M8.33 5h33.19v33.19H8.33z"/><path data-name="Icon ionic-ios-trophy" d="M36.21 14.13h-3.69V13a.89.89 0 00-.89-.89h-12.5a.89.89 0 00-.9.89v1.12h-3.68a.78.78 0 00-.78.78h0A8.74 8.74 0 0015 20a4.5 4.5 0 003.14 2.25.46.46 0 01.35.28 6 6 0 002.85 2.91 10.8 10.8 0 002.89 1.21.43.43 0 01.34.43v4.51a.45.45 0 01-.44.45h-3.64a.8.8 0 00-.8.74.78.78 0 00.74.82h9.84a.8.8 0 00.81-.74.79.79 0 00-.75-.82h-3.72a.46.46 0 01-.45-.45V27a.47.47 0 01.35-.44 10.77 10.77 0 002.89-1.2 6 6 0 002.85-2.92.45.45 0 01.35-.27A4.53 4.53 0 0035.74 20 9 9 0 0037 14.91h0a.78.78 0 00-.79-.78zm-18 6.17a.22.22 0 01-.22.23h-.08a3.24 3.24 0 01-1.71-1.61 5.82 5.82 0 01-.84-2.72.45.45 0 01.41-.49h2a.45.45 0 01.44.45zm16.3-1.4a3.24 3.24 0 01-1.71 1.61.22.22 0 01-.29-.13v-4.24a.45.45 0 01.45-.45h2a.45.45 0 01.45.45.08.08 0 010 0 5.86 5.86 0 01-.88 2.76z" fill="#c7b299" stroke="#c7b299" stroke-miterlimit="10"/></g></symbol><symbol viewBox="0 0 50 50" id="logo-floating" xmlns="http://www.w3.org/2000/svg"><g data-name="Layer 23"><path opacity=".28" d="M50.05 14.54V50.3H7.66V10.25h39.13"/><path fill="#a59481" d="M44.11 38.6v-33h-44v38.35h42.17"/><path fill="#c7b299" d="M2.11.25h42V38.6h-42z"/><path fill="#ddc6ac" d="M2.11.25l-2 5.35v38.35l2-5.35V.25z"/><g data-name="Logo M"><g data-name="Nopal Logo Sin M"><g data-name="Tuna 6"><path d="M11.35 9.74c.6 1.4 1.94 2.17 3 1.72s1.41-2 .81-3.34a4.83 4.83 0 00-1.71-2.27c-.2-.09-.6.25-1.27.55s-1.15.26-1.27.54c-.46 1.11.4 2.7.44 2.8z" fill="#ff7bac"/><path d="M11.5 10.15c.6 1.4 1.94 2.17 3 1.72s1.41-1.94.81-3.34c-.08-.2-.76-1.82-1.71-2.26-.2-.1-.6.24-1.27.54s-1.15.26-1.27.54c-.46 1.11.4 2.71.44 2.8z" fill="#d91a60"/></g><g data-name="Tuna 5"><path d="M16 6c.37 1.48 1.57 2.45 2.68 2.17S20.37 6.45 20 5a4.85 4.85 0 00-1.34-2.51c-.18-.12-.63.15-1.34.34s-1.17.07-1.33.33C15.36 4.17 16 5.88 16 6z" fill="#ff7bac"/><path d="M16.08 6.41c.37 1.48 1.57 2.45 2.67 2.17s1.7-1.7 1.33-3.17a4.78 4.78 0 00-1.34-2.51c-.18-.12-.62.15-1.33.34s-1.18.07-1.34.34c-.62 1.02-.02 2.73.01 2.83z" fill="#d91a60"/></g><g data-name="Tuna 7"><path d="M7.82 15.09c.87 1.25 2.34 1.72 3.27 1.07s1-2.2.11-3.44c-.13-.18-1.12-1.62-2.15-1.86-.21 0-.53.36-1.12.79s-1.08.49-1.13.79c-.22 1.19.96 2.56 1.02 2.65z" fill="#ff7bac"/><path d="M8.05 15.46c.88 1.25 2.34 1.73 3.28 1.07s1-2.2.1-3.44c-.12-.18-1.12-1.62-2.14-1.86-.22-.05-.54.36-1.13.79s-1.07.49-1.13.79C6.81 14 8 15.38 8.05 15.46z" fill="#d91a60"/></g><path d="M36.77 21.12c0 5.59-1.38 5.85-4.82 10-3 3.55-3.44 4.13-8.61 4.13-5.48 0-5-.56-8.61-4.13s-5-4.64-4.82-10C10.13 14.76 15.26 7 23.34 7c7.41 0 13.43 6.32 13.43 14.12z" fill="#324001"/><path d="M35.39 21.12c0 5.59-1.38 5.85-4.82 10-3 3.55-3.43 4.13-8.61 4.13-5.48 0-5-.56-8.61-4.13s-5-4.64-4.82-10C8.75 14.76 13.88 7 22 7c7.38 0 13.39 6.32 13.39 14.12z" fill="#7c8c03"/><g data-name="Tuna 1"><path d="M38.56 15.09c-.87 1.25-2.34 1.72-3.27 1.07s-1-2.2-.11-3.44c.13-.18 1.12-1.62 2.15-1.86.21 0 .53.36 1.12.79s1.08.49 1.13.79c.22 1.19-.96 2.56-1.02 2.65z" fill="#ff7bac"/><path d="M39.35 12.81c-.06-.3-.64-.43-1.13-.79s-.91-.84-1.13-.79c-1 .24-2 1.68-2.14 1.86a3.09 3.09 0 00-.58 2.32 2.89 2.89 0 01.86 1.21 2.55 2.55 0 003.1-1.16c.06-.08 1.24-1.46 1.02-2.65z" fill="#d91a60"/></g><g data-name="Tuna 2"><path d="M35.67 9.74c-.6 1.4-1.94 2.17-3 1.72s-1.42-2-.82-3.34c.09-.21.76-1.82 1.72-2.27.19-.09.59.25 1.26.55s1.15.26 1.27.54c.48 1.11-.39 2.7-.43 2.8z" fill="#ff7bac"/><path d="M36 7.35c-.12-.28-.72-.29-1.27-.54s-1.07-.64-1.26-.54c-1 .44-1.63 2.06-1.72 2.26a3.09 3.09 0 00-.09 2.36A2.79 2.79 0 0132.82 12a2.61 2.61 0 002.7-1.8c.04-.14.91-1.74.48-2.85z" fill="#d91a60"/></g><g data-name="Tuna 3"><path d="M30.93 6c-.38 1.48-1.57 2.45-2.68 2.17S26.55 6.45 26.92 5a4.85 4.85 0 011.34-2.51c.18-.12.63.15 1.33.34s1.18.07 1.34.33c.63 1.01.07 2.72 0 2.84z" fill="#ff7bac"/><path d="M30.85 3.58c-.16-.27-.76-.18-1.34-.34s-1.16-.46-1.33-.34a4.89 4.89 0 00-1.35 2.51 2.94 2.94 0 00.54 2.68 3 3 0 011.51.5 2.82 2.82 0 002-2.18c-.01-.1.59-1.81-.03-2.83z" fill="#d91a60"/></g><g data-name="Tuna 4"><path d="M25.44 4.1c0 1.52-.93 2.76-2.07 2.76S21.3 5.62 21.3 4.1a4.87 4.87 0 01.7-2.75c.15-.17.65 0 1.38 0s1.16-.22 1.38 0c.84.84.68 2.65.68 2.75z" fill="#ff7bac"/><path d="M22.68 7.11a4.22 4.22 0 01.64-.06 3.43 3.43 0 01.74.08 2.79 2.79 0 001.4-2.59c0-.11.17-1.91-.69-2.76-.22-.21-.77 0-1.38 0s-1.23-.16-1.37 0a4.83 4.83 0 00-.69 2.76 2.82 2.82 0 001.35 2.57z" fill="#d91a60"/></g><ellipse cx="13.64" cy="15.6" rx=".42" ry=".33" transform="rotate(-66.4 13.648 15.599)" fill="#4d4d4d" stroke="#4d4d4d" stroke-miterlimit="10" stroke-width=".5"/><ellipse cx="14.49" cy="31.43" rx=".27" ry=".37" transform="rotate(-20.83 14.498 31.433)" fill="#4d4d4d" stroke="#4d4d4d" stroke-miterlimit="10" stroke-width=".5"/><ellipse cx="17.5" cy="27.81" rx=".21" ry=".26" transform="rotate(-13.56 17.508 27.8)" fill="#4d4d4d" stroke="#4d4d4d" stroke-miterlimit="10" stroke-width=".5"/><ellipse cx="26.83" cy="29.45" rx=".29" ry=".35" transform="rotate(-6.22 26.829 29.424)" fill="#4d4d4d" stroke="#4d4d4d" stroke-miterlimit="10" stroke-width=".5"/><ellipse cx="22.73" cy="24.52" rx=".22" ry=".31" fill="#4d4d4d" stroke="#4d4d4d" stroke-miterlimit="10" stroke-width=".5"/><ellipse cx="22.11" cy="30.46" rx=".25" ry=".3" transform="translate(-.63 .47)" fill="#4d4d4d" stroke="#4d4d4d" stroke-miterlimit="10" stroke-width=".5"/><ellipse cx="27.82" cy="24.77" rx=".23" ry=".19" transform="matrix(.08 -1 1 .08 .99 50.6)" fill="#4d4d4d" stroke="#4d4d4d" stroke-miterlimit="10" stroke-width=".5"/><ellipse cx="26.43" cy="20.05" rx=".25" ry=".18" transform="rotate(-84.34 26.422 20.054)" fill="#4d4d4d" stroke="#4d4d4d" stroke-miterlimit="10" stroke-width=".5"/><ellipse cx="29.68" cy="16.85" rx=".23" ry=".27" transform="rotate(-1.11 29.777 16.807)" fill="#4d4d4d" stroke="#4d4d4d" stroke-miterlimit="10" stroke-width=".5"/><ellipse cx="32.08" cy="21.44" rx=".21" ry=".26" fill="#4d4d4d" stroke="#4d4d4d" stroke-miterlimit="10" stroke-width=".5"/><ellipse cx="33.99" cy="25.28" rx=".25" ry=".46" transform="rotate(-4.65 34.004 25.31)" fill="#4d4d4d" stroke="#4d4d4d" stroke-miterlimit="10" stroke-width=".5"/><ellipse cx="33.06" cy="15.91" rx=".19" ry=".45" transform="rotate(-20.5 33.044 15.912)" fill="#4d4d4d" stroke="#4d4d4d" stroke-miterlimit="10" stroke-width=".5"/><ellipse cx="24.98" cy="12.39" rx=".18" ry=".21" transform="rotate(-65.63 24.975 12.394)" fill="#4d4d4d" stroke="#4d4d4d" stroke-miterlimit="10" stroke-width=".5"/><ellipse cx="27.22" cy="9.99" rx=".21" ry=".34" transform="rotate(-67.84 27.211 9.985)" fill="#4d4d4d" stroke="#4d4d4d" stroke-miterlimit="10" stroke-width=".5"/><ellipse cx="13.1" cy="24.64" rx=".34" ry=".25" transform="rotate(-80.44 13.1 24.646)" fill="#4d4d4d" stroke="#4d4d4d" stroke-miterlimit="10" stroke-width=".5"/><ellipse cx="12.39" cy="20.89" rx=".34" ry=".25" transform="rotate(-80.44 12.395 20.886)" fill="#4d4d4d" stroke="#4d4d4d" stroke-miterlimit="10" stroke-width=".5"/><ellipse cx="17.89" cy="21.28" rx=".29" ry=".23" transform="rotate(-74.8 17.891 21.285)" fill="#4d4d4d" stroke="#4d4d4d" stroke-miterlimit="10" stroke-width=".5"/><ellipse cx="20.77" cy="17.46" rx=".39" ry=".25" transform="rotate(-84.72 20.77 17.453)" fill="#4d4d4d" stroke="#4d4d4d" stroke-miterlimit="10" stroke-width=".5"/><ellipse cx="9.51" cy="22.4" rx=".29" ry=".59" transform="rotate(-1.79 9.577 22.24)" fill="#4d4d4d" stroke="#4d4d4d" stroke-miterlimit="10" stroke-width=".5"/><ellipse cx="10.4" cy="15.52" rx=".58" ry=".27" transform="rotate(-79.22 10.398 15.517)" fill="#4d4d4d" stroke="#4d4d4d" stroke-miterlimit="10" stroke-width=".5"/><ellipse cx="17.9" cy="11.05" rx=".24" ry=".29" transform="rotate(-6.75 17.898 11.01)" fill="#4d4d4d" stroke="#4d4d4d" stroke-miterlimit="10" stroke-width=".5"/><ellipse cx="20.62" cy="13.27" rx=".2" ry=".23" transform="rotate(-1.4 20.711 13.35)" fill="#4d4d4d" stroke="#4d4d4d" stroke-miterlimit="10" stroke-width=".5"/><g fill="#fcee21"><path d="M13.58 15.57a1.09 1.09 0 01-.49-.19 1.24 1.24 0 01-.29-.38c-.18-.25-.34-.51-.5-.78.27.18.53.36.78.56a1.48 1.48 0 01.36.3.87.87 0 01.14.47zM20.65 17.33a1.49 1.49 0 01-.81.34 3.2 3.2 0 01-.82 0 1.88 1.88 0 00-1.45.45 1.93 1.93 0 011.43-.88 3.9 3.9 0 01.82-.07c.27 0 .52 0 .81.12zM9.48 22.42a3.4 3.4 0 01-.4.91 5.4 5.4 0 01-.62.74c-.42.48-.85 1-1.3 1.43.33-.56.67-1.11 1-1.64a4.49 4.49 0 01.54-.8 3.39 3.39 0 01.76-.64zM10.23 15.34a1.22 1.22 0 01-.54.13 1.71 1.71 0 01-.49-.14l-1-.36v-.05h1a1.4 1.4 0 01.5.05 1.1 1.1 0 01.46.31zM22.67 24.37a1.42 1.42 0 01-.42-.43 1.61 1.61 0 01-.15-.53c-.1-.36-.18-.72-.25-1.09q.3.48.57 1a1.89 1.89 0 01.25.49 1.36 1.36 0 010 .6zM22.64 24.72a1.6 1.6 0 010 .62 1.79 1.79 0 01-.27.51c-.18.34-.39.67-.6 1h-.05c.08-.38.18-.76.28-1.13a2.16 2.16 0 01.18-.56 1.38 1.38 0 01.43-.44zM34 25.19a3.78 3.78 0 011-.51 5.65 5.65 0 011.09-.19 16.12 16.12 0 012.19-.15v.05c-.72.15-1.43.31-2.13.49a10.09 10.09 0 01-1 .29 5.76 5.76 0 01-1.11.07zM27 10a2.87 2.87 0 01-.88 0 3.78 3.78 0 01-.79-.3c-.53-.2-1.05-.42-1.57-.65V9c.56.09 1.12.2 1.67.32a4.57 4.57 0 01.83.2 2.92 2.92 0 01.74.46zM33.09 15.77a1 1 0 01.43-.29 1.24 1.24 0 01.47 0h.95v.05c-.3.11-.6.21-.9.29a1.24 1.24 0 01-.46.11 1.17 1.17 0 01-.49-.16zM33 16a.9.9 0 01.17.43 1.07 1.07 0 01-.1.39 6.55 6.55 0 01-.28.78 7.74 7.74 0 01-.07-.83.94.94 0 010-.41A.85.85 0 0133 16zM17.86 11a3.21 3.21 0 01-.8.68 4.24 4.24 0 01-1 .4 14.88 14.88 0 01-2 .59v-.05q.93-.43 1.83-.9a7 7 0 01.89-.48 4.7 4.7 0 011-.28zM18 10.74a.61.61 0 010-.57 5.52 5.52 0 01.16-.54 5.42 5.42 0 010 .57.62.62 0 01-.16.55zM20.61 13.21a1.1 1.1 0 01.53.16 1.17 1.17 0 01.34.36c.22.25.44.52.64.79-.3-.17-.59-.34-.87-.53a1.33 1.33 0 01-.41-.29 1.06 1.06 0 01-.23-.5zM24.91 12.43a.67.67 0 01-.55-.19c-.16-.11-.32-.22-.47-.34l.55.19a.68.68 0 01.47.35zM25.05 12.52a1 1 0 01-.1.53 1.33 1.33 0 01-.33.38c-.23.24-.47.48-.72.7.13-.31.28-.61.44-.91a1.4 1.4 0 01.24-.43 1.14 1.14 0 01.47-.27zM26.39 20.07a3.83 3.83 0 011.06.44 5.51 5.51 0 01.86.74 12.51 12.51 0 011.5 1.67c-.56-.5-1.13-1-1.73-1.41-.3-.21-.62-.39-.9-.63a6.08 6.08 0 01-.79-.81zM29.74 16.67a.9.9 0 01-.41.23 1 1 0 01-.42 0 8 8 0 01-.82-.17v-.05c.27-.07.55-.13.82-.18a1 1 0 01.41-.05.86.86 0 01.42.22zM32.09 21.28a4 4 0 01.83-.66 5.38 5.38 0 01.95-.42c.64-.27 1.28-.53 1.93-.78-.59.37-1.18.74-1.78 1.09a7.33 7.33 0 01-.91.51 4.2 4.2 0 01-1 .26zM27.68 24.86a1.1 1.1 0 01-.48-.19 1.29 1.29 0 01-.28-.37c-.18-.26-.35-.53-.5-.8a8.85 8.85 0 01.76.57 1.31 1.31 0 01.36.3 1.05 1.05 0 01.15.5zM18 21.3a1.12 1.12 0 01-.28.45 1.4 1.4 0 01-.42.22c-.29.13-.59.26-.89.37.23-.23.46-.46.7-.67a1.32 1.32 0 01.37-.3 1 1 0 01.52-.07zM17.59 21.14a1.32 1.32 0 01-.59-.24 1.73 1.73 0 01-.36-.44c-.22-.29-.44-.6-.65-.92q.46.33.9.69a1.65 1.65 0 01.43.36 1.4 1.4 0 01.22.56zM12.36 20.94a3.68 3.68 0 01-1.06-.1 5.43 5.43 0 01-1-.35c-.63-.25-1.3-.49-1.92-.79v-.05c.69.14 1.37.29 2 .45a5.92 5.92 0 011 .27 3.73 3.73 0 01.93.52zM12.56 20.78a.53.53 0 01.33-.38l.45-.24c-.11.13-.22.26-.34.38a.51.51 0 01-.45.24zM13 24.4a4.2 4.2 0 011.11-.07 6.62 6.62 0 011.08.2c.71.14 1.43.3 2.14.47v.05c-.73 0-1.46-.07-2.19-.13a5.57 5.57 0 01-1.08-.1 4.11 4.11 0 01-1.06-.37zM17.54 27.76a2.79 2.79 0 01-.85.3 4.1 4.1 0 01-.86 0h-1.74c.57-.12 1.14-.23 1.71-.32a4.24 4.24 0 01.86-.12 3 3 0 01.88.14zM17.65 27.66a.71.71 0 010-.59.91.91 0 01.4-.4 1.55 1.55 0 011-.27v.05a1.72 1.72 0 00-.77.53 3.22 3.22 0 01-.24.36c-.11.09-.21.2-.38.33zM14.28 31.33a2.13 2.13 0 01-.79 0 3.1 3.1 0 01-.73-.23c-.48-.16-1-.34-1.44-.53.51 0 1 .11 1.52.19a2.75 2.75 0 01.76.13 2.33 2.33 0 01.69.4zM14.56 31.37a2.37 2.37 0 01.67-.41 3.14 3.14 0 01.74-.15c.5-.08 1-.16 1.51-.22v.05c-.47.2-.94.39-1.41.56a3.21 3.21 0 01-.72.24 2.35 2.35 0 01-.79 0zM22.05 30.24a4.45 4.45 0 01.84-.94 6.33 6.33 0 011-.68 20.85 20.85 0 012.19-1.16v.05q-1 .69-2 1.44c-.32.25-.62.53-1 .75a6.76 6.76 0 01-1.1.58zM26.82 29.38a2.27 2.27 0 01-1.08.26l-1.1.08c.36-.1.72-.18 1.08-.26a2.32 2.32 0 011.11-.08zM26.94 29.38a2.06 2.06 0 01.68.27 2.52 2.52 0 01.5.48c.32.33.64.67.95 1-.4-.24-.8-.49-1.18-.75a2.84 2.84 0 01-.56-.4 2 2 0 01-.39-.62zM22.1 30.72a1.18 1.18 0 01-.2.39 1.25 1.25 0 01-.3.21 2.5 2.5 0 00-.54.58 1.69 1.69 0 01.29-.82.76.76 0 01.29-.35.68.68 0 01.49 0zM33.89 25.57c-.26 0-.46 0-.66.05s-.39 0-.6 0a1.79 1.79 0 00-1 .71 1.71 1.71 0 011-1.07 1.24 1.24 0 01.76-.14 1 1 0 01.65.41z"/></g></g><text transform="translate(13.97 31.54)" font-size="33.867" fill="#fff" stroke="#7c8c03" stroke-miterlimit="10" font-family="HVDSteinzeit-FillIn,HVD Steinzeit">M</text><text transform="translate(14.03 31.79)" font-size="33.867" fill="#d91a60" stroke="#7c8c03" stroke-miterlimit="10" font-family="HVDSteinzeit,HVD Steinzeit">M</text></g></g></symbol><symbol viewBox="0 0 50 50" id="menu-down" xmlns="http://www.w3.org/2000/svg"><path opacity=".28" d="M2.71 42.5V13.33H40V46H5.58" data-name="Welcome Page Web"/><g data-name="Sprite buttons"><path fill="#d62d7a" d="M8.03 37.19V9.31H2.72V42.5M2.72 9.31h1.31V8"/><path fill="#d62d7a" d="M8.03 37.19v5.31h-5.4"/><path d="M37.19 41.16l-1.37 1.34H8v-5.31h29.22" fill="#d62d7a"/><path fill="#d62d7a" d="M4.03 8h33.19v33.19H4.03z"/><g fill="#d62d7a"><path d="M12.65 23.24h16.52c.53 0 1 .62 1 1.38v.14c0 .76-.44 1.38-1 1.38H12.65c-.54 0-1-.62-1-1.38v-.14c.02-.76.46-1.38 1-1.38zM12.65 30.48h16.52c.53 0 1 .62 1 1.38V32c0 .76-.44 1.38-1 1.38H12.65c-.54 0-1-.62-1-1.38v-.14c.02-.76.46-1.38 1-1.38zM12.65 16h16.52c.53 0 1 .62 1 1.38v.14c0 .76-.44 1.38-1 1.38H12.65c-.54 0-1-.62-1-1.38v-.14c.02-.76.46-1.38 1-1.38z"/></g><path fill="#d62d7a" d="M8.03 37.19V9.31H2.72V42.5M2.72 9.31h1.31V8"/><path fill="#871242" d="M8.03 37.19v5.31h-5.4"/><path d="M37.19 41.16l-1.37 1.34H8v-5.31h29.22" fill="#871242"/><path fill="#d91a60" d="M4.03 8h33.19v33.19H4.03z"/><g data-name="menu-outline" fill="#c7b299"><path d="M12.65 23.24h16.52c.53 0 1 .62 1 1.38v.14c0 .76-.44 1.38-1 1.38H12.65c-.54 0-1-.62-1-1.38v-.14c.02-.76.46-1.38 1-1.38zM12.65 30.48h16.52c.53 0 1 .62 1 1.38V32c0 .76-.44 1.38-1 1.38H12.65c-.54 0-1-.62-1-1.38v-.14c.02-.76.46-1.38 1-1.38zM12.65 16h16.52c.53 0 1 .62 1 1.38v.14c0 .76-.44 1.38-1 1.38H12.65c-.54 0-1-.62-1-1.38v-.14c.02-.76.46-1.38 1-1.38z"/></g></g></symbol><symbol viewBox="0 0 50 50" id="menu-up" xmlns="http://www.w3.org/2000/svg"><path opacity=".28" d="M3.01 43.5V14.33h43.17V47H6.33" data-name="Welcome Page Web"/><g data-name="Sprite buttons"><path fill="#d62d7a" d="M8.33 38.19V10.31H3.02V43.5M3.02 10.31h5.31V5"/><path fill="#d62d7a" d="M8.33 38.19v5.31H2.94M36.13 43.5H8.33v-5.31h33.19M8.33 5h33.19v33.19H8.33z"/><g fill="#d62d7a"><path d="M17 19.24h16.47c.53 0 1 .62 1 1.38v.14c0 .76-.44 1.38-1 1.38H17c-.54 0-1-.62-1-1.38v-.14c0-.76.41-1.38 1-1.38zM17 26.48h16.47c.53 0 1 .62 1 1.38V28c0 .76-.44 1.38-1 1.38H17c-.54 0-1-.62-1-1.38v-.14c0-.76.41-1.38 1-1.38zM17 12h16.47c.53 0 1 .62 1 1.38v.14c0 .76-.44 1.38-1 1.38H17c-.54 0-1-.62-1-1.38v-.14c0-.76.41-1.38 1-1.38z"/></g><path fill="#d62d7a" d="M8.33 38.19V10.31H3.02V43.5M3.02 10.31h5.31V5"/><path fill="#871242" d="M8.33 38.19v5.31H2.94M36.13 43.5H8.33v-5.31h33.19"/><path fill="#d91a60" d="M8.33 5h33.19v33.19H8.33z"/><g data-name="menu-outline" fill="#c7b299"><path d="M17 19.24h16.47c.53 0 1 .62 1 1.38v.14c0 .76-.44 1.38-1 1.38H17c-.54 0-1-.62-1-1.38v-.14c0-.76.41-1.38 1-1.38zM17 26.48h16.47c.53 0 1 .62 1 1.38V28c0 .76-.44 1.38-1 1.38H17c-.54 0-1-.62-1-1.38v-.14c0-.76.41-1.38 1-1.38zM17 12h16.47c.53 0 1 .62 1 1.38v.14c0 .76-.44 1.38-1 1.38H17c-.54 0-1-.62-1-1.38v-.14c0-.76.41-1.38 1-1.38z"/></g></g></symbol><symbol viewBox="0 0 270 340" id="milpa-name-mobile" xmlns="http://www.w3.org/2000/svg"><g data-name="Milpa Name Mobile"><path d="M36 38.16s19.2-5.26 19.2-3.71 5 7.74 8.05 1.23 21.36-5.41 26.94-5.41S88.32 68.81 88.32 78a13.23 13.23 0 007.58 12.18s-.31 23.84-1.7 25.08-6.19.93-15.64-3.56S68 78 68.35 73.92s-7.59-2-11-1.39-.31 25.7-.31 27.56-12.54 12.84-12.54 12.84-7-1.54-9.14-4 1.1-70.46.64-70.77zM126.71 42.5c.15-5.42-.78-11.15-.93-16.72a3.17 3.17 0 014-2.64c4-4.18 13.93-4.18 18.88-4.18 1.55.62 3.56-1.7 4.18-.15 0 4.8-1.08 16.41-1.08 16.41-.93 14.4 1.08 25.23 2 39.32.62 8.83.47 17.65.47 26.47 0 2.17-2.17 6-2.79 8.21-1.24 3.87-5 6-8.67 7.43-3.25 1.24-9 .62-13.93-.77-.84-18.27-2.75-54.19-2.13-73.38zm8.2-30.66a5.24 5.24 0 011.09-1.7c3.25-2.48 6.81.77 4.49 4a2.41 2.41 0 01-.62.93c-.16.31-.31.31-.31.31-2.17 1.73-5.56.02-4.65-3.54zM180 14.94c-.62 0 28.18-6.81 26.32-4s-8.36 72.61-6.81 72.61 32.51 0 33.44 1.86-.62 14.09-.62 14.09-9.17 16.69-11.33 18.5-40.72.31-43.19-.31S180.58 14.94 180 14.94z" fill="#fff"/><path d="M34.48 86.79c-.47-11.46-.78-22.45.46-33.91 0-3.87.62-13.31 1.24-15.32v-.78a31 31 0 008-5.26c5.42-4.18 17-12.54 17-.62.62 1.7 1.86 3.72 2.48 5.26a16.34 16.34 0 012-4c5.42-3.72 9.29-8.36 15-8.36 2.16 0 7.43.93 10.52.46 1.71-.15 3.1-.31 4.8.62-.15 20.28-6 37-1.08 57 1.39 6.66 5.11 3.56 7.74 7.28-1.7 8-6.19 19.35-6.35 27.09-12.54 2.32-17-3.25-21.83-9.91-3.87-5.41-5.88-23.22-5.88-35.76v-6.39a28.6 28.6 0 01-2.63 5.41c-2.17 3-7.12 2.48-10.22 1.24a12.67 12.67 0 01-.62 2.63c-2.47 8.52 2.94 17.65 1.86 26-.46 3.25-9.44 11.3-10.84 14.86l-9.75-4.64a6.75 6.75 0 00-.93-.31c2.12-7.27-.35-15.16-.97-22.59zm11.3 25.54c1.7-9-2-42.57 3.1-54.8 5.1 3.56 4.8 6.81 6.5 10.68 7.89 6 11.14-3.1 14.55-8.51.31.31.93.46.93 1.39-1.39 8.51-.62 16.72.77 25.23.62 5.58 1.09 11.46 3.1 16.72 1.27 2.48 8.2 10.22 12.27 11.46a17.69 17.69 0 007.59.31c.46-1.7-.93-11.3-1.09-14.4-2.32 0-3.09-.15-4-.93v.16c-4.71-3.1-4.5-11.3-4.5-16.72.15-17.5-1.55-33.44 2.47-49.39-1.7-.15-5.41-.15-9.28-.15-5.27 0-11 .15-11.77.46-3.1 6-4.64 16.88-7.74 22.3a1.54 1.54 0 01-1.39-.47c-2.33-6-1.71-12.69-3.87-18.73-3.72 1.24-11.62 2.48-15.33 1.7 1.24 18.27-3.72 36.69-.47 55 .16 3.25 1.86 11.46.16 15a.57.57 0 01.15.46c-.05.6 7.07 2.9 7.85 3.23zM126.59 110.32c-1.24-12.85-1.39-68.27-1.7-72.61a72.36 72.36 0 01.46-8.51V29a25.11 25.11 0 012.17-4.8c5.11-10.21 15.63-3.87 24.15-7.12.46 15 .62 30.5 1.7 45.36.93 14.09 2 29.26-.62 43.2-.77 3.71-3.25 4.64-5.88 7.43-.77 7.12-9.6 3.56-15.17 4.49-5.58.5-5.11-1.2-5.11-7.24zm11 5.57a11.46 11.46 0 003.25.16 1.13 1.13 0 001.09-.62c6-16.88 4.33-35.14 2.94-52.64-1.24-12.54-1.09-25.23-.78-37.77-3.4 1.24-6.34.62-9.9 1.39a7.49 7.49 0 00-3.72 1.7 10.53 10.53 0 01-3.25 1.55c-1.24 26.79 0 53.26 1.08 79.73 0 2.17-.77 4.34 0 6.5 2.93 1.11 6.49-1.08 9.28 0zM134 10.47a54.41 54.41 0 015.73-6.35c10.22-9.75 16.72 9.29.62 12.85h-.47c-4.31.93-7.72-3.87-5.88-6.5zm6.19-.62c-3.25-.62-5.11 1.54-4.8 3.56A5.77 5.77 0 00139.9 15a5.87 5.87 0 00.31-5.15zM179.38 76.88c-.16-20.13.77-39.79.46-60.22a1.4 1.4 0 01.47-1.24c8.82-7.9 16.87-8.82 28.17-9.91a4.43 4.43 0 01.93.47c-2.16 24.77-7.27 49.85-7.27 74.77 10.21 2.63 21.52-2.63 31.73.31.47.31.47.46.78 1.08-1.09 5.11 1.55 16.41-1.24 22-2.48 4.8-7.12 9-10.37 13.47-12.7 2-30.81-.62-43.82-1.24-1.39.3.47-30.2.16-39.49zM221.49 117c0-.16.31-.47.31-.62-1.4-3.1-.78-10.68-.62-15.17-1.08.15-2.63.15-4.34.46-6.65.93-22.44 5.73-23.68-2.94-1.71-22.6-.31-47.53 1.08-65.8a132.75 132.75 0 001.24-15.48 28.48 28.48 0 00-5.11-.46c-1.55 0-3.09.15-4.64.15h-4c0 32.82-1.24 65.18-1.08 98 13.44.29 27.52 1.37 40.84 1.86z" fill="#d91a60"/><g><path d="M46.93 250.77c-.43-23.19-8.16-95.78-9-102.65s35.43-4.29 45.52 2.15 19.54 10.95 17.83 17.39-16.54 21.69-21.26 23-4.3 73.44-4.3 73.44-10.3 11.81-17.39 9.67-10.97.23-11.4-23zM154.72 243.68c3.66-4.72 7.09-38 9.24-55s12-45.53 11.17-45.53 36.93 75.59 38 78.38 10.53 44.67 8.59 47.46-15.24 2.58-16.53 0-8.59-26.63-9.66-28.13-8.59 2.15-10.1 5.37-15.67 19.54-17 20-21.48 4.94-23.84 4.94 6.48-22.76 10.13-27.49z" fill="#fff"/><path d="M49.77 265.18c-.65-20.83-2.36-40.8-4.3-61.2-1.93-19.54-3-38.65-3.65-58.2 8.38-7.73 20.19-16.53 27.7-16.53 8.59 0 27.92 8.37 38.44 13.31 11.38 6.66 11.81 10.53 8.16 21.05-3.86 10.95-23.83 17.61-33.07 22.55 0 .85-.21 1.5-.21 2.36-2.36 21.69 5.58 41.87 5.15 64l-11.81 17.6c0 3-9.23 4.51-16.32 4.51a21.48 21.48 0 01-7.51-1.08c-2.58-1.71-2.58-5.79-2.58-8.37zm7.73 7.3c2.79 0 5.58-.21 7.94-.43 5.8 0 7.52-1.29 7.52-5.37-.86-9.88-1.72-19.32-2.79-29.2C68.45 220.51 67 204 67 187c0-3.22 7.51-1.28 9.88-1.71 7.51-1.29 18.46-8.38 25.12-12.89 3-3 2.15-11.16-.64-14-7.36-7.46-27.76-15.62-43.22-15.62-5.58 0-10.52 1.07-14 3.43.26 19.79 2.19 42.79 3.91 62.06 1.72 18.69 3.65 37.8 3.87 56.91 0 3.65 1.28 7.3 5.58 7.3zm9.5-98.14a16.64 16.64 0 00-.86-4.5c-.65-3.44-1.29-6.45.21-9.88 3-7.09 11.17 3.22 11.17 9.23 0 0-.43 0-.43.22l-3 2.79c-1.71 1.71-3.43 3.43-7.08 4.08zM144.25 270.12c-2.36.43-2.36-1.5-2.15-1.72 3.23-5.58 11.82-20 14.61-30.06 3.65-13.53 6-29.64 7.94-44.45 1.51-11.6 3.65-26.2 6.44-36.94a133.29 133.29 0 004.08-20.61c2.8-1.72 4.3-4.73 5.8-8 2.15-4.08 3.87-8.16 7.3-8.16a1.14 1.14 0 00.86.43c13.75 26.41 20 55.4 31.14 82.46 2.79 7.09 11.81 23.62 10.52 28.35-3.65 12.66-3.65 27-3 39.29-2.15 2.36-4.08 2.15-6.45 1.94-8.37-.86-13.53 4.08-17.61-6.23-2.79-6.87-4.72-15-6.87-22.55-.86-3-1.71-6.23-3.43-7.95-.43-.42-2.15-.21-3.65 0a52.4 52.4 0 01.21 6.88 160.27 160.27 0 01-16.1 20 7.07 7.07 0 00-3.65 3zm24.27-6.23c.86-3.43 1.07-6 1.72-9.23.64-3 1.07-6.66 2.36-12.24 2.79-11.17 18.25-12.46 22.55-8.16 3.86 4.29 5.36 11.16 7.08 18.46 1.5 6.88 3.22 14 6.44 18.26a38.56 38.56 0 009.88-.22c1.29-.21 6 0 6.87-.86 0-6.22-5.58-10.52-7.3-17-3.65-13.1-11.16-26.2-16.1-39.3-3.87-10.95-8-22.55-11.81-33.71-4.51-13.53-8-24.27-13.53-37.58-.86 5.15-2.15 11-3.22 15.67-3.44 12-4.94 24.06-6.45 36.3-1.93 15.46-3.86 30.49-7.94 44.88a147.65 147.65 0 01-8.81 21.26l-.21.21c-2.36 3.22-1.07 2.79-4.51 7.09a152.17 152.17 0 0022.98-3.83zm6.87-41.66c-1.5-.86-1.5-1.72-1.07-2.36l.42-29.21 1.51-1.28c1.93.64 1.93 2.14 2.36 3.43a71.45 71.45 0 004.51 9.67c3.44 6.65 7.52 14.6 7.52 18.68l-1.08 1.07-13.31.22z" fill="#d91a60"/></g><g data-name="Card Game Banner"><path d="M13.69 333.27a7.82 7.82 0 002-.77c1.73-.49 6.91-2.43 7.48-2.53 1.44-.39 6.62-1.84 7.77-2a30.11 30.11 0 00-3.45-.58c-1.16-.2-3.74-.49-4.32-.49s-4.31-.19-5.18-.29c-.57-.39-2-1.85-1.72-2.14a6.58 6.58 0 01-.86-.87 2.48 2.48 0 011.15-.78 1 1 0 01.57-.48 24.61 24.61 0 013.74-1.46l3.74-1.17c.86-.19 5.18-1.36 6-1.36l-.57-.58s-12.37-1.16-17.84-2a11.22 11.22 0 01-1.44-.19 8.84 8.84 0 01-1.15-.2c-.57.2-4-.48-4.6-.38s-2.3-.69-2.88-.78c0-.2-.86-.68-1.15-1.07-.29-.1-.29-.49 0-.68a3.18 3.18 0 011.15-1c0-.29.58-.78.58-.78l12.37-1.75.57-.48c-1.44-.29-6.9-.68-8.34-.88a16 16 0 01-2-.78c-.58-.19-2-.48-2-.67a7.42 7.42 0 00-.86-.39v-.78a12 12 0 011.15-1.16 8 8 0 001.44-1.17 10.24 10.24 0 012.3-.88 37.21 37.21 0 013.74-1.06c.29-.2 5.18-.88 6.62-1.07l15.82-1.94 3.74-.1c1.15-.29 7.48-1.26 8-1.36.87 0 4.89-.49 5.47-.39.29-.1 5.75-.78 6.61-.78s4.32-.48 4.89-.48c1.44-.1 6.62-.49 7.49-.49a13.19 13.19 0 012.58-.19 32.26 32.26 0 013.75-.29c1.43-.2 8-.59 9.49-.59 1.43-.19 5.46-.38 6.33-.38.57-.2 7.76-.49 8.63-.49.57-.1 3.45-.39 3.74-.39.86.1 6.33-.1 6.9-.1.87.1 6.9-.48 8.92-.48.29 0 5.46-.29 5.75-.39 2 0 9.78-.39 10.93-.58 1.73 0 8.35-.2 9.5-.2a49.42 49.42 0 015.46 0h2.88a34.43 34.43 0 013.45-.19c1.44.09 7.48.09 8.92.09 1.73.1 9.78.1 11.51.1 1.15-.1 7.19-.1 8.34-.29a35.05 35.05 0 004.6-.19c1.73.09 9.21 0 10.65-.1a27.72 27.72 0 012.88.1c2.29 0 16.1.58 17.83.68.86 0 9.78.29 10.93.29l8.92.39c.57.09 5.75.38 6.33.48.57-.1 4.6.2 5.46.2 0 0 1.15.19 2 .29a13.91 13.91 0 012 .29s.87.39 1.44.68c.29 0 1.15.29.29.29 0 0-.58.68-.86 1 0 .19-.58.78-.58.78s-4.6.87-6.33 1.16c-1.15.39-10.07 1.56-12.37 1.95l-10.64 1.26c-.29.1-.87.19-.87.29h-.86s.58.29.58.39c.57.1 5.17.87 6.33 1.16.86.1 10.93 1.36 11.79 1.56s6.33 1.07 7.48 1.36a4 4 0 011.72.58s.87.29.87.39c-.29.1 0 .68 0 .87l-.29.2v.1c-.29.19-2 .67-2 1a46.47 46.47 0 00-5.47 1.55c-.86.2-5.75 1-6.62 1.07l-1.15.87 15.83 2.14a26.82 26.82 0 014 1.17c-.28 0 0 .77 0 .87l-.86.58a19.42 19.42 0 01-2.3.59c0 .19-1.73.58-1.73.58s-.29.1-.29.19v.1c-.28.19 1.44 1.17 1.44 1.46l8.35 2.23c.28.2 2.59.88 2.59 1a2.22 2.22 0 01-.29 1.17v.1l-.29.19a14.81 14.81 0 01-3.16.48 13.6 13.6 0 01-2.31.49c-.57 0-3.45.19-3.45.19-.29 0-2 .39-2.3.39-.58.1-4.89-.09-6-.09l-.86-.2c-.29 0-4.9-.19-5.18-.19-1.44-.29-11.51-.1-12.66-.2 0 0-5.47-.19-7.77-.19a29.41 29.41 0 00-3.45-.2c-1.73 0-7.48.3-8.92.2-1.73 0-9.49.29-11.5.29-1.44 0-7.2.49-7.77.39-1.73.19-8.35.48-9.5.39-.86.09-5.75.48-6.32.39-2.59.09-22.73.87-25 1.16-.87 0-8.34.29-8.92.39l-12.66 1c-2.3.29-21.86 1.07-23.87 1.17-.87.19-4.32.39-5.18.58s-5.76.58-6.33.58a11.22 11.22 0 00-1.73.29c-1.73.3-8.34.59-9.2.59-.29 0-4.89.48-5.18.48-3.45.29-11.22.88-11.51.78-1.15.19-10.07 1.75-11.22 1.75l-9.2 1.07c-1.44.19-11.22 1.45-12.09 1.65-2.59.19-10.07 1.16-10.35 1.26-1.44.1-5.18.49-5.47.49l-1.15-.2a15 15 0 01-1.72-.19 16.63 16.63 0 00-2.84-2.01v-.87c.29-.2.29-.88.29-1s.28-.39.28-.39.29-.37.58-.47z" fill="#253659"/><path d="M72.21 321.33s-.23-.33-.33-.4l-.22-.27c-.1-.23-.51-1-.56-1.07s-.07-.32-.12-.41a15.4 15.4 0 01-.36-2.58 13.68 13.68 0 01.49-3.63 2.16 2.16 0 010-.46 6 6 0 00.31-1.17l.55-1.2.18-.39c.46-1 .86-2 1.38-2.94l.43-.76a1 1 0 00.13-.2c0-.13.69-.87.7-1s.28-.37.33-.47.12-.2.11-.23a3.64 3.64 0 01.3-.41s.2-.33.25-.37A14.5 14.5 0 0177 302l1.46-.79a2.65 2.65 0 01.58.06c.15 0 1.44-.16 1.62-.15 0 0 .22.06.31 0a4.54 4.54 0 013.1 2.3l.11.07a10.9 10.9 0 01.51 1.38v.88a1.68 1.68 0 010 .36 3.22 3.22 0 010 .33 2.57 2.57 0 01-.09.41v.61c0 .03-.46.58-.51.65l-.12.23a2.76 2.76 0 01-1.2.88l-.42.22-1 .15a2.92 2.92 0 01-1.6-.37c-.44-.27-.85-.57-.89-1.05-.06-.66.3-1.44.76-1.23.52-.14.17-.24.68-.32a2.78 2.78 0 01.48.2c.54.32.13 1.07.68 1.48a.76.76 0 001.13 0l.25-.37.08-.26s.1-.56.09-.62a1.14 1.14 0 00.09-.19 1.73 1.73 0 00.12-.44v-1.82a2.66 2.66 0 00-2-2l-.28-.05c-.26-.14-.3.05-.61 0l-1.19.18a3.59 3.59 0 00-.52.35 7.74 7.74 0 00-2.24 3.49c0 .07-.09.38-.09.38v.79c0 .06-.11.44-.11.47s.21.54.17.73a5.57 5.57 0 01-.07.95s-.07.31-.07.34v.58c0 .06-.11 1.47-.09 1.62 0 .4.08 3.36.07 3.69l.16 1.71v.12c.06.6.12 2 .12 2l.15.19.92 1.69a1.75 1.75 0 00.58.27h.18l.32.08L80 322l1.11-.29a8.35 8.35 0 00.85-.37s.24-.22.3-.26.14-.11.13-.17l1-.45a20 20 0 003.29-2.73c.26-.32 1.15-2.21 1.47-2.56l.08-.23c.06 0 0-.57 0-.6a1.63 1.63 0 01.21-.46.85.85 0 01.1-.35.93.93 0 01.29-.28 4.65 4.65 0 01.48 0 3.73 3.73 0 00.4.18 5.54 5.54 0 01.25.69v.22a2.47 2.47 0 01-.41.66l-.18.4s-.1.16-.1.19a.82.82 0 01-.22.16c-.13.11-1.23 2.27-1.31 2.38a.48.48 0 01-.11.26l-.2.27-.43.34-.72.81a2.25 2.25 0 01-.46.4s-.4.18-.45.22a5.35 5.35 0 00-.61.4l-.55.54H84c-.06 0-.19.15-.25.19l-.6.63a3.31 3.31 0 01-.47.29l-.36.41c-.15.06-1.16.18-1.22.22l-.62.45c-.09.05-.62.16-.7.2s-.25.16-.28.16l-.5.08a7 7 0 01-3.84-.33s-.08-.11-.11-.11a1 1 0 00-.3-.2l-.55-.36a.61.61 0 00-.23-.09c-.22-.23-1.5-1.31-1.76-1.58z" fill="#fff"/><path d="M86.39 317.68c0-.1.25-.82.24-.91s.07-.37.19-.66l.68-1.45a5.63 5.63 0 01.38-.81c.08-.13.58-.89.74-1.09l.54-.71 1.69-2.34a1.29 1.29 0 00.2-.3h.12a3.23 3.23 0 00.53.08c.06 0 .65-.11.74-.1l.25.09a2.79 2.79 0 01.38.07l.53.18c.72-.31 1 1 .74 1l-.56 1.27c-.69 1.45-1.88 2.12-2.47 3.62l-.48 1.18a13.88 13.88 0 00.49 1.39v.09a1.51 1.51 0 00.92-.34 6.26 6.26 0 001.23-2.15l.44-1.33c.07-.16.27-1.37.31-1.52s.27-.73.26-.79l.08-.53a2.87 2.87 0 01.33-.28s.31-.17.34-.17a.92.92 0 01.25-.15.36.36 0 01.12-.05.46.46 0 01.52.33 9.3 9.3 0 01-.06 1.39 23.26 23.26 0 00.2 3.55 4.29 4.29 0 00.36 1.62c.08.17.29.11.43.09l.33-.07a2 2 0 00.46-.18s1.88-1.37 1.87-1.4 1.38-1.69 1.44-1.76.52-1.28.6-1.35a1.36 1.36 0 01.83-.38 1.63 1.63 0 01.8.74v.09a.75.75 0 01-.19.39 6.33 6.33 0 01-.69.57s-.07.13-.09.17l-1.7 1.64a.76.76 0 01-.2.27c-.1.13-2.2 1.95-2.31 2a1.82 1.82 0 01-1 .24l-.6.08a1.87 1.87 0 01-.4-.07c-.86-.31-1.14-1.57-1.31-2.37a2.23 2.23 0 01-.69 1.45l-.44.3c-.13.14-1.22 1.07-1.36 1.18a4.25 4.25 0 01-1.94.89h-.18c-.3 0-1.19-.05-1.25-.08s-1.09-.46-1.35-.58c-.06-.05-.53-.41-.67-.54a2.26 2.26 0 01-.69-1.36z" fill="#fff"/><path d="M105.93 316.42a1.7 1.7 0 01.06-.28 2.9 2.9 0 00.42-.59 6.5 6.5 0 00.61-1.25 14.76 14.76 0 00.91-1.31c0-.06-.09-.29-.1-.35h-.3a1.49 1.49 0 00-.53.06s-.2.11-.2.14c-.23.08-1.13.7-1.28.71a4.57 4.57 0 01-.37.41c-.09 0-.94.8-1.09.84a3 3 0 01-1.84.3 1 1 0 00-.29-.24 6.4 6.4 0 01-.53-.39s-.25-.31-.25-.37a.69.69 0 01-.24-.21 1.16 1.16 0 01-.19-.34c0-.06-.1-.66-.13-.89s.34-1.88.36-1.92l.65-.43a3.09 3.09 0 01.65-.13 5.1 5.1 0 01.9 0 2.83 2.83 0 01.74.16l.28.08a3.12 3.12 0 01.29.37l.05.53a8.17 8.17 0 01-.42 1.35c-.15.23.11.17.11.17l.28-.22s.84-.54 1-.56.29-.15.34-.19h.09a16.25 16.25 0 011.76-.49 3.11 3.11 0 01.61.08 4.7 4.7 0 01.76.28 6.41 6.41 0 01.83.69c0 .09.14.22.15.28a3.09 3.09 0 01.29.73 1.88 1.88 0 01.21.52 2.47 2.47 0 01.07.29v.36c0 .16-.11 1-.11 1.22a.62.62 0 01-.09.25s-.11.14-.11.17a6.64 6.64 0 01-.3.81c-.07.16-.49 1.27-.57 1.4l-.21.53a2.83 2.83 0 01-.13.68v.27s.23.19.23.22h.15c.15-.05.6-.28.69-.32s1-.65 1.12-.79.14-.13.14-.13.39-.53.47-.6a10.23 10.23 0 01.7-.8l.53-.61a12.63 12.63 0 001.44-1.73l.43-.47a1 1 0 00.21-.29c0-.07.3-1.09.32-1.15l.52-.76.15-.59a1 1 0 01.21-.26c.06-.07.39-.35.39-.35a1.52 1.52 0 00.35-.07h.39l.25.06v.39s-.14.35-.16.44a3.23 3.23 0 00-.27.6 3.79 3.79 0 00-.34.43 1.56 1.56 0 01-.16.44s-.17.17-.2.18c-.34.15-1.15 1.81-1.4 2a13.49 13.49 0 01-.87 1.19 2.51 2.51 0 01-.32.33 5.7 5.7 0 00-.4.77 1.94 1.94 0 01-.25.42l-.4.47a5.34 5.34 0 01-.32.43c0 .09-.27.3-.29.33a10.9 10.9 0 00-.72.9l-.28.18-.63.61a4 4 0 00-.57.31l-.68.11h-.63a9.77 9.77 0 00-1-.13 1.52 1.52 0 01-.25-.13 6.83 6.83 0 01-.87-.44s-.13-.11-.16-.13a4.44 4.44 0 00-.42-.47l-.44-.74a8.35 8.35 0 01-.19-.88v-.12a6.47 6.47 0 01.39-2.37z" fill="#fff"/><path d="M128.33 313l.18.35c.1.41.08.44-.2.71a.53.53 0 00-.19.2s-.29.21-.35.21-.16.2-.19.2a6.77 6.77 0 01-.65.48 4.85 4.85 0 01-1.22.51h-.24c-.19-.11-1-.66-1.18-.77l-.13-.11a8.44 8.44 0 01-.47-.89c0-.08-.51-.61-.55-.7s-.25-.4-.31-.45l-.11.13a4.89 4.89 0 01-.19.62l-.31.54-.72 1.69c0 .1-.28.57-.33.63a.3.3 0 01-.11.14 2.79 2.79 0 01-1.74.67l-.54.05s-.25-.1-.28-.1-.67 0-.73-.05-1.1-.5-1.32-.63-.65-.52-.79-.68a2.43 2.43 0 01-.64-1.42v-.15-.85l.08-.4c.07-.21.37-.94.42-1l.31-.51c.22-.26 1.14-1.4 1.36-1.63a2.68 2.68 0 01.34-.27s.21-.27.21-.29l.26-.15c.11 0 .52-.26.57-.29s.47-.17.5-.17.67.06.76.05l.72-.06a1.53 1.53 0 01.51.07l.27.22v.05a.41.41 0 010 .09 2.13 2.13 0 01-.22.27c-.06 0-.56.14-.61.17s-.41.49-.54.69a8.77 8.77 0 00-.67.93.92.92 0 00-.22.26s-.09.34-.11.37-.39.7-.41.79a9 9 0 00-.24 1.38v.54c0 .15.08.57.09.6a.8.8 0 00.14.23l.27.33a.34.34 0 00.13.11 1.28 1.28 0 00.21 0h.15l1.47-1.73s.24-.57.31-.79l.27-1a2.16 2.16 0 01.1-.25 4.43 4.43 0 00.18-.65 5.79 5.79 0 00.19-.89c0-.15-.16-1.43-.15-1.61s0-.87 0-1l.27-1c.07-.18.31-1.17.38-1.39 0-.44-.13-2.43-.14-2.85v-2.62a2 2 0 011.28-1.2l.25.1c.09.05.42 0 .48 0s.49.41.56.44.68 1.53.77 1.55.28.46.3.67v.29a4.76 4.76 0 00-.06.64l-.13 1.52c0 .09-.13.89-.15 1l-.13 1.25a3.2 3.2 0 00-.07.49v1.74l-.2.77a6.47 6.47 0 010 .76c0 .06-.08.46-.08.49l.14 1.49c0 .12.2 1.19.25 1.4s.14.25.15.31a5 5 0 00.32.58.67.67 0 00.26.24h.12c.11-.1.42-.07.72-.37s.18-.34.34-.63.22-.17.3-.36l.28-.17zM139.4 302.88a6.59 6.59 0 011.13-1.66c0-.09.42-.47.42-.53.42-.45.75-1 1.14-1.46l.14-.15c.09-.07.53-.76.59-.82a2.86 2.86 0 00.51-.39 6.81 6.81 0 00.56-.76 5.4 5.4 0 00.76-.85c.11-.1.64-.85.78-1s.08-.13.08-.13.47-.27.58-.36l.5-.27a3.57 3.57 0 01.72-.5 3 3 0 011.59-.46h.57a2.19 2.19 0 01.43.09 5.17 5.17 0 011.47.48l.63.45.23.43a3.44 3.44 0 00.27.47c.06 0 .25.16.25.19a3.58 3.58 0 00.06.51s.11.29.11.32v.28a2.05 2.05 0 01-.3 1l-.45.44c0 .07-.29.17-.35.18H151.22c-.47-.3-.13-.68.21-1a2 2 0 00.37-.93v-.12c0-.06-.07-.2-.1-.2a2.06 2.06 0 00-1-.87 10.36 10.36 0 00-1-.3l-1.59.09a1.48 1.48 0 00-.32.14l-.17.1c0 .06-.17.16-.2.17-.26.16-.27.49-.38.71 0 0-.14.1-.14.16a12.72 12.72 0 00-1.13 2.62c-.09.07-.47.75-.56.82a1.27 1.27 0 01-.12.36 4.51 4.51 0 00-.24.5 3.67 3.67 0 00-.13.46 6.78 6.78 0 00-.56 1.11c0 .12-.25 1.28-.27 1.4a1.12 1.12 0 00-.16.37s-.11.19-.11.22a3.91 3.91 0 01-.22.82 6.61 6.61 0 01-.12.94c0 .37-.17 1.25-.16 1.34a5.37 5.37 0 00.05.8v1.6l.17.83c.07.08.3.91.44 1.17l.07.18a1.49 1.49 0 010 .36c.06.08.4.72.44.78s.11.32.11.35a3.82 3.82 0 01.15.48 1.44 1.44 0 01.11.35c0 .06.13.17.16.23a2.42 2.42 0 00.39.4 1.69 1.69 0 00.47.33 3 3 0 00.59.32l1.26-.07.7-.28.59-.25c.08-.07.54-.51.74-.65s.59-.63.7-.73a6.39 6.39 0 001.41-4.11 8.39 8.39 0 000-.87.61.61 0 00-.11-.36c0-.24-.08-.32-.32-.31h-.18c-.21 0-1.67.19-1.88.21l-2.36.14a1.81 1.81 0 00-.34-.07 1.6 1.6 0 00-.28-.22l-.13-.12.06-.06v-.09a.7.7 0 01.07-.33.59.59 0 01.27-.11 1.64 1.64 0 01.31-.26 1.89 1.89 0 00.26-.29s.38-.08.44-.11l.93-.06H151.59l.58.11s.22.17.32.23.06.08.06.08a4.07 4.07 0 010 .6s.09.06.09.12a3.64 3.64 0 01.05 1.28 6.92 6.92 0 01-.08.7s-.13.31-.13.34a5.3 5.3 0 010 .69 4 4 0 01-.17.7c0 .12-.14.76-.13.85a7.51 7.51 0 01-.57 1.45c0 .06-.08.18-.14.22-.42.59-1 1.17-1.43 1.74a4.63 4.63 0 01-.62.7c-.05.09-.31.25-.31.28l-.85.39a1.57 1.57 0 00-.23.13c-.44.18-1.61.64-1.73.71a7 7 0 01-.92.17h-.57l-1-.06a3.06 3.06 0 00-.55-.09c-.06-.05-.87-.4-1.15-.53a2.94 2.94 0 00-.52-.3l-.54-.45c-.22-.19-.89-.78-1-.87l-.32-.43a.75.75 0 01-.08-.24c-.06-.08-.39-.6-.46-.66a17.15 17.15 0 00-.7-1.61l-.57-1.59a7 7 0 01-.23-2.21 3.09 3.09 0 00.06-.45 14.75 14.75 0 011.65-5.59zM154.34 311.17a7.78 7.78 0 00.32-.88c.09-.1.11-.37.25-.64l.81-1.39a6.55 6.55 0 01.45-.77c.09-.12.66-.83.83-1l.61-.66 1.89-2.17a1.58 1.58 0 00.23-.28h.12a2.39 2.39 0 00.51.13c.06 0 .66-.05.75 0a1.6 1.6 0 01.25.11 1.65 1.65 0 01.36.11l.52.22c.74-.24.88 1.07.64 1.08l-.67 1.17c-.81 1.38-2.05 1.94-2.77 3.38l-.59 1.14a14 14 0 00.36 1.42v.09a1.44 1.44 0 00.95-.25 6.32 6.32 0 001.42-2l.55-1.29c.08-.15.4-1.33.45-1.49s.33-.7.33-.76l.13-.51a2.1 2.1 0 01.35-.26s.32-.13.35-.13a1.11 1.11 0 01.27-.13.25.25 0 01.12 0 .45.45 0 01.49.37 11 11 0 01-.18 1.39 23.47 23.47 0 00-.13 3.55 4.32 4.32 0 00.22 1.64c.06.18.27.14.42.13h.33a2.31 2.31 0 00.48-.14s2-1.19 2-1.22 1.53-1.56 1.58-1.63.64-1.22.73-1.29a1.29 1.29 0 01.86-.3c.15 0 .71.6.72.81v.09a.7.7 0 01-.23.37 6.34 6.34 0 01-.73.51s-.08.12-.11.15l-1.83 1.49a.92.92 0 01-.23.25c-.12.12-2.37 1.74-2.48 1.81a1.85 1.85 0 01-1 .16h-.6a1.86 1.86 0 01-.39-.1c-.83-.39-1-1.67-1.09-2.48a2.25 2.25 0 01-.82 1.38l-.47.26c-.14.13-1.31 1-1.45 1.05a4.07 4.07 0 01-2 .71h-.18c-.3-.05-1.17-.16-1.23-.19s-1.05-.56-1.29-.7c-.07-.06-.5-.46-.63-.6a2.32 2.32 0 01-.57-1.42z" fill="#fff"/><path d="M182.37 311c0-.12.37-1 .4-1.18s.36-1.41.42-1.56.23-.73.23-.82v-.48h-.21c-.09 0-.27.12-.27.12s-.14.24-.17.27a1.37 1.37 0 01-.3.28 1.78 1.78 0 01-.12.24s-.11.12-.14.18-.09.36-.15.37-.56.24-.59.28a3.65 3.65 0 00-.53.66s-.12.1-.15.13a.5.5 0 00-.14.27l-.59.79a8.41 8.41 0 00-.26.93s-.11.24-.14.25-.15.51-.14.54a1.77 1.77 0 01-.12.24l-.58.94-.27.24h-.9a1.07 1.07 0 01-.27-.12l-.31-.35c0-.06-.1-.39-.13-.54-.1-.51-.48-1.88-.48-2v-1.17c0-.09.11-.82.13-1.06 0 0 .11-.6.14-.63v-.3a1 1 0 00-.3.16c-.06 0-.38.48-.44.54l-.42.25c-.11.12-.61 1-.7 1.06s-.62.61-.71.67a4.51 4.51 0 01-.44.52c0 .09-.2.34-.23.4s-.44.63-.47.66-.23.52-.29.67a3.08 3.08 0 01-.12.42 1.49 1.49 0 00-.14.24 3.09 3.09 0 01-.42.25l-2-.45-.31-.14a1.15 1.15 0 00-.27-.27c0-.24-.15-1.44-.15-1.71v-.24a7.65 7.65 0 01.1-1.05c0-.09.14-.48.14-.54s.11-.69.11-.75.25-1 .28-1.09.14-.57.14-.63.08-.51.11-.54.37-1.06.46-1.18l.14-.66c0-.09-.07-.48 0-.54a2 2 0 01.57-.25h.99c.09 0 .72.2.87.23l.7.38c.09 0 .18.11.18.14v.9a12 12 0 01-.15 1.84c0 .09-.09.48-.08.54v.12l.09.12a1.37 1.37 0 00.33-.25 13.86 13.86 0 011-1c.09-.13.38-.4.38-.43a8 8 0 001-.56c.15-.06.54-.25.57-.25h1.02a2.17 2.17 0 01.42.11 3.91 3.91 0 01.73.38l.3.38c.1.12.4.69.47.78a1.13 1.13 0 00.12.38 4.65 4.65 0 01.16.69h.15c.18-.18 1.1-.92 1.28-1.1a6.73 6.73 0 01.74-.49 2.82 2.82 0 00.29-.19 3.18 3.18 0 01.51-.13h.56a3.8 3.8 0 01.82.29c.21.12 1.06.94 1.28 1.12a5.86 5.86 0 01.14 1.44c0 .09-.28 1.26-.39 1.71a2.88 2.88 0 00-.12.4 4.24 4.24 0 00-.17.66c0 .06-.25.72-.25.78a5 5 0 01-.11.52v.39a1 1 0 00.13.26 1.07 1.07 0 00.27.12 7 7 0 00.71-.25l.87-.41.29-.24.3-.16.74-.4.72-.4s.27-.25.29-.25a.79.79 0 01.27-.15s.12-.09.15-.12.77-.46.89-.56l.68-.49c.09-.09.8-.85.86-.94s.17-.52.23-.58.6-.16.66-.16a2.86 2.86 0 01.51.14c.09 0 .3.09.3.15v.18a.35.35 0 010 .21l-.45.4-1.12.92-1.3 1.19c-.06.06-.75.4-.8.43a5.76 5.76 0 00-.63.4 3.17 3.17 0 01-.56.25c0 .06-.39.25-.45.31s-.21.09-.24.09-.56.58-.65.58l-1.1.8c-.09 0-.53.22-.59.25a7.94 7.94 0 00-.84 0h-.12l-.45-.11c-.06 0-.52-.11-.64-.11s-.39-.11-.42-.14a.83.83 0 00-.15-.27 6.92 6.92 0 01-.7-.65 4.53 4.53 0 00-.31-.5s-.12-.12-.12-.15a2.5 2.5 0 01-.16-.51c-.04-.22.07-1.18.1-1.35z" fill="#fff"/><path d="M191.91 307.87s.27-.51.37-.66l.33-.57.33-.33.7-.56a1.12 1.12 0 01.36-.21c.09-.06.72-.32.81-.35s.48-.51.54-.57l.49-.36.78-.41.57-.27a1.39 1.39 0 00.36-.2h.45a2.81 2.81 0 00.48.12c.09 0 .81.1.9.1s.54.3.69.36a6.37 6.37 0 01.54.46c.11.09.32.33.35.36a4.64 4.64 0 01.12.45v1a2.8 2.8 0 01-.21.45l-.27.33a3.72 3.72 0 01-.34.47 1.67 1.67 0 01-.21.33l-.57.45-.82.68a.75.75 0 00-.21.12l-.9.33a8.34 8.34 0 00-1 .68l-.15.33c0 .06-.07 1.32-.13 1.83v.06a1.17 1.17 0 00.26.6h.66a1.34 1.34 0 00.37-.08 5.36 5.36 0 001.14-.24l.57-.38c0-.06.18-.18.21-.24s.36-.21.51-.42c.37-.47.73-1.16.82-1.28a2.39 2.39 0 01.25-.33h.45c.21 0 .14.24.26.28 0 .45.21 1-.43 1.43a3.12 3.12 0 00-.63.63 3.58 3.58 0 01-1.87 1.3 1.71 1.71 0 01-.24.21c-.06 0-.45.09-.45.09l-1 .29a3.05 3.05 0 01-1.21.2h-.42a6.67 6.67 0 01-1-.13 5.74 5.74 0 01-.68-.36c-.12 0-.75-.55-.93-.67a4.18 4.18 0 01-.41-.45c0-.06-.24-.42-.24-.45l-.09-.12-.27-.57s0-.21-.09-.21v-.25c0-.06-.12-.63-.12-.66V309c0-.15.19-.92.22-1.13zm6.74-2.57a1.76 1.76 0 00-.33.27c-.15.12-.79.75-.91.89l-.15.21s-.06.12-.09.12a.75.75 0 01-.12.21c-.06.21-.22.66-.22.69v1c.61-.27 1.12-.56 1.72-.89a6.16 6.16 0 01.57-.32l.55-.48.12-.09.12-.24.12-.09a5.3 5.3 0 00.12-.6 2.12 2.12 0 00-.11-.33l-.24-.36-.12-.09h-.78a2.16 2.16 0 00-.25.1z" fill="#fff"/></g></g></symbol><symbol viewBox="0 0 690 260" id="milpa-name-web" xmlns="http://www.w3.org/2000/svg"><g data-name="MIlpa Name Web"><g data-name="Card Game Banner"><path d="M411.75 72.1a7.9 7.9 0 002-.77c1.72-.49 6.9-2.43 7.48-2.53 1.44-.39 6.61-1.84 7.76-2a29.38 29.38 0 00-3.45-.58c-1.15-.2-3.74-.49-4.31-.49s-4.32-.19-5.18-.29c-.58-.39-2-1.84-1.73-2.13a7.15 7.15 0 01-.86-.88 2.48 2.48 0 011.15-.78 1.05 1.05 0 01.57-.48 25.43 25.43 0 013.82-1.5l3.74-1.16c.86-.2 5.17-1.36 6-1.36l-.58-.59s-12.37-1.16-17.83-2a11.22 11.22 0 01-1.44-.19 8.84 8.84 0 01-1.15-.2c-.58.2-4-.48-4.61-.38s-2.3-.68-2.87-.78c0-.19-.87-.68-1.15-1.07-.29-.1-.29-.48 0-.68a3.09 3.09 0 011.15-1c0-.29.57-.78.57-.78l12.37-1.75.58-.48c-1.44-.29-6.91-.68-8.34-.87a16.77 16.77 0 01-2-.78c-.57-.2-2-.49-2-.68 0 0-.58-.29-.86-.39v-.78a12 12 0 011.15-1.16 7.83 7.83 0 001.43-1.17 10.36 10.36 0 012.31-.87 35.29 35.29 0 013.74-1.07c.28-.2 5.17-.88 6.61-1.07l15.82-1.94 3.74-.1c1.16-.29 7.48-1.26 8.06-1.36.86 0 4.89-.48 5.46-.39.29-.09 5.76-.78 6.62-.78s4.32-.48 4.89-.48c1.44-.1 6.62-.49 7.48-.49a13.29 13.29 0 012.59-.19 32.06 32.06 0 013.74-.29c1.44-.2 8.05-.59 9.49-.59 1.44-.19 5.47-.38 6.33-.38.58-.2 7.77-.49 8.63-.49.58-.1 3.46-.39 3.74-.39.86.1 6.33-.1 6.91-.1.86.1 6.9-.48 8.91-.48.29 0 5.47-.29 5.76-.39 2 0 9.78-.39 10.93-.58 1.72 0 8.34-.2 9.49-.2.87-.09 5.18-.09 5.47 0h2.88c.28-.19 2.87-.09 3.45-.19 1.44.1 7.48.1 8.92.1 1.72.09 9.78.09 11.5.09 1.15-.09 7.2-.09 8.35-.29a33.4 33.4 0 004.6-.19c1.73.1 9.2 0 10.64-.1a27.72 27.72 0 012.88.1c2.3 0 16.11.58 17.84.68.86 0 9.78.29 10.93.29l8.91.39c.58.09 5.76.39 6.33.48.58-.09 4.61.2 5.47.2 0 0 1.15.19 2 .29a14 14 0 012 .29s.86.39 1.43.68c.29 0 1.15.29.29.29 0 0-.57.68-.86 1 0 .2-.58.78-.58.78s-4.6.88-6.32 1.17c-1.15.38-10.07 1.55-12.37 1.94L627.51 38c-.29.1-.86.2-.86.29h-.86s.57.29.57.39c.58.1 5.18.88 6.33 1.17.86.09 10.93 1.36 11.79 1.55s6.33 1.07 7.49 1.36a4.09 4.09 0 011.72.58s.86.29.86.39c-.28.1 0 .68 0 .88l-.28.19v.1c-.29.19-2 .68-2 1a47.61 47.61 0 00-5.46 1.55c-.87.2-5.76 1-6.62 1.07l-1.15.88 15.82 2.13a27.23 27.23 0 014 1.17c-.29 0 0 .77 0 .87l-.87.58a19.27 19.27 0 01-2.29.59c0 .19-1.73.58-1.73.58s-.29.1-.29.19v.1c-.29.2 1.44 1.17 1.44 1.46l8.34 2.23c.29.2 2.59.88 2.59 1a2.22 2.22 0 01-.29 1.17v.1l-.29.19a14.08 14.08 0 01-3.16.49 14.39 14.39 0 01-2.3.48c-.58 0-3.45.2-3.45.2-.29 0-2 .39-2.3.39-.58.09-4.89-.1-6-.1l-.87-.2c-.29 0-4.89-.19-5.18-.19-1.44-.29-11.5-.1-12.66-.19 0 0-5.46-.2-7.76-.2a29.9 29.9 0 00-3.45-.19c-1.73 0-7.48.29-8.92.19-1.73 0-9.5.29-11.51.29-1.44 0-7.19.49-7.77.39-1.72.2-8.34.49-9.49.39-.86.1-5.75.49-6.33.39-2.59.1-22.72.87-25 1.16-.86 0-8.34.3-8.92.39l-12.65 1c-2.3.29-21.87 1.07-23.88 1.17-.86.19-4.31.39-5.18.58s-5.75.59-6.33.59a9.15 9.15 0 00-1.72.29c-1.73.29-8.35.58-9.21.58-.29 0-4.89.49-5.18.49-3.45.29-11.21.87-11.5.77-1.15.2-10.07 1.75-11.22 1.75l-9.21 1.07c-1.44.19-11.22 1.46-12.08 1.65-2.59.2-10.07 1.17-10.36 1.26-1.44.1-5.18.49-5.46.49l-1.16-.2a15 15 0 01-1.72-.19 17.47 17.47 0 00-2.88-1.85V74c.29-.19.29-.87.29-1s.29-.39.29-.39.23-.41.51-.51z" fill="#253659"/><path d="M470.28 60.16s-.23-.33-.33-.4l-.23-.27c-.09-.23-.51-1-.55-1.07s-.08-.32-.12-.41a15.4 15.4 0 01-.36-2.58 13.55 13.55 0 01.49-3.62 1.78 1.78 0 01.05-.47 6.89 6.89 0 00.31-1.17l.55-1.2.18-.39c.46-1 .85-2 1.38-2.94l.43-.76.12-.2s.69-.86.71-1 .27-.37.32-.47.12-.2.12-.23a3.34 3.34 0 01.3-.41s.19-.33.25-.37a13.18 13.18 0 011.15-1.45l1.45-.75a2.74 2.74 0 01.59.06c.15 0 1.43-.15 1.61-.15s.23.06.31 0a4.53 4.53 0 013.11 2.3l.1.07a10.9 10.9 0 01.51 1.38v.88a2.41 2.41 0 010 .36v.34c0 .03-.09.4-.09.4v.61c0 .03-.46.59-.51.65l-.12.23a2.82 2.82 0 01-1.2.88l-.42.22-1 .15a2.87 2.87 0 01-1.61-.37c-.43-.27-.84-.57-.88-1-.07-.65.3-1.44.75-1.23.53-.14.18-.24.68-.32a2.91 2.91 0 01.49.2c.53.32.13 1.07.68 1.48a.75.75 0 001.12 0l.25-.37.08-.26s.1-.56.09-.62a1.09 1.09 0 00.1-.19 1.25 1.25 0 00.11-.44c0-.22.05-1.53 0-1.82a2.64 2.64 0 00-2-2l-.28-.05c-.27-.14-.3.05-.62 0l-1.18.18a5.72 5.72 0 00-.53.35 7.73 7.73 0 00-2.23 3.49l-.1.38v.79c0 .06-.12.44-.11.47s.2.54.17.73a6.82 6.82 0 01-.07 1s-.07.32-.07.35v.57c0 .06-.12 1.48-.09 1.62 0 .4.08 3.36.07 3.69l.16 1.71v.12c.06.6.12 2 .12 2l.15.19.92 1.69a1.72 1.72 0 00.59.27h.18s.28.07.31.07l1.4-.21 1.11-.29c.11 0 .77-.3.85-.37s.24-.22.3-.26.13-.11.12-.17l1-.44a20 20 0 003.28-2.74c.26-.31 1.16-2.21 1.47-2.56l.09-.22c.05 0 0-.58 0-.61a1.33 1.33 0 01.2-.46.76.76 0 01.1-.34 1 1 0 01.29-.29 4.82 4.82 0 01.49 0 3.75 3.75 0 00.39.18 4.69 4.69 0 01.27.72v.22a2.33 2.33 0 01-.42.67l-.18.39s-.1.16-.09.19a1 1 0 01-.22.16c-.14.11-1.24 2.28-1.31 2.38a.48.48 0 01-.11.26l-.21.27-.41.28-.73.8a1.77 1.77 0 01-.45.4 4.71 4.71 0 01-.45.22 4.59 4.59 0 00-.61.4l-.56.54h-.21c-.06 0-.19.15-.24.19l-.6.63a4.09 4.09 0 01-.48.29l-.36.41c-.14.06-1.16.18-1.21.22l-.63.46c-.08 0-.61.15-.7.19l-.28.17-.44.06a7 7 0 01-3.84-.33s-.08-.11-.11-.11a.93.93 0 00-.3-.19l-.57-.34a.51.51 0 00-.22-.09c-.24-.23-1.53-1.31-1.78-1.58z" fill="#fff"/><path d="M484.45 56.51c0-.09.26-.82.25-.91s.07-.37.18-.66l.69-1.45a5.63 5.63 0 01.38-.81c.07-.13.58-.89.73-1.09l.54-.71 1.7-2.34a2.21 2.21 0 00.2-.29h.12a3.12 3.12 0 00.52.08c.06 0 .65-.11.74-.1l.26.09a1.63 1.63 0 01.37.08l.54.17c.71-.31 1 1 .74 1l-.57 1.22c-.69 1.45-1.87 2.12-2.46 3.62l-.48 1.18c0 .13.51 1.36.48 1.39v.09a1.53 1.53 0 00.93-.34 6.43 6.43 0 001.23-2.15l.43-1.33c.07-.16.28-1.37.32-1.52s.26-.73.26-.79l.08-.53.32-.28.34-.17a1.16 1.16 0 01.26-.15.27.27 0 01.11-.05c.21 0 .5.09.53.33a11.09 11.09 0 01-.06 1.4 23.2 23.2 0 00.19 3.54 4.66 4.66 0 00.36 1.62c.09.17.29.11.44.09l.32-.07a1.84 1.84 0 00.46-.18s1.88-1.37 1.88-1.4 1.38-1.69 1.43-1.76.53-1.28.61-1.35a1.31 1.31 0 01.83-.38c.15 0 .76.54.79.74v.09a.63.63 0 01-.19.39 6.47 6.47 0 01-.68.58.59.59 0 01-.1.16l-1.69 1.64a.93.93 0 01-.21.27c-.1.14-2.19 2-2.3 2a1.86 1.86 0 01-1 .24l-.59.08a1.53 1.53 0 01-.41-.07c-.85-.31-1.14-1.57-1.3-2.37a2.26 2.26 0 01-.69 1.45l-.45.31c-.13.13-1.22 1.06-1.35 1.17a4.25 4.25 0 01-1.94.89h-.18c-.31 0-1.19 0-1.25-.07s-1.09-.47-1.35-.58c-.07-.06-.54-.42-.68-.55a2.32 2.32 0 01-.69-1.36z" fill="#fff"/><path d="M504 55.25a1.7 1.7 0 01.06-.28 2.85 2.85 0 00.41-.59 6.68 6.68 0 00.62-1.25c.08-.13.89-1.18.91-1.31s-.09-.29-.1-.35h-.3a1.56 1.56 0 00-.54.06s-.2.11-.19.14c-.24.09-1.13.7-1.28.72a4.67 4.67 0 01-.38.4c-.09 0-.94.8-1.08.85a3.12 3.12 0 01-1.84.29 1.38 1.38 0 00-.3-.24 5.83 5.83 0 01-.53-.39s-.24-.31-.25-.37-.23-.18-.23-.21-.19-.31-.19-.34a5.77 5.77 0 01-.13-.89 18.31 18.31 0 01.36-1.92l.64-.43a3.23 3.23 0 01.65-.13 5.1 5.1 0 01.9 0 2.89 2.89 0 01.75.16l.28.09a3.17 3.17 0 01.28.36l.06.53a9.25 9.25 0 01-.42 1.35c-.16.23.11.17.11.17l.27-.21s.85-.55 1-.56a2.17 2.17 0 01.34-.19h.09a16.76 16.76 0 011.75-.5 3.24 3.24 0 01.62.08 5.21 5.21 0 01.75.28 5.92 5.92 0 01.83.69c0 .09.15.23.16.29a2.86 2.86 0 01.29.72 2.82 2.82 0 01.21.52s.05.2.06.29 0 .36 0 .36c0 .16-.1 1-.1 1.22a.74.74 0 01-.1.26s-.1.13-.1.16-.25.75-.3.82-.49 1.26-.57 1.39l-.21.53a2.79 2.79 0 01-.14.68v.27s.24.19.24.22h.15c.14 0 .6-.28.69-.32s1-.65 1.12-.79.13-.13.13-.13.4-.53.48-.6a8.51 8.51 0 01.69-.8l.54-.6a14.12 14.12 0 001.45-1.75l.43-.48a1 1 0 00.21-.29c0-.07.3-1.09.32-1.15l.52-.76.15-.59a.88.88 0 01.21-.26 5 5 0 01.38-.35 2.22 2.22 0 00.36-.06l.38-.05.25.06a1.43 1.43 0 010 .18v.21s-.15.35-.17.44a3.1 3.1 0 00-.26.6s-.32.4-.35.43a1.12 1.12 0 01-.16.44s-.16.17-.19.18c-.34.16-1.16 1.82-1.41 2a11.51 11.51 0 01-.86 1.18 3.55 3.55 0 01-.33.34 4.65 4.65 0 00-.39.77 2.26 2.26 0 01-.26.42l-.4.46a4 4 0 01-.31.43c0 .09-.27.3-.3.34a9.22 9.22 0 00-.71.89l-.28.18-.63.62a2.9 2.9 0 00-.57.3l-.68.11h-.63c-.09 0-.8-.12-1-.13a1.62 1.62 0 01-.26-.12 5.85 5.85 0 01-.86-.45s-.13-.11-.17-.13a4.42 4.42 0 00-.41-.47l-.45-.74s-.16-.61-.19-.88v-.12a6.05 6.05 0 01.41-2.3z" fill="#fff"/><path d="M526.4 51.85l.18.34c.1.41.07.45-.21.71a.74.74 0 00-.19.2s-.28.21-.34.21-.16.2-.19.2a6.77 6.77 0 01-.65.49 5 5 0 01-1.22.51h-.24c-.19-.1-1-.66-1.18-.77l-.14-.1c-.06-.06-.43-.84-.47-.89s-.51-.62-.55-.71-.24-.4-.31-.45l-.11.13a4.83 4.83 0 01-.18.62l-.31.54-.72 1.69c-.05.1-.28.57-.33.64a.28.28 0 01-.11.13 2.8 2.8 0 01-1.75.67h-.54s-.25-.1-.28-.1h-.72c-.06 0-1.1-.5-1.33-.63a9.6 9.6 0 01-.78-.68 2.39 2.39 0 01-.65-1.42V53v-.85l.09-.4c.07-.21.36-.93.41-1l.32-.51c.22-.26 1.14-1.4 1.36-1.63a2.06 2.06 0 01.33-.27 2.47 2.47 0 00.22-.29l.25-.15c.12 0 .52-.26.58-.29l.5-.17c.06 0 .66.06.75 0l.72-.06a2.42 2.42 0 01.52.07l.26.22v.05a.41.41 0 010 .1 1.83 1.83 0 01-.21.26c-.06 0-.56.14-.62.17s-.41.49-.54.69-.61.84-.67.93a.75.75 0 00-.21.26s-.09.34-.12.37-.39.7-.41.8a10 10 0 00-.23 1.37v.54c0 .15.08.57.08.6a1.15 1.15 0 00.14.23l.27.33a.44.44 0 00.13.11 1.41 1.41 0 00.22 0h.14l1.47-1.73a7.74 7.74 0 00.32-.79l.27-1a2.16 2.16 0 01.1-.25c0-.16.18-.59.18-.65a8.19 8.19 0 00.19-.89c0-.15-.16-1.44-.15-1.62a8 8 0 010-1l.26-1c.08-.19.32-1.18.39-1.4 0-.44-.13-2.42-.14-2.84v-2.63a1.94 1.94 0 011.27-1.2l.25.1h.49c.07 0 .49.4.55.43s.68 1.53.78 1.55.28.46.3.67v.3a3.47 3.47 0 00-.06.64l-.14 1.51c0 .09-.13.89-.14 1l-.01 1.32a3.31 3.31 0 00-.08.49v1.74l-.2.77a6.47 6.47 0 010 .76c0 .06-.08.46-.07.49l.13 1.49c0 .12.2 1.19.25 1.4s.15.25.15.31a5 5 0 00.28.55c0 .06.2.22.26.24h.12c.11-.1.41-.07.72-.36s.18-.35.33-.64.23-.17.3-.36l.29-.17zM537.47 41.72a6 6 0 011.13-1.67c0-.09.42-.47.42-.53.42-.45.75-1 1.14-1.45l.14-.16c.09-.07.53-.76.58-.82a3.36 3.36 0 00.52-.39 6 6 0 00.55-.76 4.6 4.6 0 00.76-.85c.12-.1.64-.85.79-1s.08-.13.08-.13.46-.27.58-.36l.49-.27a3.87 3.87 0 01.72-.5 3 3 0 011.6-.45h.57a1.61 1.61 0 01.42.1 4.7 4.7 0 011.47.48l.63.44.24.44a2.09 2.09 0 00.27.46.91.91 0 01.25.2 2.54 2.54 0 00.06.5s.11.3.11.33a2.18 2.18 0 000 .27 2.16 2.16 0 01-.3 1l-.45.45a.88.88 0 01-.35.17H549.29c-.47-.3-.13-.68.21-1a2.09 2.09 0 00.36-.92v-.12c0-.06-.07-.21-.1-.21a2 2 0 00-1-.87c-.28-.08-.92-.31-1-.3l-1.59.09a2.22 2.22 0 00-.32.14l-.18.11c0 .06-.17.16-.2.16-.26.16-.27.49-.37.71 0 0-.15.1-.14.16a12.75 12.75 0 00-1.14 2.62c-.08.07-.46.75-.55.82a1.47 1.47 0 01-.13.37 3.69 3.69 0 00-.24.49c0 .06-.12.43-.12.46a5.86 5.86 0 00-.56 1.12c0 .12-.26 1.27-.28 1.39a1.53 1.53 0 00-.16.37.44.44 0 00-.1.22 5 5 0 01-.22.83 5.46 5.46 0 01-.13.94c0 .36-.16 1.24-.16 1.33V48.53l.17.83c.06.08.29.91.43 1.17l.07.18a1.49 1.49 0 01.05.36c.07.08.41.72.44.78s.11.33.11.36a2.14 2.14 0 01.15.47 1.2 1.2 0 01.11.35c0 .06.13.17.17.23a2.33 2.33 0 00.38.4 1.62 1.62 0 00.47.33 3.39 3.39 0 00.59.33l1.26-.08s.56-.21.71-.28l.58-.25c.09-.06.54-.51.74-.65s.6-.63.71-.73a6.38 6.38 0 001.4-4.11 8.59 8.59 0 000-.87.73.73 0 00-.11-.36c-.05-.23-.08-.32-.32-.31h-.18c-.21 0-1.67.2-1.88.21l-2.37.14a3 3 0 00-.33-.07 1.6 1.6 0 00-.28-.22l-.13-.11v-.16a.6.6 0 01.07-.33.68.68 0 01.26-.11 2 2 0 01.32-.26 2.35 2.35 0 00.25-.28s.39-.09.44-.12l.93-.06h3.19l.58.11.31.23.07.08a4 4 0 010 .6s.1.06.1.12a3.69 3.69 0 01.05 1.29 6.67 6.67 0 01-.08.69s-.13.31-.13.34a5.3 5.3 0 010 .69 3.26 3.26 0 01-.17.7c0 .13-.13.76-.13.85a7.26 7.26 0 01-.57 1.45c0 .06-.08.19-.14.22-.41.59-1 1.17-1.42 1.74a5.25 5.25 0 01-.62.7c-.06.09-.32.26-.31.29l-.85.38a1.57 1.57 0 00-.23.13c-.44.18-1.62.64-1.73.71a7.31 7.31 0 01-.92.17h-.57c-.12 0-.85 0-1-.06a2.93 2.93 0 00-.55-.09c-.06-.05-.86-.39-1.14-.53a3.85 3.85 0 00-.53-.3l-.54-.44c-.22-.2-.89-.79-.95-.88l-.33-.43a.68.68 0 01-.07-.23c-.07-.09-.4-.61-.46-.67s-.53-1.32-.7-1.61l-.58-1.59a6.68 6.68 0 01-.22-2.21 3.09 3.09 0 00.06-.45 14.65 14.65 0 011.67-5.59zM552.4 50c0-.09.33-.79.33-.88s.1-.37.24-.64l.82-1.39a4.77 4.77 0 01.45-.76c.08-.13.65-.84.83-1l.6-.65 1.89-2.18a1.58 1.58 0 00.23-.28h.12a3.25 3.25 0 00.52.12c.06 0 .66-.05.75 0l.24.11a1.73 1.73 0 01.37.11l.52.22c.74-.24.88 1.07.64 1.08l-.67 1.14c-.82 1.38-2.06 2-2.78 3.38l-.58 1.14c-.06.12.38 1.39.35 1.43v.08a1.49 1.49 0 001-.24 6.47 6.47 0 001.42-2l.55-1.28c.08-.16.39-1.34.45-1.49s.33-.71.32-.77l.13-.51a4 4 0 01.35-.26s.33-.13.36-.13a1.05 1.05 0 01.26-.13.49.49 0 01.12 0c.21 0 .49.13.5.37a11 11 0 01-.19 1.39 23.46 23.46 0 00-.12 3.55 4.31 4.31 0 00.21 1.64c.07.18.28.14.43.13h.33a1.75 1.75 0 00.47-.14s2-1.19 2-1.22 1.53-1.56 1.59-1.62.64-1.23.73-1.29a1.3 1.3 0 01.86-.31c.15 0 .71.6.72.81v.09a.68.68 0 01-.22.37 6.34 6.34 0 01-.73.51l-.12.16-1.85 1.34a.92.92 0 01-.23.25c-.11.12-2.36 1.75-2.48 1.81a1.82 1.82 0 01-1 .16h-.6a1.4 1.4 0 01-.39-.1c-.83-.39-1-1.67-1.1-2.48a2.22 2.22 0 01-.81 1.39l-.47.25c-.15.13-1.31 1-1.46 1.05a4.11 4.11 0 01-2 .72h-.18c-.3-.05-1.18-.16-1.24-.19s-1-.56-1.29-.7c-.06-.05-.5-.46-.62-.6a2.27 2.27 0 01-.57-1.42z" fill="#fff"/><path d="M580.43 49.82c0-.12.37-1 .4-1.17s.37-1.42.43-1.57.23-.73.22-.82 0-.39 0-.48h-.21c-.09 0-.27.12-.27.12s-.15.24-.18.28a1.28 1.28 0 01-.29.27 1.78 1.78 0 01-.12.24s-.12.12-.15.18-.08.37-.14.37a5.38 5.38 0 01-.6.28 3.72 3.72 0 00-.53.67s-.11.09-.14.12a.61.61 0 00-.15.27l-.59.79a8.41 8.41 0 00-.25.93s-.12.25-.15.25-.14.51-.14.54a1.06 1.06 0 01-.12.24l-.58.94-.27.25h-.9a1.07 1.07 0 01-.27-.12l-.3-.35c0-.06-.1-.39-.13-.54-.1-.51-.48-1.88-.48-2v-1.17c0-.09.1-.81.13-1 0 0 .11-.61.14-.64v-.3a1 1 0 00-.29.16 6.23 6.23 0 00-.44.55l-.42.24c-.12.12-.62 1-.7 1.06s-.62.61-.71.68a6 6 0 01-.44.51c0 .09-.21.34-.24.4s-.44.63-.47.67-.23.51-.29.66a2.93 2.93 0 01-.11.42 1.05 1.05 0 00-.15.24 2 2 0 01-.41.25l-2-.45-.3-.14a1.2 1.2 0 00-.28-.27c0-.24-.14-1.43-.14-1.7v-.24c0-.18.08-1 .1-1.06s.15-.48.15-.54.1-.69.1-.75.26-1 .29-1.09.14-.57.14-.63a3.6 3.6 0 01.11-.54c.06-.12.37-1.06.46-1.18l.14-.66c0-.09-.07-.48 0-.54a2.09 2.09 0 01.56-.25h.99c.06 0 .73.2.88.23l.69.38c.1 0 .19.12.19.15v.9a9.8 9.8 0 01-.15 1.83c0 .09-.08.48-.08.54v.12l.09.12a1.37 1.37 0 00.33-.25c.12-.12.85-.94 1-1s.39-.4.39-.43a8 8 0 001-.56c.15-.06.53-.25.56-.25h1.02a2.26 2.26 0 01.43.11 3.76 3.76 0 01.72.38l.31.38c.09.12.4.69.46.78a1.19 1.19 0 00.13.39 4.24 4.24 0 01.16.68h.15c.18-.18 1.09-.92 1.27-1.1a7.83 7.83 0 01.74-.49s.24-.13.3-.19a4.77 4.77 0 01.51-.13h.46a3.72 3.72 0 01.81.29c.22.12 1.07.94 1.28 1.12a5.88 5.88 0 01.15 1.44c0 .09-.28 1.26-.4 1.72a2.63 2.63 0 00-.11.39 4.24 4.24 0 00-.17.66c0 .06-.26.72-.26.78a5 5 0 01-.11.52V52a.41.41 0 00.39.38 7.06 7.06 0 00.72-.25l.86-.41.3-.24.3-.16.74-.4.71-.4s.27-.24.3-.24a.81.81 0 01.27-.16s.12-.09.15-.12.77-.46.89-.56l.68-.49c.09-.09.8-.85.85-.94s.18-.51.23-.57l.66-.17a2.72 2.72 0 01.51.15c.09 0 .31.08.31.14v.39c0 .03-.29.28-.44.4l-1.12.92-1.31 1.19c-.06.06-.74.4-.8.43a5.57 5.57 0 00-.62.4 3.27 3.27 0 01-.57.25c0 .06-.38.25-.44.31s-.21.09-.24.09-.56.58-.65.58l-1.1.8c-.09 0-.54.22-.6.25a7.94 7.94 0 00-.84 0h-.12a3.39 3.39 0 00-.45-.12c-.06 0-.51-.11-.63-.11s-.39-.11-.42-.14a.89.89 0 00-.16-.27 6.92 6.92 0 01-.7-.65 5.7 5.7 0 00-.31-.5s-.12-.12-.12-.15a3.33 3.33 0 01-.16-.51c.04-.12.14-1.12.17-1.3z" fill="#fff"/><path d="M590 46.7s.27-.51.36-.66l.33-.57.34-.33.69-.56a1.12 1.12 0 01.36-.21c.09-.06.73-.32.82-.35s.48-.51.54-.57l.48-.35.78-.42.58-.26a1.42 1.42 0 00.36-.21h.36a2.81 2.81 0 00.48.12c.09 0 .81.1.9.1s.53.3.68.36.45.37.54.46a4 4 0 01.36.36 4.64 4.64 0 01.12.45v1a2.26 2.26 0 01-.22.45l-.27.33a4.58 4.58 0 01-.33.48 2 2 0 01-.21.33l-.58.44-.81.68a.75.75 0 00-.21.12l-.9.33a8 8 0 00-1 .68l-.15.33c0 .06-.07 1.32-.14 1.83v.06a1.1 1.1 0 00.27.6h.66a1.27 1.27 0 00.36-.08 6.54 6.54 0 001.14-.23l.58-.39c0-.06.18-.18.21-.24s.36-.21.51-.42c.36-.47.73-1.16.82-1.28a2.29 2.29 0 01.24-.33h.45c.21 0 .15.24.27.27 0 .45.2 1-.43 1.43a3.42 3.42 0 00-.64.63 3.55 3.55 0 01-1.87 1.31 1.69 1.69 0 01-.24.2c-.06 0-.45.09-.45.09l-1 .29a3.16 3.16 0 01-1.2.21h-.42a6.86 6.86 0 01-1-.12 5.27 5.27 0 01-.69-.37 9.45 9.45 0 01-.92-.67 5.76 5.76 0 01-.42-.45c0-.06-.24-.42-.24-.45l-.09-.12-.26-.57s-.06-.21-.09-.21V50c0-.06-.11-.63-.11-.66v-1.5c.06-.15.24-.93.3-1.14zm6.73-2.56a1.45 1.45 0 00-.33.26c-.15.12-.78.75-.9.9l-.16.21s-.06.11-.09.11a.75.75 0 01-.12.21c-.06.21-.21.66-.21.69v1c.6-.26 1.11-.56 1.72-.89.12-.08.51-.29.57-.32l.54-.48.12-.09.12-.24.12-.08a3.84 3.84 0 00.13-.6 2.87 2.87 0 00-.12-.34l-.24-.36a.62.62 0 01-.11-.09H597z" fill="#fff"/></g><g data-name="Big milpa word" fill="#fff"><path d="M7.37 82s41.77-11.46 41.77-8.09 10.78 16.85 17.51 2.7 46.49-11.79 58.62-11.79-4 83.87-4 103.75a28.77 28.77 0 0016.51 26.61S137.06 247 134 249.7s-13.47 2-34-7.75-22.9-73.43-22.23-82.19-16.51-4.38-23.92-3-.67 55.92-.67 60-27.29 28-27.29 28-15.15-3.48-19.89-8.87S8.38 82.62 7.37 82zM204.76 91.38c.34-11.79-1.69-24.25-2-36.38 1-4.72 5.39-7.08 8.76-5.73 8.75-9.09 30.31-9.09 41.09-9.09 3.37 1.35 7.75-3.71 9.1-.34 0 10.44-2.36 35.71-2.36 35.71-2 31.32 2.36 54.9 4.38 85.56 1.35 19.2 1 38.4 1 57.6 0 4.72-4.72 13.14-6.06 17.85-2.7 8.42-10.78 13.14-18.87 16.17-7.07 2.7-19.54 1.35-30.32-1.68-2.03-39.75-6.07-117.9-4.72-159.67zm17.85-66.7C223 23.33 224 22.32 225 21c7.07-5.39 14.82 1.68 9.77 8.75a5.18 5.18 0 01-1.35 2c-.34.67-.67.67-.67.67-4.75 3.72-12.16.01-10.14-7.74zM320.63 31.42c-1.34 0 61.31-14.82 57.27-8.76s-18.19 158-14.82 158 70.74 0 72.76 4-1.35 30.65-1.35 30.65-19.87 36.38-24.59 40.42-88.59.68-94-.67 6.1-223.64 4.73-223.64zM470.61 229.26C470.11 201.85 461 116.07 460 108s41.87-5.08 53.8 2.54 23.09 12.94 21.06 20.55-19.54 25.64-25.12 27.16-5.12 86.75-5.12 86.75-12.18 14-20.55 11.42-12.95.25-13.46-27.16zM598 220.88c4.32-5.58 8.38-44.92 10.92-65s14.21-53.8 13.19-53.8 43.65 89.34 44.92 92.63 12.44 52.79 10.16 56.09-18 3-19.55 0-10.15-31.47-11.42-33.24-10.15 2.53-11.92 6.34-18.53 23.09-20 23.6-25.38 5.84-28.17 5.84 7.57-26.87 11.87-32.46z"/></g><g data-name="Big milpa word top" fill="#d91a60"><path d="M4.08 187.76c-1-24.93-1.69-48.85 1-73.78 0-8.42 1.34-29 2.69-33.34V79c6.06-2.36 11.79-6.74 17.52-11.45 11.79-9.1 37.05-27.29 37.05-1.35 1.35 3.71 4 8.09 5.39 11.45a35.42 35.42 0 014.38-8.75c11.79-8.09 20.21-18.19 32.68-18.19 4.71 0 16.16 2 22.9 1 3.71-.34 6.74-.68 10.44 1.34-.33 44.13-13.13 80.51-2.35 124 3 14.48 11.11 7.74 16.84 15.83-3.71 17.51-13.48 42.1-13.81 58.95-27.29 5.05-37.06-7.08-47.5-21.56-8.42-11.79-12.8-50.53-12.8-77.81v-13.89c-1.68 4.05-3 7.75-5.73 11.79-4.71 6.4-15.49 5.39-22.23 2.7a27.8 27.8 0 01-1.35 5.73c-5.39 18.52 6.4 38.4 4 56.59-1 7.07-20.55 24.59-23.58 32.33l-21.16-10.1a12.94 12.94 0 00-2-.67c4.35-15.84-1.04-33.02-2.38-49.18zm24.59 55.58c3.7-19.54-4.38-92.64 6.73-119.25 11.12 7.75 10.45 14.82 14.15 23.24 17.18 13.14 24.25-6.73 31.67-18.52.67.67 2 1 2 3-3 18.52-1.35 36.38 1.68 54.9 1.35 12.13 2.36 24.93 6.74 36.38 2.69 5.39 17.85 22.24 26.61 24.93a38.32 38.32 0 0016.51.68c1-3.71-2-24.59-2.36-31.33-5.06 0-6.74-.34-8.76-2v.33c-10.11-6.73-9.77-24.59-9.77-36.38.34-38.06-3.37-72.76 5.39-107.45-3.71-.34-11.79-.34-20.21-.34-11.45 0-23.92.34-25.6 1-6.74 13.14-10.11 36.72-16.84 48.51-1.35 0-2 0-3-1-5.05-13.14-3.7-27.62-8.42-40.76-8.1 2.72-25.28 5.4-33.37 3.72 2.7 39.75-8.08 79.84-1 119.59.34 7.07 4 24.92.34 32.67a1.24 1.24 0 01.34 1c-.01 1.35 15.5 6.4 17.17 7.08zM204.5 239c-2.7-28-3-148.56-3.71-158a158.27 158.27 0 011-18.52v-.34a54 54 0 014.72-10.44c11.12-22.24 34-8.42 52.55-15.5 1 32.68 1.35 66.36 3.7 98.7 2 30.65 4.38 63.66-1.34 94-1.69 8.09-7.08 10.11-12.8 16.17-1.69 15.5-20.89 7.75-33 9.77-12.13.96-11.12-2.75-11.12-15.84zm23.92 12.12a24.7 24.7 0 007.07.34 2.42 2.42 0 002.36-1.35c13.13-36.71 9.43-76.46 6.4-114.53-2.7-27.28-2.36-54.9-1.69-82.19-7.41 2.7-13.81 1.35-21.56 3-3 .34-5.38 1.69-8.08 3.71-2.36 1.35-4 2.69-7.07 3.37-2.7 58.27 0 115.87 2.35 173.48 0 4.71-1.68 9.43 0 14.14 6.4 2.35 14.15-2.36 20.22-.01zm-7.75-229.43c3.33-4.69 8.08-9.44 12.46-13.81 22.23-21.23 36.38 20.21 1.35 28h-1c-9.48 1.98-16.85-8.47-12.81-14.19zm13.47-1.35C227.07 19 223 23.71 223.7 28.09c2 2.35 6.4 3.7 9.77 3.37 1.68-3.71 2.36-7.08.67-11.12zM319.36 166.2c-.33-43.79 1.69-86.57 1-131a3.07 3.07 0 011-2.69c19.2-17.18 36.71-19.2 61.3-21.56a9.16 9.16 0 012 1c-4.71 53.89-15.83 108.46-15.83 162.7 22.23 5.72 46.82-5.73 69.06.67 1 .68 1 1 1.68 2.36-2.36 11.12 3.37 35.71-2.69 47.83-5.39 10.45-15.5 19.54-22.57 29.31-27.62 4.38-67-1.35-95.33-2.7-2.98.65 1.02-65.71.38-85.92zM411 253.44c0-.34.67-1 .67-1.35-3-6.73-1.68-23.24-1.34-33-2.36.34-5.73.34-9.44 1-14.48 2-48.84 12.47-51.54-6.4-3.7-49.18-.67-103.41 2.36-143.16 1.35-11.45 2.7-22.57 2.7-33.69a62.41 62.41 0 00-11.12-1c-3.37 0-6.74.34-10.1.34h-8.76c0 71.41-2.7 141.82-2.36 213.23 29.3.66 59.93 3.02 88.93 4.03zM474 246.29c-.76-24.62-2.79-48.22-5.07-72.33-2.29-23.09-3.56-45.68-4.32-68.78 9.9-9.13 23.86-19.54 32.74-19.54 10.15 0 33 9.9 45.43 15.74 13.45 7.87 14 12.43 9.64 24.87-4.57 12.94-28.17 20.81-39.08 26.65 0 1-.25 1.77-.25 2.79-2.8 25.63 6.59 49.49 6.09 75.63l-14 20.81c0 3.55-10.91 5.33-19.29 5.33a25.45 25.45 0 01-8.88-1.27c-3.01-2.03-3.01-6.85-3.01-9.9zm9.14 8.63c3.3 0 6.6-.25 9.39-.51 6.85 0 8.88-1.52 8.88-6.34-1-11.68-2-22.84-3.3-34.52-2-20.05-3.8-39.59-3.8-59.64 0-3.8 8.88-1.52 11.67-2 8.88-1.52 21.82-9.9 29.69-15.23 3.56-3.55 2.54-13.19-.76-16.49-8.63-8.88-32.74-18.53-51-18.53-6.6 0-12.44 1.27-16.5 4.06.26 23.35 2.54 50.51 4.57 73.35 2 22.08 4.32 44.66 4.57 67.25-.04 4.29 1.45 8.6 6.56 8.6zm11.17-116a19.69 19.69 0 00-1-5.33c-.76-4.06-1.52-7.61.25-11.68 3.56-8.37 13.2 3.81 13.2 10.92 0 0-.51 0-.51.25l-3.55 3.3c-2 2-4.06 4.06-8.37 4.82zM585.64 252.13c-2.8.51-2.8-1.78-2.54-2 3.8-6.6 14-23.6 17.26-35.53 4.31-16 7.1-35 9.39-52.54 1.77-13.7 4.31-31 7.61-43.65A158.65 158.65 0 00622.18 94c3.3-2 5.08-5.59 6.85-9.39 2.54-4.82 4.57-9.65 8.63-9.65a1.32 1.32 0 001 .51c16.24 31.22 23.6 65.48 36.8 97.46 3.3 8.37 14 27.91 12.43 33.5-4.31 15-4.31 32-3.55 46.44-2.54 2.79-4.82 2.54-7.61 2.28-9.9-1-16 4.83-20.81-7.36-3.3-8.12-5.59-17.76-8.13-26.64-1-3.56-2-7.36-4.06-9.39-.5-.51-2.53-.26-4.31 0a61.19 61.19 0 01.25 8.12 188.45 188.45 0 01-19 23.6 8.49 8.49 0 00-4.32 3.55zm28.67-7.36c1-4.06 1.27-7.11 2-10.92.77-3.55 1.27-7.86 2.8-14.46 3.3-13.2 21.57-14.72 26.64-9.64 4.57 5.07 6.35 13.19 8.38 21.82 1.78 8.12 3.81 16.5 7.61 21.57a45.41 45.41 0 0011.68-.25c1.52-.25 7.1 0 8.12-1 0-7.36-6.6-12.43-8.63-20.05-4.32-15.48-13.2-31-19-46.44-4.56-12.94-9.39-26.65-13.95-39.84-5.33-16-9.39-28.68-16-44.42-1 6.1-2.54 12.95-3.81 18.53-4.06 14.21-5.84 28.42-7.61 42.89-2.29 18.27-4.57 36-9.39 53a174.7 174.7 0 01-10.41 25.13l-.25.25c-2.79 3.81-1.27 3.3-5.33 8.38a180.1 180.1 0 0027.15-4.55zm8.13-49.24c-1.78-1-1.78-2-1.27-2.79l.5-34.51 1.78-1.53c2.28.76 2.28 2.54 2.79 4.06a84.94 84.94 0 005.33 11.42c4.06 7.87 8.88 17.26 8.88 22.08l-1.26 1.27-15.74.26z"/></g></g></symbol></svg>