<?xml version="1.0" encoding="utf-8"?><svg xmlns="http://www.w3.org/2000/svg" xmlns:xlink="http://www.w3.org/1999/xlink"><symbol viewBox="0 0 440 520" id="create-background" xmlns="http://www.w3.org/2000/svg"><path fill="#253659" d="M-2-.5h442.46v520.76H-2z"/><path data-name="mountain 1" d="M440.46 415.25c-20.86 2.46-41.88 5.29-62.38 4.91-59.93-1.09-115.34-30-168.17-58.14l-67.25-35.86c-9.86-5.26-19.83-10.59-28.2-18-14.16-12.51-22.72-29.92-31.73-46.48s-19.44-33.38-35.68-43.06c-15-9-36.38-9.63-49 1.84v300.3H441" fill="#c7b299"/><g><g data-name="Corn 1"><path fill="none" stroke="#4a7573" stroke-linecap="round" stroke-miterlimit="10" stroke-width="8" d="M105.48 474.55l-1.69-263.71"/><path d="M82.4 201.5a11 11 0 00-7.49 1.32c-2.59 1.73-3.79 5-4.06 8.06s.23 6.21.28 9.32c.13 8.08-2.82 16-7 22.83s-9.72 12.88-15.17 18.84c6.15-6.88 16.89-7.65 23.75-13.82A19.37 19.37 0 0079 235.12c.15-2.28-.11-4.59.31-6.84s1.68-4.53 3.84-5.27c5.22-1.8 10.08 6.3 15.28 4.46 14.19-5.03-8.66-25.08-16.03-25.97zM120 289.55q3.87-20.48 9.49-40.57c1.09-3.91 2.24-7.87 2.29-11.93a22.72 22.72 0 00-9.14-18.3c-3-2.22-14.78-7.07-16.62-1.16-.85 2.72 3.62 5.35 4.66 7.29 1.85 3.47 2.09 8.1 2.78 11.93a477.13 477.13 0 016.54 52.74z" fill="#4a7573"/><path d="M87.18 195.91c-4.87-6.52-11.25-12.17-18.94-14.82a19 19 0 00-9.58-1 10.9 10.9 0 00-7.73 5.35c2.17-4.94 8.58-6 14-6.38l7.41-.52a21.83 21.83 0 016.15.14 17.57 17.57 0 016.78 3.53c7.51 5.78 16.12 16.93 16.3 26.95.2 13.93-12.11-10.16-14.39-13.25z" fill="#4a7573"/><path d="M114.89 200.83a15.83 15.83 0 019 2.37c3.68 2.46 5.78 6.76 6.66 11.09 2.41 11.91-3.13 23.93-3.54 36.07-.23 6.68 1.11 13.31 2.45 19.86-4.88-9-9.91-18.53-9.38-28.73.23-4.33 1.46-8.54 2.16-12.82s.83-8.85-1-12.77-6.14-7-10.4-6.16c.43 6.36-8.66 9.55-9.39 1.93-.68-7.06 7.71-10.76 13.44-10.84z" fill="#4a7573"/><path d="M89 250.48c-3.21-2.75-7.7-4.35-11.74-3.11-5.06 1.57-7.83 6.85-10.23 11.57a233 233 0 01-22.61 35.93c7.26-.61 12.56-6.89 17-12.68l12.18-15.93a8.14 8.14 0 012.51-2.45c2.69-1.39 6 .66 7.49 3.31s1.75 5.77 2.84 8.58a16.22 16.22 0 0012.77 10c13.79 1.81-6.8-32.32-10.21-35.22z" fill="none"/><path d="M121.5 295c6.26-1.32 13-1.1 18.76 1.77a35.41 35.41 0 017.51 5.38 96.39 96.39 0 0111.3 11.91A48.9 48.9 0 00130.8 302a10.54 10.54 0 00-4.08.26 18.84 18.84 0 00-3.38 1.85c-3.68 2.17-20.63 6.06-19.54-.69.78-4.84 13.86-7.57 17.7-8.42zM88.83 270.55a20.83 20.83 0 00-4.49-6c-2-1.58-4.79-2.35-7-1.19a9.11 9.11 0 00-3.23 3.48A70.15 70.15 0 0064 295.44c-.45 3.72-.63 7.54-2 11-1.8 4.66-5.55 8.37-7.37 13-1.64-12.25-2.56-24.82.2-36.86s9.64-23.58 20.5-29.45c4.71-2.57 10.58-3.95 15.39-1.57a16.57 16.57 0 015.13 4.26c4.11 4.79 9.59 14.57 7.56 21.2-3.41 11.04-11.87-1.82-14.58-6.47zM136.84 323.78c3.8 2.35 6.55 6 9.22 9.63l9.85 13.32c1.72 2.32 3.5 4.81 3.77 7.69a15.94 15.94 0 01-1 6l-4.58 15.49-.56-13.66a17.21 17.21 0 00-1-5.94c-2.41-5.73-9.76-7-15.24-9.93-3.91-2.11-7.1-5.35-10.91-7.62-3.61-2.16-8.2-3.35-12.14-1.42-2.47 1.21-5.53 8-7.93 8.13-3.72.23-2.57-3.8-1.84-6.92 1.1-4.68 3.87-10.51 8.39-12.71 3.18-1.55 7.91-1.78 11.21-2.68 4.78-1.32 8.13-2.25 12.76.62zM97.35 337.8a232.89 232.89 0 001.42-27.8l5.18 3.91c-1.35-1 .25-9.05-4-11.73-4.45-2.81-11.57-1-14 3.9-4.02 8.17 8.88 23.75 11.4 31.72zM83.15 393.68l-7.22-11.88c-2.31-3.81-5.08-8-9.43-8.92-5.56-1.24-10.69 3.36-13.87 8.08s-5.89 10.29-11 12.75c-1.48-3 .43-6.5 2.27-9.29 2.78-4.22 5.6-8.48 9.3-11.92s8.42-6 13.47-6.2c6.79-.22 12.9 3.84 18.48 7.73l9 6.29c5.88 4.11 18.07 14.45 10.41 22.47s-17.67-2.95-21.41-9.11z" fill="#4a7573"/><path d="M136.38 381.44a22.13 22.13 0 019.14.49c5 1.65 9.32 6.57 14.53 5.62a43.77 43.77 0 00.35 36.5 32.53 32.53 0 01-18.73-28.77c0-1.34 0-2.81-.78-3.88-1.24-1.63-3.69-1.47-5.72-1.15q-11.29 1.83-22.52 4.07c-3.81.75-12.07 4.86-10.18-.94 3-9.23 26.39-11.17 33.91-11.94z" fill="#4a7573"/><path d="M155.26 415.31a22.71 22.71 0 01-3.38-13c.1-2.24.52-4.63-.5-6.63A9 9 0 00149 393a42.24 42.24 0 00-9.81-6.26c-1.64-.75-3.67-2-3.18-3.78M99.27 397.15c-7.76-6-13.78-12.57-20.47-19.62-3.24-3.42-7.28-7.77-11.73-9.19-5.56-1.77-8.37 1.77-12.26 5.25-4.13 3.7-6.33 7.8-9.79 12.32 0 .69.36-.33.6-.61M123.91 324a86.76 86.76 0 0114 14.15c2 2.59 4 5.36 6.78 7.08s6.11 2.27 8.37 4.52 2.84 5.5 2.77 8.59-.75 6.15-.75 9.25l-1-1M99.1 306.36c-2.19-1.77-5.56-3.5-7.51-1.46-1 1.05-1 2.66-1 4.1a44.78 44.78 0 004.27 17M125.85 296.54q9.75 3.51 19.74 6.3h-2.27M108.65 220.76l3.79.6a14.51 14.51 0 014.59 1.27 9.68 9.68 0 014.42 6.21 28.68 28.68 0 01.54 7.8q-.36 15.88-.7 31.77M97.05 214.39a11.56 11.56 0 01-11.19-2.6c-1.6-1.52-3.25-3.7-5.41-3.26-1.54.32-2.46 1.89-3 3.38-2 5.74-.81 12.15-2.39 18-1.4 5.21-4.88 9.59-8.32 13.75-1.65 2-3.36 4.05-4 6.56M95.61 204.15c-2.24-5.25-4.59-10.53-8-15.06s-8.21-8.32-13.78-9.57l.08 1.35M105.54 211.42c3.26-3.93 8.49-7 13.35-5.45a11.58 11.58 0 016.57 6.42 34.36 34.36 0 012.26 9.15M99.1 273.19c-6.21-4.55-9.22-13-16.24-16.17a13.67 13.67 0 00-15.38 3.23" fill="none" stroke="#7c8c03" stroke-miterlimit="10"/><path d="M102.22 370.55c3.33 8.33 3.8 16.17 1.33 18.81a3.05 3.05 0 01-.81.63l-.24.1c-3.58 1.43-9.48-4.92-13.23-14.21v-.13c-3.74-9.36-3.87-18.11-.28-19.54 3.42-1.37 9 4.38 12.71 13 .15.44.3.89.52 1.34z" fill="#fbb03b"/><path d="M103.55 389.36a20.46 20.46 0 00-1-3.07 19.35 19.35 0 00-3.89-6.15c-2.75-2.89-6.18-4.49-9.43-4.25 3.75 9.29 9.65 15.64 13.23 14.21l.24-.1z" fill="#4a7573"/><path d="M103.55 389.36c2.47-2.64 2-10.48-1.33-18.81-.18-.45-.37-.9-.57-1.33-2.39 2.52-3.47 6.55-3 10.91a19.62 19.62 0 001.29 5 19.84 19.84 0 002.75 4.82z" fill="#4a7573"/><g data-name="Masorcas"><g data-name="elote"><path d="M118.2 320.79c-3.38 8.31-8.49 14.27-12.1 14.47a3.17 3.17 0 01-1-.12 1 1 0 01-.24-.09c-3.57-1.45-3.41-10.12.34-19.41l.06-.13c3.8-9.34 9.78-15.72 13.36-14.26 3.41 1.39 3.42 9.38.12 18.19-.18.45-.35.9-.54 1.35z" fill="#fbb03b"/><path d="M106.1 335.26a21.53 21.53 0 001.45-2.88 19.54 19.54 0 001.46-7.13c0-4-1.32-7.52-3.83-9.6-3.75 9.29-3.91 18-.34 19.41a1 1 0 00.24.09z" fill="#4a7573"/><path d="M106.1 335.26c3.61-.2 8.72-6.16 12.1-14.47.19-.45.36-.9.52-1.35-3.47.15-7 2.31-9.71 5.8a19.65 19.65 0 00-2.56 4.52 20 20 0 00-1.37 5.37z" fill="#4a7573"/></g></g><g data-name="Masorcas"><g data-name="elote"><path d="M106.56 254.65c1.93 8.76 1.11 16.56-1.76 18.77a2.83 2.83 0 01-.9.49l-.26.06c-3.76.83-8.54-6.4-10.73-16.18v-.13c-2.16-9.85-.86-18.5 2.92-19.33 3.59-.79 8.13 5.78 10.42 14.91.09.46.2.93.31 1.41z" fill="#fbb03b"/><path d="M104.8 273.42a21.24 21.24 0 00-.44-3.19 19.25 19.25 0 00-2.84-6.69c-2.24-3.31-5.37-5.45-8.61-5.74 2.19 9.78 7 17 10.73 16.18l.26-.06z" fill="#4a7573"/><path d="M104.8 273.42c2.86-2.21 3.69-10 1.76-18.77-.11-.48-.22-1-.34-1.41-2.78 2.09-4.5 5.9-4.7 10.29a19.65 19.65 0 00.45 5.17 19.89 19.89 0 001.93 5.2z" fill="#4a7573"/></g></g><path d="M102.31 213c-1.57-15.24 8.2-30.93 22.57-36.23a26.08 26.08 0 004.2-1.72" fill="none"/><path d="M102.26 213a26.89 26.89 0 01.81-12.56l.51-1.5c.19-.5.42-1 .62-1.46s.41-1 .65-1.45l.71-1.41a53.16 53.16 0 013.11-5.5 31.58 31.58 0 018.81-9.07 28.89 28.89 0 015.64-3c2-.85 4-1.18 5.93-2.08v.09c-1.76 1.2-3.85 1.74-5.67 2.71a23.91 23.91 0 00-2.74 1.45c-.92.47-1.74 1.11-2.61 1.66s-1.64 1.25-2.48 1.85-1.55 1.36-2.33 2-1.46 1.47-2.15 2.24-1.4 1.54-2 2.39a22.62 22.62 0 00-1.78 2.57 22.11 22.11 0 00-1.49 2.75l-.63 1.43c-.18.49-.33 1-.5 1.48s-.33 1-.47 1.49l-.37 1.51a45 45 0 00-1.47 12.41z" fill="#fbb03b"/><path d="M101 211.93a26.77 26.77 0 00-6.27-19.33 22.35 22.35 0 00-7.4-5.77c-4.14-1.93-8.83-2.31-13.4-2.23a25.46 25.46 0 00-10.42 2c-3.22 1.52-6 4.37-6.6 7.87" fill="none"/><path d="M100.94 211.93a30.29 30.29 0 00-4-15.45 24.67 24.67 0 00-2.2-3.37 18.86 18.86 0 00-2.74-3 18 18 0 00-7-3.91 31.86 31.86 0 00-8-1.12 51.4 51.4 0 00-8 .41 17.43 17.43 0 00-7.43 2.62 10.87 10.87 0 00-4.63 6.3h-.1a10.5 10.5 0 014.27-6.91 17 17 0 017.73-3 42.2 42.2 0 018.25-.3 27.66 27.66 0 018.1 1.54 23.52 23.52 0 017.06 4.17 27.24 27.24 0 015.43 6.19 24.28 24.28 0 013.32 15.83z" fill="#fbb03b"/><path d="M100.17 210.32c2.88-7.94 2.11-16.84-.51-24.88s-7-15.37-11.27-22.63" fill="none"/><path d="M100.07 210.28c.36-2.1.68-4.15.84-6.21s.2-4.11.23-6.18a34.53 34.53 0 00-.21-6.26 25.29 25.29 0 00-1.79-6c-.83-1.93-1.73-3.81-2.6-5.71s-1.89-3.72-2.83-5.59c-1.85-3.75-3.8-7.49-5.41-11.45l.17-.1a68.46 68.46 0 017.13 10.57 54.65 54.65 0 012.66 5.82 37.45 37.45 0 011.92 6.12c.5 2.08.91 4.17 1.38 6.24a52.94 52.94 0 011.25 6.31 23 23 0 01-.37 6.46 19.69 19.69 0 01-2.18 6.07z" fill="#fbb03b"/></g><g data-name="Corn 2"><path fill="none" stroke="#4a7573" stroke-linecap="round" stroke-miterlimit="10" stroke-width="8" d="M228.48 476.55l-1.69-309.65"/><path d="M207.4 313.5a11 11 0 00-7.49 1.32c-2.59 1.73-3.79 5-4.06 8.06s.23 6.21.28 9.32c.13 8.08-2.82 16-7 22.83s-9.72 12.88-15.17 18.84c6.15-6.88 16.89-7.65 23.75-13.82a19.37 19.37 0 006.29-12.93c.15-2.28-.11-4.59.31-6.84s1.68-4.53 3.84-5.27c5.22-1.8 10.08 6.3 15.28 4.46 14.19-5.03-8.66-25.08-16.03-25.97zM237.89 365.83a15.83 15.83 0 019 2.37c3.68 2.46 5.78 6.76 6.66 11.09 2.41 11.91-3.13 23.93-3.54 36.07-.23 6.68 1.11 13.31 2.45 19.86-4.88-9-9.91-18.53-9.38-28.73.23-4.33 1.46-8.54 2.16-12.82s.83-8.85-1-12.77-6.14-7-10.4-6.16c.43 6.36-8.66 9.55-9.39 1.93-.68-7.06 7.71-10.76 13.44-10.84zM191.74 150.78c-3.8 2.35-6.55 6-9.22 9.63l-9.85 13.32c-1.72 2.32-3.5 4.81-3.77 7.69a15.94 15.94 0 001 6l4.59 15.49.55-13.66a17.21 17.21 0 011-5.94c2.41-5.73 9.76-7 15.24-9.93 3.91-2.11 7.1-5.35 10.91-7.62 3.62-2.16 8.2-3.35 12.14-1.42 2.47 1.21 5.53 8 7.93 8.13 3.72.23 2.57-3.8 1.84-6.92-1.1-4.68-3.87-10.51-8.39-12.71-3.18-1.55-7.91-1.78-11.21-2.68-4.78-1.32-8.13-2.25-12.76.62zM191 260.44a22.09 22.09 0 00-9.13.49c-5 1.65-9.32 6.57-14.53 5.62a43.81 43.81 0 01-.35 36.5 32.52 32.52 0 0018.72-28.77c0-1.34 0-2.81.78-3.88 1.24-1.63 3.7-1.47 5.72-1.15q11.31 1.83 22.53 4.07c3.8.75 12.06 4.86 10.18-.94-3.01-9.23-26.4-11.17-33.92-11.94z" fill="#4a7573"/><path d="M226.24 168.15a15.28 15.28 0 01.12-7.3c.52-2.38 1.26-4.65 1.92-6.88a30.44 30.44 0 001.44-6.91 26.31 26.31 0 00-.55-7.08c-.48-2.32-1.11-4.6-1.73-6.86s-1.46-4.49-2.25-6.72c-1.53-4.47-3.28-8.9-4.7-13.52l.18-.08a72.42 72.42 0 016.52 12.88 55.67 55.67 0 012.07 7 38.87 38.87 0 011 7.21c.12 2.42.13 4.82.11 7.23a40.54 40.54 0 01-.47 7.28c-1 4.83-3.29 9-3.46 13.77z" fill="#fbb03b"/><path d="M249.56 187a123.4 123.4 0 015.94 20.91c1.86 9.76 2.66 20 7.7 28.61 3.92 6.67 10.07 11.67 15.24 17.42s9.6 13 8.77 20.72c.35-7.85.47-16.08-3-23.11-3.4-6.81-9.9-11.81-12.75-18.87-3.37-8.34-1-17.75-1-26.76.11-18.58-9.71-35.63-19.81-51.22-1.27-2-2.74-4.06-5-4.65-3.1-.81-6 1.55-8.38 3.74-3.66 3.44-18.22 19-8.69 20.49 4.77.77 7.61-2.92 12.84.39 4.19 2.67 6.45 7.92 8.14 12.33z" fill="#4a7573"/><path d="M232.42 139c1.46-4.75 3-9.57 5.59-13.77 2.14-3.4 5.39-6.52 9.39-6.78 5.2-.34 9.46 4.25 11.51 9-1.92-2.08-3.93-4.22-6.54-5.31s-6-.82-7.79 1.38a9.62 9.62 0 00-1.56 3.79c-2.69 10.91-3.89 22.34-8.7 32.5-2.21 4.65-8.51 10.17-9.11 2.55-.51-6.42 5.29-17.13 7.21-23.36zM209.64 205.93c-5.36 1.6-10.47 4.87-13.06 9.83-1.53 2.93-2.1 6.25-2.65 9.51l-3.59 21.42c4.95-3.61 7.67-9.46 11.48-14.26s10.09-8.86 15.82-6.67c1.59.6 3.21 1.68 4.85 1.21 2.07-.61 2.67-3.2 2.91-5.35.47-4.18 3.15-12.42-.27-15.91s-11.68-.92-15.49.22z" fill="#4a7573"/><path d="M253.57 204.78c4.95 1.34 9.73 4 12.6 8.25 2.55 3.79 3.37 8.44 4.13 12.94-3.67-4.74-7.48-9.6-12.67-12.58s-12.18-3.69-17-.07c-3.45 2.6-10.51 10.62-15.85 7.85-3.43-1.78-2-4.37-.28-7.27 5.76-9.78 19-11.85 29.07-9.12zM246.35 273.47c5 4.62 10.07 9.27 14.29 14.63 9.36 11.9 14.29 26.81 24.47 37.9-3.64-3.76-7.36-7.58-12-10.05-3.37-1.8-7.15-2.84-10.3-5-10.49-7.19-11.48-24.73-23.38-29.23a3.1 3.1 0 00-2.13-.21c-3.46 1.27-3.25 6.12-8.33 4.65-4.07-1.18-4.32-4.52-3.19-7.87 3.22-9.38 14.07-10.8 20.57-4.82zM238.19 327.21a24.68 24.68 0 003.72 4.64c2 1.74 4.66 2.55 6.87 4 4.23 2.82 6.47 7.74 8.51 12.4.16-4.55-2-8.81-4.31-12.74a153.51 153.51 0 00-14-20 15.67 15.67 0 00-5.18-4.59c-2.11-1-4.89-.91-6.49.78-4.08 4.3 8.69 12.37 10.88 15.51z" fill="#4a7573"/><path d="M233.17 168.74l4.68-7c.48-.71 1.08-1.5 1.94-1.51a2.44 2.44 0 011.42.6c8.48 6.14 8.85 18.79 15.38 27 1.5 1.88 3.33 3.52 4.47 5.64 3.28 6.1-.14 13.52 0 20.44.09 5.9 2.78 11.42 5.42 16.7l4.69 9.41M205.92 151.91c-4.4 1.22-9 2.55-12.28 5.72-3.6 3.47-5.12 8.69-8.8 12.07-3.44 3.18-8.5 4.48-11.25 8.27s-2.4 9.15-1.85 13.92a10.86 10.86 0 002.41-5.69" fill="none" stroke="#7c8c03" stroke-miterlimit="10"/><path d="M228 160.8v-1.69c-.25.42-.45.88-.71 1.3 2.22-11 12.6-19.76 12.35-31 0-1.12.27-2.69 1.38-2.59" fill="none"/><path d="M228.56 160.8c-.71-6.19 4.68-11.22 6.84-17.06 1.9-5.17 1.44-11.44 5.18-15.48l-.7 1.48M216.63 212.44c-3.74-.8-7.85-1.54-11.19.31s-5 5.93-6.24 9.64l-4.39 12.84M232.87 209.61a16.54 16.54 0 0114.4-2.65M172.4 294.89a24.21 24.21 0 003.06-27.33M247.59 279.5a132.1 132.1 0 0023.71 31.72M232.45 316.69c1.51 3.06 4.89 4.59 7.68 6.55a23.78 23.78 0 018.29 10.34M221.81 331.39a23 23 0 01-16.61-6.86c-.79-.81-1.69-1.75-2.83-1.68-1.46.1-2.21 1.78-2.53 3.22a29.49 29.49 0 00-.36 10.84c.29 1.89.77 3.75.89 5.65a19.17 19.17 0 01-4.75 13.28 34.52 34.52 0 01-11.52 8.54l1 .84M234.65 369l5.1 1.77c3.45 1.19 7.16 2.58 9.19 5.62 1.8 2.69 1.91 6.19 1.32 9.38s-1.81 6.22-2.49 9.38c-1.56 7.39-.07 15.05 1.41 22.45l-.26-2.72" fill="none" stroke="#7c8c03" stroke-miterlimit="10"/><path d="M224.69 173.18c-1.12-3.23-2.08-6.5-2.95-9.78s-1.69-6.6-2.37-9.92-1.24-6.67-2.22-9.92a48.25 48.25 0 00-4-9.33 64.18 64.18 0 00-5.59-8.34 42.19 42.19 0 00-7.08-6.93 34.46 34.46 0 00-8.53-5 35 35 0 00-4.78-1.51 11.36 11.36 0 01-4.72-2.13l.12-.16a12.79 12.79 0 004.8 1.3 30.47 30.47 0 015.1 1 29.71 29.71 0 019.3 4.76 35.79 35.79 0 017.28 7.47 42.86 42.86 0 015.08 9c1.35 3.17 2.47 6.39 3.6 9.61s2.28 6.45 3.22 9.73 1.6 6.62 2.26 10 1.22 6.7 1.63 10.09z" fill="#fbb03b"/><path d="M224.9 172.33a7.23 7.23 0 01-.45-3.91 13.13 13.13 0 011.23-3.77 24.41 24.41 0 012-3.37l1.14-1.6c.42-.5.85-1 1.28-1.49a38.13 38.13 0 012.74-2.8c.45-.47 1-.88 1.46-1.3l1.47-1.29a77 77 0 016.26-4.66l1.64-1.07 1.72-.95a34.78 34.78 0 013.52-1.73c1.19-.55 2.43-1 3.65-1.45s2.5-.79 3.78-1.08a42.12 42.12 0 0115.57-.78v.1a57.38 57.38 0 00-15.31 1.71 55.87 55.87 0 00-14.27 5.72 40.32 40.32 0 00-6.34 4.44 45.41 45.41 0 00-5.24 5.68l-1.21 1.5c-.37.52-.74 1.05-1.13 1.56a23.85 23.85 0 00-2.09 3.21c-1.2 2.2-2.07 4.76-1.36 7.29z" fill="#fbb03b"/><g data-name="Masorcas"><g data-name="elote"><path d="M245.78 263.65c-4.48 7.77-10.36 13-14 12.68a2.94 2.94 0 01-1-.25l-.23-.12c-3.34-1.93-2-10.5 3-19.19l.07-.12c5-8.73 11.83-14.24 15.19-12.3 3.18 1.84 2.1 9.75-2.37 18-.18.46-.44.88-.66 1.3z" fill="#fbb03b"/><path d="M231.82 276.33a19.76 19.76 0 001.82-2.66 19.21 19.21 0 002.43-6.85c.58-3.95-.29-7.64-2.48-10-5 8.69-6.33 17.26-3 19.19l.23.12z" fill="#4a7573"/><path d="M231.82 276.33c3.6.3 9.48-4.91 14-12.68.25-.42.48-.84.7-1.27-3.46-.32-7.3 1.33-10.41 4.43a19.38 19.38 0 00-3.16 4.12 19.62 19.62 0 00-2.08 5.14z" fill="#4a7573"/></g></g><g data-name="Masorcas"><g data-name="elote"><path d="M246.78 358.65c-4.48 7.77-10.36 13-14 12.68a2.94 2.94 0 01-1-.25l-.23-.12c-3.34-1.93-2-10.5 3-19.19l.07-.12c5-8.73 11.83-14.24 15.19-12.3 3.18 1.84 2.1 9.75-2.37 18-.18.46-.44.88-.66 1.3z" fill="#fbb03b"/><path d="M232.82 371.33a19.76 19.76 0 001.82-2.66 19.21 19.21 0 002.43-6.85c.58-3.95-.29-7.64-2.48-10-5 8.69-6.33 17.26-3 19.19l.23.12z" fill="#4a7573"/><path d="M232.82 371.33c3.6.3 9.48-4.91 14-12.68.25-.42.48-.84.7-1.27-3.46-.32-7.3 1.33-10.41 4.43a19.38 19.38 0 00-3.16 4.12 19.62 19.62 0 00-2.08 5.14z" fill="#4a7573"/></g></g><g data-name="Masorcas"><g data-name="elote"><path d="M223.56 192.65c1.93 8.76 1.11 16.56-1.76 18.77a2.83 2.83 0 01-.9.49l-.26.06c-3.76.83-8.54-6.4-10.73-16.18v-.13c-2.16-9.85-.86-18.5 2.92-19.33 3.59-.79 8.13 5.78 10.42 14.91.09.46.2.93.31 1.41z" fill="#fbb03b"/><path d="M221.8 211.42a21.24 21.24 0 00-.44-3.19 19.25 19.25 0 00-2.84-6.69c-2.24-3.31-5.37-5.45-8.61-5.74 2.19 9.78 7 17 10.73 16.18l.26-.06z" fill="#4a7573"/><path d="M221.8 211.42c2.86-2.21 3.69-10 1.76-18.77-.11-.48-.22-1-.34-1.41-2.78 2.09-4.5 5.9-4.7 10.29a19.65 19.65 0 00.45 5.17 19.89 19.89 0 001.93 5.2z" fill="#4a7573"/></g></g><g data-name="Masorcas"><g data-name="elote"><path d="M222.78 252.65c4.49 7.77 6.06 15.46 4 18.43a3.13 3.13 0 01-.71.74l-.22.14c-3.34 1.92-10.09-3.53-15.12-12.19l-.07-.12c-5-8.73-6.42-17.37-3.06-19.3 3.18-1.84 9.5 3.05 14.43 11.06.26.41.51.82.75 1.24z" fill="#fbb03b"/><path d="M226.78 271.08a20.82 20.82 0 00-1.39-2.91 19.26 19.26 0 00-4.72-5.52c-3.13-2.47-6.76-3.57-9.93-2.87 5 8.66 11.78 14.11 15.12 12.19l.22-.14z" fill="#4a7573"/><path d="M226.78 271.08c2.06-3 .49-10.66-4-18.43-.24-.42-.49-.83-.75-1.24-2 2.84-2.5 7-1.37 11.23a20.11 20.11 0 005.4 9.17z" fill="#4a7573"/></g></g></g><g data-name="Corn 3"><path fill="none" stroke="#4a7573" stroke-linecap="round" stroke-miterlimit="10" stroke-width="8" d="M356.2 477.79l-1.69-267.89"/><path d="M389.43 195.9c3.05-.31 6.21-.48 9.13.49 5 1.65 9.32 6.57 14.53 5.62a43.81 43.81 0 00.35 36.5 32.53 32.53 0 01-18.72-28.77c0-1.34 0-2.81-.78-3.88-1.24-1.63-3.7-1.48-5.72-1.15q-11.31 1.83-22.53 4.06c-3.8.76-12.07 4.86-10.18-.93 3.01-9.23 26.4-11.18 33.92-11.94zM323.55 320.36c-3.8 2.35-6.56 6-9.22 9.63l-9.85 13.32c-1.72 2.32-3.5 4.8-3.77 7.68a16.15 16.15 0 001 6l4.59 15.49.56-13.66a17 17 0 011-5.94c2.41-5.73 9.76-7 15.23-9.93 3.91-2.11 7.1-5.35 10.92-7.62 3.61-2.16 8.19-3.35 12.14-1.42 2.46 1.21 5.52 8 7.93 8.13 3.72.23 2.57-3.8 1.84-6.93-1.1-4.67-3.87-10.5-8.4-12.7-3.17-1.55-7.9-1.78-11.2-2.68-4.8-1.31-8.15-2.24-12.77.63z" fill="#4a7573"/><path d="M344.18 193.45c-4.87-6.53-11.24-12.18-18.94-14.82a19 19 0 00-9.57-1 10.9 10.9 0 00-7.74 5.35c2.17-4.94 8.58-6 14-6.38l7.42-.53a22.14 22.14 0 016.14.15 17.55 17.55 0 016.78 3.52c7.51 5.79 16.13 16.94 16.3 27 .21 13.88-12.1-10.23-14.39-13.29z" fill="#4a7573"/><path d="M344.41 201.51a15.9 15.9 0 00-9 2.38c-3.68 2.45-5.78 6.76-6.66 11.09-2.42 11.91 3.13 23.93 3.54 36.07.22 6.68-1.12 13.31-2.45 19.86 4.88-9 9.9-18.53 9.37-28.73-.22-4.33-1.45-8.54-2.15-12.82s-.84-8.85 1-12.78 6.14-7 10.41-6.15c-.43 6.35 8.66 9.55 9.39 1.93.67-7.06-7.73-10.76-13.45-10.85zM366.85 233.08c2.58-4.24 5.21-8.54 8.81-12 2.91-2.76 6.83-5 10.77-4.25 5.12.95 8.12 6.45 8.92 11.59-1.34-2.49-2.76-5.06-5-6.76s-5.63-2.28-7.89-.58a9.61 9.61 0 00-2.45 3.28c-5.29 9.92-9.28 20.7-16.44 29.36-3.28 4-10.75 7.76-9.46.23 1.07-6.34 9.34-15.29 12.74-20.87zM336.57 394.12c-5 4.62-10.07 9.27-14.29 14.63-9.28 11.85-14.28 26.81-24.47 37.94 3.64-3.76 7.36-7.58 12-10.05 3.37-1.8 7.15-2.84 10.3-5 10.49-7.19 11.47-24.73 23.38-29.23a3.1 3.1 0 012.13-.21c3.45 1.27 3.25 6.12 8.33 4.64 4.06-1.17 4.32-4.51 3.19-7.86-3.21-9.42-14.07-10.84-20.57-4.86zM370.6 360.35q3.87-20.48 9.49-40.57c1.09-3.91 2.24-7.87 2.29-11.93a22.72 22.72 0 00-9.14-18.3c-3-2.22-14.78-7.07-16.62-1.16-.85 2.72 3.62 5.35 4.66 7.29 1.85 3.47 2.09 8.1 2.78 11.93a477.13 477.13 0 016.54 52.74z" fill="#4a7573"/><path d="M328.1 258.35c-9 1.11-15.79 8.34-21.79 15.11l-12.69 14.33c4.61-3.5 11-3 16.6-4.52 4.74-1.27 9-4 13.38-6.12s9.4-3.79 14.19-2.73c2.65.59 5.06 2 7.62 2.85s5.56 1.22 7.88-.19c5.78-3.54 3.64-11-.73-13.46-5.89-3.38-17.73-6.11-24.46-5.27zM379.42 349.24c3.14-4.36 7.58-9.26 12.82-8.09a12.57 12.57 0 014.68 2.53 61.54 61.54 0 0117.67 21.46c-8.51-2.76-13.38-13.56-22.31-14.1a5.74 5.74 0 00-3.49.72c-1.78 1.15-2.34 3.45-2.77 5.52-2.25 10.65-5.77 21.78-14.15 28.73-2.91 2.42-6.63 4.29-10.38 3.74-11.54-1.69-2.82-11.67.49-16.28zM370.49 414.55c1.11 1 2.17 2.11 3.23 3.2 3.75 3.83 7.73 8.18 7.92 13.53a39.23 39.23 0 00-17.17-31.16 10.76 10.76 0 00-4.6-2c-5.35-.63-5.56 4.56-3.19 7.58 2.72 3.47 10.26 5.56 13.81 8.85z" fill="#4a7573"/><path d="M368.81 290.17c4.21 9.25 4.24 19.77 4.18 29.93 0 7.55-.08 15.19-1.91 22.52M337 321.64c-3.86-.14-7.32 2.46-9.75 5.46s-4.22 6.51-6.85 9.34c-3.17 3.41-7.36 5.62-11.3 8.09a14.82 14.82 0 00-5.35 4.89c-1.4 2.5-1.36 5.53-1.28 8.4 0 1.32.49 3.08 1.82 3.08M365.06 371.71a38.59 38.59 0 0014.67-14.38 59.11 59.11 0 014.24-7.16c1.71-2.19 4.15-4 6.92-4.16 3.35-.18 6.3 2 8.91 4.13l8.33 6.68M350 399.25c-2.35-3.31-6.76-5.77-10.44-4.07a11.67 11.67 0 00-4.11 3.92c-8.71 11.75-15.7 24.91-26.08 35.23M366.76 404a32.53 32.53 0 019.83 15M341.26 261.83a15.75 15.75 0 00-14.58.33c-5.21 2.93-8.24 8.53-12.4 12.83a31 31 0 01-14.42 8.38l-.18 1.83M358.5 250.35c5.33-2.34 7.86-8.3 10.38-13.54a100 100 0 018.53-14.46M399.16 199.37c4.79 7.56.53 18.19 4.76 26.07 1.23 2.27 3.11 4.17 4.16 6.54M334.89 249.6l-2.16-25.89c-.22-2.66-.42-5.45.66-7.88a13.49 13.49 0 014.31-5 43.31 43.31 0 017.8-4.86 1.54 1.54 0 01.5 1.79M350.17 198.78a27.77 27.77 0 00-21.1-22.4" fill="none" stroke="#7c8c03" stroke-miterlimit="10"/><path d="M355.6 205c.62-6.56-2.41-12.86-5.65-18.59-5.14-9.11-11.31-18.09-20.26-23.51l1.68 1.45" fill="none"/><path d="M355.46 205a41.87 41.87 0 00-1.43-6.08c-.6-2-1.38-3.83-2.1-5.78s-1.28-4-2.17-5.95a27.86 27.86 0 00-3.36-5.4c-2.77-3.26-5.34-6.56-8.19-9.57a96.31 96.31 0 00-8.82-8.79l.69-.95q.72.85 1.38 1.77l-.19.23a57.9 57.9 0 01-2-1.11l.69-1a29.2 29.2 0 0110.61 7.65 44.91 44.91 0 017 11 46.49 46.49 0 003.13 5.61 60.25 60.25 0 013.6 5.44 20.59 20.59 0 012 6.32 14.2 14.2 0 01-.52 6.61z" fill="#fbb03b"/><path d="M355.19 203.21a54.8 54.8 0 0110.23-21c1.78-2.24 3.85-4.42 6.57-5.31" fill="none"/><path d="M355.09 203.19a15.79 15.79 0 01.46-4.07 16.88 16.88 0 011.33-3.85c.63-1.21 1.49-2.3 2.13-3.48a35.15 35.15 0 001.72-3.67 23.44 23.44 0 011.86-3.63 25.85 25.85 0 012.35-3.35 15.42 15.42 0 013.09-2.82 8.34 8.34 0 013.93-1.49l.06.19a21.71 21.71 0 00-5.43 5.47c-.79 1-1.64 2-2.45 3.07s-1.62 2.09-2.47 3.12a15.75 15.75 0 00-2.08 3.39 32.44 32.44 0 00-1.16 3.83 17.15 17.15 0 01-.67 1.86c-.23.62-.48 1.22-.74 1.83a34.47 34.47 0 01-1.73 3.65z" fill="#fbb03b"/><path d="M354.57 203.82a72.93 72.93 0 00-64.43-13.63l2.82-.42" fill="none"/><path d="M354.54 203.86a96.36 96.36 0 00-14.54-8.74c-1.29-.56-2.56-1.2-3.85-1.8s-2.62-1.08-3.95-1.58-2.71-.88-4.07-1.26-2.77-.64-4.16-.93a84.22 84.22 0 00-16.97-1.29 82.38 82.38 0 00-16.83 2.11l-.08-.37 2.85-.28v.1l-2.81.55-.07-.37a60.47 60.47 0 0116.9-2.8 66 66 0 0117 1.89c1.38.38 2.76.73 4.14 1.07s2.74.82 4.11 1.22 2.7.91 4.06 1.37 2.67 1 4 1.61a55.21 55.21 0 0114.28 9.42z" fill="#fbb03b"/><path d="M355.42 201.39c-3-4.51-3.47-10.42-2-15.65s4.59-9.86 8.27-13.84c6.58-7.13 15.93-12.73 25.53-11.38l.13 1.57" fill="none"/><path d="M355.38 201.41a15.72 15.72 0 01-3-7.14 20.05 20.05 0 01.36-7.79 27 27 0 013.11-7.11 53.22 53.22 0 014.43-6.33 38.23 38.23 0 0111.79-10 23.39 23.39 0 0115.11-2.67h.12V162.05h-.1l-.22-1.57.12.13a23.85 23.85 0 00-7.54.6 31.14 31.14 0 00-7 2.73 45.31 45.31 0 00-11.91 9.38 31 31 0 00-4.51 6.17 26.43 26.43 0 00-2.59 7.13 20.69 20.69 0 001.87 14.69z" fill="#fbb03b"/><g data-name="Masorcas"><g data-name="elote"><path d="M374.82 395.3c-6.74 5.92-14 9-17.29 7.54a2.94 2.94 0 01-.86-.55l-.18-.19c-2.54-2.89 1.47-10.58 9-17.22l.11-.09c7.57-6.66 15.77-9.7 18.33-6.8s-1.14 9.92-8 16.33c-.39.33-.75.68-1.11.98z" fill="#fbb03b"/><path d="M357.53 402.84a20.86 20.86 0 002.58-1.93 19.36 19.36 0 004.49-5.72c1.8-3.56 2.17-7.33.85-10.3-7.5 6.64-11.51 14.33-9 17.22l.18.19z" fill="#4a7573"/><path d="M357.53 402.84c3.32 1.44 10.55-1.62 17.29-7.54.36-.32.72-.65 1.06-1-3.17-1.42-7.34-1.08-11.27.86a20.16 20.16 0 00-7.93 7.1z" fill="#4a7573"/></g></g><g data-name="Masorcas"><g data-name="elote"><path d="M350.37 312.74c4.22 7.91 5.55 15.65 3.39 18.55a2.81 2.81 0 01-.74.72l-.22.13c-3.4 1.81-10-3.85-14.72-12.67l-.06-.13c-4.75-8.89-5.84-17.57-2.43-19.39 3.24-1.74 9.4 3.37 14.07 11.53.24.41.47.83.71 1.26z" fill="#fbb03b"/><path d="M353.76 331.29a20.48 20.48 0 00-1.29-3 19.27 19.27 0 00-4.54-5.67c-3.05-2.58-6.64-3.79-9.84-3.19 4.75 8.82 11.32 14.48 14.72 12.67l.19-.1z" fill="#4a7573"/><path d="M353.76 331.29c2.16-2.9.83-10.64-3.39-18.55-.24-.43-.47-.85-.71-1.26-2.11 2.77-2.73 6.9-1.74 11.18a19.56 19.56 0 001.83 4.85A20.23 20.23 0 00353 332z" fill="#4a7573"/></g></g><g data-name="Masorcas"><g data-name="elote"><path d="M349.37 248.74c4.22 7.91 5.55 15.65 3.39 18.55a2.81 2.81 0 01-.74.72l-.22.13c-3.4 1.81-10-3.85-14.72-12.67l-.06-.13c-4.75-8.89-5.84-17.57-2.43-19.39 3.24-1.74 9.4 3.37 14.07 11.53.24.41.47.83.71 1.26z" fill="#fbb03b"/><path d="M352.76 267.29a20.48 20.48 0 00-1.29-3 19.27 19.27 0 00-4.54-5.67c-3.05-2.58-6.64-3.79-9.84-3.19 4.75 8.82 11.32 14.48 14.72 12.67l.19-.1z" fill="#4a7573"/><path d="M352.76 267.29c2.16-2.9.83-10.64-3.39-18.55-.24-.43-.47-.85-.71-1.26-2.11 2.77-2.73 6.9-1.74 11.18a19.56 19.56 0 001.83 4.85A20.23 20.23 0 00352 268z" fill="#4a7573"/></g></g></g><path data-name="Quelite roots" d="M85 459.77a30.59 30.59 0 0132.7-7.48c5.54 2.16 10.28 5.91 15.29 9.1 12.69 8.08 29.29 12.61 42.7 5.81 4.35-2.2 8.15-5.5 12.76-7.05 11.84-4 25 4.42 37.07 1.08 4.76-1.33 8.94-4.42 13.8-5.28 7.91-1.39 15.43 3.32 22.51 7.12a115.08 115.08 0 0032.36 11.54c4.26.83 10.35.11 10.64-4.23a5.9 5.9 0 00-7.94 2.5c4.21 2.92 10 1.67 14.65-.5s9.1-5.19 14.21-5.59c4.87-.39 9.55 1.66 14.2 3.14a62.33 62.33 0 0028.42 2.12c3.74-.59 8.27-2.54 8.22-6.32-3.32-2.21-7.25 1.88-8.84 5.53s-4.13 8.27-8 7.51" fill="none" stroke="#7c8c03" stroke-miterlimit="10"/><path data-name="Pumpkin roots" d="M37.79 465.77a8 8 0 00-9.94-2.14c-1.72.95-3 2.53-4.76 3.48s-4.26 1-5.29-.67c-1.35-2.2 1-4.8 3.27-6.1a43.75 43.75 0 0143.88.45c5.77 3.53 11.54 8.66 18.26 7.79 7.94-1 13.71-10.3 21.66-9.35 2 .25 3.91 1.16 5.91 1.57 12.66 2.6 23.35-15.15 35.76-11.55 3.22.93 5.84 3.21 8.55 5.19a54.14 54.14 0 0020.51 9.14c6.2 1.31 13.67 1.08 17.61-3.89 2.93-3.69 3-8.86 4.78-13.22s7.65-8 11-4.67c1.31 1.28 1.74 3.18 2.34 4.92 2.55 7.46 8.83 12.92 14.85 18 1.12.95 2.37 1.95 3.84 2 3.72.08 5.18-5.67 8.85-6.17 2.35-.33 4.29 1.62 6.2 3 7.45 5.37 18.64 3.24 25.7 9.12 3.71 3.08 6.69 8.44 11.49 7.95 7-.73 6.34-11.85 11.5-16.69 4.66-4.37 12.09-2.12 18.35-.82 11.55 2.41 23.51.57 35.17-1.27 3.57-.57 7.51-1.35 9.67-4.25s.45-8.35-3.14-8c-3.2.35-4.28 4.87-2.74 7.69s4.55 4.46 7.05 6.49c4.71 3.79 7.46 12 2.45 15.38" fill="none" stroke="#324001" stroke-miterlimit="10"/><g data-name="Chilli plant"><path d="M64.12 378.51c7.67 4 14.68 9.79 18.41 17.58 3.16 6.57 3.78 14 4.5 21.29a502.5 502.5 0 008.66 55.23" fill="none" stroke="#324001" stroke-width="2"/><path d="M66.85 386.3c-2.67 1.21-3.89 4.24-5.43 6.73a20.7 20.7 0 01-6.92 6.79" fill="none"/><path d="M66.91 386.44a24.06 24.06 0 00-2.13 3.84 21.1 21.1 0 01-2.63 3.82 18.78 18.78 0 01-3.45 3.45 19.18 19.18 0 01-4.12 2.4l-.16-.26a22 22 0 003.25-3.22 23.21 23.21 0 002.47-3.68c.69-1.28 1-2.86 2.14-4.15a7.78 7.78 0 011.94-1.75 4.34 4.34 0 012.57-.72z" fill="#ed1c24"/><path d="M66.5 386.09a15.28 15.28 0 005.89-2.09" fill="none"/><path d="M66.5 386a19.18 19.18 0 002.92-1 13.31 13.31 0 011.37-.67 6.31 6.31 0 011.58-.34v.09a3.55 3.55 0 01-1.2 1.15 5.15 5.15 0 01-1.53.53 12.79 12.79 0 01-3.18.41z" fill="#7c8c03"/><path d="M89 403.47c2-.27 4.25-.52 6.07.47a7.63 7.63 0 013.08 3.76 16.63 16.63 0 011.29 9 3.76 3.76 0 01-.85 2.16" fill="none"/><path d="M89 403.37a10.13 10.13 0 012.84-.84 6.55 6.55 0 013.17.27 5.54 5.54 0 012.6 2 12.5 12.5 0 011.39 2.79 17.18 17.18 0 011.07 5.78 16.65 16.65 0 01-.25 2.91 4.47 4.47 0 01-1.19 2.72l-.14-.14a4.37 4.37 0 00.67-2.6 16 16 0 00-.13-2.77 16.17 16.17 0 00-1.55-5.22 7.91 7.91 0 00-3.29-3.58c-1.37-.74-3.27-.78-5.21-1.07z" fill="#ed1c24"/><path d="M86.32 406.22a8.13 8.13 0 002.9-3.32" fill="none"/><path d="M86.31 406.2a6.55 6.55 0 011.58-1.53 1.61 1.61 0 00.39-.39 4.87 4.87 0 00.21-.53 2.59 2.59 0 01.71-.86 1.8 1.8 0 01-.4 1.07c-.14.14-.3.25-.43.39a2.46 2.46 0 00-.31.48 2.5 2.5 0 01-1.77 1.4z" fill="#7c8c03"/><path d="M70.82 389a2.1 2.1 0 00-2.2.45 10.41 10.41 0 00-2.62 3.4 21.86 21.86 0 01-2.24 3.69 8.58 8.58 0 01-4.19 2.74" fill="none"/><path d="M70.74 389.17a1.27 1.27 0 00-.77.41 4.08 4.08 0 00-.5.6c-.27.44-.59.94-.86 1.42-.52 1-1.43 1.89-2.19 3.06a12 12 0 01-2.87 3.24 8.72 8.72 0 01-3.94 1.57l-.08-.29a8.72 8.72 0 003-2.38 13.08 13.08 0 001.78-3.28c.51-1.2.8-2.71 2-3.82a5.52 5.52 0 012.08-1.31 3.2 3.2 0 011.35-.16 1.61 1.61 0 011.18.68z" fill="#1a2601"/><path d="M70.05 388.71a1.82 1.82 0 001.72-.34 15.2 15.2 0 011.48-1.09 2.64 2.64 0 012.66.17c.11.07.22.21.14.31" fill="none"/><path d="M70.07 388.67a8.55 8.55 0 001.38-.58 3.26 3.26 0 00.8-.3 3.38 3.38 0 00.64-.62 2.17 2.17 0 011.83-.69 2 2 0 01.93.38 1.5 1.5 0 01.36.35.72.72 0 01.16.26c0 .09 0 .27-.08.32l-.08-.06c0-.09-.16-.08-.28-.09l-.39-.06h-.72a4.84 4.84 0 00-1.44.1 1.36 1.36 0 00-.72.4c-.21.21-.32.52-.56.75a1.53 1.53 0 01-.93.36 1.05 1.05 0 01-.94-.39z" fill="#7c8c03"/><path d="M61.71 374.55a2.31 2.31 0 00-3-.52c-1.1.71-1.36 2.18-2.09 3.25-.87 1.28-2.4 2-3.33 3.22a8.88 8.88 0 013-1.37 3.82 3.82 0 012.48.08 6.26 6.26 0 001.66.82 1.37 1.37 0 001.4-.86c.2-.53-.11-.79-.19-1.25s0-.41.23-.94a2.36 2.36 0 00-.16-2.43z" fill="#1a2601"/><path d="M61.59 377.61a2 2 0 011.62.32 7.75 7.75 0 01.88.84 3.89 3.89 0 001.38.83" fill="none"/><path d="M61.58 377.56a1 1 0 011.26-.28c.2.13.32.38.47.52a1.36 1.36 0 00.52.31 2 2 0 01.53.26 4.32 4.32 0 01.42.27 3.84 3.84 0 01.71.91v.09a1.51 1.51 0 01-1.3-.13 1.84 1.84 0 01-.71-1 .65.65 0 00-.32-.44 1.27 1.27 0 00-.55 0 2.11 2.11 0 01-1-.41z" fill="#7c8c03"/><path d="M85.71 427.55a2.31 2.31 0 00-3-.52c-1.1.71-1.36 2.18-2.09 3.25-.87 1.28-2.4 2-3.33 3.22a8.88 8.88 0 013-1.37 3.82 3.82 0 012.48.08 6.26 6.26 0 001.66.82 1.37 1.37 0 001.4-.86c.2-.53-.11-.79-.19-1.25s0-.41.23-.94a2.36 2.36 0 00-.16-2.43z" fill="#1a2601"/><path d="M84.59 429.61a2 2 0 011.62.32 7.75 7.75 0 01.88.84 3.89 3.89 0 001.38.83" fill="none"/><path d="M84.58 429.56a1 1 0 011.26-.28c.2.13.32.38.47.52a1.36 1.36 0 00.52.31 2 2 0 01.53.26 4.32 4.32 0 01.42.27 3.84 3.84 0 01.71.91v.09a1.51 1.51 0 01-1.3-.13 1.84 1.84 0 01-.71-1 .65.65 0 00-.32-.44 1.27 1.27 0 00-.55 0 2.11 2.11 0 01-1-.41z" fill="#7c8c03"/><path d="M89 413.48a1.54 1.54 0 012-.35c.74.47.91 1.47 1.41 2.2s1.62 1.33 2.25 2.17a5.74 5.74 0 00-2-.92 2.54 2.54 0 00-1.68.05c-.38.17-.7.5-1.12.55a.92.92 0 01-.95-.58c-.13-.36.08-.53.13-.85s0-.27-.15-.63a1.54 1.54 0 01.11-1.64z" fill="#1a2601"/><path d="M89.77 414.87a1.44 1.44 0 00-1.1.22 7.81 7.81 0 00-.59.56 2.55 2.55 0 01-.93.56" fill="none"/><path d="M89.76 414.92c-.31.29-.41.41-.61.39s-.27-.13-.38-.09-.17.17-.19.31a1 1 0 01-.44.76.94.94 0 01-1 0v-.09a2 2 0 01.38-.74.84.84 0 01.28-.15 1.25 1.25 0 01.4-.13.64.64 0 00.39-.2c.1-.1.16-.32.3-.43a.62.62 0 01.9.3z" fill="#7c8c03"/><path d="M140.76 399.64a1.55 1.55 0 011.69 1.16c.19.86-.38 1.69-.53 2.55-.19 1 .22 2.09.09 3.13a6.15 6.15 0 00-.8-2.07 2.59 2.59 0 00-1.23-1.13 4.49 4.49 0 01-1.19-.39.92.92 0 01-.27-1.08c.16-.35.42-.33.68-.52s.21-.18.34-.56a1.55 1.55 0 011.22-1.09z" fill="#1a2601"/><path d="M140.33 401.16a1.41 1.41 0 00-.94-.61 4.48 4.48 0 00-.82 0 2.58 2.58 0 01-1-.26" fill="none"/><path d="M140.29 401.19c-.43 0-.58 0-.71-.15s-.1-.28-.21-.33a.33.33 0 00-.35.09 1 1 0 01-.85.24.93.93 0 01-.67-.71v-.09a1.82 1.82 0 01.79-.26 1.22 1.22 0 01.3.08 1.49 1.49 0 01.38.19.68.68 0 00.41.14 2.53 2.53 0 01.52-.1.61.61 0 01.43.84z" fill="#7c8c03"/><path d="M109.25 406.7a54 54 0 0128.83-6.2M88.08 425.67c-.4-5.33 9.17-11.11 12.92-13.82" fill="none" stroke="#324001"/><path d="M124.3 403.45A5.51 5.51 0 01128 407a14.87 14.87 0 01.4 3.89 6 6 0 001.13 3.68 4.24 4.24 0 003.33 1.37 6.5 6.5 0 003.44-1.25 1.06 1.06 0 01.68-.27" fill="none"/><path d="M124.33 403.35a5.08 5.08 0 014.6 3.36c.76 2 .15 3.88.38 5.44a4 4 0 00.79 2.09 3.43 3.43 0 001.94 1.13 4.69 4.69 0 002.43-.1 6.74 6.74 0 001.2-.46l.58-.31a1.12 1.12 0 01.71-.2v.2c-.36 0-.67.44-1.05.67a7.52 7.52 0 01-1.21.68 5.61 5.61 0 01-2.8.51 4.67 4.67 0 01-2.73-1.23 5.37 5.37 0 01-1.41-2.69c-.43-1.93-.4-3.73-.72-5.13a6.36 6.36 0 00-2.75-3.77z" fill="#1a2601"/><path d="M124.62 403.56a1.62 1.62 0 00-.67-.26c-.33 0-.67 0-1-.05a1.29 1.29 0 01-1-1.27" fill="none"/><path d="M124.6 403.58a5.68 5.68 0 01-.8-.08 1.47 1.47 0 00-.42-.13 2.29 2.29 0 00-.45 0 1.09 1.09 0 01-.89-.44.92.92 0 01-.06-1 2.55 2.55 0 00.44.64 2.23 2.23 0 00.52.49.61.61 0 00.4.09c.14 0 .28-.09.44-.12a.81.81 0 01.8.46z" fill="#7c8c03"/></g><g data-name="Chilli plant"><path d="M387.55 405.07c-6 3.11-11.47 7.66-14.39 13.74-2.46 5.14-3 11-3.51 16.64a395.58 395.58 0 01-6.77 43.16" fill="none" stroke="#324001" stroke-width="2"/><path d="M385.48 411a3.31 3.31 0 012.16.43 5.85 5.85 0 011.63 1.35c.92 1 1.1 2.28 1.61 3.28a19 19 0 001.83 2.9 17.58 17.58 0 002.44 2.61l-.16.26a14.44 14.44 0 01-3.32-1.79 14.72 14.72 0 01-2.8-2.67 13.09 13.09 0 01-2.11-2.95 33.8 33.8 0 00-1.4-3.15z" fill="#ed1c24"/><path d="M385.68 411.05a9.31 9.31 0 01-2.51-.25 3.5 3.5 0 01-1.22-.4 2.46 2.46 0 01-.89-1l.05-.08a3.59 3.59 0 011.27.17 6.22 6.22 0 011.06.54 16.15 16.15 0 002.26.91z" fill="#7c8c03"/><path d="M368.12 424.68a15.2 15.2 0 00-4 1 5.42 5.42 0 00-1.35 1.05 6.46 6.46 0 00-1.14 1.61 12.35 12.35 0 00-1.27 4 12.74 12.74 0 00-.14 2.15 3.37 3.37 0 00.47 2l-.14.14a3.49 3.49 0 01-.94-2.09 12.53 12.53 0 01-.24-2.29 13.38 13.38 0 01.79-4.58 9.23 9.23 0 011.07-2.22 4.31 4.31 0 012.11-1.65 5 5 0 012.56-.17 7.23 7.23 0 012.23.79z" fill="#ed1c24"/><path d="M370.19 426.75a1.66 1.66 0 01-1.4-1.07 1.33 1.33 0 00-.23-.38c-.1-.11-.25-.19-.36-.3a1.14 1.14 0 01-.28-.85 1.6 1.6 0 01.59.66 2.3 2.3 0 00.14.42.89.89 0 00.31.3 3.29 3.29 0 011.22 1.21z" fill="#7c8c03"/><path d="M382.25 413.17a1.26 1.26 0 011-.64 2.45 2.45 0 011.15.07 4.48 4.48 0 011.76 1c1 .88 1.15 2.13 1.52 3.07a10.62 10.62 0 001.27 2.57 6.73 6.73 0 002.24 1.94l-.08.29a6.59 6.59 0 01-3.18-1.14 9.37 9.37 0 01-2.36-2.52 18.58 18.58 0 01-1.74-2.31c-.18-.37-.39-.76-.54-1.12-.09-.17-.18-.35-.29-.52a1 1 0 00-.57-.44z" fill="#1a2601"/><path d="M382.94 413.09a.81.81 0 01-.76.38 1.09 1.09 0 01-.75-.28c-.19-.2-.26-.47-.41-.64a.92.92 0 00-.58-.29 5.72 5.72 0 00-1.09 0h-1.08l-.08.07c-.2-.16 0-.41 0-.51a1.34 1.34 0 01.27-.31 1.67 1.67 0 01.76-.33 1.62 1.62 0 011.47.6 1.71 1.71 0 00.49.51 2 2 0 00.65.18c.39.12.53.34 1 .52z" fill="#7c8c03"/><path d="M389.44 402a1.8 1.8 0 012.33-.41c.85.56 1.05 1.7 1.63 2.55s1.87 1.54 2.6 2.51a7 7 0 00-2.33-1.07 3 3 0 00-1.94.06 4.57 4.57 0 01-1.29.64 1.07 1.07 0 01-1.1-.67c-.15-.42.09-.61.15-1s0-.31-.18-.73a1.83 1.83 0 01.13-1.88z" fill="#1a2601"/><path d="M389.52 404.42c-.36.28-.49.4-.73.4s-.31-.12-.44-.07a.47.47 0 00-.23.36 1.24 1.24 0 01-.53.84 1.09 1.09 0 01-1.08 0v-.09a2.45 2.45 0 01.49-.79 1.45 1.45 0 01.32-.2 1.39 1.39 0 01.44-.17.89.89 0 00.44-.23c.11-.12.19-.34.35-.46a.72.72 0 011 .29z" fill="#7c8c03"/><path d="M370.68 443.4a1.81 1.81 0 012.32-.4c.86.55 1.06 1.7 1.63 2.54.68 1 1.88 1.55 2.61 2.52a6.81 6.81 0 00-2.34-1.07 2.9 2.9 0 00-1.9.01 4.91 4.91 0 01-1.3.64 1.08 1.08 0 01-1.1-.67c-.15-.42.09-.62.15-1s0-.32-.17-.73a1.81 1.81 0 01.1-1.84z" fill="#1a2601"/><path d="M371.54 445.06c-.35.28-.49.4-.72.39s-.31-.11-.44-.06a.45.45 0 00-.23.35 1.26 1.26 0 01-.53.85 1.14 1.14 0 01-1.08 0v-.1a2.29 2.29 0 01.49-.79 1.42 1.42 0 01.32-.19 1.39 1.39 0 01.44-.17.85.85 0 00.43-.23c.12-.12.2-.35.36-.47a.73.73 0 011 .3z" fill="#7c8c03"/><path d="M368.1 432.4a1.22 1.22 0 00-1.58-.27c-.58.37-.71 1.15-1.1 1.71s-1.27 1.05-1.76 1.7a4.73 4.73 0 011.58-.72 2 2 0 011.31 0c.29.14.55.4.87.43a.71.71 0 00.74-.45c.11-.28-.06-.41-.1-.66s0-.21.12-.5a1.23 1.23 0 00-.08-1.24z" fill="#1a2601"/><path d="M367.5 433.44a.48.48 0 01.73-.31c.12.1.15.31.23.4s.16.12.29.12a.84.84 0 01.37.07 1.12 1.12 0 01.22.11 1.59 1.59 0 01.23.66v.1a.77.77 0 01-.83.11.75.75 0 01-.23-.28.66.66 0 01-.07-.34c0-.14-.05-.25-.14-.29s-.23.09-.31.13-.18-.08-.44-.38z" fill="#7c8c03"/><path d="M327.66 421.58a1.23 1.23 0 00-1.32.91c-.15.67.29 1.32.42 2s-.18 1.63-.07 2.44a4.46 4.46 0 01.62-1.61 2 2 0 011-.89 3.18 3.18 0 00.93-.31.71.71 0 00.21-.84c-.12-.27-.33-.25-.53-.4s-.16-.14-.26-.44a1.25 1.25 0 00-1-.86z" fill="#1a2601"/><path d="M328 422.75a.49.49 0 01.3-.74c.16 0 .33.11.44.13s.2 0 .3-.12a.64.64 0 01.31-.2.56.56 0 01.24-.08 1.63 1.63 0 01.62.3l.05.1a.74.74 0 01-.52.65.63.63 0 01-.36 0 .89.89 0 01-.29-.2c-.1-.08-.21-.14-.3-.1s-.1.22-.13.3-.18.08-.58 0z" fill="#7c8c03"/><path d="M352.29 427.11a42.18 42.18 0 00-22.54-4.85M368.83 441.93c.31-4.17-7.17-8.68-10.1-10.8" fill="none" stroke="#324001"/><path d="M340.55 424.66a5.25 5.25 0 00-1.95 3c-.2 1-.23 2.42-.59 4a4.38 4.38 0 01-1.17 2.17 3.83 3.83 0 01-2.22 1 4.49 4.49 0 01-2.23-.44 5.19 5.19 0 01-.94-.56c-.3-.19-.55-.52-.8-.54v-.2a.94.94 0 01.58.15l.45.23a5.58 5.58 0 00.94.34 3.56 3.56 0 001.86 0 2.62 2.62 0 001.43-.87 3 3 0 00.55-1.57c.15-1.17-.38-2.63.26-4.28a3.92 3.92 0 013.8-2.58z" fill="#1a2601"/><path d="M340.26 424.63a.6.6 0 01.63-.4 3.66 3.66 0 00.35.12.39.39 0 00.3-.08 2.66 2.66 0 00.37-.39 2.87 2.87 0 00.39-.46h.05a.71.71 0 010 .79.81.81 0 01-.73.34.81.81 0 00-.68.11 1.81 1.81 0 01-.63 0z" fill="#7c8c03"/></g><path d="M441 510.15c-6.73-.44-13.44-1.18-20.13-2.27-18.58-3-36.9-8.81-55.72-8.42-18.07.39-35.69 6.48-53.77 6.47-21.33 0-42.35-8.56-63.51-5.92-9.53 1.19-18.74 4.63-28.33 5.07-17.12.77-33.4-8-50.52-8.54s-33.58 7.27-50.61 6.43c-20-1-39.1-13.77-58.79-10-8.06 1.53-15.57 5.78-23.77 6.13s-17.72-5.87-16.23-13.94c1.38-7.49 10.59-9.54 16.59-12 7.37-3 14.73-8.71 22.92-9.09 8.46-.4 17.18-.23 25.4 2.27 15.21 4.62 29.41 13.5 45.3 14.31 15.67.79 30.75-6.43 46.43-6.9 14.76-.43 29.17 5.14 43.94 5.05 14.48-.08 29-5.6 43.18-2.77 9.39 1.87 17.83 7.27 27.27 8.9 25 4.32 47.81-18.4 73.13-17.22 18.37.85 34.08 14.12 52.27 16.77 8.29 1.21 16.6.15 24.94-1" fill="#42210b"/><g data-name="Pumpkin 2"><path d="M292.77 471.89a9.48 9.48 0 0113.12-3c3.3 2.28 4.94 6.62 8.58 8.32 4.21 2 9.1-.4 13-3s8.22-5.47 12.77-4.56a8.59 8.59 0 016.67 8.39c-.15 4.91-4.42 8.58-8.48 11.34-3.59 2.45-8 4.82-12.1 3.32s-6.68-6.82-11.17-7.25c-3.27-.31-5.88 2.09-9 2.55-2.8.41-6.22-.76-8.67-2.17-4.49-2.56-7.43-9.13-4.72-13.94z" fill="#f7931e"/><path d="M301.86 474.7c3.29 2.44 6.68 4.93 10.62 6a28.82 28.82 0 007.35.81 14.39 14.39 0 005.95-.83c2.15-.94 3.76-2.82 5.79-4a10.4 10.4 0 015.95-1.4M323.94 484.75a8 8 0 007.58 1.07 15.65 15.65 0 003.62-2.2l4.65-3.46" fill="none" stroke="#f15a24" stroke-miterlimit="10" stroke-width=".75"/><path d="M296.22 478a7 7 0 014.27.4c1.16.65 1.84 1.89 2.72 2.88a8.59 8.59 0 004.89 2.74" fill="none" stroke="#f15a24" stroke-miterlimit="10"/><ellipse cx="343.58" cy="474.2" rx=".52" ry="1.59" transform="rotate(-36.42 343.602 474.23)" fill="#f15a24"/><path d="M296.71 471.42l-.19-.4a7.12 7.12 0 00-1.42-2.19 2.38 2.38 0 00-2.41-.62c-.76.3-1.24 1.1-2 1.39-.05 0-.08.06-.11.09a.11.11 0 01-.14 0s.05-.1.07-.06" fill="none"/><path d="M296.66 471.44a4.87 4.87 0 01-1.3-1.67 2.91 2.91 0 00-.47-.91 1.37 1.37 0 00-.91-.39 2.6 2.6 0 00-.88.12 2.81 2.81 0 00-.71.42 6.69 6.69 0 01-.92.59 2.27 2.27 0 01-.59.19c-.16 0-.06-.07-.22 0a.23.23 0 01-.3 0 .14.14 0 010-.2s.15 0 .16.05h-.09c0 .05.09.08.06 0l-.05-.06s0-.07.08-.14a.8.8 0 00.14-.11l.34-.33a5.63 5.63 0 01.72-.78 2.16 2.16 0 011.19-.52 1.84 1.84 0 011.23.29c.35.21.63.45 1 .66a6.05 6.05 0 01.94.68 3.16 3.16 0 01.71 2.11z" fill="#1a2601"/></g><g data-name="Pumpkin plant 1"><g data-name="Pumpkin 1"><path d="M143 462.25c5.15-2.74 11.21-3 17-3.37s11.95-1.21 16.54-4.81c4.39-3.43 7.1-9.22 12.4-10.93a13.32 13.32 0 014.87-.5c6.93.44 13.66 4.73 16.35 11.14s.78 14.62-4.86 18.68c-6.16 4.43-14.53 3.29-22.08 2.58-2-.19-4.09-.31-5.79.72-1.92 1.16-2.78 3.44-3.82 5.43a22.27 22.27 0 01-22.07 11.39c-15.36-2.06-25.05-21.58-8.54-30.33z" fill="#f7931e"/><path d="M146.38 473.24c2.43-5.14 8.45-7.52 14.09-8.22s11.44-.19 16.91-1.74A23.61 23.61 0 00192 451.14M197.89 459.21a16.55 16.55 0 01-1.17 8.08 6.36 6.36 0 01-3.37 3.78 7.67 7.67 0 01-3.57.09l-8.17-1.07a12.77 12.77 0 00-4.18-.09c-4.36.88-6.44 5.71-9.15 9.23a20.07 20.07 0 01-9.95 6.88M166.33 470.86a25.94 25.94 0 00-15.39 8" fill="none" stroke="#f15a24" stroke-miterlimit="10"/><ellipse cx="141.45" cy="484.66" rx="1.24" ry="3.75" transform="rotate(-36.42 141.479 484.677)" fill="#f15a24"/><path d="M205.8 451.54a4.51 4.51 0 01-.74.46l-.1-.63c.67-.21 1.22-.47 1.93-.67a2 2 0 001.25-1.61 7.9 7.9 0 00.25-2 14.44 14.44 0 00-.09-2.13l.09-.05a3.22 3.22 0 011 2.14 3.66 3.66 0 01-.63 2.34c-.52.66-1.11 1.1-1.6 1.74a2.38 2.38 0 01-2.16.87l-.11-.63a4.44 4.44 0 01.88.06z" fill="#324001"/></g><path d="M254.17 464.63a11.84 11.84 0 01-.42 3.6 7.52 7.52 0 001.27 5.16 8.5 8.5 0 011.22 1.78 3.91 3.91 0 01.25 1.69 4.79 4.79 0 01-2.18 3.76c-1.29.82-4.7.1-4.84 2.53-.13-1-.84-5.65-2.28-5.39-.49-.07-1 .09-1.46.05 2.4-1.55-3.34-3.17-4-3.27.77-1 3.81-4 2.66-5.76a1 1 0 00-1.06-.49 2.66 2.66 0 002.44-2.07c.12-.52 0-5.28-.28-5.21a14.22 14.22 0 002.65-.72c.73-.33 1.27-1 2.14-.74 1.31.37 3.61 3.36 3.89 5.08z" fill="#7c8c03"/><path d="M252.82 466.61a8.26 8.26 0 01-.35 2.55 5 5 0 00.92 3.63 5.69 5.69 0 01.9 1.25 2.54 2.54 0 01.17 1.19 3.46 3.46 0 01-1.67 2.67c-1 .59-3.56.11-3.68 1.83-.09-.72-.59-4-1.68-3.79-.37 0-.73.08-1.1.05 1.83-1.11-2.49-2.21-3-2.27.59-.69 2.91-2.83 2.06-4.09a.72.72 0 00-.8-.34 2 2 0 001.86-1.48 14.19 14.19 0 00-.16-3.68 12.65 12.65 0 002-.53c.55-.24 1-.71 1.62-.55 1 .25 2.72 2.35 2.91 3.56z" fill="#324001"/><path d="M249.85 471.9c-.65.21-1.27.38-1.88.57s-1.24.29-1.86.49c-1.24.39-2.45.91-3.67 1.42v-.07a29.54 29.54 0 013.5-1.91 7.11 7.11 0 011.91-.67 5 5 0 012 .09z" fill="#1a2601"/><path d="M249.6 472.11a1.68 1.68 0 00-.8-.91c-.32-.2-.74-.45-1.12-.72-.78-.49-1.57-1-2.34-1.53v-.1l.15.11v.06l-.17-.07.06-.1c.87.34 1.73.72 2.59 1.09a4 4 0 011.29.69 1.3 1.3 0 01.4 1.49z" fill="#1a2601"/><path d="M249.81 471.78a2.31 2.31 0 010 1.25 2.89 2.89 0 01-.62 1.07 3.74 3.74 0 01-2 1.37v-.07a4 4 0 001.49-1.63c.16-.33.25-.68.42-1a6.1 6.1 0 01.61-1zM250.65 470.59l-.63-1.74c-.22-.55-.37-1.13-.63-1.67a5.89 5.89 0 00-2.42-2.64v-.07a5.63 5.63 0 012.91 2.41 5.27 5.27 0 01.83 1.76 4.15 4.15 0 010 1.95zM251.07 472.48a4 4 0 01.68 1.72 2.23 2.23 0 01-.61 1.88c-.46.48-1 .75-1.27 1.2a2.2 2.2 0 00-.31.78 2.45 2.45 0 01-.15.43.44.44 0 01-.37.3v-.08c.27-.07.28-.43.31-.7a2.58 2.58 0 01.2-.91 8.94 8.94 0 011.14-1.4 2.38 2.38 0 00.32-1.45v-1.75z" fill="#1a2601"/><ellipse cx="250.25" cy="471.1" rx="1.17" ry="2.08" transform="rotate(-10.08 250.398 471.281)" fill="#1a2601"/><path d="M265.23 476.81a13.72 13.72 0 011.37-3.36 8.65 8.65 0 00.39-5.35 9.32 9.32 0 01-.52-2.08 4.49 4.49 0 01.27-1.7 4.73 4.73 0 012.89-3c1.31-.42 4 1.26 4.77-1.05-.17 1-.88 5.71.4 5.87.39.2.84.2 1.24.37-2.46.81 1.91 4 2.47 4.33-.92.71-4.32 2.72-3.86 4.8.1.47.41.79.75.79a2.31 2.31 0 00-2.63 1.29c-.25.47-1.48 5.11-1.24 5.12a10.89 10.89 0 00-2.42-.07c-.71.11-1.35.58-2 .1-1.04-.75-2.11-4.31-1.88-6.06z" fill="#7c8c03"/><path d="M266.92 475.29a9.16 9.16 0 011-2.36 5.64 5.64 0 00.25-3.77 7.19 7.19 0 01-.41-1.48 3.09 3.09 0 01.2-1.2 3.37 3.37 0 012.16-2.1c1-.29 3 .92 3.6-.71-.12.72-.63 4 .34 4.15.3.14.64.14.94.27-1.85.55 1.47 2.85 1.9 3.06-.69.5-3.25 1.9-2.89 3.37a.66.66 0 00.58.56 1.77 1.77 0 00-2 .89 16.91 16.91 0 00-.9 3.61 9.32 9.32 0 00-1.83-.07c-.53.08-1 .4-1.52.06-.75-.57-1.6-3.05-1.42-4.28z" fill="#324001"/><path d="M270.91 471h1.74c.56 0 1.13.07 1.7.06 1.15 0 2.31-.19 3.48-.32v.07a22.29 22.29 0 01-3.45.85 6.09 6.09 0 01-1.81.09 3.82 3.82 0 01-1.7-.68z" fill="#1a2601"/><path d="M271.19 470.9a1.94 1.94 0 00.43 1.09l.72 1c.52.72 1 1.43 1.53 2.18l-.08.07-.09-.14.05-.05.13.12-.09.08c-.65-.61-1.29-1.23-1.93-1.86a3.53 3.53 0 01-.9-1.07 1.35 1.35 0 01.16-1.47z" fill="#1a2601"/><path d="M270.91 471.16a2.09 2.09 0 01.26-1.16 2.73 2.73 0 01.81-.85 3.33 3.33 0 012.12-.82v.07a3.61 3.61 0 00-1.72 1.18c-.22.27-.37.59-.6.84a6 6 0 01-.81.77zM269.88 472.07c.05.64.05 1.23.08 1.83s0 1.18 0 1.77a6 6 0 001.27 3.31l-.05.06a5.71 5.71 0 01-1.81-3.27 5.31 5.31 0 01-.19-1.9 4.09 4.09 0 01.6-1.82zM270.05 470.12a4 4 0 01-.14-1.8 2.43 2.43 0 011-1.64c.55-.38 1.12-.48 1.49-.85a2.34 2.34 0 00.48-.65 3.11 3.11 0 01.25-.38.43.43 0 01.42-.2v.08c-.25 0-.34.35-.45.59a2.43 2.43 0 01-.41.82c-.42.51-1 .71-1.38 1.06a2.84 2.84 0 00-.64 1.34c-.17.51-.29 1.07-.52 1.64z" fill="#1a2601"/><ellipse cx="270.35" cy="471.69" rx="2.1" ry="1.03" transform="rotate(-82.56 270.361 471.694)" fill="#1a2601"/><path d="M254.75 472c1.21 0 2.23.87 3.35 1.34a5.59 5.59 0 005.1-.45 7.67 7.67 0 011.9-1.14 2.87 2.87 0 011.64.07 5.32 5.32 0 013.2 3.59c.56 1.81-.7 6 1.58 6.67-1-.07-5.5-.2-5.5 1.67-.14.6-.08 1.24-.19 1.85-1.07-3.38-3.58 3.5-3.78 4.37-.79-1.2-3.11-5.7-5-4.66a1.31 1.31 0 00-.65 1.24c0-1.41-.23-2.8-1.55-3.55-.47-.27-5-1.16-5-.81a23.93 23.93 0 00-.23-3.5c-.19-1-.72-1.82-.34-2.87.56-1.61 3.79-3.82 5.47-3.82z" fill="#7c8c03"/><path d="M256.4 474.16c.85 0 1.57.66 2.36 1a3.69 3.69 0 003.59-.34 5.36 5.36 0 011.34-.86 1.84 1.84 0 011.16 0 3.91 3.91 0 012.25 2.72c.4 1.36-.49 4.5 1.12 5-.7 0-3.88-.15-3.88 1.26-.1.46 0 .94-.14 1.4-.75-2.55-2.51 2.65-2.66 3.31-.56-.91-2.19-4.31-3.54-3.52a1 1 0 00-.45.93 2.91 2.91 0 00-1.09-2.68c-.34-.2-3.53-.88-3.52-.62a21.3 21.3 0 00-.16-2.65c-.14-.75-.51-1.37-.25-2.17.41-1.12 2.68-2.81 3.87-2.78z" fill="#324001"/><path d="M260.92 479.09c.1.85.15 1.67.23 2.49s.07 1.64.14 2.46c.17 1.65.46 3.3.73 5H262a42.56 42.56 0 01-1.25-4.88 12 12 0 01-.3-2.53 7.77 7.77 0 01.44-2.52z" fill="#1a2601"/><path d="M261.07 479.44c-.54 0-.76.42-1 .81s-.55.86-.86 1.27c-.59.86-1.19 1.73-1.82 2.58l-.1-.05.13-.17h.07l-.1.19-.1-.06c.44-1 .92-1.91 1.39-2.85a6.16 6.16 0 01.81-1.42 2 2 0 01.74-.52.86.86 0 01.9.12z" fill="#1a2601"/><path d="M260.8 479.13a2.39 2.39 0 011.33.43 3.44 3.44 0 01.91 1.06 5.06 5.06 0 01.82 2.56h-.07a5.71 5.71 0 00-1.23-2.21c-.28-.31-.62-.54-.91-.83s-.58-.59-.88-1zM259.81 477.78c-.67.09-1.27.18-1.86.32a10.81 10.81 0 00-1.74.51 6 6 0 00-2.76 2.45h-.07a5.84 5.84 0 012.55-3 4.82 4.82 0 011.9-.71 3.58 3.58 0 012 .35zM261.66 477.69a3.62 3.62 0 012-.34 2.08 2.08 0 011 .46 2.68 2.68 0 01.62.88 8.45 8.45 0 00.8 1.65 2.14 2.14 0 00.7.54c.25.16.62.4.56.78h-.07c0-.31-.32-.45-.59-.57a2.42 2.42 0 01-.87-.48 8.24 8.24 0 01-1-1.62 2.1 2.1 0 00-1.26-.9c-.53-.16-1.15-.19-1.8-.31z" fill="#1a2601"/><ellipse cx="260.22" cy="478.4" rx="2" ry="1.5" fill="#1a2601"/><path d="M107.75 463c1.21 0 2.23.87 3.35 1.34a5.59 5.59 0 005.1-.45 7.67 7.67 0 011.9-1.14 2.87 2.87 0 011.64.07 5.32 5.32 0 013.2 3.59c.56 1.81-.7 6 1.58 6.67-1-.07-5.5-.2-5.5 1.67-.14.6-.08 1.24-.19 1.85-1.07-3.38-3.58 3.5-3.78 4.37-.79-1.2-3.11-5.7-5-4.66a1.31 1.31 0 00-.65 1.24c0-1.41-.23-2.8-1.55-3.55-.47-.27-5-1.16-5-.81a23.93 23.93 0 00-.23-3.5c-.19-1-.72-1.82-.34-2.87.56-1.61 3.79-3.82 5.47-3.82z" fill="#7c8c03"/><path d="M109.4 465.16c.85 0 1.57.66 2.36 1a3.69 3.69 0 003.59-.34 5.36 5.36 0 011.34-.86 1.84 1.84 0 011.16 0 3.91 3.91 0 012.25 2.72c.4 1.36-.49 4.5 1.12 5-.7 0-3.88-.15-3.88 1.26-.1.46 0 .94-.14 1.4-.75-2.55-2.51 2.65-2.66 3.31-.56-.91-2.19-4.31-3.54-3.52a1 1 0 00-.45.93 2.91 2.91 0 00-1.09-2.68c-.34-.2-3.53-.88-3.52-.62a21.3 21.3 0 00-.16-2.65c-.14-.75-.51-1.37-.25-2.17.41-1.12 2.68-2.81 3.87-2.78z" fill="#324001"/><path d="M113.92 470.09c.1.85.15 1.67.23 2.49s.07 1.64.14 2.46c.17 1.65.46 3.3.73 5H115a42.56 42.56 0 01-1.25-4.88 12 12 0 01-.3-2.53 7.77 7.77 0 01.44-2.52z" fill="#1a2601"/><path d="M114.07 470.44c-.54 0-.76.42-1 .81s-.55.86-.86 1.27c-.59.86-1.19 1.73-1.82 2.58l-.1-.05.13-.17h.07l-.1.19-.1-.06c.44-1 .92-1.91 1.39-2.85a6.16 6.16 0 01.81-1.42 2 2 0 01.74-.52.86.86 0 01.9.12z" fill="#1a2601"/><path d="M113.8 470.13a2.39 2.39 0 011.33.43 3.44 3.44 0 01.91 1.06 5.06 5.06 0 01.82 2.56h-.07a5.71 5.71 0 00-1.23-2.21c-.28-.31-.62-.54-.91-.83s-.58-.59-.88-1zM112.81 468.78c-.67.09-1.27.18-1.86.32a10.81 10.81 0 00-1.74.51 6 6 0 00-2.76 2.45h-.07a5.84 5.84 0 012.55-3 4.82 4.82 0 011.9-.71 3.58 3.58 0 012 .35zM114.66 468.69a3.62 3.62 0 012-.34 2.08 2.08 0 011 .46 2.68 2.68 0 01.62.88 8.45 8.45 0 00.8 1.65 2.14 2.14 0 00.7.54c.25.16.62.4.56.78h-.07c0-.31-.32-.45-.59-.57a2.42 2.42 0 01-.87-.48 8.24 8.24 0 01-1-1.62 2.1 2.1 0 00-1.26-.9c-.53-.16-1.15-.19-1.8-.31z" fill="#1a2601"/><ellipse cx="113.22" cy="469.4" rx="2" ry="1.5" fill="#1a2601"/><path d="M354.06 462.84a6.16 6.16 0 012.2-.57 3.53 3.53 0 002.41-2.13 4.76 4.76 0 01.54-1.29 1.8 1.8 0 01.85-.58 3.32 3.32 0 013 .63c1 .7 1.87 3.27 3.3 2.78-.53.34-2.86 1.95-2.17 2.9.16.36.43.66.6 1-1.8-1.31-.5 3.11-.29 3.62-.84-.31-3.7-1.72-4.27-.48a.81.81 0 00.13.87 2.32 2.32 0 00-2.11-1.22c-.34 0-3 1.28-2.83 1.45a16.37 16.37 0 00-1.42-1.68c-.47-.44-1-.66-1.25-1.33a5 5 0 011.31-3.97z" fill="#7c8c03"/><path d="M355.7 463.31a4.06 4.06 0 011.57-.36 2.34 2.34 0 001.69-1.52 3.33 3.33 0 01.36-.94 1.16 1.16 0 01.6-.4 2.46 2.46 0 012.16.53c.71.54 1.43 2.46 2.45 2.14-.37.23-2 1.37-1.49 2.08.12.27.32.5.45.76-1.33-1-.28 2.29-.11 2.67-.62-.25-2.72-1.36-3.11-.46a.63.63 0 00.12.64 1.82 1.82 0 00-1.56-.95 7 7 0 00-2 1 11 11 0 00-1.07-1.28c-.35-.33-.77-.51-.93-1a3.51 3.51 0 01.87-2.91z" fill="#324001"/><path d="M359.84 464.11a13.34 13.34 0 011.14 1.1c.35.37.63.8 1 1.2.68.79 1.41 1.54 2.14 2.3v.06a25.62 25.62 0 01-2.52-1.94 5.92 5.92 0 01-1.13-1.16 3.91 3.91 0 01-.62-1.52z" fill="#1a2601"/><path d="M360 464.26c-.22.28-.1.49-.09.78a4.89 4.89 0 010 .95c0 .66 0 1.32-.05 2h-.11v-.14h.07v.13h-.11c-.18-.64-.32-1.3-.46-2a2.83 2.83 0 01-.14-1 1.32 1.32 0 01.23-.57.54.54 0 01.58-.25z" fill="#1a2601"/><path d="M359.78 464.17a1.3 1.3 0 01.84-.4 1.68 1.68 0 01.88.23 3.1 3.1 0 011.36 1.08l-.06.05a3.79 3.79 0 00-1.47-.56 6 6 0 01-.74-.05 3.67 3.67 0 01-.8-.28zM358.78 463.89l-.72.94c-.22.29-.49.54-.7.86a3.74 3.74 0 00-.56 2.22h-.08a3.6 3.6 0 01.11-2.5 2.57 2.57 0 01.69-1.12 1.93 1.93 0 011.23-.48zM359.68 463.13a1.86 1.86 0 01.81-1 1.43 1.43 0 011.43.1 5.77 5.77 0 001 .57 1.27 1.27 0 00.53 0c.19 0 .48 0 .6.21h-.07c-.28-.25-.65.14-1.13.08a5.93 5.93 0 01-1.17-.39 1.28 1.28 0 00-.87 0c-.31.08-.65.26-1.07.39z" fill="#1a2601"/><ellipse cx="359.22" cy="464.03" rx="1.26" ry=".94" transform="rotate(-36.42 359.247 464.049)" fill="#1a2601"/><path d="M256.12 461.54A10.91 10.91 0 00264 461a8 8 0 004.4-6.38c1.13-.21 1.83 1.24 1.79 2.39-.05 2-1 3.77-1.13 5.71a6 6 0 002 5.16 4.42 4.42 0 005.34.21c.6-.46 1.14-1.15 1.9-1.17a1.62 1.62 0 011.4 2A3.53 3.53 0 01278 471c-2.11 1.36-4.67 1.79-7.15 2.22s-5 .91-7.11 2.33-3.5 4.05-2.74 6.45c-1.05.43-2.25-.4-2.77-1.42a32.46 32.46 0 01-1-3.26 6 6 0 00-3.87-3.59 11.6 11.6 0 00-5.49.21c-.88.17-3 .93-3.43-.43s1.1-1.83 2-2.13c1.48-.49 2.66-.54 3.69-1.92 1.17-1.59 2.17-4.55.88-6.26a20.15 20.15 0 00-1.91-1.9c-2.12-2.15-.58-4.27 2-3.07 1.77.84 3.08 2.77 5.02 3.31z" fill="#fbb03b"/><path d="M258.93 464.52a6.46 6.46 0 004.65.38 4.73 4.73 0 003.14-3.31c.67 0 .94.89.82 1.56-.21 1.12-.91 2.1-1.18 3.21a3.58 3.58 0 00.7 3.19 2.63 2.63 0 003.09.61c.39-.22.77-.57 1.21-.51a.94.94 0 01.63 1.28 2.08 2.08 0 01-1.19 1.07 11.21 11.21 0 01-4.36.63 10.41 10.41 0 00-4.34.71 3.61 3.61 0 00-2.21 3.51c-.65.16-1.27-.44-1.48-1.08a16.16 16.16 0 01-.29-2 3.56 3.56 0 00-1.93-2.44A6.84 6.84 0 00253 471c-.52 0-1.85.26-1.95-.57s.8-1 1.35-1.05c.9-.15 1.6-.07 2.32-.78s1.68-2.45 1.08-3.56a10.43 10.43 0 00-.93-1.28c-1-1.44.05-2.54 1.45-1.6.95.63 1.54 1.84 2.61 2.36z" fill="#f7931e"/><path d="M260.05 467.61a2.91 2.91 0 002.05.17 2.07 2.07 0 001.38-1.46c.3 0 .42.39.37.68-.1.5-.41.93-.52 1.42a1.53 1.53 0 00.31 1.4 1.14 1.14 0 001.36.27c.17-.09.33-.25.53-.22a.43.43 0 01.28.57.92.92 0 01-.53.47 5 5 0 01-1.92.28 4.57 4.57 0 00-1.91.31 1.57 1.57 0 00-1 1.55c-.29.07-.57-.2-.66-.48a8.29 8.29 0 01-.13-.87 1.53 1.53 0 00-.85-1.08 3.05 3.05 0 00-1.41-.17c-.23 0-.81.12-.86-.24s.35-.43.6-.47.7 0 1-.34.74-1.08.48-1.57a4.54 4.54 0 00-.42-.56c-.45-.64 0-1.12.64-.71.48.28.74.83 1.21 1.05z" fill="#7c8c03"/><g data-name="Baby pumpkin"><ellipse cx="46.72" cy="470.9" rx="9.5" ry="9" fill="#324001"/><path d="M42.07 467.24a13.81 13.81 0 013.74-1M42.59 472.86a5 5 0 004.34 1.06" fill="none"/><path d="M42.24 466.23a12.78 12.78 0 003.21-.11M50.14 468.13h4M46.19 473.4h4.33M40.54 470.41a17.88 17.88 0 003.57-.44M43.37 476h3.76" fill="none" stroke="#7c8c03" stroke-miterlimit="10" stroke-width=".75"/><path d="M49.21 466a5.29 5.29 0 003-.19M40.34 474.08l3.6.36M49.4 476a3.46 3.46 0 003.6 0" fill="none" stroke="#1a2601" stroke-miterlimit="10" stroke-width=".75"/><path d="M58.93 473.26c2.31.56 4.19-2.37 6.56-2.28l-.26 3.83a.42.42 0 01-.59.47c-2.28-.28-4.52-.75-6.77-1.22-.55-.12-3.61-.33-2.95-1.6s3.15.59 4.01.8z" fill="#7c8c03"/><path d="M72.65 473.69a8.6 8.6 0 012 1.09 1.5 1.5 0 01.32 2 1.71 1.71 0 01-1.14.45 4.76 4.76 0 01-3.62-1.32 11.78 11.78 0 00-1.06-1.06 1.47 1.47 0 00-1.41-.27 8.5 8.5 0 00-.86.62c-2.32 1.37-3.4-3.25-1.6-4.49 2.64-1.81 5.36 1.91 7.37 2.98z" fill="#fbb03b"/></g></g><g data-name="Quelites 1"><path d="M100.86 335.82c-17.64-5.92-27.64-23.92-41.64-35.92-8-7-18-9-27.18-4.77a31.49 31.49 0 015-3.19c-1.59 1.14-3.3 2.15-5 3.19l1.88-2.13M108.37 379.52c10.85-5.62 28.85-8.62 26.85-24.62-1-11-11-18-21.71-17.48M117.62 463.23c-.31-3.27 3.19-5.46 5.41-7.19 3-2.3 5.45-4.49 5.71-8.5.52-8.13-7.44-13.86-14.5-15.53-10.58-2.49-26.92-.12-34-10.22-5.91-8.38-.86-18 5.36-24.45M108.37 269.2c12.85-.3 26.85-2.3 36.55-10.71M113.78 296.92C110.1 288.81 99.6 291 92.52 290c-2.72-.38-6.43-1.19-7.19-4.29-1-4.09 3.22-8.33 6.2-10.38" fill="none" stroke="#7c8c03" stroke-miterlimit="10"/><path d="M117.57 374.93c2.65-12-12.35-16-20.35-22-11-9-5-24 3.09-31.59M44.4 293.28a.8.8 0 00.35-.28 4.56 4.56 0 00.69-3.77 9.67 9.67 0 00-1.79-3.51" fill="none" stroke="#7c8c03" stroke-miterlimit="10"/><path d="M44.41 283.53a2.45 2.45 0 00-1.17-1.86 2.78 2.78 0 00-1.42-.3 1.21 1.21 0 00-.43.07 2.35 2.35 0 00-.37.24 3.65 3.65 0 01-2 .28c-.69 0-1.51.23-1.72.89a1.69 1.69 0 00.37 1.4 12 12 0 001.26 1.51c.72.78 1.64 1.6 2.69 1.45a3.45 3.45 0 002.79-3.68z" fill="#324001" stroke="#324001" stroke-miterlimit="10"/><path d="M38.52 283.15a9.65 9.65 0 002.64.88 4.56 4.56 0 012.43 1.28c.06.07.07.23 0 .2" fill="none"/><path d="M38.53 283.14c.89.38 1.84.52 2.78.83a6.23 6.23 0 011.37.55 3.14 3.14 0 01.6.43l.26.26c.07.06.21.27 0 .31.05 0 .05-.07 0-.12s-.07-.09-.11-.13a1.55 1.55 0 00-.27-.24 3 3 0 00-.61-.38 5.92 5.92 0 00-1.36-.47 6.4 6.4 0 01-2.75-1z" fill="#7c8c03"/><path d="M42.27 284.13a2 2 0 00-1-2.25" fill="none"/><path d="M42.26 284.13a4.68 4.68 0 00-.21-1.26 2 2 0 00-.82-1 1.91 1.91 0 011 .91 1.31 1.31 0 01.05 1.35z" fill="#7c8c03"/><path d="M40.93 284.07a1.71 1.71 0 01-.67 1.09c-.56.3-1.25-.11-1.65-.6h.33" fill="none"/><path d="M40.94 284.07a1.9 1.9 0 01-.21.8 1 1 0 01-.73.49 1.7 1.7 0 01-1.42-.78v-.06h.07l.33.05h-.33a1.59 1.59 0 001.34.6c.48-.1.69-.6 1-1.08z" fill="#7c8c03"/><path d="M43 285a1.93 1.93 0 01-1.31 1.13" fill="none"/><path d="M43 285a1 1 0 01-.48.79 1.76 1.76 0 01-.85.34 2.09 2.09 0 00.72-.47A6.93 6.93 0 0143 285z" fill="#7c8c03"/><path d="M141.4 261.28a.8.8 0 00.35-.28 4.56 4.56 0 00.69-3.77 9.67 9.67 0 00-1.79-3.51" fill="none" stroke="#7c8c03" stroke-miterlimit="10"/><path d="M141.41 251.53a2.45 2.45 0 00-1.17-1.86 2.78 2.78 0 00-1.42-.3 1.21 1.21 0 00-.43.07 2.35 2.35 0 00-.37.24 3.65 3.65 0 01-2 .28c-.69 0-1.51.23-1.72.89a1.69 1.69 0 00.37 1.4 12 12 0 001.26 1.51c.72.78 1.64 1.6 2.69 1.45a3.45 3.45 0 002.79-3.68z" fill="#324001" stroke="#324001" stroke-miterlimit="10"/><path d="M135.52 251.15a9.65 9.65 0 002.64.88 4.56 4.56 0 012.43 1.28c.06.07.07.23 0 .2" fill="none"/><path d="M135.53 251.14c.89.38 1.84.52 2.78.83a6.23 6.23 0 011.37.55 3.14 3.14 0 01.6.43 3.19 3.19 0 01.26.26c.07.06.21.27 0 .31s0-.07 0-.12-.07-.09-.11-.13a1.55 1.55 0 00-.27-.24 3 3 0 00-.61-.38 5.92 5.92 0 00-1.36-.47 6.4 6.4 0 01-2.75-1z" fill="#7c8c03"/><path d="M139.27 252.13a2 2 0 00-1-2.25" fill="none"/><path d="M139.26 252.13a4.68 4.68 0 00-.21-1.26 2 2 0 00-.82-1 1.91 1.91 0 011 .91 1.31 1.31 0 01.05 1.35z" fill="#7c8c03"/><path d="M137.93 252.07a1.71 1.71 0 01-.67 1.09c-.56.3-1.25-.11-1.65-.6h.33" fill="none"/><path d="M137.94 252.07a1.9 1.9 0 01-.21.8 1 1 0 01-.73.49 1.7 1.7 0 01-1.42-.78v-.06h.07l.33.05h-.33v-.05a1.59 1.59 0 001.34.6c.48-.1.69-.6.95-1.08z" fill="#7c8c03"/><path d="M140 253a1.93 1.93 0 01-1.31 1.13" fill="none"/><path d="M140 253a1 1 0 01-.48.79 1.76 1.76 0 01-.85.34 2.09 2.09 0 00.72-.47 6.93 6.93 0 01.61-.66z" fill="#7c8c03"/><path d="M131.68 265.5a.34.34 0 00-.09.19 2.17 2.17 0 00.5 1.77 4.43 4.43 0 001.5 1.14" fill="none" stroke="#7c8c03" stroke-miterlimit="10" stroke-width=".5"/><path d="M133.72 269.7a1.19 1.19 0 00.9.55 1.34 1.34 0 00.67-.17.52.52 0 00.17-.12.67.67 0 00.11-.18 1.78 1.78 0 01.81-.55c.3-.14.61-.41.56-.74a.84.84 0 00-.45-.53 7.26 7.26 0 00-.86-.38 1.44 1.44 0 00-1.91 2.12z" fill="#324001" stroke="#324001" stroke-miterlimit="10"/><path d="M136.34 268.62a4.52 4.52 0 00-1.32.18 2.2 2.2 0 01-1.32 0s-.08-.08 0-.09" fill="none"/><path d="M136.34 268.63a12.61 12.61 0 01-1.36.28 3.47 3.47 0 01-.72 0 1.36 1.36 0 01-.35-.07l-.17-.07s-.16-.08-.07-.14c0 .07.16.09.25.12h.34a3.21 3.21 0 00.68-.11 2.22 2.22 0 011.4-.1z" fill="#7c8c03"/><path d="M134.52 269a1 1 0 00.92.75" fill="none"/><path d="M134.53 269a3.08 3.08 0 01.38.46 1 1 0 00.53.28.93.93 0 01-.66-.15.51.51 0 01-.27-.61z" fill="#7c8c03"/><path d="M135.11 268.74a.78.78 0 01.06-.62c.17-.24.56-.21.83-.09l-.15.06" fill="none"/><path d="M135.1 268.74a.64.64 0 01-.13-.4.47.47 0 01.23-.4.82.82 0 01.82.07h.06-.22l.14-.01v.06a.71.71 0 00-.66.06c-.14.12-.14.33-.21.61z" fill="#7c8c03"/><path d="M134 268.78a.91.91 0 01.32-.76" fill="none"/><path d="M134 268.78a.33.33 0 010-.46.85.85 0 01.34-.31 1.22 1.22 0 00-.17.37.53.53 0 01-.15.38z" fill="#7c8c03"/><path d="M129.4 369.28a.8.8 0 00.35-.28 4.56 4.56 0 00.69-3.77 9.67 9.67 0 00-1.79-3.51" fill="none" stroke="#7c8c03" stroke-miterlimit="10"/><path d="M129.41 359.53a2.45 2.45 0 00-1.17-1.86 2.78 2.78 0 00-1.42-.3 1.21 1.21 0 00-.43.07 2.35 2.35 0 00-.37.24 3.65 3.65 0 01-2 .28c-.69 0-1.51.23-1.72.89a1.69 1.69 0 00.37 1.4 12 12 0 001.26 1.51c.72.78 1.64 1.6 2.69 1.45a3.45 3.45 0 002.79-3.68z" fill="#324001" stroke="#324001" stroke-miterlimit="10"/><path d="M123.52 359.15a9.65 9.65 0 002.64.88 4.56 4.56 0 012.43 1.28c.06.07.07.23 0 .2" fill="none"/><path d="M123.53 359.14c.89.38 1.84.52 2.78.83a6.23 6.23 0 011.37.55 3.14 3.14 0 01.6.43l.26.26c.07.06.21.27 0 .31s0-.07 0-.12-.07-.09-.11-.13a1.55 1.55 0 00-.27-.24 3 3 0 00-.61-.38 5.92 5.92 0 00-1.36-.47 6.4 6.4 0 01-2.75-1z" fill="#7c8c03"/><path d="M127.27 360.13a2 2 0 00-1-2.25" fill="none"/><path d="M127.26 360.13a4.68 4.68 0 00-.21-1.26 2 2 0 00-.82-1 1.91 1.91 0 011 .91 1.31 1.31 0 010 1.35z" fill="#7c8c03"/><path d="M125.93 360.07a1.71 1.71 0 01-.67 1.09c-.56.3-1.25-.11-1.65-.6h.33" fill="none"/><path d="M125.94 360.07a1.9 1.9 0 01-.21.8 1 1 0 01-.73.49 1.7 1.7 0 01-1.42-.78v-.06h.07l.33.05h-.33a1.59 1.59 0 001.34.6c.48-.1.69-.6 1-1.08z" fill="#7c8c03"/><path d="M128 361a1.93 1.93 0 01-1.31 1.13" fill="none"/><path d="M128 361a1 1 0 01-.48.79 1.76 1.76 0 01-.85.34 2.09 2.09 0 00.72-.47 6.93 6.93 0 01.61-.66z" fill="#7c8c03"/></g><g data-name="Quelites 3"><path d="M363.25 286c18.33-10.22 8-32.32 4.72-47.87M384.22 378c7-1.05 10-6.05 14-11.05a19.13 19.13 0 000-18c-10-14-27-11-42-9-18 3-35 7-52 2-7-2-12-6-14-12-2-7 1-13 6-18 16-13 36-17 54.62-21.43M332.17 397.73c4.6-5.45 12.17-9.74 18.94-11.78M376.26 465.61c4.4-.07 7.09-4.89 6.81-8.87-.35-5.11-4.72-8.92-8.71-11.52-10.87-7.07-22.25-7.57-34.74-8.57-6.15-.49-12.32-1.87-17-6.11" fill="none" stroke="#7c8c03" stroke-miterlimit="10"/><path d="M379.73 319.35c4.49-13.45 5.49-26.45 7.49-39.45 0-5 1-11 7-14 16-6 30 8 35.81 20.91" fill="none"/><path d="M379.73 319.35a124.93 124.93 0 004.52-19.56c1.06-6.62 1.79-13.28 2.78-19.92a20.79 20.79 0 011.39-8.21 12.28 12.28 0 012.3-3.53 12.71 12.71 0 013.39-2.51 22.11 22.11 0 0111.39-1.18 26.13 26.13 0 0110.59 4.44 39.62 39.62 0 018.34 7.91 47.93 47.93 0 016.05 9.79l-.91.41a47 47 0 00-5.83-9.65 39 39 0 00-8.1-7.82 25.37 25.37 0 00-10.25-4.43 21.57 21.57 0 00-11.08 1.05 12.28 12.28 0 00-3.26 2.37 11.32 11.32 0 00-2.23 3.36 20 20 0 00-1.43 8c-1.05 6.62-1.85 13.28-3 19.89a125.73 125.73 0 01-4.66 19.59z" fill="#7c8c03"/><path d="M359.59 336.72a29.09 29.09 0 008.63-3M332 397.66c-20.33-9.46-28.34-48.52-3.36-57 6.76-2.3 13.94-2.36 21-2.76" fill="none" stroke="#7c8c03" stroke-miterlimit="10"/><path d="M317.68 383.1a.4.4 0 01-.09-.21 2.34 2.34 0 01.61-1.89 5 5 0 011.67-1.16" fill="none" stroke="#7c8c03" stroke-miterlimit="10"/><path d="M320.06 378.66a1.24 1.24 0 011-.56 1.54 1.54 0 01.72.21.79.79 0 01.18.14c0 .06.07.13.11.2a1.87 1.87 0 00.85.62c.31.17.63.48.57.83a.88.88 0 01-.51.54 5.23 5.23 0 01-1 .38 1.73 1.73 0 01-1.58 0 1.78 1.78 0 01-.34-2.36z" fill="#324001" stroke="#324001" stroke-miterlimit="10"/><path d="M322.83 379.93a4.86 4.86 0 01-1.41-.25 2.45 2.45 0 00-1.42 0c-.05 0-.09.09 0 .1" fill="none"/><path d="M322.83 379.94a2.41 2.41 0 01-1.5-.18 3.64 3.64 0 00-.72-.13 1.51 1.51 0 00-.37 0c-.1 0-.3 0-.28.12-.08-.08.05-.14.09-.15l.18-.06a1.78 1.78 0 01.39-.07 3.35 3.35 0 01.77.07c.51.07 1 .24 1.45.35z" fill="#7c8c03"/><path d="M320.89 379.46a1 1 0 011-.77" fill="none"/><path d="M320.87 379.45a.58.58 0 01.33-.64 1.07 1.07 0 01.71-.14 1 1 0 00-.59.27 4.41 4.41 0 01-.42.49z" fill="#7c8c03"/><path d="M321.51 379.76a.93.93 0 000 .66c.18.27.59.25.9.13l-.16-.07" fill="none"/><path d="M321.53 379.76c.05.3 0 .53.19.68a.8.8 0 00.72.08v.06l-.16-.09H322.52h-.07a.87.87 0 01-.87 0 .5.5 0 01-.24-.43.8.8 0 01.15-.43z" fill="#7c8c03"/><path d="M320.36 379.66a1 1 0 00.32.84" fill="none"/><path d="M320.37 379.66a.68.68 0 01.15.42 1 1 0 00.17.41.91.91 0 01-.34-.36.36.36 0 010-.49z" fill="#7c8c03"/><path d="M378.2 448.35a.58.58 0 01.17-.29 3.44 3.44 0 012.74-1 7.31 7.31 0 012.86.87" fill="none" stroke="#7c8c03" stroke-miterlimit="10"/><path d="M385.51 447.05a1.84 1.84 0 011.55.62 2.16 2.16 0 01.41 1 .92.92 0 010 .33c0 .11-.09.21-.13.32a2.74 2.74 0 00.06 1.55 1.3 1.3 0 01-.44 1.41 1.34 1.34 0 01-1.1-.09 9.87 9.87 0 01-1.3-.74c-.68-.44-1.41-1-1.44-1.83a2.63 2.63 0 012.39-2.57z" fill="#324001" stroke="#324001" stroke-miterlimit="10"/><path d="M386.58 451.41a7.13 7.13 0 01-1-1.86 3.48 3.48 0 00-1.29-1.65h-.14" fill="none"/><path d="M386.57 451.42a4.32 4.32 0 01-1.13-1.92 5.3 5.3 0 00-.53-1 2.71 2.71 0 00-.36-.41 1.2 1.2 0 00-.21-.17c-.06-.06-.19-.1-.19 0 0-.15.19-.07.24 0a1.88 1.88 0 01.23.16 2.16 2.16 0 01.41.39 4.79 4.79 0 01.61.95c.36.66.59 1.34 1 2z" fill="#7c8c03"/><path d="M385.35 448.73a1.51 1.51 0 011.82.48" fill="none"/><path d="M385.34 448.72a.93.93 0 011-.16 1.44 1.44 0 01.81.64 1.48 1.48 0 00-.85-.47 6.1 6.1 0 00-1 0z" fill="#7c8c03"/><path d="M385.57 449.73a1.3 1.3 0 00-.73.65c-.15.46.25.92.67 1.15l-.07-.24" fill="none"/><path d="M385.58 449.74c-.31.28-.64.5-.66.85a1.22 1.22 0 00.6.92l-.05-.25.08.25v.07h-.07a1.3 1.3 0 01-.79-1 .71.71 0 01.31-.58 1.23 1.23 0 01.59-.25z" fill="#7c8c03"/><path d="M384.63 448.31a1.46 1.46 0 00-.67 1.13" fill="none"/><path d="M384.63 448.32a1.78 1.78 0 01-.39.53 1.68 1.68 0 00-.27.59 1.39 1.39 0 01.13-.69.62.62 0 01.55-.45z" fill="#7c8c03"/><path d="M383.74 339.13a.4.4 0 01-.1-.23 2.61 2.61 0 01.68-2.1 5.51 5.51 0 011.85-1.29" fill="none" stroke="#7c8c03" stroke-miterlimit="10"/><path d="M386.38 334.21a1.42 1.42 0 011.09-.63 1.62 1.62 0 01.8.24.5.5 0 01.2.15 1.19 1.19 0 01.12.22 2 2 0 001 .69c.35.19.7.53.63.92a1 1 0 01-.56.61 7.93 7.93 0 01-1.05.42 1.73 1.73 0 01-2.18-2.62z" fill="#324001" stroke="#324001" stroke-miterlimit="10"/><path d="M389.46 335.61a5.23 5.23 0 01-1.57-.27 2.58 2.58 0 00-1.58 0c-.05 0-.1.09 0 .1" fill="none"/><path d="M389.46 335.62a2.88 2.88 0 01-1.67-.2 4.29 4.29 0 00-.81-.15 1.79 1.79 0 00-.4 0c-.11 0-.34 0-.31.13-.09-.09.05-.16.1-.17l.2-.07a2 2 0 01.43-.06 4.07 4.07 0 01.85.07c.57.09 1.06.27 1.62.38z" fill="#7c8c03"/><path d="M387.3 335.09a1.15 1.15 0 011.13-.86" fill="none"/><path d="M387.28 335.08a.65.65 0 01.37-.7 1.15 1.15 0 01.78-.16 1.14 1.14 0 00-.65.29c-.16.19-.28.34-.47.55z" fill="#7c8c03"/><path d="M388 335.42a1 1 0 000 .74c.2.3.66.28 1 .14l-.18-.08" fill="none"/><path d="M388 335.42c.05.33 0 .6.21.77a.9.9 0 00.81.08v.06l-.17-.09.18.06h.07-.07a1 1 0 01-1 0 .55.55 0 01-.25-.47.82.82 0 01.15-.47z" fill="#7c8c03"/><path d="M386.71 335.32a1.11 1.11 0 00.36.92" fill="none"/><path d="M386.72 335.32a.81.81 0 01.15.47 1.37 1.37 0 00.21.44 1.07 1.07 0 01-.37-.39.42.42 0 010-.54z" fill="#7c8c03"/><path d="M337.08 293.8a.43.43 0 000-.25 2.61 2.61 0 00-1.41-1.69 5.54 5.54 0 00-2.2-.51" fill="none" stroke="#7c8c03" stroke-miterlimit="10"/><path d="M332.79 290.22a1.4 1.4 0 00-1.25-.17 1.6 1.6 0 00-.66.52.55.55 0 00-.12.21 1.09 1.09 0 000 .26 2 2 0 01-.62 1c-.25.31-.45.75-.24 1.08a1 1 0 00.75.36 8.52 8.52 0 001.13 0 1.73 1.73 0 001.05-3.25z" fill="#324001" stroke="#324001" stroke-miterlimit="10"/><path d="M330.45 292.67a5.05 5.05 0 001.36-.84 2.66 2.66 0 011.46-.6c.05 0 .12.06.08.09" fill="none"/><path d="M330.45 292.66c.47-.3.87-.66 1.36-1a4.19 4.19 0 01.76-.39 2.13 2.13 0 01.42-.1h.22s.2 0 .15.12c0-.1-.22 0-.33 0a2.23 2.23 0 00-.39.13 3.84 3.84 0 00-.69.44 2.9 2.9 0 01-1.47.82z" fill="#7c8c03"/><path d="M332.26 291.38a1.15 1.15 0 00-1.37-.37" fill="none"/><path d="M332.25 291.39l-.63-.34a1.18 1.18 0 00-.72 0 1.11 1.11 0 01.78-.14.64.64 0 01.6.51z" fill="#7c8c03"/><path d="M331.74 292a1 1 0 01.24.7c-.07.35-.51.51-.87.5l.13-.13" fill="none"/><path d="M331.75 291.94a.91.91 0 01.32.38.56.56 0 01-.06.54 1 1 0 01-.9.32H331l.06-.05.14-.12-.12.15v-.06a.86.86 0 00.71-.38c.1-.22 0-.46-.09-.78z" fill="#7c8c03"/><path d="M332.89 291.37a1.13 1.13 0 010 1" fill="none"/><path d="M332.9 291.37a.41.41 0 01.21.5.91.91 0 01-.19.5 1 1 0 000-.49.88.88 0 010-.49z" fill="#7c8c03"/><path d="M412.73 267.37a.71.71 0 00.17-.41 4.5 4.5 0 00-1.18-3.65 9.4 9.4 0 00-3.23-2.25" fill="none" stroke="#7c8c03" stroke-miterlimit="10"/><path d="M408.13 258.78a2.44 2.44 0 00-1.91-1.09 2.81 2.81 0 00-1.4.41 1.1 1.1 0 00-.34.26 2.16 2.16 0 00-.22.39 3.64 3.64 0 01-1.65 1.21c-.61.33-1.22.92-1.09 1.6a1.67 1.67 0 001 1.05 11.67 11.67 0 001.83.74c1 .34 2.2.63 3.06 0a3.46 3.46 0 00.72-4.57z" fill="#324001" stroke="#324001" stroke-miterlimit="10"/><path d="M402.76 261.23a10 10 0 002.74-.48 4.61 4.61 0 012.75 0c.08 0 .16.17.07.19" fill="none"/><path d="M402.76 261.22c1-.09 1.87-.42 2.84-.59a6.56 6.56 0 011.47-.17 3.57 3.57 0 01.73.1 2.47 2.47 0 01.36.11c.08 0 .31.14.17.26.06 0 0-.09 0-.13s-.1 0-.16-.06a2.25 2.25 0 00-.35-.09 3.48 3.48 0 00-.72 0 6.19 6.19 0 00-1.42.23 6.46 6.46 0 01-2.89.42z" fill="#7c8c03"/><path d="M406.53 260.31a2 2 0 00-2-1.48" fill="none"/><path d="M406.51 260.32a4.41 4.41 0 00-.77-1 1.93 1.93 0 00-1.19-.47 1.89 1.89 0 011.31.34 1.3 1.3 0 01.68 1.16z" fill="#7c8c03"/><path d="M405.31 260.89a1.73 1.73 0 01-.07 1.29c-.35.53-1.15.49-1.74.25l.31-.13" fill="none"/><path d="M405.32 260.89a1.73 1.73 0 01.19.81.93.93 0 01-.4.77 1.67 1.67 0 01-1.62 0h-.07.07l.31-.12-.29.15v-.06a1.61 1.61 0 001.47-.1c.37-.32.32-.86.32-1.4z" fill="#7c8c03"/><path d="M407.55 260.71a1.94 1.94 0 01-.63 1.62" fill="none"/><path d="M407.56 260.71a.94.94 0 010 .92 1.94 1.94 0 01-.59.71 2.17 2.17 0 00.41-.76 5.85 5.85 0 01.21-.85z" fill="#7c8c03"/></g><g data-name="Quelites 2"><path d="M243.71 413.14c-17.41-4.07-35.81-8.17-50.16-19.49-14.18-11.18-20.15-26.45-18.1-44.29 1.06-9.2 2.37-19.8 8.72-27M277.73 479.85c12.75.06 19.29-14.78 20.57-25.55 1.69-14.22-9.41-24.76-21.05-30.76-8.6-4.43-18.08-6.79-27.44-9M250.34 277.27c10.06.19 22.12 1.57 31-4 7.37-4.66 12.23-12.83 14.1-21.23 1.08-4.85.15-9.22 5.12-12M243.49 363.71c10.18 1.61 30.17 3.48 33.81-9.79 3.9-14.21-15.65-20.56-25.74-22.95-13.12-3.12-26.81-4.44-39.36-9.64-10.56-4.39-22.88-13.39-24.37-25.71-2-16.54 24.37-18.25 35.45-18.52" fill="none" stroke="#7c8c03" stroke-miterlimit="10"/><path d="M213.36 404.4c-10.51-8.72-14.61-29.3-3.72-39.32 3.84-3.54 9.09-5 14.23-4.85M223.25 238.59c-2.31-.89-7.28-3.31-9.45-1.07-3.16 3.27 2 9 5.36 9.32 5.12.51 9.26-5.93 11.5-9.72a56.37 56.37 0 006.13-16.19 95.84 95.84 0 002.13-23.1M237.84 250.74a26.42 26.42 0 00-6.62-7.69M263.73 334.85a.77.77 0 00.34-.28 4.56 4.56 0 00.69-3.77 9.8 9.8 0 00-1.78-3.51" fill="none" stroke="#7c8c03" stroke-miterlimit="10"/><path d="M263.73 325.1a2.45 2.45 0 00-1.17-1.86 2.89 2.89 0 00-1.42-.3 1.49 1.49 0 00-.43.07 2.35 2.35 0 00-.37.24 3.74 3.74 0 01-2 .29c-.69 0-1.51.22-1.72.88a1.69 1.69 0 00.37 1.4 11.34 11.34 0 001.26 1.51c.73.78 1.64 1.6 2.69 1.45a3.45 3.45 0 002.79-3.68z" fill="#324001" stroke="#324001" stroke-miterlimit="10"/><path d="M257.84 324.72a9.65 9.65 0 002.64.88 4.63 4.63 0 012.44 1.28c.05.07.06.23 0 .2" fill="none"/><path d="M257.85 324.71c.9.38 1.84.52 2.78.83a6.77 6.77 0 011.37.55 3.26 3.26 0 01.6.43l.26.26c.07.06.21.27 0 .31.05 0 .05-.07 0-.12s-.06-.09-.11-.13a1.55 1.55 0 00-.27-.24 3.13 3.13 0 00-.61-.38 6.44 6.44 0 00-1.36-.47 6.45 6.45 0 01-2.75-1z" fill="#7c8c03"/><path d="M261.59 325.7a2 2 0 00-1-2.25" fill="none"/><path d="M261.58 325.7a4.68 4.68 0 00-.21-1.26 2 2 0 00-.82-1 2 2 0 011 .91 1.36 1.36 0 01.05 1.35z" fill="#7c8c03"/><path d="M260.25 325.64a1.67 1.67 0 01-.67 1.09c-.56.3-1.25-.11-1.65-.6h.33" fill="none"/><path d="M260.26 325.64a1.9 1.9 0 01-.21.8.93.93 0 01-.72.49 1.68 1.68 0 01-1.42-.78l-.05-.06h.4-.33v-.05a1.63 1.63 0 001.34.61c.48-.11.69-.61.95-1.09z" fill="#7c8c03"/><path d="M262.3 326.54a1.94 1.94 0 01-1.31 1.12" fill="none"/><path d="M262.32 326.54a1 1 0 01-.48.79 1.77 1.77 0 01-.85.35 2.09 2.09 0 00.72-.47 6.93 6.93 0 01.58-.65z" fill="#7c8c03"/><path d="M193.53 283.85a.48.48 0 01-.23-.19 3 3 0 01-.46-2.52 6.26 6.26 0 011.16-2.34" fill="none" stroke="#7c8c03" stroke-miterlimit="10"/><path d="M193.52 277.34a1.66 1.66 0 01.78-1.24 1.83 1.83 0 01.95-.2.71.71 0 01.29.05c.09 0 .16.11.25.16a2.54 2.54 0 001.35.19c.46 0 1 .15 1.15.59a1.11 1.11 0 01-.25.93 7.38 7.38 0 01-.84 1 2.26 2.26 0 01-1.8 1 2.31 2.31 0 01-1.88-2.48z" fill="#324001" stroke="#324001" stroke-miterlimit="10"/><path d="M197.45 277.09a6.64 6.64 0 01-1.76.59 3 3 0 00-1.62.85v.14" fill="none"/><path d="M197.46 277.1a3.52 3.52 0 01-1.83.69 5.28 5.28 0 00-.9.3 2.22 2.22 0 00-.42.25l-.18.15c-.06 0-.11.15 0 .16-.14 0 0-.18 0-.22l.17-.18a2.46 2.46 0 01.4-.3 4.86 4.86 0 01.91-.38c.63-.22 1.25-.31 1.87-.52z" fill="#7c8c03"/><path d="M195 277.74a1.32 1.32 0 01.69-1.5" fill="none"/><path d="M194.94 277.75a.8.8 0 010-.92 1.32 1.32 0 01.7-.6 1.29 1.29 0 00-.52.66c-.07.28-.11.52-.17.83z" fill="#7c8c03"/><path d="M195.85 277.7a1.11 1.11 0 00.44.73 1 1 0 001.1-.4h-.22" fill="none"/><path d="M195.86 277.7c.21.31.35.61.63.68a1 1 0 00.88-.37v.05h-.23H197.43v.06a1.15 1.15 0 01-1 .55.63.63 0 01-.51-.34 1.23 1.23 0 01-.12-.56z" fill="#7c8c03"/><path d="M194.47 278.3a1.3 1.3 0 00.88.75" fill="none"/><path d="M194.48 278.29a1.33 1.33 0 01.41.41 1.32 1.32 0 00.46.34 1.08 1.08 0 01-.59-.21.53.53 0 01-.3-.55z" fill="#7c8c03"/><path d="M282.18 426.37a.71.71 0 01-.18-.37 4.52 4.52 0 011.17-3.65 9.54 9.54 0 013.24-2.25" fill="none" stroke="#7c8c03" stroke-miterlimit="10"/><path d="M286.78 417.78a2.44 2.44 0 011.91-1.09 2.81 2.81 0 011.4.41 1.1 1.1 0 01.34.26 2.16 2.16 0 01.22.39 3.64 3.64 0 001.65 1.25c.61.33 1.22.92 1.09 1.6a1.67 1.67 0 01-1 1.05 11.67 11.67 0 01-1.83.74c-1 .34-2.2.63-3.06 0a3.46 3.46 0 01-.72-4.61z" fill="#324001" stroke="#324001" stroke-miterlimit="10"/><path d="M292.15 420.23a10 10 0 01-2.74-.48 4.61 4.61 0 00-2.75 0c-.09 0-.16.17-.07.19" fill="none"/><path d="M292.15 420.24a6.46 6.46 0 01-2.89-.42 6.19 6.19 0 00-1.42-.23 3.48 3.48 0 00-.72 0 2.25 2.25 0 00-.35.09c-.06 0-.12 0-.16.06s-.08.11 0 .13c-.14-.12.09-.24.17-.26a2.47 2.47 0 01.36-.11 3.57 3.57 0 01.73-.1 6.56 6.56 0 011.47.17c1 .17 1.87.5 2.84.59z" fill="#7c8c03"/><path d="M288.38 419.31a2 2 0 012-1.48" fill="none"/><path d="M288.37 419.31a1.3 1.3 0 01.68-1.16 1.89 1.89 0 011.31-.34 1.93 1.93 0 00-1.19.47 4.41 4.41 0 00-.77 1z" fill="#7c8c03"/><path d="M289.6 419.89a1.73 1.73 0 00.07 1.29c.35.53 1.15.49 1.74.25l-.31-.13" fill="none"/><path d="M289.61 419.9c0 .54-.05 1.08.32 1.4a1.59 1.59 0 001.46.1v.06l-.3-.15.32.12h.07-.07a1.67 1.67 0 01-1.62 0 .93.93 0 01-.4-.77 1.73 1.73 0 01.19-.81z" fill="#7c8c03"/><path d="M287.36 419.71a1.94 1.94 0 00.63 1.62" fill="none"/><path d="M287.37 419.71a5.85 5.85 0 01.21.85 2.17 2.17 0 00.41.76 1.94 1.94 0 01-.59-.71.94.94 0 010-.92z" fill="#7c8c03"/><path d="M186.59 387.21a.47.47 0 00-.2-.06 2.14 2.14 0 00-1.67.69 4.49 4.49 0 00-.94 1.61" fill="none" stroke="#7c8c03" stroke-miterlimit="10"/><path d="M182.72 389.71a1.15 1.15 0 00-.43.94 1.26 1.26 0 00.24.64.66.66 0 00.14.15 1.63 1.63 0 00.19.09c.3.13.45.45.63.73s.48.54.79.45a.79.79 0 00.46-.5 5.73 5.73 0 00.28-.89 1.6 1.6 0 00-.12-1.44 1.63 1.63 0 00-2.18-.17z" fill="#324001" stroke="#324001" stroke-miterlimit="10"/><path d="M184.08 392.14a4.33 4.33 0 00-.33-1.27 2.21 2.21 0 01-.11-1.29c0-.05.07-.09.08-.05" fill="none"/><path d="M184.07 392.14a11 11 0 01-.43-1.3 2.76 2.76 0 01-.11-.7 1 1 0 010-.35.85.85 0 010-.17s.06-.17.14-.09c-.07 0-.07.17-.08.26a1.22 1.22 0 000 .33 3 3 0 00.18.65 2.11 2.11 0 01.26 1.36z" fill="#7c8c03"/><path d="M183.51 390.4a1 1 0 00-.63 1" fill="none"/><path d="M183.51 390.41a2.81 2.81 0 01-.4.43 1 1 0 00-.21.55 1 1 0 01.07-.66.5.5 0 01.56-.34z" fill="#7c8c03"/><path d="M183.83 391a.74.74 0 01.6 0c.27.14.28.52.19.8l-.08-.14" fill="none"/><path d="M183.82 390.94a.68.68 0 01.38-.18.45.45 0 01.42.19.79.79 0 010 .8v.07-.06l-.06-.15.1.13h-.06a.73.73 0 00-.13-.64c-.14-.11-.35-.09-.63-.13z" fill="#7c8c03"/><path d="M183.66 389.91a.9.9 0 01.78.23" fill="none"/><path d="M183.66 389.89a.32.32 0 01.44-.06.79.79 0 01.35.3.93.93 0 00-.38-.12.51.51 0 01-.39-.11z" fill="#7c8c03"/><path d="M295.42 250.73a.56.56 0 00.28.13 5.56 5.56 0 003.25-.44 10.61 10.61 0 002.66-1.76" fill="none" stroke="#7c8c03" stroke-miterlimit="10" stroke-width=".75"/><path d="M303.53 248.6a2.33 2.33 0 001.38-1.06 1.22 1.22 0 000-.86.4.4 0 00-.12-.22 3 3 0 00-.26-.16c-.4-.23-.42-.68-.53-1.06a1 1 0 00-1-.77 2.07 2.07 0 00-1.11.51 10.57 10.57 0 00-1.07 1c-.54.57-1.09 1.26-.81 1.82.5.93 2.18 1.29 3.52.8z" fill="#324001" stroke="#324001" stroke-miterlimit="10"/><path d="M303 245.23a4.55 4.55 0 00-.35 1.67 2.53 2.53 0 01-.71 1.64c-.05 0-.18.08-.17 0" fill="none"/><path d="M303 245.24c-.17.61-.15 1.2-.28 1.83a3.35 3.35 0 01-.3.91 2.07 2.07 0 01-.28.38l-.17.17c-.05 0-.15.13-.22 0 .11 0 .23-.15.31-.25a2.3 2.3 0 00.23-.4 3 3 0 00.21-.88c0-.3 0-.62.08-.93a2 2 0 01.38-.88z" fill="#7c8c03"/><path d="M302.72 247.54a2.07 2.07 0 001.72-1.07" fill="none"/><path d="M302.72 247.53c.34-.16.63-.27.95-.39a1.76 1.76 0 00.76-.67 1.54 1.54 0 01-.68.83 1.23 1.23 0 01-1 .24z" fill="#7c8c03"/><path d="M302.58 246.78a1.7 1.7 0 01-1-.14c-.33-.24-.09-.71.26-1v.2" fill="none"/><path d="M302.58 246.79a1.66 1.66 0 01-.58.11.73.73 0 01-.58-.25.57.57 0 010-.64 1.65 1.65 0 01.39-.44v.24-.19a1.87 1.87 0 00-.29.46c-.07.17-.08.35 0 .44s.62.15 1 .26z" fill="#7c8c03"/><path d="M302.13 248.12a1.4 1.4 0 01-1.13-.49" fill="none"/><path d="M302.13 248.13a.63.63 0 01-.66 0 1.07 1.07 0 01-.48-.46 1.14 1.14 0 00.53.28 1.26 1.26 0 01.59.2z" fill="#7c8c03"/><path d="M235.57 226.84s.09.07.14.1a1.7 1.7 0 001.42-.17 3.52 3.52 0 001.06-1" fill="none" stroke="#7c8c03" stroke-miterlimit="10" stroke-width=".5"/><path d="M239.06 225.79a.89.89 0 00.53-.62 1.1 1.1 0 000-.54.44.44 0 00-.08-.15.58.58 0 00-.12-.1 1.33 1.33 0 01-.32-.7c-.08-.24-.25-.51-.51-.52a.61.61 0 00-.45.29 4.07 4.07 0 00-.41.61 1.25 1.25 0 00-.22 1.12 1.29 1.29 0 001.58.61z" fill="#324001" stroke="#324001" stroke-miterlimit="10"/><path d="M238.55 223.64a3.62 3.62 0 000 1 1.74 1.74 0 01-.2 1s-.07.05-.07 0" fill="none"/><path d="M238.56 223.65a4.87 4.87 0 01.07 1.08 2.8 2.8 0 01-.08.56 1.17 1.17 0 01-.1.26.83.83 0 01-.08.12s-.08.12-.13 0c.09 0 .15-.29.16-.44a2.35 2.35 0 000-.53 1.49 1.49 0 01.11-1.09z" fill="#7c8c03"/><path d="M238.61 225.09a.74.74 0 00.69-.61" fill="none"/><path d="M238.61 225.08a1.07 1.07 0 01.39-.25.75.75 0 00.29-.36.74.74 0 01-.18.5.37.37 0 01-.52.12z" fill="#7c8c03"/><path d="M238.49 224.6a.63.63 0 01-.47-.12c-.17-.17-.09-.45 0-.65v.12" fill="none"/><path d="M238.49 224.62a.54.54 0 01-.33.07.4.4 0 01-.3-.25.65.65 0 01.17-.63l.05-.06v.2-.12h.05a.55.55 0 000 .5c.08.1.22.12.43.24z" fill="#7c8c03"/><path d="M238.39 225.43a.74.74 0 01-.55-.34" fill="none"/><path d="M238.39 225.45a.24.24 0 01-.37 0 .7.7 0 01-.19-.32.8.8 0 00.28.16c.11 0 .17 0 .26.18z" fill="#7c8c03"/></g></g></symbol><symbol viewBox="0 0 440 520" id="join-background" xmlns="http://www.w3.org/2000/svg"><path fill="#253659" d="M-2.33-.5H441v520.14H-2.33z"/><path data-name="mountain 3" d="M422.22 217.2c-14.39 8.38-18.59 26.52-24.77 40.65-5.45 12.45-14.58 25.15-28.11 27.2-14.76 2.25-30.39-9-44-2.92-10.57 4.7-14.4 17.67-14.77 29.13s1.38 23.43-3 34.06c-6.69 16.3-25.74 24.19-43.43 25.8s-35.67-1.32-53.23 1.34c-44.94 6.8-76.46 47.47-118.35 65-29.77 12.42-63 12.44-95.42 11.19v72H441V213.22a29.87 29.87 0 00-18.78 3.98z" fill="#603813"/><path data-name="mountain 2" d="M441 510.76l-36.51-12.53c-11.54-4-23.29-8-35.49-8.29-21.79-.61-43.39 10.49-64.74 6.09-26.55-5.46-43.79-33-70.07-39.64-31.64-8-63.58 17-96 12.95-30.52-3.78-51.69-31.44-79-45.48-19.46-10-40.48-12.6-62.22-12.12V520.5H441z" fill="#c7b299"/><g><path d="M79.21 448.37c-1.16-4.42-3.17-8.59-4.2-13-2.24-9.71.33-20.06-1.94-29.77-1.77-7.6-6.31-14.15-10.33-20.8-1.84-3-3.62-6.24-4.08-9.77s.7-7.47 3.67-9.42c4.6-3 11 .18 14.06 4.78s4 10.25 6.28 15.24 5.92 9.13 8.28 14 3.4 10.38 4.39 15.75c4.49 24.23 9 48.71 7.92 73.33-8.43.31-22 3.92-24.72-7-1.21-4.82.71-10.11 1.34-14.84.87-6.42-.67-12.2-.67-18.5z" fill="#7c8c03"/><path d="M96.42 418c.63-3.65 1.36-7.5 3.83-10.26 3.38-3.75 9-4.37 14.07-3.94 3.74.33 7.62 1.18 10.45 3.64 3.72 3.24 4.85 8.58 4.78 13.52a7.56 7.56 0 01-.56 3.17 7.44 7.44 0 01-1.71 2.09c-6 5.6-16.48 10.42-24.84 10.71-11.78.37-7.35-11.22-6.02-18.93zM82.12 362.21a68.67 68.67 0 0115.08-7.68c3.49-1.27 7.34-2.44 9.48-5.47 1.76-2.51 2.23-6.12 4.92-7.6 2.21-1.21 5-.35 7.1 1.11a12.29 12.29 0 015.3 9.53c.11 5.7-4.23 10.43-8.52 14.19a130.83 130.83 0 01-24.87 17.18 18.57 18.57 0 01-4.44 1.86c-16.83 3.93-13.09-17.02-4.05-23.12zM55.53 444.11c-2.92-2.54-6.1-5.64-5.91-9.5.14-2.88 2.17-5.3 4.26-7.29a49.86 49.86 0 018.82-6.67 15.47 15.47 0 017.06-2.55c5.25-.24 9.65 4 12.49 8.4 4.38 6.86 10.09 19.65 1.32 25.52-9.47 6.35-21.07-1.86-28.04-7.91zM45.58 401c-5.43-1.29-10.54-5.67-10.79-11.24-.19-4.36 2.66-8.44 6.35-10.76s8.11-3.18 12.45-3.64a12.63 12.63 0 014.71.14c2.13.6 3.81 2.17 5.41 3.69 4.47 4.27 13.86 12.82 7.1 18.54-4.94 4.21-19.37 4.68-25.23 3.27z" fill="#7c8c03"/><path d="M31.26 428c-4.22-3.18-8.38-7.54-8.25-12.83.11-4.06 2.87-7.7 6.37-9.76s7.63-2.75 11.68-3c4.24-.24 8.88.14 12 3 5.61 5 8.67 19.48 2.83 25.33-6.74 6.8-18.37 1.98-24.63-2.74zM15.59 367.54a12.85 12.85 0 013.06-13 16.61 16.61 0 015.35-3.38 17.78 17.78 0 016.2-1.46c5.38-.18 10.55 2.91 13.69 7.28 4.59 6.41 8.38 22-1.91 25-8.98 2.54-23.51-5.98-26.39-14.44zM98.82 341.41c-1.35-2.51-2.3-5.44-1.58-8.2 1-3.59 4.42-5.86 7.73-7.54 3.82-1.94 8.08-3.58 12.3-2.86 5.12.87 9.23 5.34 10.38 10.4a18.59 18.59 0 01-3.44 14.72 45.55 45.55 0 01-5 5.51c-7.02 6.98-17.04-5.82-20.39-12.03zM120.65 391.84a26.66 26.66 0 01-.46-5.41c.43-5.8 5.81-10.19 11.42-11.72 6.34-1.73 14.27 0 17.21 5.87a20.52 20.52 0 011.63 6.25 33.45 33.45 0 01.49 10.12c-.52 3.35-2.24 6.69-5.21 8.32a15.7 15.7 0 01-4.66 1.45c-3.75.7-16.23 3.95-19.42 1.38s-.51-12.47-1-16.26zM46.45 343.28a7.44 7.44 0 01.12-3.29 7.18 7.18 0 012-2.87c4-3.74 9.38-5.56 14.7-6.76 3.7-.84 7.81-1.37 11.1.51a11.21 11.21 0 014.5 5.42c2.09 4.91 1.62 10.52.52 15.74s-3.36 10.76-8.32 12.34c-11.62 3.73-23.28-11.02-24.62-21.09zM107.6 409a37.11 37.11 0 01-9.47-8.94c-1.42-1.93-2.71-4.36-1.95-6.63a6.24 6.24 0 013.23-3.34c4.07-2.1 9.91-1.15 12 2.91 1.14 2.14 1.09 4.7.89 7.11a14.68 14.68 0 01-1.22 5.42 5.75 5.75 0 01-4.24 3.29" fill="#7c8c03"/><path d="M30.58 408.54a11.18 11.18 0 01-10.3-3A9.3 9.3 0 0118 396c1.2-3.22 5-5.4 8.27-4.35a10.17 10.17 0 014.73 4.08 14.64 14.64 0 012.9 6.27 7.22 7.22 0 01-2 6.39M153.76 414.5c4 3.08 9.94 4.81 14 1.79a11.64 11.64 0 003.1-3.85c3-5.45 3.42-12.94-1-17.37a13.43 13.43 0 00-7.14-3.55c-5.21-1-15.11.9-17.43 6.6s4.31 13.18 8.47 16.38zM137 369c-1.16 2.06-1.93 4.52-1.21 6.77s3.41 3.92 5.53 2.88c1.54-.75 2.23-2.55 2.64-4.21.51-2.09.75-4.42-.29-6.3s-3.83-2.88-5.44-1.46a5.92 5.92 0 00-1.51 3.64M113.3 371.7c3.3 2.89 7.84 4.6 12.15 3.74a11.59 11.59 0 005.07-20.32 17.43 17.43 0 00-9.31-3.39 18.67 18.67 0 00-10.28 1.35c-9.15 4.49-3.32 13.63 2.37 18.62zM91.3 358.16c-1.6-1.84-3.67-3.2-5.42-4.89s-3.22-3.93-3.09-6.36c.18-3.47 4-6.09 7.4-5.48s6 3.88 6.35 7.33a11.67 11.67 0 01-3.81 9.31M123.34 459.51a5.38 5.38 0 01-.84 3.3 6.38 6.38 0 01-1.83 1.47c-4.59 2.81-10.11 5.3-15.22 3.59-8-2.67-15.39-19.8-7.09-25.42 10.16-6.88 24.92 6.95 24.98 17.06zM77.18 303.71a18.61 18.61 0 0120.67 11.79c1.15 3.43 1.2 7.5-.85 10.5-2 2.78-5.36 4.11-8.61 5.11-8.64 2.63-21.36 6.86-24.81-4.51-2.99-9.76 3.72-20.83 13.6-22.89zM28.89 331.76c3 4.19 8 6.74 13 7.78 2.74.55 5.73.68 8.19-.66 9.59-5.2 2.79-24.71-5.32-28.32-12.37-5.51-23.33 10.91-15.87 21.2z" fill="#7c8c03"/><path d="M79.76 312.06c-1.32 1.08-3.5-.21-5 .7a1.9 1.9 0 00-.61 2.5c1.31 2.23 5.22-.06 7.25 1.55 1.49 1.19.84 3.74-.66 4.92s-3.47 1.49-5.26 2.16a2.77 2.77 0 00-1.49 1c-.76 1.27.6 2.84 2 3.28 4.2 1.3 8.24-2.19 11.26-5.39 1-1 2-2.47 1.42-3.76-1-2-4.78-1-5.76-3.06s1.94-3.92 1.6-6.05a9.66 9.66 0 00-4.7-.31c-1.53.41-2.9 1.89-2.62 3.45M112.55 330.23a8 8 0 00-4-1c-1.3 0-3 1.08-2.38 2.26.88 1.8 4-.88 5.56.3a17.5 17.5 0 011.63 6.69 7.62 7.62 0 01-7-1.21 9.61 9.61 0 004.41 9.83c-.67-3.1 3.21-6.08 6-4.63a35.37 35.37 0 00-1-10.15l3.14-.23a9.24 9.24 0 00.33-4 3.16 3.16 0 00-2.69-2.64c-2.6-.1-3.89 3.89-6.49 3.88M49 328.66a6.18 6.18 0 01-8.18-5 2 2 0 01-2.86 0 5.64 5.64 0 01-1.25-2.95l-1-4.62a1.54 1.54 0 00-2.25.2 4.5 4.5 0 00-.79 2.42 13.26 13.26 0 00.06 5.29 4.54 4.54 0 003.66 3.43c1.07.09 2.15-.34 3.19-.13a4.74 4.74 0 012.87 2.6 9.36 9.36 0 002.29 3.22c1.08.79 2.88.77 3.5-.41l.28-3.19M58.82 348.5c5 2.74 8.55 7.4 12 11.92 1.41-2-.62-4.65-2.53-6.23s-4.06-4-2.86-6.17c3.67-6.66.73-4.22-4.86-5.48-3.32-.75-5.69-3.43-8.81-4.27-2.35 5.15 3.34 8.18 7.06 10.23zM40.93 372.91c-2-1.76-5.24 3.12-7.36 1.45-1.12-.89-.55-2.69.22-3.89s1.69-2.7 1-3.94c-.94-.2-1.59.86-2.2 1.61-1.89 2.29-5.47 2.23-8.25 1.19a5.19 5.19 0 01-2.72-1.91 2.25 2.25 0 01.46-3c1.09-.68 2.47.05 3.74.26 3.21.54 6.18-3.25 5-6.3a15.68 15.68 0 017.93 4.3 3.49 3.49 0 013.46-.53 8.9 8.9 0 01-1.94.73c-2.32 1.95-1.14 5.67.21 8.38l.95 1.92M123 360.52c-.06-2-3.17-2.58-4.61-1.19s-1.59 3.63-1.54 5.64a3.38 3.38 0 00.47 2 3.47 3.47 0 001.74 1l7.37 2.59-.13-3.54a10.61 10.61 0 01-4.42-.6 3.64 3.64 0 01-2.32-3.51c.2-1.48 2.17-2.57 3.33-1.61M31.84 416.05c-.92 1.42-.08 3.4 1.25 4.44s3 1.47 4.55 2.2c2.68 1.28 4.8 3.48 7 5.49a5.54 5.54 0 002.5 1.53 2 2 0 002.34-1.28 2.89 2.89 0 00-.78-2.17l-5.06-7 6.53 1.14a7.3 7.3 0 00-1.27-5.77c-1.31-1.54-3.94-2-5.38-.61a6 6 0 01-1.14 1.11c-1.66.9-3.33-1.7-5.22-1.57a6.4 6.4 0 00-1 5 18.76 18.76 0 00-6.25-2.64 2.63 2.63 0 001.13 1.68M58.87 428.89c.6-2.07 3.24-2.93 5.32-2.37s3.71 2.12 5.29 3.58 3.32 2.94 5.45 3.27c.85-1.19-.09-2.8-1-3.93-2.21-2.71-4.73-5.52-8.14-6.3s-7.7 1.63-7.42 5.12M100.35 450.86c.2 2.32 2 4.11 3.76 5.67l6.22 5.65c1.47 1.33 3.7 2.71 5.23 1.46a6.51 6.51 0 00.58-5c-2.18.44-4.59.84-6.49-.32a8.62 8.62 0 01-2.47-2.66c-2.56-3.74-5.32-7.92-9.7-9.07a1.48 1.48 0 00-2.09 1.07 9.8 9.8 0 001.27 9.24c1.19-.66 1.09-2.35 1.4-3.68s2.3-2.45 2.83-1.2M101.15 427.66c.51-2.51 1.69-5.62 4.25-5.68 1.67 0 3 1.32 4.26 2.37s3.27 1.85 4.53.76l-2.69-6.68c1.4-1.11 3.46.07 4.61 1.44s2.27 3.09 4 3.28a12.09 12.09 0 00-.71-6.13 2.55 2.55 0 00-.78-1.16 3.07 3.07 0 00-1.59-.38 14.62 14.62 0 01-11-6.58c-.81 1.42-.44 3.19-.45 4.83s-.82 3.61-2.45 3.71c-1.06.07-2-.72-3.05-.85-2.28-.28-3.8 2.74-3 4.9S100 425 102 426.2M157.88 401.84c-.39-1.16-2.24-1.1-3-.15a5.19 5.19 0 00-.74 3.52 2.63 2.63 0 00.49 1.77 2.57 2.57 0 001.29.6l7.17 1.81c1-1.74-1.45-3.33-2.46-5.05-.68-1.14-.73-2.57-1.38-3.74s-2.47-1.88-3.25-.8l-.16 1.93" fill="#324001"/><ellipse cx="83.15" cy="299" rx="4" ry="6" fill="#d91a60"/><ellipse cx="116.77" cy="318.88" rx="5.04" ry="4" transform="rotate(-67.15 116.756 318.87)" fill="#d91a60"/><ellipse cx="45.15" cy="305" rx="6" ry="4" transform="rotate(-67.15 45.132 304.98)" fill="#d91a60"/><ellipse cx="123.15" cy="447" rx="6" ry="4" transform="rotate(-67.15 123.124 446.98)" fill="#d91a60"/><ellipse cx="65.15" cy="414" rx="4" ry="6" transform="rotate(-12.42 65.113 413.871)" fill="#d91a60"/><ellipse cx="23.15" cy="318" rx="4" ry="6" transform="rotate(-55.06 23.147 317.999)" fill="#d91a60"/><ellipse cx="60.35" cy="322.28" rx="3.89" ry="5.41" transform="rotate(-55.06 60.35 322.288)" fill="#d91a60"/><ellipse cx="90.15" cy="338" rx="6" ry="4" transform="rotate(-81.42 90.134 337.99)" fill="#d91a60"/><ellipse cx="141.22" cy="365.2" rx="4.67" ry="3.26" transform="rotate(-81.42 141.195 365.187)" fill="#d91a60"/><ellipse cx="168.94" cy="391.03" rx="5.12" ry="3.41" transform="rotate(-45 168.94 391.032)" fill="#d91a60"/><ellipse cx="172.65" cy="408.6" rx="4.71" ry="3.14" transform="rotate(-19.03 172.66 408.62)" fill="#d91a60"/><ellipse cx="109.12" cy="388.34" rx="4.6" ry="3.06" transform="rotate(-45 109.122 388.33)" fill="#d91a60"/><ellipse cx="56.15" cy="369" rx="4" ry="6" transform="rotate(-67.15 56.128 368.978)" fill="#d91a60"/><ellipse cx="96.01" cy="392.3" rx="3.13" ry="4.7" transform="rotate(-67.15 95.993 392.281)" fill="#d91a60"/><ellipse cx="21.01" cy="415.3" rx="3.13" ry="4.7" transform="rotate(-67.15 20.997 415.283)" fill="#d91a60"/><ellipse cx="34.15" cy="347" rx="6" ry="4" transform="rotate(-87.32 34.145 346.998)" fill="#d91a60"/><ellipse cx="24.15" cy="388" rx="6" ry="4" transform="rotate(-87.32 24.141 387.997)" fill="#d91a60"/><ellipse cx="20.73" cy="349.48" rx="3.12" ry="4.73" transform="rotate(-30 20.738 349.477)" fill="#d91a60"/><ellipse cx="13.84" cy="365" rx="2.9" ry="3.7" transform="rotate(-60 13.843 365.003)" fill="#d91a60"/><ellipse cx="50.84" cy="442" rx="2.9" ry="3.7" transform="rotate(-87.32 50.843 442)" fill="#d91a60"/><g data-name="Box of elotes"><path d="M397.7 448.85c-4.4 7.82-10.21 13.09-13.82 12.83a2.82 2.82 0 01-1-.24 1.27 1.27 0 01-.23-.12c-3.36-1.89-2.11-10.47 2.78-19.21l.07-.13c4.94-8.78 11.68-14.36 15.05-12.47 3.21 1.81 2.21 9.74-2.16 18.06-.22.43-.45.85-.69 1.28z" fill="#fbb03b"/><path d="M383.88 461.68a20.37 20.37 0 001.79-2.67 19.26 19.26 0 002.35-6.89c.53-4-.38-7.64-2.6-10-4.89 8.74-6.13 17.32-2.78 19.21a1.27 1.27 0 00.23.12z" fill="#4a7573"/><path d="M383.88 461.68c3.61.26 9.42-5 13.82-12.83.24-.43.47-.85.69-1.28-3.47-.28-7.29 1.41-10.36 4.55a20.16 20.16 0 00-5.14 9.32z" fill="#4a7573"/><g data-name="elote"><path d="M342 442.64c3.55 8.24 4.23 16.06 1.84 18.77a2.9 2.9 0 01-.8.65 1 1 0 01-.24.11c-3.53 1.53-9.6-4.66-13.6-13.85l-.06-.13c-4-9.25-4.35-18-.8-19.53 3.38-1.46 9.08 4.14 13.06 12.66z" fill="#fbb03b"/><path d="M343.87 461.41a21.48 21.48 0 00-1.05-3 19.28 19.28 0 00-4.05-6c-2.82-2.82-6.3-4.33-9.53-4 4 9.19 10.07 15.38 13.6 13.85a1 1 0 00.24-.11z" fill="#4a7573"/><path d="M343.87 461.41c2.39-2.71 1.71-10.53-1.84-18.77l-.6-1.32c-2.33 2.59-3.3 6.65-2.67 11a20 20 0 004.3 9.73z" fill="#4a7573"/></g><g data-name="elote"><path d="M358.6 445.42c0 9-2.48 16.42-5.75 18a2.94 2.94 0 01-1 .28h-.26c-3.85 0-7-8.09-7-18.11v-.14c0-10.08 3.13-18.25 7-18.25 3.68 0 6.7 7.4 7 16.8 0 .45.01.93.01 1.42z" fill="#fbb03b"/><path d="M352.85 463.38a21 21 0 00.25-3.21 19.32 19.32 0 00-1.33-7.15c-1.48-3.71-4.07-6.47-7.17-7.45 0 10 3.15 18.11 7 18.11h.26z" fill="#4a7573"/><path d="M352.85 463.38c3.27-1.54 5.75-9 5.75-18v-1.45c-3.16 1.45-5.66 4.8-6.8 9a19.53 19.53 0 00-.67 5.15 19.84 19.84 0 00.76 5.49z" fill="#4a7573"/></g><g data-name="elote"><path d="M383 457.48c3.76 8.15 4.63 15.95 2.3 18.72a2.78 2.78 0 01-.78.67l-.23.12c-3.49 1.61-9.72-4.43-13.95-13.51l-.05-.13c-4.23-9.15-4.81-17.88-1.3-19.5 3.34-1.54 9.19 3.91 13.37 12.33.18.43.39.82.64 1.3z" fill="#fbb03b"/><path d="M385.26 476.2a20.45 20.45 0 00-1.11-3 19.23 19.23 0 00-4.21-5.93c-2.9-2.75-6.41-4.17-9.64-3.76 4.23 9.08 10.46 15.12 13.95 13.51l.23-.12z" fill="#4a7573"/><path d="M385.26 476.2c2.33-2.77 1.46-10.57-2.3-18.72-.21-.44-.42-.87-.64-1.3-2.26 2.64-3.13 6.73-2.38 11.06a20.23 20.23 0 004.54 9.62z" fill="#4a7573"/></g><g data-name="elote"><path d="M373.48 453.73c-1.68 8.81-5.51 15.66-9 16.56a2.78 2.78 0 01-1 .09 2.13 2.13 0 01-.25 0c-3.79-.72-5.34-9.26-3.49-19.1v-.14c1.89-9.9 6.49-17.34 10.29-16.62 3.62.69 5.2 8.52 3.71 17.81-.09.44-.17.92-.26 1.4z" fill="#fbb03b"/><path d="M364.47 470.29a21.36 21.36 0 00.85-3.1 19.54 19.54 0 000-7.27c-.76-3.93-2.79-7.12-5.65-8.66-1.85 9.84-.29 18.38 3.49 19.1a2.13 2.13 0 00.25 0z" fill="#4a7573"/><path d="M364.47 470.29c3.5-.9 7.33-7.75 9-16.56.09-.48.17-1 .24-1.43-3.38.83-6.46 3.65-8.37 7.61a19.17 19.17 0 00-1.63 4.93 20.05 20.05 0 00-.28 5.53z" fill="#4a7573"/></g><g><path fill="#754c24" d="M326.65 456.5h70v42h-70z"/><path fill="none" stroke="#8c6239" stroke-linecap="round" stroke-miterlimit="10" stroke-width="7" d="M317.99 456.81l86.21-.37M317.99 470.81l86.21-.37M317.99 484.81l86.21-.37M317.99 498.81l86.21-.37M325.9 454l.38 46.73M396.9 454l.38 46.73"/></g></g><path d="M-4.57 483.88c15.48 2.2 30.92 5.39 46.21 2.75 15.94-2.76 30.55-11.74 46.7-12.75 28.69-1.81 55.58 21.78 83.77 16.13 13.64-2.74 25.43-12.13 39.25-13.78 29.22-3.49 53.91 28.17 83.17 25 8.54-.93 16.43-4.8 24.56-7.58a98.4 98.4 0 0139.27-5c6.49.5 14.35 3 15.45 9.39 1.55 9.12-11.19 12.93-20.44 12.94-33 0-66.15.06-98.85-4.51-13.5-1.89-27.05-4.56-40.65-3.66-12.71.85-25 4.8-37.74 5.83-17 1.38-34-2.54-50.95-4.41-42.87-4.67-86.18 3.62-129.26 6.27" fill="#42210b"/><g data-name="Farmer 1"><g data-name="elote"><path d="M148 234.64c3.55 8.24 4.23 16.06 1.84 18.77a2.9 2.9 0 01-.8.65 1 1 0 01-.24.11c-3.53 1.53-9.6-4.66-13.6-13.85l-.06-.13c-4-9.25-4.35-18-.8-19.53 3.38-1.46 9.08 4.14 13.06 12.66.23.44.43.87.6 1.32z" fill="#fbb03b"/><path d="M149.87 253.41a21.48 21.48 0 00-1.05-3 19.28 19.28 0 00-4-6c-2.82-2.82-6.3-4.33-9.53-4 4 9.19 10.07 15.38 13.6 13.85a1 1 0 00.24-.11z" fill="#4a7573"/><path d="M149.87 253.41c2.39-2.71 1.71-10.53-1.84-18.77-.2-.45-.4-.88-.6-1.32-2.33 2.59-3.3 6.65-2.67 11a20 20 0 004.3 9.73z" fill="#4a7573"/></g><path d="M200 429.31c.07-8.28-10.55-14.83-8.11-22.74.82-2.67 3-4.66 4.46-7.05 3.15-5.18 2.59-11.73 1.78-17.74s-3.54-13.62-2.75-19.6 4.26-12.07 5.28-18.25a48.06 48.06 0 0020.61 2.26c1.94-.21 3.86-.54 5.81-.67 8.18-.53 16.18 1.93 24-1.47 1.67 4 1.2 10.73 2.36 15.32 1.63 6.49 2.5 13.33.38 19.82-2.74 8.39-.5 16.3-.25 25 .18 6.58 5 11.07 6 17.83 1.19 7.52-3.83 14.93-2.93 22.5s7.77 14 7.48 21.78a3.9 3.9 0 01-.67 2.32 4.63 4.63 0 01-2.61 1.29c-6.58 1.64-14.91 2.71-18.92-2.77-3.6-4.93-1.15-11.93-2.6-17.86-.86-3.54-3.12-6.64-3.85-10.21-1.47-7.12-.15-15-1.27-22.31-1.47-9.6-5.55-18.3-9.84-26.92a2.72 2.72 0 00-1.25-1.45c-1-.36-2 .47-2.47 1.36-2 3.54-.22 7.93 1.32 11.71 3.13 7.65 2.59 24.48.69 32.27-1.83 7.51-6.69 13.57-7.88 21.39-.54 3.53-.48 13.24-4.54 14.75a6.19 6.19 0 01-3.46-.12c-10.73-2.47-14.44-6.29-13.49-17.13.32-3.77.27-7.31 1.59-10.89 1.55-4.24 5.04-7.63 5.13-12.42z" fill="#c1272d"/><path d="M213.14 469.22l-2.46 19.54a4.34 4.34 0 01-.88 2.52 4.38 4.38 0 01-2.82 1l-19.32 1.88c-1.56.16-3.26.28-4.59-.54-2.61-1.61-2.06-5.86.2-7.92s5.46-2.63 8.43-3.38a7.44 7.44 0 003-1.32c5.35-4.48-.75-14.55 4.44-19.35 6.53-6.05 14.98-.22 14 7.57zM262.82 483.12c0 2.24.11 4.82 1.91 6.15a8.49 8.49 0 002.55 1.08 20 20 0 015.13 2.55c1.69 1.17 3.34 3 3 5-.28 1.85-2.1 3.08-3.88 3.64-6.25 2-13-1.61-17.43-6.47-5.15-5.72-12.64-21.11-6.36-28.45 2.39-2.79 10.26-4.08 13.3-1.92 3.96 2.84 1.84 13.64 1.78 18.42z" fill="#253659"/><path d="M197.27 339.25c-.79 2.62.83 5.5 3.13 7s5.13 1.9 7.85 2.19a130.47 130.47 0 0042.07-2.44c5.36-1.21 11.51-3.59 12.84-8.93.63-2.49 0-5.11-.61-7.61l-21.2-86a33 33 0 01-28.23-3.45c-3.66 5.87-4.14 13.1-5.64 19.87-2.2 9.9-6.73 19.1-10.06 28.68-4.36 12.56-6.64 25.95-5.61 39.2.61 7.91 3.41 17 10.86 19.69" fill="#f4dfc7"/><path d="M142.75 259.6c-3.13-3.23-7.76-5.31-9.36-9.51a3.1 3.1 0 01-.25-1.34 2.68 2.68 0 01.43-1.17 4.48 4.48 0 016.65-.72 16.21 16.21 0 012.11 3.58 9.07 9.07 0 003.44 3.35c1.39.75 3.49.93 4.22-.48.65-1.26-.24-3.15.86-4.05a1.84 1.84 0 011.29-.35 3.86 3.86 0 013 2.24 10.42 10.42 0 01.9 3.79 20.62 20.62 0 01-.08 6.79c-.55 2.46-2.81 6.49-5.88 5.76-2.91-.69-5.38-5.88-7.33-7.89z" fill="#754c24"/><path d="M205.3 322.87c5.7-24.27 11.47-48.69 12.7-73.59.18-3.58.25-7.25-.92-10.63s-3.84-6.46-7.35-7.14c-2.37-.46-5.45.94-5.29 3.34.68 9.79-8.16 5-14.36 10.83-3 2.81-5.09 6.41-7.15 10l-8.61 14.86c-7.47 12.89-8.49-9.42-16.15-8.44-.67.08-11.5 5.94-11.38 5.22-.9 5.35 2.31 10.44 5.37 14.92A78.4 78.4 0 00165 296.51c1.31 1.19 2.77 2.45 4.54 2.58 7.56.57 8.9-16 14.73-14-.33 7.61-1.84 15.2-2.91 22.73-1.29 9-7.19 17.27-5.7 26.66 1.16 7.31 11.56 17.53 19.69 13.95 6.91-3.03 8.49-19.38 9.95-25.56zM237.09 264.69c3.94 26.1 8 52.58 18.9 76.62 3.33 7.33 12.92 6.65 17.22 0 5.06-7.88-2.49-15.15-1.75-23 14.71 1.18 18.42-13.65 18.32-25.64-.12-14.84-3.73-30.1-12.9-41.77-7.52-9.59-19.57-16.71-32-16.75-15.42-.15-9.34 20.28-7.79 30.54z" fill="#72849d"/><path d="M266.73 303.18c.23.65.62 1.4 1.3 1.42a1.77 1.77 0 001.23-.71c2.25-2.37 4.42-4.95 5.42-8.06 1.37-4.27.32-9-1.95-12.9s-5.61-6.89-9-9.74c-2.05 8.7.06 21.68 3 29.99z" fill="#253659"/><path d="M233.61 245.94a4.17 4.17 0 001.08-3.2 128.33 128.33 0 00-.87-20.92 2.24 2.24 0 00-.47-1.34c-.61-.65-1.68-.37-2.53-.08a35.27 35.27 0 01-13 1.85c-.28 0-.17 18.26 1.13 20.47 2.25 3.74 11.05 6.18 14.66 3.22z" fill="#754c24"/><path d="M228.4 229.26c4.52-2.87 7-8.06 8.71-13.13a81 81 0 003.69-16c.34-2.72.46-5.74-1.2-7.92s-4.88-2.89-7.73-3.34l-8.87-1.45c-3.66-.57-8-.9-10.43 1.92-1.35 1.58-1.67 3.78-1.91 5.85-.63 5.38-1.06 10.79-1.3 16.2-.46 9.34 7.64 25.09 19.04 17.87z" fill="#754c24"/><path d="M235.84 203.54c.36.08.73 0 1.09.05 1.34.19 1.83 1.8 2.36 3 .24.54.82 1.14 1.31.81a1.13 1.13 0 00.35-.76c.68-3.93 1.29-8.27-.78-11.68s-10.81-9.24-11.5-1.87c-.28 3 1.59 2.69 3.55 3.92 1.77 1.1 1.55 1.31 2.15 3.26.34 1.13-.17 2.94 1.47 3.27z" fill="#1a1a1a" stroke="#1a1a1a" stroke-miterlimit="10"/><path d="M232.86 193.2c3.49 1.07 6.43 3 8 5.69a6.27 6.27 0 01-.1 6.37c-6.08 9.67 9.63 6.55 13.86 3.28 3.8-2.95 5.91-8.19 4.55-12.81-2.43-8.24-12.15-12.51-19.56-15-10.14-3.47-35.61-9.25-42.21 3.41-4 7.64 2.68 17.25 10.45 18.9 1.22.26 2.29-10.19 2.35-10.82a2 2 0 012.74-2.33c6.61.89 13.56 1.36 19.92 3.31z" fill="#dda060"/><path d="M216.62 184a19 19 0 0116.09-13.47c6.78-.64 19.62 7.44 18.87 15.25a8 8 0 01-4.29 6.25" fill="#dda060"/><path d="M243.19 181.94a8 8 0 01-6.4-6.16 13.68 13.68 0 0110.49 5.65" fill="none" stroke="#a67c52" stroke-miterlimit="10"/><path d="M226.85 217.12c2.11-1.26 4.11-2.81 6.52-2.86a3.42 3.42 0 013 1.38c1.69 2.74.09 6.22-2 8.18a17.53 17.53 0 01-5.27 3.18 41.67 41.67 0 01-7.16 2.27c-2.43.54-5.05.84-7.32-.18-3.68-1.66-5.3-6.23-6.21-9.87-.46-1.83-1.5-7.95.51-9.17 1.62-1 3.1 1.06 3.72 2.34 1.39 2.87 1 5 4.84 6.14a11.14 11.14 0 007.75-.51 15.86 15.86 0 001.62-.9z" fill="#1a1a1a" stroke="#1a1a1a" stroke-miterlimit="10"/></g></g></symbol></svg>