<svg xmlns="http://www.w3.org/2000/svg" viewBox="0 0 50 50"><g id="Welcome_Page_Web" data-name="Welcome Page Web"><polyline points="2.71 42.5 2.71 13.33 40 13.33 40 46 5.58 46" style="opacity:0.28"/></g><g id="Sprite_buttons" data-name="Sprite buttons"><polyline points="8.03 37.19 8.03 9.31 2.72 9.31 2.72 42.5" style="fill:#d62d7a"/><polyline points="2.72 9.31 4.03 9.31 4.03 8" style="fill:#d62d7a"/><polyline points="8.03 37.19 8.03 42.5 2.63 42.5" style="fill:#d62d7a"/><path d="M37.19,41.16,35.82,42.5H8V37.19H37.22" style="fill:#d62d7a"/><rect x="4.03" y="8" width="33.19" height="33.19" style="fill:#d62d7a"/><g id="menu-outline"><path d="M12.65,23.24H29.17c.53,0,1,.62,1,1.38v.14c0,.76-.44,1.38-1,1.38H12.65c-.54,0-1-.62-1-1.38v-.14C11.67,23.86,12.11,23.24,12.65,23.24Z" style="fill:#d62d7a"/><path d="M12.65,30.48H29.17c.53,0,1,.62,1,1.38V32c0,.76-.44,1.38-1,1.38H12.65c-.54,0-1-.62-1-1.38v-.14C11.67,31.1,12.11,30.48,12.65,30.48Z" style="fill:#d62d7a"/><path d="M12.65,16H29.17c.53,0,1,.62,1,1.38v.14c0,.76-.44,1.38-1,1.38H12.65c-.54,0-1-.62-1-1.38v-.14C11.67,16.62,12.11,16,12.65,16Z" style="fill:#d62d7a"/></g><polyline points="8.03 37.19 8.03 9.31 2.72 9.31 2.72 42.5" style="fill:#d62d7a"/><polyline points="2.72 9.31 4.03 9.31 4.03 8" style="fill:#d62d7a"/><polyline points="8.03 37.19 8.03 42.5 2.63 42.5" style="fill:#871242"/><path d="M37.19,41.16,35.82,42.5H8V37.19H37.22" style="fill:#871242"/><rect x="4.03" y="8" width="33.19" height="33.19" style="fill:#d91a60"/><g id="menu-outline-2" data-name="menu-outline"><path d="M12.65,23.24H29.17c.53,0,1,.62,1,1.38v.14c0,.76-.44,1.38-1,1.38H12.65c-.54,0-1-.62-1-1.38v-.14C11.67,23.86,12.11,23.24,12.65,23.24Z" style="fill:#c7b299"/><path d="M12.65,30.48H29.17c.53,0,1,.62,1,1.38V32c0,.76-.44,1.38-1,1.38H12.65c-.54,0-1-.62-1-1.38v-.14C11.67,31.1,12.11,30.48,12.65,30.48Z" style="fill:#c7b299"/><path d="M12.65,16H29.17c.53,0,1,.62,1,1.38v.14c0,.76-.44,1.38-1,1.38H12.65c-.54,0-1-.62-1-1.38v-.14C11.67,16.62,12.11,16,12.65,16Z" style="fill:#c7b299"/></g></g></svg>