<svg xmlns="http://www.w3.org/2000/svg" viewBox="0 0 50 50"><g id="Welcome_Page_Web" data-name="Welcome Page Web"><polyline points="3.01 43.5 3.01 14.33 46.18 14.33 46.18 47 6.33 47" style="opacity:0.28"/></g><g id="Sprite_buttons" data-name="Sprite buttons"><polyline points="8.33 38.19 8.33 10.31 3.02 10.31 3.02 43.5" style="fill:#d62d7a"/><polyline points="3.02 10.31 8.33 10.31 8.33 5" style="fill:#d62d7a"/><polyline points="8.33 38.19 8.33 43.5 2.94 43.5" style="fill:#d62d7a"/><polyline points="36.13 43.5 8.33 43.5 8.33 38.19 41.52 38.19" style="fill:#d62d7a"/><rect x="8.33" y="5" width="33.19" height="33.19" style="fill:#d62d7a"/><g id="menu-outline"><path d="M17,19.24H33.47c.53,0,1,.62,1,1.38v.14c0,.76-.44,1.38-1,1.38H17c-.54,0-1-.62-1-1.38v-.14C16,19.86,16.41,19.24,17,19.24Z" style="fill:#d62d7a"/><path d="M17,26.48H33.47c.53,0,1,.62,1,1.38V28c0,.76-.44,1.38-1,1.38H17c-.54,0-1-.62-1-1.38v-.14C16,27.1,16.41,26.48,17,26.48Z" style="fill:#d62d7a"/><path d="M17,12H33.47c.53,0,1,.62,1,1.38v.14c0,.76-.44,1.38-1,1.38H17c-.54,0-1-.62-1-1.38v-.14C16,12.62,16.41,12,17,12Z" style="fill:#d62d7a"/></g><polyline points="8.33 38.19 8.33 10.31 3.02 10.31 3.02 43.5" style="fill:#d62d7a"/><polyline points="3.02 10.31 8.33 10.31 8.33 5" style="fill:#d62d7a"/><polyline points="8.33 38.19 8.33 43.5 2.94 43.5" style="fill:#871242"/><polyline points="36.13 43.5 8.33 43.5 8.33 38.19 41.52 38.19" style="fill:#871242"/><rect x="8.33" y="5" width="33.19" height="33.19" style="fill:#d91a60"/><g id="menu-outline-2" data-name="menu-outline"><path d="M17,19.24H33.47c.53,0,1,.62,1,1.38v.14c0,.76-.44,1.38-1,1.38H17c-.54,0-1-.62-1-1.38v-.14C16,19.86,16.41,19.24,17,19.24Z" style="fill:#c7b299"/><path d="M17,26.48H33.47c.53,0,1,.62,1,1.38V28c0,.76-.44,1.38-1,1.38H17c-.54,0-1-.62-1-1.38v-.14C16,27.1,16.41,26.48,17,26.48Z" style="fill:#c7b299"/><path d="M17,12H33.47c.53,0,1,.62,1,1.38v.14c0,.76-.44,1.38-1,1.38H17c-.54,0-1-.62-1-1.38v-.14C16,12.62,16.41,12,17,12Z" style="fill:#c7b299"/></g></g></svg>