<svg xmlns="http://www.w3.org/2000/svg" viewBox="0 0 690 260"><g id="MIlpa_Name_Web" data-name="MIlpa Name Web"><g id="Card_Game_Banner" data-name="Card Game Banner"><path d="M411.75,72.1a7.9,7.9,0,0,0,2-.77c1.72-.49,6.9-2.43,7.48-2.53,1.44-.39,6.61-1.84,7.76-2a29.38,29.38,0,0,0-3.45-.58c-1.15-.2-3.74-.49-4.31-.49s-4.32-.19-5.18-.29c-.58-.39-2-1.84-1.73-2.13a7.15,7.15,0,0,1-.86-.88,2.48,2.48,0,0,1,1.15-.78,1.05,1.05,0,0,1,.57-.48A25.43,25.43,0,0,1,419,59.67l3.74-1.16c.86-.2,5.17-1.36,6-1.36l-.58-.59s-12.37-1.16-17.83-2a11.22,11.22,0,0,1-1.44-.19,8.84,8.84,0,0,1-1.15-.2c-.58.2-4-.48-4.61-.38s-2.3-.68-2.87-.78c0-.19-.87-.68-1.15-1.07-.29-.1-.29-.48,0-.68a3.09,3.09,0,0,1,1.15-1c0-.29.57-.78.57-.78l12.37-1.75.58-.48c-1.44-.29-6.91-.68-8.34-.87a16.77,16.77,0,0,1-2-.78c-.57-.2-2-.49-2-.68,0,0-.58-.29-.86-.39v-.78a12,12,0,0,1,1.15-1.16,7.83,7.83,0,0,0,1.43-1.17,10.36,10.36,0,0,1,2.31-.87,35.29,35.29,0,0,1,3.74-1.07c.28-.2,5.17-.88,6.61-1.07l15.82-1.94,3.74-.1c1.16-.29,7.48-1.26,8.06-1.36.86,0,4.89-.48,5.46-.39.29-.09,5.76-.78,6.62-.78s4.32-.48,4.89-.48c1.44-.1,6.62-.49,7.48-.49a13.29,13.29,0,0,1,2.59-.19,32.06,32.06,0,0,1,3.74-.29c1.44-.2,8.05-.59,9.49-.59,1.44-.19,5.47-.38,6.33-.38.58-.2,7.77-.49,8.63-.49.58-.1,3.46-.39,3.74-.39.86.1,6.33-.1,6.91-.1.86.1,6.9-.48,8.91-.48.29,0,5.47-.29,5.76-.39,2,0,9.78-.39,10.93-.58,1.72,0,8.34-.2,9.49-.2.87-.09,5.18-.09,5.47,0h2.88c.28-.19,2.87-.09,3.45-.19,1.44.1,7.48.1,8.92.1,1.72.09,9.78.09,11.5.09,1.15-.09,7.2-.09,8.35-.29a33.4,33.4,0,0,0,4.6-.19c1.73.1,9.2,0,10.64-.1a27.72,27.72,0,0,1,2.88.1c2.3,0,16.11.58,17.84.68.86,0,9.78.29,10.93.29l8.91.39c.58.09,5.76.39,6.33.48.58-.09,4.61.2,5.47.2,0,0,1.15.19,2,.29a14,14,0,0,1,2,.29s.86.39,1.43.68c.29,0,1.15.29.29.29,0,0-.57.68-.86,1,0,.2-.58.78-.58.78s-4.6.88-6.32,1.17c-1.15.38-10.07,1.55-12.37,1.94L627.51,38c-.29.1-.86.2-.86.29h-.86s.57.29.57.39c.58.1,5.18.88,6.33,1.17.86.09,10.93,1.36,11.79,1.55s6.33,1.07,7.49,1.36a4.09,4.09,0,0,1,1.72.58s.86.29.86.39c-.28.1,0,.68,0,.88l-.28.19v.1c-.29.19-2,.68-2,1a47.61,47.61,0,0,0-5.46,1.55c-.87.2-5.76,1-6.62,1.07l-1.15.88,15.82,2.13a27.23,27.23,0,0,1,4,1.17c-.29,0,0,.77,0,.87l-.87.58a19.27,19.27,0,0,1-2.29.59c0,.19-1.73.58-1.73.58s-.29.1-.29.19v.1c-.29.2,1.44,1.17,1.44,1.46l8.34,2.23c.29.2,2.59.88,2.59,1a2.22,2.22,0,0,1-.29,1.17v.1l-.29.19a14.08,14.08,0,0,1-3.16.49,14.39,14.39,0,0,1-2.3.48c-.58,0-3.45.2-3.45.2-.29,0-2,.39-2.3.39-.58.09-4.89-.1-6-.1l-.87-.2c-.29,0-4.89-.19-5.18-.19-1.44-.29-11.5-.1-12.66-.19,0,0-5.46-.2-7.76-.2a29.9,29.9,0,0,0-3.45-.19c-1.73,0-7.48.29-8.92.19-1.73,0-9.5.29-11.51.29-1.44,0-7.19.49-7.77.39-1.72.2-8.34.49-9.49.39-.86.1-5.75.49-6.33.39-2.59.1-22.72.87-25,1.16-.86,0-8.34.3-8.92.39l-12.65,1c-2.3.29-21.87,1.07-23.88,1.17-.86.19-4.31.39-5.18.58s-5.75.59-6.33.59a9.15,9.15,0,0,0-1.72.29c-1.73.29-8.35.58-9.21.58-.29,0-4.89.49-5.18.49-3.45.29-11.21.87-11.5.77-1.15.2-10.07,1.75-11.22,1.75l-9.21,1.07c-1.44.19-11.22,1.46-12.08,1.65-2.59.2-10.07,1.17-10.36,1.26-1.44.1-5.18.49-5.46.49l-1.16-.2a15,15,0,0,1-1.72-.19,17.47,17.47,0,0,0-2.88-1.85V74c.29-.19.29-.87.29-1s.29-.39.29-.39S411.47,72.2,411.75,72.1Z" style="fill:#253659"/><path d="M470.28,60.16s-.23-.33-.33-.4l-.23-.27c-.09-.23-.51-1-.55-1.07s-.08-.32-.12-.41a15.4,15.4,0,0,1-.36-2.58,13.55,13.55,0,0,1,.49-3.62,1.78,1.78,0,0,1,.05-.47,6.89,6.89,0,0,0,.31-1.17l.55-1.2.18-.39c.46-1,.85-2,1.38-2.94l.43-.76s.12-.2.12-.2.69-.86.71-1,.27-.37.32-.47.12-.2.12-.23a3.34,3.34,0,0,1,.3-.41s.19-.33.25-.37a13.18,13.18,0,0,1,1.15-1.45L476.5,40a2.74,2.74,0,0,1,.59.06c.15,0,1.43-.15,1.61-.15s.23.06.31,0a4.53,4.53,0,0,1,3.11,2.3l.1.07a10.9,10.9,0,0,1,.51,1.38c0,.06,0,.79,0,.88a2.41,2.41,0,0,1,0,.36c0,.06,0,.31,0,.34s-.09.4-.09.4,0,.58,0,.61-.46.59-.51.65l-.12.23a2.82,2.82,0,0,1-1.2.88l-.42.22-1,.15a2.87,2.87,0,0,1-1.61-.37c-.43-.27-.84-.57-.88-1-.07-.65.3-1.44.75-1.23.53-.14.18-.24.68-.32a2.91,2.91,0,0,1,.49.2c.53.32.13,1.07.68,1.48a.75.75,0,0,0,1.12,0l.25-.37.08-.26s.1-.56.09-.62a1.09,1.09,0,0,0,.1-.19,1.25,1.25,0,0,0,.11-.44c0-.22.05-1.53,0-1.82a2.64,2.64,0,0,0-2-2l-.28-.05c-.27-.14-.3.05-.62,0l-1.18.18a5.72,5.72,0,0,0-.53.35,7.73,7.73,0,0,0-2.23,3.49l-.1.38c0,.1,0,.73,0,.79s-.12.44-.11.47.2.54.17.73a6.82,6.82,0,0,1-.07,1s-.07.32-.07.35,0,.51,0,.57-.12,1.48-.09,1.62c0,.4.08,3.36.07,3.69l.16,1.71,0,.12,0,0c.06.6.12,2,.12,2l.15.19.92,1.69a1.72,1.72,0,0,0,.59.27l.18,0s.28.07.31.07l1.4-.21,1.11-.29c.11,0,.77-.3.85-.37s.24-.22.3-.26.13-.11.12-.17l1-.44a20,20,0,0,0,3.28-2.74c.26-.31,1.16-2.21,1.47-2.56l.09-.22c.05,0,0-.58,0-.61a1.33,1.33,0,0,1,.2-.46.76.76,0,0,1,.1-.34,1,1,0,0,1,.29-.29,4.82,4.82,0,0,1,.49,0,3.75,3.75,0,0,0,.39.18A4.69,4.69,0,0,1,488,53c0,.06,0,.21,0,.22a2.33,2.33,0,0,1-.42.67l-.18.39s-.1.16-.09.19a1,1,0,0,1-.22.16c-.14.11-1.24,2.28-1.31,2.38a.48.48,0,0,1-.11.26l-.21.27-.41.28-.73.8a1.77,1.77,0,0,1-.45.4,4.71,4.71,0,0,1-.45.22,4.59,4.59,0,0,0-.61.4l-.56.54-.21,0c-.06,0-.19.15-.24.19l-.6.63a4.09,4.09,0,0,1-.48.29l-.36.41c-.14.06-1.16.18-1.21.22l-.63.46c-.08,0-.61.15-.7.19l-.28.17-.44.06a7,7,0,0,1-3.84-.33s-.08-.11-.11-.11a.93.93,0,0,0-.3-.19l-.57-.34a.51.51,0,0,0-.22-.09C471.82,61.51,470.53,60.43,470.28,60.16Z" style="fill:#fff"/><path d="M484.45,56.51c0-.09.26-.82.25-.91s.07-.37.18-.66l.69-1.45a5.63,5.63,0,0,1,.38-.81c.07-.13.58-.89.73-1.09l.54-.71,1.7-2.34a2.21,2.21,0,0,0,.2-.29l.12,0a3.12,3.12,0,0,0,.52.08c.06,0,.65-.11.74-.1l.26.09a1.63,1.63,0,0,1,.37.08l.54.17c.71-.31,1,1,.74,1l-.57,1.22c-.69,1.45-1.87,2.12-2.46,3.62l-.48,1.18c0,.13.51,1.36.48,1.39l0,.09a1.53,1.53,0,0,0,.93-.34,6.43,6.43,0,0,0,1.23-2.15l.43-1.33c.07-.16.28-1.37.32-1.52s.26-.73.26-.79l.08-.53s.24-.21.32-.28l.34-.17a1.16,1.16,0,0,1,.26-.15.27.27,0,0,1,.11-.05c.21,0,.5.09.53.33a11.09,11.09,0,0,1-.06,1.4,23.2,23.2,0,0,0,.19,3.54,4.66,4.66,0,0,0,.36,1.62c.09.17.29.11.44.09l.32-.07a1.84,1.84,0,0,0,.46-.18s1.88-1.37,1.88-1.4,1.38-1.69,1.43-1.76.53-1.28.61-1.35a1.31,1.31,0,0,1,.83-.38c.15,0,.76.54.79.74v.09a.63.63,0,0,1-.19.39,6.47,6.47,0,0,1-.68.58.59.59,0,0,1-.1.16l-1.69,1.64a.93.93,0,0,1-.21.27c-.1.14-2.19,2-2.3,2a1.86,1.86,0,0,1-1,.24l-.59.08a1.53,1.53,0,0,1-.41-.07c-.85-.31-1.14-1.57-1.3-2.37a2.26,2.26,0,0,1-.69,1.45l-.45.31c-.13.13-1.22,1.06-1.35,1.17a4.25,4.25,0,0,1-1.94.89l-.18,0c-.31,0-1.19,0-1.25-.07s-1.09-.47-1.35-.58c-.07-.06-.54-.42-.68-.55a2.32,2.32,0,0,1-.69-1.36Z" style="fill:#fff"/><path d="M504,55.25a1.7,1.7,0,0,1,.06-.28,2.85,2.85,0,0,0,.41-.59,6.68,6.68,0,0,0,.62-1.25c.08-.13.89-1.18.91-1.31s-.09-.29-.1-.35h-.3a1.56,1.56,0,0,0-.54.06s-.2.11-.19.14c-.24.09-1.13.7-1.28.72a4.67,4.67,0,0,1-.38.4c-.09,0-.94.8-1.08.85a3.12,3.12,0,0,1-1.84.29,1.38,1.38,0,0,0-.3-.24,5.83,5.83,0,0,1-.53-.39s-.24-.31-.25-.37-.23-.18-.23-.21-.19-.31-.19-.34a5.77,5.77,0,0,1-.13-.89,18.31,18.31,0,0,1,.36-1.92l.64-.43a3.23,3.23,0,0,1,.65-.13,5.1,5.1,0,0,1,.9,0,2.89,2.89,0,0,1,.75.16l.28.09a3.17,3.17,0,0,1,.28.36l.06.53a9.25,9.25,0,0,1-.42,1.35c-.16.23.11.17.11.17s.27-.21.27-.21.85-.55,1-.56a2.17,2.17,0,0,1,.34-.19h.09a16.76,16.76,0,0,1,1.75-.5,3.24,3.24,0,0,1,.62.08,5.21,5.21,0,0,1,.75.28,5.92,5.92,0,0,1,.83.69c0,.09.15.23.16.29a2.86,2.86,0,0,1,.29.72,2.82,2.82,0,0,1,.21.52s.05.2.06.29,0,.36,0,.36c0,.16-.1,1-.1,1.22a.74.74,0,0,1-.1.26s-.1.13-.1.16-.25.75-.3.82-.49,1.26-.57,1.39l-.21.53a2.79,2.79,0,0,1-.14.68l0,.27s.24.19.24.22l.15,0c.14,0,.6-.28.69-.32s1-.65,1.12-.79.13-.13.13-.13.4-.53.48-.6a8.51,8.51,0,0,1,.69-.8l.54-.6A14.12,14.12,0,0,0,512.61,54l.43-.48a1,1,0,0,0,.21-.29c0-.07.3-1.09.32-1.15l.52-.76.15-.59a.88.88,0,0,1,.21-.26,5,5,0,0,1,.38-.35,2.22,2.22,0,0,0,.36-.06l.38-.05.25.06a1.43,1.43,0,0,1,0,.18l0,.21s-.15.35-.17.44a3.1,3.1,0,0,0-.26.6s-.32.4-.35.43a1.12,1.12,0,0,1-.16.44s-.16.17-.19.18c-.34.16-1.16,1.82-1.41,2a11.51,11.51,0,0,1-.86,1.18,3.55,3.55,0,0,1-.33.34,4.65,4.65,0,0,0-.39.77,2.26,2.26,0,0,1-.26.42l-.4.46a4,4,0,0,1-.31.43c0,.09-.27.3-.3.34a9.22,9.22,0,0,0-.71.89l-.28.18-.63.62a2.9,2.9,0,0,0-.57.3l-.68.11-.63,0c-.09,0-.8-.12-1-.13a1.62,1.62,0,0,1-.26-.12,5.85,5.85,0,0,1-.86-.45s-.13-.11-.17-.13a4.42,4.42,0,0,0-.41-.47l-.45-.74s-.16-.61-.19-.88v-.12A6.05,6.05,0,0,1,504,55.25Z" style="fill:#fff"/><path d="M526.4,51.85l.18.34c.1.41.07.45-.21.71a.74.74,0,0,0-.19.2s-.28.21-.34.21-.16.2-.19.2A6.77,6.77,0,0,1,525,54a5,5,0,0,1-1.22.51l-.24,0c-.19-.1-1-.66-1.18-.77l-.14-.1c-.06-.06-.43-.84-.47-.89s-.51-.62-.55-.71-.24-.4-.31-.45l-.11.13a4.83,4.83,0,0,1-.18.62l-.31.54-.72,1.69c-.05.1-.28.57-.33.64a.28.28,0,0,1-.11.13,2.8,2.8,0,0,1-1.75.67l-.54,0s-.25-.1-.28-.1-.66,0-.72,0-1.1-.5-1.33-.63a9.6,9.6,0,0,1-.78-.68,2.39,2.39,0,0,1-.65-1.42V53c0-.15,0-.79,0-.85l.09-.4c.07-.21.36-.93.41-1l.32-.51c.22-.26,1.14-1.4,1.36-1.63a2.06,2.06,0,0,1,.33-.27,2.47,2.47,0,0,0,.22-.29l.25-.15c.12,0,.52-.26.58-.29l.5-.17c.06,0,.66.06.75,0l.72-.06a2.42,2.42,0,0,1,.52.07l.26.22,0,.05a.41.41,0,0,1,0,.1,1.83,1.83,0,0,1-.21.26c-.06,0-.56.14-.62.17s-.41.49-.54.69-.61.84-.67.93a.75.75,0,0,0-.21.26s-.09.34-.12.37-.39.7-.41.8a10,10,0,0,0-.23,1.37s0,.39,0,.54.08.57.08.6a1.15,1.15,0,0,0,.14.23l.27.33a.44.44,0,0,0,.13.11,1.41,1.41,0,0,0,.22,0l.14,0,1.47-1.73a7.74,7.74,0,0,0,.32-.79l.27-1a2.16,2.16,0,0,1,.1-.25c0-.16.18-.59.18-.65a8.19,8.19,0,0,0,.19-.89c0-.15-.16-1.44-.15-1.62a8,8,0,0,1,0-1l.26-1c.08-.19.32-1.18.39-1.4,0-.44-.13-2.42-.14-2.84,0-.12,0-1,0-1.15l0-.39,0-1.09a1.94,1.94,0,0,1,1.27-1.2l.25.1c.1,0,.42,0,.49,0s.49.4.55.43.68,1.53.78,1.55.28.46.3.67l0,.3a3.47,3.47,0,0,0-.06.64l-.14,1.51c0,.09-.13.89-.14,1L523.54,45a3.31,3.31,0,0,0-.08.49c0,.18,0,1.56,0,1.74l-.2.77a6.47,6.47,0,0,1,0,.76c0,.06-.08.46-.07.49l.13,1.49c0,.12.2,1.19.25,1.4s.15.25.15.31A5,5,0,0,0,524,53c0,.06.2.22.26.24h.12c.11-.1.41-.07.72-.36s.18-.35.33-.64.23-.17.3-.36l.29-.17Z" style="fill:#fff"/><path d="M537.47,41.72a6,6,0,0,1,1.13-1.67c0-.09.42-.47.42-.53.42-.45.75-1,1.14-1.45l.14-.16c.09-.07.53-.76.58-.82a3.36,3.36,0,0,0,.52-.39,6,6,0,0,0,.55-.76,4.6,4.6,0,0,0,.76-.85c.12-.1.64-.85.79-1s.08-.13.08-.13.46-.27.58-.36l.49-.27a3.87,3.87,0,0,1,.72-.5,3,3,0,0,1,1.6-.45l.57,0a1.61,1.61,0,0,1,.42.1,4.7,4.7,0,0,1,1.47.48l.63.44.24.44a2.09,2.09,0,0,0,.27.46.91.91,0,0,1,.25.2,2.54,2.54,0,0,0,.06.5s.11.3.11.33a2.18,2.18,0,0,0,0,.27,2.16,2.16,0,0,1-.3,1l-.45.45a.88.88,0,0,1-.35.17l-.33,0-.27,0c-.47-.3-.13-.68.21-1v0a2.09,2.09,0,0,0,.36-.92v-.12c0-.06-.07-.21-.1-.21a2,2,0,0,0-1-.87c-.28-.08-.92-.31-1-.3l-1.59.09a2.22,2.22,0,0,0-.32.14l-.18.11c0,.06-.17.16-.2.16-.26.16-.27.49-.37.71,0,0-.15.1-.14.16a12.75,12.75,0,0,0-1.14,2.62c-.08.07-.46.75-.55.82a1.47,1.47,0,0,1-.13.37,3.69,3.69,0,0,0-.24.49c0,.06-.12.43-.12.46a5.86,5.86,0,0,0-.56,1.12c0,.12-.26,1.27-.28,1.39a1.53,1.53,0,0,0-.16.37.44.44,0,0,0-.1.22,5,5,0,0,1-.22.83,5.46,5.46,0,0,1-.13.94c0,.36-.16,1.24-.16,1.33s0,.72,0,.8,0,1.48,0,1.6l.17.83c.06.08.29.91.43,1.17l.07.18a1.49,1.49,0,0,1,.05.36c.07.08.41.72.44.78s.11.33.11.36a2.14,2.14,0,0,1,.15.47,1.2,1.2,0,0,1,.11.35c0,.06.13.17.17.23a2.33,2.33,0,0,0,.38.4,1.62,1.62,0,0,0,.47.33,3.39,3.39,0,0,0,.59.33l1.26-.08s.56-.21.71-.28l.58-.25c.09-.06.54-.51.74-.65s.6-.63.71-.73a6.38,6.38,0,0,0,1.4-4.11,8.59,8.59,0,0,0,0-.87.73.73,0,0,0-.11-.36c-.05-.23-.08-.32-.32-.31h-.18c-.21,0-1.67.2-1.88.21l-2.37.14a3,3,0,0,0-.33-.07,1.6,1.6,0,0,0-.28-.22l-.13-.11s0,0,0-.07v-.09a.6.6,0,0,1,.07-.33.68.68,0,0,1,.26-.11,2,2,0,0,1,.32-.26,2.35,2.35,0,0,0,.25-.28s.39-.09.44-.12l.93-.06c.15,0,1.09,0,1.27,0s1.74,0,1.92,0l.58.11.31.23s.07.08.07.08a4,4,0,0,1,0,.6s.1.06.1.12a3.69,3.69,0,0,1,.05,1.29,6.67,6.67,0,0,1-.08.69s-.13.31-.13.34a5.3,5.3,0,0,1,0,.69,3.26,3.26,0,0,1-.17.7c0,.13-.13.76-.13.85a7.26,7.26,0,0,1-.57,1.45c0,.06-.08.19-.14.22-.41.59-1,1.17-1.42,1.74a5.25,5.25,0,0,1-.62.7c-.06.09-.32.26-.31.29l-.85.38a1.57,1.57,0,0,0-.23.13c-.44.18-1.62.64-1.73.71a7.31,7.31,0,0,1-.92.17l-.57,0c-.12,0-.85,0-1-.06a2.93,2.93,0,0,0-.55-.09c-.06-.05-.86-.39-1.14-.53a3.85,3.85,0,0,0-.53-.3l-.54-.44c-.22-.2-.89-.79-.95-.88l-.33-.43a.68.68,0,0,1-.07-.23c-.07-.09-.4-.61-.46-.67s-.53-1.32-.7-1.61l-.58-1.59a6.68,6.68,0,0,1-.22-2.21,3.09,3.09,0,0,0,.06-.45A14.65,14.65,0,0,1,537.47,41.72Z" style="fill:#fff"/><path d="M552.4,50c0-.09.33-.79.33-.88s.1-.37.24-.64l.82-1.39a4.77,4.77,0,0,1,.45-.76c.08-.13.65-.84.83-1l.6-.65,1.89-2.18a1.58,1.58,0,0,0,.23-.28h.12a3.25,3.25,0,0,0,.52.12c.06,0,.66-.05.75,0l.24.11a1.73,1.73,0,0,1,.37.11l.52.22c.74-.24.88,1.07.64,1.08L560.28,45c-.82,1.38-2.06,2-2.78,3.38l-.58,1.14c-.06.12.38,1.39.35,1.43l0,.08a1.49,1.49,0,0,0,1-.24,6.47,6.47,0,0,0,1.42-2l.55-1.28c.08-.16.39-1.34.45-1.49s.33-.71.32-.77l.13-.51a4,4,0,0,1,.35-.26s.33-.13.36-.13a1.05,1.05,0,0,1,.26-.13.49.49,0,0,1,.12,0c.21,0,.49.13.5.37a11,11,0,0,1-.19,1.39,23.46,23.46,0,0,0-.12,3.55,4.31,4.31,0,0,0,.21,1.64c.07.18.28.14.43.13l.33,0a1.75,1.75,0,0,0,.47-.14s2-1.19,2-1.22,1.53-1.56,1.59-1.62.64-1.23.73-1.29a1.3,1.3,0,0,1,.86-.31c.15,0,.71.6.72.81v.09a.68.68,0,0,1-.22.37,6.34,6.34,0,0,1-.73.51s-.09.12-.12.16L566.84,50a.92.92,0,0,1-.23.25c-.11.12-2.36,1.75-2.48,1.81a1.82,1.82,0,0,1-1,.16l-.6,0a1.4,1.4,0,0,1-.39-.1c-.83-.39-1-1.67-1.1-2.48a2.22,2.22,0,0,1-.81,1.39l-.47.25c-.15.13-1.31,1-1.46,1.05a4.11,4.11,0,0,1-2,.72h-.18c-.3-.05-1.18-.16-1.24-.19s-1-.56-1.29-.7c-.06-.05-.5-.46-.62-.6a2.27,2.27,0,0,1-.57-1.42Z" style="fill:#fff"/><path d="M580.43,49.82c0-.12.37-1,.4-1.17s.37-1.42.43-1.57.23-.73.22-.82,0-.39,0-.48l-.21,0c-.09,0-.27.12-.27.12s-.15.24-.18.28a1.28,1.28,0,0,1-.29.27,1.78,1.78,0,0,1-.12.24s-.12.12-.15.18-.08.37-.14.37a5.38,5.38,0,0,1-.6.28,3.72,3.72,0,0,0-.53.67s-.11.09-.14.12a.61.61,0,0,0-.15.27l-.59.79a8.41,8.41,0,0,0-.25.93s-.12.25-.15.25-.14.51-.14.54a1.06,1.06,0,0,1-.12.24l-.58.94-.27.25h-.9a1.07,1.07,0,0,1-.27-.12l-.3-.35c0-.06-.1-.39-.13-.54-.1-.51-.48-1.88-.48-2l0-1.17c0-.09.1-.81.13-1,0,0,.11-.61.14-.64v-.3a1,1,0,0,0-.29.16,6.23,6.23,0,0,0-.44.55l-.42.24c-.12.12-.62,1-.7,1.06s-.62.61-.71.68a6,6,0,0,1-.44.51c0,.09-.21.34-.24.4s-.44.63-.47.67-.23.51-.29.66a2.93,2.93,0,0,1-.11.42,1.05,1.05,0,0,0-.15.24,2,2,0,0,1-.41.25l-2-.45-.3-.14a1.2,1.2,0,0,0-.28-.27c0-.24-.14-1.43-.14-1.7v-.24c0-.18.08-1,.1-1.06s.15-.48.15-.54.1-.69.1-.75.26-1,.29-1.09.14-.57.14-.63a3.6,3.6,0,0,1,.11-.54c.06-.12.37-1.06.46-1.18l.14-.66c0-.09-.07-.48,0-.54a2.09,2.09,0,0,1,.56-.25l.48,0c.15,0,.45,0,.51,0s.73.2.88.23l.69.38c.1,0,.19.12.19.15v.9a9.8,9.8,0,0,1-.15,1.83c0,.09-.08.48-.08.54v.12s.09.12.09.12a1.37,1.37,0,0,0,.33-.25c.12-.12.85-.94,1-1s.39-.4.39-.43a8,8,0,0,0,1-.56c.15-.06.53-.25.56-.25l.48,0c.12,0,.45,0,.54,0a2.26,2.26,0,0,1,.43.11,3.76,3.76,0,0,1,.72.38l.31.38c.09.12.4.69.46.78a1.19,1.19,0,0,0,.13.39,4.24,4.24,0,0,1,.16.68h.15c.18-.18,1.09-.92,1.27-1.1a7.83,7.83,0,0,1,.74-.49s.24-.13.3-.19a4.77,4.77,0,0,1,.51-.13H582a3.72,3.72,0,0,1,.81.29c.22.12,1.07.94,1.28,1.12a5.88,5.88,0,0,1,.15,1.44c0,.09-.28,1.26-.4,1.72a2.63,2.63,0,0,0-.11.39,4.24,4.24,0,0,0-.17.66c0,.06-.26.72-.26.78a5,5,0,0,1-.11.52V52a.41.41,0,0,0,.39.38,7.06,7.06,0,0,0,.72-.25l.86-.41.3-.24.3-.16.74-.4.71-.4s.27-.24.3-.24a.81.81,0,0,1,.27-.16s.12-.09.15-.12.77-.46.89-.56l.68-.49c.09-.09.8-.85.85-.94s.18-.51.23-.57l.66-.17a2.72,2.72,0,0,1,.51.15c.09,0,.31.08.31.14s0,.12,0,.18,0,.18,0,.21-.29.28-.44.4l-1.12.92-1.31,1.19c-.06.06-.74.4-.8.43a5.57,5.57,0,0,0-.62.4,3.27,3.27,0,0,1-.57.25c0,.06-.38.25-.44.31s-.21.09-.24.09-.56.58-.65.58l-1.1.8c-.09,0-.54.22-.6.25a7.94,7.94,0,0,0-.84,0h-.12a3.39,3.39,0,0,0-.45-.12c-.06,0-.51-.11-.63-.11s-.39-.11-.42-.14a.89.89,0,0,0-.16-.27,6.92,6.92,0,0,1-.7-.65,5.7,5.7,0,0,0-.31-.5s-.12-.12-.12-.15a3.33,3.33,0,0,1-.16-.51C580.3,51,580.4,50,580.43,49.82Z" style="fill:#fff"/><path d="M590,46.7s.27-.51.36-.66l.33-.57.34-.33.69-.56a1.12,1.12,0,0,1,.36-.21c.09-.06.73-.32.82-.35s.48-.51.54-.57l.48-.35.78-.42.58-.26a1.42,1.42,0,0,0,.36-.21H596a2.81,2.81,0,0,0,.48.12c.09,0,.81.1.9.1s.53.3.68.36.45.37.54.46a4,4,0,0,1,.36.36,4.64,4.64,0,0,1,.12.45v1a2.26,2.26,0,0,1-.22.45l-.27.33a4.58,4.58,0,0,1-.33.48,2,2,0,0,1-.21.33l-.58.44-.81.68a.75.75,0,0,0-.21.12l-.9.33a8,8,0,0,0-1,.68l-.15.33c0,.06-.07,1.32-.14,1.83v.06a1.1,1.1,0,0,0,.27.6l.33,0,.33,0a1.27,1.27,0,0,0,.36-.08,6.54,6.54,0,0,0,1.14-.23l.58-.39c0-.06.18-.18.21-.24s.36-.21.51-.42c.36-.47.73-1.16.82-1.28a2.29,2.29,0,0,1,.24-.33l.45,0c.21,0,.15.24.27.27,0,.45.2,1-.43,1.43a3.42,3.42,0,0,0-.64.63,3.55,3.55,0,0,1-1.87,1.31,1.69,1.69,0,0,1-.24.2c-.06,0-.45.09-.45.09l-1,.29a3.16,3.16,0,0,1-1.2.21h-.42a6.86,6.86,0,0,1-1-.12,5.27,5.27,0,0,1-.69-.37,9.45,9.45,0,0,1-.92-.67,5.76,5.76,0,0,1-.42-.45c0-.06-.24-.42-.24-.45l-.09-.12-.26-.57s-.06-.21-.09-.21V50c0-.06-.11-.63-.11-.66v-1.5C589.76,47.69,589.94,46.91,590,46.7Zm6.73-2.56a1.45,1.45,0,0,0-.33.26c-.15.12-.78.75-.9.9l-.16.21s-.06.11-.09.11a.75.75,0,0,1-.12.21c-.06.21-.21.66-.21.69v1c.6-.26,1.11-.56,1.72-.89.12-.08.51-.29.57-.32l.54-.48s.12-.09.12-.09l.12-.24.12-.08a3.84,3.84,0,0,0,.13-.6,2.87,2.87,0,0,0-.12-.34l-.24-.36a.62.62,0,0,1-.11-.09H597Z" style="fill:#fff"/></g><g id="MILPA"><g id="Big_milpa_word" data-name="Big milpa word"><path d="M7.37,82s41.77-11.46,41.77-8.09,10.78,16.85,17.51,2.7,46.49-11.79,58.62-11.79-4,83.87-4,103.75a28.77,28.77,0,0,0,16.51,26.61S137.06,247,134,249.7s-13.47,2-34-7.75-22.9-73.43-22.23-82.19-16.51-4.38-23.92-3-.67,55.92-.67,60-27.29,28-27.29,28S10.74,241.28,6,235.89,8.38,82.62,7.37,82Z" style="fill:#fff"/><path d="M204.76,91.38c.34-11.79-1.69-24.25-2-36.38,1-4.72,5.39-7.08,8.76-5.73,8.75-9.09,30.31-9.09,41.09-9.09,3.37,1.35,7.75-3.71,9.1-.34,0,10.44-2.36,35.71-2.36,35.71-2,31.32,2.36,54.9,4.38,85.56,1.35,19.2,1,38.4,1,57.6,0,4.72-4.72,13.14-6.06,17.85-2.7,8.42-10.78,13.14-18.87,16.17-7.07,2.7-19.54,1.35-30.32-1.68C207.45,211.3,203.41,133.15,204.76,91.38Zm17.85-66.7C223,23.33,224,22.32,225,21c7.07-5.39,14.82,1.68,9.77,8.75a5.18,5.18,0,0,1-1.35,2c-.34.67-.67.67-.67.67C228,36.14,220.59,32.43,222.61,24.68Z" style="fill:#fff"/><path d="M320.63,31.42c-1.34,0,61.31-14.82,57.27-8.76s-18.19,158-14.82,158,70.74,0,72.76,4-1.35,30.65-1.35,30.65-19.87,36.38-24.59,40.42-88.59.68-94-.67S322,31.42,320.63,31.42Z" style="fill:#fff"/><path d="M470.61,229.26C470.11,201.85,461,116.07,460,108s41.87-5.08,53.8,2.54,23.09,12.94,21.06,20.55-19.54,25.64-25.12,27.16S504.62,245,504.62,245s-12.18,14-20.55,11.42S471.12,256.67,470.61,229.26Z" style="fill:#fff"/><path d="M598,220.88c4.32-5.58,8.38-44.92,10.92-65s14.21-53.8,13.19-53.8,43.65,89.34,44.92,92.63,12.44,52.79,10.16,56.09-18,3-19.55,0-10.15-31.47-11.42-33.24-10.15,2.53-11.92,6.34-18.53,23.09-20,23.6-25.38,5.84-28.17,5.84S593.7,226.47,598,220.88Z" style="fill:#fff"/></g><g id="Big_milpa_word_top" data-name="Big milpa word top"><path d="M4.08,187.76c-1-24.93-1.69-48.85,1-73.78,0-8.42,1.34-29,2.69-33.34V79c6.06-2.36,11.79-6.74,17.52-11.45,11.79-9.1,37.05-27.29,37.05-1.35,1.35,3.71,4,8.09,5.39,11.45a35.42,35.42,0,0,1,4.38-8.75c11.79-8.09,20.21-18.19,32.68-18.19,4.71,0,16.16,2,22.9,1,3.71-.34,6.74-.68,10.44,1.34-.33,44.13-13.13,80.51-2.35,124,3,14.48,11.11,7.74,16.84,15.83-3.71,17.51-13.48,42.1-13.81,58.95-27.29,5.05-37.06-7.08-47.5-21.56-8.42-11.79-12.8-50.53-12.8-77.81V138.57c-1.68,4.05-3,7.75-5.73,11.79-4.71,6.4-15.49,5.39-22.23,2.7a27.8,27.8,0,0,1-1.35,5.73c-5.39,18.52,6.4,38.4,4,56.59-1,7.07-20.55,24.59-23.58,32.33L8.46,237.61a12.94,12.94,0,0,0-2-.67C10.81,221.1,5.42,203.92,4.08,187.76Zm24.59,55.58c3.7-19.54-4.38-92.64,6.73-119.25,11.12,7.75,10.45,14.82,14.15,23.24,17.18,13.14,24.25-6.73,31.67-18.52.67.67,2,1,2,3-3,18.52-1.35,36.38,1.68,54.9,1.35,12.13,2.36,24.93,6.74,36.38,2.69,5.39,17.85,22.24,26.61,24.93a38.32,38.32,0,0,0,16.51.68c1-3.71-2-24.59-2.36-31.33-5.06,0-6.74-.34-8.76-2v.33c-10.11-6.73-9.77-24.59-9.77-36.38.34-38.06-3.37-72.76,5.39-107.45-3.71-.34-11.79-.34-20.21-.34-11.45,0-23.92.34-25.6,1-6.74,13.14-10.11,36.72-16.84,48.51-1.35,0-2,0-3-1-5.05-13.14-3.7-27.62-8.42-40.76C37.09,82,19.91,84.68,11.82,83c2.7,39.75-8.08,79.84-1,119.59.34,7.07,4,24.92.34,32.67a1.24,1.24,0,0,1,.34,1C11.49,237.61,27,242.66,28.67,243.34Z" style="fill:#d91a60"/><path d="M204.5,239c-2.7-28-3-148.56-3.71-158a158.27,158.27,0,0,1,1-18.52v-.34a54,54,0,0,1,4.72-10.44c11.12-22.24,34-8.42,52.55-15.5,1,32.68,1.35,66.36,3.7,98.7,2,30.65,4.38,63.66-1.34,94-1.69,8.09-7.08,10.11-12.8,16.17-1.69,15.5-20.89,7.75-33,9.77C203.49,255.8,204.5,252.09,204.5,239Zm23.92,12.12a24.7,24.7,0,0,0,7.07.34,2.42,2.42,0,0,0,2.36-1.35c13.13-36.71,9.43-76.46,6.4-114.53-2.7-27.28-2.36-54.9-1.69-82.19-7.41,2.7-13.81,1.35-21.56,3-3,.34-5.38,1.69-8.08,3.71-2.36,1.35-4,2.69-7.07,3.37-2.7,58.27,0,115.87,2.35,173.48,0,4.71-1.68,9.43,0,14.14C214.6,253.44,222.35,248.73,228.42,251.08ZM220.67,21.69C224,17,228.75,12.25,233.13,7.88c22.23-21.23,36.38,20.21,1.35,28h-1C224,37.86,216.63,27.41,220.67,21.69Zm13.47-1.35C227.07,19,223,23.71,223.7,28.09c2,2.35,6.4,3.7,9.77,3.37C235.15,27.75,235.83,24.38,234.14,20.34Z" style="fill:#d91a60"/><path d="M319.36,166.2c-.33-43.79,1.69-86.57,1-131a3.07,3.07,0,0,1,1-2.69c19.2-17.18,36.71-19.2,61.3-21.56a9.16,9.16,0,0,1,2,1c-4.71,53.89-15.83,108.46-15.83,162.7,22.23,5.72,46.82-5.73,69.06.67,1,.68,1,1,1.68,2.36-2.36,11.12,3.37,35.71-2.69,47.83-5.39,10.45-15.5,19.54-22.57,29.31-27.62,4.38-67-1.35-95.33-2.7C316,252.77,320,186.41,319.36,166.2ZM411,253.44c0-.34.67-1,.67-1.35-3-6.73-1.68-23.24-1.34-33-2.36.34-5.73.34-9.44,1-14.48,2-48.84,12.47-51.54-6.4-3.7-49.18-.67-103.41,2.36-143.16,1.35-11.45,2.7-22.57,2.7-33.69a62.41,62.41,0,0,0-11.12-1c-3.37,0-6.74.34-10.1.34h-8.76c0,71.41-2.7,141.82-2.36,213.23C351.37,250.07,382,252.43,411,253.44Z" style="fill:#d91a60"/><path d="M474,246.29c-.76-24.62-2.79-48.22-5.07-72.33-2.29-23.09-3.56-45.68-4.32-68.78,9.9-9.13,23.86-19.54,32.74-19.54,10.15,0,33,9.9,45.43,15.74,13.45,7.87,14,12.43,9.64,24.87-4.57,12.94-28.17,20.81-39.08,26.65,0,1-.25,1.77-.25,2.79-2.8,25.63,6.59,49.49,6.09,75.63l-14,20.81c0,3.55-10.91,5.33-19.29,5.33a25.45,25.45,0,0,1-8.88-1.27C474,254.16,474,249.34,474,246.29Zm9.14,8.63c3.3,0,6.6-.25,9.39-.51,6.85,0,8.88-1.52,8.88-6.34-1-11.68-2-22.84-3.3-34.52-2-20.05-3.8-39.59-3.8-59.64,0-3.8,8.88-1.52,11.67-2,8.88-1.52,21.82-9.9,29.69-15.23,3.56-3.55,2.54-13.19-.76-16.49-8.63-8.88-32.74-18.53-51-18.53-6.6,0-12.44,1.27-16.5,4.06.26,23.35,2.54,50.51,4.57,73.35,2,22.08,4.32,44.66,4.57,67.25C476.51,250.61,478,254.92,483.11,254.92Zm11.17-116a19.69,19.69,0,0,0-1-5.33c-.76-4.06-1.52-7.61.25-11.68,3.56-8.37,13.2,3.81,13.2,10.92,0,0-.51,0-.51.25l-3.55,3.3c-2,2-4.06,4.06-8.37,4.82Z" style="fill:#d91a60"/><path d="M585.64,252.13c-2.8.51-2.8-1.78-2.54-2,3.8-6.6,14-23.6,17.26-35.53,4.31-16,7.1-35,9.39-52.54,1.77-13.7,4.31-31,7.61-43.65A158.65,158.65,0,0,0,622.18,94c3.3-2,5.08-5.59,6.85-9.39,2.54-4.82,4.57-9.65,8.63-9.65a1.32,1.32,0,0,0,1,.51c16.24,31.22,23.6,65.48,36.8,97.46,3.3,8.37,14,27.91,12.43,33.5-4.31,15-4.31,32-3.55,46.44-2.54,2.79-4.82,2.54-7.61,2.28-9.9-1-16,4.83-20.81-7.36-3.3-8.12-5.59-17.76-8.13-26.64-1-3.56-2-7.36-4.06-9.39-.5-.51-2.53-.26-4.31,0a61.19,61.19,0,0,1,.25,8.12,188.45,188.45,0,0,1-19,23.6,8.49,8.49,0,0,0-4.32,3.55Zm28.67-7.36c1-4.06,1.27-7.11,2-10.92.77-3.55,1.27-7.86,2.8-14.46,3.3-13.2,21.57-14.72,26.64-9.64,4.57,5.07,6.35,13.19,8.38,21.82,1.78,8.12,3.81,16.5,7.61,21.57a45.41,45.41,0,0,0,11.68-.25c1.52-.25,7.1,0,8.12-1,0-7.36-6.6-12.43-8.63-20.05-4.32-15.48-13.2-31-19-46.44-4.56-12.94-9.39-26.65-13.95-39.84-5.33-16-9.39-28.68-16-44.42-1,6.1-2.54,12.95-3.81,18.53-4.06,14.21-5.84,28.42-7.61,42.89-2.29,18.27-4.57,36-9.39,53a174.7,174.7,0,0,1-10.41,25.13l-.25.25c-2.79,3.81-1.27,3.3-5.33,8.38A180.1,180.1,0,0,0,614.31,244.77Zm8.13-49.24c-1.78-1-1.78-2-1.27-2.79l.5-34.51,1.78-1.53c2.28.76,2.28,2.54,2.79,4.06a84.94,84.94,0,0,0,5.33,11.42c4.06,7.87,8.88,17.26,8.88,22.08l-1.26,1.27-15.74.26Z" style="fill:#d91a60"/></g></g></g></svg>