<svg xmlns="http://www.w3.org/2000/svg" viewBox="0 0 690 260"><g id="MIlpa_Name_Web" data-name="MIlpa Name Web"><g id="Card_Game_Banner" data-name="Card Game Banner"><path d="M411.75,72.1a7.9,7.9,0,0,0,2-.77c1.72-.49,6.9-2.43,7.48-2.53,1.44-.39,6.61-1.84,7.76-2a29.38,29.38,0,0,0-3.45-.58c-1.15-.2-3.74-.49-4.31-.49s-4.32-.19-5.18-.29c-.58-.39-2-1.84-1.73-2.13a7.15,7.15,0,0,1-.86-.88,2.48,2.48,0,0,1,1.15-.78,1.05,1.05,0,0,1,.57-.48A25.43,25.43,0,0,1,419,59.67l3.74-1.16c.86-.2,5.17-1.36,6-1.36l-.58-.59s-12.37-1.16-17.83-2a11.22,11.22,0,0,1-1.44-.19,8.84,8.84,0,0,1-1.15-.2c-.58.2-4-.48-4.61-.38s-2.3-.68-2.87-.78c0-.19-.87-.68-1.15-1.07-.29-.1-.29-.48,0-.68a3.09,3.09,0,0,1,1.15-1c0-.29.57-.78.57-.78l12.37-1.75.58-.48c-1.44-.29-6.91-.68-8.34-.87a16.77,16.77,0,0,1-2-.78c-.57-.2-2-.49-2-.68,0,0-.58-.29-.86-.39v-.78a12,12,0,0,1,1.15-1.16,7.83,7.83,0,0,0,1.43-1.17,10.36,10.36,0,0,1,2.31-.87,35.29,35.29,0,0,1,3.74-1.07c.28-.2,5.17-.88,6.61-1.07l15.82-1.94,3.74-.1c1.16-.29,7.48-1.26,8.06-1.36.86,0,4.89-.48,5.46-.39.29-.09,5.76-.78,6.62-.78s4.32-.48,4.89-.48c1.44-.1,6.62-.49,7.48-.49a13.29,13.29,0,0,1,2.59-.19,32.06,32.06,0,0,1,3.74-.29c1.44-.2,8.05-.59,9.49-.59,1.44-.19,5.47-.38,6.33-.38.58-.2,7.77-.49,8.63-.49.58-.1,3.46-.39,3.74-.39.86.1,6.33-.1,6.91-.1.86.1,6.9-.48,8.91-.48.29,0,5.47-.29,5.76-.39,2,0,9.78-.39,10.93-.58,1.72,0,8.34-.2,9.49-.2.87-.09,5.18-.09,5.47,0h2.88c.28-.19,2.87-.09,3.45-.19,1.44.1,7.48.1,8.92.1,1.72.09,9.78.09,11.5.09,1.15-.09,7.2-.09,8.35-.29a33.4,33.4,0,0,0,4.6-.19c1.73.1,9.2,0,10.64-.1a27.72,27.72,0,0,1,2.88.1c2.3,0,16.11.58,17.84.68.86,0,9.78.29,10.93.29l8.91.39c.58.09,5.76.39,6.33.48.58-.09,4.61.2,5.47.2,0,0,1.15.19,2,.29a14,14,0,0,1,2,.29s.86.39,1.43.68c.29,0,1.15.29.29.29,0,0-.57.68-.86,1,0,.2-.58.78-.58.78s-4.6.88-6.32,1.17c-1.15.38-10.07,1.55-12.37,1.94L627.51,38c-.29.1-.86.2-.86.29h-.86s.57.29.57.39c.58.1,5.18.88,6.33,1.17.86.09,10.93,1.36,11.79,1.55s6.33,1.07,7.49,1.36a4.09,4.09,0,0,1,1.72.58s.86.29.86.39c-.28.1,0,.68,0,.88l-.28.19v.1c-.29.19-2,.68-2,1a47.61,47.61,0,0,0-5.46,1.55c-.87.2-5.76,1-6.62,1.07l-1.15.88,15.82,2.13a27.23,27.23,0,0,1,4,1.17c-.29,0,0,.77,0,.87l-.87.58a19.27,19.27,0,0,1-2.29.59c0,.19-1.73.58-1.73.58s-.29.1-.29.19v.1c-.29.2,1.44,1.17,1.44,1.46l8.34,2.23c.29.2,2.59.88,2.59,1a2.22,2.22,0,0,1-.29,1.17v.1l-.29.19a14.08,14.08,0,0,1-3.16.49,14.39,14.39,0,0,1-2.3.48c-.58,0-3.45.2-3.45.2-.29,0-2,.39-2.3.39-.58.09-4.89-.1-6-.1l-.87-.2c-.29,0-4.89-.19-5.18-.19-1.44-.29-11.5-.1-12.66-.19,0,0-5.46-.2-7.76-.2a29.9,29.9,0,0,0-3.45-.19c-1.73,0-7.48.29-8.92.19-1.73,0-9.5.29-11.51.29-1.44,0-7.19.49-7.77.39-1.72.2-8.34.49-9.49.39-.86.1-5.75.49-6.33.39-2.59.1-22.72.87-25,1.16-.86,0-8.34.3-8.92.39l-12.65,1c-2.3.29-21.87,1.07-23.88,1.17-.86.19-4.31.39-5.18.58s-5.75.59-6.33.59a9.15,9.15,0,0,0-1.72.29c-1.73.29-8.35.58-9.21.58-.29,0-4.89.49-5.18.49-3.45.29-11.21.87-11.5.77-1.15.2-10.07,1.75-11.22,1.75l-9.21,1.07c-1.44.19-11.22,1.46-12.08,1.65-2.59.2-10.07,1.17-10.36,1.26-1.44.1-5.18.49-5.46.49l-1.16-.2a15,15,0,0,1-1.72-.19,17.47,17.47,0,0,0-2.88-1.85V74c.29-.19.29-.87.29-1s.29-.39.29-.39S411.47,72.2,411.75,72.1Z" style="fill:#253659"/><text transform="translate(454.28 65.75) rotate(-10.18)" style="font-size:24px;fill:#fff;font-family:GoodlifeBrush, Goodlife"> </text><text transform="translate(462.53 64.29) rotate(-9.54)" style="font-size:24px;fill:#fff;font-family:GoodlifeBrush, Goodlife"> </text><text transform="matrix(0.99, -0.15, 0.15, 0.99, 470.72, 62.89)" style="font-size:30px;fill:#fff;font-family:GoodlifeBrush, Goodlife">C</text><text transform="translate(485.75 60.63) rotate(-7.45)" style="font-size:30px;fill:#fff;font-family:GoodlifeBrush, Goodlife">a</text><text transform="translate(499.63 58.82) rotate(-6.37)" style="font-size:30px;fill:#fff;font-family:GoodlifeBrush, Goodlife">r</text><text transform="translate(514.05 57.2) rotate(-5.25)" style="font-size:30px;fill:#fff;font-family:GoodlifeBrush, Goodlife">d</text><text transform="translate(529.28 55.83) rotate(-4.39)" style="font-size:30px;fill:#fff;font-family:GoodlifeBrush, Goodlife"> </text><text transform="translate(536.69 55.22) rotate(-3.48)" style="font-size:30px;fill:#fff;font-family:GoodlifeBrush, Goodlife">G</text><text transform="matrix(1, -0.04, 0.04, 1, 553.32, 54.23)" style="font-size:30px;fill:#fff;font-family:GoodlifeBrush, Goodlife">a</text><text transform="translate(567.29 53.61) rotate(-0.93)" style="font-size:30px;fill:#fff;font-family:GoodlifeBrush, Goodlife">m</text><text transform="matrix(1, 0.01, -0.01, 1, 590.05, 53.3)" style="font-size:30px;fill:#fff;font-family:GoodlifeBrush, Goodlife">e</text></g><g id="MILPA"><g id="Big_milpa_word" data-name="Big milpa word"><path d="M7.37,82s41.77-11.46,41.77-8.09,10.78,16.85,17.51,2.7,46.49-11.79,58.62-11.79-4,83.87-4,103.75a28.77,28.77,0,0,0,16.51,26.61S137.06,247,134,249.7s-13.47,2-34-7.75-22.9-73.43-22.23-82.19-16.51-4.38-23.92-3-.67,55.92-.67,60-27.29,28-27.29,28S10.74,241.28,6,235.89,8.38,82.62,7.37,82Z" style="fill:#fff"/><path d="M204.76,91.38c.34-11.79-1.69-24.25-2-36.38,1-4.72,5.39-7.08,8.76-5.73,8.75-9.09,30.31-9.09,41.09-9.09,3.37,1.35,7.75-3.71,9.1-.34,0,10.44-2.36,35.71-2.36,35.71-2,31.32,2.36,54.9,4.38,85.56,1.35,19.2,1,38.4,1,57.6,0,4.72-4.72,13.14-6.06,17.85-2.7,8.42-10.78,13.14-18.87,16.17-7.07,2.7-19.54,1.35-30.32-1.68C207.45,211.3,203.41,133.15,204.76,91.38Zm17.85-66.7C223,23.33,224,22.32,225,21c7.07-5.39,14.82,1.68,9.77,8.75a5.18,5.18,0,0,1-1.35,2c-.34.67-.67.67-.67.67C228,36.14,220.59,32.43,222.61,24.68Z" style="fill:#fff"/><path d="M320.63,31.42c-1.34,0,61.31-14.82,57.27-8.76s-18.19,158-14.82,158,70.74,0,72.76,4-1.35,30.65-1.35,30.65-19.87,36.38-24.59,40.42-88.59.68-94-.67S322,31.42,320.63,31.42Z" style="fill:#fff"/><path d="M470.61,229.26C470.11,201.85,461,116.07,460,108s41.87-5.08,53.8,2.54,23.09,12.94,21.06,20.55-19.54,25.64-25.12,27.16S504.62,245,504.62,245s-12.18,14-20.55,11.42S471.12,256.67,470.61,229.26Z" style="fill:#fff"/><path d="M598,220.88c4.32-5.58,8.38-44.92,10.92-65s14.21-53.8,13.19-53.8,43.65,89.34,44.92,92.63,12.44,52.79,10.16,56.09-18,3-19.55,0-10.15-31.47-11.42-33.24-10.15,2.53-11.92,6.34-18.53,23.09-20,23.6-25.38,5.84-28.17,5.84S593.7,226.47,598,220.88Z" style="fill:#fff"/></g><g id="Big_milpa_word_top" data-name="Big milpa word top"><path d="M4.08,187.76c-1-24.93-1.69-48.85,1-73.78,0-8.42,1.34-29,2.69-33.34V79c6.06-2.36,11.79-6.74,17.52-11.45,11.79-9.1,37.05-27.29,37.05-1.35,1.35,3.71,4,8.09,5.39,11.45a35.42,35.42,0,0,1,4.38-8.75c11.79-8.09,20.21-18.19,32.68-18.19,4.71,0,16.16,2,22.9,1,3.71-.34,6.74-.68,10.44,1.34-.33,44.13-13.13,80.51-2.35,124,3,14.48,11.11,7.74,16.84,15.83-3.71,17.51-13.48,42.1-13.81,58.95-27.29,5.05-37.06-7.08-47.5-21.56-8.42-11.79-12.8-50.53-12.8-77.81V138.57c-1.68,4.05-3,7.75-5.73,11.79-4.71,6.4-15.49,5.39-22.23,2.7a27.8,27.8,0,0,1-1.35,5.73c-5.39,18.52,6.4,38.4,4,56.59-1,7.07-20.55,24.59-23.58,32.33L8.46,237.61a12.94,12.94,0,0,0-2-.67C10.81,221.1,5.42,203.92,4.08,187.76Zm24.59,55.58c3.7-19.54-4.38-92.64,6.73-119.25,11.12,7.75,10.45,14.82,14.15,23.24,17.18,13.14,24.25-6.73,31.67-18.52.67.67,2,1,2,3-3,18.52-1.35,36.38,1.68,54.9,1.35,12.13,2.36,24.93,6.74,36.38,2.69,5.39,17.85,22.24,26.61,24.93a38.32,38.32,0,0,0,16.51.68c1-3.71-2-24.59-2.36-31.33-5.06,0-6.74-.34-8.76-2v.33c-10.11-6.73-9.77-24.59-9.77-36.38.34-38.06-3.37-72.76,5.39-107.45-3.71-.34-11.79-.34-20.21-.34-11.45,0-23.92.34-25.6,1-6.74,13.14-10.11,36.72-16.84,48.51-1.35,0-2,0-3-1-5.05-13.14-3.7-27.62-8.42-40.76C37.09,82,19.91,84.68,11.82,83c2.7,39.75-8.08,79.84-1,119.59.34,7.07,4,24.92.34,32.67a1.24,1.24,0,0,1,.34,1C11.49,237.61,27,242.66,28.67,243.34Z" style="fill:#d91a60"/><path d="M204.5,239c-2.7-28-3-148.56-3.71-158a158.27,158.27,0,0,1,1-18.52v-.34a54,54,0,0,1,4.72-10.44c11.12-22.24,34-8.42,52.55-15.5,1,32.68,1.35,66.36,3.7,98.7,2,30.65,4.38,63.66-1.34,94-1.69,8.09-7.08,10.11-12.8,16.17-1.69,15.5-20.89,7.75-33,9.77C203.49,255.8,204.5,252.09,204.5,239Zm23.92,12.12a24.7,24.7,0,0,0,7.07.34,2.42,2.42,0,0,0,2.36-1.35c13.13-36.71,9.43-76.46,6.4-114.53-2.7-27.28-2.36-54.9-1.69-82.19-7.41,2.7-13.81,1.35-21.56,3-3,.34-5.38,1.69-8.08,3.71-2.36,1.35-4,2.69-7.07,3.37-2.7,58.27,0,115.87,2.35,173.48,0,4.71-1.68,9.43,0,14.14C214.6,253.44,222.35,248.73,228.42,251.08ZM220.67,21.69C224,17,228.75,12.25,233.13,7.88c22.23-21.23,36.38,20.21,1.35,28h-1C224,37.86,216.63,27.41,220.67,21.69Zm13.47-1.35C227.07,19,223,23.71,223.7,28.09c2,2.35,6.4,3.7,9.77,3.37C235.15,27.75,235.83,24.38,234.14,20.34Z" style="fill:#d91a60"/><path d="M319.36,166.2c-.33-43.79,1.69-86.57,1-131a3.07,3.07,0,0,1,1-2.69c19.2-17.18,36.71-19.2,61.3-21.56a9.16,9.16,0,0,1,2,1c-4.71,53.89-15.83,108.46-15.83,162.7,22.23,5.72,46.82-5.73,69.06.67,1,.68,1,1,1.68,2.36-2.36,11.12,3.37,35.71-2.69,47.83-5.39,10.45-15.5,19.54-22.57,29.31-27.62,4.38-67-1.35-95.33-2.7C316,252.77,320,186.41,319.36,166.2ZM411,253.44c0-.34.67-1,.67-1.35-3-6.73-1.68-23.24-1.34-33-2.36.34-5.73.34-9.44,1-14.48,2-48.84,12.47-51.54-6.4-3.7-49.18-.67-103.41,2.36-143.16,1.35-11.45,2.7-22.57,2.7-33.69a62.41,62.41,0,0,0-11.12-1c-3.37,0-6.74.34-10.1.34h-8.76c0,71.41-2.7,141.82-2.36,213.23C351.37,250.07,382,252.43,411,253.44Z" style="fill:#d91a60"/><path d="M474,246.29c-.76-24.62-2.79-48.22-5.07-72.33-2.29-23.09-3.56-45.68-4.32-68.78,9.9-9.13,23.86-19.54,32.74-19.54,10.15,0,33,9.9,45.43,15.74,13.45,7.87,14,12.43,9.64,24.87-4.57,12.94-28.17,20.81-39.08,26.65,0,1-.25,1.77-.25,2.79-2.8,25.63,6.59,49.49,6.09,75.63l-14,20.81c0,3.55-10.91,5.33-19.29,5.33a25.45,25.45,0,0,1-8.88-1.27C474,254.16,474,249.34,474,246.29Zm9.14,8.63c3.3,0,6.6-.25,9.39-.51,6.85,0,8.88-1.52,8.88-6.34-1-11.68-2-22.84-3.3-34.52-2-20.05-3.8-39.59-3.8-59.64,0-3.8,8.88-1.52,11.67-2,8.88-1.52,21.82-9.9,29.69-15.23,3.56-3.55,2.54-13.19-.76-16.49-8.63-8.88-32.74-18.53-51-18.53-6.6,0-12.44,1.27-16.5,4.06.26,23.35,2.54,50.51,4.57,73.35,2,22.08,4.32,44.66,4.57,67.25C476.51,250.61,478,254.92,483.11,254.92Zm11.17-116a19.69,19.69,0,0,0-1-5.33c-.76-4.06-1.52-7.61.25-11.68,3.56-8.37,13.2,3.81,13.2,10.92,0,0-.51,0-.51.25l-3.55,3.3c-2,2-4.06,4.06-8.37,4.82Z" style="fill:#d91a60"/><path d="M585.64,252.13c-2.8.51-2.8-1.78-2.54-2,3.8-6.6,14-23.6,17.26-35.53,4.31-16,7.1-35,9.39-52.54,1.77-13.7,4.31-31,7.61-43.65A158.65,158.65,0,0,0,622.18,94c3.3-2,5.08-5.59,6.85-9.39,2.54-4.82,4.57-9.65,8.63-9.65a1.32,1.32,0,0,0,1,.51c16.24,31.22,23.6,65.48,36.8,97.46,3.3,8.37,14,27.91,12.43,33.5-4.31,15-4.31,32-3.55,46.44-2.54,2.79-4.82,2.54-7.61,2.28-9.9-1-16,4.83-20.81-7.36-3.3-8.12-5.59-17.76-8.13-26.64-1-3.56-2-7.36-4.06-9.39-.5-.51-2.53-.26-4.31,0a61.19,61.19,0,0,1,.25,8.12,188.45,188.45,0,0,1-19,23.6,8.49,8.49,0,0,0-4.32,3.55Zm28.67-7.36c1-4.06,1.27-7.11,2-10.92.77-3.55,1.27-7.86,2.8-14.46,3.3-13.2,21.57-14.72,26.64-9.64,4.57,5.07,6.35,13.19,8.38,21.82,1.78,8.12,3.81,16.5,7.61,21.57a45.41,45.41,0,0,0,11.68-.25c1.52-.25,7.1,0,8.12-1,0-7.36-6.6-12.43-8.63-20.05-4.32-15.48-13.2-31-19-46.44-4.56-12.94-9.39-26.65-13.95-39.84-5.33-16-9.39-28.68-16-44.42-1,6.1-2.54,12.95-3.81,18.53-4.06,14.21-5.84,28.42-7.61,42.89-2.29,18.27-4.57,36-9.39,53a174.7,174.7,0,0,1-10.41,25.13l-.25.25c-2.79,3.81-1.27,3.3-5.33,8.38A180.1,180.1,0,0,0,614.31,244.77Zm8.13-49.24c-1.78-1-1.78-2-1.27-2.79l.5-34.51,1.78-1.53c2.28.76,2.28,2.54,2.79,4.06a84.94,84.94,0,0,0,5.33,11.42c4.06,7.87,8.88,17.26,8.88,22.08l-1.26,1.27-15.74.26Z" style="fill:#d91a60"/></g></g></g></svg>