<svg xmlns="http://www.w3.org/2000/svg" viewBox="0 0 270 340"><g id="Milpa_Name_Mobile" data-name="Milpa Name Mobile"><g id="MIL"><path d="M36,38.16s19.2-5.26,19.2-3.71,5,7.74,8.05,1.23,21.36-5.41,26.94-5.41S88.32,68.81,88.32,78A13.23,13.23,0,0,0,95.9,90.18s-.31,23.84-1.7,25.08-6.19.93-15.64-3.56S68,78,68.35,73.92s-7.59-2-11-1.39-.31,25.7-.31,27.56-12.54,12.84-12.54,12.84-7-1.54-9.14-4S36.46,38.47,36,38.16Z" style="fill:#fff"/><path d="M126.71,42.5c.15-5.42-.78-11.15-.93-16.72a3.17,3.17,0,0,1,4-2.64c4-4.18,13.93-4.18,18.88-4.18,1.55.62,3.56-1.7,4.18-.15,0,4.8-1.08,16.41-1.08,16.41-.93,14.4,1.08,25.23,2,39.32.62,8.83.47,17.65.47,26.47,0,2.17-2.17,6-2.79,8.21-1.24,3.87-5,6-8.67,7.43-3.25,1.24-9,.62-13.93-.77C128,97.61,126.09,61.69,126.71,42.5Zm8.2-30.66a5.24,5.24,0,0,1,1.09-1.7c3.25-2.48,6.81.77,4.49,4a2.41,2.41,0,0,1-.62.93c-.16.31-.31.31-.31.31C137.39,17.11,134,15.4,134.91,11.84Z" style="fill:#fff"/><path d="M180,14.94c-.62,0,28.18-6.81,26.32-4s-8.36,72.61-6.81,72.61,32.51,0,33.44,1.86-.62,14.09-.62,14.09S223.16,116.19,221,118s-40.72.31-43.19-.31S180.58,14.94,180,14.94Z" style="fill:#fff"/><path d="M34.48,86.79c-.47-11.46-.78-22.45.46-33.91,0-3.87.62-13.31,1.24-15.32v-.78a31,31,0,0,0,8-5.26c5.42-4.18,17-12.54,17-.62.62,1.7,1.86,3.72,2.48,5.26a16.34,16.34,0,0,1,2-4c5.42-3.72,9.29-8.36,15-8.36,2.16,0,7.43.93,10.52.46,1.71-.15,3.1-.31,4.8.62-.15,20.28-6,37-1.08,57,1.39,6.66,5.11,3.56,7.74,7.28-1.7,8-6.19,19.35-6.35,27.09-12.54,2.32-17-3.25-21.83-9.91-3.87-5.41-5.88-23.22-5.88-35.76V64.19a28.6,28.6,0,0,1-2.63,5.41c-2.17,3-7.12,2.48-10.22,1.24a12.67,12.67,0,0,1-.62,2.63c-2.47,8.52,2.94,17.65,1.86,26-.46,3.25-9.44,11.3-10.84,14.86l-9.75-4.64a6.75,6.75,0,0,0-.93-.31C37.57,102.11,35.1,94.22,34.48,86.79Zm11.3,25.54c1.7-9-2-42.57,3.1-54.8,5.1,3.56,4.8,6.81,6.5,10.68,7.89,6,11.14-3.1,14.55-8.51.31.31.93.46.93,1.39-1.39,8.51-.62,16.72.77,25.23.62,5.58,1.09,11.46,3.1,16.72C76,105.52,82.93,113.26,87,114.5a17.69,17.69,0,0,0,7.59.31c.46-1.7-.93-11.3-1.09-14.4-2.32,0-3.09-.15-4-.93v.16C84.79,96.54,85,88.34,85,82.92c.15-17.5-1.55-33.44,2.47-49.39-1.7-.15-5.41-.15-9.28-.15-5.27,0-11,.15-11.77.46-3.1,6-4.64,16.88-7.74,22.3a1.54,1.54,0,0,1-1.39-.47c-2.33-6-1.71-12.69-3.87-18.73-3.72,1.24-11.62,2.48-15.33,1.7,1.24,18.27-3.72,36.69-.47,55,.16,3.25,1.86,11.46.16,15a.57.57,0,0,1,.15.46C37.88,109.7,45,112,45.78,112.33Z" style="fill:#d91a60"/><path d="M126.59,110.32c-1.24-12.85-1.39-68.27-1.7-72.61a72.36,72.36,0,0,1,.46-8.51V29a25.11,25.11,0,0,1,2.17-4.8c5.11-10.21,15.63-3.87,24.15-7.12.46,15,.62,30.5,1.7,45.36.93,14.09,2,29.26-.62,43.2-.77,3.71-3.25,4.64-5.88,7.43-.77,7.12-9.6,3.56-15.17,4.49C126.12,118.06,126.59,116.36,126.59,110.32Zm11,5.57a11.46,11.46,0,0,0,3.25.16,1.13,1.13,0,0,0,1.09-.62c6-16.88,4.33-35.14,2.94-52.64-1.24-12.54-1.09-25.23-.78-37.77-3.4,1.24-6.34.62-9.9,1.39a7.49,7.49,0,0,0-3.72,1.7,10.53,10.53,0,0,1-3.25,1.55c-1.24,26.79,0,53.26,1.08,79.73,0,2.17-.77,4.34,0,6.5C131.23,117,134.79,114.81,137.58,115.89ZM134,10.47a54.41,54.41,0,0,1,5.73-6.35c10.22-9.75,16.72,9.29.62,12.85h-.47C135.57,17.9,132.16,13.1,134,10.47Zm6.19-.62c-3.25-.62-5.11,1.54-4.8,3.56A5.77,5.77,0,0,0,139.9,15,5.87,5.87,0,0,0,140.21,9.85Z" style="fill:#d91a60"/><path d="M179.38,76.88c-.16-20.13.77-39.79.46-60.22a1.4,1.4,0,0,1,.47-1.24c8.82-7.9,16.87-8.82,28.17-9.91a4.43,4.43,0,0,1,.93.47c-2.16,24.77-7.27,49.85-7.27,74.77,10.21,2.63,21.52-2.63,31.73.31.47.31.47.46.78,1.08-1.09,5.11,1.55,16.41-1.24,22-2.48,4.8-7.12,9-10.37,13.47-12.7,2-30.81-.62-43.82-1.24C177.83,116.67,179.69,86.17,179.38,76.88ZM221.49,117c0-.16.31-.47.31-.62-1.4-3.1-.78-10.68-.62-15.17-1.08.15-2.63.15-4.34.46-6.65.93-22.44,5.73-23.68-2.94-1.71-22.6-.31-47.53,1.08-65.8a132.75,132.75,0,0,0,1.24-15.48,28.48,28.48,0,0,0-5.11-.46c-1.55,0-3.09.15-4.64.15h-4c0,32.82-1.24,65.18-1.08,98C194.09,115.43,208.17,116.51,221.49,117Z" style="fill:#d91a60"/></g><g id="PA"><path d="M46.93,250.77c-.43-23.19-8.16-95.78-9-102.65s35.43-4.29,45.52,2.15,19.54,10.95,17.83,17.39-16.54,21.69-21.26,23-4.3,73.44-4.3,73.44-10.3,11.81-17.39,9.67S47.36,274,46.93,250.77Z" style="fill:#fff"/><path d="M154.72,243.68c3.66-4.72,7.09-38,9.24-55s12-45.53,11.17-45.53,36.93,75.59,38,78.38,10.53,44.67,8.59,47.46-15.24,2.58-16.53,0-8.59-26.63-9.66-28.13-8.59,2.15-10.1,5.37-15.67,19.54-17,20-21.48,4.94-23.84,4.94S151.07,248.41,154.72,243.68Z" style="fill:#fff"/><path d="M49.77,265.18c-.65-20.83-2.36-40.8-4.3-61.2-1.93-19.54-3-38.65-3.65-58.2,8.38-7.73,20.19-16.53,27.7-16.53,8.59,0,27.92,8.37,38.44,13.31,11.38,6.66,11.81,10.53,8.16,21.05-3.86,10.95-23.83,17.61-33.07,22.55,0,.85-.21,1.5-.21,2.36-2.36,21.69,5.58,41.87,5.15,64L76.18,270.12c0,3-9.23,4.51-16.32,4.51a21.48,21.48,0,0,1-7.51-1.08C49.77,271.84,49.77,267.76,49.77,265.18Zm7.73,7.3c2.79,0,5.58-.21,7.94-.43,5.8,0,7.52-1.29,7.52-5.37-.86-9.88-1.72-19.32-2.79-29.2C68.45,220.51,67,204,67,187c0-3.22,7.51-1.28,9.88-1.71,7.51-1.29,18.46-8.38,25.12-12.89,3-3,2.15-11.16-.64-14C94,150.94,73.6,142.78,58.14,142.78c-5.58,0-10.52,1.07-14,3.43C44.4,166,46.33,189,48.05,208.27c1.72,18.69,3.65,37.8,3.87,56.91C51.92,268.83,53.2,272.48,57.5,272.48ZM67,174.34a16.64,16.64,0,0,0-.86-4.5c-.65-3.44-1.29-6.45.21-9.88,3-7.09,11.17,3.22,11.17,9.23,0,0-.43,0-.43.22l-3,2.79c-1.71,1.71-3.43,3.43-7.08,4.08Z" style="fill:#d91a60"/><path d="M144.25,270.12c-2.36.43-2.36-1.5-2.15-1.72,3.23-5.58,11.82-20,14.61-30.06,3.65-13.53,6-29.64,7.94-44.45,1.51-11.6,3.65-26.2,6.44-36.94a133.29,133.29,0,0,0,4.08-20.61c2.8-1.72,4.3-4.73,5.8-8,2.15-4.08,3.87-8.16,7.3-8.16a1.14,1.14,0,0,0,.86.43c13.75,26.41,20,55.4,31.14,82.46,2.79,7.09,11.81,23.62,10.52,28.35-3.65,12.66-3.65,27-3,39.29-2.15,2.36-4.08,2.15-6.45,1.94-8.37-.86-13.53,4.08-17.61-6.23-2.79-6.87-4.72-15-6.87-22.55-.86-3-1.71-6.23-3.43-7.95-.43-.42-2.15-.21-3.65,0a52.4,52.4,0,0,1,.21,6.88,160.27,160.27,0,0,1-16.1,20,7.07,7.07,0,0,0-3.65,3Zm24.27-6.23c.86-3.43,1.07-6,1.72-9.23.64-3,1.07-6.66,2.36-12.24,2.79-11.17,18.25-12.46,22.55-8.16,3.86,4.29,5.36,11.16,7.08,18.46,1.5,6.88,3.22,14,6.44,18.26a38.56,38.56,0,0,0,9.88-.22c1.29-.21,6,0,6.87-.86,0-6.22-5.58-10.52-7.3-17-3.65-13.1-11.16-26.2-16.1-39.3-3.87-10.95-8-22.55-11.81-33.71-4.51-13.53-8-24.27-13.53-37.58-.86,5.15-2.15,11-3.22,15.67-3.44,12-4.94,24.06-6.45,36.3-1.93,15.46-3.86,30.49-7.94,44.88a147.65,147.65,0,0,1-8.81,21.26l-.21.21c-2.36,3.22-1.07,2.79-4.51,7.09A152.17,152.17,0,0,0,168.52,263.89Zm6.87-41.66c-1.5-.86-1.5-1.72-1.07-2.36l.42-29.21,1.51-1.28c1.93.64,1.93,2.14,2.36,3.43a71.45,71.45,0,0,0,4.51,9.67c3.44,6.65,7.52,14.6,7.52,18.68l-1.08,1.07-13.31.22Z" style="fill:#d91a60"/></g><g id="Card_Game_Banner" data-name="Card Game Banner"><path d="M13.69,333.27a7.82,7.82,0,0,0,2-.77c1.73-.49,6.91-2.43,7.48-2.53,1.44-.39,6.62-1.84,7.77-2a30.11,30.11,0,0,0-3.45-.58c-1.16-.2-3.74-.49-4.32-.49s-4.31-.19-5.18-.29c-.57-.39-2-1.85-1.72-2.14a6.58,6.58,0,0,1-.86-.87,2.48,2.48,0,0,1,1.15-.78,1,1,0,0,1,.57-.48,24.61,24.61,0,0,1,3.74-1.46l3.74-1.17c.86-.19,5.18-1.36,6-1.36l-.57-.58s-12.37-1.16-17.84-2a11.22,11.22,0,0,1-1.44-.19,8.84,8.84,0,0,1-1.15-.2c-.57.2-4-.48-4.6-.38s-2.3-.69-2.88-.78c0-.2-.86-.68-1.15-1.07-.29-.1-.29-.49,0-.68a3.18,3.18,0,0,1,1.15-1c0-.29.58-.78.58-.78l12.37-1.75.57-.48c-1.44-.29-6.9-.68-8.34-.88a16,16,0,0,1-2-.78c-.58-.19-2-.48-2-.67a7.42,7.42,0,0,0-.86-.39v-.78a12,12,0,0,1,1.15-1.16,8,8,0,0,0,1.44-1.17,10.24,10.24,0,0,1,2.3-.88,37.21,37.21,0,0,1,3.74-1.06c.29-.2,5.18-.88,6.62-1.07l15.82-1.94,3.74-.1c1.15-.29,7.48-1.26,8-1.36.87,0,4.89-.49,5.47-.39.29-.1,5.75-.78,6.61-.78s4.32-.48,4.89-.48c1.44-.1,6.62-.49,7.49-.49a13.19,13.19,0,0,1,2.58-.19,32.26,32.26,0,0,1,3.75-.29c1.43-.2,8-.59,9.49-.59,1.43-.19,5.46-.38,6.33-.38.57-.2,7.76-.49,8.63-.49.57-.1,3.45-.39,3.74-.39.86.1,6.33-.1,6.9-.1.87.1,6.9-.48,8.92-.48.29,0,5.46-.29,5.75-.39,2,0,9.78-.39,10.93-.58,1.73,0,8.35-.2,9.5-.2a49.42,49.42,0,0,1,5.46,0h2.88a34.43,34.43,0,0,1,3.45-.19c1.44.09,7.48.09,8.92.09,1.73.1,9.78.1,11.51.1,1.15-.1,7.19-.1,8.34-.29a35.05,35.05,0,0,0,4.6-.19c1.73.09,9.21,0,10.65-.1a27.72,27.72,0,0,1,2.88.1c2.29,0,16.1.58,17.83.68.86,0,9.78.29,10.93.29l8.92.39c.57.09,5.75.38,6.33.48.57-.1,4.6.2,5.46.2,0,0,1.15.19,2,.29a13.91,13.91,0,0,1,2,.29s.87.39,1.44.68c.29,0,1.15.29.29.29,0,0-.58.68-.86,1,0,.19-.58.78-.58.78s-4.6.87-6.33,1.16c-1.15.39-10.07,1.56-12.37,1.95l-10.64,1.26c-.29.1-.87.19-.87.29h-.86s.58.29.58.39c.57.1,5.17.87,6.33,1.16.86.1,10.93,1.36,11.79,1.56s6.33,1.07,7.48,1.36a4,4,0,0,1,1.72.58s.87.29.87.39c-.29.1,0,.68,0,.87l-.29.2v.1c-.29.19-2,.67-2,1a46.47,46.47,0,0,0-5.47,1.55c-.86.2-5.75,1-6.62,1.07l-1.15.87,15.83,2.14a26.82,26.82,0,0,1,4,1.17c-.28,0,0,.77,0,.87l-.86.58a19.42,19.42,0,0,1-2.3.59c0,.19-1.73.58-1.73.58s-.29.1-.29.19v.1c-.28.19,1.44,1.17,1.44,1.46l8.35,2.23c.28.2,2.59.88,2.59,1a2.22,2.22,0,0,1-.29,1.17v.1l-.29.19a14.81,14.81,0,0,1-3.16.48,13.6,13.6,0,0,1-2.31.49c-.57,0-3.45.19-3.45.19-.29,0-2,.39-2.3.39-.58.1-4.89-.09-6-.09l-.86-.2c-.29,0-4.9-.19-5.18-.19-1.44-.29-11.51-.1-12.66-.2,0,0-5.47-.19-7.77-.19a29.41,29.41,0,0,0-3.45-.2c-1.73,0-7.48.3-8.92.2-1.73,0-9.49.29-11.5.29-1.44,0-7.2.49-7.77.39-1.73.19-8.35.48-9.5.39-.86.09-5.75.48-6.32.39-2.59.09-22.73.87-25,1.16-.87,0-8.34.29-8.92.39l-12.66,1c-2.3.29-21.86,1.07-23.87,1.17-.87.19-4.32.39-5.18.58s-5.76.58-6.33.58a11.22,11.22,0,0,0-1.73.29c-1.73.3-8.34.59-9.2.59-.29,0-4.89.48-5.18.48-3.45.29-11.22.88-11.51.78-1.15.19-10.07,1.75-11.22,1.75l-9.2,1.07c-1.44.19-11.22,1.45-12.09,1.65-2.59.19-10.07,1.16-10.35,1.26-1.44.1-5.18.49-5.47.49l-1.15-.2a15,15,0,0,1-1.72-.19A16.63,16.63,0,0,0,12.54,336v-.87c.29-.2.29-.88.29-1s.28-.39.28-.39S13.4,333.37,13.69,333.27Z" style="fill:#253659"/><path d="M72.21,321.33s-.23-.33-.33-.4l-.22-.27c-.1-.23-.51-1-.56-1.07s-.07-.32-.12-.41a15.4,15.4,0,0,1-.36-2.58,13.68,13.68,0,0,1,.49-3.63,2.16,2.16,0,0,1,0-.46,6,6,0,0,0,.31-1.17l.55-1.2.18-.39c.46-1,.86-2,1.38-2.94l.43-.76a1,1,0,0,0,.13-.2c0-.13.69-.87.7-1s.28-.37.33-.47.12-.2.11-.23a3.64,3.64,0,0,1,.3-.41s.2-.33.25-.37A14.5,14.5,0,0,1,77,302l1.46-.79a2.65,2.65,0,0,1,.58.06c.15,0,1.44-.16,1.62-.15,0,0,.22.06.31,0a4.54,4.54,0,0,1,3.1,2.3l.11.07a10.9,10.9,0,0,1,.51,1.38c0,.06,0,.79,0,.88a1.68,1.68,0,0,1,0,.36,3.22,3.22,0,0,1,0,.33,2.57,2.57,0,0,1-.09.41c0,.06,0,.58,0,.61s-.46.58-.51.65l-.12.23a2.76,2.76,0,0,1-1.2.88l-.42.22-1,.15a2.92,2.92,0,0,1-1.6-.37c-.44-.27-.85-.57-.89-1.05-.06-.66.3-1.44.76-1.23.52-.14.17-.24.68-.32a2.78,2.78,0,0,1,.48.2c.54.32.13,1.07.68,1.48a.76.76,0,0,0,1.13,0l.25-.37.08-.26s.1-.56.09-.62a1.14,1.14,0,0,0,.09-.19,1.73,1.73,0,0,0,.12-.44c0-.22,0-1.53,0-1.82a2.66,2.66,0,0,0-2-2l-.28-.05c-.26-.14-.3.05-.61,0l-1.19.18a3.59,3.59,0,0,0-.52.35,7.74,7.74,0,0,0-2.24,3.49c0,.07-.09.38-.09.38s0,.73,0,.79-.11.44-.11.47.21.54.17.73a5.57,5.57,0,0,1-.07.95s-.07.31-.07.34,0,.52,0,.58-.11,1.47-.09,1.62c0,.4.08,3.36.07,3.69l.16,1.71,0,.12,0,0c.06.6.12,2,.12,2l.15.19.92,1.69a1.75,1.75,0,0,0,.58.27l.18,0,.32.08L80,322l1.11-.29a8.35,8.35,0,0,0,.85-.37s.24-.22.3-.26.14-.11.13-.17l1-.45a20,20,0,0,0,3.29-2.73c.26-.32,1.15-2.21,1.47-2.56l.08-.23c.06,0,0-.57,0-.6a1.63,1.63,0,0,1,.21-.46.85.85,0,0,1,.1-.35.93.93,0,0,1,.29-.28,4.65,4.65,0,0,1,.48,0,3.73,3.73,0,0,0,.4.18,5.54,5.54,0,0,1,.25.69c0,.06,0,.21,0,.22a2.47,2.47,0,0,1-.41.66l-.18.4s-.1.16-.1.19a.82.82,0,0,1-.22.16c-.13.11-1.23,2.27-1.31,2.38a.48.48,0,0,1-.11.26l-.2.27L87,319l-.72.81a2.25,2.25,0,0,1-.46.4s-.4.18-.45.22a5.35,5.35,0,0,0-.61.4l-.55.54-.21,0c-.06,0-.19.15-.25.19l-.6.63a3.31,3.31,0,0,1-.47.29l-.36.41c-.15.06-1.16.18-1.22.22l-.62.45c-.09.05-.62.16-.7.2s-.25.16-.28.16L79,324a7,7,0,0,1-3.84-.33s-.08-.11-.11-.11a1,1,0,0,0-.3-.2L74.2,323a.61.61,0,0,0-.23-.09C73.75,322.68,72.47,321.6,72.21,321.33Z" style="fill:#fff"/><path d="M86.39,317.68c0-.1.25-.82.24-.91s.07-.37.19-.66l.68-1.45a5.63,5.63,0,0,1,.38-.81c.08-.13.58-.89.74-1.09l.54-.71,1.69-2.34a1.29,1.29,0,0,0,.2-.3h.12a3.23,3.23,0,0,0,.53.08c.06,0,.65-.11.74-.1l.25.09a2.79,2.79,0,0,1,.38.07l.53.18c.72-.31,1,1,.74,1L93.78,312c-.69,1.45-1.88,2.12-2.47,3.62l-.48,1.18a13.88,13.88,0,0,0,.49,1.39l0,.09a1.51,1.51,0,0,0,.92-.34,6.26,6.26,0,0,0,1.23-2.15l.44-1.33c.07-.16.27-1.37.31-1.52s.27-.73.26-.79l.08-.53a2.87,2.87,0,0,1,.33-.28s.31-.17.34-.17a.92.92,0,0,1,.25-.15.36.36,0,0,1,.12-.05.46.46,0,0,1,.52.33,9.3,9.3,0,0,1-.06,1.39,23.26,23.26,0,0,0,.2,3.55,4.29,4.29,0,0,0,.36,1.62c.08.17.29.11.43.09l.33-.07a2,2,0,0,0,.46-.18s1.88-1.37,1.87-1.4,1.38-1.69,1.44-1.76.52-1.28.6-1.35a1.36,1.36,0,0,1,.83-.38,1.63,1.63,0,0,1,.8.74v.09a.75.75,0,0,1-.19.39,6.33,6.33,0,0,1-.69.57s-.07.13-.09.17l-1.7,1.64a.76.76,0,0,1-.2.27c-.1.13-2.2,1.95-2.31,2a1.82,1.82,0,0,1-1,.24l-.6.08a1.87,1.87,0,0,1-.4-.07c-.86-.31-1.14-1.57-1.31-2.37a2.23,2.23,0,0,1-.69,1.45l-.44.3c-.13.14-1.22,1.07-1.36,1.18a4.25,4.25,0,0,1-1.94.89l-.18,0c-.3,0-1.19-.05-1.25-.08s-1.09-.46-1.35-.58c-.06-.05-.53-.41-.67-.54a2.26,2.26,0,0,1-.69-1.36Z" style="fill:#fff"/><path d="M105.93,316.42a1.7,1.7,0,0,1,.06-.28,2.9,2.9,0,0,0,.42-.59,6.5,6.5,0,0,0,.61-1.25,14.76,14.76,0,0,0,.91-1.31c0-.06-.09-.29-.1-.35h-.3a1.49,1.49,0,0,0-.53.06s-.2.11-.2.14c-.23.08-1.13.7-1.28.71a4.57,4.57,0,0,1-.37.41c-.09,0-.94.8-1.09.84a3,3,0,0,1-1.84.3,1,1,0,0,0-.29-.24,6.4,6.4,0,0,1-.53-.39s-.25-.31-.25-.37a.69.69,0,0,1-.24-.21,1.16,1.16,0,0,1-.19-.34c0-.06-.1-.66-.13-.89s.34-1.88.36-1.92l.65-.43a3.09,3.09,0,0,1,.65-.13,5.1,5.1,0,0,1,.9,0,2.83,2.83,0,0,1,.74.16l.28.08a3.12,3.12,0,0,1,.29.37l.05.53a8.17,8.17,0,0,1-.42,1.35c-.15.23.11.17.11.17s.28-.22.28-.22.84-.54,1-.56.29-.15.34-.19h.09a16.25,16.25,0,0,1,1.76-.49,3.11,3.11,0,0,1,.61.08,4.7,4.7,0,0,1,.76.28,6.41,6.41,0,0,1,.83.69c0,.09.14.22.15.28a3.09,3.09,0,0,1,.29.73,1.88,1.88,0,0,1,.21.52,2.47,2.47,0,0,1,.07.29c0,.12,0,.36,0,.36,0,.16-.11,1-.11,1.22a.62.62,0,0,1-.09.25s-.11.14-.11.17a6.64,6.64,0,0,1-.3.81c-.07.16-.49,1.27-.57,1.4l-.21.53a2.83,2.83,0,0,1-.13.68l0,.27s.23.19.23.22l.15,0c.15-.05.6-.28.69-.32s1-.65,1.12-.79.14-.13.14-.13.39-.53.47-.6a10.23,10.23,0,0,1,.7-.8l.53-.61a12.63,12.63,0,0,0,1.44-1.73l.43-.47a1,1,0,0,0,.21-.29c0-.07.3-1.09.32-1.15l.52-.76.15-.59a1,1,0,0,1,.21-.26c.06-.07.39-.35.39-.35a1.52,1.52,0,0,0,.35-.07l.39,0,.25.06,0,.18,0,.21s-.14.35-.16.44a3.23,3.23,0,0,0-.27.6,3.79,3.79,0,0,0-.34.43,1.56,1.56,0,0,1-.16.44s-.17.17-.2.18c-.34.15-1.15,1.81-1.4,2a13.49,13.49,0,0,1-.87,1.19,2.51,2.51,0,0,1-.32.33,5.7,5.7,0,0,0-.4.77,1.94,1.94,0,0,1-.25.42l-.4.47a5.34,5.34,0,0,1-.32.43c0,.09-.27.3-.29.33a10.9,10.9,0,0,0-.72.9l-.28.18-.63.61a4,4,0,0,0-.57.31l-.68.11-.63,0a9.77,9.77,0,0,0-1-.13,1.52,1.52,0,0,1-.25-.13,6.83,6.83,0,0,1-.87-.44s-.13-.11-.16-.13a4.44,4.44,0,0,0-.42-.47l-.44-.74a8.35,8.35,0,0,1-.19-.88l0-.12A6.47,6.47,0,0,1,105.93,316.42Z" style="fill:#fff"/><path d="M128.33,313l.18.35c.1.41.08.44-.2.71a.53.53,0,0,0-.19.2s-.29.21-.35.21-.16.2-.19.2a6.77,6.77,0,0,1-.65.48,4.85,4.85,0,0,1-1.22.51l-.24,0c-.19-.11-1-.66-1.18-.77l-.13-.11a8.44,8.44,0,0,1-.47-.89c0-.08-.51-.61-.55-.7s-.25-.4-.31-.45l-.11.13a4.89,4.89,0,0,1-.19.62l-.31.54-.72,1.69c0,.1-.28.57-.33.63a.3.3,0,0,1-.11.14,2.79,2.79,0,0,1-1.74.67l-.54.05s-.25-.1-.28-.1-.67,0-.73-.05-1.1-.5-1.32-.63-.65-.52-.79-.68a2.43,2.43,0,0,1-.64-1.42l0-.15c0-.15,0-.79,0-.85l.08-.4c.07-.21.37-.94.42-1l.31-.51c.22-.26,1.14-1.4,1.36-1.63a2.68,2.68,0,0,1,.34-.27s.21-.27.21-.29l.26-.15c.11,0,.52-.26.57-.29s.47-.17.5-.17.67.06.76.05l.72-.06a1.53,1.53,0,0,1,.51.07l.27.22,0,.05a.41.41,0,0,1,0,.09,2.13,2.13,0,0,1-.22.27c-.06,0-.56.14-.61.17s-.41.49-.54.69a8.77,8.77,0,0,0-.67.93.92.92,0,0,0-.22.26s-.09.34-.11.37-.39.7-.41.79a9,9,0,0,0-.24,1.38s0,.39,0,.54.08.57.09.6a.8.8,0,0,0,.14.23l.27.33a.34.34,0,0,0,.13.11,1.28,1.28,0,0,0,.21,0l.15,0,1.47-1.73s.24-.57.31-.79l.27-1a2.16,2.16,0,0,1,.1-.25,4.43,4.43,0,0,0,.18-.65,5.79,5.79,0,0,0,.19-.89c0-.15-.16-1.43-.15-1.61s0-.87,0-1l.27-1c.07-.18.31-1.17.38-1.39,0-.44-.13-2.43-.14-2.85,0-.12,0-1,0-1.14l0-.39,0-1.09a2,2,0,0,1,1.28-1.2l.25.1c.09.05.42,0,.48,0s.49.41.56.44.68,1.53.77,1.55.28.46.3.67l0,.29a4.76,4.76,0,0,0-.06.64l-.13,1.52c0,.09-.13.89-.15,1l-.13,1.25a3.2,3.2,0,0,0-.07.49c0,.18,0,1.56,0,1.74l-.2.77a6.47,6.47,0,0,1,0,.76c0,.06-.08.46-.08.49l.14,1.49c0,.12.2,1.19.25,1.4s.14.25.15.31a5,5,0,0,0,.32.58.67.67,0,0,0,.26.24h.12c.11-.1.42-.07.72-.37s.18-.34.34-.63.22-.17.3-.36l.28-.17Z" style="fill:#fff"/><path d="M139.4,302.88a6.59,6.59,0,0,1,1.13-1.66c0-.09.42-.47.42-.53.42-.45.75-1,1.14-1.46l.14-.15c.09-.07.53-.76.59-.82a2.86,2.86,0,0,0,.51-.39,6.81,6.81,0,0,0,.56-.76,5.4,5.4,0,0,0,.76-.85c.11-.1.64-.85.78-1s.08-.13.08-.13.47-.27.58-.36l.5-.27a3.57,3.57,0,0,1,.72-.5,3,3,0,0,1,1.59-.46l.57,0a2.19,2.19,0,0,1,.43.09,5.17,5.17,0,0,1,1.47.48l.63.45.23.43a3.44,3.44,0,0,0,.27.47c.06,0,.25.16.25.19a3.58,3.58,0,0,0,.06.51s.11.29.11.32,0,.25,0,.28a2.05,2.05,0,0,1-.3,1l-.45.44c0,.07-.29.17-.35.18l-.33,0-.27,0c-.47-.3-.13-.68.21-1v0a2,2,0,0,0,.37-.93v-.12c0-.06-.07-.2-.1-.2a2.06,2.06,0,0,0-1-.87,10.36,10.36,0,0,0-1-.3l-1.59.09a1.48,1.48,0,0,0-.32.14l-.17.1c0,.06-.17.16-.2.17-.26.16-.27.49-.38.71,0,0-.14.1-.14.16a12.72,12.72,0,0,0-1.13,2.62c-.09.07-.47.75-.56.82a1.27,1.27,0,0,1-.12.36,4.51,4.51,0,0,0-.24.5,3.67,3.67,0,0,0-.13.46,6.78,6.78,0,0,0-.56,1.11c0,.12-.25,1.28-.27,1.4a1.12,1.12,0,0,0-.16.37s-.11.19-.11.22a3.91,3.91,0,0,1-.22.82,6.61,6.61,0,0,1-.12.94c0,.37-.17,1.25-.16,1.34a5.37,5.37,0,0,0,.05.8c0,.15,0,1.48,0,1.6l.17.83c.07.08.3.91.44,1.17l.07.18a1.49,1.49,0,0,1,0,.36c.06.08.4.72.44.78s.11.32.11.35a3.82,3.82,0,0,1,.15.48,1.44,1.44,0,0,1,.11.35c0,.06.13.17.16.23a2.42,2.42,0,0,0,.39.4,1.69,1.69,0,0,0,.47.33,3,3,0,0,0,.59.32l1.26-.07s.55-.22.7-.28l.59-.25c.08-.07.54-.51.74-.65s.59-.63.7-.73a6.39,6.39,0,0,0,1.41-4.11,8.39,8.39,0,0,0,0-.87.61.61,0,0,0-.11-.36c0-.24-.08-.32-.32-.31h-.18c-.21,0-1.67.19-1.88.21l-2.36.14a1.81,1.81,0,0,0-.34-.07,1.6,1.6,0,0,0-.28-.22l-.13-.12s0,0,.06-.06v-.09a.7.7,0,0,1,.07-.33.59.59,0,0,1,.27-.11,1.64,1.64,0,0,1,.31-.26,1.89,1.89,0,0,0,.26-.29s.38-.08.44-.11l.93-.06c.15,0,1.08,0,1.26,0s1.74,0,1.92,0l.58.11s.22.17.32.23.06.08.06.08a4.07,4.07,0,0,1,0,.6s.09.06.09.12a3.64,3.64,0,0,1,.05,1.28,6.92,6.92,0,0,1-.08.7s-.13.31-.13.34a5.3,5.3,0,0,1,0,.69,4,4,0,0,1-.17.7c0,.12-.14.76-.13.85a7.51,7.51,0,0,1-.57,1.45c0,.06-.08.18-.14.22-.42.59-1,1.17-1.43,1.74a4.63,4.63,0,0,1-.62.7c-.05.09-.31.25-.31.28l-.85.39a1.57,1.57,0,0,0-.23.13c-.44.18-1.61.64-1.73.71a7,7,0,0,1-.92.17l-.57,0-1-.06a3.06,3.06,0,0,0-.55-.09c-.06-.05-.87-.4-1.15-.53a2.94,2.94,0,0,0-.52-.3l-.54-.45c-.22-.19-.89-.78-1-.87l-.32-.43a.75.75,0,0,1-.08-.24c-.06-.08-.39-.6-.46-.66a17.15,17.15,0,0,0-.7-1.61l-.57-1.59a7,7,0,0,1-.23-2.21,3.09,3.09,0,0,0,.06-.45A14.75,14.75,0,0,1,139.4,302.88Z" style="fill:#fff"/><path d="M154.34,311.17a7.78,7.78,0,0,0,.32-.88c.09-.1.11-.37.25-.64l.81-1.39a6.55,6.55,0,0,1,.45-.77c.09-.12.66-.83.83-1l.61-.66,1.89-2.17a1.58,1.58,0,0,0,.23-.28h.12a2.39,2.39,0,0,0,.51.13c.06,0,.66-.05.75,0a1.6,1.6,0,0,1,.25.11,1.65,1.65,0,0,1,.36.11l.52.22c.74-.24.88,1.07.64,1.08l-.67,1.17c-.81,1.38-2.05,1.94-2.77,3.38l-.59,1.14a14,14,0,0,0,.36,1.42l0,.09a1.44,1.44,0,0,0,.95-.25,6.32,6.32,0,0,0,1.42-2l.55-1.29c.08-.15.4-1.33.45-1.49s.33-.7.33-.76l.13-.51a2.1,2.1,0,0,1,.35-.26s.32-.13.35-.13a1.11,1.11,0,0,1,.27-.13.25.25,0,0,1,.12,0,.45.45,0,0,1,.49.37,11,11,0,0,1-.18,1.39,23.47,23.47,0,0,0-.13,3.55,4.32,4.32,0,0,0,.22,1.64c.06.18.27.14.42.13l.33,0a2.31,2.31,0,0,0,.48-.14s2-1.19,2-1.22,1.53-1.56,1.58-1.63.64-1.22.73-1.29a1.29,1.29,0,0,1,.86-.3c.15,0,.71.6.72.81v.09a.7.7,0,0,1-.23.37,6.34,6.34,0,0,1-.73.51s-.08.12-.11.15l-1.83,1.49a.92.92,0,0,1-.23.25c-.12.12-2.37,1.74-2.48,1.81a1.85,1.85,0,0,1-1,.16l-.6,0a1.86,1.86,0,0,1-.39-.1c-.83-.39-1-1.67-1.09-2.48a2.25,2.25,0,0,1-.82,1.38l-.47.26c-.14.13-1.31,1-1.45,1.05a4.07,4.07,0,0,1-2,.71h-.18c-.3-.05-1.17-.16-1.23-.19s-1.05-.56-1.29-.7c-.07-.06-.5-.46-.63-.6a2.32,2.32,0,0,1-.57-1.42Z" style="fill:#fff"/><path d="M182.37,311c0-.12.37-1,.4-1.18s.36-1.41.42-1.56.23-.73.23-.82,0-.39,0-.48l-.21,0c-.09,0-.27.12-.27.12s-.14.24-.17.27a1.37,1.37,0,0,1-.3.28,1.78,1.78,0,0,1-.12.24s-.11.12-.14.18-.09.36-.15.37-.56.24-.59.28a3.65,3.65,0,0,0-.53.66s-.12.1-.15.13a.5.5,0,0,0-.14.27l-.59.79a8.41,8.41,0,0,0-.26.93s-.11.24-.14.25-.15.51-.14.54a1.77,1.77,0,0,1-.12.24l-.58.94-.27.24-.9,0a1.07,1.07,0,0,1-.27-.12l-.31-.35c0-.06-.1-.39-.13-.54-.1-.51-.48-1.88-.48-2l0-1.17c0-.09.11-.82.13-1.06,0,0,.11-.6.14-.63v-.3a1,1,0,0,0-.3.16c-.06,0-.38.48-.44.54l-.42.25c-.11.12-.61,1-.7,1.06s-.62.61-.71.67a4.51,4.51,0,0,1-.44.52c0,.09-.2.34-.23.4s-.44.63-.47.66-.23.52-.29.67a3.08,3.08,0,0,1-.12.42,1.49,1.49,0,0,0-.14.24,3.09,3.09,0,0,1-.42.25l-2-.45-.31-.14a1.15,1.15,0,0,0-.27-.27c0-.24-.15-1.44-.15-1.71v-.24a7.65,7.65,0,0,1,.1-1.05c0-.09.14-.48.14-.54s.11-.69.11-.75.25-1,.28-1.09.14-.57.14-.63.08-.51.11-.54.37-1.06.46-1.18l.14-.66c0-.09-.07-.48,0-.54a2,2,0,0,1,.57-.25s.33,0,.48,0l.51,0c.09,0,.72.2.87.23l.7.38c.09,0,.18.11.18.14l0,.9a12,12,0,0,1-.15,1.84c0,.09-.09.48-.08.54v.12s.09.12.09.12a1.37,1.37,0,0,0,.33-.25,13.86,13.86,0,0,1,1-1c.09-.13.38-.4.38-.43a8,8,0,0,0,1-.56c.15-.06.54-.25.57-.25l.48,0c.12,0,.45,0,.54,0a2.17,2.17,0,0,1,.42.11,3.91,3.91,0,0,1,.73.38l.3.38c.1.12.4.69.47.78a1.13,1.13,0,0,0,.12.38,4.65,4.65,0,0,1,.16.69h.15c.18-.18,1.1-.92,1.28-1.1a6.73,6.73,0,0,1,.74-.49,2.82,2.82,0,0,0,.29-.19,3.18,3.18,0,0,1,.51-.13H184a3.8,3.8,0,0,1,.82.29c.21.12,1.06.94,1.28,1.12a5.86,5.86,0,0,1,.14,1.44c0,.09-.28,1.26-.39,1.71a2.88,2.88,0,0,0-.12.4,4.24,4.24,0,0,0-.17.66c0,.06-.25.72-.25.78a5,5,0,0,1-.11.52v.39a1,1,0,0,0,.13.26,1.07,1.07,0,0,0,.27.12,7,7,0,0,0,.71-.25l.87-.41.29-.24.3-.16.74-.4.72-.4s.27-.25.29-.25a.79.79,0,0,1,.27-.15s.12-.09.15-.12.77-.46.89-.56l.68-.49c.09-.09.8-.85.86-.94s.17-.52.23-.58.6-.16.66-.16a2.86,2.86,0,0,1,.51.14c.09,0,.3.09.3.15s0,.12,0,.18a.35.35,0,0,1,0,.21l-.45.4-1.12.92-1.3,1.19c-.06.06-.75.4-.8.43a5.76,5.76,0,0,0-.63.4,3.17,3.17,0,0,1-.56.25c0,.06-.39.25-.45.31s-.21.09-.24.09-.56.58-.65.58l-1.1.8c-.09,0-.53.22-.59.25a7.94,7.94,0,0,0-.84,0h-.12l-.45-.11c-.06,0-.52-.11-.64-.11s-.39-.11-.42-.14a.83.83,0,0,0-.15-.27,6.92,6.92,0,0,1-.7-.65,4.53,4.53,0,0,0-.31-.5s-.12-.12-.12-.15a2.5,2.5,0,0,1-.16-.51C182.23,312.13,182.34,311.17,182.37,311Z" style="fill:#fff"/><path d="M191.91,307.87s.27-.51.37-.66l.33-.57.33-.33.7-.56a1.12,1.12,0,0,1,.36-.21c.09-.06.72-.32.81-.35s.48-.51.54-.57l.49-.36.78-.41.57-.27a1.39,1.39,0,0,0,.36-.2H198a2.81,2.81,0,0,0,.48.12c.09,0,.81.1.9.1s.54.3.69.36a6.37,6.37,0,0,1,.54.46c.11.09.32.33.35.36a4.64,4.64,0,0,1,.12.45v1a2.8,2.8,0,0,1-.21.45l-.27.33a3.72,3.72,0,0,1-.34.47,1.67,1.67,0,0,1-.21.33l-.57.45-.82.68a.75.75,0,0,0-.21.12l-.9.33a8.34,8.34,0,0,0-1,.68l-.15.33c0,.06-.07,1.32-.13,1.83v.06a1.17,1.17,0,0,0,.26.6l.33,0,.33,0a1.34,1.34,0,0,0,.37-.08,5.36,5.36,0,0,0,1.14-.24l.57-.38c0-.06.18-.18.21-.24s.36-.21.51-.42c.37-.47.73-1.16.82-1.28a2.39,2.39,0,0,1,.25-.33l.45,0c.21,0,.14.24.26.28,0,.45.21,1-.43,1.43a3.12,3.12,0,0,0-.63.63,3.58,3.58,0,0,1-1.87,1.3,1.71,1.71,0,0,1-.24.21c-.06,0-.45.09-.45.09l-1,.29a3.05,3.05,0,0,1-1.21.2h-.42a6.67,6.67,0,0,1-1-.13,5.74,5.74,0,0,1-.68-.36c-.12,0-.75-.55-.93-.67a4.18,4.18,0,0,1-.41-.45c0-.06-.24-.42-.24-.45l-.09-.12-.27-.57s0-.21-.09-.21v-.25c0-.06-.12-.63-.12-.66V309C191.69,308.85,191.88,308.08,191.91,307.87Zm6.74-2.57a1.76,1.76,0,0,0-.33.27c-.15.12-.79.75-.91.89l-.15.21s-.06.12-.09.12a.75.75,0,0,1-.12.21c-.06.21-.22.66-.22.69v1c.61-.27,1.12-.56,1.72-.89a6.16,6.16,0,0,1,.57-.32l.55-.48s.12-.09.12-.09l.12-.24.12-.09a5.3,5.3,0,0,0,.12-.6,2.12,2.12,0,0,0-.11-.33l-.24-.36-.12-.09h-.78A2.16,2.16,0,0,0,198.65,305.3Z" style="fill:#fff"/></g></g></svg>