<svg xmlns="http://www.w3.org/2000/svg" viewBox="0 0 270 340"><g id="Milpa_Name_Mobile" data-name="Milpa Name Mobile"><g id="MIL"><path d="M36,38.16s19.2-5.26,19.2-3.71,5,7.74,8.05,1.23,21.36-5.41,26.94-5.41S88.32,68.81,88.32,78A13.23,13.23,0,0,0,95.9,90.18s-.31,23.84-1.7,25.08-6.19.93-15.64-3.56S68,78,68.35,73.92s-7.59-2-11-1.39-.31,25.7-.31,27.56-12.54,12.84-12.54,12.84-7-1.54-9.14-4S36.46,38.47,36,38.16Z" style="fill:#fff"/><path d="M126.71,42.5c.15-5.42-.78-11.15-.93-16.72a3.17,3.17,0,0,1,4-2.64c4-4.18,13.93-4.18,18.88-4.18,1.55.62,3.56-1.7,4.18-.15,0,4.8-1.08,16.41-1.08,16.41-.93,14.4,1.08,25.23,2,39.32.62,8.83.47,17.65.47,26.47,0,2.17-2.17,6-2.79,8.21-1.24,3.87-5,6-8.67,7.43-3.25,1.24-9,.62-13.93-.77C128,97.61,126.09,61.69,126.71,42.5Zm8.2-30.66a5.24,5.24,0,0,1,1.09-1.7c3.25-2.48,6.81.77,4.49,4a2.41,2.41,0,0,1-.62.93c-.16.31-.31.31-.31.31C137.39,17.11,134,15.4,134.91,11.84Z" style="fill:#fff"/><path d="M180,14.94c-.62,0,28.18-6.81,26.32-4s-8.36,72.61-6.81,72.61,32.51,0,33.44,1.86-.62,14.09-.62,14.09S223.16,116.19,221,118s-40.72.31-43.19-.31S180.58,14.94,180,14.94Z" style="fill:#fff"/><path d="M34.48,86.79c-.47-11.46-.78-22.45.46-33.91,0-3.87.62-13.31,1.24-15.32v-.78a31,31,0,0,0,8-5.26c5.42-4.18,17-12.54,17-.62.62,1.7,1.86,3.72,2.48,5.26a16.34,16.34,0,0,1,2-4c5.42-3.72,9.29-8.36,15-8.36,2.16,0,7.43.93,10.52.46,1.71-.15,3.1-.31,4.8.62-.15,20.28-6,37-1.08,57,1.39,6.66,5.11,3.56,7.74,7.28-1.7,8-6.19,19.35-6.35,27.09-12.54,2.32-17-3.25-21.83-9.91-3.87-5.41-5.88-23.22-5.88-35.76V64.19a28.6,28.6,0,0,1-2.63,5.41c-2.17,3-7.12,2.48-10.22,1.24a12.67,12.67,0,0,1-.62,2.63c-2.47,8.52,2.94,17.65,1.86,26-.46,3.25-9.44,11.3-10.84,14.86l-9.75-4.64a6.75,6.75,0,0,0-.93-.31C37.57,102.11,35.1,94.22,34.48,86.79Zm11.3,25.54c1.7-9-2-42.57,3.1-54.8,5.1,3.56,4.8,6.81,6.5,10.68,7.89,6,11.14-3.1,14.55-8.51.31.31.93.46.93,1.39-1.39,8.51-.62,16.72.77,25.23.62,5.58,1.09,11.46,3.1,16.72C76,105.52,82.93,113.26,87,114.5a17.69,17.69,0,0,0,7.59.31c.46-1.7-.93-11.3-1.09-14.4-2.32,0-3.09-.15-4-.93v.16C84.79,96.54,85,88.34,85,82.92c.15-17.5-1.55-33.44,2.47-49.39-1.7-.15-5.41-.15-9.28-.15-5.27,0-11,.15-11.77.46-3.1,6-4.64,16.88-7.74,22.3a1.54,1.54,0,0,1-1.39-.47c-2.33-6-1.71-12.69-3.87-18.73-3.72,1.24-11.62,2.48-15.33,1.7,1.24,18.27-3.72,36.69-.47,55,.16,3.25,1.86,11.46.16,15a.57.57,0,0,1,.15.46C37.88,109.7,45,112,45.78,112.33Z" style="fill:#d91a60"/><path d="M126.59,110.32c-1.24-12.85-1.39-68.27-1.7-72.61a72.36,72.36,0,0,1,.46-8.51V29a25.11,25.11,0,0,1,2.17-4.8c5.11-10.21,15.63-3.87,24.15-7.12.46,15,.62,30.5,1.7,45.36.93,14.09,2,29.26-.62,43.2-.77,3.71-3.25,4.64-5.88,7.43-.77,7.12-9.6,3.56-15.17,4.49C126.12,118.06,126.59,116.36,126.59,110.32Zm11,5.57a11.46,11.46,0,0,0,3.25.16,1.13,1.13,0,0,0,1.09-.62c6-16.88,4.33-35.14,2.94-52.64-1.24-12.54-1.09-25.23-.78-37.77-3.4,1.24-6.34.62-9.9,1.39a7.49,7.49,0,0,0-3.72,1.7,10.53,10.53,0,0,1-3.25,1.55c-1.24,26.79,0,53.26,1.08,79.73,0,2.17-.77,4.34,0,6.5C131.23,117,134.79,114.81,137.58,115.89ZM134,10.47a54.41,54.41,0,0,1,5.73-6.35c10.22-9.75,16.72,9.29.62,12.85h-.47C135.57,17.9,132.16,13.1,134,10.47Zm6.19-.62c-3.25-.62-5.11,1.54-4.8,3.56A5.77,5.77,0,0,0,139.9,15,5.87,5.87,0,0,0,140.21,9.85Z" style="fill:#d91a60"/><path d="M179.38,76.88c-.16-20.13.77-39.79.46-60.22a1.4,1.4,0,0,1,.47-1.24c8.82-7.9,16.87-8.82,28.17-9.91a4.43,4.43,0,0,1,.93.47c-2.16,24.77-7.27,49.85-7.27,74.77,10.21,2.63,21.52-2.63,31.73.31.47.31.47.46.78,1.08-1.09,5.11,1.55,16.41-1.24,22-2.48,4.8-7.12,9-10.37,13.47-12.7,2-30.81-.62-43.82-1.24C177.83,116.67,179.69,86.17,179.38,76.88ZM221.49,117c0-.16.31-.47.31-.62-1.4-3.1-.78-10.68-.62-15.17-1.08.15-2.63.15-4.34.46-6.65.93-22.44,5.73-23.68-2.94-1.71-22.6-.31-47.53,1.08-65.8a132.75,132.75,0,0,0,1.24-15.48,28.48,28.48,0,0,0-5.11-.46c-1.55,0-3.09.15-4.64.15h-4c0,32.82-1.24,65.18-1.08,98C194.09,115.43,208.17,116.51,221.49,117Z" style="fill:#d91a60"/></g><g id="PA"><path d="M46.93,250.77c-.43-23.19-8.16-95.78-9-102.65s35.43-4.29,45.52,2.15,19.54,10.95,17.83,17.39-16.54,21.69-21.26,23-4.3,73.44-4.3,73.44-10.3,11.81-17.39,9.67S47.36,274,46.93,250.77Z" style="fill:#fff"/><path d="M154.72,243.68c3.66-4.72,7.09-38,9.24-55s12-45.53,11.17-45.53,36.93,75.59,38,78.38,10.53,44.67,8.59,47.46-15.24,2.58-16.53,0-8.59-26.63-9.66-28.13-8.59,2.15-10.1,5.37-15.67,19.54-17,20-21.48,4.94-23.84,4.94S151.07,248.41,154.72,243.68Z" style="fill:#fff"/><path d="M49.77,265.18c-.65-20.83-2.36-40.8-4.3-61.2-1.93-19.54-3-38.65-3.65-58.2,8.38-7.73,20.19-16.53,27.7-16.53,8.59,0,27.92,8.37,38.44,13.31,11.38,6.66,11.81,10.53,8.16,21.05-3.86,10.95-23.83,17.61-33.07,22.55,0,.85-.21,1.5-.21,2.36-2.36,21.69,5.58,41.87,5.15,64L76.18,270.12c0,3-9.23,4.51-16.32,4.51a21.48,21.48,0,0,1-7.51-1.08C49.77,271.84,49.77,267.76,49.77,265.18Zm7.73,7.3c2.79,0,5.58-.21,7.94-.43,5.8,0,7.52-1.29,7.52-5.37-.86-9.88-1.72-19.32-2.79-29.2C68.45,220.51,67,204,67,187c0-3.22,7.51-1.28,9.88-1.71,7.51-1.29,18.46-8.38,25.12-12.89,3-3,2.15-11.16-.64-14C94,150.94,73.6,142.78,58.14,142.78c-5.58,0-10.52,1.07-14,3.43C44.4,166,46.33,189,48.05,208.27c1.72,18.69,3.65,37.8,3.87,56.91C51.92,268.83,53.2,272.48,57.5,272.48ZM67,174.34a16.64,16.64,0,0,0-.86-4.5c-.65-3.44-1.29-6.45.21-9.88,3-7.09,11.17,3.22,11.17,9.23,0,0-.43,0-.43.22l-3,2.79c-1.71,1.71-3.43,3.43-7.08,4.08Z" style="fill:#d91a60"/><path d="M144.25,270.12c-2.36.43-2.36-1.5-2.15-1.72,3.23-5.58,11.82-20,14.61-30.06,3.65-13.53,6-29.64,7.94-44.45,1.51-11.6,3.65-26.2,6.44-36.94a133.29,133.29,0,0,0,4.08-20.61c2.8-1.72,4.3-4.73,5.8-8,2.15-4.08,3.87-8.16,7.3-8.16a1.14,1.14,0,0,0,.86.43c13.75,26.41,20,55.4,31.14,82.46,2.79,7.09,11.81,23.62,10.52,28.35-3.65,12.66-3.65,27-3,39.29-2.15,2.36-4.08,2.15-6.45,1.94-8.37-.86-13.53,4.08-17.61-6.23-2.79-6.87-4.72-15-6.87-22.55-.86-3-1.71-6.23-3.43-7.95-.43-.42-2.15-.21-3.65,0a52.4,52.4,0,0,1,.21,6.88,160.27,160.27,0,0,1-16.1,20,7.07,7.07,0,0,0-3.65,3Zm24.27-6.23c.86-3.43,1.07-6,1.72-9.23.64-3,1.07-6.66,2.36-12.24,2.79-11.17,18.25-12.46,22.55-8.16,3.86,4.29,5.36,11.16,7.08,18.46,1.5,6.88,3.22,14,6.44,18.26a38.56,38.56,0,0,0,9.88-.22c1.29-.21,6,0,6.87-.86,0-6.22-5.58-10.52-7.3-17-3.65-13.1-11.16-26.2-16.1-39.3-3.87-10.95-8-22.55-11.81-33.71-4.51-13.53-8-24.27-13.53-37.58-.86,5.15-2.15,11-3.22,15.67-3.44,12-4.94,24.06-6.45,36.3-1.93,15.46-3.86,30.49-7.94,44.88a147.65,147.65,0,0,1-8.81,21.26l-.21.21c-2.36,3.22-1.07,2.79-4.51,7.09A152.17,152.17,0,0,0,168.52,263.89Zm6.87-41.66c-1.5-.86-1.5-1.72-1.07-2.36l.42-29.21,1.51-1.28c1.93.64,1.93,2.14,2.36,3.43a71.45,71.45,0,0,0,4.51,9.67c3.44,6.65,7.52,14.6,7.52,18.68l-1.08,1.07-13.31.22Z" style="fill:#d91a60"/></g><g id="Card_Game_2" data-name="Card Game 2"><path d="M13.69,333.27a7.82,7.82,0,0,0,2-.77c1.73-.49,6.91-2.43,7.48-2.53,1.44-.39,6.62-1.84,7.77-2a30.11,30.11,0,0,0-3.45-.58c-1.16-.2-3.74-.49-4.32-.49s-4.31-.19-5.18-.29c-.57-.39-2-1.85-1.72-2.14a6.58,6.58,0,0,1-.86-.87,2.48,2.48,0,0,1,1.15-.78,1,1,0,0,1,.57-.48,24.61,24.61,0,0,1,3.74-1.46l3.74-1.17c.86-.19,5.18-1.36,6-1.36l-.57-.58s-12.37-1.16-17.84-2a11.22,11.22,0,0,1-1.44-.19,8.84,8.84,0,0,1-1.15-.2c-.57.2-4-.48-4.6-.38s-2.3-.69-2.88-.78c0-.2-.86-.68-1.15-1.07-.29-.1-.29-.49,0-.68a3.18,3.18,0,0,1,1.15-1c0-.29.58-.78.58-.78l12.37-1.75.57-.48c-1.44-.29-6.9-.68-8.34-.88a16,16,0,0,1-2-.78c-.58-.19-2-.48-2-.67a7.42,7.42,0,0,0-.86-.39v-.78a12,12,0,0,1,1.15-1.16,8,8,0,0,0,1.44-1.17,10.24,10.24,0,0,1,2.3-.88,37.21,37.21,0,0,1,3.74-1.06c.29-.2,5.18-.88,6.62-1.07l15.82-1.94,3.74-.1c1.15-.29,7.48-1.26,8-1.36.87,0,4.89-.49,5.47-.39.29-.1,5.75-.78,6.61-.78s4.32-.48,4.89-.48c1.44-.1,6.62-.49,7.49-.49a13.19,13.19,0,0,1,2.58-.19,32.26,32.26,0,0,1,3.75-.29c1.43-.2,8-.59,9.49-.59,1.43-.19,5.46-.38,6.33-.38.57-.2,7.76-.49,8.63-.49.57-.1,3.45-.39,3.74-.39.86.1,6.33-.1,6.9-.1.87.1,6.9-.48,8.92-.48.29,0,5.46-.29,5.75-.39,2,0,9.78-.39,10.93-.58,1.73,0,8.35-.2,9.5-.2a49.42,49.42,0,0,1,5.46,0h2.88a34.43,34.43,0,0,1,3.45-.19c1.44.09,7.48.09,8.92.09,1.73.1,9.78.1,11.51.1,1.15-.1,7.19-.1,8.34-.29a35.05,35.05,0,0,0,4.6-.19c1.73.09,9.21,0,10.65-.1a27.72,27.72,0,0,1,2.88.1c2.29,0,16.1.58,17.83.68.86,0,9.78.29,10.93.29l8.92.39c.57.09,5.75.38,6.33.48.57-.1,4.6.2,5.46.2,0,0,1.15.19,2,.29a13.91,13.91,0,0,1,2,.29s.87.39,1.44.68c.29,0,1.15.29.29.29,0,0-.58.68-.86,1,0,.19-.58.78-.58.78s-4.6.87-6.33,1.16c-1.15.39-10.07,1.56-12.37,1.95l-10.64,1.26c-.29.1-.87.19-.87.29h-.86s.58.29.58.39c.57.1,5.17.87,6.33,1.16.86.1,10.93,1.36,11.79,1.56s6.33,1.07,7.48,1.36a4,4,0,0,1,1.72.58s.87.29.87.39c-.29.1,0,.68,0,.87l-.29.2v.1c-.29.19-2,.67-2,1a46.47,46.47,0,0,0-5.47,1.55c-.86.2-5.75,1-6.62,1.07l-1.15.87,15.83,2.14a26.82,26.82,0,0,1,4,1.17c-.28,0,0,.77,0,.87l-.86.58a19.42,19.42,0,0,1-2.3.59c0,.19-1.73.58-1.73.58s-.29.1-.29.19v.1c-.28.19,1.44,1.17,1.44,1.46l8.35,2.23c.28.2,2.59.88,2.59,1a2.22,2.22,0,0,1-.29,1.17v.1l-.29.19a14.81,14.81,0,0,1-3.16.48,13.6,13.6,0,0,1-2.31.49c-.57,0-3.45.19-3.45.19-.29,0-2,.39-2.3.39-.58.1-4.89-.09-6-.09l-.86-.2c-.29,0-4.9-.19-5.18-.19-1.44-.29-11.51-.1-12.66-.2,0,0-5.47-.19-7.77-.19a29.41,29.41,0,0,0-3.45-.2c-1.73,0-7.48.3-8.92.2-1.73,0-9.49.29-11.5.29-1.44,0-7.2.49-7.77.39-1.73.19-8.35.48-9.5.39-.86.09-5.75.48-6.32.39-2.59.09-22.73.87-25,1.16-.87,0-8.34.29-8.92.39l-12.66,1c-2.3.29-21.86,1.07-23.87,1.17-.87.19-4.32.39-5.18.58s-5.76.58-6.33.58a11.22,11.22,0,0,0-1.73.29c-1.73.3-8.34.59-9.2.59-.29,0-4.89.48-5.18.48-3.45.29-11.22.88-11.51.78-1.15.19-10.07,1.75-11.22,1.75l-9.2,1.07c-1.44.19-11.22,1.45-12.09,1.65-2.59.19-10.07,1.16-10.35,1.26-1.44.1-5.18.49-5.47.49l-1.15-.2a15,15,0,0,1-1.72-.19A16.63,16.63,0,0,0,12.54,336v-.87c.29-.2.29-.88.29-1s.28-.39.28-.39S13.4,333.37,13.69,333.27Z" style="fill:#253659"/><text transform="translate(56.22 326.92) rotate(-10.18)" style="font-size:24px;fill:#fff;stroke:#7c8c03;stroke-miterlimit:10;font-family:GoodlifeBrush, Goodlife"> </text><text transform="translate(64.47 325.46) rotate(-9.54)" style="font-size:24px;fill:#fff;stroke:#7c8c03;stroke-miterlimit:10;font-family:GoodlifeBrush, Goodlife"> </text><text transform="matrix(0.99, -0.15, 0.15, 0.99, 72.65, 324.06)" style="font-size:30px;fill:#fff;font-family:GoodlifeBrush, Goodlife">C</text><text transform="translate(87.68 321.8) rotate(-7.45)" style="font-size:30px;fill:#fff;font-family:GoodlifeBrush, Goodlife">a</text><text transform="translate(101.56 319.98) rotate(-6.37)" style="font-size:30px;fill:#fff;font-family:GoodlifeBrush, Goodlife">r</text><text transform="translate(115.99 318.37) rotate(-5.25)" style="font-size:30px;fill:#fff;font-family:GoodlifeBrush, Goodlife">d</text><text transform="translate(131.21 317) rotate(-4.39)" style="font-size:30px;fill:#fff;font-family:GoodlifeBrush, Goodlife"> </text><text transform="translate(138.63 316.39) rotate(-3.48)" style="font-size:30px;fill:#fff;font-family:GoodlifeBrush, Goodlife">G</text><text transform="matrix(1, -0.04, 0.04, 1, 155.26, 315.39)" style="font-size:30px;fill:#fff;font-family:GoodlifeBrush, Goodlife">a</text><text transform="translate(169.22 314.77) rotate(-0.93)" style="font-size:30px;fill:#fff;font-family:GoodlifeBrush, Goodlife">m</text><text transform="matrix(1, 0.01, -0.01, 1, 191.98, 314.47)" style="font-size:30px;fill:#fff;font-family:GoodlifeBrush, Goodlife">e</text></g></g></svg>