<svg xmlns="http://www.w3.org/2000/svg" viewBox="0 0 440 520"><g id="create-herobox"><g id="background"><rect x="-2" y="-0.5" width="442.46" height="520.76" style="fill:#253659"/><path id="mountain_1" data-name="mountain 1" d="M440.46,415.25c-20.86,2.46-41.88,5.29-62.38,4.91-59.93-1.09-115.34-30-168.17-58.14l-67.25-35.86c-9.86-5.26-19.83-10.59-28.2-18-14.16-12.51-22.72-29.92-31.73-46.48s-19.44-33.38-35.68-43.06c-15-9-36.38-9.63-49,1.84V520.76H441" style="fill:#c7b299"/></g><g id="milpa"><g id="Corn_1" data-name="Corn 1"><line x1="105.48" y1="474.55" x2="103.79" y2="210.84" style="fill:none;stroke:#4a7573;stroke-linecap:round;stroke-miterlimit:10;stroke-width:8px"/><path d="M82.4,201.5a11,11,0,0,0-7.49,1.32c-2.59,1.73-3.79,5-4.06,8.06s.23,6.21.28,9.32c.13,8.08-2.82,16-7,22.83s-9.72,12.88-15.17,18.84c6.15-6.88,16.89-7.65,23.75-13.82A19.37,19.37,0,0,0,79,235.12c.15-2.28-.11-4.59.31-6.84s1.68-4.53,3.84-5.27c5.22-1.8,10.08,6.3,15.28,4.46C112.62,222.44,89.77,202.39,82.4,201.5Z" style="fill:#4a7573"/><path d="M120,289.55q3.87-20.48,9.49-40.57c1.09-3.91,2.24-7.87,2.29-11.93a22.72,22.72,0,0,0-9.14-18.3c-3-2.22-14.78-7.07-16.62-1.16-.85,2.72,3.62,5.35,4.66,7.29,1.85,3.47,2.09,8.1,2.78,11.93A477.13,477.13,0,0,1,120,289.55Z" style="fill:#4a7573"/><path d="M87.18,195.91c-4.87-6.52-11.25-12.17-18.94-14.82a19,19,0,0,0-9.58-1,10.9,10.9,0,0,0-7.73,5.35c2.17-4.94,8.58-6,14-6.38l7.41-.52a21.83,21.83,0,0,1,6.15.14,17.57,17.57,0,0,1,6.78,3.53c7.51,5.78,16.12,16.93,16.3,26.95C101.77,223.09,89.46,199,87.18,195.91Z" style="fill:#4a7573"/><path d="M114.89,200.83a15.83,15.83,0,0,1,9,2.37c3.68,2.46,5.78,6.76,6.66,11.09,2.41,11.91-3.13,23.93-3.54,36.07-.23,6.68,1.11,13.31,2.45,19.86-4.88-9-9.91-18.53-9.38-28.73.23-4.33,1.46-8.54,2.16-12.82s.83-8.85-1-12.77-6.14-7-10.4-6.16c.43,6.36-8.66,9.55-9.39,1.93C100.77,204.61,109.16,200.91,114.89,200.83Z" style="fill:#4a7573"/><path d="M89,250.48c-3.21-2.75-7.7-4.35-11.74-3.11-5.06,1.57-7.83,6.85-10.23,11.57a233,233,0,0,1-22.61,35.93c7.26-.61,12.56-6.89,17-12.68l12.18-15.93a8.14,8.14,0,0,1,2.51-2.45c2.69-1.39,6,.66,7.49,3.31s1.75,5.77,2.84,8.58a16.22,16.22,0,0,0,12.77,10C113,287.51,92.41,253.38,89,250.48Z" style="fill:none"/><path d="M121.5,295c6.26-1.32,13-1.1,18.76,1.77a35.41,35.41,0,0,1,7.51,5.38,96.39,96.39,0,0,1,11.3,11.91A48.9,48.9,0,0,0,130.8,302a10.54,10.54,0,0,0-4.08.26,18.84,18.84,0,0,0-3.38,1.85c-3.68,2.17-20.63,6.06-19.54-.69C104.58,298.58,117.66,295.85,121.5,295Z" style="fill:#4a7573"/><path d="M88.83,270.55a20.83,20.83,0,0,0-4.49-6c-2-1.58-4.79-2.35-7-1.19a9.11,9.11,0,0,0-3.23,3.48A70.15,70.15,0,0,0,64,295.44c-.45,3.72-.63,7.54-2,11-1.8,4.66-5.55,8.37-7.37,13-1.64-12.25-2.56-24.82.2-36.86S64.47,259,75.33,253.13c4.71-2.57,10.58-3.95,15.39-1.57a16.57,16.57,0,0,1,5.13,4.26c4.11,4.79,9.59,14.57,7.56,21.2C100,288.06,91.54,275.2,88.83,270.55Z" style="fill:#4a7573"/><path d="M136.84,323.78c3.8,2.35,6.55,6,9.22,9.63l9.85,13.32c1.72,2.32,3.5,4.81,3.77,7.69a15.94,15.94,0,0,1-1,6l-4.58,15.49-.56-13.66a17.21,17.21,0,0,0-1-5.94c-2.41-5.73-9.76-7-15.24-9.93-3.91-2.11-7.1-5.35-10.91-7.62-3.61-2.16-8.2-3.35-12.14-1.42-2.47,1.21-5.53,8-7.93,8.13-3.72.23-2.57-3.8-1.84-6.92,1.1-4.68,3.87-10.51,8.39-12.71,3.18-1.55,7.91-1.78,11.21-2.68C128.86,321.84,132.21,320.91,136.84,323.78Z" style="fill:#4a7573"/><path d="M97.35,337.8A232.89,232.89,0,0,0,98.77,310l5.18,3.91c-1.35-1,.25-9.05-4-11.73-4.45-2.81-11.57-1-14,3.9C81.93,314.25,94.83,329.83,97.35,337.8Z" style="fill:#4a7573"/><path d="M83.15,393.68,75.93,381.8c-2.31-3.81-5.08-8-9.43-8.92-5.56-1.24-10.69,3.36-13.87,8.08s-5.89,10.29-11,12.75c-1.48-3,.43-6.5,2.27-9.29,2.78-4.22,5.6-8.48,9.3-11.92s8.42-6,13.47-6.2c6.79-.22,12.9,3.84,18.48,7.73l9,6.29c5.88,4.11,18.07,14.45,10.41,22.47S86.89,399.84,83.15,393.68Z" style="fill:#4a7573"/><path d="M136.38,381.44a22.13,22.13,0,0,1,9.14.49c5,1.65,9.32,6.57,14.53,5.62a43.77,43.77,0,0,0,.35,36.5,32.53,32.53,0,0,1-18.73-28.77c0-1.34,0-2.81-.78-3.88-1.24-1.63-3.69-1.47-5.72-1.15q-11.29,1.83-22.52,4.07c-3.81.75-12.07,4.86-10.18-.94C105.47,384.15,128.86,382.21,136.38,381.44Z" style="fill:#4a7573"/><path d="M155.26,415.31a22.71,22.71,0,0,1-3.38-13c.1-2.24.52-4.63-.5-6.63A9,9,0,0,0,149,393a42.24,42.24,0,0,0-9.81-6.26c-1.64-.75-3.67-2-3.18-3.78" style="fill:none;stroke:#7c8c03;stroke-miterlimit:10"/><path d="M99.27,397.15c-7.76-6-13.78-12.57-20.47-19.62-3.24-3.42-7.28-7.77-11.73-9.19-5.56-1.77-8.37,1.77-12.26,5.25-4.13,3.7-6.33,7.8-9.79,12.32,0,.69.36-.33.6-.61" style="fill:none;stroke:#7c8c03;stroke-miterlimit:10"/><path d="M123.91,324a86.76,86.76,0,0,1,14,14.15c2,2.59,4,5.36,6.78,7.08s6.11,2.27,8.37,4.52,2.84,5.5,2.77,8.59-.75,6.15-.75,9.25l-1-1" style="fill:none;stroke:#7c8c03;stroke-miterlimit:10"/><path d="M99.1,306.36c-2.19-1.77-5.56-3.5-7.51-1.46-1,1.05-1,2.66-1,4.1a44.78,44.78,0,0,0,4.27,17" style="fill:none;stroke:#7c8c03;stroke-miterlimit:10"/><path d="M125.85,296.54q9.75,3.51,19.74,6.3l-2.27,0" style="fill:none;stroke:#7c8c03;stroke-miterlimit:10"/><path d="M108.65,220.76l3.79.6a14.51,14.51,0,0,1,4.59,1.27,9.68,9.68,0,0,1,4.42,6.21,28.68,28.68,0,0,1,.54,7.8q-.36,15.88-.7,31.77" style="fill:none;stroke:#7c8c03;stroke-miterlimit:10"/><path d="M97.05,214.39a11.56,11.56,0,0,1-11.19-2.6c-1.6-1.52-3.25-3.7-5.41-3.26-1.54.32-2.46,1.89-3,3.38-2,5.74-.81,12.15-2.39,18-1.4,5.21-4.88,9.59-8.32,13.75-1.65,2-3.36,4.05-4,6.56" style="fill:none;stroke:#7c8c03;stroke-miterlimit:10"/><path d="M95.61,204.15c-2.24-5.25-4.59-10.53-8-15.06s-8.21-8.32-13.78-9.57l.08,1.35" style="fill:none;stroke:#7c8c03;stroke-miterlimit:10"/><path d="M105.54,211.42c3.26-3.93,8.49-7,13.35-5.45a11.58,11.58,0,0,1,6.57,6.42,34.36,34.36,0,0,1,2.26,9.15" style="fill:none;stroke:#7c8c03;stroke-miterlimit:10"/><path d="M99.1,273.19c-6.21-4.55-9.22-13-16.24-16.17a13.67,13.67,0,0,0-15.38,3.23" style="fill:none;stroke:#7c8c03;stroke-miterlimit:10"/><g id="Masorcas"><g id="elote"><path d="M102.22,370.55c3.33,8.33,3.8,16.17,1.33,18.81a3.05,3.05,0,0,1-.81.63l-.24.1c-3.58,1.43-9.48-4.92-13.23-14.21l0-.13c-3.74-9.36-3.87-18.11-.28-19.54,3.42-1.37,9,4.38,12.71,13C101.85,369.65,102,370.1,102.22,370.55Z" style="fill:#fbb03b"/><path d="M103.55,389.36a20.46,20.46,0,0,0-1-3.07,19.35,19.35,0,0,0-3.89-6.15h0c-2.75-2.89-6.18-4.49-9.43-4.25,3.75,9.29,9.65,15.64,13.23,14.21l.24-.1Z" style="fill:#4a7573"/><path d="M103.55,389.36c2.47-2.64,2-10.48-1.33-18.81-.18-.45-.37-.9-.57-1.33-2.39,2.52-3.47,6.55-3,10.91h0a19.62,19.62,0,0,0,1.29,5,19.84,19.84,0,0,0,2.75,4.82Z" style="fill:#4a7573"/></g></g><g id="Masorcas-2" data-name="Masorcas"><g id="elote-2" data-name="elote"><path d="M118.2,320.79c-3.38,8.31-8.49,14.27-12.1,14.47a3.17,3.17,0,0,1-1-.12,1,1,0,0,1-.24-.09c-3.57-1.45-3.41-10.12.34-19.41l.06-.13c3.8-9.34,9.78-15.72,13.36-14.26,3.41,1.39,3.42,9.38.12,18.19C118.56,319.89,118.39,320.34,118.2,320.79Z" style="fill:#fbb03b"/><path d="M106.1,335.26a21.53,21.53,0,0,0,1.45-2.88,19.54,19.54,0,0,0,1.46-7.13h0c0-4-1.32-7.52-3.83-9.6-3.75,9.29-3.91,18-.34,19.41a1,1,0,0,0,.24.09Z" style="fill:#4a7573"/><path d="M106.1,335.26c3.61-.2,8.72-6.16,12.1-14.47.19-.45.36-.9.52-1.35-3.47.15-7,2.31-9.71,5.8h0a19.65,19.65,0,0,0-2.56,4.52,20,20,0,0,0-1.37,5.37Z" style="fill:#4a7573"/></g></g><g id="Masorcas-3" data-name="Masorcas"><g id="elote-3" data-name="elote"><path d="M106.56,254.65c1.93,8.76,1.11,16.56-1.76,18.77a2.83,2.83,0,0,1-.9.49l-.26.06c-3.76.83-8.54-6.4-10.73-16.18l0-.13c-2.16-9.85-.86-18.5,2.92-19.33,3.59-.79,8.13,5.78,10.42,14.91C106.34,253.7,106.45,254.17,106.56,254.65Z" style="fill:#fbb03b"/><path d="M104.8,273.42a21.24,21.24,0,0,0-.44-3.19,19.25,19.25,0,0,0-2.84-6.69h0c-2.24-3.31-5.37-5.45-8.61-5.74,2.19,9.78,7,17,10.73,16.18l.26-.06Z" style="fill:#4a7573"/><path d="M104.8,273.42c2.86-2.21,3.69-10,1.76-18.77-.11-.48-.22-1-.34-1.41-2.78,2.09-4.5,5.9-4.7,10.29h0a19.65,19.65,0,0,0,.45,5.17,19.89,19.89,0,0,0,1.93,5.2Z" style="fill:#4a7573"/></g></g><path d="M102.31,213c-1.57-15.24,8.2-30.93,22.57-36.23a26.08,26.08,0,0,0,4.2-1.72" style="fill:none"/><path d="M102.26,213a26.89,26.89,0,0,1,.81-12.56l.51-1.5c.19-.5.42-1,.62-1.46s.41-1,.65-1.45l.71-1.41a53.16,53.16,0,0,1,3.11-5.5,31.58,31.58,0,0,1,8.81-9.07,28.89,28.89,0,0,1,5.64-3c2-.85,4-1.18,5.93-2.08l0,.09c-1.76,1.2-3.85,1.74-5.67,2.71a23.91,23.91,0,0,0-2.74,1.45c-.92.47-1.74,1.11-2.61,1.66s-1.64,1.25-2.48,1.85-1.55,1.36-2.33,2-1.46,1.47-2.15,2.24-1.4,1.54-2,2.39a22.62,22.62,0,0,0-1.78,2.57,22.11,22.11,0,0,0-1.49,2.75l-.63,1.43c-.18.49-.33,1-.5,1.48s-.33,1-.47,1.49l-.37,1.51A45,45,0,0,0,102.36,213Z" style="fill:#fbb03b"/><path d="M101,211.93a26.77,26.77,0,0,0-6.27-19.33,22.35,22.35,0,0,0-7.4-5.77c-4.14-1.93-8.83-2.31-13.4-2.23a25.46,25.46,0,0,0-10.42,2c-3.22,1.52-6,4.37-6.6,7.87" style="fill:none"/><path d="M100.94,211.93a30.29,30.29,0,0,0-4-15.45,24.67,24.67,0,0,0-2.2-3.37,18.86,18.86,0,0,0-2.74-3,18,18,0,0,0-7-3.91,31.86,31.86,0,0,0-8-1.12,51.4,51.4,0,0,0-8,.41,17.43,17.43,0,0,0-7.43,2.62,10.87,10.87,0,0,0-4.63,6.3l-.1,0a10.5,10.5,0,0,1,4.27-6.91,17,17,0,0,1,7.73-3,42.2,42.2,0,0,1,8.25-.3,27.66,27.66,0,0,1,8.1,1.54,23.52,23.52,0,0,1,7.06,4.17,27.24,27.24,0,0,1,5.43,6.19A24.28,24.28,0,0,1,101,211.93Z" style="fill:#fbb03b"/><path d="M100.17,210.32c2.88-7.94,2.11-16.84-.51-24.88s-7-15.37-11.27-22.63" style="fill:none"/><path d="M100.07,210.28c.36-2.1.68-4.15.84-6.21s.2-4.11.23-6.18a34.53,34.53,0,0,0-.21-6.26,25.29,25.29,0,0,0-1.79-6c-.83-1.93-1.73-3.81-2.6-5.71s-1.89-3.72-2.83-5.59c-1.85-3.75-3.8-7.49-5.41-11.45l.17-.1a68.46,68.46,0,0,1,7.13,10.57,54.65,54.65,0,0,1,2.66,5.82,37.45,37.45,0,0,1,1.92,6.12c.5,2.08.91,4.17,1.38,6.24a52.94,52.94,0,0,1,1.25,6.31,23,23,0,0,1-.37,6.46,19.69,19.69,0,0,1-2.18,6.07Z" style="fill:#fbb03b"/></g><g id="Corn_2" data-name="Corn 2"><line x1="228.48" y1="476.55" x2="226.79" y2="166.9" style="fill:none;stroke:#4a7573;stroke-linecap:round;stroke-miterlimit:10;stroke-width:8px"/><path d="M207.4,313.5a11,11,0,0,0-7.49,1.32c-2.59,1.73-3.79,5-4.06,8.06s.23,6.21.28,9.32c.13,8.08-2.82,16-7,22.83s-9.72,12.88-15.17,18.84c6.15-6.88,16.89-7.65,23.75-13.82A19.37,19.37,0,0,0,204,347.12c.15-2.28-.11-4.59.31-6.84s1.68-4.53,3.84-5.27c5.22-1.8,10.08,6.3,15.28,4.46C237.62,334.44,214.77,314.39,207.4,313.5Z" style="fill:#4a7573"/><path d="M237.89,365.83a15.83,15.83,0,0,1,9,2.37c3.68,2.46,5.78,6.76,6.66,11.09,2.41,11.91-3.13,23.93-3.54,36.07-.23,6.68,1.11,13.31,2.45,19.86-4.88-9-9.91-18.53-9.38-28.73.23-4.33,1.46-8.54,2.16-12.82s.83-8.85-1-12.77-6.14-7-10.4-6.16c.43,6.36-8.66,9.55-9.39,1.93C223.77,369.61,232.16,365.91,237.89,365.83Z" style="fill:#4a7573"/><path d="M191.74,150.78c-3.8,2.35-6.55,6-9.22,9.63l-9.85,13.32c-1.72,2.32-3.5,4.81-3.77,7.69a15.94,15.94,0,0,0,1,6l4.59,15.49.55-13.66a17.21,17.21,0,0,1,1-5.94c2.41-5.73,9.76-7,15.24-9.93,3.91-2.11,7.1-5.35,10.91-7.62,3.62-2.16,8.2-3.35,12.14-1.42,2.47,1.21,5.53,8,7.93,8.13,3.72.23,2.57-3.8,1.84-6.92-1.1-4.68-3.87-10.51-8.39-12.71-3.18-1.55-7.91-1.78-11.21-2.68C199.72,148.84,196.37,147.91,191.74,150.78Z" style="fill:#4a7573"/><path d="M191,260.44a22.09,22.09,0,0,0-9.13.49c-5,1.65-9.32,6.57-14.53,5.62a43.81,43.81,0,0,1-.35,36.5,32.52,32.52,0,0,0,18.72-28.77c0-1.34,0-2.81.78-3.88,1.24-1.63,3.7-1.47,5.72-1.15q11.31,1.83,22.53,4.07c3.8.75,12.06,4.86,10.18-.94C221.91,263.15,198.52,261.21,191,260.44Z" style="fill:#4a7573"/><path d="M226.24,168.15a15.28,15.28,0,0,1,.12-7.3c.52-2.38,1.26-4.65,1.92-6.88a30.44,30.44,0,0,0,1.44-6.91,26.31,26.31,0,0,0-.55-7.08c-.48-2.32-1.11-4.6-1.73-6.86s-1.46-4.49-2.25-6.72c-1.53-4.47-3.28-8.9-4.7-13.52l.18-.08a72.42,72.42,0,0,1,6.52,12.88,55.67,55.67,0,0,1,2.07,7,38.87,38.87,0,0,1,1,7.21c.12,2.42.13,4.82.11,7.23a40.54,40.54,0,0,1-.47,7.28c-1,4.83-3.29,9-3.46,13.77Z" style="fill:#fbb03b"/><path d="M249.56,187a123.4,123.4,0,0,1,5.94,20.91c1.86,9.76,2.66,20,7.7,28.61,3.92,6.67,10.07,11.67,15.24,17.42s9.6,13,8.77,20.72c.35-7.85.47-16.08-3-23.11-3.4-6.81-9.9-11.81-12.75-18.87-3.37-8.34-1-17.75-1-26.76.11-18.58-9.71-35.63-19.81-51.22-1.27-2-2.74-4.06-5-4.65-3.1-.81-6,1.55-8.38,3.74-3.66,3.44-18.22,19-8.69,20.49,4.77.77,7.61-2.92,12.84.39C245.61,177.34,247.87,182.59,249.56,187Z" style="fill:#4a7573"/><path d="M232.42,139c1.46-4.75,3-9.57,5.59-13.77,2.14-3.4,5.39-6.52,9.39-6.78,5.2-.34,9.46,4.25,11.51,9-1.92-2.08-3.93-4.22-6.54-5.31s-6-.82-7.79,1.38a9.62,9.62,0,0,0-1.56,3.79c-2.69,10.91-3.89,22.34-8.7,32.5-2.21,4.65-8.51,10.17-9.11,2.55C224.7,155.94,230.5,145.23,232.42,139Z" style="fill:#4a7573"/><path d="M209.64,205.93c-5.36,1.6-10.47,4.87-13.06,9.83-1.53,2.93-2.1,6.25-2.65,9.51l-3.59,21.42c4.95-3.61,7.67-9.46,11.48-14.26s10.09-8.86,15.82-6.67c1.59.6,3.21,1.68,4.85,1.21,2.07-.61,2.67-3.2,2.91-5.35.47-4.18,3.15-12.42-.27-15.91S213.45,204.79,209.64,205.93Z" style="fill:#4a7573"/><path d="M253.57,204.78c4.95,1.34,9.73,4,12.6,8.25,2.55,3.79,3.37,8.44,4.13,12.94-3.67-4.74-7.48-9.6-12.67-12.58s-12.18-3.69-17-.07c-3.45,2.6-10.51,10.62-15.85,7.85-3.43-1.78-2-4.37-.28-7.27C230.26,204.12,243.5,202.05,253.57,204.78Z" style="fill:#4a7573"/><path d="M246.35,273.47c5,4.62,10.07,9.27,14.29,14.63C270,300,274.93,314.91,285.11,326c-3.64-3.76-7.36-7.58-12-10.05-3.37-1.8-7.15-2.84-10.3-5-10.49-7.19-11.48-24.73-23.38-29.23a3.1,3.1,0,0,0-2.13-.21c-3.46,1.27-3.25,6.12-8.33,4.65-4.07-1.18-4.32-4.52-3.19-7.87C229,268.91,239.85,267.49,246.35,273.47Z" style="fill:#4a7573"/><path d="M238.19,327.21a24.68,24.68,0,0,0,3.72,4.64c2,1.74,4.66,2.55,6.87,4,4.23,2.82,6.47,7.74,8.51,12.4.16-4.55-2-8.81-4.31-12.74a153.51,153.51,0,0,0-14-20,15.67,15.67,0,0,0-5.18-4.59c-2.11-1-4.89-.91-6.49.78C223.23,316,236,324.07,238.19,327.21Z" style="fill:#4a7573"/><path d="M233.17,168.74l4.68-7c.48-.71,1.08-1.5,1.94-1.51a2.44,2.44,0,0,1,1.42.6c8.48,6.14,8.85,18.79,15.38,27,1.5,1.88,3.33,3.52,4.47,5.64,3.28,6.1-.14,13.52,0,20.44.09,5.9,2.78,11.42,5.42,16.7l4.69,9.41" style="fill:none;stroke:#7c8c03;stroke-miterlimit:10"/><path d="M205.92,151.91c-4.4,1.22-9,2.55-12.28,5.72-3.6,3.47-5.12,8.69-8.8,12.07-3.44,3.18-8.5,4.48-11.25,8.27s-2.4,9.15-1.85,13.92a10.86,10.86,0,0,0,2.41-5.69" style="fill:none;stroke:#7c8c03;stroke-miterlimit:10"/><path d="M228,160.8v-1.69c-.25.42-.45.88-.71,1.3,2.22-11,12.6-19.76,12.35-31,0-1.12.27-2.69,1.38-2.59" style="fill:none"/><path d="M228.56,160.8c-.71-6.19,4.68-11.22,6.84-17.06,1.9-5.17,1.44-11.44,5.18-15.48l-.7,1.48" style="fill:none;stroke:#7c8c03;stroke-miterlimit:10"/><path d="M216.63,212.44c-3.74-.8-7.85-1.54-11.19.31s-5,5.93-6.24,9.64l-4.39,12.84" style="fill:none;stroke:#7c8c03;stroke-miterlimit:10"/><path d="M232.87,209.61a16.54,16.54,0,0,1,14.4-2.65" style="fill:none;stroke:#7c8c03;stroke-miterlimit:10"/><path d="M172.4,294.89a24.21,24.21,0,0,0,3.06-27.33" style="fill:none;stroke:#7c8c03;stroke-miterlimit:10"/><path d="M247.59,279.5a132.1,132.1,0,0,0,23.71,31.72" style="fill:none;stroke:#7c8c03;stroke-miterlimit:10"/><path d="M232.45,316.69c1.51,3.06,4.89,4.59,7.68,6.55a23.78,23.78,0,0,1,8.29,10.34" style="fill:none;stroke:#7c8c03;stroke-miterlimit:10"/><path d="M221.81,331.39a23,23,0,0,1-16.61-6.86c-.79-.81-1.69-1.75-2.83-1.68-1.46.1-2.21,1.78-2.53,3.22a29.49,29.49,0,0,0-.36,10.84c.29,1.89.77,3.75.89,5.65a19.17,19.17,0,0,1-4.75,13.28,34.52,34.52,0,0,1-11.52,8.54l1,.84" style="fill:none;stroke:#7c8c03;stroke-miterlimit:10"/><path d="M234.65,369l5.1,1.77c3.45,1.19,7.16,2.58,9.19,5.62,1.8,2.69,1.91,6.19,1.32,9.38s-1.81,6.22-2.49,9.38c-1.56,7.39-.07,15.05,1.41,22.45l-.26-2.72" style="fill:none;stroke:#7c8c03;stroke-miterlimit:10"/><path d="M224.69,173.18c-1.12-3.23-2.08-6.5-2.95-9.78s-1.69-6.6-2.37-9.92-1.24-6.67-2.22-9.92a48.25,48.25,0,0,0-4-9.33,64.18,64.18,0,0,0-5.59-8.34,42.19,42.19,0,0,0-7.08-6.93,34.46,34.46,0,0,0-8.53-5,35,35,0,0,0-4.78-1.51,11.36,11.36,0,0,1-4.72-2.13l.12-.16a12.79,12.79,0,0,0,4.8,1.3,30.47,30.47,0,0,1,5.1,1,29.71,29.71,0,0,1,9.3,4.76,35.79,35.79,0,0,1,7.28,7.47,42.86,42.86,0,0,1,5.08,9c1.35,3.17,2.47,6.39,3.6,9.61s2.28,6.45,3.22,9.73,1.6,6.62,2.26,10,1.22,6.7,1.63,10.09Z" style="fill:#fbb03b"/><path d="M224.9,172.33a7.23,7.23,0,0,1-.45-3.91,13.13,13.13,0,0,1,1.23-3.77,24.41,24.41,0,0,1,2-3.37l1.14-1.6c.42-.5.85-1,1.28-1.49a38.13,38.13,0,0,1,2.74-2.8c.45-.47,1-.88,1.46-1.3l1.47-1.29a77,77,0,0,1,6.26-4.66l1.64-1.07,1.72-.95a34.78,34.78,0,0,1,3.52-1.73c1.19-.55,2.43-1,3.65-1.45s2.5-.79,3.78-1.08a42.12,42.12,0,0,1,15.57-.78v.1a57.38,57.38,0,0,0-15.31,1.71,55.87,55.87,0,0,0-14.27,5.72,40.32,40.32,0,0,0-6.34,4.44,45.41,45.41,0,0,0-5.24,5.68l-1.21,1.5c-.37.52-.74,1.05-1.13,1.56a23.85,23.85,0,0,0-2.09,3.21c-1.2,2.2-2.07,4.76-1.36,7.29Z" style="fill:#fbb03b"/><g id="Masorcas-4" data-name="Masorcas"><g id="elote-4" data-name="elote"><path d="M245.78,263.65c-4.48,7.77-10.36,13-14,12.68a2.94,2.94,0,0,1-1-.25l-.23-.12c-3.34-1.93-2-10.5,3-19.19l.07-.12c5-8.73,11.83-14.24,15.19-12.3,3.18,1.84,2.1,9.75-2.37,18C246.26,262.81,246,263.23,245.78,263.65Z" style="fill:#fbb03b"/><path d="M231.82,276.33a19.76,19.76,0,0,0,1.82-2.66,19.21,19.21,0,0,0,2.43-6.85h0c.58-3.95-.29-7.64-2.48-10-5,8.69-6.33,17.26-3,19.19l.23.12Z" style="fill:#4a7573"/><path d="M231.82,276.33c3.6.3,9.48-4.91,14-12.68.25-.42.48-.84.7-1.27-3.46-.32-7.3,1.33-10.41,4.43h0a19.38,19.38,0,0,0-3.16,4.12,19.62,19.62,0,0,0-2.08,5.14Z" style="fill:#4a7573"/></g></g><g id="Masorcas-5" data-name="Masorcas"><g id="elote-5" data-name="elote"><path d="M246.78,358.65c-4.48,7.77-10.36,13-14,12.68a2.94,2.94,0,0,1-1-.25l-.23-.12c-3.34-1.93-2-10.5,3-19.19l.07-.12c5-8.73,11.83-14.24,15.19-12.3,3.18,1.84,2.1,9.75-2.37,18C247.26,357.81,247,358.23,246.78,358.65Z" style="fill:#fbb03b"/><path d="M232.82,371.33a19.76,19.76,0,0,0,1.82-2.66,19.21,19.21,0,0,0,2.43-6.85h0c.58-3.95-.29-7.64-2.48-10-5,8.69-6.33,17.26-3,19.19l.23.12Z" style="fill:#4a7573"/><path d="M232.82,371.33c3.6.3,9.48-4.91,14-12.68.25-.42.48-.84.7-1.27-3.46-.32-7.3,1.33-10.41,4.43h0a19.38,19.38,0,0,0-3.16,4.12,19.62,19.62,0,0,0-2.08,5.14Z" style="fill:#4a7573"/></g></g><g id="Masorcas-6" data-name="Masorcas"><g id="elote-6" data-name="elote"><path d="M223.56,192.65c1.93,8.76,1.11,16.56-1.76,18.77a2.83,2.83,0,0,1-.9.49l-.26.06c-3.76.83-8.54-6.4-10.73-16.18l0-.13c-2.16-9.85-.86-18.5,2.92-19.33,3.59-.79,8.13,5.78,10.42,14.91C223.34,191.7,223.45,192.17,223.56,192.65Z" style="fill:#fbb03b"/><path d="M221.8,211.42a21.24,21.24,0,0,0-.44-3.19,19.25,19.25,0,0,0-2.84-6.69h0c-2.24-3.31-5.37-5.45-8.61-5.74,2.19,9.78,7,17,10.73,16.18l.26-.06Z" style="fill:#4a7573"/><path d="M221.8,211.42c2.86-2.21,3.69-10,1.76-18.77-.11-.48-.22-1-.34-1.41-2.78,2.09-4.5,5.9-4.7,10.29h0a19.65,19.65,0,0,0,.45,5.17,19.89,19.89,0,0,0,1.93,5.2Z" style="fill:#4a7573"/></g></g><g id="Masorcas-7" data-name="Masorcas"><g id="elote-7" data-name="elote"><path d="M222.78,252.65c4.49,7.77,6.06,15.46,4,18.43a3.13,3.13,0,0,1-.71.74l-.22.14c-3.34,1.92-10.09-3.53-15.12-12.19l-.07-.12c-5-8.73-6.42-17.37-3.06-19.3,3.18-1.84,9.5,3.05,14.43,11.06C222.29,251.82,222.54,252.23,222.78,252.65Z" style="fill:#fbb03b"/><path d="M226.78,271.08a20.82,20.82,0,0,0-1.39-2.91,19.26,19.26,0,0,0-4.72-5.52h0c-3.13-2.47-6.76-3.57-9.93-2.87,5,8.66,11.78,14.11,15.12,12.19l.22-.14Z" style="fill:#4a7573"/><path d="M226.78,271.08c2.06-3,.49-10.66-4-18.43-.24-.42-.49-.83-.75-1.24-2,2.84-2.5,7-1.37,11.23h0a20.11,20.11,0,0,0,5.4,9.17Z" style="fill:#4a7573"/></g></g></g><g id="Corn_3" data-name="Corn 3"><line x1="356.2" y1="477.79" x2="354.51" y2="209.9" style="fill:none;stroke:#4a7573;stroke-linecap:round;stroke-miterlimit:10;stroke-width:8px"/><path d="M389.43,195.9c3.05-.31,6.21-.48,9.13.49,5,1.65,9.32,6.57,14.53,5.62a43.81,43.81,0,0,0,.35,36.5,32.53,32.53,0,0,1-18.72-28.77c0-1.34,0-2.81-.78-3.88-1.24-1.63-3.7-1.48-5.72-1.15q-11.31,1.83-22.53,4.06c-3.8.76-12.07,4.86-10.18-.93C358.52,198.61,381.91,196.66,389.43,195.9Z" style="fill:#4a7573"/><path d="M323.55,320.36c-3.8,2.35-6.56,6-9.22,9.63l-9.85,13.32c-1.72,2.32-3.5,4.8-3.77,7.68a16.15,16.15,0,0,0,1,6l4.59,15.49.56-13.66a17,17,0,0,1,1-5.94c2.41-5.73,9.76-7,15.23-9.93,3.91-2.11,7.1-5.35,10.92-7.62,3.61-2.16,8.19-3.35,12.14-1.42,2.46,1.21,5.52,8,7.93,8.13,3.72.23,2.57-3.8,1.84-6.93-1.1-4.67-3.87-10.5-8.4-12.7-3.17-1.55-7.9-1.78-11.2-2.68C331.52,318.42,328.17,317.49,323.55,320.36Z" style="fill:#4a7573"/><path d="M344.18,193.45c-4.87-6.53-11.24-12.18-18.94-14.82a19,19,0,0,0-9.57-1,10.9,10.9,0,0,0-7.74,5.35c2.17-4.94,8.58-6,14-6.38l7.42-.53a22.14,22.14,0,0,1,6.14.15,17.55,17.55,0,0,1,6.78,3.52c7.51,5.79,16.13,16.94,16.3,27C358.78,220.62,346.47,196.51,344.18,193.45Z" style="fill:#4a7573"/><path d="M344.41,201.51a15.9,15.9,0,0,0-9,2.38c-3.68,2.45-5.78,6.76-6.66,11.09-2.42,11.91,3.13,23.93,3.54,36.07.22,6.68-1.12,13.31-2.45,19.86,4.88-9,9.9-18.53,9.37-28.73-.22-4.33-1.45-8.54-2.15-12.82s-.84-8.85,1-12.78,6.14-7,10.41-6.15c-.43,6.35,8.66,9.55,9.39,1.93C358.53,205.3,350.13,201.6,344.41,201.51Z" style="fill:#4a7573"/><path d="M366.85,233.08c2.58-4.24,5.21-8.54,8.81-12,2.91-2.76,6.83-5,10.77-4.25,5.12.95,8.12,6.45,8.92,11.59-1.34-2.49-2.76-5.06-5-6.76s-5.63-2.28-7.89-.58a9.61,9.61,0,0,0-2.45,3.28c-5.29,9.92-9.28,20.7-16.44,29.36-3.28,4-10.75,7.76-9.46.23C355.18,247.61,363.45,238.66,366.85,233.08Z" style="fill:#4a7573"/><path d="M336.57,394.12c-5,4.62-10.07,9.27-14.29,14.63C313,420.6,308,435.56,297.81,446.69c3.64-3.76,7.36-7.58,12-10.05,3.37-1.8,7.15-2.84,10.3-5,10.49-7.19,11.47-24.73,23.38-29.23a3.1,3.1,0,0,1,2.13-.21c3.45,1.27,3.25,6.12,8.33,4.64,4.06-1.17,4.32-4.51,3.19-7.86C353.93,389.56,343.07,388.14,336.57,394.12Z" style="fill:#4a7573"/><path d="M370.6,360.35q3.87-20.48,9.49-40.57c1.09-3.91,2.24-7.87,2.29-11.93a22.72,22.72,0,0,0-9.14-18.3c-3-2.22-14.78-7.07-16.62-1.16-.85,2.72,3.62,5.35,4.66,7.29,1.85,3.47,2.09,8.1,2.78,11.93A477.13,477.13,0,0,1,370.6,360.35Z" style="fill:#4a7573"/><path d="M328.1,258.35c-9,1.11-15.79,8.34-21.79,15.11l-12.69,14.33c4.61-3.5,11-3,16.6-4.52,4.74-1.27,9-4,13.38-6.12s9.4-3.79,14.19-2.73c2.65.59,5.06,2,7.62,2.85s5.56,1.22,7.88-.19c5.78-3.54,3.64-11-.73-13.46C346.67,260.24,334.83,257.51,328.1,258.35Z" style="fill:#4a7573"/><path d="M379.42,349.24c3.14-4.36,7.58-9.26,12.82-8.09a12.57,12.57,0,0,1,4.68,2.53,61.54,61.54,0,0,1,17.67,21.46c-8.51-2.76-13.38-13.56-22.31-14.1a5.74,5.74,0,0,0-3.49.72c-1.78,1.15-2.34,3.45-2.77,5.52-2.25,10.65-5.77,21.78-14.15,28.73-2.91,2.42-6.63,4.29-10.38,3.74-11.54-1.69-2.82-11.67.49-16.28Z" style="fill:#4a7573"/><path d="M370.49,414.55c1.11,1,2.17,2.11,3.23,3.2,3.75,3.83,7.73,8.18,7.92,13.53a39.23,39.23,0,0,0-17.17-31.16,10.76,10.76,0,0,0-4.6-2c-5.35-.63-5.56,4.56-3.19,7.58C359.4,409.17,366.94,411.26,370.49,414.55Z" style="fill:#4a7573"/><path d="M368.81,290.17c4.21,9.25,4.24,19.77,4.18,29.93,0,7.55-.08,15.19-1.91,22.52" style="fill:none;stroke:#7c8c03;stroke-miterlimit:10"/><path d="M337,321.64c-3.86-.14-7.32,2.46-9.75,5.46s-4.22,6.51-6.85,9.34c-3.17,3.41-7.36,5.62-11.3,8.09a14.82,14.82,0,0,0-5.35,4.89c-1.4,2.5-1.36,5.53-1.28,8.4,0,1.32.49,3.08,1.82,3.08" style="fill:none;stroke:#7c8c03;stroke-miterlimit:10"/><path d="M365.06,371.71a38.59,38.59,0,0,0,14.67-14.38,59.11,59.11,0,0,1,4.24-7.16c1.71-2.19,4.15-4,6.92-4.16,3.35-.18,6.3,2,8.91,4.13l8.33,6.68" style="fill:none;stroke:#7c8c03;stroke-miterlimit:10"/><path d="M350,399.25c-2.35-3.31-6.76-5.77-10.44-4.07a11.67,11.67,0,0,0-4.11,3.92c-8.71,11.75-15.7,24.91-26.08,35.23" style="fill:none;stroke:#7c8c03;stroke-miterlimit:10"/><path d="M366.76,404a32.53,32.53,0,0,1,9.83,15" style="fill:none;stroke:#7c8c03;stroke-miterlimit:10"/><path d="M341.26,261.83a15.75,15.75,0,0,0-14.58.33c-5.21,2.93-8.24,8.53-12.4,12.83a31,31,0,0,1-14.42,8.38l-.18,1.83" style="fill:none;stroke:#7c8c03;stroke-miterlimit:10"/><path d="M358.5,250.35c5.33-2.34,7.86-8.3,10.38-13.54a100,100,0,0,1,8.53-14.46" style="fill:none;stroke:#7c8c03;stroke-miterlimit:10"/><path d="M399.16,199.37c4.79,7.56.53,18.19,4.76,26.07,1.23,2.27,3.11,4.17,4.16,6.54" style="fill:none;stroke:#7c8c03;stroke-miterlimit:10"/><path d="M334.89,249.6l-2.16-25.89c-.22-2.66-.42-5.45.66-7.88a13.49,13.49,0,0,1,4.31-5,43.31,43.31,0,0,1,7.8-4.86,1.54,1.54,0,0,1,.5,1.79" style="fill:none;stroke:#7c8c03;stroke-miterlimit:10"/><path d="M350.17,198.78a27.77,27.77,0,0,0-21.1-22.4" style="fill:none;stroke:#7c8c03;stroke-miterlimit:10"/><path d="M355.6,205c.62-6.56-2.41-12.86-5.65-18.59-5.14-9.11-11.31-18.09-20.26-23.51l1.68,1.45" style="fill:none"/><path d="M355.46,205a41.87,41.87,0,0,0-1.43-6.08c-.6-2-1.38-3.83-2.1-5.78s-1.28-4-2.17-5.95a27.86,27.86,0,0,0-3.36-5.4c-2.77-3.26-5.34-6.56-8.19-9.57a96.31,96.31,0,0,0-8.82-8.79l.69-.95q.72.85,1.38,1.77l-.19.23c-.67-.35-1.32-.72-2-1.11l.69-1a29.2,29.2,0,0,1,10.61,7.65,44.91,44.91,0,0,1,7,11,46.49,46.49,0,0,0,3.13,5.61,60.25,60.25,0,0,1,3.6,5.44,20.59,20.59,0,0,1,2,6.32,14.2,14.2,0,0,1-.52,6.61Z" style="fill:#fbb03b"/><path d="M355.19,203.21a54.8,54.8,0,0,1,10.23-21c1.78-2.24,3.85-4.42,6.57-5.31" style="fill:none"/><path d="M355.09,203.19a15.79,15.79,0,0,1,.46-4.07,16.88,16.88,0,0,1,1.33-3.85c.63-1.21,1.49-2.3,2.13-3.48a35.15,35.15,0,0,0,1.72-3.67,23.44,23.44,0,0,1,1.86-3.63,25.85,25.85,0,0,1,2.35-3.35,15.42,15.42,0,0,1,3.09-2.82,8.34,8.34,0,0,1,3.93-1.49l.06.19a21.71,21.71,0,0,0-5.43,5.47c-.79,1-1.64,2-2.45,3.07s-1.62,2.09-2.47,3.12a15.75,15.75,0,0,0-2.08,3.39,32.44,32.44,0,0,0-1.16,3.83,17.15,17.15,0,0,1-.67,1.86c-.23.62-.48,1.22-.74,1.83a34.47,34.47,0,0,1-1.73,3.65Z" style="fill:#fbb03b"/><path d="M354.57,203.82a72.93,72.93,0,0,0-64.43-13.63l2.82-.42" style="fill:none"/><path d="M354.54,203.86A96.36,96.36,0,0,0,340,195.12c-1.29-.56-2.56-1.2-3.85-1.8s-2.62-1.08-3.95-1.58-2.71-.88-4.07-1.26-2.77-.64-4.16-.93A84.22,84.22,0,0,0,307,188.26a82.38,82.38,0,0,0-16.83,2.11l-.08-.37,2.85-.28v.1l-2.81.55-.07-.37a60.47,60.47,0,0,1,16.9-2.8,66,66,0,0,1,17,1.89c1.38.38,2.76.73,4.14,1.07s2.74.82,4.11,1.22,2.7.91,4.06,1.37,2.67,1,4,1.61a55.21,55.21,0,0,1,14.28,9.42Z" style="fill:#fbb03b"/><path d="M355.42,201.39c-3-4.51-3.47-10.42-2-15.65s4.59-9.86,8.27-13.84c6.58-7.13,15.93-12.73,25.53-11.38l.13,1.57" style="fill:none"/><path d="M355.38,201.41a15.72,15.72,0,0,1-3-7.14,20.05,20.05,0,0,1,.36-7.79,27,27,0,0,1,3.11-7.11,53.22,53.22,0,0,1,4.43-6.33,38.23,38.23,0,0,1,11.79-10,23.39,23.39,0,0,1,15.11-2.67l.12,0v.1l0,1.58h-.1l-.22-1.57.12.13a23.85,23.85,0,0,0-7.54.6,31.14,31.14,0,0,0-7,2.73,45.31,45.31,0,0,0-11.91,9.38,31,31,0,0,0-4.51,6.17,26.43,26.43,0,0,0-2.59,7.13,20.69,20.69,0,0,0,1.87,14.69Z" style="fill:#fbb03b"/><g id="Masorcas-8" data-name="Masorcas"><g id="elote-8" data-name="elote"><path d="M374.82,395.3c-6.74,5.92-14,9-17.29,7.54a2.94,2.94,0,0,1-.86-.55l-.18-.19c-2.54-2.89,1.47-10.58,9-17.22l.11-.09c7.57-6.66,15.77-9.7,18.33-6.8s-1.14,9.92-8,16.33C375.54,394.65,375.18,395,374.82,395.3Z" style="fill:#fbb03b"/><path d="M357.53,402.84a20.86,20.86,0,0,0,2.58-1.93,19.36,19.36,0,0,0,4.49-5.72h0c1.8-3.56,2.17-7.33.85-10.3-7.5,6.64-11.51,14.33-9,17.22l.18.19Z" style="fill:#4a7573"/><path d="M357.53,402.84c3.32,1.44,10.55-1.62,17.29-7.54.36-.32.72-.65,1.06-1-3.17-1.42-7.34-1.08-11.27.86h0a20.16,20.16,0,0,0-7.93,7.1Z" style="fill:#4a7573"/></g></g><g id="Masorcas-9" data-name="Masorcas"><g id="elote-9" data-name="elote"><path d="M350.37,312.74c4.22,7.91,5.55,15.65,3.39,18.55a2.81,2.81,0,0,1-.74.72l-.22.13c-3.4,1.81-10-3.85-14.72-12.67l-.06-.13c-4.75-8.89-5.84-17.57-2.43-19.39,3.24-1.74,9.4,3.37,14.07,11.53C349.9,311.89,350.13,312.31,350.37,312.74Z" style="fill:#fbb03b"/><path d="M353.76,331.29a20.48,20.48,0,0,0-1.29-3,19.27,19.27,0,0,0-4.54-5.67h0c-3.05-2.58-6.64-3.79-9.84-3.19,4.75,8.82,11.32,14.48,14.72,12.67L353,332Z" style="fill:#4a7573"/><path d="M353.76,331.29c2.16-2.9.83-10.64-3.39-18.55-.24-.43-.47-.85-.71-1.26-2.11,2.77-2.73,6.9-1.74,11.18h0a19.56,19.56,0,0,0,1.83,4.85A20.23,20.23,0,0,0,353,332Z" style="fill:#4a7573"/></g></g><g id="Masorcas-10" data-name="Masorcas"><g id="elote-10" data-name="elote"><path d="M349.37,248.74c4.22,7.91,5.55,15.65,3.39,18.55a2.81,2.81,0,0,1-.74.72l-.22.13c-3.4,1.81-10-3.85-14.72-12.67l-.06-.13c-4.75-8.89-5.84-17.57-2.43-19.39,3.24-1.74,9.4,3.37,14.07,11.53C348.9,247.89,349.13,248.31,349.37,248.74Z" style="fill:#fbb03b"/><path d="M352.76,267.29a20.48,20.48,0,0,0-1.29-3,19.27,19.27,0,0,0-4.54-5.67h0c-3.05-2.58-6.64-3.79-9.84-3.19,4.75,8.82,11.32,14.48,14.72,12.67L352,268Z" style="fill:#4a7573"/><path d="M352.76,267.29c2.16-2.9.83-10.64-3.39-18.55-.24-.43-.47-.85-.71-1.26-2.11,2.77-2.73,6.9-1.74,11.18h0a19.56,19.56,0,0,0,1.83,4.85A20.23,20.23,0,0,0,352,268Z" style="fill:#4a7573"/></g></g></g><path id="Quelite_roots" data-name="Quelite roots" d="M85,459.77a30.59,30.59,0,0,1,32.7-7.48c5.54,2.16,10.28,5.91,15.29,9.1,12.69,8.08,29.29,12.61,42.7,5.81,4.35-2.2,8.15-5.5,12.76-7.05,11.84-4,25,4.42,37.07,1.08,4.76-1.33,8.94-4.42,13.8-5.28,7.91-1.39,15.43,3.32,22.51,7.12a115.08,115.08,0,0,0,32.36,11.54c4.26.83,10.35.11,10.64-4.23a5.9,5.9,0,0,0-7.94,2.5c4.21,2.92,10,1.67,14.65-.5s9.1-5.19,14.21-5.59c4.87-.39,9.55,1.66,14.2,3.14a62.33,62.33,0,0,0,28.42,2.12c3.74-.59,8.27-2.54,8.22-6.32-3.32-2.21-7.25,1.88-8.84,5.53s-4.13,8.27-8,7.51" style="fill:none;stroke:#7c8c03;stroke-miterlimit:10"/><path id="Pumpkin_roots" data-name="Pumpkin roots" d="M37.79,465.77a8,8,0,0,0-9.94-2.14c-1.72.95-3,2.53-4.76,3.48s-4.26,1-5.29-.67c-1.35-2.2,1-4.8,3.27-6.1a43.75,43.75,0,0,1,43.88.45c5.77,3.53,11.54,8.66,18.26,7.79,7.94-1,13.71-10.3,21.66-9.35,2,.25,3.91,1.16,5.91,1.57,12.66,2.6,23.35-15.15,35.76-11.55,3.22.93,5.84,3.21,8.55,5.19a54.14,54.14,0,0,0,20.51,9.14c6.2,1.31,13.67,1.08,17.61-3.89,2.93-3.69,3-8.86,4.78-13.22s7.65-8,11-4.67c1.31,1.28,1.74,3.18,2.34,4.92,2.55,7.46,8.83,12.92,14.85,18,1.12.95,2.37,1.95,3.84,2,3.72.08,5.18-5.67,8.85-6.17,2.35-.33,4.29,1.62,6.2,3,7.45,5.37,18.64,3.24,25.7,9.12,3.71,3.08,6.69,8.44,11.49,7.95,7-.73,6.34-11.85,11.5-16.69,4.66-4.37,12.09-2.12,18.35-.82,11.55,2.41,23.51.57,35.17-1.27,3.57-.57,7.51-1.35,9.67-4.25s.45-8.35-3.14-8c-3.2.35-4.28,4.87-2.74,7.69s4.55,4.46,7.05,6.49c4.71,3.79,7.46,12,2.45,15.38" style="fill:none;stroke:#324001;stroke-miterlimit:10"/><g id="Chilli_plant" data-name="Chilli plant"><path d="M64.12,378.51c7.67,4,14.68,9.79,18.41,17.58,3.16,6.57,3.78,14,4.5,21.29a502.5,502.5,0,0,0,8.66,55.23" style="fill:none;stroke:#324001;stroke-width:2px"/><path d="M66.85,386.3c-2.67,1.21-3.89,4.24-5.43,6.73a20.7,20.7,0,0,1-6.92,6.79" style="fill:none"/><path d="M66.91,386.44a24.06,24.06,0,0,0-2.13,3.84,21.1,21.1,0,0,1-2.63,3.82,18.78,18.78,0,0,1-3.45,3.45,19.18,19.18,0,0,1-4.12,2.4l-.16-.26a22,22,0,0,0,3.25-3.22,23.21,23.21,0,0,0,2.47-3.68c.69-1.28,1-2.86,2.14-4.15a7.78,7.78,0,0,1,1.94-1.75,4.34,4.34,0,0,1,2.57-.72Z" style="fill:#ed1c24"/><path d="M66.5,386.09A15.28,15.28,0,0,0,72.39,384" style="fill:none"/><path d="M66.5,386A19.18,19.18,0,0,0,69.42,385a13.31,13.31,0,0,1,1.37-.67,6.31,6.31,0,0,1,1.58-.34l0,.09a3.55,3.55,0,0,1-1.2,1.15,5.15,5.15,0,0,1-1.53.53,12.79,12.79,0,0,1-3.18.41Z" style="fill:#7c8c03"/><path d="M89,403.47c2-.27,4.25-.52,6.07.47a7.63,7.63,0,0,1,3.08,3.76,16.63,16.63,0,0,1,1.29,9,3.76,3.76,0,0,1-.85,2.16" style="fill:none"/><path d="M89,403.37a10.13,10.13,0,0,1,2.84-.84,6.55,6.55,0,0,1,3.17.27,5.54,5.54,0,0,1,2.6,2A12.5,12.5,0,0,1,99,407.59a17.18,17.18,0,0,1,1.07,5.78,16.65,16.65,0,0,1-.25,2.91A4.47,4.47,0,0,1,98.63,419l-.14-.14a4.37,4.37,0,0,0,.67-2.6,16,16,0,0,0-.13-2.77,16.17,16.17,0,0,0-1.55-5.22,7.91,7.91,0,0,0-3.29-3.58c-1.37-.74-3.27-.78-5.21-1.07Z" style="fill:#ed1c24"/><path d="M86.32,406.22a8.13,8.13,0,0,0,2.9-3.32" style="fill:none"/><path d="M86.31,406.2a6.55,6.55,0,0,1,1.58-1.53,1.61,1.61,0,0,0,.39-.39,4.87,4.87,0,0,0,.21-.53,2.59,2.59,0,0,1,.71-.86l0,0a1.8,1.8,0,0,1-.4,1.07c-.14.14-.3.25-.43.39a2.46,2.46,0,0,0-.31.48,2.5,2.5,0,0,1-1.77,1.4Z" style="fill:#7c8c03"/><path d="M70.82,389a2.1,2.1,0,0,0-2.2.45,10.41,10.41,0,0,0-2.62,3.4,21.86,21.86,0,0,1-2.24,3.69,8.58,8.58,0,0,1-4.19,2.74" style="fill:none"/><path d="M70.74,389.17a1.27,1.27,0,0,0-.77.41,4.08,4.08,0,0,0-.5.6c-.27.44-.59.94-.86,1.42-.52,1-1.43,1.89-2.19,3.06a12,12,0,0,1-2.87,3.24,8.72,8.72,0,0,1-3.94,1.57l-.08-.29a8.72,8.72,0,0,0,3-2.38,13.08,13.08,0,0,0,1.78-3.28c.51-1.2.8-2.71,2-3.82a5.52,5.52,0,0,1,2.08-1.31,3.2,3.2,0,0,1,1.35-.16,1.61,1.61,0,0,1,1.18.68Z" style="fill:#1a2601"/><path d="M70.05,388.71a1.82,1.82,0,0,0,1.72-.34,15.2,15.2,0,0,1,1.48-1.09,2.64,2.64,0,0,1,2.66.17c.11.07.22.21.14.31" style="fill:none"/><path d="M70.07,388.67a8.55,8.55,0,0,0,1.38-.58,3.26,3.26,0,0,0,.8-.3,3.38,3.38,0,0,0,.64-.62,2.17,2.17,0,0,1,1.83-.69,2,2,0,0,1,.93.38,1.5,1.5,0,0,1,.36.35.72.72,0,0,1,.16.26c0,.09,0,.27-.08.32l-.08-.06c0-.09-.16-.08-.28-.09l-.39-.06c-.25,0-.48,0-.72,0a4.84,4.84,0,0,0-1.44.1,1.36,1.36,0,0,0-.72.4c-.21.21-.32.52-.56.75a1.53,1.53,0,0,1-.93.36,1.05,1.05,0,0,1-.94-.39Z" style="fill:#7c8c03"/><path d="M61.71,374.55a2.31,2.31,0,0,0-3-.52c-1.1.71-1.36,2.18-2.09,3.25-.87,1.28-2.4,2-3.33,3.22a8.88,8.88,0,0,1,3-1.37,3.82,3.82,0,0,1,2.48.08,6.26,6.26,0,0,0,1.66.82,1.37,1.37,0,0,0,1.4-.86c.2-.53-.11-.79-.19-1.25s0-.41.23-.94A2.36,2.36,0,0,0,61.71,374.55Z" style="fill:#1a2601"/><path d="M61.59,377.61a2,2,0,0,1,1.62.32,7.75,7.75,0,0,1,.88.84,3.89,3.89,0,0,0,1.38.83" style="fill:none"/><path d="M61.58,377.56a1,1,0,0,1,1.26-.28c.2.13.32.38.47.52a1.36,1.36,0,0,0,.52.31,2,2,0,0,1,.53.26,4.32,4.32,0,0,1,.42.27,3.84,3.84,0,0,1,.71.91l0,.09a1.51,1.51,0,0,1-1.3-.13,1.84,1.84,0,0,1-.71-1,.65.65,0,0,0-.32-.44,1.27,1.27,0,0,0-.55,0,2.11,2.11,0,0,1-1-.41Z" style="fill:#7c8c03"/><path d="M85.71,427.55a2.31,2.31,0,0,0-3-.52c-1.1.71-1.36,2.18-2.09,3.25-.87,1.28-2.4,2-3.33,3.22a8.88,8.88,0,0,1,3-1.37,3.82,3.82,0,0,1,2.48.08,6.26,6.26,0,0,0,1.66.82,1.37,1.37,0,0,0,1.4-.86c.2-.53-.11-.79-.19-1.25s0-.41.23-.94A2.36,2.36,0,0,0,85.71,427.55Z" style="fill:#1a2601"/><path d="M84.59,429.61a2,2,0,0,1,1.62.32,7.75,7.75,0,0,1,.88.84,3.89,3.89,0,0,0,1.38.83" style="fill:none"/><path d="M84.58,429.56a1,1,0,0,1,1.26-.28c.2.13.32.38.47.52a1.36,1.36,0,0,0,.52.31,2,2,0,0,1,.53.26,4.32,4.32,0,0,1,.42.27,3.84,3.84,0,0,1,.71.91l0,.09a1.51,1.51,0,0,1-1.3-.13,1.84,1.84,0,0,1-.71-1,.65.65,0,0,0-.32-.44,1.27,1.27,0,0,0-.55,0,2.11,2.11,0,0,1-1-.41Z" style="fill:#7c8c03"/><path d="M89,413.48a1.54,1.54,0,0,1,2-.35c.74.47.91,1.47,1.41,2.2s1.62,1.33,2.25,2.17a5.74,5.74,0,0,0-2-.92,2.54,2.54,0,0,0-1.68.05c-.38.17-.7.5-1.12.55a.92.92,0,0,1-.95-.58c-.13-.36.08-.53.13-.85s0-.27-.15-.63A1.54,1.54,0,0,1,89,413.48Z" style="fill:#1a2601"/><path d="M89.77,414.87a1.44,1.44,0,0,0-1.1.22,7.81,7.81,0,0,0-.59.56,2.55,2.55,0,0,1-.93.56" style="fill:none"/><path d="M89.76,414.92c-.31.29-.41.41-.61.39s-.27-.13-.38-.09-.17.17-.19.31a1,1,0,0,1-.44.76.94.94,0,0,1-1,0l0-.09a2,2,0,0,1,.38-.74.84.84,0,0,1,.28-.15,1.25,1.25,0,0,1,.4-.13.64.64,0,0,0,.39-.2c.1-.1.16-.32.3-.43a.62.62,0,0,1,.9.3Z" style="fill:#7c8c03"/><path d="M140.76,399.64a1.55,1.55,0,0,1,1.69,1.16c.19.86-.38,1.69-.53,2.55-.19,1,.22,2.09.09,3.13a6.15,6.15,0,0,0-.8-2.07,2.59,2.59,0,0,0-1.23-1.13,4.49,4.49,0,0,1-1.19-.39.92.92,0,0,1-.27-1.08c.16-.35.42-.33.68-.52s.21-.18.34-.56A1.55,1.55,0,0,1,140.76,399.64Z" style="fill:#1a2601"/><path d="M140.33,401.16a1.41,1.41,0,0,0-.94-.61,4.48,4.48,0,0,0-.82,0,2.58,2.58,0,0,1-1-.26" style="fill:none"/><path d="M140.29,401.19c-.43,0-.58,0-.71-.15s-.1-.28-.21-.33a.33.33,0,0,0-.35.09,1,1,0,0,1-.85.24.93.93,0,0,1-.67-.71l0-.09a1.82,1.82,0,0,1,.79-.26,1.22,1.22,0,0,1,.3.08,1.49,1.49,0,0,1,.38.19.68.68,0,0,0,.41.14,2.53,2.53,0,0,1,.52-.1.61.61,0,0,1,.43.84Z" style="fill:#7c8c03"/><path d="M109.25,406.7a54,54,0,0,1,28.83-6.2" style="fill:none;stroke:#324001"/><path d="M88.08,425.67c-.4-5.33,9.17-11.11,12.92-13.82" style="fill:none;stroke:#324001"/><path d="M124.3,403.45A5.51,5.51,0,0,1,128,407a14.87,14.87,0,0,1,.4,3.89,6,6,0,0,0,1.13,3.68,4.24,4.24,0,0,0,3.33,1.37,6.5,6.5,0,0,0,3.44-1.25,1.06,1.06,0,0,1,.68-.27" style="fill:none"/><path d="M124.33,403.35a5.08,5.08,0,0,1,4.6,3.36c.76,2,.15,3.88.38,5.44a4,4,0,0,0,.79,2.09,3.43,3.43,0,0,0,1.94,1.13,4.69,4.69,0,0,0,2.43-.1,6.74,6.74,0,0,0,1.2-.46l.58-.31a1.12,1.12,0,0,1,.71-.2l0,.2c-.36,0-.67.44-1.05.67a7.52,7.52,0,0,1-1.21.68,5.61,5.61,0,0,1-2.8.51,4.67,4.67,0,0,1-2.73-1.23,5.37,5.37,0,0,1-1.41-2.69c-.43-1.93-.4-3.73-.72-5.13a6.36,6.36,0,0,0-2.75-3.77Z" style="fill:#1a2601"/><path d="M124.62,403.56a1.62,1.62,0,0,0-.67-.26c-.33,0-.67,0-1-.05a1.29,1.29,0,0,1-1-1.27" style="fill:none"/><path d="M124.6,403.58a5.68,5.68,0,0,1-.8-.08,1.47,1.47,0,0,0-.42-.13,2.29,2.29,0,0,0-.45,0,1.09,1.09,0,0,1-.89-.44.92.92,0,0,1-.06-1h0a2.55,2.55,0,0,0,.44.64,2.23,2.23,0,0,0,.52.49.61.61,0,0,0,.4.09c.14,0,.28-.09.44-.12a.81.81,0,0,1,.8.46Z" style="fill:#7c8c03"/></g><g id="Chilli_plant-2" data-name="Chilli plant"><path d="M387.55,405.07c-6,3.11-11.47,7.66-14.39,13.74-2.46,5.14-3,11-3.51,16.64a395.58,395.58,0,0,1-6.77,43.16" style="fill:none;stroke:#324001;stroke-width:2px"/><path d="M385.48,411a3.31,3.31,0,0,1,2.16.43,5.85,5.85,0,0,1,1.63,1.35c.92,1,1.1,2.28,1.61,3.28a19,19,0,0,0,1.83,2.9,17.58,17.58,0,0,0,2.44,2.61l-.16.26a14.44,14.44,0,0,1-3.32-1.79,14.72,14.72,0,0,1-2.8-2.67,13.09,13.09,0,0,1-2.11-2.95,33.8,33.8,0,0,0-1.4-3.15Z" style="fill:#ed1c24"/><path d="M385.68,411.05a9.31,9.31,0,0,1-2.51-.25,3.5,3.5,0,0,1-1.22-.4,2.46,2.46,0,0,1-.89-1l.05-.08a3.59,3.59,0,0,1,1.27.17,6.22,6.22,0,0,1,1.06.54,16.15,16.15,0,0,0,2.26.91Z" style="fill:#7c8c03"/><path d="M368.12,424.68a15.2,15.2,0,0,0-4,1,5.42,5.42,0,0,0-1.35,1.05,6.46,6.46,0,0,0-1.14,1.61,12.35,12.35,0,0,0-1.27,4,12.74,12.74,0,0,0-.14,2.15,3.37,3.37,0,0,0,.47,2l-.14.14a3.49,3.49,0,0,1-.94-2.09,12.53,12.53,0,0,1-.24-2.29,13.38,13.38,0,0,1,.79-4.58,9.23,9.23,0,0,1,1.07-2.22,4.31,4.31,0,0,1,2.11-1.65,5,5,0,0,1,2.56-.17,7.23,7.23,0,0,1,2.23.79Z" style="fill:#ed1c24"/><path d="M370.19,426.75a1.66,1.66,0,0,1-1.4-1.07,1.33,1.33,0,0,0-.23-.38c-.1-.11-.25-.19-.36-.3a1.14,1.14,0,0,1-.28-.85l0,0a1.6,1.6,0,0,1,.59.66,2.3,2.3,0,0,0,.14.42.89.89,0,0,0,.31.3,3.29,3.29,0,0,1,1.22,1.21Z" style="fill:#7c8c03"/><path d="M382.25,413.17a1.26,1.26,0,0,1,1-.64,2.45,2.45,0,0,1,1.15.07,4.48,4.48,0,0,1,1.76,1c1,.88,1.15,2.13,1.52,3.07a10.62,10.62,0,0,0,1.27,2.57,6.73,6.73,0,0,0,2.24,1.94l-.08.29a6.59,6.59,0,0,1-3.18-1.14,9.37,9.37,0,0,1-2.36-2.52,18.58,18.58,0,0,1-1.74-2.31c-.18-.37-.39-.76-.54-1.12-.09-.17-.18-.35-.29-.52a1,1,0,0,0-.57-.44Z" style="fill:#1a2601"/><path d="M382.94,413.09a.81.81,0,0,1-.76.38,1.09,1.09,0,0,1-.75-.28c-.19-.2-.26-.47-.41-.64a.92.92,0,0,0-.58-.29,5.72,5.72,0,0,0-1.09,0h-.84c-.1,0-.18,0-.24,0l-.08.07c-.2-.16,0-.41,0-.51a1.34,1.34,0,0,1,.27-.31,1.67,1.67,0,0,1,.76-.33,1.62,1.62,0,0,1,1.47.6,1.71,1.71,0,0,0,.49.51,2,2,0,0,0,.65.18c.39.12.53.34,1,.52Z" style="fill:#7c8c03"/><path d="M389.44,402a1.8,1.8,0,0,1,2.33-.41c.85.56,1.05,1.7,1.63,2.55s1.87,1.54,2.6,2.51a7,7,0,0,0-2.33-1.07,3,3,0,0,0-1.94.06,4.57,4.57,0,0,1-1.29.64,1.07,1.07,0,0,1-1.1-.67c-.15-.42.09-.61.15-1s0-.31-.18-.73A1.83,1.83,0,0,1,389.44,402Z" style="fill:#1a2601"/><path d="M389.52,404.42c-.36.28-.49.4-.73.4s-.31-.12-.44-.07a.47.47,0,0,0-.23.36,1.24,1.24,0,0,1-.53.84,1.09,1.09,0,0,1-1.08,0l0-.09a2.45,2.45,0,0,1,.49-.79,1.45,1.45,0,0,1,.32-.2,1.39,1.39,0,0,1,.44-.17.89.89,0,0,0,.44-.23c.11-.12.19-.34.35-.46a.72.72,0,0,1,1,.29Z" style="fill:#7c8c03"/><path d="M370.68,443.4A1.81,1.81,0,0,1,373,443c.86.55,1.06,1.7,1.63,2.54.68,1,1.88,1.55,2.61,2.52a6.81,6.81,0,0,0-2.34-1.07A2.9,2.9,0,0,0,373,447a4.91,4.91,0,0,1-1.3.64,1.08,1.08,0,0,1-1.1-.67c-.15-.42.09-.62.15-1s0-.32-.17-.73A1.81,1.81,0,0,1,370.68,443.4Z" style="fill:#1a2601"/><path d="M371.54,445.06c-.35.28-.49.4-.72.39s-.31-.11-.44-.06a.45.45,0,0,0-.23.35,1.26,1.26,0,0,1-.53.85,1.14,1.14,0,0,1-1.08,0l0-.1a2.29,2.29,0,0,1,.49-.79,1.42,1.42,0,0,1,.32-.19,1.39,1.39,0,0,1,.44-.17.85.85,0,0,0,.43-.23c.12-.12.2-.35.36-.47a.73.73,0,0,1,1,.3Z" style="fill:#7c8c03"/><path d="M368.1,432.4a1.22,1.22,0,0,0-1.58-.27c-.58.37-.71,1.15-1.1,1.71s-1.27,1.05-1.76,1.7a4.73,4.73,0,0,1,1.58-.72,2,2,0,0,1,1.31,0c.29.14.55.4.87.43a.71.71,0,0,0,.74-.45c.11-.28-.06-.41-.1-.66s0-.21.12-.5A1.23,1.23,0,0,0,368.1,432.4Z" style="fill:#1a2601"/><path d="M367.5,433.44a.48.48,0,0,1,.73-.31c.12.1.15.31.23.4s.16.12.29.12a.84.84,0,0,1,.37.07,1.12,1.12,0,0,1,.22.11,1.59,1.59,0,0,1,.23.66l0,.1a.77.77,0,0,1-.83.11.75.75,0,0,1-.23-.28.66.66,0,0,1-.07-.34c0-.14-.05-.25-.14-.29s-.23.09-.31.13-.18-.08-.44-.38Z" style="fill:#7c8c03"/><path d="M327.66,421.58a1.23,1.23,0,0,0-1.32.91c-.15.67.29,1.32.42,2s-.18,1.63-.07,2.44a4.46,4.46,0,0,1,.62-1.61,2,2,0,0,1,1-.89,3.18,3.18,0,0,0,.93-.31.71.71,0,0,0,.21-.84c-.12-.27-.33-.25-.53-.4s-.16-.14-.26-.44A1.25,1.25,0,0,0,327.66,421.58Z" style="fill:#1a2601"/><path d="M328,422.75a.49.49,0,0,1,.3-.74c.16,0,.33.11.44.13s.2,0,.3-.12a.64.64,0,0,1,.31-.2.56.56,0,0,1,.24-.08,1.63,1.63,0,0,1,.62.3l.05.1a.74.74,0,0,1-.52.65.63.63,0,0,1-.36,0,.89.89,0,0,1-.29-.2c-.1-.08-.21-.14-.3-.1s-.1.22-.13.3-.18.08-.58,0Z" style="fill:#7c8c03"/><path d="M352.29,427.11a42.18,42.18,0,0,0-22.54-4.85" style="fill:none;stroke:#324001"/><path d="M368.83,441.93c.31-4.17-7.17-8.68-10.1-10.8" style="fill:none;stroke:#324001"/><path d="M340.55,424.66a5.25,5.25,0,0,0-1.95,3c-.2,1-.23,2.42-.59,4a4.38,4.38,0,0,1-1.17,2.17,3.83,3.83,0,0,1-2.22,1,4.49,4.49,0,0,1-2.23-.44,5.19,5.19,0,0,1-.94-.56c-.3-.19-.55-.52-.8-.54l0-.2a.94.94,0,0,1,.58.15l.45.23a5.58,5.58,0,0,0,.94.34,3.56,3.56,0,0,0,1.86,0,2.62,2.62,0,0,0,1.43-.87,3,3,0,0,0,.55-1.57c.15-1.17-.38-2.63.26-4.28a3.92,3.92,0,0,1,3.8-2.58Z" style="fill:#1a2601"/><path d="M340.26,424.63a.6.6,0,0,1,.63-.4,3.66,3.66,0,0,0,.35.12.39.39,0,0,0,.3-.08,2.66,2.66,0,0,0,.37-.39,2.87,2.87,0,0,0,.39-.46h.05a.71.71,0,0,1,0,.79.81.81,0,0,1-.73.34.81.81,0,0,0-.68.11,1.81,1.81,0,0,1-.63,0Z" style="fill:#7c8c03"/></g><path id="Dirt" d="M441,510.15c-6.73-.44-13.44-1.18-20.13-2.27-18.58-3-36.9-8.81-55.72-8.42-18.07.39-35.69,6.48-53.77,6.47-21.33,0-42.35-8.56-63.51-5.92-9.53,1.19-18.74,4.63-28.33,5.07-17.12.77-33.4-8-50.52-8.54s-33.58,7.27-50.61,6.43c-20-1-39.1-13.77-58.79-10-8.06,1.53-15.57,5.78-23.77,6.13s-17.72-5.87-16.23-13.94c1.38-7.49,10.59-9.54,16.59-12,7.37-3,14.73-8.71,22.92-9.09,8.46-.4,17.18-.23,25.4,2.27,15.21,4.62,29.41,13.5,45.3,14.31,15.67.79,30.75-6.43,46.43-6.9,14.76-.43,29.17,5.14,43.94,5.05,14.48-.08,29-5.6,43.18-2.77,9.39,1.87,17.83,7.27,27.27,8.9,25,4.32,47.81-18.4,73.13-17.22,18.37.85,34.08,14.12,52.27,16.77,8.29,1.21,16.6.15,24.94-1" style="fill:#42210b"/><g id="Pumpkin_2" data-name="Pumpkin 2"><path d="M292.77,471.89a9.48,9.48,0,0,1,13.12-3c3.3,2.28,4.94,6.62,8.58,8.32,4.21,2,9.1-.4,13-3s8.22-5.47,12.77-4.56a8.59,8.59,0,0,1,6.67,8.39c-.15,4.91-4.42,8.58-8.48,11.34-3.59,2.45-8,4.82-12.1,3.32s-6.68-6.82-11.17-7.25c-3.27-.31-5.88,2.09-9,2.55-2.8.41-6.22-.76-8.67-2.17C293,483.27,290.06,476.7,292.77,471.89Z" style="fill:#f7931e"/><path d="M301.86,474.7c3.29,2.44,6.68,4.93,10.62,6a28.82,28.82,0,0,0,7.35.81,14.39,14.39,0,0,0,5.95-.83c2.15-.94,3.76-2.82,5.79-4a10.4,10.4,0,0,1,5.95-1.4" style="fill:none;stroke:#f15a24;stroke-miterlimit:10;stroke-width:0.75px"/><path d="M323.94,484.75a8,8,0,0,0,7.58,1.07,15.65,15.65,0,0,0,3.62-2.2l4.65-3.46" style="fill:none;stroke:#f15a24;stroke-miterlimit:10;stroke-width:0.75px"/><path d="M296.22,478a7,7,0,0,1,4.27.4c1.16.65,1.84,1.89,2.72,2.88a8.59,8.59,0,0,0,4.89,2.74" style="fill:none;stroke:#f15a24;stroke-miterlimit:10"/><ellipse cx="343.58" cy="474.2" rx="0.52" ry="1.59" transform="translate(-214.44 296.62) rotate(-36.42)" style="fill:#f15a24"/><path d="M296.71,471.42l-.19-.4a7.12,7.12,0,0,0-1.42-2.19,2.38,2.38,0,0,0-2.41-.62c-.76.3-1.24,1.1-2,1.39-.05,0-.08.06-.11.09a.11.11,0,0,1-.14,0s.05-.1.07-.06" style="fill:none"/><path d="M296.66,471.44a4.87,4.87,0,0,1-1.3-1.67,2.91,2.91,0,0,0-.47-.91,1.37,1.37,0,0,0-.91-.39,2.6,2.6,0,0,0-.88.12,2.81,2.81,0,0,0-.71.42,6.69,6.69,0,0,1-.92.59,2.27,2.27,0,0,1-.59.19c-.16,0-.06-.07-.22,0a.23.23,0,0,1-.3,0,.14.14,0,0,1,0-.2s.15,0,.16.05l-.09,0c0,.05.09.08.06,0l-.05-.06s0-.07.08-.14a.8.8,0,0,0,.14-.11L291,469a5.63,5.63,0,0,1,.72-.78,2.16,2.16,0,0,1,1.19-.52,1.84,1.84,0,0,1,1.23.29c.35.21.63.45,1,.66a6.05,6.05,0,0,1,.94.68,3.16,3.16,0,0,1,.71,2.11Z" style="fill:#1a2601"/></g><g id="Pumpkin_plant_1" data-name="Pumpkin plant 1"><g id="Pumpkin_1" data-name="Pumpkin 1"><path d="M143,462.25c5.15-2.74,11.21-3,17-3.37s11.95-1.21,16.54-4.81c4.39-3.43,7.1-9.22,12.4-10.93a13.32,13.32,0,0,1,4.87-.5c6.93.44,13.66,4.73,16.35,11.14s.78,14.62-4.86,18.68c-6.16,4.43-14.53,3.29-22.08,2.58-2-.19-4.09-.31-5.79.72-1.92,1.16-2.78,3.44-3.82,5.43a22.27,22.27,0,0,1-22.07,11.39C136.18,490.52,126.49,471,143,462.25Z" style="fill:#f7931e"/><path d="M146.38,473.24c2.43-5.14,8.45-7.52,14.09-8.22s11.44-.19,16.91-1.74A23.61,23.61,0,0,0,192,451.14" style="fill:none;stroke:#f15a24;stroke-miterlimit:10"/><path d="M197.89,459.21a16.55,16.55,0,0,1-1.17,8.08,6.36,6.36,0,0,1-3.37,3.78,7.67,7.67,0,0,1-3.57.09l-8.17-1.07a12.77,12.77,0,0,0-4.18-.09c-4.36.88-6.44,5.71-9.15,9.23a20.07,20.07,0,0,1-9.95,6.88" style="fill:none;stroke:#f15a24;stroke-miterlimit:10"/><path d="M166.33,470.86a25.94,25.94,0,0,0-15.39,8" style="fill:none;stroke:#f15a24;stroke-miterlimit:10"/><ellipse cx="141.45" cy="484.66" rx="1.24" ry="3.75" transform="translate(-260.12 178.66) rotate(-36.42)" style="fill:#f15a24"/><path d="M205.8,451.54a4.51,4.51,0,0,1-.74.46l-.1-.63c.67-.21,1.22-.47,1.93-.67a2,2,0,0,0,1.25-1.61,7.9,7.9,0,0,0,.25-2,14.44,14.44,0,0,0-.09-2.13l.09-.05a3.22,3.22,0,0,1,1,2.14,3.66,3.66,0,0,1-.63,2.34c-.52.66-1.11,1.1-1.6,1.74A2.38,2.38,0,0,1,205,452l-.11-.63a4.44,4.44,0,0,1,.88.06Z" style="fill:#324001"/></g><path d="M254.17,464.63a11.84,11.84,0,0,1-.42,3.6,7.52,7.52,0,0,0,1.27,5.16,8.5,8.5,0,0,1,1.22,1.78,3.91,3.91,0,0,1,.25,1.69,4.79,4.79,0,0,1-2.18,3.76c-1.29.82-4.7.1-4.84,2.53-.13-1-.84-5.65-2.28-5.39-.49-.07-1,.09-1.46.05,2.4-1.55-3.34-3.17-4-3.27.77-1,3.81-4,2.66-5.76a1,1,0,0,0-1.06-.49,2.66,2.66,0,0,0,2.44-2.07c.12-.52,0-5.28-.28-5.21a14.22,14.22,0,0,0,2.65-.72c.73-.33,1.27-1,2.14-.74C251.59,459.92,253.89,462.91,254.17,464.63Z" style="fill:#7c8c03"/><path d="M252.82,466.61a8.26,8.26,0,0,1-.35,2.55,5,5,0,0,0,.92,3.63,5.69,5.69,0,0,1,.9,1.25,2.54,2.54,0,0,1,.17,1.19,3.46,3.46,0,0,1-1.67,2.67c-1,.59-3.56.11-3.68,1.83-.09-.72-.59-4-1.68-3.79-.37,0-.73.08-1.1.05,1.83-1.11-2.49-2.21-3-2.27.59-.69,2.91-2.83,2.06-4.09a.72.72,0,0,0-.8-.34,2,2,0,0,0,1.86-1.48,14.19,14.19,0,0,0-.16-3.68,12.65,12.65,0,0,0,2-.53c.55-.24,1-.71,1.62-.55C250.91,463.3,252.63,465.4,252.82,466.61Z" style="fill:#324001"/><path d="M249.85,471.9c-.65.21-1.27.38-1.88.57s-1.24.29-1.86.49c-1.24.39-2.45.91-3.67,1.42l0-.07a29.54,29.54,0,0,1,3.5-1.91,7.11,7.11,0,0,1,1.91-.67,5,5,0,0,1,2,.09Z" style="fill:#1a2601"/><path d="M249.6,472.11a1.68,1.68,0,0,0-.8-.91c-.32-.2-.74-.45-1.12-.72-.78-.49-1.57-1-2.34-1.53l0-.1.15.11,0,.06-.17-.07.06-.1c.87.34,1.73.72,2.59,1.09a4,4,0,0,1,1.29.69,1.3,1.3,0,0,1,.4,1.49Z" style="fill:#1a2601"/><path d="M249.81,471.78a2.31,2.31,0,0,1,0,1.25,2.89,2.89,0,0,1-.62,1.07,3.74,3.74,0,0,1-2,1.37l0-.07a4,4,0,0,0,1.49-1.63c.16-.33.25-.68.42-1a6.1,6.1,0,0,1,.61-1Z" style="fill:#1a2601"/><path d="M250.65,470.59l-.63-1.74c-.22-.55-.37-1.13-.63-1.67a5.89,5.89,0,0,0-2.42-2.64l0-.07a5.63,5.63,0,0,1,2.91,2.41,5.27,5.27,0,0,1,.83,1.76,4.15,4.15,0,0,1,0,1.95Z" style="fill:#1a2601"/><path d="M251.07,472.48a4,4,0,0,1,.68,1.72,2.23,2.23,0,0,1-.61,1.88c-.46.48-1,.75-1.27,1.2a2.2,2.2,0,0,0-.31.78,2.45,2.45,0,0,1-.15.43.44.44,0,0,1-.37.3v-.08c.27-.07.28-.43.31-.7a2.58,2.58,0,0,1,.2-.91,8.94,8.94,0,0,1,1.14-1.4,2.38,2.38,0,0,0,.32-1.45c0-.55,0-1.13,0-1.75Z" style="fill:#1a2601"/><ellipse cx="250.25" cy="471.1" rx="1.17" ry="2.08" transform="translate(-78.62 51.1) rotate(-10.08)" style="fill:#1a2601"/><path d="M265.23,476.81a13.72,13.72,0,0,1,1.37-3.36,8.65,8.65,0,0,0,.39-5.35,9.32,9.32,0,0,1-.52-2.08,4.49,4.49,0,0,1,.27-1.7,4.73,4.73,0,0,1,2.89-3c1.31-.42,4,1.26,4.77-1.05-.17,1-.88,5.71.4,5.87.39.2.84.2,1.24.37-2.46.81,1.91,4,2.47,4.33-.92.71-4.32,2.72-3.86,4.8.1.47.41.79.75.79a2.31,2.31,0,0,0-2.63,1.29c-.25.47-1.48,5.11-1.24,5.12a10.89,10.89,0,0,0-2.42-.07c-.71.11-1.35.58-2,.1C266.07,482.12,265,478.56,265.23,476.81Z" style="fill:#7c8c03"/><path d="M266.92,475.29a9.16,9.16,0,0,1,1-2.36,5.64,5.64,0,0,0,.25-3.77,7.19,7.19,0,0,1-.41-1.48,3.09,3.09,0,0,1,.2-1.2,3.37,3.37,0,0,1,2.16-2.1c1-.29,3,.92,3.6-.71-.12.72-.63,4,.34,4.15.3.14.64.14.94.27-1.85.55,1.47,2.85,1.9,3.06-.69.5-3.25,1.9-2.89,3.37a.66.66,0,0,0,.58.56,1.77,1.77,0,0,0-2,.89,16.91,16.91,0,0,0-.9,3.61,9.32,9.32,0,0,0-1.83-.07c-.53.08-1,.4-1.52.06C267.59,479,266.74,476.52,266.92,475.29Z" style="fill:#324001"/><path d="M270.91,471h1.74c.56,0,1.13.07,1.7.06,1.15,0,2.31-.19,3.48-.32l0,.07a22.29,22.29,0,0,1-3.45.85,6.09,6.09,0,0,1-1.81.09,3.82,3.82,0,0,1-1.7-.68Z" style="fill:#1a2601"/><path d="M271.19,470.9a1.94,1.94,0,0,0,.43,1.09l.72,1c.52.72,1,1.43,1.53,2.18l-.08.07-.09-.14.05-.05.13.12-.09.08c-.65-.61-1.29-1.23-1.93-1.86a3.53,3.53,0,0,1-.9-1.07,1.35,1.35,0,0,1,.16-1.47Z" style="fill:#1a2601"/><path d="M270.91,471.16a2.09,2.09,0,0,1,.26-1.16,2.73,2.73,0,0,1,.81-.85,3.33,3.33,0,0,1,2.12-.82v.07a3.61,3.61,0,0,0-1.72,1.18c-.22.27-.37.59-.6.84a6,6,0,0,1-.81.77Z" style="fill:#1a2601"/><path d="M269.88,472.07c.05.64.05,1.23.08,1.83s0,1.18,0,1.77a6,6,0,0,0,1.27,3.31l-.05.06a5.71,5.71,0,0,1-1.81-3.27,5.31,5.31,0,0,1-.19-1.9,4.09,4.09,0,0,1,.6-1.82Z" style="fill:#1a2601"/><path d="M270.05,470.12a4,4,0,0,1-.14-1.8,2.43,2.43,0,0,1,1-1.64c.55-.38,1.12-.48,1.49-.85a2.34,2.34,0,0,0,.48-.65,3.11,3.11,0,0,1,.25-.38.43.43,0,0,1,.42-.2l0,.08c-.25,0-.34.35-.45.59a2.43,2.43,0,0,1-.41.82c-.42.51-1,.71-1.38,1.06a2.84,2.84,0,0,0-.64,1.34c-.17.51-.29,1.07-.52,1.64Z" style="fill:#1a2601"/><ellipse cx="270.35" cy="471.69" rx="2.1" ry="1.03" transform="translate(-232.37 678.7) rotate(-82.56)" style="fill:#1a2601"/><path d="M254.75,472c1.21,0,2.23.87,3.35,1.34a5.59,5.59,0,0,0,5.1-.45,7.67,7.67,0,0,1,1.9-1.14,2.87,2.87,0,0,1,1.64.07,5.32,5.32,0,0,1,3.2,3.59c.56,1.81-.7,6,1.58,6.67-1-.07-5.5-.2-5.5,1.67-.14.6-.08,1.24-.19,1.85-1.07-3.38-3.58,3.5-3.78,4.37-.79-1.2-3.11-5.7-5-4.66a1.31,1.31,0,0,0-.65,1.24c0-1.41-.23-2.8-1.55-3.55-.47-.27-5-1.16-5-.81a23.93,23.93,0,0,0-.23-3.5c-.19-1-.72-1.82-.34-2.87C249.84,474.21,253.07,472,254.75,472Z" style="fill:#7c8c03"/><path d="M256.4,474.16c.85,0,1.57.66,2.36,1a3.69,3.69,0,0,0,3.59-.34,5.36,5.36,0,0,1,1.34-.86,1.84,1.84,0,0,1,1.16,0,3.91,3.91,0,0,1,2.25,2.72c.4,1.36-.49,4.5,1.12,5-.7,0-3.88-.15-3.88,1.26-.1.46,0,.94-.14,1.4-.75-2.55-2.51,2.65-2.66,3.31-.56-.91-2.19-4.31-3.54-3.52a1,1,0,0,0-.45.93,2.91,2.91,0,0,0-1.09-2.68c-.34-.2-3.53-.88-3.52-.62a21.3,21.3,0,0,0-.16-2.65c-.14-.75-.51-1.37-.25-2.17C252.94,475.82,255.21,474.13,256.4,474.16Z" style="fill:#324001"/><path d="M260.92,479.09c.1.85.15,1.67.23,2.49s.07,1.64.14,2.46c.17,1.65.46,3.3.73,5H262a42.56,42.56,0,0,1-1.25-4.88,12,12,0,0,1-.3-2.53,7.77,7.77,0,0,1,.44-2.52Z" style="fill:#1a2601"/><path d="M261.07,479.44c-.54,0-.76.42-1,.81s-.55.86-.86,1.27c-.59.86-1.19,1.73-1.82,2.58l-.1-.05.13-.17.07,0-.1.19-.1-.06c.44-1,.92-1.91,1.39-2.85a6.16,6.16,0,0,1,.81-1.42,2,2,0,0,1,.74-.52.86.86,0,0,1,.9.12Z" style="fill:#1a2601"/><path d="M260.8,479.13a2.39,2.39,0,0,1,1.33.43,3.44,3.44,0,0,1,.91,1.06,5.06,5.06,0,0,1,.82,2.56h-.07a5.71,5.71,0,0,0-1.23-2.21c-.28-.31-.62-.54-.91-.83s-.58-.59-.88-1Z" style="fill:#1a2601"/><path d="M259.81,477.78c-.67.09-1.27.18-1.86.32a10.81,10.81,0,0,0-1.74.51,6,6,0,0,0-2.76,2.45l-.07,0a5.84,5.84,0,0,1,2.55-3,4.82,4.82,0,0,1,1.9-.71,3.58,3.58,0,0,1,2,.35Z" style="fill:#1a2601"/><path d="M261.66,477.69a3.62,3.62,0,0,1,2-.34,2.08,2.08,0,0,1,1,.46,2.68,2.68,0,0,1,.62.88,8.45,8.45,0,0,0,.8,1.65,2.14,2.14,0,0,0,.7.54c.25.16.62.4.56.78h-.07c0-.31-.32-.45-.59-.57a2.42,2.42,0,0,1-.87-.48,8.24,8.24,0,0,1-1-1.62,2.1,2.1,0,0,0-1.26-.9c-.53-.16-1.15-.19-1.8-.31Z" style="fill:#1a2601"/><ellipse cx="260.22" cy="478.4" rx="2" ry="1.5" style="fill:#1a2601"/><path d="M107.75,463c1.21,0,2.23.87,3.35,1.34a5.59,5.59,0,0,0,5.1-.45,7.67,7.67,0,0,1,1.9-1.14,2.87,2.87,0,0,1,1.64.07,5.32,5.32,0,0,1,3.2,3.59c.56,1.81-.7,6,1.58,6.67-1-.07-5.5-.2-5.5,1.67-.14.6-.08,1.24-.19,1.85-1.07-3.38-3.58,3.5-3.78,4.37-.79-1.2-3.11-5.7-5-4.66a1.31,1.31,0,0,0-.65,1.24c0-1.41-.23-2.8-1.55-3.55-.47-.27-5-1.16-5-.81a23.93,23.93,0,0,0-.23-3.5c-.19-1-.72-1.82-.34-2.87C102.84,465.21,106.07,463,107.75,463Z" style="fill:#7c8c03"/><path d="M109.4,465.16c.85,0,1.57.66,2.36,1a3.69,3.69,0,0,0,3.59-.34,5.36,5.36,0,0,1,1.34-.86,1.84,1.84,0,0,1,1.16,0,3.91,3.91,0,0,1,2.25,2.72c.4,1.36-.49,4.5,1.12,5-.7,0-3.88-.15-3.88,1.26-.1.46,0,.94-.14,1.4-.75-2.55-2.51,2.65-2.66,3.31-.56-.91-2.19-4.31-3.54-3.52a1,1,0,0,0-.45.93,2.91,2.91,0,0,0-1.09-2.68c-.34-.2-3.53-.88-3.52-.62a21.3,21.3,0,0,0-.16-2.65c-.14-.75-.51-1.37-.25-2.17C105.94,466.82,108.21,465.13,109.4,465.16Z" style="fill:#324001"/><path d="M113.92,470.09c.1.85.15,1.67.23,2.49s.07,1.64.14,2.46c.17,1.65.46,3.3.73,5H115a42.56,42.56,0,0,1-1.25-4.88,12,12,0,0,1-.3-2.53,7.77,7.77,0,0,1,.44-2.52Z" style="fill:#1a2601"/><path d="M114.07,470.44c-.54,0-.76.42-1,.81s-.55.86-.86,1.27c-.59.86-1.19,1.73-1.82,2.58l-.1-.05.13-.17.07,0-.1.19-.1-.06c.44-1,.92-1.91,1.39-2.85a6.16,6.16,0,0,1,.81-1.42,2,2,0,0,1,.74-.52.86.86,0,0,1,.9.12Z" style="fill:#1a2601"/><path d="M113.8,470.13a2.39,2.39,0,0,1,1.33.43,3.44,3.44,0,0,1,.91,1.06,5.06,5.06,0,0,1,.82,2.56h-.07a5.71,5.71,0,0,0-1.23-2.21c-.28-.31-.62-.54-.91-.83s-.58-.59-.88-1Z" style="fill:#1a2601"/><path d="M112.81,468.78c-.67.09-1.27.18-1.86.32a10.81,10.81,0,0,0-1.74.51,6,6,0,0,0-2.76,2.45l-.07,0a5.84,5.84,0,0,1,2.55-3,4.82,4.82,0,0,1,1.9-.71,3.58,3.58,0,0,1,2,.35Z" style="fill:#1a2601"/><path d="M114.66,468.69a3.62,3.62,0,0,1,2-.34,2.08,2.08,0,0,1,1,.46,2.68,2.68,0,0,1,.62.88,8.45,8.45,0,0,0,.8,1.65,2.14,2.14,0,0,0,.7.54c.25.16.62.4.56.78h-.07c0-.31-.32-.45-.59-.57a2.42,2.42,0,0,1-.87-.48,8.24,8.24,0,0,1-1-1.62,2.1,2.1,0,0,0-1.26-.9c-.53-.16-1.15-.19-1.8-.31Z" style="fill:#1a2601"/><ellipse cx="113.22" cy="469.4" rx="2" ry="1.5" style="fill:#1a2601"/><path d="M354.06,462.84a6.16,6.16,0,0,1,2.2-.57,3.53,3.53,0,0,0,2.41-2.13,4.76,4.76,0,0,1,.54-1.29,1.8,1.8,0,0,1,.85-.58,3.32,3.32,0,0,1,3,.63c1,.7,1.87,3.27,3.3,2.78-.53.34-2.86,1.95-2.17,2.9.16.36.43.66.6,1-1.8-1.31-.5,3.11-.29,3.62-.84-.31-3.7-1.72-4.27-.48a.81.81,0,0,0,.13.87,2.32,2.32,0,0,0-2.11-1.22c-.34,0-3,1.28-2.83,1.45a16.37,16.37,0,0,0-1.42-1.68c-.47-.44-1-.66-1.25-1.33A5,5,0,0,1,354.06,462.84Z" style="fill:#7c8c03"/><path d="M355.7,463.31a4.06,4.06,0,0,1,1.57-.36,2.34,2.34,0,0,0,1.69-1.52,3.33,3.33,0,0,1,.36-.94,1.16,1.16,0,0,1,.6-.4,2.46,2.46,0,0,1,2.16.53c.71.54,1.43,2.46,2.45,2.14-.37.23-2,1.37-1.49,2.08.12.27.32.5.45.76-1.33-1-.28,2.29-.11,2.67-.62-.25-2.72-1.36-3.11-.46a.63.63,0,0,0,.12.64,1.82,1.82,0,0,0-1.56-.95,7,7,0,0,0-2,1,11,11,0,0,0-1.07-1.28c-.35-.33-.77-.51-.93-1A3.51,3.51,0,0,1,355.7,463.31Z" style="fill:#324001"/><path d="M359.84,464.11a13.34,13.34,0,0,1,1.14,1.1c.35.37.63.8,1,1.2.68.79,1.41,1.54,2.14,2.3l0,.06a25.62,25.62,0,0,1-2.52-1.94,5.92,5.92,0,0,1-1.13-1.16,3.91,3.91,0,0,1-.62-1.52Z" style="fill:#1a2601"/><path d="M360,464.26c-.22.28-.1.49-.09.78a4.89,4.89,0,0,1,0,.95c0,.66,0,1.32-.05,2h-.11v-.14h.07l0,.13h-.11c-.18-.64-.32-1.3-.46-2a2.83,2.83,0,0,1-.14-1,1.32,1.32,0,0,1,.23-.57.54.54,0,0,1,.58-.25Z" style="fill:#1a2601"/><path d="M359.78,464.17a1.3,1.3,0,0,1,.84-.4,1.68,1.68,0,0,1,.88.23,3.1,3.1,0,0,1,1.36,1.08l-.06.05a3.79,3.79,0,0,0-1.47-.56,6,6,0,0,1-.74-.05,3.67,3.67,0,0,1-.8-.28Z" style="fill:#1a2601"/><path d="M358.78,463.89l-.72.94c-.22.29-.49.54-.7.86a3.74,3.74,0,0,0-.56,2.22h-.08a3.6,3.6,0,0,1,.11-2.5,2.57,2.57,0,0,1,.69-1.12,1.93,1.93,0,0,1,1.23-.48Z" style="fill:#1a2601"/><path d="M359.68,463.13a1.86,1.86,0,0,1,.81-1,1.43,1.43,0,0,1,1.43.1,5.77,5.77,0,0,0,1,.57,1.27,1.27,0,0,0,.53,0c.19,0,.48,0,.6.21l-.07,0c-.28-.25-.65.14-1.13.08a5.93,5.93,0,0,1-1.17-.39,1.28,1.28,0,0,0-.87,0c-.31.08-.65.26-1.07.39Z" style="fill:#1a2601"/><ellipse cx="359.22" cy="464.03" rx="1.26" ry="0.94" transform="translate(-205.34 303.92) rotate(-36.42)" style="fill:#1a2601"/><path d="M256.12,461.54A10.91,10.91,0,0,0,264,461a8,8,0,0,0,4.4-6.38c1.13-.21,1.83,1.24,1.79,2.39-.05,2-1,3.77-1.13,5.71a6,6,0,0,0,2,5.16,4.42,4.42,0,0,0,5.34.21c.6-.46,1.14-1.15,1.9-1.17a1.62,1.62,0,0,1,1.4,2A3.53,3.53,0,0,1,278,471c-2.11,1.36-4.67,1.79-7.15,2.22s-5,.91-7.11,2.33S260.24,479.6,261,482c-1.05.43-2.25-.4-2.77-1.42a32.46,32.46,0,0,1-1-3.26,6,6,0,0,0-3.87-3.59,11.6,11.6,0,0,0-5.49.21c-.88.17-3,.93-3.43-.43s1.1-1.83,2-2.13c1.48-.49,2.66-.54,3.69-1.92,1.17-1.59,2.17-4.55.88-6.26a20.15,20.15,0,0,0-1.91-1.9c-2.12-2.15-.58-4.27,2-3.07C252.87,459.07,254.18,461,256.12,461.54Z" style="fill:#fbb03b"/><path d="M258.93,464.52a6.46,6.46,0,0,0,4.65.38,4.73,4.73,0,0,0,3.14-3.31c.67,0,.94.89.82,1.56-.21,1.12-.91,2.1-1.18,3.21a3.58,3.58,0,0,0,.7,3.19,2.63,2.63,0,0,0,3.09.61c.39-.22.77-.57,1.21-.51a.94.94,0,0,1,.63,1.28A2.08,2.08,0,0,1,270.8,472a11.21,11.21,0,0,1-4.36.63,10.41,10.41,0,0,0-4.34.71,3.61,3.61,0,0,0-2.21,3.51c-.65.16-1.27-.44-1.48-1.08a16.16,16.16,0,0,1-.29-2,3.56,3.56,0,0,0-1.93-2.44A6.84,6.84,0,0,0,253,471c-.52,0-1.85.26-1.95-.57s.8-1,1.35-1.05c.9-.15,1.6-.07,2.32-.78s1.68-2.45,1.08-3.56a10.43,10.43,0,0,0-.93-1.28c-1-1.44.05-2.54,1.45-1.6C257.27,462.79,257.86,464,258.93,464.52Z" style="fill:#f7931e"/><path d="M260.05,467.61a2.91,2.91,0,0,0,2.05.17,2.07,2.07,0,0,0,1.38-1.46c.3,0,.42.39.37.68-.1.5-.41.93-.52,1.42a1.53,1.53,0,0,0,.31,1.4,1.14,1.14,0,0,0,1.36.27c.17-.09.33-.25.53-.22a.43.43,0,0,1,.28.57.92.92,0,0,1-.53.47,5,5,0,0,1-1.92.28,4.57,4.57,0,0,0-1.91.31,1.57,1.57,0,0,0-1,1.55c-.29.07-.57-.2-.66-.48a8.29,8.29,0,0,1-.13-.87,1.53,1.53,0,0,0-.85-1.08,3.05,3.05,0,0,0-1.41-.17c-.23,0-.81.12-.86-.24s.35-.43.6-.47.7,0,1-.34.74-1.08.48-1.57a4.54,4.54,0,0,0-.42-.56c-.45-.64,0-1.12.64-.71C259.32,466.84,259.58,467.39,260.05,467.61Z" style="fill:#7c8c03"/><g id="Baby_pumpkin" data-name="Baby pumpkin"><ellipse cx="46.72" cy="470.9" rx="9.5" ry="9" style="fill:#324001"/><path d="M42.07,467.24a13.81,13.81,0,0,1,3.74-1" style="fill:none"/><path d="M42.59,472.86a5,5,0,0,0,4.34,1.06" style="fill:none"/><path d="M42.24,466.23a12.78,12.78,0,0,0,3.21-.11" style="fill:none;stroke:#7c8c03;stroke-miterlimit:10;stroke-width:0.75px"/><path d="M50.14,468.13h4" style="fill:none;stroke:#7c8c03;stroke-miterlimit:10;stroke-width:0.75px"/><path d="M46.19,473.4h4.33" style="fill:none;stroke:#7c8c03;stroke-miterlimit:10;stroke-width:0.75px"/><path d="M40.54,470.41a17.88,17.88,0,0,0,3.57-.44" style="fill:none;stroke:#7c8c03;stroke-miterlimit:10;stroke-width:0.75px"/><path d="M43.37,476h3.76" style="fill:none;stroke:#7c8c03;stroke-miterlimit:10;stroke-width:0.75px"/><path d="M49.21,466a5.29,5.29,0,0,0,3-.19" style="fill:none;stroke:#1a2601;stroke-miterlimit:10;stroke-width:0.75px"/><path d="M40.34,474.08l3.6.36" style="fill:none;stroke:#1a2601;stroke-miterlimit:10;stroke-width:0.75px"/><path d="M49.4,476A3.46,3.46,0,0,0,53,476" style="fill:none;stroke:#1a2601;stroke-miterlimit:10;stroke-width:0.75px"/><path d="M58.93,473.26c2.31.56,4.19-2.37,6.56-2.28l-.26,3.83a.42.42,0,0,1-.59.47c-2.28-.28-4.52-.75-6.77-1.22-.55-.12-3.61-.33-2.95-1.6S58.07,473.05,58.93,473.26Z" style="fill:#7c8c03"/><path d="M72.65,473.69a8.6,8.6,0,0,1,2,1.09,1.5,1.5,0,0,1,.32,2,1.71,1.71,0,0,1-1.14.45,4.76,4.76,0,0,1-3.62-1.32,11.78,11.78,0,0,0-1.06-1.06,1.47,1.47,0,0,0-1.41-.27,8.5,8.5,0,0,0-.86.62c-2.32,1.37-3.4-3.25-1.6-4.49C67.92,468.9,70.64,472.62,72.65,473.69Z" style="fill:#fbb03b"/></g></g><g id="Quelites_1" data-name="Quelites 1"><path d="M100.86,335.82C83.22,329.9,73.22,311.9,59.22,299.9c-8-7-18-9-27.18-4.77a31.49,31.49,0,0,1,5-3.19c-1.59,1.14-3.3,2.15-5,3.19L33.92,293" style="fill:none;stroke:#7c8c03;stroke-miterlimit:10"/><path d="M108.37,379.52c10.85-5.62,28.85-8.62,26.85-24.62-1-11-11-18-21.71-17.48" style="fill:none;stroke:#7c8c03;stroke-miterlimit:10"/><path d="M117.62,463.23c-.31-3.27,3.19-5.46,5.41-7.19,3-2.3,5.45-4.49,5.71-8.5.52-8.13-7.44-13.86-14.5-15.53-10.58-2.49-26.92-.12-34-10.22-5.91-8.38-.86-18,5.36-24.45" style="fill:none;stroke:#7c8c03;stroke-miterlimit:10"/><path d="M108.37,269.2c12.85-.3,26.85-2.3,36.55-10.71" style="fill:none;stroke:#7c8c03;stroke-miterlimit:10"/><path d="M113.78,296.92C110.1,288.81,99.6,291,92.52,290c-2.72-.38-6.43-1.19-7.19-4.29-1-4.09,3.22-8.33,6.2-10.38" style="fill:none;stroke:#7c8c03;stroke-miterlimit:10"/><path d="M117.57,374.93c2.65-12-12.35-16-20.35-22-11-9-5-24,3.09-31.59" style="fill:none;stroke:#7c8c03;stroke-miterlimit:10"/><path d="M44.4,293.28a.8.8,0,0,0,.35-.28,4.56,4.56,0,0,0,.69-3.77,9.67,9.67,0,0,0-1.79-3.51" style="fill:none;stroke:#7c8c03;stroke-miterlimit:10"/><path d="M44.41,283.53a2.45,2.45,0,0,0-1.17-1.86,2.78,2.78,0,0,0-1.42-.3,1.21,1.21,0,0,0-.43.07,2.35,2.35,0,0,0-.37.24,3.65,3.65,0,0,1-2,.28c-.69,0-1.51.23-1.72.89a1.69,1.69,0,0,0,.37,1.4,12,12,0,0,0,1.26,1.51c.72.78,1.64,1.6,2.69,1.45A3.45,3.45,0,0,0,44.41,283.53Z" style="fill:#324001;stroke:#324001;stroke-miterlimit:10"/><path d="M38.52,283.15a9.65,9.65,0,0,0,2.64.88,4.56,4.56,0,0,1,2.43,1.28c.06.07.07.23,0,.2" style="fill:none"/><path d="M38.53,283.14c.89.38,1.84.52,2.78.83a6.23,6.23,0,0,1,1.37.55,3.14,3.14,0,0,1,.6.43l.26.26c.07.06.21.27,0,.31v0c.05,0,.05-.07,0-.12s-.07-.09-.11-.13a1.55,1.55,0,0,0-.27-.24,3,3,0,0,0-.61-.38,5.92,5.92,0,0,0-1.36-.47,6.4,6.4,0,0,1-2.75-1Z" style="fill:#7c8c03"/><path d="M42.27,284.13a2,2,0,0,0-1-2.25" style="fill:none"/><path d="M42.26,284.13a4.68,4.68,0,0,0-.21-1.26,2,2,0,0,0-.82-1v0a1.91,1.91,0,0,1,1,.91,1.31,1.31,0,0,1,.05,1.35Z" style="fill:#7c8c03"/><path d="M40.93,284.07a1.71,1.71,0,0,1-.67,1.09c-.56.3-1.25-.11-1.65-.6l.33,0" style="fill:none"/><path d="M40.94,284.07a1.9,1.9,0,0,1-.21.8,1,1,0,0,1-.73.49,1.7,1.7,0,0,1-1.42-.78l0-.06h.07l.33.05v0h-.33l0,0a1.59,1.59,0,0,0,1.34.6c.48-.1.69-.6,1-1.08Z" style="fill:#7c8c03"/><path d="M43,285a1.93,1.93,0,0,1-1.31,1.13" style="fill:none"/><path d="M43,285a1,1,0,0,1-.48.79,1.76,1.76,0,0,1-.85.34v0a2.09,2.09,0,0,0,.72-.47A6.93,6.93,0,0,1,43,285Z" style="fill:#7c8c03"/><path d="M141.4,261.28a.8.8,0,0,0,.35-.28,4.56,4.56,0,0,0,.69-3.77,9.67,9.67,0,0,0-1.79-3.51" style="fill:none;stroke:#7c8c03;stroke-miterlimit:10"/><path d="M141.41,251.53a2.45,2.45,0,0,0-1.17-1.86,2.78,2.78,0,0,0-1.42-.3,1.21,1.21,0,0,0-.43.07,2.35,2.35,0,0,0-.37.24,3.65,3.65,0,0,1-2,.28c-.69,0-1.51.23-1.72.89a1.69,1.69,0,0,0,.37,1.4,12,12,0,0,0,1.26,1.51c.72.78,1.64,1.6,2.69,1.45A3.45,3.45,0,0,0,141.41,251.53Z" style="fill:#324001;stroke:#324001;stroke-miterlimit:10"/><path d="M135.52,251.15a9.65,9.65,0,0,0,2.64.88,4.56,4.56,0,0,1,2.43,1.28c.06.07.07.23,0,.2" style="fill:none"/><path d="M135.53,251.14c.89.38,1.84.52,2.78.83a6.23,6.23,0,0,1,1.37.55,3.14,3.14,0,0,1,.6.43,3.19,3.19,0,0,1,.26.26c.07.06.21.27,0,.31v0s0-.07,0-.12-.07-.09-.11-.13a1.55,1.55,0,0,0-.27-.24,3,3,0,0,0-.61-.38,5.92,5.92,0,0,0-1.36-.47,6.4,6.4,0,0,1-2.75-1Z" style="fill:#7c8c03"/><path d="M139.27,252.13a2,2,0,0,0-1-2.25" style="fill:none"/><path d="M139.26,252.13a4.68,4.68,0,0,0-.21-1.26,2,2,0,0,0-.82-1v0a1.91,1.91,0,0,1,1,.91,1.31,1.31,0,0,1,.05,1.35Z" style="fill:#7c8c03"/><path d="M137.93,252.07a1.71,1.71,0,0,1-.67,1.09c-.56.3-1.25-.11-1.65-.6l.33,0" style="fill:none"/><path d="M137.94,252.07a1.9,1.9,0,0,1-.21.8,1,1,0,0,1-.73.49,1.7,1.7,0,0,1-1.42-.78l0-.06h.07l.33.05v0h-.33l0-.05a1.59,1.59,0,0,0,1.34.6c.48-.1.69-.6.95-1.08Z" style="fill:#7c8c03"/><path d="M140,253a1.93,1.93,0,0,1-1.31,1.13" style="fill:none"/><path d="M140,253a1,1,0,0,1-.48.79,1.76,1.76,0,0,1-.85.34v0a2.09,2.09,0,0,0,.72-.47A6.93,6.93,0,0,1,140,253Z" style="fill:#7c8c03"/><path d="M131.68,265.5a.34.34,0,0,0-.09.19,2.17,2.17,0,0,0,.5,1.77,4.43,4.43,0,0,0,1.5,1.14" style="fill:none;stroke:#7c8c03;stroke-miterlimit:10;stroke-width:0.5px"/><path d="M133.72,269.7a1.19,1.19,0,0,0,.9.55,1.34,1.34,0,0,0,.67-.17.52.52,0,0,0,.17-.12.67.67,0,0,0,.11-.18,1.78,1.78,0,0,1,.81-.55c.3-.14.61-.41.56-.74a.84.84,0,0,0-.45-.53,7.26,7.26,0,0,0-.86-.38,1.44,1.44,0,0,0-1.91,2.12Z" style="fill:#324001;stroke:#324001;stroke-miterlimit:10"/><path d="M136.34,268.62a4.52,4.52,0,0,0-1.32.18,2.2,2.2,0,0,1-1.32,0s-.08-.08,0-.09" style="fill:none"/><path d="M136.34,268.63a12.61,12.61,0,0,1-1.36.28,3.47,3.47,0,0,1-.72,0,1.36,1.36,0,0,1-.35-.07l-.17-.07s-.16-.08-.07-.14v0c0,.07.16.09.25.12l.34,0a3.21,3.21,0,0,0,.68-.11,2.22,2.22,0,0,1,1.4-.1Z" style="fill:#7c8c03"/><path d="M134.52,269a1,1,0,0,0,.92.75" style="fill:none"/><path d="M134.53,269a3.08,3.08,0,0,1,.38.46,1,1,0,0,0,.53.28v0a.93.93,0,0,1-.66-.15.51.51,0,0,1-.27-.61Z" style="fill:#7c8c03"/><path d="M135.11,268.74a.78.78,0,0,1,.06-.62c.17-.24.56-.21.83-.09l-.15.06" style="fill:none"/><path d="M135.1,268.74a.64.64,0,0,1-.13-.4.47.47,0,0,1,.23-.4.82.82,0,0,1,.82.07l.06,0-.07,0-.15,0v0L136,268v.06a.71.71,0,0,0-.66.06c-.14.12-.14.33-.21.61Z" style="fill:#7c8c03"/><path d="M134,268.78a.91.91,0,0,1,.32-.76" style="fill:none"/><path d="M134,268.78a.33.33,0,0,1,0-.46.85.85,0,0,1,.34-.31v0a1.22,1.22,0,0,0-.17.37.53.53,0,0,1-.15.38Z" style="fill:#7c8c03"/><path d="M129.4,369.28a.8.8,0,0,0,.35-.28,4.56,4.56,0,0,0,.69-3.77,9.67,9.67,0,0,0-1.79-3.51" style="fill:none;stroke:#7c8c03;stroke-miterlimit:10"/><path d="M129.41,359.53a2.45,2.45,0,0,0-1.17-1.86,2.78,2.78,0,0,0-1.42-.3,1.21,1.21,0,0,0-.43.07,2.35,2.35,0,0,0-.37.24,3.65,3.65,0,0,1-2,.28c-.69,0-1.51.23-1.72.89a1.69,1.69,0,0,0,.37,1.4,12,12,0,0,0,1.26,1.51c.72.78,1.64,1.6,2.69,1.45A3.45,3.45,0,0,0,129.41,359.53Z" style="fill:#324001;stroke:#324001;stroke-miterlimit:10"/><path d="M123.52,359.15a9.65,9.65,0,0,0,2.64.88,4.56,4.56,0,0,1,2.43,1.28c.06.07.07.23,0,.2" style="fill:none"/><path d="M123.53,359.14c.89.38,1.84.52,2.78.83a6.23,6.23,0,0,1,1.37.55,3.14,3.14,0,0,1,.6.43l.26.26c.07.06.21.27,0,.31v0s0-.07,0-.12-.07-.09-.11-.13a1.55,1.55,0,0,0-.27-.24,3,3,0,0,0-.61-.38,5.92,5.92,0,0,0-1.36-.47,6.4,6.4,0,0,1-2.75-1Z" style="fill:#7c8c03"/><path d="M127.27,360.13a2,2,0,0,0-1-2.25" style="fill:none"/><path d="M127.26,360.13a4.68,4.68,0,0,0-.21-1.26,2,2,0,0,0-.82-1v0a1.91,1.91,0,0,1,1,.91,1.31,1.31,0,0,1,0,1.35Z" style="fill:#7c8c03"/><path d="M125.93,360.07a1.71,1.71,0,0,1-.67,1.09c-.56.3-1.25-.11-1.65-.6l.33,0" style="fill:none"/><path d="M125.94,360.07a1.9,1.9,0,0,1-.21.8,1,1,0,0,1-.73.49,1.7,1.7,0,0,1-1.42-.78l0-.06h.07l.33.05v0h-.33l0,0a1.59,1.59,0,0,0,1.34.6c.48-.1.69-.6,1-1.08Z" style="fill:#7c8c03"/><path d="M128,361a1.93,1.93,0,0,1-1.31,1.13" style="fill:none"/><path d="M128,361a1,1,0,0,1-.48.79,1.76,1.76,0,0,1-.85.34v0a2.09,2.09,0,0,0,.72-.47A6.93,6.93,0,0,1,128,361Z" style="fill:#7c8c03"/></g><g id="Quelites_3" data-name="Quelites 3"><path d="M363.25,286c18.33-10.22,8-32.32,4.72-47.87" style="fill:none;stroke:#7c8c03;stroke-miterlimit:10"/><path d="M384.22,378c7-1.05,10-6.05,14-11.05a19.13,19.13,0,0,0,0-18c-10-14-27-11-42-9-18,3-35,7-52,2-7-2-12-6-14-12-2-7,1-13,6-18,16-13,36-17,54.62-21.43" style="fill:none;stroke:#7c8c03;stroke-miterlimit:10"/><path d="M332.17,397.73c4.6-5.45,12.17-9.74,18.94-11.78" style="fill:none;stroke:#7c8c03;stroke-miterlimit:10"/><path d="M376.26,465.61c4.4-.07,7.09-4.89,6.81-8.87-.35-5.11-4.72-8.92-8.71-11.52-10.87-7.07-22.25-7.57-34.74-8.57-6.15-.49-12.32-1.87-17-6.11" style="fill:none;stroke:#7c8c03;stroke-miterlimit:10"/><path d="M379.73,319.35c4.49-13.45,5.49-26.45,7.49-39.45,0-5,1-11,7-14,16-6,30,8,35.81,20.91" style="fill:none"/><path d="M379.73,319.35a124.93,124.93,0,0,0,4.52-19.56c1.06-6.62,1.79-13.28,2.78-19.92v0a20.79,20.79,0,0,1,1.39-8.21,12.28,12.28,0,0,1,2.3-3.53,12.71,12.71,0,0,1,3.39-2.51h0a22.11,22.11,0,0,1,11.39-1.18,26.13,26.13,0,0,1,10.59,4.44,39.62,39.62,0,0,1,8.34,7.91,47.93,47.93,0,0,1,6.05,9.79l-.91.41a47,47,0,0,0-5.83-9.65,39,39,0,0,0-8.1-7.82,25.37,25.37,0,0,0-10.25-4.43,21.57,21.57,0,0,0-11.08,1.05h0a12.28,12.28,0,0,0-3.26,2.37,11.32,11.32,0,0,0-2.23,3.36,20,20,0,0,0-1.43,8v0h0c-1.05,6.62-1.85,13.28-3,19.89A125.73,125.73,0,0,1,379.73,319.35Z" style="fill:#7c8c03"/><path d="M359.59,336.72a29.09,29.09,0,0,0,8.63-3" style="fill:none;stroke:#7c8c03;stroke-miterlimit:10"/><path d="M332,397.66c-20.33-9.46-28.34-48.52-3.36-57,6.76-2.3,13.94-2.36,21-2.76" style="fill:none;stroke:#7c8c03;stroke-miterlimit:10"/><path d="M317.68,383.1a.4.4,0,0,1-.09-.21,2.34,2.34,0,0,1,.61-1.89,5,5,0,0,1,1.67-1.16" style="fill:none;stroke:#7c8c03;stroke-miterlimit:10"/><path d="M320.06,378.66a1.24,1.24,0,0,1,1-.56,1.54,1.54,0,0,1,.72.21.79.79,0,0,1,.18.14c0,.06.07.13.11.2a1.87,1.87,0,0,0,.85.62c.31.17.63.48.57.83a.88.88,0,0,1-.51.54,5.23,5.23,0,0,1-1,.38,1.73,1.73,0,0,1-1.58,0A1.78,1.78,0,0,1,320.06,378.66Z" style="fill:#324001;stroke:#324001;stroke-miterlimit:10"/><path d="M322.83,379.93a4.86,4.86,0,0,1-1.41-.25,2.45,2.45,0,0,0-1.42,0c-.05,0-.09.09,0,.1" style="fill:none"/><path d="M322.83,379.94a2.41,2.41,0,0,1-1.5-.18,3.64,3.64,0,0,0-.72-.13,1.51,1.51,0,0,0-.37,0c-.1,0-.3,0-.28.12v0c-.08-.08.05-.14.09-.15l.18-.06a1.78,1.78,0,0,1,.39-.07,3.35,3.35,0,0,1,.77.07c.51.07,1,.24,1.45.35Z" style="fill:#7c8c03"/><path d="M320.89,379.46a1,1,0,0,1,1-.77" style="fill:none"/><path d="M320.87,379.45a.58.58,0,0,1,.33-.64,1.07,1.07,0,0,1,.71-.14v0a1,1,0,0,0-.59.27,4.41,4.41,0,0,1-.42.49Z" style="fill:#7c8c03"/><path d="M321.51,379.76a.93.93,0,0,0,0,.66c.18.27.59.25.9.13l-.16-.07" style="fill:none"/><path d="M321.53,379.76c.05.3,0,.53.19.68a.8.8,0,0,0,.72.08v.06l-.16-.09v0l.17,0,.07,0-.07,0a.87.87,0,0,1-.87,0,.5.5,0,0,1-.24-.43.8.8,0,0,1,.15-.43Z" style="fill:#7c8c03"/><path d="M320.36,379.66a1,1,0,0,0,.32.84" style="fill:none"/><path d="M320.37,379.66a.68.68,0,0,1,.15.42,1,1,0,0,0,.17.41l0,0a.91.91,0,0,1-.34-.36.36.36,0,0,1,0-.49Z" style="fill:#7c8c03"/><path d="M378.2,448.35a.58.58,0,0,1,.17-.29,3.44,3.44,0,0,1,2.74-1,7.31,7.31,0,0,1,2.86.87" style="fill:none;stroke:#7c8c03;stroke-miterlimit:10"/><path d="M385.51,447.05a1.84,1.84,0,0,1,1.55.62,2.16,2.16,0,0,1,.41,1,.92.92,0,0,1,0,.33c0,.11-.09.21-.13.32a2.74,2.74,0,0,0,.06,1.55,1.3,1.3,0,0,1-.44,1.41,1.34,1.34,0,0,1-1.1-.09,9.87,9.87,0,0,1-1.3-.74c-.68-.44-1.41-1-1.44-1.83A2.63,2.63,0,0,1,385.51,447.05Z" style="fill:#324001;stroke:#324001;stroke-miterlimit:10"/><path d="M386.58,451.41a7.13,7.13,0,0,1-1-1.86,3.48,3.48,0,0,0-1.29-1.65c-.06,0-.17,0-.14,0" style="fill:none"/><path d="M386.57,451.42a4.32,4.32,0,0,1-1.13-1.92,5.3,5.3,0,0,0-.53-1,2.71,2.71,0,0,0-.36-.41,1.2,1.2,0,0,0-.21-.17c-.06-.06-.19-.1-.19,0h0c0-.15.19-.07.24,0a1.88,1.88,0,0,1,.23.16,2.16,2.16,0,0,1,.41.39,4.79,4.79,0,0,1,.61.95c.36.66.59,1.34,1,2Z" style="fill:#7c8c03"/><path d="M385.35,448.73a1.51,1.51,0,0,1,1.82.48" style="fill:none"/><path d="M385.34,448.72a.93.93,0,0,1,1-.16,1.44,1.44,0,0,1,.81.64l0,0a1.48,1.48,0,0,0-.85-.47,6.1,6.1,0,0,0-1,0Z" style="fill:#7c8c03"/><path d="M385.57,449.73a1.3,1.3,0,0,0-.73.65c-.15.46.25.92.67,1.15l-.07-.24" style="fill:none"/><path d="M385.58,449.74c-.31.28-.64.5-.66.85a1.22,1.22,0,0,0,.6.92l0,0-.05-.25h0l.08.25,0,.07-.07,0a1.3,1.3,0,0,1-.79-1A.71.71,0,0,1,385,450a1.23,1.23,0,0,1,.59-.25Z" style="fill:#7c8c03"/><path d="M384.63,448.31a1.46,1.46,0,0,0-.67,1.13" style="fill:none"/><path d="M384.63,448.32a1.78,1.78,0,0,1-.39.53,1.68,1.68,0,0,0-.27.59h0a1.39,1.39,0,0,1,.13-.69.62.62,0,0,1,.55-.45Z" style="fill:#7c8c03"/><path d="M383.74,339.13a.4.4,0,0,1-.1-.23,2.61,2.61,0,0,1,.68-2.1,5.51,5.51,0,0,1,1.85-1.29" style="fill:none;stroke:#7c8c03;stroke-miterlimit:10"/><path d="M386.38,334.21a1.42,1.42,0,0,1,1.09-.63,1.62,1.62,0,0,1,.8.24.5.5,0,0,1,.2.15,1.19,1.19,0,0,1,.12.22,2,2,0,0,0,1,.69c.35.19.7.53.63.92a1,1,0,0,1-.56.61,7.93,7.93,0,0,1-1.05.42,1.73,1.73,0,0,1-2.18-2.62Z" style="fill:#324001;stroke:#324001;stroke-miterlimit:10"/><path d="M389.46,335.61a5.23,5.23,0,0,1-1.57-.27,2.58,2.58,0,0,0-1.58,0c-.05,0-.1.09,0,.1" style="fill:none"/><path d="M389.46,335.62a2.88,2.88,0,0,1-1.67-.2,4.29,4.29,0,0,0-.81-.15,1.79,1.79,0,0,0-.4,0c-.11,0-.34,0-.31.13v0c-.09-.09.05-.16.1-.17l.2-.07a2,2,0,0,1,.43-.06,4.07,4.07,0,0,1,.85.07c.57.09,1.06.27,1.62.38Z" style="fill:#7c8c03"/><path d="M387.3,335.09a1.15,1.15,0,0,1,1.13-.86" style="fill:none"/><path d="M387.28,335.08a.65.65,0,0,1,.37-.7,1.15,1.15,0,0,1,.78-.16v0a1.14,1.14,0,0,0-.65.29c-.16.19-.28.34-.47.55Z" style="fill:#7c8c03"/><path d="M388,335.42a1,1,0,0,0,0,.74c.2.3.66.28,1,.14l-.18-.08" style="fill:none"/><path d="M388,335.42c.05.33,0,.6.21.77a.9.9,0,0,0,.81.08v.06l-.17-.09v0l.18.06.07,0-.07,0a1,1,0,0,1-1,0,.55.55,0,0,1-.25-.47.82.82,0,0,1,.15-.47Z" style="fill:#7c8c03"/><path d="M386.71,335.32a1.11,1.11,0,0,0,.36.92" style="fill:none"/><path d="M386.72,335.32a.81.81,0,0,1,.15.47,1.37,1.37,0,0,0,.21.44l0,0a1.07,1.07,0,0,1-.37-.39.42.42,0,0,1,0-.54Z" style="fill:#7c8c03"/><path d="M337.08,293.8a.43.43,0,0,0,0-.25,2.61,2.61,0,0,0-1.41-1.69,5.54,5.54,0,0,0-2.2-.51" style="fill:none;stroke:#7c8c03;stroke-miterlimit:10"/><path d="M332.79,290.22a1.4,1.4,0,0,0-1.25-.17,1.6,1.6,0,0,0-.66.52.55.55,0,0,0-.12.21,1.09,1.09,0,0,0,0,.26,2,2,0,0,1-.62,1c-.25.31-.45.75-.24,1.08a1,1,0,0,0,.75.36,8.52,8.52,0,0,0,1.13,0,1.73,1.73,0,0,0,1.05-3.25Z" style="fill:#324001;stroke:#324001;stroke-miterlimit:10"/><path d="M330.45,292.67a5.05,5.05,0,0,0,1.36-.84,2.66,2.66,0,0,1,1.46-.6c.05,0,.12.06.08.09" style="fill:none"/><path d="M330.45,292.66c.47-.3.87-.66,1.36-1a4.19,4.19,0,0,1,.76-.39,2.13,2.13,0,0,1,.42-.1h.22s.2,0,.15.12l0,0c0-.1-.22,0-.33,0a2.23,2.23,0,0,0-.39.13,3.84,3.84,0,0,0-.69.44,2.9,2.9,0,0,1-1.47.82Z" style="fill:#7c8c03"/><path d="M332.26,291.38a1.15,1.15,0,0,0-1.37-.37" style="fill:none"/><path d="M332.25,291.39l-.63-.34a1.18,1.18,0,0,0-.72,0v0a1.11,1.11,0,0,1,.78-.14.64.64,0,0,1,.6.51Z" style="fill:#7c8c03"/><path d="M331.74,292a1,1,0,0,1,.24.7c-.07.35-.51.51-.87.5l.13-.13" style="fill:none"/><path d="M331.75,291.94a.91.91,0,0,1,.32.38.56.56,0,0,1-.06.54,1,1,0,0,1-.9.32H331l.06-.05.14-.12,0,0-.12.15,0-.06a.86.86,0,0,0,.71-.38c.1-.22,0-.46-.09-.78Z" style="fill:#7c8c03"/><path d="M332.89,291.37a1.13,1.13,0,0,1,0,1" style="fill:none"/><path d="M332.9,291.37a.41.41,0,0,1,.21.5.91.91,0,0,1-.19.5h0a1,1,0,0,0,0-.49.88.88,0,0,1,0-.49Z" style="fill:#7c8c03"/><path d="M412.73,267.37a.71.71,0,0,0,.17-.41,4.5,4.5,0,0,0-1.18-3.65,9.4,9.4,0,0,0-3.23-2.25" style="fill:none;stroke:#7c8c03;stroke-miterlimit:10"/><path d="M408.13,258.78a2.44,2.44,0,0,0-1.91-1.09,2.81,2.81,0,0,0-1.4.41,1.1,1.1,0,0,0-.34.26,2.16,2.16,0,0,0-.22.39,3.64,3.64,0,0,1-1.65,1.21c-.61.33-1.22.92-1.09,1.6a1.67,1.67,0,0,0,1,1.05,11.67,11.67,0,0,0,1.83.74c1,.34,2.2.63,3.06,0A3.46,3.46,0,0,0,408.13,258.78Z" style="fill:#324001;stroke:#324001;stroke-miterlimit:10"/><path d="M402.76,261.23a10,10,0,0,0,2.74-.48,4.61,4.61,0,0,1,2.75,0c.08,0,.16.17.07.19" style="fill:none"/><path d="M402.76,261.22c1-.09,1.87-.42,2.84-.59a6.56,6.56,0,0,1,1.47-.17,3.57,3.57,0,0,1,.73.1,2.47,2.47,0,0,1,.36.11c.08,0,.31.14.17.26v0c.06,0,0-.09,0-.13s-.1,0-.16-.06a2.25,2.25,0,0,0-.35-.09,3.48,3.48,0,0,0-.72,0,6.19,6.19,0,0,0-1.42.23,6.46,6.46,0,0,1-2.89.42Z" style="fill:#7c8c03"/><path d="M406.53,260.31a2,2,0,0,0-2-1.48" style="fill:none"/><path d="M406.51,260.32a4.41,4.41,0,0,0-.77-1,1.93,1.93,0,0,0-1.19-.47v0a1.89,1.89,0,0,1,1.31.34,1.3,1.3,0,0,1,.68,1.16Z" style="fill:#7c8c03"/><path d="M405.31,260.89a1.73,1.73,0,0,1-.07,1.29c-.35.53-1.15.49-1.74.25l.31-.13" style="fill:none"/><path d="M405.32,260.89a1.73,1.73,0,0,1,.19.81.93.93,0,0,1-.4.77,1.67,1.67,0,0,1-1.62,0l-.07,0,.07,0,.31-.12v0l-.29.15v-.06a1.61,1.61,0,0,0,1.47-.1c.37-.32.32-.86.32-1.4Z" style="fill:#7c8c03"/><path d="M407.55,260.71a1.94,1.94,0,0,1-.63,1.62" style="fill:none"/><path d="M407.56,260.71a.94.94,0,0,1,0,.92,1.94,1.94,0,0,1-.59.71v0a2.17,2.17,0,0,0,.41-.76,5.85,5.85,0,0,1,.21-.85Z" style="fill:#7c8c03"/></g><g id="Quelites_2" data-name="Quelites 2"><path d="M243.71,413.14c-17.41-4.07-35.81-8.17-50.16-19.49-14.18-11.18-20.15-26.45-18.1-44.29,1.06-9.2,2.37-19.8,8.72-27" style="fill:none;stroke:#7c8c03;stroke-miterlimit:10"/><path d="M277.73,479.85c12.75.06,19.29-14.78,20.57-25.55,1.69-14.22-9.41-24.76-21.05-30.76-8.6-4.43-18.08-6.79-27.44-9" style="fill:none;stroke:#7c8c03;stroke-miterlimit:10"/><path d="M250.34,277.27c10.06.19,22.12,1.57,31-4,7.37-4.66,12.23-12.83,14.1-21.23,1.08-4.85.15-9.22,5.12-12" style="fill:none;stroke:#7c8c03;stroke-miterlimit:10"/><path d="M243.49,363.71c10.18,1.61,30.17,3.48,33.81-9.79,3.9-14.21-15.65-20.56-25.74-22.95-13.12-3.12-26.81-4.44-39.36-9.64-10.56-4.39-22.88-13.39-24.37-25.71-2-16.54,24.37-18.25,35.45-18.52" style="fill:none;stroke:#7c8c03;stroke-miterlimit:10"/><path d="M213.36,404.4c-10.51-8.72-14.61-29.3-3.72-39.32,3.84-3.54,9.09-5,14.23-4.85" style="fill:none;stroke:#7c8c03;stroke-miterlimit:10"/><path d="M223.25,238.59c-2.31-.89-7.28-3.31-9.45-1.07-3.16,3.27,2,9,5.36,9.32,5.12.51,9.26-5.93,11.5-9.72a56.37,56.37,0,0,0,6.13-16.19,95.84,95.84,0,0,0,2.13-23.1" style="fill:none;stroke:#7c8c03;stroke-miterlimit:10"/><path d="M237.84,250.74a26.42,26.42,0,0,0-6.62-7.69" style="fill:none;stroke:#7c8c03;stroke-miterlimit:10"/><path d="M263.73,334.85a.77.77,0,0,0,.34-.28,4.56,4.56,0,0,0,.69-3.77,9.8,9.8,0,0,0-1.78-3.51" style="fill:none;stroke:#7c8c03;stroke-miterlimit:10"/><path d="M263.73,325.1a2.45,2.45,0,0,0-1.17-1.86,2.89,2.89,0,0,0-1.42-.3,1.49,1.49,0,0,0-.43.07,2.35,2.35,0,0,0-.37.24,3.74,3.74,0,0,1-2,.29c-.69,0-1.51.22-1.72.88a1.69,1.69,0,0,0,.37,1.4,11.34,11.34,0,0,0,1.26,1.51c.73.78,1.64,1.6,2.69,1.45A3.45,3.45,0,0,0,263.73,325.1Z" style="fill:#324001;stroke:#324001;stroke-miterlimit:10"/><path d="M257.84,324.72a9.65,9.65,0,0,0,2.64.88,4.63,4.63,0,0,1,2.44,1.28c.05.07.06.23,0,.2" style="fill:none"/><path d="M257.85,324.71c.9.38,1.84.52,2.78.83a6.77,6.77,0,0,1,1.37.55,3.26,3.26,0,0,1,.6.43l.26.26c.07.06.21.27,0,.31v0c.05,0,.05-.07,0-.12s-.06-.09-.11-.13a1.55,1.55,0,0,0-.27-.24,3.13,3.13,0,0,0-.61-.38,6.44,6.44,0,0,0-1.36-.47,6.45,6.45,0,0,1-2.75-1Z" style="fill:#7c8c03"/><path d="M261.59,325.7a2,2,0,0,0-1-2.25" style="fill:none"/><path d="M261.58,325.7a4.68,4.68,0,0,0-.21-1.26,2,2,0,0,0-.82-1v0a2,2,0,0,1,1,.91,1.36,1.36,0,0,1,.05,1.35Z" style="fill:#7c8c03"/><path d="M260.25,325.64a1.67,1.67,0,0,1-.67,1.09c-.56.3-1.25-.11-1.65-.6l.33,0" style="fill:none"/><path d="M260.26,325.64a1.9,1.9,0,0,1-.21.8.93.93,0,0,1-.72.49,1.68,1.68,0,0,1-1.42-.78l-.05-.06h.07l.33,0v0h-.33l0-.05a1.63,1.63,0,0,0,1.34.61c.48-.11.69-.61.95-1.09Z" style="fill:#7c8c03"/><path d="M262.3,326.54a1.94,1.94,0,0,1-1.31,1.12" style="fill:none"/><path d="M262.32,326.54a1,1,0,0,1-.48.79,1.77,1.77,0,0,1-.85.35v0a2.09,2.09,0,0,0,.72-.47,6.93,6.93,0,0,1,.58-.65Z" style="fill:#7c8c03"/><path d="M193.53,283.85a.48.48,0,0,1-.23-.19,3,3,0,0,1-.46-2.52A6.26,6.26,0,0,1,194,278.8" style="fill:none;stroke:#7c8c03;stroke-miterlimit:10"/><path d="M193.52,277.34a1.66,1.66,0,0,1,.78-1.24,1.83,1.83,0,0,1,.95-.2.71.71,0,0,1,.29.05c.09,0,.16.11.25.16a2.54,2.54,0,0,0,1.35.19c.46,0,1,.15,1.15.59a1.11,1.11,0,0,1-.25.93,7.38,7.38,0,0,1-.84,1,2.26,2.26,0,0,1-1.8,1A2.31,2.31,0,0,1,193.52,277.34Z" style="fill:#324001;stroke:#324001;stroke-miterlimit:10"/><path d="M197.45,277.09a6.64,6.64,0,0,1-1.76.59,3,3,0,0,0-1.62.85c0,.05,0,.15,0,.14" style="fill:none"/><path d="M197.46,277.1a3.52,3.52,0,0,1-1.83.69,5.28,5.28,0,0,0-.9.3,2.22,2.22,0,0,0-.42.25l-.18.15c-.06,0-.11.15,0,.16v0c-.14,0,0-.18,0-.22l.17-.18a2.46,2.46,0,0,1,.4-.3,4.86,4.86,0,0,1,.91-.38c.63-.22,1.25-.31,1.87-.52Z" style="fill:#7c8c03"/><path d="M195,277.74a1.32,1.32,0,0,1,.69-1.5" style="fill:none"/><path d="M194.94,277.75a.8.8,0,0,1,0-.92,1.32,1.32,0,0,1,.7-.6v0a1.29,1.29,0,0,0-.52.66c-.07.28-.11.52-.17.83Z" style="fill:#7c8c03"/><path d="M195.85,277.7a1.11,1.11,0,0,0,.44.73,1,1,0,0,0,1.1-.4l-.22,0" style="fill:none"/><path d="M195.86,277.7c.21.31.35.61.63.68a1,1,0,0,0,.88-.37l0,.05h-.23v0l.22,0h.07l0,.06a1.15,1.15,0,0,1-1,.55.63.63,0,0,1-.51-.34,1.23,1.23,0,0,1-.12-.56Z" style="fill:#7c8c03"/><path d="M194.47,278.3a1.3,1.3,0,0,0,.88.75" style="fill:none"/><path d="M194.48,278.29a1.33,1.33,0,0,1,.41.41,1.32,1.32,0,0,0,.46.34v0a1.08,1.08,0,0,1-.59-.21.53.53,0,0,1-.3-.55Z" style="fill:#7c8c03"/><path d="M282.18,426.37A.71.71,0,0,1,282,426a4.52,4.52,0,0,1,1.17-3.65,9.54,9.54,0,0,1,3.24-2.25" style="fill:none;stroke:#7c8c03;stroke-miterlimit:10"/><path d="M286.78,417.78a2.44,2.44,0,0,1,1.91-1.09,2.81,2.81,0,0,1,1.4.41,1.1,1.1,0,0,1,.34.26,2.16,2.16,0,0,1,.22.39A3.64,3.64,0,0,0,292.3,419c.61.33,1.22.92,1.09,1.6a1.67,1.67,0,0,1-1,1.05,11.67,11.67,0,0,1-1.83.74c-1,.34-2.2.63-3.06,0A3.46,3.46,0,0,1,286.78,417.78Z" style="fill:#324001;stroke:#324001;stroke-miterlimit:10"/><path d="M292.15,420.23a10,10,0,0,1-2.74-.48,4.61,4.61,0,0,0-2.75,0c-.09,0-.16.17-.07.19" style="fill:none"/><path d="M292.15,420.24a6.46,6.46,0,0,1-2.89-.42,6.19,6.19,0,0,0-1.42-.23,3.48,3.48,0,0,0-.72,0,2.25,2.25,0,0,0-.35.09c-.06,0-.12,0-.16.06s-.08.11,0,.13v0c-.14-.12.09-.24.17-.26a2.47,2.47,0,0,1,.36-.11,3.57,3.57,0,0,1,.73-.1,6.56,6.56,0,0,1,1.47.17c1,.17,1.87.5,2.84.59Z" style="fill:#7c8c03"/><path d="M288.38,419.31a2,2,0,0,1,2-1.48" style="fill:none"/><path d="M288.37,419.31a1.3,1.3,0,0,1,.68-1.16,1.89,1.89,0,0,1,1.31-.34v0a1.93,1.93,0,0,0-1.19.47,4.41,4.41,0,0,0-.77,1Z" style="fill:#7c8c03"/><path d="M289.6,419.89a1.73,1.73,0,0,0,.07,1.29c.35.53,1.15.49,1.74.25l-.31-.13" style="fill:none"/><path d="M289.61,419.9c0,.54-.05,1.08.32,1.4a1.59,1.59,0,0,0,1.46.1v.06l-.3-.15v0l.32.12.07,0-.07,0a1.67,1.67,0,0,1-1.62,0,.93.93,0,0,1-.4-.77,1.73,1.73,0,0,1,.19-.81Z" style="fill:#7c8c03"/><path d="M287.36,419.71a1.94,1.94,0,0,0,.63,1.62" style="fill:none"/><path d="M287.37,419.71a5.85,5.85,0,0,1,.21.85,2.17,2.17,0,0,0,.41.76v0a1.94,1.94,0,0,1-.59-.71.94.94,0,0,1,0-.92Z" style="fill:#7c8c03"/><path d="M186.59,387.21a.47.47,0,0,0-.2-.06,2.14,2.14,0,0,0-1.67.69,4.49,4.49,0,0,0-.94,1.61" style="fill:none;stroke:#7c8c03;stroke-miterlimit:10"/><path d="M182.72,389.71a1.15,1.15,0,0,0-.43.94,1.26,1.26,0,0,0,.24.64.66.66,0,0,0,.14.15,1.63,1.63,0,0,0,.19.09c.3.13.45.45.63.73s.48.54.79.45a.79.79,0,0,0,.46-.5,5.73,5.73,0,0,0,.28-.89,1.6,1.6,0,0,0-.12-1.44A1.63,1.63,0,0,0,182.72,389.71Z" style="fill:#324001;stroke:#324001;stroke-miterlimit:10"/><path d="M184.08,392.14a4.33,4.33,0,0,0-.33-1.27,2.21,2.21,0,0,1-.11-1.29c0-.05.07-.09.08-.05" style="fill:none"/><path d="M184.07,392.14a11,11,0,0,1-.43-1.3,2.76,2.76,0,0,1-.11-.7,1,1,0,0,1,0-.35.85.85,0,0,1,0-.17s.06-.17.14-.09h0c-.07,0-.07.17-.08.26a1.22,1.22,0,0,0,0,.33,3,3,0,0,0,.18.65,2.11,2.11,0,0,1,.26,1.36Z" style="fill:#7c8c03"/><path d="M183.51,390.4a1,1,0,0,0-.63,1" style="fill:none"/><path d="M183.51,390.41a2.81,2.81,0,0,1-.4.43,1,1,0,0,0-.21.55h0a1,1,0,0,1,.07-.66.5.5,0,0,1,.56-.34Z" style="fill:#7c8c03"/><path d="M183.83,391a.74.74,0,0,1,.6,0c.27.14.28.52.19.8l-.08-.14" style="fill:none"/><path d="M183.82,390.94a.68.68,0,0,1,.38-.18.45.45,0,0,1,.42.19.79.79,0,0,1,0,.8l0,.07,0-.06-.06-.15h0l.1.13h-.06a.73.73,0,0,0-.13-.64c-.14-.11-.35-.09-.63-.13Z" style="fill:#7c8c03"/><path d="M183.66,389.91a.9.9,0,0,1,.78.23" style="fill:none"/><path d="M183.66,389.89a.32.32,0,0,1,.44-.06.79.79,0,0,1,.35.3l0,0a.93.93,0,0,0-.38-.12.51.51,0,0,1-.39-.11Z" style="fill:#7c8c03"/><path d="M295.42,250.73a.56.56,0,0,0,.28.13,5.56,5.56,0,0,0,3.25-.44,10.61,10.61,0,0,0,2.66-1.76" style="fill:none;stroke:#7c8c03;stroke-miterlimit:10;stroke-width:0.75px"/><path d="M303.53,248.6a2.33,2.33,0,0,0,1.38-1.06,1.22,1.22,0,0,0,0-.86.4.4,0,0,0-.12-.22,3,3,0,0,0-.26-.16c-.4-.23-.42-.68-.53-1.06a1,1,0,0,0-1-.77,2.07,2.07,0,0,0-1.11.51,10.57,10.57,0,0,0-1.07,1c-.54.57-1.09,1.26-.81,1.82C300.51,248.73,302.19,249.09,303.53,248.6Z" style="fill:#324001;stroke:#324001;stroke-miterlimit:10"/><path d="M303,245.23a4.55,4.55,0,0,0-.35,1.67,2.53,2.53,0,0,1-.71,1.64c-.05,0-.18.08-.17,0" style="fill:none"/><path d="M303,245.24c-.17.61-.15,1.2-.28,1.83a3.35,3.35,0,0,1-.3.91,2.07,2.07,0,0,1-.28.38l-.17.17c-.05,0-.15.13-.22,0h0c.11,0,.23-.15.31-.25a2.3,2.3,0,0,0,.23-.4,3,3,0,0,0,.21-.88c0-.3,0-.62.08-.93a2,2,0,0,1,.38-.88Z" style="fill:#7c8c03"/><path d="M302.72,247.54a2.07,2.07,0,0,0,1.72-1.07" style="fill:none"/><path d="M302.72,247.53c.34-.16.63-.27.95-.39a1.76,1.76,0,0,0,.76-.67h0a1.54,1.54,0,0,1-.68.83,1.23,1.23,0,0,1-1,.24Z" style="fill:#7c8c03"/><path d="M302.58,246.78a1.7,1.7,0,0,1-1-.14c-.33-.24-.09-.71.26-1l0,.2" style="fill:none"/><path d="M302.58,246.79a1.66,1.66,0,0,1-.58.11.73.73,0,0,1-.58-.25.57.57,0,0,1,0-.64,1.65,1.65,0,0,1,.39-.44l0,0v.24h0l0-.19h0a1.87,1.87,0,0,0-.29.46c-.07.17-.08.35,0,.44s.62.15,1,.26Z" style="fill:#7c8c03"/><path d="M302.13,248.12a1.4,1.4,0,0,1-1.13-.49" style="fill:none"/><path d="M302.13,248.13a.63.63,0,0,1-.66,0,1.07,1.07,0,0,1-.48-.46h0a1.14,1.14,0,0,0,.53.28,1.26,1.26,0,0,1,.59.2Z" style="fill:#7c8c03"/><path d="M235.57,226.84s.09.07.14.1a1.7,1.7,0,0,0,1.42-.17,3.52,3.52,0,0,0,1.06-1" style="fill:none;stroke:#7c8c03;stroke-miterlimit:10;stroke-width:0.5px"/><path d="M239.06,225.79a.89.89,0,0,0,.53-.62,1.1,1.1,0,0,0,0-.54.44.44,0,0,0-.08-.15.58.58,0,0,0-.12-.1,1.33,1.33,0,0,1-.32-.7c-.08-.24-.25-.51-.51-.52a.61.61,0,0,0-.45.29,4.07,4.07,0,0,0-.41.61,1.25,1.25,0,0,0-.22,1.12A1.29,1.29,0,0,0,239.06,225.79Z" style="fill:#324001;stroke:#324001;stroke-miterlimit:10"/><path d="M238.55,223.64a3.62,3.62,0,0,0,0,1,1.74,1.74,0,0,1-.2,1s-.07.05-.07,0" style="fill:none"/><path d="M238.56,223.65a4.87,4.87,0,0,1,.07,1.08,2.8,2.8,0,0,1-.08.56,1.17,1.17,0,0,1-.1.26.83.83,0,0,1-.08.12s-.08.12-.13,0h0c.09,0,.15-.29.16-.44a2.35,2.35,0,0,0,0-.53,1.49,1.49,0,0,1,.11-1.09Z" style="fill:#7c8c03"/><path d="M238.61,225.09a.74.74,0,0,0,.69-.61" style="fill:none"/><path d="M238.61,225.08a1.07,1.07,0,0,1,.39-.25.75.75,0,0,0,.29-.36h0a.74.74,0,0,1-.18.5.37.37,0,0,1-.52.12Z" style="fill:#7c8c03"/><path d="M238.49,224.6a.63.63,0,0,1-.47-.12c-.17-.17-.09-.45,0-.65l0,.12" style="fill:none"/><path d="M238.49,224.62a.54.54,0,0,1-.33.07.4.4,0,0,1-.3-.25.65.65,0,0,1,.17-.63l.05-.06v.2h0l0-.12.05,0a.55.55,0,0,0,0,.5c.08.1.22.12.43.24Z" style="fill:#7c8c03"/><path d="M238.39,225.43a.74.74,0,0,1-.55-.34" style="fill:none"/><path d="M238.39,225.45a.24.24,0,0,1-.37,0,.7.7,0,0,1-.19-.32h0a.8.8,0,0,0,.28.16c.11,0,.17,0,.26.18Z" style="fill:#7c8c03"/></g></g></g></svg>