<svg xmlns="http://www.w3.org/2000/svg" viewBox="0 0 440 520"><g id="join-herobox"><g id="background"><rect x="-2.33" y="-0.5" width="443.33" height="520.14" style="fill:#253659"/><path id="mountain_3" data-name="mountain 3" d="M422.22,217.2c-14.39,8.38-18.59,26.52-24.77,40.65C392,270.3,382.87,283,369.34,285.05c-14.76,2.25-30.39-9-44-2.92-10.57,4.7-14.4,17.67-14.77,29.13s1.38,23.43-3,34.06c-6.69,16.3-25.74,24.19-43.43,25.8s-35.67-1.32-53.23,1.34c-44.94,6.8-76.46,47.47-118.35,65-29.77,12.42-63,12.44-95.42,11.19v72H441V213.22A29.87,29.87,0,0,0,422.22,217.2Z" style="fill:#603813"/><path id="mountain_2" data-name="mountain 2" d="M441,510.76l-36.51-12.53c-11.54-4-23.29-8-35.49-8.29-21.79-.61-43.39,10.49-64.74,6.09-26.55-5.46-43.79-33-70.07-39.64-31.64-8-63.58,17-96,12.95-30.52-3.78-51.69-31.44-79-45.48-19.46-10-40.48-12.6-62.22-12.12V520.5H441Z" style="fill:#c7b299"/></g><g id="farmer"><g id="Cactus"><path d="M79.21,448.37c-1.16-4.42-3.17-8.59-4.2-13-2.24-9.71.33-20.06-1.94-29.77C71.3,398,66.76,391.45,62.74,384.8c-1.84-3-3.62-6.24-4.08-9.77s.7-7.47,3.67-9.42c4.6-3,11,.18,14.06,4.78s4,10.25,6.28,15.24,5.92,9.13,8.28,14,3.4,10.38,4.39,15.75c4.49,24.23,9,48.71,7.92,73.33-8.43.31-22,3.92-24.72-7-1.21-4.82.71-10.11,1.34-14.84C80.75,460.45,79.21,454.67,79.21,448.37Z" style="fill:#7c8c03"/><path d="M96.42,418c.63-3.65,1.36-7.5,3.83-10.26,3.38-3.75,9-4.37,14.07-3.94,3.74.33,7.62,1.18,10.45,3.64,3.72,3.24,4.85,8.58,4.78,13.52a7.56,7.56,0,0,1-.56,3.17,7.44,7.44,0,0,1-1.71,2.09c-6,5.6-16.48,10.42-24.84,10.71C90.66,437.3,95.09,425.71,96.42,418Z" style="fill:#7c8c03"/><path d="M82.12,362.21a68.67,68.67,0,0,1,15.08-7.68c3.49-1.27,7.34-2.44,9.48-5.47,1.76-2.51,2.23-6.12,4.92-7.6,2.21-1.21,5-.35,7.1,1.11A12.29,12.29,0,0,1,124,352.1c.11,5.7-4.23,10.43-8.52,14.19a130.83,130.83,0,0,1-24.87,17.18,18.57,18.57,0,0,1-4.44,1.86C69.34,389.26,73.08,368.31,82.12,362.21Z" style="fill:#7c8c03"/><path d="M55.53,444.11c-2.92-2.54-6.1-5.64-5.91-9.5.14-2.88,2.17-5.3,4.26-7.29a49.86,49.86,0,0,1,8.82-6.67,15.47,15.47,0,0,1,7.06-2.55c5.25-.24,9.65,4,12.49,8.4,4.38,6.86,10.09,19.65,1.32,25.52C74.1,458.37,62.5,450.16,55.53,444.11Z" style="fill:#7c8c03"/><path d="M45.58,401c-5.43-1.29-10.54-5.67-10.79-11.24-.19-4.36,2.66-8.44,6.35-10.76s8.11-3.18,12.45-3.64a12.63,12.63,0,0,1,4.71.14c2.13.6,3.81,2.17,5.41,3.69,4.47,4.27,13.86,12.82,7.1,18.54C65.87,401.94,51.44,402.41,45.58,401Z" style="fill:#7c8c03"/><path d="M31.26,428c-4.22-3.18-8.38-7.54-8.25-12.83.11-4.06,2.87-7.7,6.37-9.76s7.63-2.75,11.68-3c4.24-.24,8.88.14,12,3,5.61,5,8.67,19.48,2.83,25.33C49.15,437.54,37.52,432.72,31.26,428Z" style="fill:#7c8c03"/><path d="M15.59,367.54a12.85,12.85,0,0,1,3.06-13A16.61,16.61,0,0,1,24,351.16a17.78,17.78,0,0,1,6.2-1.46c5.38-.18,10.55,2.91,13.69,7.28,4.59,6.41,8.38,22-1.91,25C33,384.52,18.47,376,15.59,367.54Z" style="fill:#7c8c03"/><path d="M98.82,341.41c-1.35-2.51-2.3-5.44-1.58-8.2,1-3.59,4.42-5.86,7.73-7.54,3.82-1.94,8.08-3.58,12.3-2.86,5.12.87,9.23,5.34,10.38,10.4a18.59,18.59,0,0,1-3.44,14.72,45.55,45.55,0,0,1-5,5.51C112.19,360.42,102.17,347.62,98.82,341.41Z" style="fill:#7c8c03"/><path d="M120.65,391.84a26.66,26.66,0,0,1-.46-5.41c.43-5.8,5.81-10.19,11.42-11.72,6.34-1.73,14.27,0,17.21,5.87a20.52,20.52,0,0,1,1.63,6.25,33.45,33.45,0,0,1,.49,10.12c-.52,3.35-2.24,6.69-5.21,8.32a15.7,15.7,0,0,1-4.66,1.45c-3.75.7-16.23,3.95-19.42,1.38S121.14,395.63,120.65,391.84Z" style="fill:#7c8c03"/><path d="M46.45,343.28a7.44,7.44,0,0,1,.12-3.29,7.18,7.18,0,0,1,2-2.87c4-3.74,9.38-5.56,14.7-6.76,3.7-.84,7.81-1.37,11.1.51a11.21,11.21,0,0,1,4.5,5.42c2.09,4.91,1.62,10.52.52,15.74s-3.36,10.76-8.32,12.34C59.45,368.1,47.79,353.35,46.45,343.28Z" style="fill:#7c8c03"/><path d="M107.6,409a37.11,37.11,0,0,1-9.47-8.94c-1.42-1.93-2.71-4.36-1.95-6.63a6.24,6.24,0,0,1,3.23-3.34c4.07-2.1,9.91-1.15,12,2.91,1.14,2.14,1.09,4.7.89,7.11a14.68,14.68,0,0,1-1.22,5.42,5.75,5.75,0,0,1-4.24,3.29" style="fill:#7c8c03"/><path d="M30.58,408.54a11.18,11.18,0,0,1-10.3-3A9.3,9.3,0,0,1,18,396c1.2-3.22,5-5.4,8.27-4.35A10.17,10.17,0,0,1,31,395.73,14.64,14.64,0,0,1,33.9,402a7.22,7.22,0,0,1-2,6.39" style="fill:#7c8c03"/><path d="M153.76,414.5c4,3.08,9.94,4.81,14,1.79a11.64,11.64,0,0,0,3.1-3.85c3-5.45,3.42-12.94-1-17.37a13.43,13.43,0,0,0-7.14-3.55c-5.21-1-15.11.9-17.43,6.6S149.6,411.3,153.76,414.5Z" style="fill:#7c8c03"/><path d="M137,369c-1.16,2.06-1.93,4.52-1.21,6.77s3.41,3.92,5.53,2.88c1.54-.75,2.23-2.55,2.64-4.21.51-2.09.75-4.42-.29-6.3s-3.83-2.88-5.44-1.46a5.92,5.92,0,0,0-1.51,3.64" style="fill:#7c8c03"/><path d="M113.3,371.7c3.3,2.89,7.84,4.6,12.15,3.74a11.59,11.59,0,0,0,5.07-20.32,17.43,17.43,0,0,0-9.31-3.39,18.67,18.67,0,0,0-10.28,1.35C101.78,357.57,107.61,366.71,113.3,371.7Z" style="fill:#7c8c03"/><path d="M91.3,358.16c-1.6-1.84-3.67-3.2-5.42-4.89s-3.22-3.93-3.09-6.36c.18-3.47,4-6.09,7.4-5.48s6,3.88,6.35,7.33a11.67,11.67,0,0,1-3.81,9.31" style="fill:#7c8c03"/><path d="M123.34,459.51a5.38,5.38,0,0,1-.84,3.3,6.38,6.38,0,0,1-1.83,1.47c-4.59,2.81-10.11,5.3-15.22,3.59-8-2.67-15.39-19.8-7.09-25.42C108.52,435.57,123.28,449.4,123.34,459.51Z" style="fill:#7c8c03"/><path d="M77.18,303.71A18.61,18.61,0,0,1,97.85,315.5C99,318.93,99.05,323,97,326c-2,2.78-5.36,4.11-8.61,5.11-8.64,2.63-21.36,6.86-24.81-4.51C60.59,316.84,67.3,305.77,77.18,303.71Z" style="fill:#7c8c03"/><path d="M28.89,331.76c3,4.19,8,6.74,13,7.78,2.74.55,5.73.68,8.19-.66,9.59-5.2,2.79-24.71-5.32-28.32C32.39,305.05,21.43,321.47,28.89,331.76Z" style="fill:#7c8c03"/><path d="M79.76,312.06c-1.32,1.08-3.5-.21-5,.7a1.9,1.9,0,0,0-.61,2.5c1.31,2.23,5.22-.06,7.25,1.55,1.49,1.19.84,3.74-.66,4.92s-3.47,1.49-5.26,2.16a2.77,2.77,0,0,0-1.49,1c-.76,1.27.6,2.84,2,3.28,4.2,1.3,8.24-2.19,11.26-5.39,1-1,2-2.47,1.42-3.76-1-2-4.78-1-5.76-3.06s1.94-3.92,1.6-6.05a9.66,9.66,0,0,0-4.7-.31c-1.53.41-2.9,1.89-2.62,3.45" style="fill:#324001"/><path d="M112.55,330.23a8,8,0,0,0-4-1c-1.3,0-3,1.08-2.38,2.26.88,1.8,4-.88,5.56.3a17.5,17.5,0,0,1,1.63,6.69,7.62,7.62,0,0,1-7-1.21,9.61,9.61,0,0,0,4.41,9.83c-.67-3.1,3.21-6.08,6-4.63a35.37,35.37,0,0,0-1-10.15l3.14-.23a9.24,9.24,0,0,0,.33-4,3.16,3.16,0,0,0-2.69-2.64c-2.6-.1-3.89,3.89-6.49,3.88" style="fill:#324001"/><path d="M49,328.66a6.18,6.18,0,0,1-8.18-5,2,2,0,0,1-2.86,0,5.64,5.64,0,0,1-1.25-2.95l-1-4.62a1.54,1.54,0,0,0-2.25.2,4.5,4.5,0,0,0-.79,2.42,13.26,13.26,0,0,0,.06,5.29,4.54,4.54,0,0,0,3.66,3.43c1.07.09,2.15-.34,3.19-.13a4.74,4.74,0,0,1,2.87,2.6,9.36,9.36,0,0,0,2.29,3.22c1.08.79,2.88.77,3.5-.41l.28-3.19" style="fill:#324001"/><path d="M58.82,348.5c5,2.74,8.55,7.4,12,11.92,1.41-2-.62-4.65-2.53-6.23s-4.06-4-2.86-6.17c3.67-6.66.73-4.22-4.86-5.48-3.32-.75-5.69-3.43-8.81-4.27C49.41,343.42,55.1,346.45,58.82,348.5Z" style="fill:#324001"/><path d="M40.93,372.91c-2-1.76-5.24,3.12-7.36,1.45-1.12-.89-.55-2.69.22-3.89s1.69-2.7,1-3.94c-.94-.2-1.59.86-2.2,1.61-1.89,2.29-5.47,2.23-8.25,1.19a5.19,5.19,0,0,1-2.72-1.91,2.25,2.25,0,0,1,.46-3c1.09-.68,2.47.05,3.74.26,3.21.54,6.18-3.25,5-6.3a15.68,15.68,0,0,1,7.93,4.3,3.49,3.49,0,0,1,3.46-.53,8.9,8.9,0,0,1-1.94.73c-2.32,1.95-1.14,5.67.21,8.38l.95,1.92" style="fill:#324001"/><path d="M123,360.52c-.06-2-3.17-2.58-4.61-1.19s-1.59,3.63-1.54,5.64a3.38,3.38,0,0,0,.47,2,3.47,3.47,0,0,0,1.74,1l7.37,2.59-.13-3.54a10.61,10.61,0,0,1-4.42-.6,3.64,3.64,0,0,1-2.32-3.51c.2-1.48,2.17-2.57,3.33-1.61" style="fill:#324001"/><path d="M31.84,416.05c-.92,1.42-.08,3.4,1.25,4.44s3,1.47,4.55,2.2c2.68,1.28,4.8,3.48,7,5.49a5.54,5.54,0,0,0,2.5,1.53,2,2,0,0,0,2.34-1.28,2.89,2.89,0,0,0-.78-2.17l-5.06-7,6.53,1.14a7.3,7.3,0,0,0-1.27-5.77c-1.31-1.54-3.94-2-5.38-.61a6,6,0,0,1-1.14,1.11c-1.66.9-3.33-1.7-5.22-1.57a6.4,6.4,0,0,0-1,5,18.76,18.76,0,0,0-6.25-2.64,2.63,2.63,0,0,0,1.13,1.68" style="fill:#324001"/><path d="M58.87,428.89c.6-2.07,3.24-2.93,5.32-2.37s3.71,2.12,5.29,3.58,3.32,2.94,5.45,3.27c.85-1.19-.09-2.8-1-3.93-2.21-2.71-4.73-5.52-8.14-6.3s-7.7,1.63-7.42,5.12" style="fill:#324001"/><path d="M100.35,450.86c.2,2.32,2,4.11,3.76,5.67l6.22,5.65c1.47,1.33,3.7,2.71,5.23,1.46a6.51,6.51,0,0,0,.58-5c-2.18.44-4.59.84-6.49-.32a8.62,8.62,0,0,1-2.47-2.66c-2.56-3.74-5.32-7.92-9.7-9.07a1.48,1.48,0,0,0-2.09,1.07,9.8,9.8,0,0,0,1.27,9.24c1.19-.66,1.09-2.35,1.4-3.68s2.3-2.45,2.83-1.2" style="fill:#324001"/><path d="M101.15,427.66c.51-2.51,1.69-5.62,4.25-5.68,1.67,0,3,1.32,4.26,2.37s3.27,1.85,4.53.76l-2.69-6.68c1.4-1.11,3.46.07,4.61,1.44s2.27,3.09,4,3.28a12.09,12.09,0,0,0-.71-6.13,2.55,2.55,0,0,0-.78-1.16,3.07,3.07,0,0,0-1.59-.38,14.62,14.62,0,0,1-11-6.58c-.81,1.42-.44,3.19-.45,4.83s-.82,3.61-2.45,3.71c-1.06.07-2-.72-3.05-.85-2.28-.28-3.8,2.74-3,4.9S100,425,102,426.2" style="fill:#324001"/><path d="M157.88,401.84c-.39-1.16-2.24-1.1-3-.15a5.19,5.19,0,0,0-.74,3.52,2.63,2.63,0,0,0,.49,1.77,2.57,2.57,0,0,0,1.29.6l7.17,1.81c1-1.74-1.45-3.33-2.46-5.05-.68-1.14-.73-2.57-1.38-3.74s-2.47-1.88-3.25-.8l-.16,1.93" style="fill:#324001"/><ellipse cx="83.15" cy="299" rx="4" ry="6" style="fill:#d91a60"/><ellipse cx="116.77" cy="318.88" rx="5.04" ry="4" transform="translate(-222.43 302.64) rotate(-67.15)" style="fill:#d91a60"/><ellipse cx="45.15" cy="305" rx="6" ry="4" transform="translate(-253.44 228.14) rotate(-67.15)" style="fill:#d91a60"/><ellipse cx="123.15" cy="447" rx="6" ry="4" transform="translate(-336.59 386.87) rotate(-67.15)" style="fill:#d91a60"/><ellipse cx="65.15" cy="414" rx="4" ry="6" transform="translate(-87.49 23.69) rotate(-12.42)" style="fill:#d91a60"/><ellipse cx="23.15" cy="318" rx="4" ry="6" transform="translate(-250.79 154.85) rotate(-55.06)" style="fill:#d91a60"/><ellipse cx="60.35" cy="322.28" rx="3.89" ry="5.41" transform="translate(-238.41 187.18) rotate(-55.06)" style="fill:#d91a60"/><ellipse cx="90.15" cy="338" rx="6" ry="4" transform="translate(-257.52 376.69) rotate(-81.42)" style="fill:#d91a60"/><ellipse cx="141.22" cy="365.2" rx="4.67" ry="3.26" transform="translate(-240.97 450.32) rotate(-81.42)" style="fill:#d91a60"/><ellipse cx="168.94" cy="391.03" rx="5.12" ry="3.41" transform="translate(-227.02 233.99) rotate(-45)" style="fill:#d91a60"/><ellipse cx="172.65" cy="408.6" rx="4.71" ry="3.14" transform="translate(-123.8 78.63) rotate(-19.03)" style="fill:#d91a60"/><ellipse cx="109.12" cy="388.34" rx="4.6" ry="3.06" transform="translate(-242.63 190.9) rotate(-45)" style="fill:#d91a60"/><ellipse cx="56.15" cy="369" rx="4" ry="6" transform="translate(-305.69 277.42) rotate(-67.15)" style="fill:#d91a60"/><ellipse cx="96.01" cy="392.3" rx="3.13" ry="4.7" transform="translate(-302.78 328.41) rotate(-67.15)" style="fill:#d91a60"/><ellipse cx="21.01" cy="415.3" rx="3.13" ry="4.7" transform="translate(-369.85 273.37) rotate(-67.15)" style="fill:#d91a60"/><ellipse cx="34.15" cy="347" rx="6" ry="4" transform="translate(-314.07 364.88) rotate(-87.32)" style="fill:#d91a60"/><ellipse cx="24.15" cy="388" rx="6" ry="4" transform="translate(-364.56 393.97) rotate(-87.32)" style="fill:#d91a60"/><ellipse cx="20.73" cy="349.48" rx="3.12" ry="4.73" transform="translate(-171.96 57.19) rotate(-30)" style="fill:#d91a60"/><ellipse cx="13.84" cy="365" rx="2.9" ry="3.7" transform="translate(-309.18 194.49) rotate(-60)" style="fill:#d91a60"/><ellipse cx="50.84" cy="442" rx="2.9" ry="3.7" transform="translate(-393.05 472.12) rotate(-87.32)" style="fill:#d91a60"/></g><g id="Box_of_elotes" data-name="Box of elotes"><g id="elote"><path d="M397.7,448.85c-4.4,7.82-10.21,13.09-13.82,12.83a2.82,2.82,0,0,1-1-.24,1.27,1.27,0,0,1-.23-.12c-3.36-1.89-2.11-10.47,2.78-19.21l.07-.13c4.94-8.78,11.68-14.36,15.05-12.47,3.21,1.81,2.21,9.74-2.16,18.06C398.17,448,397.94,448.42,397.7,448.85Z" style="fill:#fbb03b"/><path d="M383.88,461.68a20.37,20.37,0,0,0,1.79-2.67,19.26,19.26,0,0,0,2.35-6.89h0c.53-4-.38-7.64-2.6-10-4.89,8.74-6.13,17.32-2.78,19.21a1.27,1.27,0,0,0,.23.12Z" style="fill:#4a7573"/><path d="M383.88,461.68c3.61.26,9.42-5,13.82-12.83.24-.43.47-.85.69-1.28-3.47-.28-7.29,1.41-10.36,4.55h0a20.16,20.16,0,0,0-5.14,9.32Z" style="fill:#4a7573"/></g><g id="elote-2" data-name="elote"><path d="M342,442.64c3.55,8.24,4.23,16.06,1.84,18.77a2.9,2.9,0,0,1-.8.65,1,1,0,0,1-.24.11c-3.53,1.53-9.6-4.66-13.6-13.85l-.06-.13c-4-9.25-4.35-18-.8-19.53,3.38-1.46,9.08,4.14,13.06,12.66Z" style="fill:#fbb03b"/><path d="M343.87,461.41a21.48,21.48,0,0,0-1.05-3,19.28,19.28,0,0,0-4.05-6h0c-2.82-2.82-6.3-4.33-9.53-4,4,9.19,10.07,15.38,13.6,13.85a1,1,0,0,0,.24-.11Z" style="fill:#4a7573"/><path d="M343.87,461.41c2.39-2.71,1.71-10.53-1.84-18.77l-.6-1.32c-2.33,2.59-3.3,6.65-2.67,11h0a20,20,0,0,0,4.3,9.73Z" style="fill:#4a7573"/></g><g id="elote-3" data-name="elote"><path d="M358.6,445.42c0,9-2.48,16.42-5.75,18a2.94,2.94,0,0,1-1,.28h-.26c-3.85,0-7-8.09-7-18.11v-.14c0-10.08,3.13-18.25,7-18.25,3.68,0,6.7,7.4,7,16.8C358.59,444.45,358.6,444.93,358.6,445.42Z" style="fill:#fbb03b"/><path d="M352.85,463.38a21,21,0,0,0,.25-3.21,19.32,19.32,0,0,0-1.33-7.15h0c-1.48-3.71-4.07-6.47-7.17-7.45,0,10,3.15,18.11,7,18.11h.26Z" style="fill:#4a7573"/><path d="M352.85,463.38c3.27-1.54,5.75-9,5.75-18,0-.49,0-1,0-1.45-3.16,1.45-5.66,4.8-6.8,9h0a19.53,19.53,0,0,0-.67,5.15,19.84,19.84,0,0,0,.76,5.49Z" style="fill:#4a7573"/></g><g id="elote-4" data-name="elote"><path d="M383,457.48c3.76,8.15,4.63,15.95,2.3,18.72a2.78,2.78,0,0,1-.78.67l-.23.12c-3.49,1.61-9.72-4.43-13.95-13.51l-.05-.13c-4.23-9.15-4.81-17.88-1.3-19.5,3.34-1.54,9.19,3.91,13.37,12.33C382.54,456.61,382.75,457,383,457.48Z" style="fill:#fbb03b"/><path d="M385.26,476.2a20.45,20.45,0,0,0-1.11-3,19.23,19.23,0,0,0-4.21-5.93h0c-2.9-2.75-6.41-4.17-9.64-3.76,4.23,9.08,10.46,15.12,13.95,13.51l.23-.12Z" style="fill:#4a7573"/><path d="M385.26,476.2c2.33-2.77,1.46-10.57-2.3-18.72-.21-.44-.42-.87-.64-1.3-2.26,2.64-3.13,6.73-2.38,11.06h0a20.23,20.23,0,0,0,4.54,9.62Z" style="fill:#4a7573"/></g><g id="elote-5" data-name="elote"><path d="M373.48,453.73c-1.68,8.81-5.51,15.66-9,16.56a2.78,2.78,0,0,1-1,.09,2.13,2.13,0,0,1-.25,0c-3.79-.72-5.34-9.26-3.49-19.1l0-.14c1.89-9.9,6.49-17.34,10.29-16.62,3.62.69,5.2,8.52,3.71,17.81C373.65,452.77,373.57,453.25,373.48,453.73Z" style="fill:#fbb03b"/><path d="M364.47,470.29a21.36,21.36,0,0,0,.85-3.1,19.54,19.54,0,0,0,0-7.27h0c-.76-3.93-2.79-7.12-5.65-8.66-1.85,9.84-.29,18.38,3.49,19.1a2.13,2.13,0,0,0,.25,0Z" style="fill:#4a7573"/><path d="M364.47,470.29c3.5-.9,7.33-7.75,9-16.56.09-.48.17-1,.24-1.43-3.38.83-6.46,3.65-8.37,7.61h0a19.17,19.17,0,0,0-1.63,4.93,20.05,20.05,0,0,0-.28,5.53Z" style="fill:#4a7573"/></g><g id="cage"><rect x="326.65" y="456.5" width="70" height="42" style="fill:#754c24"/><line x1="317.99" y1="456.81" x2="404.2" y2="456.44" style="fill:none;stroke:#8c6239;stroke-linecap:round;stroke-miterlimit:10;stroke-width:7px"/><line x1="317.99" y1="470.81" x2="404.2" y2="470.44" style="fill:none;stroke:#8c6239;stroke-linecap:round;stroke-miterlimit:10;stroke-width:7px"/><line x1="317.99" y1="484.81" x2="404.2" y2="484.44" style="fill:none;stroke:#8c6239;stroke-linecap:round;stroke-miterlimit:10;stroke-width:7px"/><line x1="317.99" y1="498.81" x2="404.2" y2="498.44" style="fill:none;stroke:#8c6239;stroke-linecap:round;stroke-miterlimit:10;stroke-width:7px"/><line x1="325.9" y1="454" x2="326.28" y2="500.73" style="fill:none;stroke:#8c6239;stroke-linecap:round;stroke-miterlimit:10;stroke-width:7px"/><line x1="396.9" y1="454" x2="397.28" y2="500.73" style="fill:none;stroke:#8c6239;stroke-linecap:round;stroke-miterlimit:10;stroke-width:7px"/></g></g><path id="Dirt" d="M-4.57,483.88c15.48,2.2,30.92,5.39,46.21,2.75,15.94-2.76,30.55-11.74,46.7-12.75,28.69-1.81,55.58,21.78,83.77,16.13,13.64-2.74,25.43-12.13,39.25-13.78,29.22-3.49,53.91,28.17,83.17,25,8.54-.93,16.43-4.8,24.56-7.58a98.4,98.4,0,0,1,39.27-5c6.49.5,14.35,3,15.45,9.39,1.55,9.12-11.19,12.93-20.44,12.94-33,0-66.15.06-98.85-4.51-13.5-1.89-27.05-4.56-40.65-3.66-12.71.85-25,4.8-37.74,5.83-17,1.38-34-2.54-50.95-4.41C82.31,499.56,39,507.85-4.08,510.5" style="fill:#42210b"/><g id="Farmer_1" data-name="Farmer 1"><g id="elote-6" data-name="elote"><path d="M148,234.64c3.55,8.24,4.23,16.06,1.84,18.77a2.9,2.9,0,0,1-.8.65,1,1,0,0,1-.24.11c-3.53,1.53-9.6-4.66-13.6-13.85l-.06-.13c-4-9.25-4.35-18-.8-19.53,3.38-1.46,9.08,4.14,13.06,12.66C147.63,233.76,147.83,234.19,148,234.64Z" style="fill:#fbb03b"/><path d="M149.87,253.41a21.48,21.48,0,0,0-1.05-3,19.28,19.28,0,0,0-4-6h0c-2.82-2.82-6.3-4.33-9.53-4,4,9.19,10.07,15.38,13.6,13.85a1,1,0,0,0,.24-.11Z" style="fill:#4a7573"/><path d="M149.87,253.41c2.39-2.71,1.71-10.53-1.84-18.77-.2-.45-.4-.88-.6-1.32-2.33,2.59-3.3,6.65-2.67,11h0a20,20,0,0,0,4.3,9.73Z" style="fill:#4a7573"/></g><path d="M200,429.31c.07-8.28-10.55-14.83-8.11-22.74.82-2.67,3-4.66,4.46-7.05,3.15-5.18,2.59-11.73,1.78-17.74s-3.54-13.62-2.75-19.6,4.26-12.07,5.28-18.25a48.06,48.06,0,0,0,20.61,2.26c1.94-.21,3.86-.54,5.81-.67,8.18-.53,16.18,1.93,24-1.47,1.67,4,1.2,10.73,2.36,15.32,1.63,6.49,2.5,13.33.38,19.82-2.74,8.39-.5,16.3-.25,25,.18,6.58,5,11.07,6,17.83,1.19,7.52-3.83,14.93-2.93,22.5s7.77,14,7.48,21.78a3.9,3.9,0,0,1-.67,2.32,4.63,4.63,0,0,1-2.61,1.29c-6.58,1.64-14.91,2.71-18.92-2.77-3.6-4.93-1.15-11.93-2.6-17.86-.86-3.54-3.12-6.64-3.85-10.21-1.47-7.12-.15-15-1.27-22.31-1.47-9.6-5.55-18.3-9.84-26.92a2.72,2.72,0,0,0-1.25-1.45c-1-.36-2,.47-2.47,1.36-2,3.54-.22,7.93,1.32,11.71,3.13,7.65,2.59,24.48.69,32.27-1.83,7.51-6.69,13.57-7.88,21.39-.54,3.53-.48,13.24-4.54,14.75a6.19,6.19,0,0,1-3.46-.12c-10.73-2.47-14.44-6.29-13.49-17.13.32-3.77.27-7.31,1.59-10.89C196.42,437.49,199.91,434.1,200,429.31Z" style="fill:#c1272d"/><path d="M213.14,469.22l-2.46,19.54a4.34,4.34,0,0,1-.88,2.52,4.38,4.38,0,0,1-2.82,1l-19.32,1.88c-1.56.16-3.26.28-4.59-.54-2.61-1.61-2.06-5.86.2-7.92s5.46-2.63,8.43-3.38a7.44,7.44,0,0,0,3-1.32c5.35-4.48-.75-14.55,4.44-19.35C205.67,455.6,214.12,461.43,213.14,469.22Z" style="fill:#253659"/><path d="M262.82,483.12c0,2.24.11,4.82,1.91,6.15a8.49,8.49,0,0,0,2.55,1.08,20,20,0,0,1,5.13,2.55c1.69,1.17,3.34,3,3,5-.28,1.85-2.1,3.08-3.88,3.64-6.25,2-13-1.61-17.43-6.47-5.15-5.72-12.64-21.11-6.36-28.45,2.39-2.79,10.26-4.08,13.3-1.92C265,467.54,262.88,478.34,262.82,483.12Z" style="fill:#253659"/><path d="M197.27,339.25c-.79,2.62.83,5.5,3.13,7s5.13,1.9,7.85,2.19A130.47,130.47,0,0,0,250.32,346c5.36-1.21,11.51-3.59,12.84-8.93.63-2.49,0-5.11-.61-7.61l-21.2-86a33,33,0,0,1-28.23-3.45c-3.66,5.87-4.14,13.1-5.64,19.87-2.2,9.9-6.73,19.1-10.06,28.68-4.36,12.56-6.64,25.95-5.61,39.2.61,7.91,3.41,17,10.86,19.69" style="fill:#f4dfc7"/><path d="M142.75,259.6c-3.13-3.23-7.76-5.31-9.36-9.51a3.1,3.1,0,0,1-.25-1.34,2.68,2.68,0,0,1,.43-1.17,4.48,4.48,0,0,1,6.65-.72,16.21,16.21,0,0,1,2.11,3.58,9.07,9.07,0,0,0,3.44,3.35c1.39.75,3.49.93,4.22-.48.65-1.26-.24-3.15.86-4.05a1.84,1.84,0,0,1,1.29-.35,3.86,3.86,0,0,1,3,2.24,10.42,10.42,0,0,1,.9,3.79,20.62,20.62,0,0,1-.08,6.79c-.55,2.46-2.81,6.49-5.88,5.76C147.17,266.8,144.7,261.61,142.75,259.6Z" style="fill:#754c24"/><path d="M205.3,322.87C211,298.6,216.77,274.18,218,249.28c.18-3.58.25-7.25-.92-10.63s-3.84-6.46-7.35-7.14c-2.37-.46-5.45.94-5.29,3.34.68,9.79-8.16,5-14.36,10.83-3,2.81-5.09,6.41-7.15,10l-8.61,14.86c-7.47,12.89-8.49-9.42-16.15-8.44-.67.08-11.5,5.94-11.38,5.22-.9,5.35,2.31,10.44,5.37,14.92A78.4,78.4,0,0,0,165,296.51c1.31,1.19,2.77,2.45,4.54,2.58,7.56.57,8.9-16,14.73-14-.33,7.61-1.84,15.2-2.91,22.73-1.29,9-7.19,17.27-5.7,26.66,1.16,7.31,11.56,17.53,19.69,13.95C202.26,345.4,203.84,329.05,205.3,322.87Z" style="fill:#72849d"/><path d="M237.09,264.69c3.94,26.1,8,52.58,18.9,76.62,3.33,7.33,12.92,6.65,17.22,0,5.06-7.88-2.49-15.15-1.75-23,14.71,1.18,18.42-13.65,18.32-25.64-.12-14.84-3.73-30.1-12.9-41.77-7.52-9.59-19.57-16.71-32-16.75C229.46,234,235.54,254.43,237.09,264.69Z" style="fill:#72849d"/><path d="M266.73,303.18c.23.65.62,1.4,1.3,1.42a1.77,1.77,0,0,0,1.23-.71c2.25-2.37,4.42-4.95,5.42-8.06,1.37-4.27.32-9-1.95-12.9s-5.61-6.89-9-9.74C261.68,281.89,263.79,294.87,266.73,303.18Z" style="fill:#253659"/><path d="M233.61,245.94a4.17,4.17,0,0,0,1.08-3.2,128.33,128.33,0,0,0-.87-20.92,2.24,2.24,0,0,0-.47-1.34c-.61-.65-1.68-.37-2.53-.08a35.27,35.27,0,0,1-13,1.85c-.28,0-.17,18.26,1.13,20.47C221.2,246.46,230,248.9,233.61,245.94Z" style="fill:#754c24"/><path d="M228.4,229.26c4.52-2.87,7-8.06,8.71-13.13a81,81,0,0,0,3.69-16c.34-2.72.46-5.74-1.2-7.92s-4.88-2.89-7.73-3.34L223,187.42c-3.66-.57-8-.9-10.43,1.92-1.35,1.58-1.67,3.78-1.91,5.85-.63,5.38-1.06,10.79-1.3,16.2C208.9,220.73,217,236.48,228.4,229.26Z" style="fill:#754c24"/><path d="M235.84,203.54c.36.08.73,0,1.09.05,1.34.19,1.83,1.8,2.36,3,.24.54.82,1.14,1.31.81a1.13,1.13,0,0,0,.35-.76c.68-3.93,1.29-8.27-.78-11.68s-10.81-9.24-11.5-1.87c-.28,3,1.59,2.69,3.55,3.92,1.77,1.1,1.55,1.31,2.15,3.26C234.71,201.4,234.2,203.21,235.84,203.54Z" style="fill:#1a1a1a;stroke:#1a1a1a;stroke-miterlimit:10"/><path d="M232.86,193.2c3.49,1.07,6.43,3,8,5.69a6.27,6.27,0,0,1-.1,6.37c-6.08,9.67,9.63,6.55,13.86,3.28,3.8-2.95,5.91-8.19,4.55-12.81-2.43-8.24-12.15-12.51-19.56-15-10.14-3.47-35.61-9.25-42.21,3.41-4,7.64,2.68,17.25,10.45,18.9,1.22.26,2.29-10.19,2.35-10.82a2,2,0,0,1,2.74-2.33C219.55,190.78,226.5,191.25,232.86,193.2Z" style="fill:#dda060"/><path d="M216.62,184a19,19,0,0,1,16.09-13.47c6.78-.64,19.62,7.44,18.87,15.25a8,8,0,0,1-4.29,6.25" style="fill:#dda060"/><path d="M243.19,181.94a8,8,0,0,1-6.4-6.16,13.68,13.68,0,0,1,10.49,5.65" style="fill:none;stroke:#a67c52;stroke-miterlimit:10"/><path d="M226.85,217.12c2.11-1.26,4.11-2.81,6.52-2.86a3.42,3.42,0,0,1,3,1.38c1.69,2.74.09,6.22-2,8.18A17.53,17.53,0,0,1,229.1,227a41.67,41.67,0,0,1-7.16,2.27c-2.43.54-5.05.84-7.32-.18-3.68-1.66-5.3-6.23-6.21-9.87-.46-1.83-1.5-7.95.51-9.17,1.62-1,3.1,1.06,3.72,2.34,1.39,2.87,1,5,4.84,6.14a11.14,11.14,0,0,0,7.75-.51A15.86,15.86,0,0,0,226.85,217.12Z" style="fill:#1a1a1a;stroke:#1a1a1a;stroke-miterlimit:10"/></g></g></g></svg>