<svg xmlns="http://www.w3.org/2000/svg" viewBox="0 0 270 340"><g id="milpa-mobile"><g id="MIL"><path d="M36.84,38.79S56,33.52,56,35.07s5,7.74,8.05,1.24S85.46,30.89,91,30.89s-1.86,38.55-1.86,47.68A13.21,13.21,0,0,0,96.76,90.8s-.31,23.84-1.71,25.08-6.19.93-15.63-3.56S68.89,78.57,69.2,74.55s-7.59-2-11-1.4-.31,25.7-.31,27.56-12.54,12.85-12.54,12.85-7-1.55-9.13-4S37.31,39.1,36.84,38.79Z" style="fill:#fff"/><path d="M127.56,43.12c.16-5.42-.77-11.15-.93-16.72a3.17,3.17,0,0,1,4-2.63c4-4.18,13.93-4.18,18.89-4.18,1.54.62,3.56-1.7,4.18-.15,0,4.79-1.09,16.41-1.09,16.41-.93,14.39,1.09,25.23,2,39.32.62,8.82.47,17.65.47,26.47,0,2.17-2.17,6-2.79,8.21-1.24,3.87-5,6-8.67,7.43-3.25,1.23-9,.62-13.93-.78C128.8,98.23,126.94,62.32,127.56,43.12Zm8.21-30.65a5.1,5.1,0,0,1,1.08-1.7c3.25-2.48,6.81.77,4.49,4a2.28,2.28,0,0,1-.62.93c-.15.31-.31.31-.31.31C138.24,17.73,134.84,16,135.77,12.47Z" style="fill:#fff"/><path d="M180.82,15.56c-.62,0,28.17-6.81,26.31-4s-8.36,72.61-6.81,72.61,32.51,0,33.44,1.85-.62,14.09-.62,14.09-9.13,16.72-11.3,18.58-40.71.31-43.19-.31S181.44,15.56,180.82,15.56Z" style="fill:#fff"/><path d="M35.33,87.41C34.87,76,34.56,65,35.8,53.51c0-3.87.62-13.31,1.23-15.33v-.77a31.23,31.23,0,0,0,8-5.26c5.42-4.18,17-12.54,17-.62.62,1.7,1.86,3.71,2.48,5.26a16.34,16.34,0,0,1,2-4c5.42-3.72,9.29-8.36,15-8.36,2.17,0,7.43.92,10.53.46,1.7-.15,3.09-.31,4.8.62-.16,20.28-6,37-1.09,57,1.4,6.66,5.11,3.56,7.74,7.28-1.7,8.05-6.19,19.35-6.34,27.09-12.54,2.32-17-3.25-21.83-9.91-3.87-5.42-5.88-23.22-5.88-35.76V64.81a29.36,29.36,0,0,1-2.64,5.42c-2.16,2.94-7.12,2.48-10.21,1.24a13.34,13.34,0,0,1-.62,2.63c-2.48,8.51,2.94,17.65,1.85,26-.46,3.25-9.44,11.3-10.83,14.86l-9.76-4.64a5.56,5.56,0,0,0-.92-.31C38.43,102.74,36,94.84,35.33,87.41ZM46.63,113c1.71-9-2-42.58,3.1-54.81,5.11,3.57,4.8,6.82,6.5,10.69,7.9,6,11.15-3.1,14.55-8.52.31.31.93.47.93,1.4-1.39,8.51-.62,16.72.78,25.23.62,5.57,1.08,11.46,3.09,16.72,1.24,2.48,8.21,10.22,12.23,11.46a17.7,17.7,0,0,0,7.59.3c.46-1.7-.93-11.3-1.09-14.39-2.32,0-3.09-.16-4-.93v.15C85.65,97.17,85.8,89,85.8,83.54,86,66.05,84.25,50.1,88.28,34.16,86.57,34,82.86,34,79,34c-5.26,0-11,.16-11.77.47-3.09,6-4.64,16.87-7.74,22.29a1.56,1.56,0,0,1-1.39-.46c-2.32-6-1.7-12.7-3.87-18.74C50.5,38.8,42.61,40,38.89,39.27c1.24,18.27-3.71,36.69-.46,55,.15,3.25,1.86,11.45.15,15a.57.57,0,0,1,.16.47C38.74,110.33,45.86,112.65,46.63,113Z" style="fill:#d91a60"/><path d="M127.44,111c-1.24-12.85-1.39-68.28-1.7-72.61a72.53,72.53,0,0,1,.46-8.52v-.15a24.8,24.8,0,0,1,2.17-4.8C133.48,14.65,144,21,152.52,17.75c.47,15,.62,30.5,1.7,45.36.93,14.09,2,29.26-.61,43.19-.78,3.72-3.26,4.65-5.89,7.43-.77,7.12-9.6,3.56-15.17,4.49C127,118.69,127.44,117,127.44,111Zm11,5.57a11.52,11.52,0,0,0,3.26.15,1.12,1.12,0,0,0,1.08-.62c6-16.87,4.33-35.14,2.94-52.63-1.24-12.54-1.08-25.24-.77-37.78-3.41,1.24-6.35.62-9.91,1.4a7.32,7.32,0,0,0-3.72,1.7,10.53,10.53,0,0,1-3.25,1.55c-1.24,26.78,0,53.25,1.09,79.73,0,2.16-.78,4.33,0,6.5C132.09,117.6,135.65,115.43,138.43,116.52ZM134.87,11.09a55.24,55.24,0,0,1,5.73-6.35c10.22-9.75,16.72,9.29.62,12.85h-.46C136.42,18.52,133,13.72,134.87,11.09Zm6.2-.62C137.81,9.85,136,12,136.27,14a5.69,5.69,0,0,0,4.49,1.55A5.94,5.94,0,0,0,141.07,10.47Z" style="fill:#d91a60"/><path d="M180.23,77.51c-.15-20.13.78-39.79.47-60.23a1.4,1.4,0,0,1,.46-1.23C190,8.15,198,7.22,209.34,6.14a4.34,4.34,0,0,1,.93.46C208.1,31.37,203,56.45,203,81.38c10.22,2.63,21.52-2.64,31.74.31.46.31.46.46.77,1.08-1.08,5.11,1.55,16.41-1.24,22-2.48,4.8-7.12,9-10.37,13.47-12.69,2-30.81-.62-43.81-1.24C178.68,117.29,180.54,86.79,180.23,77.51Zm42.11,40.09c0-.15.31-.46.31-.62-1.39-3.09-.77-10.68-.62-15.17-1.08.16-2.63.16-4.33.47-6.66.92-22.45,5.72-23.69-3-1.7-22.6-.31-47.52,1.08-65.79a132.75,132.75,0,0,0,1.24-15.48,28.41,28.41,0,0,0-5.11-.47c-1.54,0-3.09.16-4.64.16h-4c0,32.82-1.23,65.17-1.08,98C194.94,116.05,209,117.14,222.34,117.6Z" style="fill:#d91a60"/></g><g id="PA"><path d="M47.78,251.39c-.43-23.19-8.16-95.77-9-102.64s35.43-4.3,45.53,2.15,19.54,10.95,17.82,17.39-16.54,21.69-21.26,23-4.29,73.44-4.29,73.44-10.31,11.81-17.4,9.66S48.21,274.59,47.78,251.39Z" style="fill:#fff"/><path d="M155.58,244.31c3.65-4.73,7.08-38,9.23-55s12-45.52,11.17-45.52,36.93,75.59,38,78.38,10.52,44.67,8.59,47.46-15.25,2.57-16.54,0-8.59-26.63-9.66-28.13-8.59,2.14-10.09,5.37-15.68,19.54-17,20-21.47,4.93-23.83,4.93S151.93,249,155.58,244.31Z" style="fill:#fff"/><path d="M50.62,265.81C50,245,48.26,225,46.33,204.6c-1.94-19.54-3-38.65-3.65-58.19,8.37-7.73,20.18-16.53,27.7-16.53,8.59,0,27.91,8.37,38.44,13.31,11.38,6.66,11.81,10.52,8.16,21-3.87,11-23.84,17.61-33.07,22.55,0,.86-.22,1.5-.22,2.36-2.36,21.69,5.58,41.88,5.16,64L77,270.74c0,3-9.23,4.51-16.32,4.51a21.35,21.35,0,0,1-7.51-1.07C50.62,272.46,50.62,268.38,50.62,265.81Zm7.73,7.3c2.79,0,5.59-.22,7.95-.43,5.8,0,7.51-1.29,7.51-5.37C73,257.43,72.1,248,71,238.1c-1.72-17-3.22-33.5-3.22-50.46,0-3.22,7.52-1.29,9.88-1.72,7.51-1.29,18.47-8.37,25.12-12.88,3-3,2.15-11.17-.64-14-7.3-7.52-27.7-15.68-43.16-15.68-5.59,0-10.53,1.08-14,3.44.21,19.76,2.15,42.73,3.86,62.06,1.72,18.68,3.65,37.79,3.87,56.91C52.77,269.46,54.06,273.11,58.35,273.11ZM67.8,175a16.71,16.71,0,0,0-.86-4.51c-.64-3.43-1.29-6.44.22-9.88,3-7.08,11.16,3.22,11.16,9.24,0,0-.43,0-.43.21l-3,2.79c-1.72,1.72-3.44,3.44-7.09,4.08Z" style="fill:#d91a60"/><path d="M145.1,270.74c-2.36.43-2.36-1.5-2.14-1.71,3.22-5.59,11.81-20,14.6-30.07,3.65-13.53,6-29.63,7.95-44.45,1.5-11.59,3.65-26.2,6.44-36.93A134.86,134.86,0,0,0,176,137c2.79-1.72,4.29-4.72,5.8-7.94,2.14-4.08,3.86-8.16,7.3-8.16a1.12,1.12,0,0,0,.86.43c13.74,26.41,20,55.4,31.13,82.46,2.79,7.08,11.81,23.62,10.53,28.34-3.66,12.67-3.66,27.06-3,39.3-2.15,2.36-4.08,2.15-6.44,1.93-8.38-.86-13.53,4.08-17.61-6.23-2.79-6.87-4.73-15-6.87-22.54-.86-3-1.72-6.23-3.44-8-.43-.43-2.15-.21-3.65,0a52.22,52.22,0,0,1,.21,6.87,157.93,157.93,0,0,1-16.1,20,7.22,7.22,0,0,0-3.65,3Zm24.27-6.22c.86-3.44,1.07-6,1.72-9.24.64-3,1.07-6.65,2.36-12.24,2.79-11.16,18.25-12.45,22.55-8.16,3.86,4.3,5.37,11.17,7.08,18.47,1.51,6.87,3.23,14,6.45,18.25a38.46,38.46,0,0,0,9.87-.21c1.29-.22,6,0,6.88-.86,0-6.23-5.59-10.52-7.3-17-3.66-13.1-11.17-26.2-16.11-39.3-3.87-11-8-22.55-11.81-33.72-4.51-13.52-7.95-24.26-13.53-37.58-.86,5.16-2.15,11-3.22,15.68-3.44,12-4.94,24-6.44,36.29-1.94,15.46-3.87,30.49-8,44.88a148.24,148.24,0,0,1-8.8,21.26l-.22.22c-2.36,3.22-1.07,2.79-4.51,7.08A150.87,150.87,0,0,0,169.37,264.52Zm6.87-41.66c-1.5-.86-1.5-1.72-1.07-2.36l.43-29.21,1.5-1.29c1.93.65,1.93,2.15,2.36,3.44A74.57,74.57,0,0,0,184,203.1c3.44,6.66,7.52,14.6,7.52,18.68l-1.07,1.08-13.32.21Z" style="fill:#d91a60"/></g><g id="Card_Game_Banner" data-name="Card Game Banner"><path id="Banner" d="M14.54,333.9a7.89,7.89,0,0,0,2-.78c1.72-.48,6.9-2.43,7.47-2.52,1.44-.39,6.62-1.85,7.77-2a28,28,0,0,0-3.45-.59c-1.15-.19-3.74-.48-4.32-.48s-4.31-.2-5.17-.29c-.58-.39-2-1.85-1.73-2.14a6.49,6.49,0,0,1-.86-.88,2.49,2.49,0,0,1,1.15-.77c0-.1.29-.39.57-.49a25.81,25.81,0,0,1,3.74-1.45l3.74-1.17c.86-.19,5.18-1.36,6-1.36l-.57-.58s-12.37-1.17-17.84-2a11.28,11.28,0,0,1-1.43-.2,9.51,9.51,0,0,1-1.16-.19c-.57.19-4-.49-4.6-.39s-2.3-.68-2.88-.78c0-.19-.86-.68-1.15-1.06-.28-.1-.28-.49,0-.69A3.28,3.28,0,0,1,3,312c0-.29.58-.77.58-.77L16,309.52l.58-.49c-1.44-.29-6.91-.68-8.35-.87a16.64,16.64,0,0,1-2-.78c-.58-.19-2-.48-2-.68,0,0-.57-.29-.86-.39v-.77a11.91,11.91,0,0,1,1.15-1.17,8.19,8.19,0,0,0,1.44-1.16,10.44,10.44,0,0,1,2.3-.88A36,36,0,0,1,12,301.26c.29-.19,5.18-.87,6.62-1.07l15.82-1.94,3.74-.1c1.15-.29,7.48-1.26,8.06-1.36.86,0,4.89-.48,5.46-.38.29-.1,5.75-.78,6.62-.78s4.31-.49,4.89-.49c1.44-.09,6.62-.48,7.48-.48a12.59,12.59,0,0,1,2.59-.2,32.06,32.06,0,0,1,3.74-.29c1.44-.19,8-.58,9.49-.58,1.44-.2,5.47-.39,6.33-.39.57-.19,7.77-.49,8.63-.49.58-.09,3.45-.38,3.74-.38.86.09,6.33-.1,6.9-.1.87.1,6.91-.49,8.92-.49.29,0,5.47-.29,5.76-.38,2,0,9.78-.39,10.93-.59,1.72,0,8.34-.19,9.49-.19a49.6,49.6,0,0,1,5.47,0h2.87a34.24,34.24,0,0,1,3.46-.2c1.43.1,7.48.1,8.91.1,1.73.1,9.78.1,11.51.1,1.15-.1,7.19-.1,8.34-.29a35,35,0,0,0,4.61-.2c1.72.1,9.2,0,10.64-.1a27.72,27.72,0,0,1,2.88.1c2.3,0,16.11.59,17.83.68.87,0,9.79.29,10.94.29l8.91.39c.58.1,5.76.39,6.33.49.58-.1,4.6.19,5.47.19,0,0,1.15.2,2,.29a15.6,15.6,0,0,1,2,.29s.86.39,1.43.68c.29,0,1.15.3.29.3,0,0-.57.67-.86,1,0,.19-.58.77-.58.77s-4.6.88-6.33,1.17c-1.15.39-10.07,1.55-12.37,1.94L230.3,299.8c-.29.1-.86.2-.86.3h-.87s.58.29.58.38c.57.1,5.18.88,6.33,1.17.86.1,10.93,1.36,11.79,1.56s6.33,1.06,7.48,1.35a4.1,4.1,0,0,1,1.73.59s.86.29.86.39c-.29.09,0,.68,0,.87l-.29.19v.1c-.28.2-2,.68-2,1a48.14,48.14,0,0,0-5.47,1.56c-.86.19-5.75,1-6.61,1.07l-1.15.87,15.82,2.14a27,27,0,0,1,4,1.16c-.29,0,0,.78,0,.88l-.87.58a19.36,19.36,0,0,1-2.3.58c0,.2-1.72.58-1.72.58s-.29.1-.29.2v.1c-.29.19,1.44,1.16,1.44,1.45l8.34,2.24c.29.19,2.59.87,2.59,1a2.17,2.17,0,0,1-.29,1.16v.1l-.29.19a14.08,14.08,0,0,1-3.16.49,14.57,14.57,0,0,1-2.3.49c-.58,0-3.45.19-3.45.19-.29,0-2,.39-2.31.39-.57.1-4.89-.1-6-.1l-.86-.19c-.29,0-4.89-.2-5.18-.2-1.44-.29-11.5-.09-12.66-.19,0,0-5.46-.2-7.76-.2a32.41,32.41,0,0,0-3.46-.19c-1.72,0-7.48.29-8.92.19-1.72,0-9.49.3-11.5.3-1.44,0-7.19.48-7.77.39-1.72.19-8.34.48-9.49.38-.87.1-5.76.49-6.33.39-2.59.1-22.73.88-25,1.17-.86,0-8.34.29-8.92.39l-12.65,1c-2.31.29-21.87,1.07-23.88,1.16-.86.2-4.32.39-5.18.59s-5.75.58-6.33.58a10.28,10.28,0,0,0-1.73.29c-1.72.29-8.34.58-9.2.58-.29,0-4.89.49-5.18.49-3.45.29-11.22.87-11.51.78-1.15.19-10.07,1.74-11.22,1.74l-9.2,1.07c-1.44.2-11.22,1.46-12.08,1.65-2.59.2-10.07,1.17-10.36,1.27-1.44.09-5.18.48-5.46.48L18,338.66a14.28,14.28,0,0,1-1.72-.2,17.29,17.29,0,0,0-2.88-1.84v-.88c.29-.19.29-.87.29-1s.29-.39.29-.39A1,1,0,0,1,14.54,333.9Z" style="fill:#253659"/><g id="Card_Game" data-name="Card Game"><path d="M73.07,322s-.23-.33-.34-.41l-.22-.27c-.09-.23-.51-1-.55-1.07s-.08-.32-.12-.4a14.54,14.54,0,0,1-.36-2.59A13.2,13.2,0,0,1,72,313.6a2.14,2.14,0,0,1,.06-.46,8.37,8.37,0,0,0,.31-1.17l.54-1.21.19-.39c.46-1,.85-2,1.38-2.94l.43-.76s.12-.2.12-.2.69-.86.7-1A4.48,4.48,0,0,0,76,305s.12-.2.12-.23a4.33,4.33,0,0,1,.3-.41s.19-.33.25-.37a13,13,0,0,1,1.14-1.44l1.46-.8a2.8,2.8,0,0,1,.59.07c.14,0,1.43-.16,1.61-.16a1.66,1.66,0,0,0,.31.05A4.57,4.57,0,0,1,84.91,304l.1.08a10.36,10.36,0,0,1,.51,1.38c0,.06,0,.79,0,.87a1.74,1.74,0,0,1,0,.37c0,.05,0,.3,0,.33a2.57,2.57,0,0,1-.09.41c0,.06,0,.58,0,.6a6.79,6.79,0,0,1-.51.66l-.11.23a2.94,2.94,0,0,1-1.21.88c-.08,0-.39.21-.42.21l-1,.15a2.93,2.93,0,0,1-1.6-.36c-.43-.27-.84-.57-.88-1.05-.07-.66.3-1.44.75-1.24.53-.14.18-.24.68-.31a2.91,2.91,0,0,1,.49.2c.53.31.13,1.07.67,1.47a.77.77,0,0,0,1.13.05l.25-.38.08-.25s.1-.56.09-.62.1-.17.09-.2a1.63,1.63,0,0,0,.12-.44c0-.21,0-1.52,0-1.82a2.63,2.63,0,0,0-2-2l-.28-.05c-.26-.14-.29,0-.61,0l-1.19.18a4.25,4.25,0,0,0-.52.35,7.54,7.54,0,0,0-2.23,3.49,3.69,3.69,0,0,0-.1.38,6.52,6.52,0,0,0,0,.78s-.12.44-.11.47.2.55.17.74a9.2,9.2,0,0,1-.07.95s-.08.31-.07.34,0,.51,0,.58-.11,1.47-.09,1.62c0,.39.08,3.35.07,3.69l.17,1.7,0,.12,0,0c.06.59.12,2,.12,2l.15.19.92,1.68a1.71,1.71,0,0,0,.59.28l.18,0a2.82,2.82,0,0,0,.31.07l1.39-.21,1.11-.28a8.55,8.55,0,0,0,.86-.37s.24-.22.29-.26.14-.11.13-.17l1-.45a20.11,20.11,0,0,0,3.29-2.74c.26-.31,1.16-2.2,1.47-2.55l.09-.23c.05,0,0-.57,0-.61a1.22,1.22,0,0,1,.2-.45.81.81,0,0,1,.1-.35,1.12,1.12,0,0,1,.29-.29,4.82,4.82,0,0,1,.49,0,3.75,3.75,0,0,0,.39.18,7,7,0,0,1,.26.69c0,.06,0,.22,0,.22a2.2,2.2,0,0,1-.42.67l-.18.39a.37.37,0,0,0-.09.2,1,1,0,0,1-.22.15c-.14.11-1.24,2.28-1.31,2.38a.45.45,0,0,1-.12.26l-.2.28-.41.27-.73.81a2,2,0,0,1-.46.4s-.39.18-.45.22a4.22,4.22,0,0,0-.61.39L85,322l-.21,0c-.06,0-.19.15-.24.19l-.61.64a3.24,3.24,0,0,1-.47.28l-.36.42c-.14.05-1.16.17-1.21.21l-.63.46c-.09,0-.62.15-.7.2s-.25.16-.28.16l-.44.07a7.09,7.09,0,0,1-3.85-.34s-.07-.11-.1-.1a.91.91,0,0,0-.31-.2l-.56-.34a1.09,1.09,0,0,0-.23-.09C74.6,323.3,73.32,322.22,73.07,322Z" style="fill:#fff"/><path d="M87.24,318.3c0-.09.25-.82.24-.91a6.34,6.34,0,0,0,.19-.66l.69-1.45a5.51,5.51,0,0,1,.37-.8c.08-.13.58-.9.74-1.1l.54-.7,1.69-2.34a2.44,2.44,0,0,0,.21-.3l.11,0a3.46,3.46,0,0,0,.53.09,5.51,5.51,0,0,1,.74-.1,1.63,1.63,0,0,1,.26.09,1.27,1.27,0,0,1,.37.07l.53.17c.72-.3,1,1,.74,1l-.56,1.23c-.69,1.45-1.87,2.12-2.46,3.62l-.48,1.18c0,.13.51,1.35.48,1.39l0,.08a1.53,1.53,0,0,0,.93-.33,6.55,6.55,0,0,0,1.23-2.16l.43-1.32c.07-.17.27-1.37.31-1.53s.27-.73.26-.79l.09-.52s.24-.22.32-.29.31-.16.34-.16a1.48,1.48,0,0,1,.25-.16.25.25,0,0,1,.12,0,.46.46,0,0,1,.53.32,13.11,13.11,0,0,1-.06,1.4,23.4,23.4,0,0,0,.19,3.55,4.24,4.24,0,0,0,.36,1.61c.08.17.29.11.44.1l.32-.08a1.63,1.63,0,0,0,.46-.18s1.88-1.36,1.87-1.39,1.39-1.7,1.44-1.76.53-1.28.61-1.35a1.26,1.26,0,0,1,.83-.38,1.65,1.65,0,0,1,.79.74v.09a.68.68,0,0,1-.19.39,7.59,7.59,0,0,1-.68.57.7.7,0,0,1-.1.16L101.62,317a1.09,1.09,0,0,1-.21.27c-.1.13-2.19,2-2.31,2a1.72,1.72,0,0,1-1,.25l-.6.08a3.06,3.06,0,0,1-.4-.07c-.86-.31-1.14-1.58-1.31-2.37a2.29,2.29,0,0,1-.68,1.45l-.45.3c-.13.14-1.22,1.07-1.36,1.18a4.09,4.09,0,0,1-1.94.88l-.18,0c-.3,0-1.18-.06-1.25-.08s-1.09-.46-1.34-.58c-.07-.05-.54-.41-.68-.55a2.26,2.26,0,0,1-.69-1.36Z" style="fill:#fff"/><path d="M106.78,317c0-.06.07-.25.06-.28a2.36,2.36,0,0,0,.42-.59,7.36,7.36,0,0,0,.62-1.24c.07-.13.89-1.19.91-1.31s-.1-.29-.1-.35h-.3a1.54,1.54,0,0,0-.54.06s-.2.11-.2.14c-.23.09-1.13.7-1.27.72a4.67,4.67,0,0,1-.38.4c-.09,0-.94.8-1.08.85a3.13,3.13,0,0,1-1.84.3,1.13,1.13,0,0,0-.3-.24,6.14,6.14,0,0,1-.53-.4s-.24-.3-.25-.36a1,1,0,0,1-.24-.22c-.06,0-.18-.31-.18-.34a5.58,5.58,0,0,1-.13-.89,17.63,17.63,0,0,1,.36-1.91l.64-.43a3.8,3.8,0,0,1,.65-.14,8.28,8.28,0,0,1,.9,0,3.84,3.84,0,0,1,.74.16l.29.09a4.39,4.39,0,0,1,.28.36l.06.54a7.78,7.78,0,0,1-.43,1.34c-.15.23.11.17.11.17s.28-.21.28-.21.85-.55,1-.56.28-.15.34-.19h.09c.35,0,1.36-.51,1.75-.5a4.25,4.25,0,0,1,.62.09,5.29,5.29,0,0,1,.75.27,5.94,5.94,0,0,1,.83.7c0,.08.15.22.16.28a3.87,3.87,0,0,1,.29.72,3.13,3.13,0,0,1,.21.52s0,.21.06.3,0,.36,0,.36c0,.15-.1,1-.11,1.22a.5.5,0,0,1-.09.25s-.11.13-.1.16-.25.75-.3.82-.5,1.26-.57,1.39l-.21.54a3.36,3.36,0,0,1-.14.68l0,.27a1.64,1.64,0,0,1,.24.21h.14c.15-.05.61-.28.69-.32s1-.66,1.12-.79a.92.92,0,0,0,.14-.14,6.22,6.22,0,0,1,.48-.59,7.58,7.58,0,0,1,.69-.81l.54-.6a14,14,0,0,0,1.43-1.73l.44-.47a1,1,0,0,0,.2-.3c.06-.06.3-1.09.33-1.15l.52-.75.14-.59a1.17,1.17,0,0,1,.21-.27l.39-.34a1.43,1.43,0,0,0,.35-.07l.39,0a1.31,1.31,0,0,1,.25.06s0,.15,0,.17l0,.21s-.14.35-.16.44a2.63,2.63,0,0,0-.26.61,4.06,4.06,0,0,0-.35.43,1.18,1.18,0,0,1-.16.44.52.52,0,0,1-.19.17c-.35.16-1.16,1.82-1.41,2a10.51,10.51,0,0,1-.86,1.18,3.58,3.58,0,0,1-.33.34,5.66,5.66,0,0,0-.4.77,1.61,1.61,0,0,1-.25.42l-.4.47a4.8,4.8,0,0,1-.32.43c0,.09-.26.3-.29.33a10.82,10.82,0,0,0-.72.89l-.28.19-.62.61a2.59,2.59,0,0,0-.57.31l-.68.1c-.15,0-.63,0-.63,0s-.8-.12-1-.13a1.23,1.23,0,0,1-.25-.12,6.66,6.66,0,0,1-.87-.45s-.13-.1-.16-.13a4.25,4.25,0,0,0-.42-.47l-.44-.73s-.16-.62-.19-.89v-.11A6.35,6.35,0,0,1,106.78,317Z" style="fill:#fff"/><path d="M129.19,313.64l.18.35c.1.41.07.44-.21.71a.46.46,0,0,0-.19.2s-.28.2-.34.21-.17.19-.19.2-.59.47-.65.48a4.76,4.76,0,0,1-1.22.5l-.24,0c-.19-.1-1-.66-1.19-.76l-.13-.11c-.06-.05-.44-.83-.47-.89s-.51-.62-.55-.7-.25-.4-.31-.46l-.11.13a4.83,4.83,0,0,1-.18.62l-.32.54-.71,1.7c0,.09-.28.57-.34.63s-.08.13-.11.13a2.69,2.69,0,0,1-1.74.67l-.54.05s-.25-.09-.28-.09-.66,0-.73-.06-1.1-.5-1.32-.63a7.94,7.94,0,0,1-.79-.68,2.43,2.43,0,0,1-.64-1.42v-.14c0-.16,0-.79,0-.85l.08-.4c.07-.22.37-.94.42-1l.32-.52c.21-.26,1.13-1.4,1.35-1.63a2.68,2.68,0,0,1,.34-.27,1.32,1.32,0,0,0,.21-.29,2.36,2.36,0,0,0,.26-.14,5.14,5.14,0,0,0,.58-.3l.49-.16c.06,0,.67.06.76.05l.72-.07a2.52,2.52,0,0,1,.52.07l.26.22,0,.06s0,.09,0,.09a2,2,0,0,1-.21.26c-.06,0-.56.14-.62.18s-.41.49-.54.68a10.62,10.62,0,0,0-.67.94.92.92,0,0,0-.22.26s-.09.34-.11.37-.39.7-.41.79a9,9,0,0,0-.24,1.38s0,.39,0,.54.09.56.09.59a.69.69,0,0,0,.14.23l.27.34a.73.73,0,0,0,.13.11,1.7,1.7,0,0,1,.21,0l.15-.05,1.47-1.73a6.56,6.56,0,0,0,.32-.78l.27-1a1.2,1.2,0,0,1,.09-.25,4.43,4.43,0,0,0,.18-.65,6,6,0,0,0,.19-.89c0-.15-.16-1.43-.14-1.61s0-.88,0-1l.27-1c.08-.19.32-1.17.39-1.39,0-.45-.14-2.43-.14-2.85,0-.12,0-1,0-1.15l0-.38,0-1.09a1.89,1.89,0,0,1,1.27-1.2l.25.09c.1.06.42,0,.49.05s.49.41.55.43.68,1.54.77,1.56.29.45.31.66l0,.3c0,.06-.06.58-.06.64l-.13,1.52c0,.09-.13.88-.15,1l-.12,1.24a3.54,3.54,0,0,0-.08.49c0,.18,0,1.57,0,1.75l-.2.77a6.61,6.61,0,0,1,0,.76c0,.05-.08.45-.08.48l.14,1.5c0,.12.2,1.18.25,1.39s.14.26.15.32.26.52.32.57.2.22.27.25h.12c.11-.1.41-.07.72-.37s.17-.35.33-.63.22-.17.3-.36l.28-.18Z" style="fill:#fff"/><path d="M140.25,303.51a6.22,6.22,0,0,1,1.14-1.66c0-.09.42-.48.41-.54.43-.44.76-1,1.15-1.45l.14-.16c.08-.06.52-.75.58-.81a3.42,3.42,0,0,0,.52-.4,8.12,8.12,0,0,0,.55-.75,4.65,4.65,0,0,0,.76-.86c.11-.1.64-.85.78-1s.09-.12.09-.12.46-.27.57-.37l.5-.27a3.82,3.82,0,0,1,.72-.49,3,3,0,0,1,1.6-.46l.56,0a1.56,1.56,0,0,1,.43.09,5.07,5.07,0,0,1,1.47.48l.63.44.24.44a2.19,2.19,0,0,0,.26.46,1,1,0,0,1,.26.2,2,2,0,0,0,.06.51s.11.29.11.32,0,.24,0,.27a2.11,2.11,0,0,1-.29,1l-.46.45c0,.06-.29.17-.35.17s-.23.05-.32.05a2.1,2.1,0,0,0-.28,0c-.46-.3-.13-.69.21-1v0a1.94,1.94,0,0,0,.37-.92V297c0-.06-.07-.21-.1-.2a2.09,2.09,0,0,0-1-.88c-.27-.07-.92-.3-1-.3l-1.58.1a1.3,1.3,0,0,0-.32.14l-.18.1c0,.06-.17.16-.2.16-.26.17-.27.5-.38.72,0,0-.14.09-.14.15a12.57,12.57,0,0,0-1.13,2.63c-.09.06-.47.75-.55.81a1.35,1.35,0,0,1-.13.37,3.8,3.8,0,0,0-.24.5,3.39,3.39,0,0,0-.12.45,6.93,6.93,0,0,0-.57,1.12c0,.12-.25,1.28-.27,1.4a1.38,1.38,0,0,0-.16.37s-.11.19-.11.22a3.49,3.49,0,0,1-.22.82,5.42,5.42,0,0,1-.12.94c0,.36-.17,1.24-.16,1.33a7.34,7.34,0,0,0,.05.81c0,.15,0,1.47,0,1.59l.17.83c.06.09.29.92.43,1.18l.07.17a1.49,1.49,0,0,1,0,.36c.07.09.41.73.44.79s.11.32.11.35a2.84,2.84,0,0,1,.15.47,1.27,1.27,0,0,1,.11.36c0,.06.13.17.17.23a2,2,0,0,0,.38.39,1.68,1.68,0,0,0,.47.34,4,4,0,0,0,.59.32l1.26-.08s.56-.21.7-.28.59-.24.59-.24a9.39,9.39,0,0,1,.74-.65c.12-.1.59-.64.71-.73a6.47,6.47,0,0,0,1.4-4.12c0-.15,0-.78,0-.87a.8.8,0,0,0-.11-.35c0-.24-.08-.33-.32-.31H152c-.21,0-1.67.19-1.88.2l-2.37.15a1.68,1.68,0,0,0-.33-.07,2.45,2.45,0,0,0-.29-.23l-.12-.11s0,0,0-.06v-.09c0-.06,0-.31.07-.34a.62.62,0,0,1,.26-.1,1.58,1.58,0,0,1,.32-.26s.22-.23.25-.29.38-.08.44-.12l.93-.05c.15,0,1.08,0,1.26,0a17.75,17.75,0,0,0,1.93,0l.57.12a3.11,3.11,0,0,0,.32.22s.06.09.06.09a3,3,0,0,1,0,.6s.09.05.1.11a3.71,3.71,0,0,1,0,1.29c0,.15-.08.67-.07.7s-.13.31-.13.33a5.46,5.46,0,0,1,0,.7,4,4,0,0,1-.17.7c0,.12-.13.76-.13.85a7.18,7.18,0,0,1-.57,1.44c0,.06-.08.19-.14.22-.41.6-1,1.17-1.43,1.74a4.14,4.14,0,0,1-.61.7c-.06.09-.32.26-.32.29l-.84.38a1.7,1.7,0,0,0-.24.14c-.44.17-1.61.64-1.73.7a5.55,5.55,0,0,1-.92.18l-.57,0c-.12,0-.84,0-1,0a2.36,2.36,0,0,0-.55-.09c-.06-.06-.86-.4-1.14-.53a2.5,2.5,0,0,0-.53-.3l-.54-.45c-.22-.2-.89-.79-1-.87l-.33-.43a.73.73,0,0,1-.07-.24c-.07-.09-.4-.61-.47-.66-.07-.21-.53-1.32-.69-1.61l-.58-1.59a7,7,0,0,1-.23-2.21,3,3,0,0,0,.07-.46A14.73,14.73,0,0,1,140.25,303.51Z" style="fill:#fff"/><path d="M155.19,311.79c0-.09.33-.79.33-.88s.1-.36.24-.64l.82-1.38a5.85,5.85,0,0,1,.44-.77c.09-.12.66-.84.83-1l.61-.66,1.89-2.18a1.58,1.58,0,0,0,.23-.28h.12a3.3,3.3,0,0,0,.52.13,5.86,5.86,0,0,1,.74,0,1.6,1.6,0,0,1,.25.11,2.42,2.42,0,0,1,.36.1l.52.22c.74-.24.89,1.08.65,1.09l-.68,1.17c-.81,1.38-2.05,1.94-2.77,3.38l-.59,1.13c0,.13.39,1.4.36,1.43l0,.09a1.49,1.49,0,0,0,.94-.25,6.36,6.36,0,0,0,1.42-2l.55-1.28c.09-.15.4-1.34.45-1.49s.33-.7.33-.76l.13-.52a2.74,2.74,0,0,1,.35-.25s.33-.14.36-.14a1.05,1.05,0,0,1,.26-.13.31.31,0,0,1,.12,0c.21,0,.49.13.5.37a13.62,13.62,0,0,1-.19,1.39,24.65,24.65,0,0,0-.13,3.54,4.52,4.52,0,0,0,.22,1.64c.07.18.28.14.43.14l.32-.05a1.84,1.84,0,0,0,.48-.13s2-1.2,2-1.23,1.53-1.56,1.59-1.62.64-1.23.72-1.29a1.31,1.31,0,0,1,.86-.3c.15,0,.72.6.73.81v.09a.74.74,0,0,1-.23.37,6.73,6.73,0,0,1-.73.51s-.08.12-.11.15l-1.83,1.48a.92.92,0,0,1-.23.25c-.12.13-2.36,1.75-2.48,1.81a1.65,1.65,0,0,1-1,.16l-.6,0a2,2,0,0,1-.4-.11c-.82-.38-1-1.67-1.09-2.47a2.26,2.26,0,0,1-.81,1.38l-.47.26c-.15.13-1.31,1-1.46,1.05a4.24,4.24,0,0,1-2,.71h-.18c-.31-.05-1.18-.17-1.24-.19s-1-.56-1.29-.7c-.06-.06-.5-.46-.62-.61a2.24,2.24,0,0,1-.57-1.42Z" style="fill:#fff"/><path d="M183.22,311.62c0-.12.37-1,.4-1.18s.37-1.42.42-1.57.23-.72.23-.81,0-.39,0-.48l-.21,0a2,2,0,0,0-.26.13c-.07,0-.15.24-.18.27a1.35,1.35,0,0,1-.3.27,2,2,0,0,1-.11.25s-.12.12-.15.18-.08.36-.14.36a5.38,5.38,0,0,1-.6.28,3.72,3.72,0,0,0-.53.67s-.12.09-.15.12a.59.59,0,0,0-.14.27l-.59.79a6.81,6.81,0,0,0-.25.94s-.12.24-.15.24-.14.51-.14.54a1.8,1.8,0,0,1-.12.25l-.58.93c-.06.07-.27.25-.27.25h-.9a1,1,0,0,1-.27-.11l-.31-.36c0-.06-.09-.39-.12-.53-.1-.51-.49-1.89-.49-2l0-1.17c0-.09.11-.81.14-1,0,0,.11-.6.14-.63v-.3a.93.93,0,0,0-.3.15c-.06,0-.38.49-.44.55l-.41.25c-.12.12-.62,1-.71,1.06s-.62.61-.71.67a3.66,3.66,0,0,1-.44.52,4.48,4.48,0,0,1-.23.39c-.15.18-.44.64-.47.67s-.23.51-.29.66a3,3,0,0,1-.11.43,1.05,1.05,0,0,0-.15.24,4.5,4.5,0,0,1-.41.25l-2-.45-.3-.15a1.37,1.37,0,0,0-.28-.26c0-.24-.14-1.44-.15-1.71v-.24a9.63,9.63,0,0,1,.1-1.05c0-.09.14-.48.14-.54s.11-.7.11-.76.26-1,.28-1.08.14-.57.14-.63.09-.52.11-.55.38-1,.47-1.17l.13-.67c0-.09-.06-.47,0-.54a2,2,0,0,1,.56-.24s.33,0,.48,0,.45,0,.51,0,.73.2.88.22l.69.38c.09,0,.18.12.18.15l0,.9a10.73,10.73,0,0,1-.15,1.83c0,.09-.08.48-.08.55v.12s.09.11.09.11a1.33,1.33,0,0,0,.33-.24c.12-.12.85-1,1-1s.38-.39.38-.42a11.52,11.52,0,0,0,1.05-.56c.14-.06.53-.25.56-.25s.33,0,.48,0l.54,0a2.21,2.21,0,0,1,.42.12,3.44,3.44,0,0,1,.73.37l.31.39c.09.12.4.68.46.77a1.2,1.2,0,0,0,.12.39,4.64,4.64,0,0,1,.17.69h.15c.17-.18,1.09-.91,1.27-1.1a7.83,7.83,0,0,1,.74-.49s.24-.12.3-.18a3.18,3.18,0,0,1,.51-.13h.57a3.72,3.72,0,0,1,.81.29c.21.11,1.07.94,1.28,1.12a5.74,5.74,0,0,1,.14,1.43c0,.09-.28,1.27-.39,1.72a2.63,2.63,0,0,0-.11.39,4.24,4.24,0,0,0-.17.66c0,.06-.26.73-.26.79a4.71,4.71,0,0,1-.11.51v.39a1.18,1.18,0,0,0,.12.27.77.77,0,0,0,.27.11,5.24,5.24,0,0,0,.72-.25l.86-.4.3-.25.29-.15.75-.4.71-.4s.27-.25.3-.25.24-.15.26-.15.12-.1.15-.13.78-.46.89-.55l.69-.49c.09-.09.79-.86.85-.95s.17-.51.23-.57.6-.16.66-.16a2.86,2.86,0,0,1,.51.14c.09,0,.3.09.3.15s0,.12,0,.18,0,.18,0,.21-.29.27-.44.39l-1.13.92-1.3,1.19c-.06.06-.74.41-.8.44a4.77,4.77,0,0,0-.62.4,4.91,4.91,0,0,1-.57.25c0,.06-.39.24-.45.3s-.21.1-.23.1-.57.58-.66.58l-1.09.8a1.86,1.86,0,0,0-.6.25,7.94,7.94,0,0,0-.84,0H186a3.24,3.24,0,0,0-.45-.11c-.06,0-.51-.11-.63-.11a3.46,3.46,0,0,0-.43-.14.83.83,0,0,0-.15-.27,6.92,6.92,0,0,1-.7-.65,4.63,4.63,0,0,0-.31-.51s-.12-.11-.12-.14a3.33,3.33,0,0,1-.16-.51C183.09,312.76,183.19,311.8,183.22,311.62Z" style="fill:#fff"/><path d="M192.76,308.49s.28-.51.37-.66l.33-.56.33-.33.7-.57a1.08,1.08,0,0,1,.36-.2c.09-.06.72-.33.81-.36s.49-.5.55-.56l.48-.36.78-.41.57-.27a1.48,1.48,0,0,0,.37-.21h.42a2.06,2.06,0,0,0,.47.13c.09,0,.81.09.9.09s.54.31.69.37a6.1,6.1,0,0,1,.54.45,3.83,3.83,0,0,1,.36.37s.08.36.11.45v1a3,3,0,0,1-.22.45l-.27.32a4.58,4.58,0,0,1-.33.48,2.1,2.1,0,0,1-.22.33l-.57.45-.81.68a.63.63,0,0,0-.21.12l-.91.32a10,10,0,0,0-1,.68l-.15.33c0,.06-.07,1.32-.14,1.83v.06a1.1,1.1,0,0,0,.27.6l.33,0,.33,0a1.27,1.27,0,0,0,.36-.09,5,5,0,0,0,1.14-.23l.57-.39c0-.06.18-.18.21-.23s.37-.21.52-.42c.36-.48.73-1.17.82-1.29a2.22,2.22,0,0,1,.24-.32l.45,0c.21,0,.15.24.27.27,0,.45.2,1-.43,1.44a3.07,3.07,0,0,0-.64.62,3.58,3.58,0,0,1-1.87,1.31,1.71,1.71,0,0,1-.24.21c-.06,0-.45.09-.45.09l-1,.29a3.15,3.15,0,0,1-1.2.2h-.42a6.67,6.67,0,0,1-1-.13,5.13,5.13,0,0,1-.69-.36c-.12,0-.75-.55-.92-.67a5.76,5.76,0,0,1-.42-.45c0-.06-.24-.43-.24-.46a1.2,1.2,0,0,1-.09-.12l-.26-.57s-.06-.21-.09-.21v-.24c0-.06-.12-.63-.12-.66v-1.5C192.55,309.48,192.73,308.7,192.76,308.49Zm6.74-2.56a1.76,1.76,0,0,0-.33.27c-.15.12-.79.74-.91.89l-.15.21s-.06.12-.09.12a.75.75,0,0,1-.12.21c-.06.21-.21.66-.21.69v1c.6-.27,1.11-.57,1.71-.89.13-.09.52-.3.58-.33l.54-.47s.12-.09.12-.09l.12-.24.12-.09a5.46,5.46,0,0,0,.13-.6,2.28,2.28,0,0,0-.12-.33l-.24-.36-.12-.09h-.78Z" style="fill:#fff"/></g></g></g></svg>