<svg xmlns="http://www.w3.org/2000/svg" viewBox="0 0 690 260"><g id="milpa-web"><g id="Card_Game_Banner" data-name="Card Game Banner"><path id="Banner" d="M411.61,71.94a8,8,0,0,0,2-.77c1.73-.49,6.9-2.43,7.48-2.53,1.44-.39,6.62-1.85,7.77-2a28.07,28.07,0,0,0-3.45-.58c-1.16-.2-3.74-.49-4.32-.49s-4.32-.19-5.18-.29c-.57-.39-2-1.85-1.73-2.14a7.31,7.31,0,0,1-.86-.87,2.55,2.55,0,0,1,1.15-.78c0-.1.29-.39.58-.48a24.61,24.61,0,0,1,3.74-1.46l3.74-1.17c.86-.19,5.18-1.36,6-1.36L428,56.4s-12.38-1.17-17.84-2a13.39,13.39,0,0,1-1.44-.19,8.84,8.84,0,0,1-1.15-.2c-.58.2-4-.48-4.6-.39s-2.3-.68-2.88-.77c0-.2-.86-.68-1.15-1.07-.29-.1-.29-.49,0-.68a3.18,3.18,0,0,1,1.15-1c0-.3.58-.78.58-.78L413,47.56l.58-.48c-1.44-.29-6.91-.68-8.34-.88a16.77,16.77,0,0,1-2-.78c-.57-.19-2-.48-2-.68a8,8,0,0,0-.86-.38v-.78a13.14,13.14,0,0,1,1.15-1.17A7.68,7.68,0,0,0,403,41.25a10.06,10.06,0,0,1,2.3-.88A37.21,37.21,0,0,1,409,39.31c.28-.2,5.17-.88,6.61-1.07l15.83-2,3.74-.09c1.15-.29,7.47-1.26,8.05-1.36.86,0,4.89-.49,5.47-.39.28-.1,5.75-.78,6.61-.78s4.32-.48,4.89-.48c1.44-.1,6.62-.49,7.48-.49a13.29,13.29,0,0,1,2.59-.19,31.93,31.93,0,0,1,3.74-.3c1.44-.19,8.06-.58,9.5-.58,1.43-.19,5.46-.39,6.33-.39.57-.19,7.76-.48,8.62-.48.58-.1,3.46-.39,3.74-.39.87.1,6.33-.1,6.91-.1.86.1,6.9-.48,8.92-.48.29,0,5.46-.29,5.75-.39,2,0,9.78-.39,10.93-.58,1.73,0,8.34-.2,9.5-.2a49.42,49.42,0,0,1,5.46,0h2.88a34.43,34.43,0,0,1,3.45-.19c1.44.09,7.48.09,8.92.09,1.72.1,9.78.1,11.51.1,1.15-.1,7.19-.1,8.34-.29a35.05,35.05,0,0,0,4.6-.19c1.73.09,9.21,0,10.64-.1a27.72,27.72,0,0,1,2.88.1c2.3,0,16.11.58,17.84.68.86,0,9.78.29,10.93.29l8.92.39c.57.09,5.75.38,6.33.48.57-.1,4.6.2,5.46.2,0,0,1.15.19,2,.29a14,14,0,0,1,2,.29s.86.39,1.44.68c.29,0,1.15.29.29.29,0,0-.58.68-.87,1,0,.19-.57.78-.57.78s-4.61.87-6.33,1.16c-1.15.39-10.07,1.56-12.37,2l-10.65,1.26c-.28.09-.86.19-.86.29h-.86s.57.29.57.39c.58.09,5.18.87,6.33,1.16.87.1,10.94,1.36,11.8,1.56s6.33,1.07,7.48,1.36a4.09,4.09,0,0,1,1.72.58s.86.29.86.39c-.28.1,0,.68,0,.87l-.28.2v.09c-.29.2-2,.68-2,1a46.77,46.77,0,0,0-5.46,1.55c-.86.2-5.75,1-6.62,1.07l-1.15.87,15.82,2.14a26.89,26.89,0,0,1,4,1.17c-.29,0,0,.77,0,.87l-.86.58a19.36,19.36,0,0,1-2.3.58c0,.2-1.73.59-1.73.59s-.29.09-.29.19v.1c-.29.19,1.44,1.16,1.44,1.46l8.34,2.23c.29.2,2.59.87,2.59,1a2.29,2.29,0,0,1-.28,1.17v.09l-.29.2a14.8,14.8,0,0,1-3.17.48,13.32,13.32,0,0,1-2.3.49c-.57,0-3.45.19-3.45.19-.29,0-2,.39-2.3.39-.58.1-4.89-.09-6-.09l-.86-.2c-.29,0-4.9-.19-5.18-.19-1.44-.29-11.51-.1-12.66-.2,0,0-5.47-.19-7.77-.19a29.55,29.55,0,0,0-3.45-.2c-1.73,0-7.48.3-8.92.2-1.73,0-9.49.29-11.51.29-1.44,0-7.19.49-7.76.39-1.73.19-8.35.48-9.5.39-.86.09-5.75.48-6.33.39-2.59.09-22.72.87-25,1.16-.87,0-8.35.29-8.92.39l-12.66,1c-2.3.29-21.86,1.07-23.88,1.17-.86.19-4.31.38-5.18.58s-5.75.58-6.32.58a11.22,11.22,0,0,0-1.73.29c-1.73.3-8.34.59-9.21.59-.28,0-4.89.48-5.17.48-3.46.29-11.22.88-11.51.78-1.15.19-10.07,1.75-11.22,1.75l-9.21,1.07c-1.44.19-11.21,1.45-12.08,1.65-2.59.19-10.07,1.16-10.35,1.26-1.44.1-5.18.49-5.47.49l-1.15-.2a15,15,0,0,1-1.73-.19,16.25,16.25,0,0,0-2.88-1.85v-.87c.29-.2.29-.88.29-1s.29-.39.29-.39S411.32,72,411.61,71.94Z" style="fill:#253659"/><g id="Card_Game" data-name="Card Game"><path d="M470.13,60s-.23-.33-.33-.4l-.22-.27c-.1-.23-.51-1-.56-1.07s-.08-.33-.12-.41a15.51,15.51,0,0,1-.36-2.59,13.66,13.66,0,0,1,.49-3.62,2.16,2.16,0,0,1,.05-.46,6,6,0,0,0,.31-1.17l.55-1.2.18-.4c.46-1,.86-2,1.38-2.93l.43-.76s.12-.2.12-.2.69-.87.71-1a5.52,5.52,0,0,0,.32-.47s.13-.2.12-.23a3.64,3.64,0,0,1,.3-.41s.2-.34.25-.37a14.5,14.5,0,0,1,1.15-1.45l1.46-.8a3.54,3.54,0,0,1,.58.07c.15,0,1.43-.16,1.62-.15,0,0,.22,0,.31,0a4.55,4.55,0,0,1,3.1,2.29l.1.08a10.51,10.51,0,0,1,.52,1.38c0,.06,0,.79,0,.88a2.41,2.41,0,0,1,0,.36c0,.06,0,.3,0,.33a2.57,2.57,0,0,1-.09.41c0,.06,0,.58,0,.61s-.46.58-.51.65l-.12.23a2.76,2.76,0,0,1-1.2.88c-.08,0-.39.21-.42.21l-1,.16a2.92,2.92,0,0,1-1.6-.37c-.44-.27-.85-.57-.89-1-.07-.66.3-1.44.76-1.24.52-.14.17-.23.68-.31a2.78,2.78,0,0,1,.48.2c.53.31.13,1.07.68,1.48a.76.76,0,0,0,1.13,0l.24-.37.09-.26s.09-.56.09-.62a1.14,1.14,0,0,0,.09-.19,1.34,1.34,0,0,0,.11-.45c0-.21.05-1.52,0-1.82a2.65,2.65,0,0,0-2-2l-.28,0c-.27-.14-.3,0-.61,0l-1.19.18a3.59,3.59,0,0,0-.52.35,7.69,7.69,0,0,0-2.24,3.49c0,.06-.09.38-.09.38a6.6,6.6,0,0,0,0,.78s-.11.45-.11.48.21.54.17.73a6.82,6.82,0,0,1-.07,1s-.07.31-.07.34,0,.52,0,.58-.11,1.47-.09,1.62c0,.4.08,3.36.07,3.69l.16,1.71,0,.11,0,0c.06.6.12,2,.12,2l.15.19.92,1.68a1.49,1.49,0,0,0,.58.28l.18,0,.32.08,1.39-.21,1.11-.29c.11,0,.77-.3.85-.37s.24-.22.3-.26.13-.11.12-.17l1-.45a19.53,19.53,0,0,0,3.29-2.74c.25-.31,1.15-2.2,1.46-2.55l.09-.23c.06,0,0-.57,0-.6a1.51,1.51,0,0,1,.21-.46.85.85,0,0,1,.1-.35.93.93,0,0,1,.29-.28c.06,0,.33,0,.48,0a4.23,4.23,0,0,0,.4.19,5.54,5.54,0,0,1,.25.69c0,.06,0,.21,0,.21a2.37,2.37,0,0,1-.41.67l-.19.39a.46.46,0,0,0-.09.2,1.12,1.12,0,0,1-.22.16c-.13.11-1.23,2.27-1.31,2.38a.48.48,0,0,1-.11.26l-.2.27-.42.27-.72.81a2.25,2.25,0,0,1-.46.4s-.4.18-.45.22a3.78,3.78,0,0,0-.61.4l-.56.53-.2,0c-.06,0-.19.15-.25.18l-.6.64a3.87,3.87,0,0,1-.47.28l-.37.42c-.14.05-1.15.18-1.21.21l-.63.46c-.08.05-.61.16-.69.2s-.25.16-.28.16l-.45.07a7,7,0,0,1-3.84-.33s-.08-.11-.11-.11a1.2,1.2,0,0,0-.3-.2l-.57-.34a.65.65,0,0,0-.22-.08C471.67,61.35,470.39,60.27,470.13,60Z" style="fill:#fff"/><path d="M484.3,56.35c0-.1.26-.82.25-.91s.07-.38.18-.66l.69-1.45a5.63,5.63,0,0,1,.38-.81c.07-.13.58-.89.73-1.09l.55-.71,1.69-2.34a2.2,2.2,0,0,0,.2-.3h.12a3.12,3.12,0,0,0,.52.08,5.45,5.45,0,0,1,.75-.1,1.29,1.29,0,0,1,.25.09,2.41,2.41,0,0,1,.37.07l.54.17c.72-.3,1,1,.74,1l-.57,1.22c-.68,1.45-1.87,2.12-2.46,3.62l-.48,1.18a13.88,13.88,0,0,0,.49,1.39l0,.09a1.53,1.53,0,0,0,.92-.34,6.21,6.21,0,0,0,1.23-2.16l.43-1.32c.07-.16.28-1.37.32-1.53s.27-.73.26-.79l.08-.52a2.2,2.2,0,0,1,.33-.28s.31-.17.34-.17a.92.92,0,0,1,.25-.15.38.38,0,0,1,.11,0c.21,0,.5.09.53.32a10.93,10.93,0,0,1-.06,1.4,24.62,24.62,0,0,0,.19,3.55,4.4,4.4,0,0,0,.37,1.61c.08.17.28.12.43.1l.33-.07a2.2,2.2,0,0,0,.46-.19s1.87-1.36,1.87-1.39,1.38-1.69,1.43-1.76.53-1.28.61-1.35a1.31,1.31,0,0,1,.83-.38,1.57,1.57,0,0,1,.79.74l0,.09a.77.77,0,0,1-.2.39,5.4,5.4,0,0,1-.68.57s-.07.13-.1.17L498.68,55a.86.86,0,0,1-.2.27c-.11.13-2.2,1.95-2.31,2a1.75,1.75,0,0,1-1,.25l-.59.08a1.87,1.87,0,0,1-.4-.07c-.86-.31-1.15-1.57-1.31-2.37a2.23,2.23,0,0,1-.69,1.45l-.44.3c-.14.14-1.22,1.07-1.36,1.18a4.25,4.25,0,0,1-1.94.89l-.18,0C488,59,487.1,59,487,59s-1.09-.46-1.35-.58c-.06,0-.54-.41-.67-.54a2.33,2.33,0,0,1-.7-1.37Z" style="fill:#fff"/><path d="M503.85,55.09a1.7,1.7,0,0,1,.06-.28,2.9,2.9,0,0,0,.42-.59,7.53,7.53,0,0,0,.61-1.25,14.76,14.76,0,0,0,.91-1.31c0-.06-.09-.29-.1-.35s-.21,0-.3,0-.45,0-.53.06-.2.12-.2.15c-.23.08-1.13.7-1.28.71s-.35.4-.38.41-.93.8-1.08.84a3.12,3.12,0,0,1-1.84.3.89.89,0,0,0-.3-.24s-.45-.31-.52-.39a4,4,0,0,1-.26-.37.76.76,0,0,1-.23-.21,1,1,0,0,1-.19-.34,7.58,7.58,0,0,1-.13-.9,18.6,18.6,0,0,1,.36-1.91l.65-.43a3,3,0,0,1,.65-.13,5.07,5.07,0,0,1,.9,0,3.22,3.22,0,0,1,.74.15,2.75,2.75,0,0,0,.28.09,2.72,2.72,0,0,1,.28.36l.06.54a8.17,8.17,0,0,1-.42,1.35c-.16.23.11.17.11.17s.28-.22.28-.22.84-.54,1-.56.29-.15.34-.19h.09a16.25,16.25,0,0,1,1.76-.49,3.11,3.11,0,0,1,.61.08,4.7,4.7,0,0,1,.76.28,6.41,6.41,0,0,1,.83.69c0,.09.14.22.15.28a3.09,3.09,0,0,1,.29.73,2.82,2.82,0,0,1,.21.52s.05.2.06.29a2.44,2.44,0,0,1,0,.36c0,.15-.1,1-.1,1.22a.62.62,0,0,1-.09.25s-.11.14-.11.16a8,8,0,0,1-.3.82c-.07.16-.49,1.27-.57,1.39l-.21.54a2.83,2.83,0,0,1-.13.68l0,.27s.23.18.23.21h.15c.15-.05.6-.28.69-.32s1-.65,1.12-.79.13-.14.13-.14.4-.52.48-.59a7.27,7.27,0,0,1,.7-.8l.53-.61a12.63,12.63,0,0,0,1.44-1.73l.43-.47a1,1,0,0,0,.21-.29c0-.07.3-1.09.32-1.16l.52-.75.15-.59a.8.8,0,0,1,.21-.26,5,5,0,0,1,.38-.35,1.59,1.59,0,0,0,.36-.07l.39,0,.24.06a1.43,1.43,0,0,1,.05.18l0,.21s-.14.34-.16.44a2.68,2.68,0,0,0-.27.6,3.79,3.79,0,0,0-.34.43,1.33,1.33,0,0,1-.17.44s-.16.17-.19.17c-.34.16-1.15,1.82-1.4,2a13.49,13.49,0,0,1-.87,1.19,3.37,3.37,0,0,1-.32.33,4.75,4.75,0,0,0-.4.77,2.45,2.45,0,0,1-.25.42l-.41.47a4.73,4.73,0,0,1-.31.43c0,.09-.27.3-.3.33s-.66.8-.71.9l-.28.18-.63.61a4,4,0,0,0-.57.31l-.68.1c-.15,0-.63,0-.63,0a10.07,10.07,0,0,0-1-.12,2,2,0,0,1-.26-.13,6.59,6.59,0,0,1-.86-.44s-.13-.11-.17-.14a4.17,4.17,0,0,0-.41-.46l-.44-.74a8.35,8.35,0,0,1-.19-.88l0-.12A6.05,6.05,0,0,1,503.85,55.09Z" style="fill:#fff"/><path d="M526.25,51.68l.18.35c.1.41.07.44-.2.71a.63.63,0,0,0-.2.2s-.28.2-.34.21-.16.2-.19.2-.59.48-.65.48a4.62,4.62,0,0,1-1.22.5l-.24,0c-.19-.11-1-.66-1.18-.77l-.13-.11c-.07,0-.44-.83-.48-.89s-.51-.61-.54-.7-.25-.4-.32-.45l-.1.13a5.45,5.45,0,0,1-.19.62l-.31.54-.72,1.69c0,.1-.28.57-.33.63s-.08.13-.11.13a2.75,2.75,0,0,1-1.75.68l-.53,0s-.25-.1-.28-.1-.67,0-.73-.05-1.1-.5-1.33-.63c-.06-.06-.65-.52-.78-.68a2.43,2.43,0,0,1-.64-1.42l0-.15c0-.15.05-.79,0-.85l.09-.4c.07-.22.37-.94.42-1l.31-.51c.22-.26,1.14-1.4,1.36-1.63a2.13,2.13,0,0,1,.33-.28,1.85,1.85,0,0,0,.22-.29,1.37,1.37,0,0,0,.26-.14c.11,0,.51-.26.57-.29a5,5,0,0,1,.5-.17c.06,0,.67.06.76.05l.71-.07a1.89,1.89,0,0,1,.52.08l.26.21,0,.06a.41.41,0,0,1,0,.09,1.49,1.49,0,0,1-.22.26c-.06,0-.56.15-.62.18s-.4.49-.54.68a10.53,10.53,0,0,0-.66.94A.92.92,0,0,0,517,50s-.09.34-.12.37-.38.7-.41.79a10.46,10.46,0,0,0-.23,1.38s0,.39,0,.54.08.57.08.6a.91.91,0,0,0,.14.22l.28.34a.34.34,0,0,0,.13.11,1.28,1.28,0,0,0,.21,0l.15,0,1.46-1.74a6.56,6.56,0,0,0,.32-.78l.27-1a2.16,2.16,0,0,1,.1-.25,6.2,6.2,0,0,0,.18-.65,7.31,7.31,0,0,0,.19-.89c0-.15-.16-1.43-.15-1.61a8,8,0,0,1,0-1l.27-1c.07-.18.31-1.17.38-1.39,0-.45-.13-2.43-.14-2.85,0-.12,0-1,0-1.14l0-.39,0-1.09a2,2,0,0,1,1.28-1.2l.25.1c.09,0,.42,0,.48,0s.49.41.55.43.69,1.54.78,1.56.28.46.3.66l0,.3a4.76,4.76,0,0,0-.06.64l-.13,1.52c0,.09-.13.89-.15,1l-.13,1.25a3.09,3.09,0,0,0-.07.48c0,.19,0,1.57,0,1.75l-.2.77a6.48,6.48,0,0,1-.06.76c0,.06-.07.46-.07.49l.14,1.49c0,.12.2,1.19.25,1.39a3.16,3.16,0,0,1,.14.32,5.45,5.45,0,0,0,.33.57c0,.06.2.23.26.25h.12c.11-.1.42-.07.72-.37s.18-.34.33-.63.23-.17.3-.36l.29-.18Z" style="fill:#fff"/><path d="M537.32,41.55a6.59,6.59,0,0,1,1.13-1.66c0-.09.42-.48.42-.53.42-.45.75-1,1.14-1.46l.14-.15c.09-.07.53-.76.58-.82a3.53,3.53,0,0,0,.52-.39,8.34,8.34,0,0,0,.56-.76,5.51,5.51,0,0,0,.76-.86c.11-.09.64-.85.78-1s.08-.13.08-.13.47-.27.58-.37l.49-.27a4.44,4.44,0,0,1,.73-.49,3,3,0,0,1,1.59-.46l.57,0a2.19,2.19,0,0,1,.43.09,5.17,5.17,0,0,1,1.47.48l.63.45.23.43a2.63,2.63,0,0,0,.27.47.74.74,0,0,1,.25.19,3.76,3.76,0,0,0,.06.51s.11.29.11.32,0,.24,0,.27a2.1,2.1,0,0,1-.3,1l-.45.45a.76.76,0,0,1-.35.17,1.94,1.94,0,0,1-.33,0h-.27c-.47-.3-.13-.68.21-1v0a2.16,2.16,0,0,0,.36-.93v-.12c0-.06-.08-.2-.11-.2a2,2,0,0,0-1-.87c-.28-.08-.92-.31-1-.3l-1.59.09a1.48,1.48,0,0,0-.32.14l-.17.1c0,.06-.17.16-.2.17-.26.16-.27.49-.38.71,0,0-.15.1-.14.16a12.27,12.27,0,0,0-1.13,2.62c-.09.07-.47.75-.56.82a1.27,1.27,0,0,1-.12.36,2.85,2.85,0,0,0-.24.5,3.67,3.67,0,0,0-.13.46,5.77,5.77,0,0,0-.56,1.11c0,.12-.25,1.28-.28,1.4a1.37,1.37,0,0,0-.15.37s-.11.19-.11.22a3.91,3.91,0,0,1-.22.82,6.61,6.61,0,0,1-.12.94c0,.37-.17,1.24-.16,1.33a7.2,7.2,0,0,0,0,.81c0,.15,0,1.47,0,1.59l.17.84c.07.08.3.91.43,1.17l.07.18s.05.32.06.35.4.73.43.79.11.32.12.35a2.79,2.79,0,0,1,.14.47,1.27,1.27,0,0,1,.12.36c0,.06.13.17.16.23a2.33,2.33,0,0,0,.38.4,1.88,1.88,0,0,0,.48.33,3,3,0,0,0,.59.32l1.25-.07s.56-.22.71-.29.58-.24.58-.24a9.79,9.79,0,0,1,.75-.65c.11-.1.59-.63.7-.73a6.39,6.39,0,0,0,1.41-4.11,8.59,8.59,0,0,0,0-.88c0-.06-.08-.32-.11-.35,0-.24-.08-.32-.32-.31H549c-.21,0-1.67.19-1.88.21l-2.36.14a1.81,1.81,0,0,0-.34-.07,1.6,1.6,0,0,0-.28-.22l-.13-.12s0,0,.06-.06v-.09a.65.65,0,0,1,.07-.34.72.72,0,0,1,.27-.1,1.64,1.64,0,0,1,.31-.26,1.45,1.45,0,0,0,.25-.29s.39-.08.45-.11l.93-.06c.15,0,1.08,0,1.26,0s1.74,0,1.92,0l.58.11s.22.17.31.22.07.09.07.09a4,4,0,0,1,0,.6s.1,0,.1.11a3.71,3.71,0,0,1,0,1.29,6.92,6.92,0,0,1-.08.7s-.13.31-.13.34a4,4,0,0,1,0,.69,4,4,0,0,1-.16.7,7,7,0,0,0-.13.85,7,7,0,0,1-.58,1.45c0,.06-.07.18-.13.22-.42.59-1,1.17-1.43,1.74a4.12,4.12,0,0,1-.62.69c0,.1-.31.26-.31.29l-.85.39a1.57,1.57,0,0,0-.23.13c-.44.18-1.62.64-1.73.71a7,7,0,0,1-.92.17l-.57,0-1-.06a2.85,2.85,0,0,0-.54-.09c-.07,0-.87-.4-1.15-.53a2.71,2.71,0,0,0-.53-.3l-.53-.45c-.23-.19-.89-.78-1-.87l-.32-.43a.57.57,0,0,1-.08-.24c-.06-.08-.4-.6-.46-.66a17.15,17.15,0,0,0-.7-1.61l-.58-1.59a7,7,0,0,1-.22-2.21,3.09,3.09,0,0,0,.06-.45A14.75,14.75,0,0,1,537.32,41.55Z" style="fill:#fff"/><path d="M552.26,49.84c0-.09.33-.8.32-.89s.11-.36.25-.64l.81-1.38a4.9,4.9,0,0,1,.45-.77c.08-.12.66-.83.83-1l.6-.66,1.9-2.17a3.25,3.25,0,0,0,.23-.28h.12a3.18,3.18,0,0,0,.51.13c.06,0,.66,0,.75,0a1.56,1.56,0,0,1,.24.11,1.73,1.73,0,0,1,.37.11l.52.22c.74-.24.88,1.07.64,1.08l-.67,1.17c-.82,1.38-2,1.94-2.78,3.38l-.58,1.14a14,14,0,0,0,.36,1.42l0,.09a1.5,1.5,0,0,0,1-.25,6.32,6.32,0,0,0,1.42-2l.55-1.29c.08-.15.39-1.33.45-1.49s.33-.7.33-.76l.13-.52a2.16,2.16,0,0,1,.35-.25s.32-.13.35-.13A1.16,1.16,0,0,1,562,44a.31.31,0,0,1,.12,0,.45.45,0,0,1,.49.37,11,11,0,0,1-.18,1.39,22.19,22.19,0,0,0-.13,3.55,4.31,4.31,0,0,0,.21,1.64c.07.18.28.14.43.13l.33,0a2.2,2.2,0,0,0,.47-.14s2-1.19,2-1.22,1.52-1.56,1.58-1.63.64-1.22.73-1.29a1.29,1.29,0,0,1,.86-.3c.15,0,.71.6.72.81v.09a.66.66,0,0,1-.22.37,7.88,7.88,0,0,1-.73.51s-.09.12-.11.15l-1.84,1.49a.78.78,0,0,1-.23.25c-.11.12-2.36,1.74-2.47,1.81a1.87,1.87,0,0,1-1,.16l-.6,0A2.79,2.79,0,0,1,562,52c-.83-.39-1-1.67-1.09-2.48a2.25,2.25,0,0,1-.82,1.38l-.47.26c-.14.13-1.31,1-1.46,1a4.1,4.1,0,0,1-2,.71H556c-.3,0-1.18-.16-1.24-.19s-1-.56-1.28-.7c-.07-.06-.5-.46-.63-.6a2.32,2.32,0,0,1-.57-1.42Z" style="fill:#fff"/><path d="M580.28,49.66c0-.12.38-1,.41-1.18s.36-1.41.42-1.57.23-.72.23-.81,0-.39,0-.48a1.49,1.49,0,0,0-.21,0c-.09,0-.27.12-.27.12s-.15.24-.18.27-.23.25-.29.28a1.78,1.78,0,0,1-.12.24s-.11.12-.14.18-.09.36-.15.36a5.25,5.25,0,0,1-.59.28,3.72,3.72,0,0,0-.53.67s-.12.09-.15.12a.7.7,0,0,0-.15.28l-.58.79a8.41,8.41,0,0,0-.26.93s-.11.24-.14.24-.15.52-.15.55a1.56,1.56,0,0,1-.11.24l-.59.94-.26.24-.9,0a1.31,1.31,0,0,1-.28-.12l-.3-.35c0-.06-.1-.39-.13-.54-.1-.51-.48-1.88-.48-2l0-1.17c0-.09.11-.82.13-1.06,0,0,.11-.6.14-.63v-.3a.8.8,0,0,0-.3.16c-.06,0-.38.48-.44.54l-.42.25c-.12.12-.61,1-.7,1.06s-.62.61-.71.67a4.51,4.51,0,0,1-.44.52,4.44,4.44,0,0,1-.24.39c-.14.19-.43.64-.46.67s-.24.52-.29.67a3.08,3.08,0,0,1-.12.42,1,1,0,0,0-.14.24,3.09,3.09,0,0,1-.42.25l-2-.45-.3-.14a1.15,1.15,0,0,0-.27-.27c0-.24-.15-1.44-.15-1.71v-.24a9.45,9.45,0,0,1,.11-1.05c0-.09.14-.48.14-.54s.11-.69.11-.75a9.14,9.14,0,0,1,.28-1.09c0-.06.14-.57.14-.63s.08-.51.11-.54.37-1.06.46-1.18l.14-.66c0-.09-.07-.48,0-.54a2,2,0,0,1,.57-.25s.33,0,.48,0l.51,0c.09,0,.72.2.87.23l.7.38a.27.27,0,0,1,.18.14v.9a10,10,0,0,1-.15,1.84c0,.09-.08.48-.08.54v.12s.09.12.09.12a1.31,1.31,0,0,0,.32-.25c.12-.12.86-.94,1-1s.38-.39.38-.42a9.44,9.44,0,0,0,1-.56c.15-.06.54-.25.57-.25l.48,0,.54,0a1.63,1.63,0,0,1,.42.11,3.65,3.65,0,0,1,.73.38l.3.38c.09.12.4.69.46.77a1.48,1.48,0,0,0,.13.39,4.65,4.65,0,0,1,.16.69h.15c.18-.19,1.1-.92,1.27-1.1a8.12,8.12,0,0,1,.75-.5s.23-.12.29-.18a3.18,3.18,0,0,1,.51-.13h.57a3.8,3.8,0,0,1,.82.29c.21.12,1.06.94,1.27,1.12a5.83,5.83,0,0,1,.15,1.44c0,.09-.28,1.26-.39,1.71a3.26,3.26,0,0,0-.12.39,4.69,4.69,0,0,0-.17.67c0,.06-.26.72-.25.78a4.37,4.37,0,0,1-.12.51v.39a1.18,1.18,0,0,0,.12.27,1.31,1.31,0,0,0,.28.12,7,7,0,0,0,.71-.25l.87-.41.29-.24.3-.16.74-.4.72-.4s.26-.25.29-.25a.79.79,0,0,1,.27-.15s.12-.09.15-.12.77-.47.89-.56l.68-.49c.09-.09.8-.85.86-.94s.17-.52.23-.58.6-.16.65-.16a3,3,0,0,1,.52.14c.09,0,.3.09.3.15s0,.12,0,.18,0,.18,0,.21l-.45.4-1.12.91-1.3,1.2c-.06.06-.75.4-.81.43a5.57,5.57,0,0,0-.62.4,3.27,3.27,0,0,1-.57.25c0,.06-.38.24-.44.31s-.21.09-.24.09-.56.58-.65.58l-1.1.8c-.09,0-.53.22-.59.25a7.94,7.94,0,0,0-.84,0h-.12a3.35,3.35,0,0,0-.46-.11c-.06,0-.51-.11-.63-.11s-.39-.11-.42-.14a.83.83,0,0,0-.15-.27,6,6,0,0,1-.7-.65s-.25-.47-.31-.5-.13-.12-.13-.15a3.28,3.28,0,0,1-.15-.51C580.15,50.8,580.26,49.84,580.28,49.66Z" style="fill:#fff"/><path d="M589.83,46.53s.27-.5.36-.65l.34-.57.33-.33.69-.56a1.16,1.16,0,0,1,.37-.21,7.07,7.07,0,0,1,.81-.35c.06,0,.48-.51.54-.57l.48-.36.79-.41.57-.27a1.42,1.42,0,0,0,.36-.21h.42a2.81,2.81,0,0,0,.48.12c.09,0,.81.1.9.1s.54.3.69.36a6.38,6.38,0,0,1,.53.46,4,4,0,0,1,.36.36,4.64,4.64,0,0,1,.12.45v1a2.8,2.8,0,0,1-.21.45l-.28.33a4.48,4.48,0,0,1-.33.47,2,2,0,0,1-.21.33l-.57.45-.82.68a.75.75,0,0,0-.21.12l-.9.32a8.79,8.79,0,0,0-1,.69l-.15.33c0,.06-.07,1.32-.13,1.82V51a1.09,1.09,0,0,0,.26.6l.33,0,.33,0a1.27,1.27,0,0,0,.36-.09,5.13,5.13,0,0,0,1.15-.23l.57-.38c0-.06.18-.18.21-.24s.36-.21.51-.42c.37-.48.73-1.16.82-1.28a2.29,2.29,0,0,1,.24-.33l.45,0c.21,0,.15.24.27.27,0,.45.2,1-.43,1.44a3.12,3.12,0,0,0-.63.63,3.65,3.65,0,0,1-1.87,1.3,1.71,1.71,0,0,1-.24.21c-.06,0-.45.09-.45.09l-1,.29a3,3,0,0,1-1.2.2h-.42a6.67,6.67,0,0,1-1-.13,4.52,4.52,0,0,1-.68-.36c-.12,0-.75-.55-.93-.67a5.76,5.76,0,0,1-.42-.45c0-.06-.23-.42-.23-.45l-.09-.12-.27-.58s-.06-.21-.09-.21v-.24c0-.06-.11-.63-.11-.66V47.7C589.61,47.52,589.8,46.74,589.83,46.53ZM596.57,44a1.76,1.76,0,0,0-.33.27,10.94,10.94,0,0,0-.91.89l-.15.21s-.06.12-.09.12a.6.6,0,0,1-.13.21c-.06.21-.21.66-.21.69v1c.6-.27,1.12-.56,1.72-.89a6.16,6.16,0,0,1,.57-.32l.54-.48s.13-.09.13-.09l.12-.24.12-.09a5.3,5.3,0,0,0,.12-.6,2.28,2.28,0,0,0-.12-.33l-.23-.36-.12-.09h-.78Z" style="fill:#fff"/></g></g><g id="MILPA"><g id="Big_milpa_word" data-name="Big milpa word"><path d="M7.22,81.78S49,70.33,49,73.7s10.78,16.84,17.52,2.69S113,64.61,125.12,64.61s-4,83.87-4,103.75A28.77,28.77,0,0,0,137.58,195s-.67,51.87-3.7,54.57-13.48,2-34-7.75S77,168.36,77.62,159.6s-16.5-4.38-23.91-3-.68,55.91-.68,60-27.28,27.95-27.28,27.95-15.16-3.36-19.88-8.75S8.23,82.46,7.22,81.78Z" style="fill:#fff"/><path d="M204.61,91.22c.34-11.79-1.68-24.26-2-36.38,1-4.72,5.39-7.08,8.76-5.73,8.76-9.1,30.32-9.1,41.09-9.1,3.37,1.35,7.75-3.7,9.1-.33,0,10.44-2.36,35.7-2.36,35.7-2,31.33,2.36,54.91,4.38,85.56,1.35,19.21,1,38.41,1,57.61,0,4.71-4.71,13.13-6.06,17.85-2.7,8.42-10.78,13.14-18.87,16.17-7.07,2.69-19.53,1.35-30.31-1.69C207.31,211.14,203.26,133,204.61,91.22Zm17.85-66.7c.34-1.35,1.35-2.36,2.36-3.71,7.08-5.39,14.82,1.69,9.77,8.76a5.12,5.12,0,0,1-1.35,2c-.33.68-.67.68-.67.68C227.85,36,220.44,32.27,222.46,24.52Z" style="fill:#fff"/><path d="M320.49,31.26c-1.35,0,61.31-14.82,57.26-8.76s-18.19,158-14.82,158,70.74,0,72.76,4-1.35,30.66-1.35,30.66-19.87,36.38-24.59,40.42-88.59.67-94-.67S321.84,31.26,320.49,31.26Z" style="fill:#fff"/><path d="M470.47,229.1c-.51-27.41-9.65-113.19-10.66-121.31s41.87-5.08,53.8,2.53,23.1,13,21.07,20.56S515.13,156.51,509.55,158s-5.08,86.79-5.08,86.79-12.18,14-20.55,11.42S471,256.51,470.47,229.1Z" style="fill:#fff"/><path d="M597.87,220.72c4.31-5.58,8.37-44.92,10.91-65S623,102,622,102s43.65,89.33,44.92,92.63,12.43,52.79,10.15,56.09-18,3-19.54,0-10.16-31.47-11.42-33.25-10.16,2.54-11.93,6.35-18.53,23.09-20,23.6-25.38,5.84-28.17,5.84S593.55,226.31,597.87,220.72Z" style="fill:#fff"/></g><g id="Big_milpa_word_top" data-name="Big milpa word top"><path d="M3.93,187.59c-1-24.92-1.69-48.84,1-73.77,0-8.42,1.35-29,2.69-33.35V78.79c6.07-2.36,11.79-6.74,17.52-11.45C36.94,58.24,62.2,40.05,62.2,66c1.35,3.7,4,8.08,5.39,11.45A35.69,35.69,0,0,1,72,68.68c11.79-8.08,20.21-18.19,32.68-18.19,4.71,0,16.17,2,22.9,1,3.71-.33,6.74-.67,10.45,1.35-.34,44.13-13.14,80.51-2.36,124,3,14.49,11.11,7.75,16.84,15.84-3.7,17.51-13.47,42.1-13.81,58.94-27.29,5.06-37-7.07-47.5-21.55-8.42-11.79-12.8-50.53-12.8-77.82V138.41c-1.68,4-3,7.75-5.72,11.79-4.72,6.4-15.5,5.39-22.24,2.7a28.2,28.2,0,0,1-1.34,5.72c-5.39,18.53,6.4,38.4,4,56.59-1,7.08-20.55,24.59-23.58,32.34L8.31,237.45a13.4,13.4,0,0,0-2-.68C10.67,220.94,5.28,203.76,3.93,187.59Zm24.59,55.58c3.7-19.53-4.38-92.63,6.74-119.24,11.11,7.74,10.44,14.82,14.14,23.24,17.18,13.14,24.26-6.74,31.67-18.53.67.68,2,1,2,3-3,18.53-1.35,36.39,1.68,54.91,1.35,12.13,2.36,24.93,6.74,36.38,2.7,5.39,17.85,22.23,26.61,24.93a38.32,38.32,0,0,0,16.51.67c1-3.7-2-24.59-2.36-31.32-5.05,0-6.74-.34-8.76-2v.34c-10.1-6.74-9.77-24.59-9.77-36.38.34-38.06-3.37-72.76,5.39-107.46-3.7-.33-11.79-.33-20.21-.33-11.45,0-23.92.33-25.6,1-6.74,13.14-10.1,36.72-16.84,48.51-1.35,0-2,0-3-1C48.39,106.75,49.74,92.26,45,79.13c-8.08,2.69-25.26,5.39-33.34,3.7,2.69,39.75-8.09,79.84-1,119.58.33,7.08,4,24.93.33,32.68a1.23,1.23,0,0,1,.34,1C11.34,237.45,26.83,242.5,28.52,243.17Z" style="fill:#d91a60"/><path d="M204.35,238.79c-2.69-27.95-3-148.55-3.7-158a156.3,156.3,0,0,1,1-18.53V62a54.67,54.67,0,0,1,4.71-10.45c11.12-22.23,34-8.42,52.55-15.49,1,32.67,1.35,66.36,3.71,98.7,2,30.65,4.38,63.66-1.35,94-1.68,8.08-7.07,10.1-12.8,16.17-1.68,15.49-20.89,7.75-33,9.77C203.34,255.64,204.35,251.93,204.35,238.79Zm23.92,12.13a25.08,25.08,0,0,0,7.07.34,2.44,2.44,0,0,0,2.36-1.35c13.14-36.72,9.43-76.47,6.4-114.53-2.69-27.28-2.36-54.91-1.68-82.19-7.41,2.69-13.81,1.35-21.56,3-3,.34-5.39,1.68-8.09,3.71-2.35,1.34-4,2.69-7.07,3.36-2.7,58.28,0,115.88,2.36,173.48,0,4.72-1.69,9.44,0,14.15C214.46,253.28,222.2,248.56,228.27,250.92Zm-7.75-229.4c3.37-4.71,8.09-9.43,12.46-13.81,22.24-21.22,36.38,20.21,1.35,28h-1C223.89,37.69,216.48,27.25,220.52,21.52ZM234,20.18c-7.07-1.35-11.11,3.37-10.44,7.74,2,2.36,6.4,3.71,9.77,3.37C235,27.59,235.68,24.22,234,20.18Z" style="fill:#d91a60"/><path d="M319.22,166c-.34-43.79,1.68-86.57,1-131a3.08,3.08,0,0,1,1-2.7c19.2-17.18,36.72-19.2,61.31-21.56a9.48,9.48,0,0,1,2,1c-4.72,53.89-15.83,108.46-15.83,162.7,22.23,5.72,46.82-5.73,69.05.67,1,.67,1,1,1.68,2.36-2.35,11.11,3.37,35.7-2.69,47.83-5.39,10.44-15.5,19.54-22.57,29.31-27.62,4.38-67-1.35-95.33-2.7C315.85,252.61,319.89,186.25,319.22,166Zm91.62,87.25c0-.34.68-1,.68-1.35-3-6.74-1.69-23.24-1.35-33-2.36.34-5.73.34-9.43,1-14.49,2-48.85,12.46-51.54-6.4-3.71-49.18-.68-103.41,2.36-143.16,1.34-11.46,2.69-22.57,2.69-33.69a62.41,62.41,0,0,0-11.12-1c-3.36,0-6.73.34-10.1.34h-8.76c0,71.41-2.69,141.81-2.36,213.23C351.22,249.91,381.87,252.27,410.84,253.28Z" style="fill:#d91a60"/><path d="M473.82,246.13c-.76-24.62-2.79-48.22-5.07-72.33-2.29-23.1-3.55-45.68-4.32-68.78,9.9-9.13,23.86-19.54,32.74-19.54,10.15,0,33,9.9,45.43,15.74,13.45,7.86,14,12.43,9.64,24.87-4.56,12.94-28.17,20.81-39.08,26.64,0,1-.25,1.78-.25,2.8-2.79,25.63,6.6,49.48,6.09,75.62L505,252c0,3.55-10.91,5.32-19.29,5.32a25.32,25.32,0,0,1-8.88-1.26C473.82,254,473.82,249.17,473.82,246.13Zm9.14,8.63c3.3,0,6.6-.26,9.39-.51,6.85,0,8.88-1.52,8.88-6.35-1-11.67-2-22.84-3.3-34.51-2-20-3.8-39.59-3.8-59.64,0-3.81,8.88-1.52,11.67-2,8.88-1.52,21.83-9.9,29.69-15.23,3.56-3.55,2.54-13.2-.76-16.49-8.63-8.89-32.73-18.53-51-18.53-6.6,0-12.43,1.27-16.49,4.06.25,23.35,2.53,50.5,4.56,73.34,2,22.08,4.32,44.67,4.57,67.26C476.36,250.44,477.89,254.76,483,254.76Zm11.17-116a19.62,19.62,0,0,0-1-5.33c-.76-4.06-1.52-7.62.26-11.68,3.55-8.37,13.19,3.81,13.19,10.91,0,0-.5,0-.5.26l-3.56,3.3c-2,2-4.06,4.06-8.37,4.82Z" style="fill:#d91a60"/><path d="M585.49,252c-2.79.5-2.79-1.78-2.54-2,3.81-6.59,14-23.6,17.26-35.53,4.31-16,7.1-35,9.39-52.53,1.78-13.7,4.31-31,7.61-43.65A158.65,158.65,0,0,0,622,93.86c3.3-2,5.08-5.59,6.86-9.39,2.53-4.83,4.56-9.65,8.63-9.65a1.31,1.31,0,0,0,1,.51c16.24,31.21,23.6,65.48,36.8,97.45,3.3,8.38,14,27.92,12.44,33.5-4.32,15-4.32,32-3.56,46.45-2.54,2.79-4.82,2.53-7.61,2.28-9.9-1-16,4.82-20.81-7.36-3.3-8.12-5.59-17.76-8.12-26.65-1-3.55-2-7.36-4.06-9.39-.51-.5-2.54-.25-4.32,0a59,59,0,0,1,.26,8.12,187.89,187.89,0,0,1-19,23.61,8.42,8.42,0,0,0-4.31,3.55Zm28.68-7.36c1-4.07,1.27-7.11,2-10.92.76-3.55,1.27-7.87,2.79-14.46,3.3-13.2,21.57-14.72,26.65-9.65,4.56,5.08,6.34,13.2,8.37,21.83,1.78,8.12,3.81,16.49,7.61,21.57a45.86,45.86,0,0,0,11.68-.25c1.52-.26,7.11,0,8.12-1,0-7.36-6.6-12.43-8.63-20.05-4.31-15.48-13.2-31-19-46.44-4.57-12.94-9.39-26.65-14-39.85-5.33-16-9.39-28.67-16-44.41-1,6.09-2.54,12.94-3.81,18.53-4.06,14.21-5.83,28.42-7.61,42.89-2.28,18.27-4.57,36-9.39,53a174.59,174.59,0,0,1-10.41,25.12l-.25.26c-2.79,3.81-1.27,3.3-5.33,8.37A178.91,178.91,0,0,0,614.17,244.61Zm8.12-49.24c-1.78-1-1.78-2-1.27-2.79l.51-34.52,1.77-1.52c2.29.76,2.29,2.54,2.79,4.06A86.79,86.79,0,0,0,631.42,172c4.06,7.87,8.89,17.26,8.89,22.08L639,195.37l-15.74.25Z" style="fill:#d91a60"/></g></g></g></svg>