<svg xmlns="http://www.w3.org/2000/svg" viewBox="0 0 960 560"><g id="play-herobox"><rect id="background" x="-1.5" y="-0.27" width="962" height="560" style="fill:#253659"/><path id="Mountain_1" data-name="Mountain 1" d="M-.32,560.23H948.41L884,538c-11.44-4-23.11-8-35.21-8.3-21.62-.61-43,10.49-64.24,6.1-26.34-5.46-43.44-33-69.53-39.63-31.39-8-63.08,17-95.22,12.95-30.28-3.78-51.29-31.44-78.38-45.47-49.3-25.53-108.7-2.82-164.2-3.84-59.53-1.09-114.57-29.92-167.05-58l-66.8-35.81c-9.8-5.26-19.7-10.58-28-18-14.07-12.48-22.57-29.87-31.52-46.41s-19.31-33.33-35.44-43c-14.94-9-36.14-9.61-48.72,1.84Z" style="fill:#c7b299"/><path id="Mountain_2" data-name="Mountain 2" d="M960.8,561.21V253.88a29.26,29.26,0,0,0-18.59,4c-14.26,8.38-18.42,26.51-24.53,40.64-5.39,12.44-14.44,25.13-27.83,27.19-14.62,2.24-30.1-9-43.6-2.92-10.46,4.69-14.26,17.66-14.63,29.12s1.38,23.42-2.94,34.05c-6.62,16.3-25.48,24.18-43,25.79s-35.32-1.31-52.71,1.35c-44.5,6.8-75.72,47.45-117.2,64.92-31.68,13.36-67.33,12.38-101.68,10.9s-69.86-3.09-102,9.18c-27.78,10.62-51.13,34.63-55.77,63.13Z" style="fill:#603813"/><g id="Nopal"><g id="Tuna_4" data-name="Tuna 4"><path d="M291.23,169.44c8.14,7.47,17.53,14.24,28.4,16.22,16.39,3,32.49-5.33,47.08-13.37,12.75-7,26.15-14.68,33.24-27.4,6-10.77,6.57-23.75,5.31-36A136,136,0,0,0,372.77,34c-6.47-7.43-13.92-14.27-22.9-18.32-7.22-3.26-15.14-4.6-22.95-5.91C322.31,9,317.56,8.21,313,9.24a36,36,0,0,0-8.5,3.53l-16.95,8.79q-13.67,7.08-27.29,14.25c-3.51,1.86-7.15,3.83-9.48,7-6.9,9.49-1.58,25.08-3,36-1.33,10.56-.93,18.13,2.68,28.46C258.67,130.74,272.68,152.88,291.23,169.44Z" style="fill:#d91a60"/><path d="M401.82,105a1.64,1.64,0,0,0,2.77-1.37C401.85,78.13,389.53,53.48,372.53,34c-6.47-7.43-13.92-14.26-22.9-18.32-7.22-3.26-15.14-4.6-22.95-5.91-4.61-.77-9.36-1.54-13.92-.51a36.27,36.27,0,0,0-8.51,3.53l-16.94,8.79C278.2,26.26,269.09,31,260,35.78c-3.52,1.86-7.15,3.84-9.48,7-6.9,9.5-1.58,25.09-3,36-1.34,10.56-.93,18.13,2.68,28.46,8.18,23.39,22.19,45.53,40.74,62.09-5.38-6.77-6.57-17.42-5-25.92.84-4.47,2.68-9.1,1.23-13.41-1.24-3.71-4.64-6.25-6.53-9.67-5.32-9.61,2.42-23-3.76-32.09-3.95-5.79-12.67-8-13.05-15.86a10.81,10.81,0,0,1,4.93-9.32c6.8-4.6,14.75-3.16,22.2-1.68l29.13,5.75a11.16,11.16,0,0,0,9.18-2.11c8.16-6.56-3.08-17.83,4.85-24.37a10,10,0,0,1,8-2,56.41,56.41,0,0,1,31.76,16.89C384.74,67,390.22,82.42,395.42,97.31,396.51,100.44,399.33,102.6,401.82,105Z" style="fill:#ff7bac"/><path d="M400.12,142.48c.12,3.12-3,5.92-5.53,8.66-7.49,8-17.29,13.44-26.78,18.67-14.59,8-30.7,16.35-47.08,13.37-6.19-1.13-27.88-9.26-27.66-17.21.25-9.33,22.55-12.27,28.8-12.75,10.76-.81,21.91-.3,31.9-4.36,5.56-2.25,10.46-5.82,15.61-8.89s10.8-5.74,16.8-5.85c4.36-.08,9.43,1.46,12.37,4.85A5.6,5.6,0,0,1,400.12,142.48Z" style="fill:#9e005d"/></g><g id="Nopal-2" data-name="Nopal"><path d="M842.86,560.84h.21a407.66,407.66,0,0,0,9.52-96C850.2,357.35,796.86,249,704.91,193.3,664.44,168.79,618.3,155,571.77,146.39,509.89,135,445.47,132.61,384.46,148S266,197.74,230,249.39c-24,34.43-37.61,75.09-46.21,116.15a546.73,546.73,0,0,0-9,58.73c-4.46,45.55-3.08,92,7,136.57Z" style="fill:#324001"/><path d="M835.16,560.84a105.23,105.23,0,0,0,2.31-13.3c2.28-20.39,2.49-40.95,2.69-61.46.34-34.13.59-68.9-9.37-101.55-6.69-21.95-18.28-43.26-18.84-66.65-.2-8.09,1.34-7.69-6.19-9.63-5.73-1.48-11.68-2.06-17.42-3.62A109.91,109.91,0,0,1,756,290.31c-14.32-9.59-23.76-20.57-34-34.2-3.72-4.94-7.18-10-10.63-15.15-1.92-2.85-3.87-5.69-5.82-8.53-.12-.18-.22-.32-.32-.48-1.36-1.77-2.61-3.58-3.79-5.41-1.69-1-3.36-2-5.08-3-4.57-2.62-9.13-5.25-13.8-7.71q-3.48-1.85-7-3.55l-1.91-.88c-2.69-.68-5.6-1.23-6.18-1.43l-2.14-.44c-1.09-.08-2.18-.16-3.27-.21a127.68,127.68,0,0,0-15.9.36l-33.23,3.9a151.51,151.51,0,0,1-17.7.9c-28.07-.44-55.12-9.82-79.45-23.34-4.11-2.28-6.86-4.12-11.49-4.7a88.46,88.46,0,0,1-12.89-2.63,95.56,95.56,0,0,1-24.06-10.53,94.23,94.23,0,0,1-16.71-13.06c-2.2-2.16-4.26-5.54-6.89-7.1s-6.37-2.42-9.27-3.86A75.24,75.24,0,0,1,421,140.74q-13.25,1.84-26.35,4.7a70.55,70.55,0,0,1-20.95,18.83,69.78,69.78,0,0,1-52.26,7.21q-4.68,2.39-9.27,4.94a83.37,83.37,0,0,1,4.36,20.78c3.8,46.48-40,85.18-85.62,70.15a87,87,0,0,1-9.92-4c-18.45,31.18-29.7,66.44-37.15,102a543.86,543.86,0,0,0-9,58.73c-4.47,45.61-3.08,92.15,7,136.76Z" style="fill:#7c8c03"/><path d="M647.07,209.63c-7.89,2.05-17,4.73-23.28,10.08-5.32,4.53-11,11-11.29,18.34-.17,4.44.74,9-.26,13.3-1.81,7.9-10.69,13.45-18.57,11.53s-13.21-11-10.94-18.83,10-12.17,17.07-15.88c3.24-1.7,6.48-3.63,8.82-6.51,2.15-2.66,4.81-6.14,5.51-9.55" style="fill:#324001"/></g><g id="Black_spots" data-name="Black spots"><path d="M392.34,447.55c-1.74,2.49-3.56,5.28-3.23,8.3.45,4.07,4.48,6.62,8.09,8.56,4.66,2.51,9.78,5.1,15,4.14s9.52-5.85,10.38-11.22-1.28-10.95-5-14.91c-3.13-3.34-9.09-7.67-14-6.81C398.29,436.53,395.07,443.66,392.34,447.55Z" style="fill:#324001"/><path d="M273.89,317.29c-2,6-.71,13.4,4.34,17.2,4.17,3.15,10,3.26,15,1.47s9-5.21,12.88-8.76a25,25,0,0,0,5.52-6.5,9.58,9.58,0,0,0,.67-8.25c-1.77-3.93-6.47-5.42-10.64-6.47-5.09-1.29-12.62-5.11-17.41-2.13C279.71,306.65,275.54,312.33,273.89,317.29Z" style="fill:#324001"/><path d="M569.75,425.85c2.09,8.92,3.48,18.31,8.49,26s15.1,13,23.47,9.31c8-3.53,10.9-13.34,11.39-22s-.44-17.88,3.41-25.69c5.27-10.69,19.79-15.61,30.46-10.32s15.57,19.81,10.26,30.48c-2.08,4.2-5.41,7.64-8,11.55a37.67,37.67,0,0,0,15.88,55.1c8,3.65,17.07,4.35,25.87,5.24s17.85,2.11,25.45,6.62,13.44,13.14,12,21.87c-1.74,11-13.32,17.27-23.87,20.76-11.82,3.92-26,6.06-35.8-1.58s-11.24-21.4-17.23-32.14a41.09,41.09,0,0,0-68.13-5.52c-8.3,10.49-11.51,25-22.06,33.2-12.5,9.74-33.32,5.51-41-8.33s-.35-33.77,14.51-39.28c5.74-2.12,12-2.28,18-3.48s12.25-3.85,15.26-9.19c4.61-8.21-.32-18.32-5.17-26.39l-24.65-41c-4.34-7.22-10.14-15.32-18.56-15.37-6.5,0-11.95,4.92-18.29,6.36s-13.18-.87-18.48-4.72-9.41-9.1-13.43-14.27c-6.7-8.63-13.69-18-14.08-28.94a26.66,26.66,0,0,1,11.23-22.46c6.92-4.81,17.66-6.75,25.23-2.43,3.28,1.88,5.51,5.36,8.45,7.67,4.5,3.54,4.72,9.57,3.81,15.23-.56,3.45-1.92,6.82-1.71,10.31.25,4.31,2.9,8.15,6.09,11.07,9.7,8.87,23.8,10.59,35.59,16.39C555,405.15,567,414.13,569.75,425.85Z" style="fill:#324001"/><path d="M189.5,460.23c2.53,2.84,4.18,6.34,5.8,9.78,4.65,9.86,13.62,34.65,27.59,34.24,4.65-.14,8.94-3,11.69-6.75s4.18-8.33,5.09-12.91a69.8,69.8,0,0,0,.46-24.67c-1.12-7-3.29-14.28-1-21A16.64,16.64,0,0,1,271.5,444c.07,4.55-2,9.29-5.91,11.62-4.51,2.68-10.68,1.89-14.71,5.25-4.76,4-4,11.41-2.39,17.38s3.76,12.69.64,18.05c-1.3,2.24-3.43,4-4.23,6.47-1.33,4.06,1.63,8.53,5.48,10.39,12.35,6,27.31-2.65,38.91,6.76a18.76,18.76,0,0,1-13.93,33.21c-7-.78-12.9-5.37-17.87-10.32S248,532.32,242,528.65c-6.83-4.2-15-5.55-22.63-7.95s-15.51-6.43-19-13.68c-1.5-3.15-2.06-6.73-3.9-9.7s-5.74-5.19-8.81-3.52c-3.91,2.13-3.5,8.7-7.48,10.72-2.74,1.39-6.23-.36-7.83-3s-1.8-5.83-2-8.89c-.21-4.13-.9-7.64-.12-11.59.92-4.66,2.24-8.53,1.62-13.42a34.39,34.39,0,0,1-.67-6.61C171.9,451.91,185.57,455.39,189.5,460.23Z" style="fill:#324001"/><path d="M711.21,356.55a18.38,18.38,0,0,0,15.32,8.9,16.73,16.73,0,0,0,14.94-9.21c4.79-10.1-3.65-23-15.08-22.14C715.26,334.93,704.68,345.68,711.21,356.55Z" style="fill:#324001"/><path d="M205.9,336.37a18.44,18.44,0,0,0,15.88-7.88,16.76,16.76,0,0,0,.53-17.55c-5.79-9.56-21.19-9.62-26.78.4C190.09,321.08,193.23,335.83,205.9,336.37Z" style="fill:#324001"/><path d="M456.3,259.38c-.82,4.52.78,9.23,3.46,13s6.33,6.64,10.05,9.34c4.51,3.29,9.65,6.47,15.22,6.09,6.18-.41,11.49-5.52,13-11.52C504,252.65,460.9,234.16,456.3,259.38Z" style="fill:#324001"/><path d="M388.18,216.91c.15,10.33,9.52,19.64,19.86,19.73s19.86-9.06,20.19-19.39c.24-7.47-3.65-14.39-7.43-20.85-1.47-2.52-3-5.13-5.46-6.76-9.5-6.37-9.45,8.18-14,12C395.07,206.94,388,205.68,388.18,216.91Z" style="fill:#324001"/><path d="M799.21,332.13a25,25,0,0,0,18.58,19.11c3.93.89,8.93.26,10.61-3.4,1.24-2.73.06-5.9-1.13-8.65l-9.84-23C809.09,296.79,796.9,320.44,799.21,332.13Z" style="fill:#324001"/><path d="M779.73,430.94c-3.36,3.54-4.59,8.54-5.7,13.29-1.79,7.7-3.45,16.37.78,23,4.36,6.91,13.24,9,20.32,13.1a37.17,37.17,0,0,1,17.73,25c3.06-1.35,4.95-4.58,5.55-7.87s.14-6.67-.34-10L813.69,457c-.78-5.48-1.64-11.16-4.69-15.78C804,433.6,787.81,422.38,779.73,430.94Z" style="fill:#324001"/><path d="M830.11,550.59c0,2.62.11,5.32,1.14,7.73a8.65,8.65,0,0,0,1.67,2.52h8.56a8.46,8.46,0,0,0,1.47-2,20.42,20.42,0,0,0,1.76-7.13c.88-7.3,3.06-15,2.55-22.33a25,25,0,0,0-1.59-8.52c-1.17-2.65-3.52-5-6.41-5.3-3.52-.39-6.78,2.34-8.18,5.6s-1.37,6.92-1.3,10.46Z" style="fill:#324001"/><ellipse cx="289.88" cy="320.48" rx="10.18" ry="8.46" transform="translate(-141.71 298.84) rotate(-45)" style="stroke:#000;stroke-miterlimit:10"/><ellipse cx="536.92" cy="525.54" rx="6" ry="7.2" style="stroke:#000;stroke-miterlimit:10"/><ellipse cx="675.49" cy="531.26" rx="5.32" ry="5.06" transform="translate(-51.58 989.4) rotate(-70.4)" style="stroke:#000;stroke-miterlimit:10"/><ellipse cx="637.57" cy="422.87" rx="5.88" ry="4.94" transform="translate(98.25 965.49) rotate(-78.73)" style="stroke:#000;stroke-miterlimit:10"/><ellipse cx="726.06" cy="349.29" rx="6.21" ry="6.26" transform="translate(-62.12 516.42) rotate(-37.66)" style="stroke:#000;stroke-miterlimit:10"/><ellipse cx="791.46" cy="454.78" rx="5.7" ry="6" style="stroke:#000;stroke-miterlimit:10"/><ellipse cx="843.35" cy="543.05" rx="6.69" ry="10.52" transform="translate(-56.49 99.84) rotate(-6.56)" style="stroke:#000;stroke-miterlimit:10"/><ellipse cx="817.91" cy="327.7" rx="5.11" ry="10.52" transform="translate(-61.05 389.21) rotate(-25.84)" style="stroke:#000;stroke-miterlimit:10"/><ellipse cx="598.15" cy="246.79" rx="4.23" ry="5.73" transform="translate(233.08 781.02) rotate(-78.07)" style="stroke:#000;stroke-miterlimit:10"/><ellipse cx="659.04" cy="191.39" rx="4.93" ry="9.14" transform="translate(291.43 770.9) rotate(-73.8)" style="stroke:#000;stroke-miterlimit:10"/><ellipse cx="275.02" cy="528.42" rx="7.88" ry="6.63" transform="translate(-314.33 615.19) rotate(-70.88)" style="stroke:#000;stroke-miterlimit:10"/><ellipse cx="255.84" cy="442.07" rx="7.88" ry="6.63" transform="translate(-245.64 539) rotate(-70.88)" style="stroke:#000;stroke-miterlimit:10"/><ellipse cx="405.44" cy="451.1" rx="6.95" ry="6.01" transform="translate(-194.39 540.95) rotate(-56.57)" style="stroke:#000;stroke-miterlimit:10"/><ellipse cx="483.8" cy="363.14" rx="8.92" ry="6.91" transform="translate(50.15 784.9) rotate(-81.1)" style="stroke:#000;stroke-miterlimit:10"/><ellipse cx="177.31" cy="476.87" rx="7.83" ry="13.64" transform="translate(-19.91 7.88) rotate(-2.41)" style="stroke:#000;stroke-miterlimit:10"/><ellipse cx="201.59" cy="318.62" rx="13.53" ry="7.24" transform="translate(-156.6 436.34) rotate(-75.87)" style="stroke:#000;stroke-miterlimit:10"/><ellipse cx="405.54" cy="215.79" rx="6.33" ry="6.65" transform="translate(-51.8 259.02) rotate(-33.42)" style="stroke:#000;stroke-miterlimit:10"/><ellipse cx="479.64" cy="266.96" rx="5.27" ry="5.34" transform="translate(70.3 632.7) rotate(-70.88)" style="stroke:#000;stroke-miterlimit:10"/></g><g id="Espinas"><path d="M403.45,451.72c-1.27-1-2.48-2-3.69-3.1s-2.25-2.31-3.34-3.5-2-2.53-3-3.8l-2.68-4c-.79-1.42-1.57-2.84-2.31-4.28s-1.28-3-1.89-4.48L385,423.91l-1.27-4.67a82.57,82.57,0,0,1-2.43-19.07,74.73,74.73,0,0,1,2.35-18.93l.39.08a78.75,78.75,0,0,0-.74,18.77,79.84,79.84,0,0,0,3.51,18.29l1.55,4.38,1.83,4.25q1,2.08,2,4.18t2.05,4.14l2.17,4.09c.77,1.34,1.58,2.67,2.32,4s1.66,2.64,2.47,4,1.76,2.61,2.58,4Z" style="fill:#fcee21"/><path d="M403.65,216c-1,1.53-2.12,3-3.2,4.41s-2,3-3,4.47-1.84,3.06-2.75,4.57l-2.51,4.68q-1.12,2.42-2.31,4.77c-.69,1.63-1.41,3.24-2.15,4.85l-1.92,5-1.55,5.1a79.14,79.14,0,0,0-2.58,21.2A75.28,75.28,0,0,0,385,296.26l-.37.13a72.86,72.86,0,0,1-4.89-21.32,81.41,81.41,0,0,1,1.47-22l1.27-5.41,1.61-5.34q1-2.59,2.07-5.18c.83-1.67,1.7-3.31,2.58-4.95l3.05-4.67c1.16-1.46,2.29-2.93,3.47-4.35s2.57-2.68,3.87-4,2.82-2.39,4.29-3.5Z" style="fill:#fcee21"/><path d="M404.71,448.92a81,81,0,0,0-17.86,12.47,71.06,71.06,0,0,0-13.66,16.68,63.77,63.77,0,0,0-6.95,42.36l-.29.06a62.69,62.69,0,0,1,5.13-43.56,56.79,56.79,0,0,1,13.78-17.79,51.62,51.62,0,0,1,19.74-10.5Z" style="fill:#fcee21"/><path d="M288.45,321.05a31.23,31.23,0,0,1-9.11-9,37,37,0,0,1-5.08-11.81,43.65,43.65,0,0,1-1.37-12.71,39.31,39.31,0,0,1,2.57-12.43l.15.19-1.34.11,0-.2,1.34-.19.22,0-.07.22a39.6,39.6,0,0,0-1.8,12.35,42.63,42.63,0,0,0,1.9,12.25A53.57,53.57,0,0,0,281,311a55.41,55.41,0,0,0,7.57,9.88Z" style="fill:#d9e021"/><path d="M290,321c-7.14,1.48-14.22,2.83-21.24,4.44s-14.07,3-21,5a220.31,220.31,0,0,0-40.16,16.16l-.14-.26a202.24,202.24,0,0,1,19.26-10.2,209.08,209.08,0,0,1,20.33-8,142.29,142.29,0,0,1,21.13-5.69,112.94,112.94,0,0,1,21.79-1.8Z" style="fill:#d9e021"/><path d="M287.25,320.51c-1.52,3.82-3.08,7.55-4.48,11.35s-2.91,7.53-4,11.43a102.37,102.37,0,0,0-3.92,24h-.2a94.92,94.92,0,0,1,.46-12.27,98.47,98.47,0,0,1,2.11-12.14,67.64,67.64,0,0,1,3.73-11.77,54.31,54.31,0,0,1,6.15-10.69Z" style="fill:#d9e021"/><path d="M198.4,316.72a127,127,0,0,1-17-11.88,169.31,169.31,0,0,1-15-14.33q-7.19-7.49-13.79-15.46c-4.37-5.35-8.57-10.83-12.49-16.5l.24-.17c4.3,5.37,8.74,10.63,13.38,15.69s9.4,10,14.36,14.74,10.23,9.12,15.26,13.76,10.2,9.15,15.24,13.91Z" style="fill:#d9e021"/><path d="M200,319.64a148.87,148.87,0,0,0-20,8.11,124.57,124.57,0,0,0-18.49,10.9,98.8,98.8,0,0,0-15.86,14.6A94.17,94.17,0,0,0,133.17,371l-.27-.13a95.15,95.15,0,0,1,11.51-18.59A100.73,100.73,0,0,1,160,336.74,82.48,82.48,0,0,1,178.65,325a69.73,69.73,0,0,1,21.24-5.68Z" style="fill:#d9e021"/><path d="M479.1,266.05a25.82,25.82,0,0,1,.74-4.64,42.71,42.71,0,0,1,1.3-4.39,28.34,28.34,0,0,1,1.86-4.13c.74-1.32,1.49-2.64,2.18-4q2.07-4,4.23-8c1.47-2.64,2.89-5.32,4.41-7.94l.36.16c-.93,2.9-2,5.74-2.95,8.62s-2.06,5.7-3.14,8.53c-.53,1.41-1,2.86-1.49,4.3a28.37,28.37,0,0,1-1.82,4.15,42.18,42.18,0,0,1-2.38,3.89,25.75,25.75,0,0,1-2.94,3.64Z" style="fill:#d9e021"/><path d="M480.46,266.55a78.66,78.66,0,0,1-9.74-1.11c-3.22-.52-6.35-1.44-9.52-2.19L451.71,261l-9.47-2.38,0-.2,9.63,1.6,9.62,1.7c3.2.57,6.44,1,9.6,1.79a79.51,79.51,0,0,1,9.37,2.87Z" style="fill:#d9e021"/><path d="M483.35,361.3c-9-3.69-17.84-7.31-26.88-10.55s-18.05-6.5-27.32-9.05A262.14,262.14,0,0,0,401,335.58a255.44,255.44,0,0,0-28.72-3.11v-.3a257.06,257.06,0,0,1,28.93,1.92,261.61,261.61,0,0,1,28.55,5.29A198.32,198.32,0,0,1,457.54,348,164.61,164.61,0,0,1,483.48,361Z" style="fill:#d9e021"/><path d="M725.27,349.18c2.22,6,4.24,12,6.45,18s4.17,11.94,6.66,17.77,5.25,11.55,8.3,17.12,6.34,11,9.88,16.32l-.25.18a180.31,180.31,0,0,1-10.93-15.75,191,191,0,0,1-9.18-16.88,125.56,125.56,0,0,1-7.33-17.81A96.86,96.86,0,0,1,725,349.25Z" style="fill:#d9e021"/><path d="M845.32,543.27a16.64,16.64,0,0,1,2.92,1.24,25.65,25.65,0,0,1,2.64,1.59,35.67,35.67,0,0,1,4.51,4.1q2.24,2.09,4.42,4.22c1.44,1.45,2.9,2.86,4.32,4.33l-.19.24c-1.72-1.11-3.39-2.28-5.09-3.41s-3.34-2.33-5-3.52a37.16,37.16,0,0,1-4.89-3.64,26.42,26.42,0,0,1-2.07-2.28,16,16,0,0,1-1.77-2.64Z" style="fill:#d9e021"/><path d="M794,454.19a81.78,81.78,0,0,1,7.69-9.69,104.54,104.54,0,0,1,9-8.51q4.65-4.07,9.51-7.87c3.25-2.53,6.59-4.93,10-7.25l.49-.34-.25.53-.81,1.66-.18-.09.7-1.7.24.19c-3.24,2.52-6.4,5.14-9.49,7.82s-6.14,5.42-9.07,8.27-5.72,5.84-8.68,8.66-5.86,5.7-9,8.45Z" style="fill:#d9e021"/><path d="M789.32,457.68a76.34,76.34,0,0,0,8.12,9.71c.76.71,1.51,1.42,2.23,2.16s1.55,1.38,2.3,2.1l2.39,2,2.53,1.84A45.49,45.49,0,0,0,818.21,481a43.36,43.36,0,0,0,12.51,2.13h.56l-.36.39-1.28,1.38-.23-.19,1.13-1.5.19.4a42,42,0,0,1-13-1.09,47.63,47.63,0,0,1-12.18-4.88l-2.83-1.72L800.05,474c-.85-.7-1.7-1.42-2.52-2.17s-1.53-1.61-2.27-2.43a30.2,30.2,0,0,1-6.21-11.57Z" style="fill:#d9e021"/><path d="M599,248.36c-3.44-3.2-6.8-6.4-10.27-9.49s-6.88-6.21-10.51-9.12a133.42,133.42,0,0,0-11.34-8.11,138.3,138.3,0,0,0-12.13-6.95l.23-.24,1.26,2.39-.18.1-1.38-2.32-.28-.47.5.23a124.84,124.84,0,0,1,12.54,6.34,136.36,136.36,0,0,1,11.79,7.71,88.19,88.19,0,0,1,10.84,9,74.8,74.8,0,0,1,9.08,10.78Z" style="fill:#d9e021"/><path d="M676.7,530.36a70.19,70.19,0,0,0-11.32,2.38,60.89,60.89,0,0,0-10.68,4.16,46.73,46.73,0,0,0-9.42,6.64,43.73,43.73,0,0,0-7.53,8.84l-.17-.11a44.14,44.14,0,0,1,7-9.45,47,47,0,0,1,9.33-7.31,38.48,38.48,0,0,1,10.94-4.7,31.74,31.74,0,0,1,11.84-.65Z" style="fill:#d9e021"/><path d="M676,532.25c-.3,2.34-.67,4.56-.9,6.8s-.62,4.44-.65,6.7a37.53,37.53,0,0,0,.52,6.77,38.8,38.8,0,0,0,1.68,6.65l-.18.08a35.61,35.61,0,0,1-2.48-6.52,38.51,38.51,0,0,1-1.14-6.94,24.66,24.66,0,0,1,.28-7.07,18.56,18.56,0,0,1,2.69-6.54Z" style="fill:#d9e021"/><path d="M639.17,420.34a63.92,63.92,0,0,1-11-22.78,70.07,70.07,0,0,1-1.67-25.39,78.78,78.78,0,0,1,6.7-24.43,78,78,0,0,1,14.11-20.83l.22.2a78.93,78.93,0,0,0-18.64,45.27A87.58,87.58,0,0,0,631,396.86a99.84,99.84,0,0,0,8.38,23.32Z" style="fill:#d9e021"/><path d="M536.77,520.65l-9.88-8.36c-3.31-2.73-6.56-5.53-10-8.17S510,499,506.35,496.74s-7.37-4.48-11.21-6.46l.24-.35,3,2.69-.13.16-3.15-2.53-1.33-1.06,1.56.71a127.35,127.35,0,0,1,11.6,5.87c3.77,2.15,7.44,4.49,11,7a85.75,85.75,0,0,1,10.23,8.09,73.62,73.62,0,0,1,8.75,9.67Z" style="fill:#d9e021"/><path d="M537.17,525.45c-1.79,2.11-3.67,4-5.53,6s-3.89,3.71-5.73,5.69-3.61,4-5.28,6.15-3.27,4.32-4.79,6.58l-.17-.11c1.25-2.42,2.66-4.76,4.15-7.06s3.16-4.48,4.89-6.61a46.43,46.43,0,0,1,5.55-6.09,33.56,33.56,0,0,1,6.79-4.7Z" style="fill:#d9e021"/><path d="M657.4,190.48a62,62,0,0,1,9.09-5.79,106.8,106.8,0,0,1,9.79-4.31l9.86-4.16c3.31-1.35,6.6-2.73,9.92-4l.13.28c-3.12,1.74-6.27,3.4-9.41,5.11l-9.47,5c-3.17,1.65-6.22,3.52-9.54,4.85a62.26,62.26,0,0,1-10.24,3.35Z" style="fill:#d9e021"/><path d="M175.57,477.86a111.23,111.23,0,0,0-25.18,11.87,110,110,0,0,0-21.46,17.51,96.32,96.32,0,0,0-15.79,22.88,88.23,88.23,0,0,0-8.45,26.62l-.29,0a89,89,0,0,1,7.38-27.22,98.08,98.08,0,0,1,15.36-23.85,87.66,87.66,0,0,1,21.69-18.46,74.48,74.48,0,0,1,26.67-9.6Z" style="fill:#d9e021"/><path d="M175.22,472.43a38,38,0,0,1-7.7-8.61,50.32,50.32,0,0,1-5-10.39,84,84,0,0,1-3.42-11,77.66,77.66,0,0,1-1.73-11.31l.3,0A89.69,89.69,0,0,0,160.51,442a83.55,83.55,0,0,0,4.18,10.44c1.61,3.38,3.66,6.5,5.39,9.79s3.63,6.52,5.37,10Z" style="fill:#d9e021"/><path d="M175.55,474a114.38,114.38,0,0,1-17.42,3.6,164.33,164.33,0,0,1-17.74,1.09q-8.88.24-17.75.05c-5.92-.18-11.82-.46-17.71-1v-.3c5.91,0,11.8,0,17.69-.23s11.77-.49,17.63-1S152,475,157.82,474.6s11.73-.84,17.69-.92Z" style="fill:#d9e021"/><path d="M252.34,441.93A88.31,88.31,0,0,1,236.2,427a103.63,103.63,0,0,1-12.15-18.39,127,127,0,0,1-8.75-20.18,39.93,39.93,0,0,1-1.93-10.89,19.06,19.06,0,0,1,2.73-10.59l.25.16a18.51,18.51,0,0,0-2.08,10.4,39,39,0,0,0,2.45,10.44c1.23,3.37,2.75,6.68,4.28,9.94s3.29,6.44,5.14,9.54,3.82,6.12,6,9,4.26,5.81,6.45,8.66,4.48,5.64,6.8,8.42,4.77,5.45,7.2,8.19Z" style="fill:#d9e021"/><path d="M257,441.1a81.25,81.25,0,0,1,12.27-20.45,95.68,95.68,0,0,1,17.5-16.32A115.91,115.91,0,0,1,307.2,392.1a110,110,0,0,1,22.53-7.49l.07.29a109.47,109.47,0,0,0-21.94,8.55,113.48,113.48,0,0,0-19.66,12.78,144,144,0,0,0-16.68,16.36,170.36,170.36,0,0,0-14.29,18.65Z" style="fill:#d9e021"/><path d="M273.52,527.4a49.58,49.58,0,0,1,4.93,7.4c1.46,2.54,2.41,5.33,3.63,8s2.45,5.33,3.72,8,2.53,5.3,3.8,8l-.26.15c-1.68-2.42-3.27-4.9-4.86-7.39s-3.05-5-4.53-7.6a61,61,0,0,1-4.21-7.79,38.56,38.56,0,0,1-2.5-8.58Z" style="fill:#d9e021"/><path d="M817.83,325.61A156,156,0,0,1,832,317.35q3.63-1.91,7.35-3.58l7.49-3.29,14.94-6.68,15-6.59,1.57-.7-1.26,1.14-2.39,2.15-.21-.21,2.21-2.33.31.44-14.51,7.56-14.56,7.47-7.25,3.78q-3.64,1.86-7.4,3.49A156.08,156.08,0,0,1,818,325.89Z" style="fill:#d9e021"/><path d="M818.53,327.79A123.59,123.59,0,0,1,836,333.41a175.51,175.51,0,0,1,16.53,8q8.13,4.23,16.05,8.85c5.24,3.12,10.44,6.33,15.51,9.73l-.16.25c-5.31-3-10.65-5.91-16.08-8.66s-10.86-5.48-16.38-8-11.18-4.74-16.66-7.35-11-5.17-16.4-8.1Z" style="fill:#d9e021"/></g><g id="Tuna_1" data-name="Tuna 1"><path d="M722.71,122.44c2.06-10.71,5-21.45,10.69-30.75S748,74.61,758.6,72.15c7.09-1.63,14.49-.84,21.72-.05l43.53,4.8c12.18,1.34,24.95,2.9,34.94,10,13.57,9.65,18.84,27.32,20.3,43.9,4.54,51.46-21.23,104.47-64.5,132.7-12,7.82-25.58,13.93-39.89,14.45-10.7.39-23.73-2.78-31.49-10.69-5.92-6-8-16.81-10.8-24.56a228.8,228.8,0,0,1-13.69-75.77A223.64,223.64,0,0,1,722.71,122.44Z" style="fill:#d91a60"/><path d="M875.25,132.1a4.06,4.06,0,0,0,3.48-4.33c-1-15.26-7.36-32.16-20.19-41.27-10-7.11-22.76-8.66-34.94-10L780.08,71.7c-7.24-.8-14.63-1.58-21.72,0C747.72,74.2,739.22,82.2,733.5,91.5c1.87,3.44,7.89,3.52,11.59,2.21s6.55-4.23,9.38-6.94,6-5.42,9.82-6.16c6.37-1.23,12.35,3.22,17,7.74s9.51,9.71,16,10.49c4.58.55,9.06-1.28,13.58-2.21s9.93-.64,12.77,3c3.8,4.86,1.29,13.51,6.49,16.82s12-2.55,15.23-6.71a12.33,12.33,0,0,1,6.46-4.45c7.53-2,10.68,4.54,11.33,10.23.49,4.29.2,8.88,2.29,12.66C866.87,130.85,871.63,132.53,875.25,132.1Z" style="fill:#ff7bac"/><path d="M877.69,165.56C871.23,205.09,848.16,242,814.52,264c-12,7.83-25.58,13.94-39.89,14.45a51.25,51.25,0,0,1-10.2-.66,48.67,48.67,0,0,1-8-2,33.66,33.66,0,0,1-7.65-3.67,31.08,31.08,0,0,1-7.8-7.46,7.8,7.8,0,0,1-1.1-2.1,2.76,2.76,0,0,1-.27-1.49,1,1,0,0,1,1-.69,7.68,7.68,0,0,1,2.49.82,46.08,46.08,0,0,0,10.36,2.25c1.78.26,3.58.32,5.36.53a32.3,32.3,0,0,0,5.29.22,33.88,33.88,0,0,0,10.36-2.05c.91-.33,1.8-.69,2.71-1a21.27,21.27,0,0,0,10-7.5,27.14,27.14,0,0,0,4.51-11.23,9.59,9.59,0,0,1,10.65-8.05c6.35.77,13.09-1.2,17.48-5.89,5.88-6.26,7.17-15.42,10.72-23.24a42.59,42.59,0,0,1,24-21.86c4.48-1.65,11.11-1.08,14.94-3.72S875.67,169.43,877.69,165.56Z" style="fill:#9e005d"/></g><g id="Tuna_2" data-name="Tuna 2"><path d="M695.26-.76H552.54c-2,.07-4,.08-6,0H531.4a187.22,187.22,0,0,0-3.66,34.61,190.8,190.8,0,0,0,16.43,79.91c4.14,9.25,9.75,17.66,13.54,27.05,4.71,11.69,10.43,21.8,21.22,28.95a52.4,52.4,0,0,0,44.32,6.12c14-4.5,25.42-14.75,35-25.93A177.71,177.71,0,0,0,700.39,33.39,119.64,119.64,0,0,0,695.26-.76Z" style="fill:#d91a60"/><path d="M552.54-.76c-2,.07-4,.08-6,0H530.91a187.71,187.71,0,0,0-3.4,33.27,190.68,190.68,0,0,0,16.43,79.91c2.8-5.46,6.72-12.07,9.52-17.53,2.34-4.56,4.71-9.21,5.53-14.26,2.21-13.63-7-26.1-12.24-38.88-2.27-5.52-3.21-13.14,1.84-16.31,3.24-2,7.58-1.09,10.82.93s5.81,4.94,8.86,7.22c10.58,7.91,27.08,6.31,35.94-3.48,7.58-8.38,9.17-20.56,13.72-30.87Z" style="fill:#ff7bac"/><path d="M688.68-.76c.62.76,1.23,1.53,1.81,2.32a53,53,0,0,1,9.31,22.23A115.11,115.11,0,0,0,695.44-.76Z" style="fill:#ff7bac"/><path d="M700.16,32a34.87,34.87,0,0,0-.36-8.25C700,26.55,700.13,29.31,700.16,32Z" style="fill:#ff7bac"/><path d="M695.47,37.92a3,3,0,0,1,4.94,2.31A177.94,177.94,0,0,1,658.29,150c-9.55,11.17-21,21.42-35,25.92A52.4,52.4,0,0,1,579,169.78c-10.8-7.16-16.52-17.27-21.23-29a167.58,167.58,0,0,0-8.24-16.54,3,3,0,0,1,4.41-3.84,61.61,61.61,0,0,1,12.69,12.24c4.48,5.89,8.24,12.32,12.81,18.14s10.15,11.14,17,13.83,15.32,2.32,21.08-2.34a15.73,15.73,0,0,0,5.55-13.38,7.51,7.51,0,0,1,5.76-8.14,89.81,89.81,0,0,0,16.07-5c7.74-3.36,14.94-8.58,19.19-15.87s5.13-16.85.88-24.15c-2.87-5-7.93-8.84-9-14.46-1.34-7.24,4.47-13.65,9.81-18.72C674.7,54.22,685.91,46.19,695.47,37.92Z" style="fill:#9e005d"/></g><g id="Tuna_3" data-name="Tuna 3"><path d="M366.19-.76c1.75,9.21,8.51,19.41,12,26.32a384.71,384.71,0,0,0,49,74.4A383,383,0,0,0,461,135.34c9.31,8.56,19.25,16.79,30.95,21.59s25.52,5.8,36.77,0c17.18-8.82,23.56-30,25.93-49.16A244.36,244.36,0,0,0,543.26-.76Z" style="fill:#d91a60"/><path d="M535.85-.76a67.09,67.09,0,0,1,1.37,19C536.12,29.55,530.64,40,524,49.12s-14.59,17.32-21.53,26.27C498,81.06,493.83,88.12,495.78,95s8.92,10.58,15.4,13.3,13.64,5.57,16.91,11.79c3.54,6.73.81,15.72-5.27,20.3s-14.63,5-21.72,2.26c-6.93-2.71-12.52-8.1-19.36-11s-16.32-1.92-19.69,4.72c9.31,8.56,19.26,16.79,31,21.59s25.52,5.8,36.77,0c17.17-8.82,23.56-30,25.93-49.16A244.33,244.33,0,0,0,544-.76Z" style="fill:#9e005d"/><path d="M408.42,41.05c0-3.49,1.2-6.88,1.51-10.36.78-8.72-4-16.8-7.7-24.75a50.65,50.65,0,0,1-2.55-6.7H366c1.5,9.41,8.55,20,12.13,27.12a385.83,385.83,0,0,0,49,74.4c10.49,12.5,22.79,24.32,34.8,35.37-11.74-26.44-25.35-54.08-43.84-76.34C413.48,54.27,408.44,48.23,408.42,41.05Z" style="fill:#ff7bac"/></g><g id="Tuna_5" data-name="Tuna 5"><path d="M148.9,129.44c6-14.26,21.19-23.41,36.61-24.64s30.8,4.55,43.44,13.46,22.89,20.78,32.42,33c8.9,11.39,17.46,23.5,21.32,37.43s2.26,30.14-7.4,40.9c-7.47,8.32-18.62,12.32-29.58,14.57a130,130,0,0,1-85.58-11.95c-16.67-8.7-46.48-31-43.45-53.15,1.66-12.11,14.19-12.7,21.18-20.32C145.05,150.88,145,138.84,148.9,129.44Z" style="fill:#d91a60"/><path d="M259.16,195.79a5.3,5.3,0,0,0,6.92-3.79,42.62,42.62,0,0,0,1.2-8.2c.07-2.81,2.69-6.13,5.56-6.49,3.43-.44,6.42,2.25,7.66,5.19a70,70,0,0,1,4,11c1.21,4.22.72,8.47.4,12.85-.61,8.45-3.5,16.84-9.22,23.2-7.47,8.32-18.62,12.32-29.58,14.58a130.07,130.07,0,0,1-85.57-12h0c6.64-5.66,15.39-9.37,23.91-7.46,2.55.57,5,1.5,7.65,1.7,3.72.27,8-1.28,8.25-6.06a8.29,8.29,0,0,0-1-4.3c-2.15-4-6.22-6.14-9.36-9.22a11.69,11.69,0,0,1-3.74-7.11,4,4,0,0,1,2-3.72c4.07-2.36,9.65-1.65,14.12.29,6.74,2.93,12.48,8.16,20.38,8.23a10.79,10.79,0,0,0,6.18-1.77c5.77-3.92,4.58-10.2,2.42-15.27-2-4.71-4.83-9.3-3.6-14.72a7.09,7.09,0,0,1,3.18-4.57c4.58-2.72,8.8.92,10.5,4.93,1.35,3.18,1.64,6.71,2.84,9.95C246.23,188.37,252.86,193.55,259.16,195.79Z" style="fill:#9e005d"/><path d="M246.59,243.27a.38.38,0,0,1,0,.74c-24.09,6.27-61.27,1.86-86.65-11.37-16.68-8.7-46.49-31-43.45-53.15,1.65-12.11,12.66-12.68,20-20,8-8,8.3-20.19,12.25-29.6,7,5.35,7,15.72,5.3,24.34s-5.26,17.09-4.53,25.85c.92,11.12,8.53,20.51,16.72,28.08C186.86,227.2,218.53,239.75,246.59,243.27Z" style="fill:#ff7bac"/></g></g></g></svg>