<svg xmlns="http://www.w3.org/2000/svg" viewBox="0 0 50 50"><g id="leaderboard-button-pressed"><g id="button-pressed"><polyline points="7.02 41.5 7.02 12.33 44.31 12.33 44.31 45 9.89 45" style="opacity:0.28"/><polyline points="12.34 36.19 12.34 8.31 7.03 8.31 7.03 41.5" style="fill:#d62d7a"/><polyline points="7.03 8.31 8.34 8.31 8.34 7" style="fill:#d62d7a"/><polyline points="12.34 36.19 12.34 41.5 6.95 41.5" style="fill:#871242"/><path d="M41.5,40.16,40.14,41.5H12.34V36.19H41.53" style="fill:#871242"/><rect x="8.34" y="7" width="33.19" height="33.19" style="fill:#d91a60"/></g><path id="trophy" d="M32.9,16.79H30.1v-.85a.68.68,0,0,0-.68-.68H19.93a.68.68,0,0,0-.68.68v.85h-2.8a.59.59,0,0,0-.59.59h0a6.7,6.7,0,0,0,1,3.83,3.44,3.44,0,0,0,2.38,1.71.36.36,0,0,1,.27.21,4.59,4.59,0,0,0,2.16,2.21,8.28,8.28,0,0,0,2.19.92.33.33,0,0,1,.27.33V30a.34.34,0,0,1-.34.34H21a.61.61,0,0,0-.61.57.59.59,0,0,0,.56.62h7.47A.61.61,0,0,0,29,31a.59.59,0,0,0-.56-.62H25.61a.34.34,0,0,1-.34-.34V26.59a.34.34,0,0,1,.27-.33,8.74,8.74,0,0,0,2.19-.91,4.61,4.61,0,0,0,2.16-2.22.33.33,0,0,1,.27-.2,3.47,3.47,0,0,0,2.38-1.71,6.81,6.81,0,0,0,1-3.84h0A.58.58,0,0,0,32.9,16.79ZM19.25,21.48a.18.18,0,0,1-.17.17H19a2.52,2.52,0,0,1-1.3-1.23,4.45,4.45,0,0,1-.64-2.07.34.34,0,0,1,.31-.36h1.52a.35.35,0,0,1,.34.34Zm12.38-1.07a2.52,2.52,0,0,1-1.3,1.23.18.18,0,0,1-.22-.11.07.07,0,0,1,0-.05V18.31a.34.34,0,0,1,.34-.34h1.49a.34.34,0,0,1,.34.34v0A4.48,4.48,0,0,1,31.63,20.41Z" style="fill:#c7b299;stroke:#c7b299;stroke-miterlimit:10;stroke-width:0.75px"/></g></svg>