<svg xmlns="http://www.w3.org/2000/svg" viewBox="0 0 50 50"><g id="leaderboard-button"><g id="button"><polyline points="7.08 41.5 7.08 12.33 50.24 12.33 50.24 45 10.4 45" style="opacity:0.28"/><polyline points="12.4 36.19 12.4 8.31 7.09 8.31 7.09 41.5" style="fill:#d62d7a"/><polyline points="7.09 8.31 12.4 8.31 12.4 3" style="fill:#d62d7a"/><polyline points="12.4 36.19 12.4 41.5 7 41.5" style="fill:#871242"/><polyline points="40.19 41.5 12.4 41.5 12.4 36.19 45.59 36.19" style="fill:#871242"/><rect x="12.4" y="3" width="33.19" height="33.19" style="fill:#d91a60"/></g><path id="trophy" d="M37.4,12.69H34.6v-.85a.67.67,0,0,0-.68-.67H24.43a.67.67,0,0,0-.68.67v.85H21a.59.59,0,0,0-.59.59h0a6.73,6.73,0,0,0,1,3.84,3.43,3.43,0,0,0,2.38,1.7A.33.33,0,0,1,24,19a4.61,4.61,0,0,0,2.17,2.21,8,8,0,0,0,2.19.92.33.33,0,0,1,.26.33v3.43a.35.35,0,0,1-.33.34H25.47a.6.6,0,0,0-.61.56.58.58,0,0,0,.56.62h7.47a.6.6,0,0,0,.61-.56.59.59,0,0,0-.56-.62H30.11a.35.35,0,0,1-.34-.34V22.5a.33.33,0,0,1,.26-.33,8.48,8.48,0,0,0,2.2-.92A4.63,4.63,0,0,0,34.39,19a.37.37,0,0,1,.26-.21A3.44,3.44,0,0,0,37,17.12a6.81,6.81,0,0,0,1-3.84h0A.6.6,0,0,0,37.4,12.69ZM23.75,17.38a.18.18,0,0,1-.17.17h-.06a2.5,2.5,0,0,1-1.3-1.22,4.48,4.48,0,0,1-.64-2.07.35.35,0,0,1,.31-.37h1.52a.34.34,0,0,1,.34.34Zm12.38-1.06a2.5,2.5,0,0,1-1.3,1.22.17.17,0,0,1-.22-.1.13.13,0,0,1,0-.06V14.22a.34.34,0,0,1,.34-.34h1.49a.34.34,0,0,1,.34.34v0A4.73,4.73,0,0,1,36.13,16.32Z" style="fill:#c7b299;stroke:#c7b299;stroke-miterlimit:10;stroke-width:0.75px"/></g></svg>