<svg xmlns="http://www.w3.org/2000/svg" viewBox="0 0 50 50"><g id="logo-button-pressed"><g id="button"><polyline points="48.33 14.39 48.33 46.66 10.07 46.66 10.07 10.52 45.38 10.52" style="opacity:0.28"/><polyline points="43.97 37.1 43.97 7.33 4.26 7.33 4.26 41.93 42.32 41.93" style="fill:#a59481"/><rect x="6.07" y="2.5" width="37.9" height="34.6" style="fill:#c7b299"/><polygon points="6.07 2.5 4.26 7.33 4.26 41.93 6.07 37.1 6.07 2.5" style="fill:#ddc6ac"/></g><g id="logo-nopal"><g id="nopal"><g id="Tuna_6" data-name="Tuna 6"><path d="M14.41,11.06c.54,1.26,1.74,2,2.69,1.55s1.28-1.75.74-3a4.47,4.47,0,0,0-1.55-2c-.18-.08-.54.22-1.15.49s-1,.24-1.14.49A3.61,3.61,0,0,0,14.41,11.06Z" style="fill:#ff7bac"/><path d="M14.54,11.43A2.25,2.25,0,0,0,17.24,13,2.25,2.25,0,0,0,18,10c-.08-.19-.69-1.64-1.55-2-.18-.09-.54.21-1.14.49s-1,.23-1.14.48A3.6,3.6,0,0,0,14.54,11.43Z" style="fill:#d91a60"/></g><g id="Tuna_5" data-name="Tuna 5"><path d="M18.59,7.67C18.93,9,20,9.88,21,9.63s1.53-1.54,1.2-2.87A4.43,4.43,0,0,0,21,4.5c-.16-.11-.57.13-1.21.3s-1.06.07-1.2.31A3.6,3.6,0,0,0,18.59,7.67Z" style="fill:#ff7bac"/><path d="M18.67,8.06c.33,1.33,1.41,2.21,2.41,2a2.25,2.25,0,0,0,1.2-2.87,4.36,4.36,0,0,0-1.2-2.26c-.17-.11-.57.13-1.21.3s-1.06.07-1.21.31A3.59,3.59,0,0,0,18.67,8.06Z" style="fill:#d91a60"/></g><g id="Tuna_7" data-name="Tuna 7"><path d="M11.22,15.89c.79,1.12,2.11,1.55,2.95,1s.89-2,.1-3.1c-.11-.17-1-1.46-1.94-1.68-.19-.05-.48.32-1,.71s-1,.45-1,.72A3.56,3.56,0,0,0,11.22,15.89Z" style="fill:#ff7bac"/><path d="M11.43,16.23c.79,1.12,2.11,1.55,3,1s.89-2,.1-3.11c-.11-.16-1-1.46-1.94-1.67-.19-.05-.48.32-1,.71s-1,.44-1,.71A3.6,3.6,0,0,0,11.43,16.23Z" style="fill:#d91a60"/></g><path id="Nopal_2" data-name="Nopal 2" d="M37.34,21.32c0,5.06-1.24,5.29-4.35,9-2.67,3.2-3.1,3.72-7.77,3.72-4.94,0-4.55-.5-7.77-3.72s-4.52-4.19-4.35-9c.2-5.73,4.83-12.74,12.12-12.74C31.91,8.58,37.34,14.29,37.34,21.32Z" style="fill:#324001"/><path id="Nopal_1" data-name="Nopal 1" d="M36.1,21.32c0,5.06-1.25,5.29-4.35,9-2.68,3.2-3.1,3.72-7.77,3.72-4.95,0-4.55-.5-7.77-3.72s-4.52-4.19-4.35-9C12.06,15.59,16.69,8.58,24,8.58,30.67,8.58,36.1,14.29,36.1,21.32Z" style="fill:#7c8c03"/><g id="Tuna_1" data-name="Tuna 1"><path d="M39,15.89a2.25,2.25,0,0,1-3,1c-.84-.59-.88-2-.09-3.1.11-.17,1-1.46,1.93-1.68.19-.05.49.32,1,.71s1,.45,1,.72A3.67,3.67,0,0,1,39,15.89Z" style="fill:#ff7bac"/><path d="M39.67,13.83c-.05-.27-.58-.39-1-.71s-.83-.76-1-.71c-.92.21-1.82,1.51-1.93,1.67a2.78,2.78,0,0,0-.52,2.1A2.62,2.62,0,0,1,36,17.27a2.32,2.32,0,0,0,2.8-1A3.7,3.7,0,0,0,39.67,13.83Z" style="fill:#d91a60"/></g><g id="Tuna_2" data-name="Tuna 2"><path d="M36.35,11.06c-.54,1.26-1.75,2-2.69,1.55s-1.28-1.75-.74-3a4.47,4.47,0,0,1,1.55-2c.18-.08.54.22,1.14.49s1,.24,1.15.49A3.61,3.61,0,0,1,36.35,11.06Z" style="fill:#ff7bac"/><path d="M36.62,8.9c-.1-.25-.65-.26-1.14-.48s-1-.58-1.15-.49a4.27,4.27,0,0,0-1.54,2,2.79,2.79,0,0,0-.09,2.13,2.38,2.38,0,0,1,1.07,1,2.35,2.35,0,0,0,2.44-1.63A3.59,3.59,0,0,0,36.62,8.9Z" style="fill:#d91a60"/></g><g id="Tuna_3" data-name="Tuna 3"><path d="M32.07,7.67c-.34,1.33-1.42,2.21-2.42,2s-1.53-1.54-1.2-2.87A4.43,4.43,0,0,1,29.66,4.5c.16-.11.57.13,1.21.3s1.06.07,1.2.31A3.6,3.6,0,0,1,32.07,7.67Z" style="fill:#ff7bac"/><path d="M32,5.5c-.15-.24-.68-.16-1.21-.31s-1-.41-1.2-.3a4.39,4.39,0,0,0-1.21,2.26,2.62,2.62,0,0,0,.48,2.42,2.71,2.71,0,0,1,1.36.45,2.53,2.53,0,0,0,1.77-2A3.59,3.59,0,0,0,32,5.5Z" style="fill:#d91a60"/></g><g id="Tuna_4" data-name="Tuna 4"><path d="M27.11,6c0,1.38-.83,2.49-1.86,2.49S23.39,7.35,23.39,6A4.32,4.32,0,0,1,24,3.49c.13-.15.58,0,1.24,0s1.05-.2,1.24,0A3.57,3.57,0,0,1,27.11,6Z" style="fill:#ff7bac"/><path d="M24.62,8.69a3.68,3.68,0,0,1,.59-.06,2.86,2.86,0,0,1,.67.08,2.53,2.53,0,0,0,1.26-2.34,3.61,3.61,0,0,0-.63-2.49c-.19-.19-.69,0-1.24,0s-1.11-.14-1.24,0a4.43,4.43,0,0,0-.62,2.49A2.56,2.56,0,0,0,24.62,8.69Z" style="fill:#d91a60"/></g><g id="Espinas_2" data-name="Espinas 2"><ellipse cx="16.47" cy="16.35" rx="0.38" ry="0.3" transform="translate(-5.1 24.9) rotate(-66.4)" style="fill:#4d4d4d;stroke:#4d4d4d;stroke-miterlimit:10;stroke-width:0.5px"/><ellipse cx="17.24" cy="30.63" rx="0.25" ry="0.33" transform="translate(-9.77 8.13) rotate(-20.83)" style="fill:#4d4d4d;stroke:#4d4d4d;stroke-miterlimit:10;stroke-width:0.5px"/><ellipse cx="19.96" cy="27.37" rx="0.19" ry="0.24" transform="translate(-5.86 5.44) rotate(-13.56)" style="fill:#4d4d4d;stroke:#4d4d4d;stroke-miterlimit:10;stroke-width:0.5px"/><ellipse cx="28.37" cy="28.84" rx="0.26" ry="0.32" transform="translate(-2.96 3.24) rotate(-6.22)" style="fill:#4d4d4d;stroke:#4d4d4d;stroke-miterlimit:10;stroke-width:0.5px"/><ellipse cx="24.67" cy="24.4" rx="0.2" ry="0.28" style="fill:#4d4d4d;stroke:#4d4d4d;stroke-miterlimit:10;stroke-width:0.5px"/><ellipse cx="24.11" cy="29.76" rx="0.23" ry="0.27" transform="translate(-0.62 0.51) rotate(-1.2)" style="fill:#4d4d4d;stroke:#4d4d4d;stroke-miterlimit:10;stroke-width:0.5px"/><ellipse cx="29.27" cy="24.62" rx="0.21" ry="0.17" transform="translate(2.47 51.91) rotate(-85.6)" style="fill:#4d4d4d;stroke:#4d4d4d;stroke-miterlimit:10;stroke-width:0.5px"/><ellipse cx="28.01" cy="20.37" rx="0.23" ry="0.16" transform="translate(4.98 46.23) rotate(-84.34)" style="fill:#4d4d4d;stroke:#4d4d4d;stroke-miterlimit:10;stroke-width:0.5px"/><ellipse cx="30.94" cy="17.48" rx="0.21" ry="0.24" transform="translate(-0.33 0.6) rotate(-1.11)" style="fill:#4d4d4d;stroke:#4d4d4d;stroke-miterlimit:10;stroke-width:0.5px"/><ellipse cx="33.11" cy="21.62" rx="0.19" ry="0.24" style="fill:#4d4d4d;stroke:#4d4d4d;stroke-miterlimit:10;stroke-width:0.5px"/><ellipse cx="34.83" cy="25.08" rx="0.22" ry="0.41" transform="translate(-1.92 2.9) rotate(-4.65)" style="fill:#4d4d4d;stroke:#4d4d4d;stroke-miterlimit:10;stroke-width:0.5px"/><ellipse cx="33.99" cy="16.63" rx="0.17" ry="0.4" transform="translate(-3.67 12.96) rotate(-20.5)" style="fill:#4d4d4d;stroke:#4d4d4d;stroke-miterlimit:10;stroke-width:0.5px"/><ellipse cx="26.7" cy="13.46" rx="0.16" ry="0.19" transform="translate(3.43 32.22) rotate(-65.63)" style="fill:#4d4d4d;stroke:#4d4d4d;stroke-miterlimit:10;stroke-width:0.5px"/><ellipse cx="28.72" cy="11.28" rx="0.19" ry="0.31" transform="translate(7.44 33.63) rotate(-67.84)" style="fill:#4d4d4d;stroke:#4d4d4d;stroke-miterlimit:10;stroke-width:0.5px"/><ellipse cx="15.98" cy="24.51" rx="0.31" ry="0.22" transform="translate(-10.84 36.2) rotate(-80.44)" style="fill:#4d4d4d;stroke:#4d4d4d;stroke-miterlimit:10;stroke-width:0.5px"/><ellipse cx="15.35" cy="21.12" rx="0.31" ry="0.22" transform="translate(-8.03 32.74) rotate(-80.44)" style="fill:#4d4d4d;stroke:#4d4d4d;stroke-miterlimit:10;stroke-width:0.5px"/><ellipse cx="20.31" cy="21.47" rx="0.27" ry="0.2" transform="translate(-5.74 35.44) rotate(-74.8)" style="fill:#4d4d4d;stroke:#4d4d4d;stroke-miterlimit:10;stroke-width:0.5px"/><ellipse cx="22.91" cy="18.02" rx="0.35" ry="0.23" transform="translate(2.85 39.17) rotate(-84.72)" style="fill:#4d4d4d;stroke:#4d4d4d;stroke-miterlimit:10;stroke-width:0.5px"/><ellipse cx="12.74" cy="22.49" rx="0.26" ry="0.54" transform="translate(-0.7 0.41) rotate(-1.79)" style="fill:#4d4d4d;stroke:#4d4d4d;stroke-miterlimit:10;stroke-width:0.5px"/><ellipse cx="13.55" cy="16.27" rx="0.53" ry="0.24" transform="translate(-4.98 26.54) rotate(-79.22)" style="fill:#4d4d4d;stroke:#4d4d4d;stroke-miterlimit:10;stroke-width:0.5px"/><ellipse cx="20.31" cy="12.24" rx="0.21" ry="0.26" transform="translate(-1.3 2.47) rotate(-6.75)" style="fill:#4d4d4d;stroke:#4d4d4d;stroke-miterlimit:10;stroke-width:0.5px"/><ellipse cx="22.77" cy="14.25" rx="0.18" ry="0.21" transform="translate(-0.34 0.56) rotate(-1.4)" style="fill:#4d4d4d;stroke:#4d4d4d;stroke-miterlimit:10;stroke-width:0.5px"/></g><g id="Espinas_1" data-name="Espinas 1"><path d="M16.42,16.32a.9.9,0,0,1-.47-.16c-.12-.07-.17-.21-.25-.33a6.33,6.33,0,0,1-.44-.7l0,0c.25.16.48.32.71.49s.26.15.33.27a.84.84,0,0,1,.12.44Z" style="fill:#fcee21"/><path d="M22.8,17.91a1.28,1.28,0,0,1-.73.33,2.6,2.6,0,0,1-.74,0,1.72,1.72,0,0,0-1.31.38l0,0a1.72,1.72,0,0,1,1.33-.75,3.14,3.14,0,0,1,.74-.07c.24,0,.46.06.73.13Z" style="fill:#fcee21"/><path d="M12.72,22.51a3.22,3.22,0,0,1-.34.83,4.42,4.42,0,0,1-.57.66c-.38.44-.78.86-1.18,1.28l0,0c.29-.5.59-1,.9-1.49A4.56,4.56,0,0,1,12,23a2.58,2.58,0,0,1,.7-.56Z" style="fill:#fcee21"/><path d="M13.39,16.12a.93.93,0,0,1-.49.13,1.06,1.06,0,0,1-.44-.13c-.29-.1-.57-.21-.86-.34v0h.93a1.19,1.19,0,0,1,.46,0,1,1,0,0,1,.4.31Z" style="fill:#fcee21"/><path d="M24.61,24.26a1.1,1.1,0,0,1-.39-.38,1.49,1.49,0,0,1-.14-.48c-.08-.32-.15-.65-.2-1h0c.19.28.37.56.53.85a1.37,1.37,0,0,1,.23.45,1.11,1.11,0,0,1,0,.54Z" style="fill:#fcee21"/><path d="M24.59,24.57a1.23,1.23,0,0,1,0,.57,1.58,1.58,0,0,1-.25.46,10.4,10.4,0,0,1-.56.9l-.05,0c.07-.35.15-.69.24-1a1.46,1.46,0,0,1,.16-.5,1.07,1.07,0,0,1,.4-.39Z" style="fill:#fcee21"/><path d="M34.8,25a3.41,3.41,0,0,1,.9-.48,4.68,4.68,0,0,1,1-.17,16.61,16.61,0,0,1,2-.12v.05c-.65.14-1.29.29-1.92.46a7.75,7.75,0,0,1-.94.27,4.73,4.73,0,0,1-1,0Z" style="fill:#fcee21"/><path d="M28.56,11.31a2.38,2.38,0,0,1-.8,0,3.06,3.06,0,0,1-.71-.27c-.48-.19-.95-.4-1.41-.61v-.05c.51.08,1,.17,1.51.28a3.26,3.26,0,0,1,.75.17,2.31,2.31,0,0,1,.66.44Z" style="fill:#fcee21"/><path d="M34,16.5a.84.84,0,0,1,.39-.28,1,1,0,0,1,.42,0l.86.06v0c-.27.11-.54.2-.81.28a1,1,0,0,1-.41.11.86.86,0,0,1-.44-.18Z" style="fill:#fcee21"/><path d="M33.94,16.71a.69.69,0,0,1,.18.39.88.88,0,0,1-.1.35c-.08.24-.17.47-.27.71h0c0-.25-.06-.5-.08-.75a.77.77,0,0,1,0-.37.73.73,0,0,1,.27-.33Z" style="fill:#fcee21"/><path d="M20.28,12.2a2.85,2.85,0,0,1-.71.64,4.4,4.4,0,0,1-.87.35,13.61,13.61,0,0,1-1.79.52l0-.05q.84-.4,1.65-.84a8.83,8.83,0,0,1,.8-.43,3.36,3.36,0,0,1,.92-.23Z" style="fill:#fcee21"/><path d="M20.41,12a.54.54,0,0,1,0-.52l.15-.49h0c0,.17,0,.34,0,.52a.52.52,0,0,1-.15.49Z" style="fill:#fcee21"/><path d="M22.77,14.19a1,1,0,0,1,.48.12,1.26,1.26,0,0,1,.31.34,7.72,7.72,0,0,1,.56.72l0,0c-.27-.14-.54-.3-.79-.46a1.42,1.42,0,0,1-.38-.26,1,1,0,0,1-.19-.47Z" style="fill:#fcee21"/><path d="M26.64,13.49a.56.56,0,0,1-.5-.17,4.56,4.56,0,0,1-.42-.31v0l.5.17a.53.53,0,0,1,.42.31Z" style="fill:#fcee21"/><path d="M26.77,13.57a.94.94,0,0,1-.07.49,1.38,1.38,0,0,1-.3.34c-.21.22-.44.42-.67.63l0,0c.12-.29.24-.56.38-.83a1.2,1.2,0,0,1,.22-.4,1,1,0,0,1,.44-.23Z" style="fill:#fcee21"/><path d="M28,20.38a3.11,3.11,0,0,1,1,.38,4.18,4.18,0,0,1,.78.67A12.13,12.13,0,0,1,31.07,23l0,0c-.51-.45-1-.86-1.57-1.25-.27-.2-.56-.35-.81-.57a5,5,0,0,1-.7-.75Z" style="fill:#fcee21"/><path d="M31,17.32a.77.77,0,0,1-.37.22.83.83,0,0,1-.38,0c-.25-.05-.5-.1-.74-.17v0a4.7,4.7,0,0,1,.74-.18.8.8,0,0,1,.37-.06.78.78,0,0,1,.38.23Z" style="fill:#fcee21"/><path d="M33.12,21.48a3.39,3.39,0,0,1,.74-.63,5.57,5.57,0,0,1,.86-.37c.57-.24,1.16-.47,1.75-.68l0,0c-.52.35-1.06.68-1.6,1a5,5,0,0,1-.81.46,3.23,3.23,0,0,1-.94.22Z" style="fill:#fcee21"/><path d="M29.14,24.7a.86.86,0,0,1-.45-.15.94.94,0,0,1-.25-.34,7.85,7.85,0,0,1-.44-.73l0,0a7.32,7.32,0,0,1,.7.5.94.94,0,0,1,.32.27.81.81,0,0,1,.12.46Z" style="fill:#fcee21"/><path d="M20.38,21.49a1,1,0,0,1-.23.43,1.18,1.18,0,0,1-.39.19q-.39.18-.81.33l0-.05c.2-.21.41-.42.62-.61a1,1,0,0,1,.34-.28.92.92,0,0,1,.48-.05Z" style="fill:#fcee21"/><path d="M20,21.35a1.12,1.12,0,0,1-.51-.2,1.57,1.57,0,0,1-.32-.4c-.2-.27-.39-.55-.57-.85l0,0c.29.19.57.39.83.6a1.55,1.55,0,0,1,.39.33,1.28,1.28,0,0,1,.19.52Z" style="fill:#fcee21"/><path d="M15.31,21.17a3.38,3.38,0,0,1-1-.07,5.92,5.92,0,0,1-.89-.32c-.58-.23-1.16-.48-1.74-.73l0-.05c.62.12,1.23.25,1.84.39a4.79,4.79,0,0,1,.92.24,3.23,3.23,0,0,1,.83.49Z" style="fill:#fcee21"/><path d="M15.49,21a.45.45,0,0,1,.3-.35l.41-.21,0,0-.3.35a.44.44,0,0,1-.41.21Z" style="fill:#fcee21"/><path d="M15.91,24.29a3.52,3.52,0,0,1,1-.09,5.35,5.35,0,0,1,1,.18c.64.14,1.29.28,1.93.45v.05c-.66,0-1.32-.05-2-.1a5.41,5.41,0,0,1-1-.09,3.69,3.69,0,0,1-.94-.35Z" style="fill:#fcee21"/><path d="M20,27.33a2.64,2.64,0,0,1-.76.29,4.15,4.15,0,0,1-.79,0c-.52,0-1,0-1.57,0v-.05c.51-.12,1-.22,1.54-.31a3.43,3.43,0,0,1,.77-.12,2.28,2.28,0,0,1,.8.16Z" style="fill:#fcee21"/><path d="M20.09,27.23a.64.64,0,0,1,0-.54.83.83,0,0,1,.38-.36,1.39,1.39,0,0,1,.94-.24v.05a1.5,1.5,0,0,0-.68.49,2.53,2.53,0,0,1-.21.32,2.66,2.66,0,0,1-.37.29Z" style="fill:#fcee21"/><path d="M17.05,30.55a2,2,0,0,1-.72.05,2.67,2.67,0,0,1-.66-.21c-.43-.15-.87-.31-1.3-.49l0,0q.69.06,1.38.15a2.62,2.62,0,0,1,.68.12,2,2,0,0,1,.61.38Z" style="fill:#fcee21"/><path d="M17.3,30.58a1.91,1.91,0,0,1,.6-.4,2.55,2.55,0,0,1,.67-.12c.45-.08.91-.14,1.36-.19l0,.05c-.42.19-.85.36-1.27.52a2.66,2.66,0,0,1-.65.23,2,2,0,0,1-.72,0Z" style="fill:#fcee21"/><path d="M24.06,29.55a4.1,4.1,0,0,1,.74-.86,5.82,5.82,0,0,1,.94-.61,18.58,18.58,0,0,1,2-1l0,0c-.61.43-1.2.87-1.78,1.32a9.28,9.28,0,0,1-.87.68,5.28,5.28,0,0,1-1,.5Z" style="fill:#fcee21"/><path d="M28.37,28.79a1.89,1.89,0,0,1-1,.23c-.33,0-.66.06-1,.07v0c.32-.09.65-.17,1-.24a1.88,1.88,0,0,1,1-.07Z" style="fill:#fcee21"/><path d="M28.48,28.78a1.7,1.7,0,0,1,.62.23,2.34,2.34,0,0,1,.45.44q.43.45.84.93l0,0c-.36-.21-.72-.43-1.07-.67a2,2,0,0,1-.51-.36,1.45,1.45,0,0,1-.33-.57Z" style="fill:#fcee21"/><path d="M24.11,30a1.52,1.52,0,0,1-.17.36c-.07.09-.18.12-.28.19a2.17,2.17,0,0,0-.49.51l-.05,0a1.65,1.65,0,0,1,.24-.76.74.74,0,0,1,.27-.31.6.6,0,0,1,.46,0Z" style="fill:#fcee21"/><path d="M34.74,25.35c-.24,0-.42,0-.6.06s-.34,0-.52,0a1.57,1.57,0,0,0-.95.62l0,0a1.54,1.54,0,0,1,.86-1,1.11,1.11,0,0,1,.69-.14.9.9,0,0,1,.59.4Z" style="fill:#fcee21"/></g></g><g id="M"><path d="M18.12,14.47s3.79-1,3.79-.73,1,1.52,1.59.24,4.21-1.07,5.32-1.07-.37,7.61-.37,9.41A2.61,2.61,0,0,0,30,24.74s-.06,4.71-.34,5-1.22.18-3.09-.7-2.08-6.67-2-7.46-1.5-.4-2.17-.28-.07,5.08-.07,5.45-2.47,2.53-2.47,2.53a4.43,4.43,0,0,1-1.8-.79C17.57,28,18.21,14.53,18.12,14.47Z" style="fill:#fff;stroke:#7c8c03;stroke-miterlimit:10"/><path d="M17.86,24.26A45.28,45.28,0,0,1,18,17.57a20.41,20.41,0,0,1,.25-3v-.15a6.29,6.29,0,0,0,1.59-1c1.07-.83,3.36-2.48,3.36-.12.12.33.37.73.49,1a3,3,0,0,1,.4-.8c1.07-.73,1.83-1.65,3-1.65a14.75,14.75,0,0,0,2.08.09A1.51,1.51,0,0,1,30,12c0,4-1.2,7.31-.22,11.25.28,1.32,1,.71,1.53,1.44-.33,1.59-1.22,3.82-1.25,5.35-2.48.46-3.36-.64-4.31-2C25,27,24.62,23.53,24.62,21.05V19.8a7,7,0,0,1-.52,1.07c-.43.58-1.41.49-2,.24a2.49,2.49,0,0,1-.12.52c-.49,1.68.58,3.49.36,5.14-.09.64-1.86,2.23-2.14,2.93l-1.92-.92a1.18,1.18,0,0,0-.18-.06C18.47,27.29,18,25.73,17.86,24.26Zm2.23,5c.34-1.77-.39-8.4.61-10.82,1,.71.95,1.35,1.29,2.11,1.56,1.2,2.2-.61,2.87-1.68.06.06.18.09.18.28a15.16,15.16,0,0,0,.16,5,13.17,13.17,0,0,0,.61,3.3,6.6,6.6,0,0,0,2.41,2.26,3.4,3.4,0,0,0,1.5.06A27.16,27.16,0,0,0,29.51,27c-.46,0-.61,0-.8-.18v0c-.91-.61-.88-2.23-.88-3.3,0-3.46-.31-6.61.49-9.75-.34,0-1.07,0-1.84,0a17.48,17.48,0,0,0-2.32.09c-.61,1.19-.92,3.33-1.53,4.4a.3.3,0,0,1-.27-.09c-.46-1.2-.34-2.51-.77-3.7a8,8,0,0,1-3,.34c.25,3.6-.73,7.24-.09,10.85,0,.64.37,2.26,0,3a.11.11,0,0,1,0,.09A8.43,8.43,0,0,0,20.09,29.3Z" style="fill:#d91a60;stroke:#7c8c03;stroke-miterlimit:10"/></g></g></g></svg>