<svg xmlns="http://www.w3.org/2000/svg" viewBox="0 0 50 50"><g id="logo-button"><g id="button"><polyline points="50.38 14.41 50.38 50.17 7.98 50.17 7.98 10.12 47.12 10.12" style="opacity:0.28"/><polyline points="44.44 38.47 44.44 5.47 0.44 5.47 0.44 43.82 42.61 43.82" style="fill:#a59481"/><rect x="2.44" y="0.12" width="42" height="38.35" style="fill:#c7b299"/><polygon points="2.44 0.12 0.44 5.47 0.44 43.82 2.44 38.47 2.44 0.12" style="fill:#ddc6ac"/></g><g id="logo-nopal"><g id="nopal"><g id="Tuna_6" data-name="Tuna 6"><path d="M11.68,9.61c.6,1.4,1.94,2.17,3,1.72s1.41-1.95.81-3.35a4.83,4.83,0,0,0-1.72-2.26c-.19-.09-.59.24-1.26.54s-1.15.26-1.27.54C10.78,7.92,11.64,9.51,11.68,9.61Z" style="fill:#ff7bac"/><path d="M11.83,10c.6,1.4,1.94,2.17,3,1.72s1.41-2,.81-3.35a4.83,4.83,0,0,0-1.72-2.26c-.19-.09-.59.24-1.26.54s-1.15.26-1.27.55C10.93,8.33,11.79,9.92,11.83,10Z" style="fill:#d91a60"/></g><g id="Tuna_5" data-name="Tuna 5"><path d="M16.32,5.85C16.69,7.32,17.89,8.29,19,8s1.7-1.7,1.33-3.18A5,5,0,0,0,19,2.34c-.18-.12-.63.14-1.34.33s-1.17.08-1.33.34C15.69,4,16.29,5.74,16.32,5.85Z" style="fill:#ff7bac"/><path d="M16.4,6.28c.38,1.48,1.57,2.45,2.68,2.17s1.7-1.7,1.33-3.18a4.87,4.87,0,0,0-1.34-2.5c-.18-.12-.63.14-1.33.33s-1.18.08-1.34.34C15.77,4.47,16.38,6.18,16.4,6.28Z" style="fill:#d91a60"/></g><g id="Tuna_7" data-name="Tuna 7"><path d="M8.15,15C9,16.2,10.49,16.68,11.42,16s1-2.19.11-3.44c-.13-.18-1.12-1.62-2.15-1.86-.21-.05-.53.36-1.13.8s-1.07.49-1.12.79C6.91,13.49,8.09,14.87,8.15,15Z" style="fill:#ff7bac"/><path d="M8.38,15.33c.87,1.24,2.34,1.72,3.27,1.07s1-2.2.11-3.45c-.12-.18-1.12-1.61-2.15-1.85-.21,0-.53.36-1.12.79s-1.07.49-1.13.79C7.14,13.86,8.32,15.24,8.38,15.33Z" style="fill:#d91a60"/></g><path id="Nopal_2" data-name="Nopal 2" d="M37.1,21c0,5.6-1.38,5.85-4.83,10-3,3.55-3.43,4.13-8.6,4.13-5.48,0-5-.57-8.61-4.13s-5-4.65-4.82-10c.22-6.35,5.35-14.12,13.43-14.12C31.08,6.86,37.1,13.18,37.1,21Z" style="fill:#324001"/><path id="Nopal_1" data-name="Nopal 1" d="M35.72,21c0,5.6-1.38,5.85-4.82,10-3,3.55-3.43,4.13-8.61,4.13-5.48,0-5-.57-8.61-4.13s-5-4.65-4.82-10c.22-6.35,5.35-14.12,13.43-14.12C29.71,6.86,35.72,13.18,35.72,21Z" style="fill:#7c8c03"/><g id="Tuna_1" data-name="Tuna 1"><path d="M38.89,15C38,16.2,36.55,16.68,35.61,16s-1-2.19-.1-3.44c.12-.18,1.12-1.62,2.14-1.86.22-.05.54.36,1.13.8s1.07.49,1.13.79C40.13,13.49,39,14.87,38.89,15Z" style="fill:#ff7bac"/><path d="M39.68,12.68c-.06-.3-.64-.44-1.13-.79s-.92-.84-1.13-.79c-1,.24-2,1.67-2.14,1.85a3.12,3.12,0,0,0-.58,2.33,2.79,2.79,0,0,1,.85,1.21,2.58,2.58,0,0,0,3.11-1.16C38.72,15.24,39.89,13.86,39.68,12.68Z" style="fill:#d91a60"/></g><g id="Tuna_2" data-name="Tuna 2"><path d="M36,9.61c-.6,1.4-1.94,2.17-3,1.72S31.6,9.38,32.2,8c.09-.2.76-1.81,1.72-2.26.19-.09.59.24,1.26.54s1.15.26,1.27.54C36.9,7.92,36,9.51,36,9.61Z" style="fill:#ff7bac"/><path d="M36.3,7.22c-.12-.29-.72-.3-1.27-.55S34,6,33.77,6.13a4.83,4.83,0,0,0-1.72,2.26,3.12,3.12,0,0,0-.1,2.37,2.67,2.67,0,0,1,1.19,1.06A2.62,2.62,0,0,0,35.85,10C35.89,9.92,36.75,8.33,36.3,7.22Z" style="fill:#d91a60"/></g><g id="Tuna_3" data-name="Tuna 3"><path d="M31.25,5.85C30.88,7.32,29.68,8.29,28.58,8s-1.7-1.7-1.33-3.18a4.79,4.79,0,0,1,1.34-2.5c.18-.12.62.14,1.33.33s1.18.08,1.34.34C31.88,4,31.28,5.74,31.25,5.85Z" style="fill:#ff7bac"/><path d="M31.18,3.44c-.16-.26-.76-.18-1.34-.34s-1.16-.45-1.34-.33a5,5,0,0,0-1.34,2.5A3,3,0,0,0,27.7,8a3,3,0,0,1,1.51.49,2.79,2.79,0,0,0,2-2.17C31.2,6.18,31.8,4.47,31.18,3.44Z" style="fill:#d91a60"/></g><g id="Tuna_4" data-name="Tuna 4"><path d="M25.76,4c0,1.52-.92,2.75-2.06,2.75S21.63,5.49,21.63,4a4.92,4.92,0,0,1,.69-2.76c.14-.16.64,0,1.38,0s1.16-.21,1.38,0C25.93,2.06,25.76,3.86,25.76,4Z" style="fill:#ff7bac"/><path d="M23,7a3.24,3.24,0,0,1,.64-.06,3.43,3.43,0,0,1,.74.08,2.81,2.81,0,0,0,1.4-2.6c0-.1.17-1.91-.69-2.75-.22-.21-.77,0-1.38,0s-1.23-.16-1.38,0a4.87,4.87,0,0,0-.68,2.75A2.82,2.82,0,0,0,23,7Z" style="fill:#d91a60"/></g><g id="Espinas_2" data-name="Espinas 2"><ellipse cx="13.97" cy="15.46" rx="0.42" ry="0.33" transform="translate(-5.79 22.08) rotate(-66.4)" style="fill:#4d4d4d;stroke:#4d4d4d;stroke-miterlimit:10;stroke-width:0.5px"/><ellipse cx="14.82" cy="31.3" rx="0.27" ry="0.37" transform="translate(-10.16 7.32) rotate(-20.83)" style="fill:#4d4d4d;stroke:#4d4d4d;stroke-miterlimit:10;stroke-width:0.5px"/><ellipse cx="17.83" cy="27.67" rx="0.21" ry="0.26" transform="translate(-5.99 4.95) rotate(-13.56)" style="fill:#4d4d4d;stroke:#4d4d4d;stroke-miterlimit:10;stroke-width:0.5px"/><ellipse cx="27.16" cy="29.31" rx="0.29" ry="0.35" transform="translate(-3.01 3.11) rotate(-6.22)" style="fill:#4d4d4d;stroke:#4d4d4d;stroke-miterlimit:10;stroke-width:0.5px"/><ellipse cx="23.05" cy="24.38" rx="0.22" ry="0.31" style="fill:#4d4d4d;stroke:#4d4d4d;stroke-miterlimit:10;stroke-width:0.5px"/><ellipse cx="22.44" cy="30.33" rx="0.25" ry="0.3" transform="matrix(1, -0.02, 0.02, 1, -0.63, 0.48)" style="fill:#4d4d4d;stroke:#4d4d4d;stroke-miterlimit:10;stroke-width:0.5px"/><ellipse cx="28.15" cy="24.63" rx="0.23" ry="0.19" transform="matrix(0.08, -1, 1, 0.08, 1.43, 50.81)" style="fill:#4d4d4d;stroke:#4d4d4d;stroke-miterlimit:10;stroke-width:0.5px"/><ellipse cx="26.75" cy="19.92" rx="0.25" ry="0.18" transform="translate(4.29 44.58) rotate(-84.34)" style="fill:#4d4d4d;stroke:#4d4d4d;stroke-miterlimit:10;stroke-width:0.5px"/><ellipse cx="30.01" cy="16.72" rx="0.23" ry="0.27" transform="translate(-0.32 0.59) rotate(-1.11)" style="fill:#4d4d4d;stroke:#4d4d4d;stroke-miterlimit:10;stroke-width:0.5px"/><ellipse cx="32.41" cy="21.31" rx="0.21" ry="0.26" style="fill:#4d4d4d;stroke:#4d4d4d;stroke-miterlimit:10;stroke-width:0.5px"/><ellipse cx="34.32" cy="25.15" rx="0.25" ry="0.46" transform="translate(-1.92 2.86) rotate(-4.65)" style="fill:#4d4d4d;stroke:#4d4d4d;stroke-miterlimit:10;stroke-width:0.5px"/><ellipse cx="33.38" cy="15.78" rx="0.19" ry="0.45" transform="translate(-3.41 12.69) rotate(-20.5)" style="fill:#4d4d4d;stroke:#4d4d4d;stroke-miterlimit:10;stroke-width:0.5px"/><ellipse cx="25.31" cy="12.26" rx="0.18" ry="0.21" transform="translate(3.7 30.25) rotate(-65.63)" style="fill:#4d4d4d;stroke:#4d4d4d;stroke-miterlimit:10;stroke-width:0.5px"/><ellipse cx="27.54" cy="9.85" rx="0.21" ry="0.34" transform="translate(8.03 31.64) rotate(-67.84)" style="fill:#4d4d4d;stroke:#4d4d4d;stroke-miterlimit:10;stroke-width:0.5px"/><ellipse cx="13.43" cy="24.51" rx="0.34" ry="0.25" transform="translate(-12.97 33.68) rotate(-80.44)" style="fill:#4d4d4d;stroke:#4d4d4d;stroke-miterlimit:10;stroke-width:0.5px"/><ellipse cx="12.72" cy="20.75" rx="0.34" ry="0.25" transform="translate(-9.86 29.85) rotate(-80.44)" style="fill:#4d4d4d;stroke:#4d4d4d;stroke-miterlimit:10;stroke-width:0.5px"/><ellipse cx="18.22" cy="21.15" rx="0.29" ry="0.23" transform="translate(-6.96 33.18) rotate(-74.8)" style="fill:#4d4d4d;stroke:#4d4d4d;stroke-miterlimit:10;stroke-width:0.5px"/><ellipse cx="21.1" cy="17.32" rx="0.39" ry="0.25" transform="translate(1.91 36.74) rotate(-84.72)" style="fill:#4d4d4d;stroke:#4d4d4d;stroke-miterlimit:10;stroke-width:0.5px"/><ellipse cx="9.84" cy="22.27" rx="0.29" ry="0.59" transform="translate(-0.69 0.32) rotate(-1.79)" style="fill:#4d4d4d;stroke:#4d4d4d;stroke-miterlimit:10;stroke-width:0.5px"/><ellipse cx="10.73" cy="15.38" rx="0.58" ry="0.27" transform="translate(-6.39 23.04) rotate(-79.22)" style="fill:#4d4d4d;stroke:#4d4d4d;stroke-miterlimit:10;stroke-width:0.5px"/><ellipse cx="18.23" cy="10.91" rx="0.24" ry="0.29" transform="translate(-1.16 2.22) rotate(-6.75)" style="fill:#4d4d4d;stroke:#4d4d4d;stroke-miterlimit:10;stroke-width:0.5px"/><ellipse cx="20.95" cy="13.14" rx="0.2" ry="0.23" transform="translate(-0.32 0.52) rotate(-1.4)" style="fill:#4d4d4d;stroke:#4d4d4d;stroke-miterlimit:10;stroke-width:0.5px"/></g><g id="Espinas_1" data-name="Espinas 1"><path d="M13.91,15.44a1.19,1.19,0,0,1-.5-.19,1.29,1.29,0,0,1-.28-.37,7.8,7.8,0,0,1-.5-.77l0,0a8.86,8.86,0,0,1,.77.55,1.34,1.34,0,0,1,.36.3.88.88,0,0,1,.15.48Z" style="fill:#fcee21"/><path d="M21,17.2a1.57,1.57,0,0,1-.81.34,4.47,4.47,0,0,1-.82,0A1.91,1.91,0,0,0,17.9,18l0,0a1.9,1.9,0,0,1,1.47-.81,3.9,3.9,0,0,1,.82-.07c.27,0,.52.05.81.11Z" style="fill:#fcee21"/><path d="M9.81,22.29a3.33,3.33,0,0,1-.4.9,5.52,5.52,0,0,1-.62.74c-.42.49-.86,1-1.3,1.43l0,0c.33-.55.67-1.1,1-1.64a5.34,5.34,0,0,1,.54-.8,3.36,3.36,0,0,1,.76-.63Z" style="fill:#fcee21"/><path d="M10.56,15.21a1.11,1.11,0,0,1-.54.12,1.25,1.25,0,0,1-.49-.14,9.36,9.36,0,0,1-1-.36v0c.34,0,.69,0,1,0a1.4,1.4,0,0,1,.5,0,1.13,1.13,0,0,1,.46.32Z" style="fill:#fcee21"/><path d="M23,24.23a1.23,1.23,0,0,1-.42-.43,1.82,1.82,0,0,1-.16-.53c-.09-.35-.17-.72-.24-1.08l0,0c.21.31.4.63.58,1a1.89,1.89,0,0,1,.25.49,1.31,1.31,0,0,1,0,.59Z" style="fill:#fcee21"/><path d="M23,24.58a1.43,1.43,0,0,1,0,.62,1.84,1.84,0,0,1-.27.52c-.19.33-.39.67-.6,1l0,0c.08-.39.18-.77.28-1.14a1.69,1.69,0,0,1,.18-.55,1.31,1.31,0,0,1,.43-.45Z" style="fill:#fcee21"/><path d="M34.28,25.06a3.43,3.43,0,0,1,1-.51,5,5,0,0,1,1.08-.19,16.26,16.26,0,0,1,2.2-.15v.05c-.72.14-1.43.31-2.13.49a8,8,0,0,1-1,.28,5.1,5.1,0,0,1-1.11.08Z" style="fill:#fcee21"/><path d="M27.37,9.87a2.57,2.57,0,0,1-.88,0,3.75,3.75,0,0,1-.79-.29c-.53-.21-1.05-.43-1.57-.66V8.84c.56.1,1.12.21,1.67.33a3.35,3.35,0,0,1,.83.2,2.67,2.67,0,0,1,.74.46Z" style="fill:#fcee21"/><path d="M33.42,15.63a.94.94,0,0,1,.43-.28,1.23,1.23,0,0,1,.47,0c.31,0,.63,0,1,.06v0c-.3.11-.6.2-.9.29a1.47,1.47,0,0,1-.46.11,1.15,1.15,0,0,1-.49-.17Z" style="fill:#fcee21"/><path d="M33.33,15.86a.9.9,0,0,1,.17.43,1,1,0,0,1-.11.4,8,8,0,0,1-.27.78h0a7.56,7.56,0,0,1-.07-.82.94.94,0,0,1,0-.41.87.87,0,0,1,.28-.38Z" style="fill:#fcee21"/><path d="M18.19,10.87a3.66,3.66,0,0,1-.8.68,5.4,5.4,0,0,1-1,.4,17.13,17.13,0,0,1-2,.59l0,0c.62-.29,1.23-.59,1.83-.91a8.54,8.54,0,0,1,.89-.48,5.36,5.36,0,0,1,1-.28Z" style="fill:#fcee21"/><path d="M18.34,10.61a.64.64,0,0,1,0-.57c.05-.19.1-.37.16-.55h0a5.47,5.47,0,0,1,0,.57.61.61,0,0,1-.16.55Z" style="fill:#fcee21"/><path d="M20.94,13.07a1.22,1.22,0,0,1,.53.16,1.72,1.72,0,0,1,.34.37,10,10,0,0,1,.64.79l0,0c-.3-.16-.59-.34-.87-.52a1.38,1.38,0,0,1-.41-.29,1.1,1.1,0,0,1-.23-.5Z" style="fill:#fcee21"/><path d="M25.24,12.29a.64.64,0,0,1-.55-.19,5.09,5.09,0,0,1-.47-.34v0l.55.19a.67.67,0,0,1,.47.34Z" style="fill:#fcee21"/><path d="M25.38,12.38a1.13,1.13,0,0,1-.1.54,1.44,1.44,0,0,1-.33.37c-.23.25-.47.48-.72.71l0,0c.13-.31.28-.62.43-.91a1.52,1.52,0,0,1,.25-.43,1.2,1.2,0,0,1,.47-.28Z" style="fill:#fcee21"/><path d="M26.72,19.94a3.4,3.4,0,0,1,1.06.44,5,5,0,0,1,.86.73,13.25,13.25,0,0,1,1.5,1.68l0,0c-.56-.5-1.13-1-1.73-1.4a9.21,9.21,0,0,1-.9-.64,6,6,0,0,1-.79-.8Z" style="fill:#fcee21"/><path d="M30.07,16.54a.87.87,0,0,1-.41.22,1,1,0,0,1-.42,0c-.27,0-.55-.1-.83-.17V16.5a6.16,6.16,0,0,1,.83-.18,1,1,0,0,1,.41-.06.88.88,0,0,1,.42.23Z" style="fill:#fcee21"/><path d="M32.42,21.15a4.07,4.07,0,0,1,.83-.67,6.23,6.23,0,0,1,1-.42c.64-.27,1.28-.52,1.93-.77l0,0c-.58.38-1.17.74-1.77,1.09a6.8,6.8,0,0,1-.91.51,3.8,3.8,0,0,1-1,.26Z" style="fill:#fcee21"/><path d="M28,24.72a1,1,0,0,1-.48-.18,1.17,1.17,0,0,1-.28-.38,8.24,8.24,0,0,1-.5-.8l0,0a8.77,8.77,0,0,1,.76.56,1.17,1.17,0,0,1,.35.31.92.92,0,0,1,.15.49Z" style="fill:#fcee21"/><path d="M18.3,21.16a1,1,0,0,1-.27.45,1.13,1.13,0,0,1-.42.22c-.29.14-.59.27-.89.38l0,0a8.82,8.82,0,0,1,.7-.67,1.19,1.19,0,0,1,.37-.3,1.06,1.06,0,0,1,.52-.08Z" style="fill:#fcee21"/><path d="M17.92,21a1.27,1.27,0,0,1-.55-.25,1.65,1.65,0,0,1-.36-.43c-.22-.3-.44-.61-.65-.93l0,0c.31.22.61.44.9.68a1.69,1.69,0,0,1,.43.37A1.3,1.3,0,0,1,18,21Z" style="fill:#fcee21"/><path d="M12.69,20.81a4.18,4.18,0,0,1-1.07-.1,6.09,6.09,0,0,1-1-.36c-.65-.25-1.29-.51-1.93-.79v0c.69.14,1.37.29,2,.46a6.8,6.8,0,0,1,1,.26,4.12,4.12,0,0,1,.93.53Z" style="fill:#fcee21"/><path d="M12.89,20.65a.48.48,0,0,1,.33-.38l.45-.25,0,0c-.11.14-.23.26-.34.38a.51.51,0,0,1-.45.25Z" style="fill:#fcee21"/><path d="M13.35,24.27a4.22,4.22,0,0,1,1.11-.08,6.62,6.62,0,0,1,1.08.2c.71.14,1.42.3,2.14.47v.05q-1.09,0-2.19-.12a8,8,0,0,1-1.09-.1,4.7,4.7,0,0,1-1.05-.37Z" style="fill:#fcee21"/><path d="M17.86,27.63a2.65,2.65,0,0,1-.84.3,3.61,3.61,0,0,1-.87,0c-.57,0-1.15,0-1.74,0v-.05q.86-.18,1.71-.33a4.24,4.24,0,0,1,.86-.12,2.76,2.76,0,0,1,.88.15Z" style="fill:#fcee21"/><path d="M18,27.52a.73.73,0,0,1,0-.58.93.93,0,0,1,.41-.4,1.55,1.55,0,0,1,1-.27v.05a1.7,1.7,0,0,0-.77.52,3.22,3.22,0,0,1-.24.36,4.75,4.75,0,0,1-.38.33Z" style="fill:#fcee21"/><path d="M14.61,31.2a2.36,2.36,0,0,1-.79,0,3.1,3.1,0,0,1-.73-.23c-.49-.16-1-.34-1.44-.53v-.05c.51.05,1,.11,1.52.19a3.18,3.18,0,0,1,.76.13,2.57,2.57,0,0,1,.69.4Z" style="fill:#fcee21"/><path d="M14.89,31.24a2,2,0,0,1,.67-.41,3.14,3.14,0,0,1,.74-.15c.5-.09,1-.16,1.51-.22v0c-.47.2-.94.39-1.41.56a3.24,3.24,0,0,1-.72.25,2.35,2.35,0,0,1-.79,0Z" style="fill:#fcee21"/><path d="M22.38,30.1a4.71,4.71,0,0,1,.84-.94,7.06,7.06,0,0,1,1-.68,20.77,20.77,0,0,1,2.19-1.15l0,0c-.67.47-1.34.95-2,1.44a9.57,9.57,0,0,1-1,.75,6.86,6.86,0,0,1-1.11.58Z" style="fill:#fcee21"/><path d="M27.15,29.25a2.41,2.41,0,0,1-1.08.25q-.55.06-1.11.09v0c.36-.09.72-.18,1.08-.25a2.31,2.31,0,0,1,1.11-.09Z" style="fill:#fcee21"/><path d="M27.27,29.25a1.71,1.71,0,0,1,.68.27,2.52,2.52,0,0,1,.5.48c.32.33.64.67.95,1l0,0q-.6-.36-1.17-.75a2.88,2.88,0,0,1-.56-.41,2,2,0,0,1-.39-.61Z" style="fill:#fcee21"/><path d="M22.43,30.59a1.56,1.56,0,0,1-.2.39,1.86,1.86,0,0,1-.31.21,2.29,2.29,0,0,0-.53.58l-.05,0a1.73,1.73,0,0,1,.29-.83.79.79,0,0,1,.29-.34.63.63,0,0,1,.49,0Z" style="fill:#fcee21"/><path d="M34.22,25.44c-.26,0-.46,0-.66,0s-.4,0-.6,0a1.7,1.7,0,0,0-1,.71l0,0a1.7,1.7,0,0,1,.95-1.07,1.27,1.27,0,0,1,.76-.15,1,1,0,0,1,.65.41Z" style="fill:#fcee21"/></g></g><g id="M"><path d="M15.79,13.38s4.2-1.15,4.2-.81,1.09,1.69,1.77.27,4.67-1.19,5.89-1.19-.41,8.44-.41,10.44a2.88,2.88,0,0,0,1.66,2.67s-.07,5.22-.37,5.49-1.35.21-3.42-.78-2.31-7.38-2.24-8.26-1.66-.44-2.4-.31-.07,5.63-.07,6-2.74,2.81-2.74,2.81a5,5,0,0,1-2-.88C15.18,28.32,15.89,13.45,15.79,13.38Z" style="fill:#fff;stroke:#7c8c03;stroke-miterlimit:10"/><path d="M15.51,24.23a49.55,49.55,0,0,1,.1-7.41,23.17,23.17,0,0,1,.27-3.36v-.17a6.41,6.41,0,0,0,1.76-1.15c1.19-.91,3.73-2.74,3.73-.13.14.37.41.81.54,1.15a3.42,3.42,0,0,1,.44-.88c1.19-.82,2-1.83,3.29-1.83a16.15,16.15,0,0,0,2.3.1,1.68,1.68,0,0,1,1,.13c0,4.44-1.32,8.1-.24,12.47.31,1.46,1.12.78,1.7,1.59-.37,1.76-1.36,4.24-1.39,5.93-2.74.51-3.73-.71-4.78-2.17C23.44,27.32,23,23.42,23,20.68V19.29a6.43,6.43,0,0,1-.58,1.18c-.47.65-1.56.55-2.23.28a3.17,3.17,0,0,1-.14.57c-.54,1.86.64,3.86.41,5.69-.11.71-2.07,2.47-2.38,3.25l-2.13-1a1,1,0,0,0-.2-.07C16.19,27.59,15.65,25.86,15.51,24.23ZM18,29.82c.38-2-.44-9.31.68-12,1.12.78,1.05,1.49,1.42,2.34,1.73,1.32,2.44-.68,3.19-1.86.06.06.2.1.2.3a16.79,16.79,0,0,0,.17,5.52,15.07,15.07,0,0,0,.68,3.66A7.38,7.38,0,0,0,27,30.3a4,4,0,0,0,1.66.07,30.5,30.5,0,0,0-.23-3.15c-.51,0-.68,0-.88-.21v0c-1-.68-1-2.48-1-3.66,0-3.83-.34-7.32.55-10.81-.38,0-1.19,0-2,0a18.78,18.78,0,0,0-2.57.1c-.68,1.32-1,3.69-1.7,4.88a.34.34,0,0,1-.3-.1c-.51-1.33-.37-2.78-.85-4.1a8.74,8.74,0,0,1-3.35.37c.27,4-.81,8-.1,12,0,.71.4,2.5,0,3.28a.11.11,0,0,1,0,.1A8.32,8.32,0,0,0,18,29.82Z" style="fill:#d91a60;stroke:#7c8c03;stroke-miterlimit:10"/></g></g></g></svg>