<svg xmlns="http://www.w3.org/2000/svg" viewBox="0 0 50 50"><g id="menu-button"><g id="button"><polyline points="7.08 41.5 7.08 12.33 50.24 12.33 50.24 45 10.4 45" style="opacity:0.28"/><polyline points="12.4 36.19 12.4 8.31 7.09 8.31 7.09 41.5" style="fill:#d62d7a"/><polyline points="7.09 8.31 12.4 8.31 12.4 3" style="fill:#d62d7a"/><polyline points="12.4 36.19 12.4 41.5 7 41.5" style="fill:#871242"/><polyline points="40.19 41.5 12.4 41.5 12.4 36.19 45.59 36.19" style="fill:#871242"/><rect x="12.4" y="3" width="33.19" height="33.19" style="fill:#d91a60"/></g><g id="menu-outline"><path d="M21,17.24H37.53c.54,0,1,.62,1,1.38v.14c0,.76-.44,1.38-1,1.38H21c-.53,0-1-.62-1-1.38v-.14C20,17.86,20.48,17.24,21,17.24Z" style="fill:#c7b299"/><path d="M21,24.48H37.53c.54,0,1,.62,1,1.38V26c0,.76-.44,1.38-1,1.38H21c-.53,0-1-.62-1-1.38v-.14C20,25.1,20.48,24.48,21,24.48Z" style="fill:#c7b299"/><path d="M21,10H37.53c.54,0,1,.62,1,1.38v.14c0,.76-.44,1.38-1,1.38H21c-.53,0-1-.62-1-1.38v-.14C20,10.62,20.48,10,21,10Z" style="fill:#c7b299"/></g></g></svg>