<svg id="menu-button-pressed" xmlns="http://www.w3.org/2000/svg" viewBox="0 0 50 50"><g id="button-pressed"><polyline points="7.02 41.5 7.02 12.33 44.31 12.33 44.31 45 9.89 45" style="opacity:0.28"/><polyline points="12.34 36.19 12.34 8.31 7.03 8.31 7.03 41.5" style="fill:#d62d7a"/><polyline points="7.03 8.31 8.34 8.31 8.34 7" style="fill:#d62d7a"/><polyline points="12.34 36.19 12.34 41.5 6.95 41.5" style="fill:#871242"/><path d="M41.5,40.16,40.14,41.5H12.34V36.19H41.53" style="fill:#871242"/><rect x="8.34" y="7" width="33.19" height="33.19" style="fill:#d91a60"/></g><g id="menu-outline"><path d="M17,22.24H33.48c.54,0,1,.62,1,1.38v.14c0,.76-.43,1.38-1,1.38H17c-.54,0-1-.62-1-1.38v-.14C16,22.86,16.42,22.24,17,22.24Z" style="fill:#c7b299"/><path d="M17,29.48H33.48c.54,0,1,.62,1,1.38V31c0,.76-.43,1.38-1,1.38H17c-.54,0-1-.62-1-1.38v-.14C16,30.1,16.42,29.48,17,29.48Z" style="fill:#c7b299"/><path d="M17,15H33.48c.54,0,1,.62,1,1.38v.14c0,.76-.43,1.38-1,1.38H17c-.54,0-1-.62-1-1.38v-.14C16,15.62,16.42,15,17,15Z" style="fill:#c7b299"/></g></svg>