<svg xmlns="http://www.w3.org/2000/svg" viewBox="0 0 210 90"><g id="pink-button"><rect id="shade" x="24" y="22.5" width="185" height="62" rx="23.25" style="opacity:0.41"/><rect x="11" y="12.5" width="185" height="62" rx="23.25" style="fill:none;stroke:#871242;stroke-miterlimit:10;stroke-width:8px"/><g id="Play_Button" data-name="Play Button"><path d="M24,72.1A23.26,23.26,0,0,1,11,51.25V35.75A23.25,23.25,0,0,1,21,16.67" style="fill:none;stroke:#d62d7a;stroke-miterlimit:10;stroke-width:8px"/><rect x="15" y="7.5" width="185" height="62" rx="23.25" style="fill:#fff;stroke:#d91a60;stroke-miterlimit:10;stroke-width:8px"/><g id="symbols"><path d="M35.69,40.42s0-.17,0-.17v-.8s0-.33.08-.37l.34-1.26a1.85,1.85,0,0,0,.29-.17l.13,0h.17a3.31,3.31,0,0,1,.71,0c.12,0,.5.08.54,0s.55.17.63.17a6.93,6.93,0,0,1,.63.5,4.41,4.41,0,0,1,.59.76s.17.62.21.71a3,3,0,0,1-.84,0l-.5-.63L38.46,39l-.25,0c-.09,0-.3,0-.34,0a1.42,1.42,0,0,0-.38.25,2.38,2.38,0,0,1-.25.16l-.12.17v.13s0,.12,0,.17a8.26,8.26,0,0,0,.88.79c0,.09.08.13.17.13a2.6,2.6,0,0,0,.46.25,5.53,5.53,0,0,1,.63.17,1.81,1.81,0,0,0,.42,0s.55,0,.75-.08l.76-.17a5.24,5.24,0,0,0,1-.29s.37-.17.42-.21,1-.42,1.17-.55h.13c.08,0,.75-.25.79-.25L46,39.37c.05,0,1.1-.17,1.47-.25l1.47-.25a1.63,1.63,0,0,0,.63.08A8.68,8.68,0,0,1,51,38.7a8.2,8.2,0,0,1,1,0l1-.17c.17,0,.88-.21,1-.21a.7.7,0,0,0,.29-.17l0,0s-.08-.09-.08-.13-.76-.67-.84-.8-.63-.71-.72-.75l-.92-1.14a3.59,3.59,0,0,1-.33-.5l-.59-.67s-.25-.34-.34-.29a6.33,6.33,0,0,0-.71-.68c-.3-.21-1.76-1.3-2.1-1.46l-.59-.34-1-.29c-.13,0-.8-.09-.8-.09s-.55.09-.67.09a6.5,6.5,0,0,0-.8.16s-.21.09-.21.17-.13.13-.17.13-.17.46-.21.46-.29.59-.25.67a4,4,0,0,0,0,.71s0,.47.08.68a4.41,4.41,0,0,0,.17.54.93.93,0,0,0,.17.46l.46.3a1.31,1.31,0,0,0,.46.08h.13a.4.4,0,0,0,.12,0s.25-.13.25-.21l.38-.34a.5.5,0,0,1,.13,0h.17s.33,0,.5,0c0,.05.21.09.25.09l.3.25a2,2,0,0,1,0,.21c0,.08,0,.21,0,.25s-.13.25-.21.29a2.69,2.69,0,0,1-.5.51,2.37,2.37,0,0,1-.34,0,1.91,1.91,0,0,1-.34.08c-.08,0-.58-.12-.75-.16a2.94,2.94,0,0,1-.76-.26,10.51,10.51,0,0,1-1.42-.92,2.61,2.61,0,0,1-.42-.38s-.59-.54-.68-.63L41.15,34v-.12c0-.3-.09-1.22-.09-1.3a3.5,3.5,0,0,1,0-.63c0-.13.09-.63.13-.67a3,3,0,0,1,.38-.68,1.6,1.6,0,0,0,.33-.37,7.89,7.89,0,0,1,.68-.47c0-.12.5-.42.58-.46S43.88,29,44,29a2.26,2.26,0,0,1,.46-.13c.13,0,.51,0,.55-.08s.5,0,.67,0A7.45,7.45,0,0,1,46.9,29c.21,0,.8.08.92.08s1.22.42,1.64.63a4.12,4.12,0,0,1,.75.25,9.69,9.69,0,0,0,1.39.59c.08.09.59.42.63.51l.59.5s.25.21.33.25.3.29.3.29.21.17.21.17.16.21.21.21.58.59.63.67.46.42.54.47.63.84.71,1a4.29,4.29,0,0,0,.72.55,5.46,5.46,0,0,0,.29,1,1.29,1.29,0,0,1,.17.47,2.46,2.46,0,0,0,.46.46,8.35,8.35,0,0,0,.93.71l.5.63,1.38.34a1.36,1.36,0,0,1,.34.08,3.74,3.74,0,0,0,.71.13s.38.12.42.08a.81.81,0,0,1,.3.09,1.48,1.48,0,0,1,.08.25,1.11,1.11,0,0,1,0,.29c0,.13-.16.29-.25.38a6.57,6.57,0,0,0-.71.12c-.17.05-.63.13-.63.13a1.24,1.24,0,0,1-.46-.13c-.09,0-.42-.21-.47-.21a2,2,0,0,1-.71,0l-.17,0h-.12c0,.05-.21.21-.25.26s-.38-.05-.42-.13a2.8,2.8,0,0,1-.63-.13,3,3,0,0,0-.59,0,3.83,3.83,0,0,1-.51.09,4,4,0,0,1-.5.08l-.21.17a2.57,2.57,0,0,1-.29-.09,1,1,0,0,0-.34.09c-.12,0-.33,0-.38,0l-.58.25a5.77,5.77,0,0,1-.63.21,1.17,1.17,0,0,1-.38.21h-.13l-.5.59a.91.91,0,0,0-.38.21,4.16,4.16,0,0,0-.59.25s-.16.17-.21.17l-.67.38a.63.63,0,0,1-.21.17.5.5,0,0,0-.12.21,7.34,7.34,0,0,0-1.26.5,1.58,1.58,0,0,0-.38.21s-.46.21-.51.21a3.56,3.56,0,0,0-.54.38c-.29.08-1.68.12-2,.16a4.79,4.79,0,0,1-.84,0l-1,0c-.08,0-.88.17-1,.17a10,10,0,0,0-1.68-.3h-.12c-.17,0-.76-.12-.88-.12a1.17,1.17,0,0,1-.38-.21,4.65,4.65,0,0,1-1-.3s-.58-.33-.79-.42c0,0-.13-.08-.13-.08-.21-.21-.71-.76-.75-.76s-.21-.46-.21-.54-.8-1.09-1-1.3ZM51,46s.25-.88.34-1.22l.21-.46.67-1a9.21,9.21,0,0,0,.8-.55,4.57,4.57,0,0,1,.63-.42c.12,0,.67-.38.84-.42a4.56,4.56,0,0,0,.5-.21,4.66,4.66,0,0,1,.67-.29l1.39-.38h0a.14.14,0,0,0,.08,0,4.86,4.86,0,0,0,.93.29s.37.09.42.09a.9.9,0,0,1,.46.21s0,.12.08.21,0,.16,0,.16-.17.21-.25.21a7.36,7.36,0,0,0-.84.17c-.09,0-.55.21-.63.21s-.93.55-1.09.63c0,0-.55.46-.59.59a1.27,1.27,0,0,0-.38.17,2.38,2.38,0,0,1-.25.16c0,.09-.42.42-.5.55a8.4,8.4,0,0,0-.63.67c0,.13-.42.55-.38.63a1.65,1.65,0,0,0-.13.29v.17a.22.22,0,0,1,0,.13s.17.12.21.12a5,5,0,0,1,.55.21,1.57,1.57,0,0,1,.46.17l.34.25c.08,0,.12.21.16.26s.09.29.09.37a1.29,1.29,0,0,1,0,.34,2.84,2.84,0,0,0-.21.29,3.22,3.22,0,0,1-.54.38l-.34.21H54l-.16,0a4.68,4.68,0,0,1-.84,0,1.45,1.45,0,0,1-.51-.08,1.8,1.8,0,0,1-.46-.29,12.83,12.83,0,0,1-.8-1.43,3.13,3.13,0,0,1-.16-.76A4.46,4.46,0,0,1,51,46Z"/><path d="M165.14,46.17a2.63,2.63,0,0,0-.17-.76s-.37-.42-.5-.5c-.42-.25-1.26-.92-1.51-1A6.52,6.52,0,0,0,161.7,43a1.33,1.33,0,0,1-.46-.17,5.9,5.9,0,0,0-.59-.16,2.41,2.41,0,0,0-.46-.3l-.29-.21a7.38,7.38,0,0,0-1.1-.59l.26-.25c0-.08,1.09-.12,1.09-.21h.16a3.2,3.2,0,0,0,.89.21l.33,0,1.39.47.92.37h.09s.33.21.37.21a3.24,3.24,0,0,0,.38.21l.88.55a3.08,3.08,0,0,1,.72.54l.5.51a4,4,0,0,1,.84,1,2.74,2.74,0,0,1,.38.68s.08.5.08.62a3.19,3.19,0,0,1,.08.8v.38c0,.17,0,.38,0,.42s-.08.46-.21.59-.08.29-.12.29-.42.3-.51.34-.37.38-.42.38-.75-.09-.88-.09a5.85,5.85,0,0,1-.8-.29l-.46-.59s0-1,0-1.47C164.76,47.22,165.14,46.21,165.14,46.17Zm-3.86-6.09a6.83,6.83,0,0,0-.88.17l-.21,0H160a1.77,1.77,0,0,1-.46-.25l-.3-.17a2.09,2.09,0,0,0-.25-.3c-.21-.25.38-1.21,1-1.13v0s.33-.08.38-.17a3.09,3.09,0,0,0,1.09,0l.5-.46a16.14,16.14,0,0,0,1.14-1.18,3.29,3.29,0,0,1,.46-.33,6.17,6.17,0,0,1,.71-.76,4.42,4.42,0,0,1,.71-1.05,19.88,19.88,0,0,1,2-1.85l.42-.29c.17,0,.92-.67,1-.67a7.77,7.77,0,0,1,.67-.46,1.53,1.53,0,0,0,.25-.13,14.78,14.78,0,0,0,1.43-.5,11.66,11.66,0,0,1,1.17-.21s.76.08,1,.08,1.17.09,1.22.09.67.12.75.25a2.12,2.12,0,0,0,.42.33,5,5,0,0,0,.55.51,11.82,11.82,0,0,1,1.05,1.42c0,.05.17.26.12.3s.26.21.34.29a5.25,5.25,0,0,1,.17,1,3.88,3.88,0,0,1,.08.63v.29l-.21,1s-.17.33-.21.38-.29.42-.33.54c-.26.17-1.1,1-1.26,1a4,4,0,0,1-.76.42,2.38,2.38,0,0,1-.76.13c-.08,0-.62-.13-.71-.3a6.77,6.77,0,0,1-.75-.29c-.09-.08-.3-.17-.34-.25s-.29-.46-.34-.63-.42-.8-.42-.8,0-.38,0-.46,0-.3.05-.3l.5-.16.67.88H173a1.08,1.08,0,0,0,.34,0,2.05,2.05,0,0,1,.42-.29,6.66,6.66,0,0,0,.67-.63l.33-.51c.09-.08.13-.46.17-.54a1.6,1.6,0,0,0,0-.25v-.3a3.14,3.14,0,0,0-.08-.5,1.9,1.9,0,0,1-.13-.34c-.21-.12-.75-.54-.88-.59s-.59,0-.84-.08l-.84,0a7,7,0,0,1-.88.46s-.54.25-.71.38a3.85,3.85,0,0,0-.51.29s-.25.09-.29.09-.46.29-.55.25a1.66,1.66,0,0,1-.46.5s-.29,0-.29.09a9,9,0,0,0-1,.88,4.46,4.46,0,0,0-.84,1.05,2.88,2.88,0,0,1-.63.33,7.09,7.09,0,0,1-.79.76s-.42.17-.42.21-.09.17-.09.21,0,.17.09.21l1.55.25a5.67,5.67,0,0,0,1,.25,9.48,9.48,0,0,0,1,.38c.08,0,1.13.54,1.3.63a7.5,7.5,0,0,1,1,.33H171c.08,0,.25.26.29.26s.34,0,.38,0c.38.08,3.4.46,3.78.46a4.25,4.25,0,0,1,.84.12c.17,0,.59,0,.63,0s.54.12.71,0a2.81,2.81,0,0,0,.88-.17,4.55,4.55,0,0,1,.93-.38,3.26,3.26,0,0,0,.75-.29s.21-.09.21-.13l.84-.5c.09,0,.3-.34.34-.34s.59-.59.67-.75-.08-.72-.08-.76-.89-.63-1-.63-.67.8-.76.76h-.33s-.25-.3-.38-.34-.13-.13-.13-.13.17-.33.17-.46.51-.46.51-.54l1.55-.21a1.32,1.32,0,0,1,.34.16l.16.13c.13.13.93.5,1,.59a7.54,7.54,0,0,0,.42.63,2.93,2.93,0,0,1,.34,1s0,.3,0,.38a3,3,0,0,0-.09.42,6.42,6.42,0,0,1-.29.8,2.4,2.4,0,0,0-.38.29s-.25.42-.29.42a9.2,9.2,0,0,0-1,.72c-.17.16-.8.71-.92.88,0,0-.55.29-.76.38,0,0-.33.08-.38.08a1,1,0,0,1-.29.29,6.22,6.22,0,0,0-.63.3c-.17,0-1.38.46-1.55.46l-.63.25c-.13.08-.63.21-.72.25a3.08,3.08,0,0,0-.71.17c-.08,0-.59.08-.63.08s-.54,0-.63-.08a4.18,4.18,0,0,1-.75.13s-.47,0-.59,0-.59,0-.63,0-.34-.25-.42-.29-.5-.17-.59-.17-.33-.17-.38-.17l-.63-.21a1.45,1.45,0,0,0-.5-.33,3.5,3.5,0,0,0-.46-.42c-.13,0-.92-.55-1.18-.63a5.94,5.94,0,0,0-1.26-.76,2.25,2.25,0,0,0-.46-.21,4.35,4.35,0,0,0-.67-.42s-.46-.12-.59-.25H165c-.29,0-2.39-.59-2.64-.67a2.88,2.88,0,0,0-.5-.09Z"/></g></g></g></svg>