<?xml version="1.0" encoding="utf-8"?>
<svg xmlns="http://www.w3.org/2000/svg" xmlns:xlink="http://www.w3.org/1999/xlink">
    <defs>
        <style xmlns="http://www.w3.org/2000/svg">
            .sprite-symbol-usage {
                display: none;
            }
            
            .sprite-symbol-usage:target {
                display: inline;
            }
        </style>
        <symbol viewBox="0 0 50 50" id="menu-down" xmlns="http://www.w3.org/2000/svg"><path opacity=".28" d="M2.71 42.5V13.33H40V46H5.58" data-name="Welcome Page Web"/><g data-name="Sprite buttons"><path fill="#d62d7a" d="M8.03 37.19V9.31H2.72V42.5M2.72 9.31h1.31V8"/><path fill="#d62d7a" d="M8.03 37.19v5.31h-5.4"/><path d="M37.19 41.16l-1.37 1.34H8v-5.31h29.22" fill="#d62d7a"/><path fill="#d62d7a" d="M4.03 8h33.19v33.19H4.03z"/><g fill="#d62d7a"><path d="M12.65 23.24h16.52c.53 0 1 .62 1 1.38v.14c0 .76-.44 1.38-1 1.38H12.65c-.54 0-1-.62-1-1.38v-.14c.02-.76.46-1.38 1-1.38zM12.65 30.48h16.52c.53 0 1 .62 1 1.38V32c0 .76-.44 1.38-1 1.38H12.65c-.54 0-1-.62-1-1.38v-.14c.02-.76.46-1.38 1-1.38zM12.65 16h16.52c.53 0 1 .62 1 1.38v.14c0 .76-.44 1.38-1 1.38H12.65c-.54 0-1-.62-1-1.38v-.14c.02-.76.46-1.38 1-1.38z"/></g><path fill="#d62d7a" d="M8.03 37.19V9.31H2.72V42.5M2.72 9.31h1.31V8"/><path fill="#871242" d="M8.03 37.19v5.31h-5.4"/><path d="M37.19 41.16l-1.37 1.34H8v-5.31h29.22" fill="#871242"/><path fill="#d91a60" d="M4.03 8h33.19v33.19H4.03z"/><g data-name="menu-outline" fill="#c7b299"><path d="M12.65 23.24h16.52c.53 0 1 .62 1 1.38v.14c0 .76-.44 1.38-1 1.38H12.65c-.54 0-1-.62-1-1.38v-.14c.02-.76.46-1.38 1-1.38zM12.65 30.48h16.52c.53 0 1 .62 1 1.38V32c0 .76-.44 1.38-1 1.38H12.65c-.54 0-1-.62-1-1.38v-.14c.02-.76.46-1.38 1-1.38zM12.65 16h16.52c.53 0 1 .62 1 1.38v.14c0 .76-.44 1.38-1 1.38H12.65c-.54 0-1-.62-1-1.38v-.14c.02-.76.46-1.38 1-1.38z"/></g>
            </g>
        </symbol>
        <symbol viewBox="0 0 50 50" id="menu-up" xmlns="http://www.w3.org/2000/svg"><path opacity=".28" d="M3.01 43.5V14.33h43.17V47H6.33" data-name="Welcome Page Web"/><g data-name="Sprite buttons"><path fill="#d62d7a" d="M8.33 38.19V10.31H3.02V43.5M3.02 10.31h5.31V5"/><path fill="#d62d7a" d="M8.33 38.19v5.31H2.94M36.13 43.5H8.33v-5.31h33.19M8.33 5h33.19v33.19H8.33z"/><g fill="#d62d7a"><path d="M17 19.24h16.47c.53 0 1 .62 1 1.38v.14c0 .76-.44 1.38-1 1.38H17c-.54 0-1-.62-1-1.38v-.14c0-.76.41-1.38 1-1.38zM17 26.48h16.47c.53 0 1 .62 1 1.38V28c0 .76-.44 1.38-1 1.38H17c-.54 0-1-.62-1-1.38v-.14c0-.76.41-1.38 1-1.38zM17 12h16.47c.53 0 1 .62 1 1.38v.14c0 .76-.44 1.38-1 1.38H17c-.54 0-1-.62-1-1.38v-.14c0-.76.41-1.38 1-1.38z"/></g><path fill="#d62d7a" d="M8.33 38.19V10.31H3.02V43.5M3.02 10.31h5.31V5"/><path fill="#871242" d="M8.33 38.19v5.31H2.94M36.13 43.5H8.33v-5.31h33.19"/><path fill="#d91a60" d="M8.33 5h33.19v33.19H8.33z"/><g data-name="menu-outline" fill="#c7b299"><path d="M17 19.24h16.47c.53 0 1 .62 1 1.38v.14c0 .76-.44 1.38-1 1.38H17c-.54 0-1-.62-1-1.38v-.14c0-.76.41-1.38 1-1.38zM17 26.48h16.47c.53 0 1 .62 1 1.38V28c0 .76-.44 1.38-1 1.38H17c-.54 0-1-.62-1-1.38v-.14c0-.76.41-1.38 1-1.38zM17 12h16.47c.53 0 1 .62 1 1.38v.14c0 .76-.44 1.38-1 1.38H17c-.54 0-1-.62-1-1.38v-.14c0-.76.41-1.38 1-1.38z"/></g>
            </g>
        </symbol>
    </defs>
    <use id="menu-down-usage" xlink:href="#menu-down" class="sprite-symbol-usage"></use>
    <use id="menu-up-usage" xlink:href="#menu-up" class="sprite-symbol-usage"></use>
</svg>