<?xml version="1.0" encoding="utf-8"?>
<svg xmlns="http://www.w3.org/2000/svg" xmlns:xlink="http://www.w3.org/1999/xlink">
    <defs>
        <style xmlns="http://www.w3.org/2000/svg">
            .sprite-symbol-usage {
                display: none;
            }
            
            .sprite-symbol-usage:target {
                display: inline;
            }
        </style>
        <symbol viewBox="0 0 202 80" id="large-blue-button-down" xmlns="http://www.w3.org/2000/svg">
        <defs>
            <clipPath id="aa"><path d="M195.619 58.078a16.279 16.279 0 01-16.09 15.892l-9.469-6.094a16.279 16.279 0 0016.09-15.892z" fill="none"/></clipPath>
            <clipPath id="ab"><path d="M187.765 58.078a8.141 8.141 0 01-8.05 7.95l-9.469-6.093a8.141 8.141 0 008.05-7.95z" fill="none"/></clipPath>
            <clipPath id="ac"><path d="M179.716 66.028l-9.47-6.093a8.141 8.141 0 008.05-7.95l9.469 6.093a8.141 8.141 0 01-8.05 7.95z" fill="none"/></clipPath>
            <clipPath id="ad"><path d="M178.912 20.876l9.469 6.094a7.997 7.997 0 01.081 1.344l-9.47-6.094a7.997 7.997 0 00-.08-1.344z" fill="none"/></clipPath>
            <clipPath id="ae"><path d="M178.912 20.876a7.792 7.792 0 00-.466-1.744l9.47 6.093a7.792 7.792 0 01.465 1.745l-9.47-6.094z" fill="none"/></clipPath>
            <clipPath id="af"><path d="M177.312 17.17l9.47 6.093a7.73 7.73 0 011.134 1.962l-9.47-6.093a7.73 7.73 0 00-1.134-1.962z" fill="none"/></clipPath>
            <clipPath id="ag"><path d="M177.117 16.934q-.144-.168-.298-.327l9.47 6.094q.153.159.297.327l-8.073-5.195-.697-.45-.183-.117-.09-.058-.177-.114a2.042 2.042 0 01-.249-.16z" fill="none"/></clipPath>
            <clipPath id="ah"><path d="M175.456 15.489l9.47 6.093a7.75 7.75 0 013.536 6.731l-9.47-6.093a7.75 7.75 0 00-3.536-6.731z" fill="none"/></clipPath>
            <clipPath id="ai"><path d="M175.456 15.488l9.469 6.094a7.663 7.663 0 011.363 1.119l-9.47-6.094a7.663 7.663 0 00-1.362-1.119z" fill="none"/></clipPath>
            <clipPath id="aj"><path d="M189.242 14.849a15.503 15.503 0 017.074 13.464l-9.47-6.093a15.503 15.503 0 00-7.074-13.465l9.47 6.094z" fill="none"/></clipPath>
            <clipPath id="ak"><path d="M184.925 21.582a7.617 7.617 0 00-4.14-1.21l-9.47-6.093a7.617 7.617 0 014.14 1.21l9.47 6.093z" fill="none"/></clipPath>
            <clipPath id="al"><path d="M171.316 14.279a7.617 7.617 0 014.14 1.21l9.469 6.093a7.617 7.617 0 00-4.14-1.21l-9.469-6.093z" fill="none"/></clipPath>
            <clipPath id="am"><path d="M179.772 8.755l9.47 6.094a15.217 15.217 0 00-8.27-2.418l-9.47-6.094a15.217 15.217 0 018.27 2.418z" fill="none"/></clipPath>
            <clipPath id="an"><path d="M12.6 65.459a15.214 15.214 0 008.27 2.417l9.469 6.094a15.214 15.214 0 01-8.269-2.418L12.6 65.46z" fill="none"/></clipPath>
            <clipPath id="ao"><path d="M21.056 59.935l9.469 6.093a7.614 7.614 0 01-4.138-1.209l-9.47-6.093a7.614 7.614 0 004.139 1.209z" fill="none"/></clipPath>
            <clipPath id="ap"><path d="M26.386 64.819l-9.469-6.094a7.614 7.614 0 004.139 1.21l9.469 6.093a7.614 7.614 0 01-4.139-1.21z" fill="none"/></clipPath>
            <clipPath id="aq"><path d="M16.917 58.726a7.66 7.66 0 01-1.365-1.122l9.47 6.094a7.661 7.661 0 001.365 1.121l-9.47-6.093z" fill="none"/></clipPath>
            <clipPath id="ar"><path d="M16.917 58.725a7.758 7.758 0 01-3.538-6.74l9.47 6.093a7.758 7.758 0 003.537 6.74l-9.469-6.093z" fill="none"/></clipPath>
            <clipPath id="as"><path d="M15.552 57.604a7.788 7.788 0 01-2.173-5.62l9.47 6.094a7.788 7.788 0 002.172 5.62l-9.469-6.094z" fill="none"/></clipPath>
            <clipPath id="at"><path d="M22.07 71.552L12.6 65.46a15.511 15.511 0 01-7.075-13.474l9.47 6.093a15.511 15.511 0 007.075 13.474z" fill="none"/></clipPath>
            <clipPath id="au"><path d="M23.546 28.314l-9.47-6.094a8.14 8.14 0 018.05-7.941l9.469 6.093a8.14 8.14 0 00-8.05 7.942z" fill="none"/></clipPath>
            <clipPath id="av"><path d="M31.595 20.372a8.14 8.14 0 00-8.05 7.941l-9.469-6.093a8.14 8.14 0 018.05-7.941z" fill="none"/></clipPath>
            <clipPath id="aw"><path d="M15.692 28.313l-9.47-6.093a16.277 16.277 0 0116.09-15.883l9.469 6.094a16.277 16.277 0 00-16.09 15.882z" fill="none"/></clipPath>
        </defs>
        <g data-name="Large Blue Button - down"><rect x="3.919" y="5.084" width="178.081" height="57.067" rx="14.235" opacity=".4"/><g style="isolation:isolate"><path d="M171.316 14.279a7.691 7.691 0 017.677 7.941l-.698 29.765a8.141 8.141 0 01-8.049 7.95H21.056a7.693 7.693 0 01-7.677-7.95l.697-29.765a8.14 8.14 0 018.05-7.941z" fill="#d7cec3"/><path d="M171.502 6.337a15.381 15.381 0 0115.345 15.883l-.698 29.764a16.279 16.279 0 01-16.089 15.892H20.87A15.383 15.383 0 015.525 51.985l.697-29.765a16.277 16.277 0 0116.09-15.883zm6.793 45.648l.698-29.765a7.691 7.691 0 00-7.677-7.941H22.126a8.14 8.14 0 00-8.05 7.941l-.697 29.765a7.693 7.693 0 007.677 7.95h149.19a8.141 8.141 0 008.05-7.95" fill="#233455"/><g style="isolation:isolate" clip-path="url(#aa)"><path d="M195.619 58.078l-9.47-6.093a16.37 16.37 0 01-11.681 15.26l9.469 6.093a16.37 16.37 0 0011.682-15.26" fill="#131c2e"/><path d="M183.937 73.338l-9.47-6.093a15.668 15.668 0 01-4.407.631l9.47 6.094a15.668 15.668 0 004.407-.632" fill="#141d30"/></g>
                <g style="isolation:isolate" clip-path="url(#ab)"><path d="M187.765 58.078l-9.47-6.093a8.187 8.187 0 01-5.842 7.634l9.47 6.093a8.187 8.187 0 005.842-7.634" fill="#75706a"/><path d="M181.923 65.712l-9.47-6.093a7.846 7.846 0 01-2.207.316l9.47 6.093a7.846 7.846 0 002.207-.316" fill="#7a756e"/></g>
                <g style="isolation:isolate" clip-path="url(#ac)"><path d="M179.716 66.028l-9.47-6.093a7.845 7.845 0 002.207-.316l9.47 6.093a7.846 7.846 0 01-2.207.316" fill="#141d30"/><path d="M181.923 65.712l-9.47-6.093a8.187 8.187 0 005.842-7.634l9.47 6.093a8.187 8.187 0 01-5.842 7.634" fill="#131c2e"/></g><path fill="#131b2d" d="M196.316 28.313l-.697 29.765-9.47-6.093.698-29.765 9.469 6.093z"/><path fill="#716c66" d="M188.462 28.314l-.697 29.764-9.47-6.093.698-29.765 9.469 6.094z"/><path fill="#131b2d" d="M187.765 58.078l-9.47-6.093.698-29.765 9.469 6.093-.697 29.765z"/><g clip-path="url(#ad)"><path d="M184.925 21.582l-9.47-6.093a7.75 7.75 0 013.538 6.731l9.47 6.094a7.75 7.75 0 00-3.538-6.732" fill="#75706a"/></g>
                <g clip-path="url(#ae)"><path d="M184.925 21.582l-9.47-6.093a7.75 7.75 0 013.538 6.731l9.47 6.094a7.75 7.75 0 00-3.538-6.732" fill="#75706a"/></g>
                <g clip-path="url(#af)"><path d="M184.925 21.582l-9.47-6.093a7.75 7.75 0 013.538 6.731l9.47 6.094a7.75 7.75 0 00-3.538-6.732" fill="#75706a"/></g>
                <g clip-path="url(#ag)"><path d="M184.925 21.582l-9.47-6.093a7.75 7.75 0 013.538 6.731l9.47 6.094a7.75 7.75 0 00-3.538-6.732" fill="#75706a"/></g>
                <g clip-path="url(#ah)"><path d="M188.462 28.313l-9.47-6.093a7.75 7.75 0 00-3.536-6.731l9.47 6.093a7.75 7.75 0 013.536 6.731" fill="#131c2e"/></g>
                <g clip-path="url(#ai)"><path d="M184.925 21.582l-9.47-6.093a7.75 7.75 0 013.538 6.731l9.47 6.094a7.75 7.75 0 00-3.538-6.732" fill="#75706a"/></g>
                <g clip-path="url(#aj)"><path d="M189.242 14.849l-9.47-6.094a15.503 15.503 0 017.075 13.465l9.469 6.093a15.503 15.503 0 00-7.074-13.464" fill="#131c2e"/></g>
                <g style="isolation:isolate" clip-path="url(#ak)"><path d="M184.925 21.582l-9.47-6.093a7.585 7.585 0 00-1.983-.905l9.47 6.094a7.585 7.585 0 011.983.904" fill="#151e32"/><path d="M182.941 20.678l-9.469-6.094a7.696 7.696 0 00-2.156-.305l9.47 6.093a7.696 7.696 0 012.155.306" fill="#141d30"/></g>
                <g style="isolation:isolate" clip-path="url(#al)"><path d="M180.785 20.372l-9.469-6.093a7.697 7.697 0 012.156.305l9.47 6.094a7.697 7.697 0 00-2.157-.306" fill="#7a756e"/><path d="M182.941 20.678l-9.469-6.094a7.585 7.585 0 011.984.905l9.47 6.093a7.585 7.585 0 00-1.985-.904" fill="#7e7972"/></g>
                <g style="isolation:isolate" clip-path="url(#am)"><path d="M180.971 12.43l-9.469-6.093a15.369 15.369 0 014.305.61l9.47 6.094a15.369 15.369 0 00-4.306-.61" fill="#141d30"/><path d="M185.277 13.04l-9.47-6.093a15.16 15.16 0 013.965 1.808l9.47 6.094a15.159 15.159 0 00-3.965-1.808" fill="#151e32"/></g><path fill="#141d31" d="M179.53 73.97H30.339l-9.469-6.094h149.19l9.47 6.094z"/><path fill="#7b766f" d="M179.716 66.028H30.525l-9.469-6.093h149.19l9.47 6.093z"/><path fill="#141d31" d="M30.525 66.028l-9.469-6.093h149.19l9.47 6.093H30.525z"/><g style="isolation:isolate" clip-path="url(#an)"><path d="M30.339 73.97l-9.47-6.094a15.367 15.367 0 01-4.304-.61l9.469 6.094a15.367 15.367 0 004.305.61" fill="#141d30"/><path d="M26.034 73.36l-9.47-6.094a15.154 15.154 0 01-3.963-1.807l9.47 6.093a15.155 15.155 0 003.963 1.808" fill="#151e32"/></g>
                <g style="isolation:isolate" clip-path="url(#ao)"><path d="M30.525 66.028l-9.47-6.093a7.695 7.695 0 01-2.155-.306l9.47 6.094a7.695 7.695 0 002.155.305" fill="#7a756e"/><path d="M28.37 65.723l-9.47-6.094a7.58 7.58 0 01-1.983-.904l9.47 6.094a7.58 7.58 0 001.982.904" fill="#7e7972"/></g>
                <g style="isolation:isolate" clip-path="url(#ap)"><path d="M26.386 64.819l-9.469-6.094a7.58 7.58 0 001.983.904l9.47 6.094a7.58 7.58 0 01-1.984-.904" fill="#151e32"/><path d="M28.37 65.723l-9.47-6.094a7.695 7.695 0 002.156.306l9.469 6.093a7.695 7.695 0 01-2.156-.305" fill="#141d30"/></g>
                <g clip-path="url(#aq)"><path d="M26.387 64.819l-9.47-6.094a7.758 7.758 0 01-3.538-6.74l9.47 6.093a7.758 7.758 0 003.538 6.74" fill="#75706a"/></g>
                <g clip-path="url(#ar)"><path d="M22.848 58.078l-9.469-6.093a7.758 7.758 0 003.538 6.74l9.47 6.094a7.758 7.758 0 01-3.539-6.741" fill="#131c2e"/></g>
                <g clip-path="url(#as)"><path d="M26.387 64.819l-9.47-6.094a7.758 7.758 0 01-3.538-6.74l9.47 6.093a7.758 7.758 0 003.538 6.74" fill="#75706a"/></g>
                <g clip-path="url(#at)"><path d="M22.07 71.552L12.6 65.46a15.511 15.511 0 01-7.075-13.474l9.47 6.093a15.511 15.511 0 007.075 13.474" fill="#131c2e"/></g><path fill="#7b766f" d="M31.595 20.372l-9.47-6.093h149.191l9.469 6.093H31.595z"/><path fill="#141d31" d="M180.785 20.372H31.595l-9.47-6.093h149.191l9.469 6.093z"/><path fill="#716c66" d="M22.848 58.078l-9.469-6.093.697-29.765 9.47 6.094-.698 29.764z"/><path fill="#131b2d" d="M23.546 28.313l-.698 29.765-9.469-6.093.697-29.765 9.47 6.093z"/><path fill="#141d31" d="M31.781 12.431l-9.47-6.094h149.191l9.469 6.094H31.781z"/><g style="isolation:isolate" clip-path="url(#au)"><path d="M23.546 28.314l-9.47-6.094a8.182 8.182 0 015.842-7.625l9.47 6.093a8.182 8.182 0 00-5.842 7.626" fill="#75706a"/><path d="M29.387 20.688l-9.47-6.093a7.847 7.847 0 012.208-.316l9.47 6.093a7.847 7.847 0 00-2.208.316" fill="#7a756e"/></g>
                <g style="isolation:isolate" clip-path="url(#av)"><path d="M31.595 20.372l-9.47-6.093a7.847 7.847 0 00-2.207.316l9.47 6.093a7.847 7.847 0 012.207-.316" fill="#141d30"/><path d="M29.387 20.688l-9.47-6.093a8.182 8.182 0 00-5.84 7.625l9.469 6.093a8.182 8.182 0 015.841-7.625" fill="#131c2e"/></g><path d="M180.971 12.43a15.381 15.381 0 0115.345 15.883l-.697 29.765a16.279 16.279 0 01-16.09 15.892H30.34a15.383 15.383 0 01-15.345-15.892l.698-29.764A16.277 16.277 0 0131.78 12.43zm6.794 45.648l.697-29.764a7.691 7.691 0 00-7.677-7.942H31.595a8.14 8.14 0 00-8.05 7.942l-.697 29.764a7.693 7.693 0 007.677 7.95h149.19a8.141 8.141 0 008.05-7.95" fill="#233455"/><path d="M180.785 20.372a7.691 7.691 0 017.677 7.942l-.697 29.764a8.141 8.141 0 01-8.05 7.95H30.526a7.693 7.693 0 01-7.677-7.95l.698-29.764a8.14 8.14 0 018.049-7.942z" fill="#d7cec3"/><path fill="#131b2d" d="M14.994 58.078l-9.469-6.093.697-29.765 9.47 6.093-.698 29.765z"/><g style="isolation:isolate" clip-path="url(#aw)"><path d="M15.692 28.313l-9.47-6.093A16.367 16.367 0 0117.903 6.969l9.47 6.093a16.367 16.367 0 00-11.681 15.251" fill="#131c2e"/><path d="M27.373 13.062l-9.47-6.093a15.67 15.67 0 014.408-.632l9.47 6.094a15.67 15.67 0 00-4.408.631" fill="#141d30"/></g>
            </g>
            <g fill="#1a2601"><path d="M28.377 44.568c-.042-.041-.042-.167-.042-.167v-.798c.042-.042.042-.336.084-.378l.336-1.26a1.827 1.827 0 00.294-.167l.126-.042h.168a3.983 3.983 0 01.714 0c.125-.042.504.084.545.042.127 0 .546.168.63.168.083.084.587.42.63.503a5.2 5.2 0 01.587.756c.041.042.168.63.21.714a2.888 2.888 0 01-.84-.042l-.503-.63a1.727 1.727 0 00-.168-.126s-.21.042-.251.042c-.084 0-.295.042-.336.042a1.44 1.44 0 00-.38.252 2.46 2.46 0 01-.251.168 1.785 1.785 0 00-.125.168v.126c0 .042.04.126.04.168a8.054 8.054 0 00.884.797c.04.084.084.126.168.126a2.47 2.47 0 00.46.252 4.75 4.75 0 01.63.168 1.732 1.732 0 00.42.042s.546-.042.755-.084c.211-.042.714-.168.756-.168a4.99 4.99 0 00.966-.294c0-.042.378-.168.419-.21.127-.084 1.008-.42 1.176-.545h.126c.084 0 .755-.252.797-.252l1.26-.42c.041 0 1.091-.168 1.469-.252l1.469-.252c.084.084.504.084.63.084a8.262 8.262 0 011.47-.252 7.746 7.746 0 011.006-.042s.798-.126 1.05-.168c.168 0 .88-.21 1.008-.21a.668.668 0 00.293-.168l.042-.042s-.083-.084-.083-.126c-.084-.126-.756-.671-.84-.797-.168-.168-.63-.714-.714-.755l-.924-1.134a3.49 3.49 0 01-.335-.503l-.588-.672c-.043 0-.252-.336-.336-.294a5.323 5.323 0 00-.714-.672c-.294-.21-1.762-1.3-2.098-1.469l-.588-.336-.965-.293c-.127 0-.799-.084-.799-.084-.04 0-.545.084-.67.084a6.196 6.196 0 00-.799.167c-.042 0-.21.084-.21.168-.042 0-.126.126-.167.126.041.084-.168.462-.21.462 0 .084-.294.587-.253.671a3.932 3.932 0 00-.04.714c.04.042.04.462.083.672a4.052 4.052 0 00.168.546 1.033 1.033 0 00.168.462l.461.293a1.296 1.296 0 00.462.084h.126a.423.423 0 00.126-.042c.042 0 .252-.126.252-.21l.378-.335a.425.425 0 01.125-.042h.168c.043 0 .336.042.504.042 0 .042.21.084.252.084.084.084.294.251.294.251a1.819 1.819 0 01.042.21c0 .084.042.21.042.252 0 0-.126.252-.21.294a2.786 2.786 0 01-.504.504 2.266 2.266 0 01-.336.041 1.889 1.889 0 01-.336.084c-.084 0-.587-.125-.754-.167a3.187 3.187 0 01-.756-.252 11.993 11.993 0 01-1.427-.924 3.784 3.784 0 01-.42-.377c0-.042-.588-.546-.672-.63l-.168-.21v-.126c-.042-.294-.084-1.218-.084-1.302a3.39 3.39 0 01.042-.629c.042-.126.084-.63.126-.672a3.177 3.177 0 01.378-.671 1.586 1.586 0 00.336-.378c.168-.084.587-.462.67-.462.044-.126.505-.42.589-.461.127 0 .672-.252.84-.252a2.228 2.228 0 01.461-.126c.126-.042.503-.042.546-.084 0 0 .504.042.672.042a8.394 8.394 0 011.175.126c.21 0 .798.084.923.084.043.084 1.218.42 1.638.629a3.991 3.991 0 01.755.252 9.256 9.256 0 001.386.588c.083.084.587.42.63.504l.587.503c.042 0 .252.21.336.252.041-.042.293.294.293.294.043 0 .21.168.21.168s.169.21.21.21c0 .084.588.587.63.671.168.084.462.42.546.462.042.084.63.84.713 1.008a4.635 4.635 0 00.714.545 5.182 5.182 0 00.293.966 1.165 1.165 0 01.168.461 2.362 2.362 0 00.462.462 8.773 8.773 0 00.924.714l.503.63 1.386.335a1.298 1.298 0 01.336.084 3.592 3.592 0 00.714.126c.04 0 .377.126.42.084a.828.828 0 01.293.084 1.742 1.742 0 01.084.252 1.084 1.084 0 01.043.294c0 .126-.168.294-.252.378a6.507 6.507 0 00-.715.126c-.167.042-.63.126-.63.126a1.489 1.489 0 01-.461-.126 5.045 5.045 0 01-.462-.21 2.098 2.098 0 01-.713-.042c-.043 0-.127.042-.168.042h-.127c0 .042-.209.21-.25.252 0 0-.379-.042-.42-.126a2.788 2.788 0 01-.63-.126 2.772 2.772 0 00-.589-.042 4.032 4.032 0 01-.504.084 4.012 4.012 0 01-.502.084l-.21.168a2.676 2.676 0 01-.294-.084.988.988 0 00-.336.084c-.126 0-.336.042-.378.042l-.588.251a5.47 5.47 0 01-.63.21 1.101 1.101 0 01-.377.21h-.126l-.504.588a.858.858 0 00-.378.21 3.527 3.527 0 00-.587.252c-.043 0-.168.168-.21.168l-.673.377a.577.577 0 01-.209.168.56.56 0 00-.126.21 7.833 7.833 0 00-1.258.504 1.708 1.708 0 00-.38.21c-.04 0-.46.21-.503.21-.084 0-.461.336-.545.378-.294.084-1.68.126-1.973.168a5.628 5.628 0 01-.84.042c-.21 0-.923.042-1.007.042s-.881.167-.965.167a10.81 10.81 0 00-1.68-.293h-.125c-.168 0-.756-.126-.883-.126a1.105 1.105 0 01-.377-.21 4.408 4.408 0 01-.966-.294c-.042 0-.587-.336-.797-.42-.041 0-.125-.084-.125-.084-.211-.21-.714-.755-.756-.755 0-.084-.21-.462-.21-.546-.126-.21-.798-1.092-.966-1.302zm15.322 5.583c0-.042.252-.881.336-1.217l.21-.462.671-.965a9.292 9.292 0 00.798-.546 4.042 4.042 0 01.63-.42c.125-.042.672-.378.839-.42a4.45 4.45 0 00.504-.21 4.097 4.097 0 01.671-.293l1.385-.378h.042a.147.147 0 00.084-.042 4.784 4.784 0 00.924.294s.377.084.42.084a.948.948 0 01.46.21c.044 0 .044.126.085.21 0 .041 0 .167-.041.167 0 0-.168.21-.252.21a7.373 7.373 0 00-.84.168c-.084 0-.546.21-.63.21-.21.084-.923.546-1.09.63 0 .042-.547.462-.589.588a1.491 1.491 0 00-.378.168 2.573 2.573 0 01-.252.168c-.042.084-.42.42-.503.545a8.44 8.44 0 00-.63.672c-.041.126-.42.545-.377.63a1.478 1.478 0 00-.127.293v.168a.204.204 0 01.043.126c0 .042.168.126.209.126a4.787 4.787 0 01.547.21 1.498 1.498 0 01.46.168l.336.252c.084 0 .126.21.168.252 0 .042.084.294.084.378a1.182 1.182 0 01.042.336 2.843 2.843 0 00-.21.293 3.877 3.877 0 01-.545.378l-.335.21h-.127a.977.977 0 00-.168.042 5.562 5.562 0 01-.84 0 1.371 1.371 0 01-.503-.084 1.734 1.734 0 01-.462-.294 12.707 12.707 0 01-.797-1.427 2.859 2.859 0 01-.168-.755 5.545 5.545 0 01-.084-.673zM164.83 50.319a2.744 2.744 0 00-.168-.755c-.042 0-.378-.42-.504-.504-.42-.252-1.26-.924-1.512-1.008a6.462 6.462 0 00-1.258-.88 1.514 1.514 0 01-.462-.169 5.353 5.353 0 00-.588-.168 2.817 2.817 0 00-.461-.294l-.294-.21a6.897 6.897 0 00-1.092-.587l.252-.252c0-.084 1.091-.126 1.091-.21h.168a3.374 3.374 0 00.883.21c.084 0 .293.042.335.042l1.386.461.923.378h.084c.041 0 .335.21.377.21a3.047 3.047 0 00.378.21l.882.546a2.95 2.95 0 01.713.545l.504.504a3.84 3.84 0 01.84.966 2.56 2.56 0 01.378.671c0 .042.084.504.084.63a3.047 3.047 0 01.083.797v.378c0 .168-.041.378-.041.42-.042.042-.084.462-.21.588-.042.084-.084.293-.126.293-.042.126-.42.294-.504.336-.084 0-.378.378-.42.378-.084 0-.756-.084-.881-.084a5.481 5.481 0 01-.798-.294l-.462-.588s-.042-.965 0-1.469a11.636 11.636 0 00.42-1.09zm-3.861-6.086a6.531 6.531 0 00-.883.168 1.838 1.838 0 00-.21-.042h-.21a1.71 1.71 0 01-.461-.252l-.294-.168a1.569 1.569 0 00-.252-.294c-.21-.252.378-1.218 1.008-1.134v-.042c.042-.042.335-.084.378-.168a3.18 3.18 0 001.09-.042l.505-.461a15.445 15.445 0 001.133-1.176 3.193 3.193 0 01.461-.335 6.538 6.538 0 01.714-.756 4.224 4.224 0 01.714-1.05 18.824 18.824 0 012.015-1.847l.42-.293c.168-.042.922-.672 1.006-.672.127-.084.504-.378.672-.462a1.342 1.342 0 00.252-.125c.42-.084 1.386-.504 1.428-.504.168-.084 1.049-.168 1.176-.21.04 0 .755.084 1.007.084a22.1 22.1 0 001.217.084 1.618 1.618 0 01.755.252 2.297 2.297 0 00.42.336 4.67 4.67 0 00.546.503 11.221 11.221 0 011.049 1.427c0 .042.168.252.127.294 0 0 .252.21.336.294a5.059 5.059 0 01.167 1.008 3.722 3.722 0 01.084.63v.293l-.21.966a3.955 3.955 0 01-.21.377 5.78 5.78 0 00-.335.546c-.252.168-1.092 1.008-1.26 1.05a4.375 4.375 0 01-.756.42 2.58 2.58 0 01-.756.125c-.084 0-.628-.126-.712-.293a6.602 6.602 0 01-.756-.294c-.084-.084-.294-.168-.336-.252 0-.042-.293-.462-.336-.63a8.126 8.126 0 01-.42-.798c-.041 0 0-.377 0-.461 0-.126 0-.294.043-.294l.504-.168.67.881h.169a1.044 1.044 0 00.336.042c0-.042.294-.21.419-.293a4.722 4.722 0 00.671-.63l.336-.504c.084-.084.126-.461.168-.545a1.485 1.485 0 00.042-.252v-.294a3.088 3.088 0 00-.084-.504 1.728 1.728 0 01-.126-.336c-.209-.126-.755-.546-.88-.588-.043 0-.588-.042-.84-.084-.168 0-.798-.042-.84-.042a7.44 7.44 0 01-.881.462c-.043.042-.546.252-.714.378a3.131 3.131 0 00-.504.294c-.042 0-.252.084-.294.084-.126.042-.46.294-.545.252a1.744 1.744 0 01-.463.504c-.04 0-.293.042-.293.084a9.616 9.616 0 00-.965.88 4.182 4.182 0 00-.84 1.05 3.032 3.032 0 01-.63.336 6.71 6.71 0 01-.797.756c0 .042-.42.168-.42.21-.084 0-.084.168-.084.21 0 0 0 .168.084.21l1.553.252a5.41 5.41 0 001.05.252c.042.042.755.293 1.007.377.084 0 1.133.546 1.301.63a7.003 7.003 0 011.008.336h.294c.084 0 .252.252.293.252.043.041.336 0 .379 0 .377.083 3.4.461 3.777.461a4.044 4.044 0 01.84.126c.168 0 .588.042.629.042.043 0 .547.126.714 0a2.745 2.745 0 00.882-.168 4.285 4.285 0 01.924-.378 3.146 3.146 0 00.754-.293c.042 0 .21-.084.21-.126l.84-.504c.084-.042.294-.336.336-.336 0-.042.588-.587.672-.755 0-.042-.084-.714-.084-.756-.084 0-.882-.63-.966-.63s-.672.798-.756.756h-.335c-.043 0-.252-.294-.378-.336 0-.042-.125-.126-.125-.126 0-.126.168-.336.168-.462.084-.126.502-.462.502-.545l1.554-.21a1.196 1.196 0 01.336.168l.168.125c.125.126.923.504 1.007.588.042.042.294.504.42.63a2.94 2.94 0 01.336.966s.042.294.042.378a2.405 2.405 0 00-.084.419 6.122 6.122 0 01-.294.798 2.304 2.304 0 00-.378.293c-.042 0-.252.42-.294.42a8.685 8.685 0 00-1.007.714c-.168.168-.798.713-.924.881-.042 0-.546.294-.756.378-.042 0-.335.084-.377.084a.972.972 0 01-.294.294c-.041 0-.461.21-.63.294-.167.042-1.385.462-1.553.462l-.63.252a7.324 7.324 0 01-.713.251 2.978 2.978 0 00-.714.168c-.084 0-.588.084-.63.084-.084-.042-.544-.042-.628-.084a4.068 4.068 0 01-.756.126s-.462-.042-.588-.042c-.168 0-.588-.042-.63-.042 0 0-.335-.252-.42-.293-.083 0-.503-.168-.587-.168.041-.042-.336-.168-.379-.168l-.629-.21a1.51 1.51 0 00-.504-.336 4.266 4.266 0 00-.46-.42c-.128 0-.924-.546-1.176-.63a5.853 5.853 0 00-1.26-.755 2.431 2.431 0 00-.461-.21 4.8 4.8 0 00-.672-.42c-.043-.042-.462-.126-.588-.252h-.168c-.294-.042-2.392-.587-2.644-.671a2.97 2.97 0 00-.504-.084c-.126 0-.504-.042-.545-.042z"/></g>
        </g>
    </symbol>
    <symbol viewBox="0 0 202 80" id="large-blue-button-up" xmlns="http://www.w3.org/2000/svg">
        <defs>
            <clipPath id="ba"><path d="M199.612 62.08a16.275 16.275 0 01-16.08 15.883l-9.47-6.094a16.275 16.275 0 0016.08-15.883z" fill="none"/></clipPath>
            <clipPath id="bb"><path d="M191.758 62.08a8.137 8.137 0 01-8.04 7.941l-9.47-6.093a8.137 8.137 0 008.04-7.942z" fill="none"/></clipPath>
            <clipPath id="bc"><path d="M183.718 70.021l-9.47-6.093a8.137 8.137 0 008.04-7.942l9.47 6.094a8.137 8.137 0 01-8.04 7.941z" fill="none"/></clipPath>
            <clipPath id="bd"><path d="M180.813 20.605l9.47 6.094a7.794 7.794 0 012.172 5.616l-9.47-6.093a7.794 7.794 0 00-2.172-5.617z" fill="none"/></clipPath>
            <clipPath id="be"><path d="M179.443 19.479l9.469 6.093a7.767 7.767 0 013.543 6.743l-9.47-6.093a7.767 7.767 0 00-3.542-6.744z" fill="none"/></clipPath>
            <clipPath id="bf"><path d="M179.442 19.478l9.47 6.094a7.669 7.669 0 011.37 1.127l-9.469-6.094a7.67 7.67 0 00-1.37-1.127z" fill="none"/></clipPath>
            <clipPath id="bg"><path d="M193.232 18.839a15.515 15.515 0 017.077 13.476l-9.47-6.093a15.515 15.515 0 00-7.076-13.477c2.84 1.829 6.629 4.266 9.47 6.094z" fill="none"/></clipPath>
            <clipPath id="bh"><path d="M188.912 25.572a7.59 7.59 0 00-4.125-1.207l-9.47-6.093a7.59 7.59 0 014.126 1.207l9.469 6.093z" fill="none"/></clipPath>
            <clipPath id="bi"><path d="M175.318 18.272a7.59 7.59 0 014.124 1.206l9.47 6.094a7.59 7.59 0 00-4.125-1.207l-9.47-6.093z" fill="none"/></clipPath>
            <clipPath id="bj"><path d="M183.763 12.745l9.47 6.094a15.197 15.197 0 00-8.26-2.415l-9.47-6.094a15.197 15.197 0 018.26 2.415z" fill="none"/></clipPath>
            <clipPath id="bk"><path d="M16.601 69.451a15.217 15.217 0 008.27 2.418l9.47 6.094a15.217 15.217 0 01-8.27-2.418L16.6 69.45z" fill="none"/></clipPath>
            <clipPath id="bl"><path d="M25.058 63.928l9.469 6.093a7.617 7.617 0 01-4.14-1.21l-9.469-6.093a7.617 7.617 0 004.14 1.21z" fill="none"/></clipPath>
            <clipPath id="bm"><path d="M30.387 68.811l-9.47-6.093a7.617 7.617 0 004.14 1.21l9.47 6.093a7.617 7.617 0 01-4.14-1.21z" fill="none"/></clipPath>
            <clipPath id="bn"><path d="M20.918 62.718a7.663 7.663 0 01-1.364-1.12l9.47 6.094a7.664 7.664 0 001.363 1.12l-9.469-6.094z" fill="none"/></clipPath>
            <clipPath id="bo"><path d="M20.918 62.718a7.75 7.75 0 01-3.537-6.732l9.469 6.094a7.75 7.75 0 003.537 6.731l-9.47-6.093z" fill="none"/></clipPath>
            <clipPath id="bp"><path d="M19.554 61.599a7.776 7.776 0 01-2.173-5.613l9.469 6.094a7.776 7.776 0 002.174 5.612l-9.47-6.093z" fill="none"/></clipPath>
            <clipPath id="bq"><path d="M26.07 75.545l-9.469-6.094a15.503 15.503 0 01-7.074-13.465l9.469 6.094a15.503 15.503 0 007.074 13.465z" fill="none"/></clipPath>
            <clipPath id="br"><path d="M27.547 32.315l-9.469-6.093a8.147 8.147 0 018.05-7.95l9.468 6.093a8.147 8.147 0 00-8.049 7.95z" fill="none"/></clipPath>
            <clipPath id="bs"><path d="M35.596 24.365a8.147 8.147 0 00-8.049 7.95l-9.469-6.093a8.147 8.147 0 018.05-7.95z" fill="none"/></clipPath>
            <clipPath id="bt"><path d="M19.693 32.315l-9.469-6.093a16.279 16.279 0 0116.09-15.892l9.468 6.094a16.279 16.279 0 00-16.089 15.891z" fill="none"/></clipPath>
        </defs>
        <g data-name="Large Blue Button - up"><rect x="3.919" y="6.469" width="180" height="57.682" rx="11.989" opacity=".4"/><g style="isolation:isolate"><path d="M175.318 18.272a7.697 7.697 0 017.668 7.95l-.698 29.764a8.137 8.137 0 01-8.04 7.942H25.058a7.691 7.691 0 01-7.677-7.942l.697-29.764a8.147 8.147 0 018.05-7.95z" fill="#d7cec3"/><path d="M175.504 10.33a15.381 15.381 0 0115.335 15.892l-.697 29.764a16.275 16.275 0 01-16.08 15.883H24.872A15.381 15.381 0 019.526 55.986l.697-29.764a16.279 16.279 0 0116.09-15.892zm6.784 45.656l.697-29.764a7.697 7.697 0 00-7.667-7.95H26.128a8.147 8.147 0 00-8.05 7.95l-.697 29.764a7.691 7.691 0 007.676 7.942h149.191a8.137 8.137 0 008.04-7.942" fill="#233455"/><g style="isolation:isolate" clip-path="url(#ba)"><path d="M199.612 62.08l-9.47-6.094a16.368 16.368 0 01-11.679 15.252l9.47 6.094A16.368 16.368 0 00199.61 62.08" fill="#131c2e"/><path d="M187.933 77.332l-9.47-6.093a15.646 15.646 0 01-4.4.63l9.468 6.094a15.646 15.646 0 004.402-.631" fill="#141d30"/></g>
                <g style="isolation:isolate" clip-path="url(#bb)"><path d="M191.758 62.08l-9.47-6.094a8.184 8.184 0 01-5.84 7.626l9.47 6.094a8.184 8.184 0 005.84-7.626" fill="#75706a"/><path d="M185.918 69.706l-9.47-6.093a7.823 7.823 0 01-2.2.315l9.47 6.093a7.823 7.823 0 002.2-.315" fill="#7a756e"/></g>
                <g style="isolation:isolate" clip-path="url(#bc)"><path d="M183.718 70.021l-9.47-6.093a7.823 7.823 0 002.2-.316l9.47 6.094a7.823 7.823 0 01-2.2.315" fill="#141d30"/><path d="M185.918 69.706l-9.47-6.094a8.184 8.184 0 005.84-7.626l9.47 6.094a8.184 8.184 0 01-5.84 7.626" fill="#131c2e"/></g><path fill="#131b2d" d="M200.309 32.315l-.698 29.765-9.469-6.094.697-29.764 9.47 6.093z"/><path fill="#716c66" d="M192.455 32.315l-.697 29.765-9.47-6.094.698-29.764 9.469 6.093z"/><path fill="#131b2d" d="M191.758 62.08l-9.47-6.094.697-29.764 9.47 6.093-.697 29.765z"/><g clip-path="url(#bd)"><path d="M188.912 25.572l-9.47-6.093a7.767 7.767 0 013.544 6.743l9.469 6.093a7.767 7.767 0 00-3.543-6.743" fill="#75706a"/></g>
                <g clip-path="url(#be)"><path d="M192.455 32.315l-9.47-6.093a7.767 7.767 0 00-3.543-6.744l9.47 6.094a7.767 7.767 0 013.543 6.743" fill="#131c2e"/></g>
                <g clip-path="url(#bf)"><path d="M188.912 25.572l-9.47-6.093a7.767 7.767 0 013.544 6.743l9.469 6.093a7.767 7.767 0 00-3.543-6.743" fill="#75706a"/></g>
                <g clip-path="url(#bg)"><path d="M193.232 18.839l-9.469-6.094a15.515 15.515 0 017.076 13.477l9.47 6.093a15.515 15.515 0 00-7.077-13.476" fill="#131c2e"/></g>
                <g style="isolation:isolate" clip-path="url(#bh)"><path d="M188.912 25.572l-9.47-6.093a7.57 7.57 0 00-1.98-.903l9.47 6.093a7.57 7.57 0 011.98.903" fill="#151e32"/><path d="M186.932 24.67l-9.47-6.094a7.656 7.656 0 00-2.144-.304l9.47 6.093a7.656 7.656 0 012.144.304" fill="#141d30"/></g>
                <g style="isolation:isolate" clip-path="url(#bi)"><path d="M184.787 24.365l-9.47-6.093a7.657 7.657 0 012.146.304l9.47 6.093a7.657 7.657 0 00-2.146-.304" fill="#7a756e"/><path d="M186.932 24.67l-9.47-6.094a7.57 7.57 0 011.98.903l9.47 6.093a7.57 7.57 0 00-1.98-.903" fill="#7e7972"/></g>
                <g style="isolation:isolate" clip-path="url(#bj)"><path d="M184.973 16.424l-9.47-6.094a15.343 15.343 0 014.3.61l9.468 6.093a15.343 15.343 0 00-4.298-.61" fill="#141d30"/><path d="M189.271 17.033l-9.469-6.094a15.144 15.144 0 013.961 1.806l9.47 6.094a15.144 15.144 0 00-3.962-1.806" fill="#151e32"/></g><path fill="#141d31" d="M183.531 77.963H34.341l-9.47-6.094h149.191l9.469 6.094z"/><path fill="#7b766f" d="M183.718 70.021H34.527l-9.469-6.093h149.19l9.47 6.093z"/><path fill="#141d31" d="M34.527 70.021l-9.47-6.093h149.191l9.47 6.093H34.527z"/><g style="isolation:isolate" clip-path="url(#bk)"><path d="M34.34 77.963l-9.469-6.094a15.369 15.369 0 01-4.305-.61l9.47 6.094a15.369 15.369 0 004.305.61" fill="#141d30"/><path d="M30.035 77.353l-9.469-6.094a15.159 15.159 0 01-3.965-1.808l9.47 6.094a15.16 15.16 0 003.964 1.808" fill="#151e32"/></g>
                <g style="isolation:isolate" clip-path="url(#bl)"><path d="M34.527 70.021l-9.47-6.093a7.696 7.696 0 01-2.156-.306l9.47 6.094a7.696 7.696 0 002.156.305" fill="#7a756e"/><path d="M32.37 69.716l-9.469-6.094a7.585 7.585 0 01-1.983-.904l9.469 6.093a7.585 7.585 0 001.984.905" fill="#7e7972"/></g>
                <g style="isolation:isolate" clip-path="url(#bm)"><path d="M30.387 68.811l-9.47-6.093a7.585 7.585 0 001.984.904l9.47 6.094a7.585 7.585 0 01-1.984-.905" fill="#151e32"/><path d="M32.37 69.716l-9.469-6.094a7.696 7.696 0 002.156.306l9.47 6.093a7.696 7.696 0 01-2.156-.305" fill="#141d30"/></g>
                <g clip-path="url(#bn)"><path d="M30.387 68.811l-9.47-6.093a7.75 7.75 0 01-3.536-6.732l9.47 6.094a7.75 7.75 0 003.536 6.731" fill="#75706a"/></g>
                <g clip-path="url(#bo)"><path d="M26.85 62.08l-9.47-6.094a7.75 7.75 0 003.538 6.732l9.469 6.093a7.75 7.75 0 01-3.537-6.731" fill="#131c2e"/></g>
                <g clip-path="url(#bp)"><path d="M30.387 68.811l-9.47-6.093a7.75 7.75 0 01-3.536-6.732l9.47 6.094a7.75 7.75 0 003.536 6.731" fill="#75706a"/></g>
                <g clip-path="url(#bq)"><path d="M26.07 75.545l-9.469-6.094a15.503 15.503 0 01-7.074-13.465l9.469 6.094a15.503 15.503 0 007.074 13.465" fill="#131c2e"/></g><path fill="#7b766f" d="M35.596 24.365l-9.469-6.093h149.191l9.469 6.093H35.596z"/><path fill="#141d31" d="M184.787 24.365H35.596l-9.469-6.093h149.191l9.469 6.093z"/><path fill="#716c66" d="M26.85 62.08l-9.469-6.094.697-29.764 9.469 6.093-.697 29.765z"/><path fill="#131b2d" d="M27.547 32.315L26.85 62.08l-9.469-6.094.697-29.764 9.469 6.093z"/><path fill="#141d31" d="M35.782 16.424l-9.469-6.094h149.191l9.469 6.094H35.782z"/><g style="isolation:isolate" clip-path="url(#br)"><path d="M27.547 32.315l-9.469-6.093a8.195 8.195 0 015.846-7.635l9.47 6.094a8.195 8.195 0 00-5.847 7.634" fill="#75706a"/><path d="M33.393 24.68l-9.469-6.093a7.831 7.831 0 012.203-.315l9.47 6.093a7.831 7.831 0 00-2.204.316" fill="#7a756e"/></g>
                <g style="isolation:isolate" clip-path="url(#bs)"><path d="M35.596 24.365l-9.469-6.093a7.831 7.831 0 00-2.203.315l9.47 6.094a7.831 7.831 0 012.202-.316" fill="#141d30"/><path d="M33.393 24.68l-9.469-6.093a8.195 8.195 0 00-5.846 7.635l9.47 6.093a8.195 8.195 0 015.845-7.634" fill="#131c2e"/></g><path d="M184.973 16.424a15.381 15.381 0 0115.336 15.891l-.697 29.765a16.275 16.275 0 01-16.08 15.883H34.34A15.381 15.381 0 0118.996 62.08l.697-29.765a16.279 16.279 0 0116.09-15.891zm6.784 45.656l.698-29.765a7.697 7.697 0 00-7.668-7.95H35.597a8.147 8.147 0 00-8.05 7.95L26.85 62.08a7.691 7.691 0 007.677 7.941h149.19a8.137 8.137 0 008.04-7.941" fill="#233455"/><path d="M184.787 24.365a7.697 7.697 0 017.668 7.95l-.697 29.765a8.137 8.137 0 01-8.04 7.941H34.527a7.691 7.691 0 01-7.677-7.941l.697-29.765a8.147 8.147 0 018.05-7.95z" fill="#d7cec3"/><path fill="#131b2d" d="M18.996 62.08l-9.469-6.094.697-29.764 9.469 6.093-.697 29.765z"/><g style="isolation:isolate" clip-path="url(#bt)"><path d="M19.693 32.315l-9.469-6.093a16.371 16.371 0 0111.682-15.26l9.469 6.093a16.371 16.371 0 00-11.682 15.26" fill="#131c2e"/><path d="M31.375 17.055l-9.47-6.093a15.668 15.668 0 014.408-.632l9.47 6.094a15.668 15.668 0 00-4.408.631" fill="#141d30"/></g>
            </g>
            <g fill="#1a2601"><path d="M32.877 47.568c-.042-.041-.042-.167-.042-.167v-.798c.042-.042.042-.336.084-.378l.336-1.26a1.827 1.827 0 00.294-.167l.126-.042h.168a3.983 3.983 0 01.714 0c.125-.042.504.084.545.042.127 0 .546.168.63.168.084.084.587.42.63.503a5.2 5.2 0 01.587.756c.041.042.168.63.21.714a2.888 2.888 0 01-.84-.042l-.503-.63a1.727 1.727 0 00-.168-.126s-.21.042-.251.042c-.084 0-.295.042-.336.042a1.44 1.44 0 00-.38.252 2.46 2.46 0 01-.251.168 1.785 1.785 0 00-.125.168v.126c0 .042.04.126.04.168a8.054 8.054 0 00.884.797c.04.084.084.126.168.126a2.47 2.47 0 00.46.252 4.75 4.75 0 01.63.168 1.732 1.732 0 00.42.042s.546-.042.755-.084c.211-.042.714-.168.756-.168a4.99 4.99 0 00.966-.294c0-.042.378-.168.419-.21.127-.084 1.008-.42 1.176-.545h.126c.084 0 .755-.252.797-.252l1.26-.42c.041 0 1.091-.168 1.469-.252l1.469-.252c.084.084.504.084.63.084a8.262 8.262 0 011.47-.252 7.746 7.746 0 011.006-.042s.798-.126 1.05-.168c.168 0 .88-.21 1.008-.21a.668.668 0 00.293-.168l.042-.042s-.083-.084-.083-.126c-.084-.126-.756-.671-.84-.797-.168-.168-.63-.714-.714-.755l-.924-1.134a3.49 3.49 0 01-.335-.503l-.588-.672c-.043 0-.252-.336-.336-.294a5.323 5.323 0 00-.714-.672c-.294-.21-1.762-1.3-2.098-1.469l-.588-.336-.965-.293c-.127 0-.799-.084-.799-.084-.04 0-.545.084-.67.084a6.196 6.196 0 00-.799.167c-.042 0-.21.084-.21.168-.042 0-.126.126-.167.126.041.084-.168.462-.21.462 0 .084-.294.587-.253.671a3.932 3.932 0 00-.04.714c.04.042.04.462.083.672a4.052 4.052 0 00.168.546 1.033 1.033 0 00.168.462l.461.293a1.296 1.296 0 00.462.084h.126a.423.423 0 00.126-.042c.042 0 .252-.126.252-.21l.378-.335a.425.425 0 01.125-.042h.168c.043 0 .336.042.504.042 0 .042.21.084.252.084.084.084.294.251.294.251a1.819 1.819 0 01.042.21c0 .084.042.21.042.252 0 0-.126.252-.21.294a2.786 2.786 0 01-.504.504 2.266 2.266 0 01-.336.041 1.889 1.889 0 01-.336.084c-.084 0-.587-.125-.754-.167a3.187 3.187 0 01-.756-.252 11.993 11.993 0 01-1.427-.924 3.784 3.784 0 01-.42-.377c0-.042-.588-.546-.672-.63l-.168-.21v-.126c-.042-.294-.084-1.218-.084-1.302a3.39 3.39 0 01.042-.629c.042-.126.084-.63.126-.672a3.177 3.177 0 01.378-.671 1.586 1.586 0 00.336-.378c.168-.084.587-.462.67-.462.044-.126.505-.42.589-.461.127 0 .672-.252.84-.252a2.228 2.228 0 01.461-.126c.126-.042.503-.042.546-.084 0 0 .504.042.672.042a8.394 8.394 0 011.175.126c.21 0 .798.084.923.084.043.084 1.218.42 1.638.629a3.991 3.991 0 01.755.252 9.256 9.256 0 001.386.588c.083.084.587.42.63.504l.587.503c.042 0 .252.21.336.252.041-.042.293.294.293.294.043 0 .21.168.21.168s.169.21.21.21c0 .084.588.587.63.671.168.084.462.42.546.462.042.084.63.84.713 1.008a4.635 4.635 0 00.714.545 5.182 5.182 0 00.293.966 1.165 1.165 0 01.168.461 2.362 2.362 0 00.462.462 8.773 8.773 0 00.924.714l.503.63 1.386.335a1.298 1.298 0 01.336.084 3.592 3.592 0 00.714.126c.04 0 .377.126.42.084a.828.828 0 01.293.084 1.742 1.742 0 01.084.252 1.084 1.084 0 01.043.294c0 .126-.168.294-.252.378a6.507 6.507 0 00-.715.126c-.167.042-.63.126-.63.126a1.489 1.489 0 01-.461-.126 5.045 5.045 0 01-.462-.21 2.098 2.098 0 01-.713-.042c-.043 0-.127.042-.168.042h-.127c0 .042-.209.21-.25.252 0 0-.379-.042-.42-.126a2.788 2.788 0 01-.63-.126 2.772 2.772 0 00-.589-.042 1631.969 1631.969 0 00-1.006.168l-.21.168a2.676 2.676 0 01-.294-.084.988.988 0 00-.336.084c-.126 0-.336.042-.378.042l-.588.251a5.47 5.47 0 01-.63.21 1.101 1.101 0 01-.377.21h-.126l-.504.588a.858.858 0 00-.378.21 3.527 3.527 0 00-.587.252c-.043 0-.168.168-.21.168l-.673.377a.577.577 0 01-.209.168.56.56 0 00-.126.21 7.833 7.833 0 00-1.258.504 1.708 1.708 0 00-.38.21c-.04 0-.46.21-.503.21-.084 0-.461.336-.545.378-.294.084-1.68.126-1.973.168a5.628 5.628 0 01-.84.042c-.21 0-.923.042-1.007.042s-.881.167-.965.167a10.81 10.81 0 00-1.68-.293h-.125c-.168 0-.756-.126-.883-.126a1.105 1.105 0 01-.377-.21 4.408 4.408 0 01-.966-.294c-.042 0-.587-.336-.797-.42-.041 0-.125-.084-.125-.084-.211-.21-.714-.755-.756-.755 0-.084-.21-.462-.21-.546-.126-.21-.798-1.092-.966-1.302zm15.322 5.583c0-.042.252-.881.336-1.217l.21-.462.671-.965a9.292 9.292 0 00.798-.546 4.042 4.042 0 01.63-.42c.125-.042.672-.378.839-.42a4.45 4.45 0 00.504-.21 4.097 4.097 0 01.671-.293l1.385-.378h.042a.147.147 0 00.084-.042 4.784 4.784 0 00.924.294s.377.084.42.084a.948.948 0 01.46.21c.044 0 .044.126.085.21 0 .041 0 .167-.041.167 0 0-.168.21-.252.21a7.373 7.373 0 00-.84.168c-.084 0-.546.21-.63.21-.21.084-.923.546-1.09.63 0 .042-.547.462-.589.588a1.491 1.491 0 00-.378.168 2.573 2.573 0 01-.252.168c-.042.084-.42.42-.503.545a8.44 8.44 0 00-.63.672c-.041.126-.42.545-.377.63a1.478 1.478 0 00-.127.293v.168a.204.204 0 01.043.126c0 .042.168.126.209.126a4.787 4.787 0 01.547.21 1.498 1.498 0 01.46.168l.336.252c.084 0 .126.21.168.252 0 .042.084.294.084.378a1.182 1.182 0 01.042.336 2.843 2.843 0 00-.21.293 3.877 3.877 0 01-.545.378l-.335.21h-.127a.977.977 0 00-.168.042 5.562 5.562 0 01-.84 0 1.371 1.371 0 01-.503-.084 1.734 1.734 0 01-.462-.294 12.707 12.707 0 01-.797-1.427 2.859 2.859 0 01-.168-.755 5.545 5.545 0 01-.084-.673zM169.33 53.319a2.744 2.744 0 00-.168-.755c-.042 0-.378-.42-.504-.504-.42-.252-1.26-.924-1.512-1.008a6.462 6.462 0 00-1.258-.88 1.514 1.514 0 01-.462-.169 5.353 5.353 0 00-.588-.168 2.817 2.817 0 00-.461-.294l-.294-.21a6.897 6.897 0 00-1.092-.587l.252-.252c0-.084 1.091-.126 1.091-.21h.168a3.374 3.374 0 00.883.21c.084 0 .293.042.335.042l1.386.461.923.378h.084c.041 0 .335.21.377.21a3.047 3.047 0 00.378.21l.882.546a2.95 2.95 0 01.713.545l.504.504a3.84 3.84 0 01.84.966 2.56 2.56 0 01.378.671c0 .042.084.504.084.63a3.047 3.047 0 01.083.797v.378c0 .168-.041.378-.041.42-.042.042-.084.462-.21.588-.042.084-.084.293-.126.293-.042.126-.42.294-.504.336-.084 0-.378.378-.42.378-.084 0-.756-.084-.881-.084a5.481 5.481 0 01-.798-.294l-.462-.588s-.042-.965 0-1.469a11.636 11.636 0 00.42-1.09zm-3.861-6.086a6.531 6.531 0 00-.883.168 1.838 1.838 0 00-.21-.042h-.21a1.71 1.71 0 01-.461-.252l-.294-.168a1.569 1.569 0 00-.252-.294c-.21-.252.378-1.218 1.008-1.134v-.042c.042-.042.335-.084.378-.168a3.18 3.18 0 001.09-.042l.505-.461a15.445 15.445 0 001.133-1.176 3.193 3.193 0 01.461-.335 6.538 6.538 0 01.714-.756 4.224 4.224 0 01.714-1.05 18.824 18.824 0 012.015-1.847l.42-.293c.168-.042.922-.672 1.006-.672.127-.084.504-.378.672-.462a1.342 1.342 0 00.252-.125c.42-.084 1.386-.504 1.428-.504.168-.084 1.049-.168 1.176-.21.04 0 .755.084 1.007.084a22.1 22.1 0 001.217.084 1.618 1.618 0 01.755.252 2.297 2.297 0 00.42.336 4.67 4.67 0 00.546.503 11.221 11.221 0 011.049 1.427c0 .042.168.252.127.294 0 0 .252.21.336.294a5.059 5.059 0 01.167 1.008 3.722 3.722 0 01.084.63v.293l-.21.966a3.955 3.955 0 01-.21.377 5.78 5.78 0 00-.335.546c-.252.168-1.092 1.008-1.26 1.05a4.375 4.375 0 01-.756.42 2.58 2.58 0 01-.756.125c-.084 0-.628-.126-.712-.293a6.602 6.602 0 01-.756-.294c-.084-.084-.294-.168-.336-.252 0-.042-.293-.462-.336-.63a8.126 8.126 0 01-.42-.798c-.041 0 0-.377 0-.461 0-.126 0-.294.043-.294l.504-.168.67.881h.169a1.044 1.044 0 00.336.042c0-.042.294-.21.419-.293a4.722 4.722 0 00.671-.63l.336-.504c.084-.084.126-.461.168-.545a1.485 1.485 0 00.042-.252v-.294a3.088 3.088 0 00-.084-.504 1.728 1.728 0 01-.126-.336c-.209-.126-.755-.546-.88-.588-.043 0-.588-.042-.84-.084-.168 0-.798-.042-.84-.042a7.44 7.44 0 01-.881.462c-.043.042-.546.252-.714.378a3.131 3.131 0 00-.504.294c-.042 0-.252.084-.294.084-.126.042-.46.294-.545.252a1.744 1.744 0 01-.463.504c-.04 0-.293.042-.293.084a9.616 9.616 0 00-.965.88 4.182 4.182 0 00-.84 1.05 3.032 3.032 0 01-.63.336 6.71 6.71 0 01-.797.756c0 .042-.42.168-.42.21-.084 0-.084.168-.084.21 0 0 0 .168.084.21l1.553.252a5.41 5.41 0 001.05.252c.042.042.755.293 1.007.377.084 0 1.133.546 1.301.63a7.003 7.003 0 011.008.336h.294c.084 0 .252.252.293.252.043.041.336 0 .379 0 .377.083 3.4.461 3.777.461a4.044 4.044 0 01.84.126c.168 0 .588.042.629.042.043 0 .547.126.714 0a2.745 2.745 0 00.882-.168 4.285 4.285 0 01.924-.378 3.146 3.146 0 00.754-.293c.042 0 .21-.084.21-.126l.84-.504c.084-.042.294-.336.336-.336 0-.042.588-.587.672-.755 0-.042-.084-.714-.084-.756-.084 0-.882-.63-.966-.63s-.672.798-.756.756h-.335c-.043 0-.252-.294-.378-.336 0-.042-.125-.126-.125-.126 0-.126.168-.336.168-.462.084-.126.502-.462.502-.545l1.554-.21a1.196 1.196 0 01.336.168l.168.125c.125.126.923.504 1.007.588.042.042.294.504.42.63a2.94 2.94 0 01.336.966s.042.294.042.378a2.405 2.405 0 00-.084.419 6.122 6.122 0 01-.294.798 2.304 2.304 0 00-.378.293c-.042 0-.252.42-.294.42a8.685 8.685 0 00-1.007.714c-.168.168-.798.713-.924.881-.042 0-.546.294-.756.378-.042 0-.335.084-.377.084a.972.972 0 01-.294.294c-.041 0-.461.21-.63.294-.167.042-1.385.462-1.553.462l-.63.252a7.324 7.324 0 01-.713.251 2.978 2.978 0 00-.714.168c-.084 0-.588.084-.63.084-.084-.042-.544-.042-.628-.084a4.068 4.068 0 01-.756.126s-.462-.042-.588-.042c-.168 0-.588-.042-.63-.042 0 0-.335-.252-.42-.293-.083 0-.503-.168-.587-.168.041-.042-.336-.168-.379-.168l-.629-.21a1.51 1.51 0 00-.504-.336 4.266 4.266 0 00-.46-.42c-.128 0-.924-.546-1.176-.63a5.853 5.853 0 00-1.26-.755 2.431 2.431 0 00-.461-.21 4.8 4.8 0 00-.672-.42c-.043-.042-.462-.126-.588-.252h-.168c-.294-.042-2.392-.587-2.644-.671a2.97 2.97 0 00-.504-.084c-.126 0-.504-.042-.545-.042z"/></g>
        </g>
    </symbol>
        <symbol viewBox="0 0 202 80" id="large-pink-button-down"
                xmlns="http://www.w3.org/2000/svg">
            <defs>
                <clipPath id="cf">
                    <path d="M195.619 57.885c-.206 8.763-7.423 15.892-16.09 15.892l-9.469-6.094c8.667 0 15.884-7.128 16.09-15.892l9.469 6.094z" fill="none"/>
                </clipPath>
                <clipPath id="cg">
                    <path d="M187.765 57.885c-.103 4.386-3.712 7.95-8.05 7.95l-9.469-6.093c4.338 0 7.947-3.564 8.05-7.95l9.469 6.093z" fill="none"/>
                </clipPath>
                <clipPath id="ch">
                    <path d="M179.716 65.835l-9.47-6.093c4.338 0 7.947-3.564 8.05-7.95l9.469 6.093c-.103 4.386-3.712 7.95-8.05 7.95z" fill="none"/>
                </clipPath>
                <clipPath id="ci">
                    <path d="M184.924 21.389c2.186 1.406 3.604 3.901 3.538 6.74l-9.47-6.093c.067-2.84-1.352-5.334-3.538-6.74l9.47 6.093z" fill="none"/>
                </clipPath>
                <clipPath id="cj">
                    <path d="M175.454 15.295l9.47 6.094c2.186 1.406 3.604 3.901 3.538 6.74l-9.47-6.093c.067-2.84-1.352-5.334-3.538-6.74z" fill="none"/>
                </clipPath>
                <clipPath id="ck">
                    <path d="M189.24 14.655c4.37 2.812 7.209 7.8 7.076 13.474l-9.47-6.093c.133-5.674-2.705-10.662-7.075-13.474l9.47 6.093z" fill="none"/>
                </clipPath>
                <clipPath id="cl">
                    <path d="M184.924 21.389a7.614 7.614 0 00-4.139-1.21l-9.47-6.093c1.53 0 2.949.443 4.14 1.21l9.469 6.093z" fill="none"/>
                </clipPath>
                <clipPath id="cm">
                    <path d="M175.454 15.295l9.47 6.094a7.614 7.614 0 00-4.139-1.21l-9.469-6.093c1.53 0 2.948.443 4.138 1.21z" fill="none"/>
                </clipPath>
                <clipPath id="cn">
                    <path d="M179.77 8.562l9.47 6.093a15.214 15.214 0 00-8.269-2.417l-9.469-6.094c3.055 0 5.89.886 8.269 2.418z" fill="none"/>
                </clipPath>
                <clipPath id="co">
                    <path d="M12.6 65.266a15.214 15.214 0 008.27 2.417l9.469 6.094c-3.056 0-5.89-.886-8.269-2.418l-9.47-6.093z" fill="none"/>
                </clipPath>
                <clipPath id="cp">
                    <path d="M21.056 59.742l9.469 6.093a7.614 7.614 0 01-4.138-1.209l-9.47-6.093a7.614 7.614 0 004.139 1.209z" fill="none"/>
                </clipPath>
                <clipPath id="cq">
                    <path d="M26.386 64.626l-9.469-6.094a7.614 7.614 0 004.139 1.21l9.469 6.093a7.614 7.614 0 01-4.139-1.21z" fill="none"/>
                </clipPath>
                <clipPath id="cr">
                    <path d="M16.917 58.533a7.66 7.66 0 01-1.365-1.122l9.47 6.094c.41.424.867.8 1.365 1.121l-9.47-6.093z" fill="none"/>
                </clipPath>
                <clipPath id="cs">
                    <path d="M16.917 58.532c-2.186-1.406-3.604-3.901-3.538-6.74l9.47 6.093c-.067 2.84 1.352 5.334 3.537 6.74l-9.469-6.093z" fill="none"/>
                </clipPath>
                <clipPath id="ct">
                    <path d="M15.552 57.411a7.788 7.788 0 01-2.173-5.62l9.47 6.094a7.788 7.788 0 002.172 5.62l-9.469-6.094z" fill="none"/>
                </clipPath>
                <clipPath id="cu">
                    <path d="M22.07 71.36l-9.47-6.094c-4.37-2.812-7.208-7.8-7.075-13.475l9.47 6.094c-.134 5.674 2.705 10.662 7.075 13.474z" fill="none"/>
                </clipPath>
                <clipPath id="cv">
                    <path d="M23.546 28.13l-9.47-6.094c.103-4.386 3.712-7.95 8.05-7.95l9.469 6.093c-4.338 0-7.947 3.564-8.05 7.95z" fill="none"/>
                </clipPath>
                <clipPath id="cw">
                    <path d="M31.595 20.18c-4.338 0-7.947 3.563-8.05 7.95l-9.469-6.094c.103-4.386 3.711-7.95 8.05-7.95l9.469 6.093z" fill="none"/>
                </clipPath>
                <clipPath id="cx">
                    <path d="M15.691 28.13l-9.469-6.094c.205-8.763 7.423-15.892 16.09-15.892l9.469 6.094c-8.667 0-15.884 7.128-16.09 15.891z" fill="none"/>
                </clipPath>
                <style/>
            </defs>
            <g id="ce">
                <rect x="3.919" y="4.893" width="178.081" height="57.067" rx="14.235" ry="14.235" opacity=".4"/>
                <g style="isolation:isolate">
                    <path d="M171.316 14.086c4.338 0 7.78 3.564 7.677 7.95l-.698 29.755c-.102 4.387-3.71 7.95-8.049 7.95H21.056c-4.338 0-7.78-3.563-7.677-7.95l.697-29.755c.103-4.386 3.712-7.95 8.05-7.95h149.19z" fill="#d7cec3"/>
                    <path d="M171.502 6.144c8.667 0 15.55 7.129 15.344 15.892l-.697 29.755c-.205 8.764-7.422 15.892-16.089 15.892H20.87c-8.667 0-15.55-7.128-15.345-15.892l.697-29.755c.205-8.763 7.423-15.892 16.09-15.892h149.19zm6.793 45.647l.698-29.755c.102-4.386-3.34-7.95-7.677-7.95H22.126c-4.339 0-7.947 3.564-8.05 7.95l-.697 29.755c-.103 4.387 3.339 7.95 7.677 7.95h149.19c4.338 0 7.947-3.563 8.05-7.95" fill="#cf195c"/>
                    <g style="isolation:isolate" clip-path="url(#cf)">
                        <path d="M195.619 57.885l-9.47-6.094c-.169 7.223-5.1 13.335-11.681 15.26l9.469 6.094c6.58-1.926 11.512-8.038 11.682-15.26" fill="#710e32"/>
                        <path d="M183.937 73.145l-9.47-6.093a15.669 15.669 0 01-4.407.631l9.47 6.094c1.524 0 3.003-.22 4.407-.632" fill="#750e34"/>
                    </g>
                    <g style="isolation:isolate" clip-path="url(#cg)">
                        <path d="M187.765 57.885l-9.47-6.094c-.084 3.615-2.55 6.671-5.842 7.635l9.47 6.093c3.292-.963 5.757-4.02 5.842-7.634" fill="#75706a"/>
                        <path d="M181.923 65.52l-9.47-6.094a7.846 7.846 0 01-2.207.316l9.47 6.093c.763 0 1.504-.11 2.207-.316" fill="#7a756e"/>
                    </g>
                    <g style="isolation:isolate" clip-path="url(#ch)">
                        <path d="M179.716 65.835l-9.47-6.093c.764 0 1.504-.11 2.207-.316l9.47 6.093a7.845 7.845 0 01-2.207.316" fill="#750e34"/>
                        <path d="M181.923 65.52l-9.47-6.094c3.292-.964 5.758-4.02 5.842-7.635l9.47 6.094c-.085 3.614-2.55 6.67-5.842 7.634" fill="#710e32"/>
                    </g>
                    <path fill="#6d0d30" d="M196.316 28.13l-.697 29.755-9.47-6.094.697-29.755 9.47 6.093z"/>
                    <path fill="#716c66" d="M188.462 28.13l-.697 29.755-9.47-6.094.698-29.755 9.469 6.093z"/>
                    <path fill="#6d0d30" d="M187.765 57.885l-9.47-6.094.698-29.755 9.469 6.093-.697 29.756z"/>
                    <g clip-path="url(#ci)">
                        <path d="M184.924 21.389l-9.47-6.094c2.186 1.407 3.605 3.902 3.539 6.741l9.469 6.093c.066-2.839-1.352-5.334-3.538-6.74" fill="#75706a"/>
                    </g>
                    <g clip-path="url(#cj)">
                        <path d="M188.462 28.13l-9.47-6.094c.067-2.84-1.352-5.334-3.538-6.74l9.47 6.093c2.186 1.406 3.604 3.901 3.538 6.74" fill="#710e32"/>
                    </g>
                    <g clip-path="url(#ck)">
                        <path d="M189.24 14.655l-9.47-6.093c4.37 2.812 7.21 7.8 7.076 13.474l9.47 6.093c.133-5.673-2.706-10.662-7.076-13.474" fill="#710e32"/>
                    </g>
                    <g style="isolation:isolate" clip-path="url(#cl)">
                        <path d="M184.924 21.389l-9.47-6.094a7.58 7.58 0 00-1.982-.904l9.469 6.094a7.58 7.58 0 011.983.904" fill="#7a0f36"/>
                        <path d="M182.94 20.485l-9.468-6.094a7.695 7.695 0 00-2.156-.305l9.47 6.093c.75 0 1.472.107 2.155.306" fill="#750e34"/>
                    </g>
                    <g style="isolation:isolate" clip-path="url(#cm)">
                        <path d="M180.785 20.18l-9.469-6.094c.75 0 1.473.106 2.156.305l9.469 6.094a7.695 7.695 0 00-2.156-.306" fill="#7a756e"/>
                        <path d="M182.94 20.485l-9.468-6.094a7.58 7.58 0 011.982.904l9.47 6.094a7.58 7.58 0 00-1.983-.904" fill="#7e7972"/>
                    </g>
                    <g style="isolation:isolate" clip-path="url(#cn)">
                        <path d="M180.971 12.238l-9.469-6.094c1.497 0 2.941.213 4.305.61l9.47 6.094a15.367 15.367 0 00-4.306-.61" fill="#750e34"/>
                        <path d="M185.276 12.848l-9.47-6.094a15.155 15.155 0 013.965 1.808l9.47 6.093a15.155 15.155 0 00-3.965-1.807" fill="#7a0f36"/>
                    </g>
                    <path fill="#760e34" d="M179.53 73.777H30.339l-9.47-6.094H170.06l9.47 6.094z"/>
                    <path fill="#7b766f" d="M179.716 65.835H30.525l-9.47-6.093h149.191l9.47 6.093z"/>
                    <path fill="#760e34" d="M30.525 65.835l-9.47-6.093h149.191l9.47 6.093H30.525z"/>
                    <g style="isolation:isolate" clip-path="url(#co)">
                        <path d="M30.339 73.777l-9.47-6.094c-1.497 0-2.94-.213-4.304-.61l9.469 6.094c1.363.397 2.808.61 4.305.61" fill="#750e34"/>
                        <path d="M26.034 73.167l-9.47-6.094a15.155 15.155 0 01-3.963-1.807l9.47 6.093a15.155 15.155 0 003.963 1.808" fill="#7a0f36"/>
                    </g>
                    <g style="isolation:isolate" clip-path="url(#cp)">
                        <path d="M30.525 65.835l-9.47-6.093c-.75 0-1.472-.107-2.155-.306l9.47 6.094a7.695 7.695 0 002.155.305" fill="#7a756e"/>
                        <path d="M28.37 65.53l-9.47-6.094a7.58 7.58 0 01-1.983-.904l9.47 6.094a7.58 7.58 0 001.982.904" fill="#7e7972"/>
                    </g>
                    <g style="isolation:isolate" clip-path="url(#cq)">
                        <path d="M26.386 64.626l-9.469-6.094a7.58 7.58 0 001.983.904l9.47 6.094a7.58 7.58 0 01-1.984-.904" fill="#7a0f36"/>
                        <path d="M28.37 65.53l-9.47-6.094a7.695 7.695 0 002.156.306l9.469 6.093c-.75 0-1.473-.106-2.156-.305" fill="#750e34"/>
                    </g>
                    <g clip-path="url(#cr)">
                        <path d="M26.387 64.626l-9.47-6.094c-2.186-1.406-3.604-3.901-3.538-6.74l9.47 6.093c-.067 2.84 1.352 5.334 3.538 6.74" fill="#75706a"/>
                    </g>
                    <g clip-path="url(#cs)">
                        <path d="M22.848 57.885l-9.469-6.094c-.066 2.84 1.352 5.335 3.538 6.741l9.47 6.094c-2.186-1.407-3.605-3.902-3.539-6.741" fill="#710e32"/>
                    </g>
                    <g clip-path="url(#ct)">
                        <path d="M26.387 64.626l-9.47-6.094c-2.186-1.406-3.604-3.901-3.538-6.74l9.47 6.093c-.067 2.84 1.352 5.334 3.538 6.74" fill="#75706a"/>
                    </g>
                    <g clip-path="url(#cu)">
                        <path d="M22.07 71.36l-9.47-6.094c-4.37-2.812-7.208-7.8-7.075-13.475l9.47 6.094c-.134 5.674 2.705 10.662 7.075 13.474" fill="#710e32"/>
                    </g>
                    <path fill="#7b766f" d="M31.595 20.18l-9.47-6.094h149.191l9.47 6.093H31.594z"/>
                    <path fill="#760e34" d="M180.785 20.18H31.595l-9.47-6.094h149.19l9.47 6.093z"/>
                    <path fill="#716c66" d="M22.848 57.885l-9.469-6.094.697-29.755 9.47 6.093-.698 29.756z"/>
                    <path fill="#6d0d30" d="M23.546 28.13l-.698 29.755-9.469-6.094.697-29.755 9.47 6.093z"/>
                    <path fill="#760e34" d="M31.78 12.238l-9.469-6.094h149.191l9.47 6.094H31.78z"/>
                    <path d="M180.785 20.18c4.338 0 7.78 3.563 7.677 7.95l-.697 29.755c-.103 4.386-3.712 7.95-8.05 7.95H30.526c-4.338 0-7.78-3.564-7.677-7.95l.698-29.756c.102-4.386 3.71-7.95 8.049-7.95h149.19z" fill="#d7cec3"/>
                    <g style="isolation:isolate" clip-path="url(#cv)">
                        <path d="M23.546 28.13l-9.47-6.094c.085-3.614 2.55-6.67 5.842-7.634l9.47 6.093c-3.292.964-5.758 4.02-5.842 7.634" fill="#75706a"/>
                        <path d="M29.388 20.495l-9.47-6.093a7.846 7.846 0 012.207-.316l9.47 6.093c-.764 0-1.504.11-2.207.316" fill="#7a756e"/>
                    </g>
                    <g style="isolation:isolate" clip-path="url(#cw)">
                        <path d="M31.595 20.18l-9.47-6.094c-.763 0-1.504.11-2.207.316l9.47 6.093a7.846 7.846 0 012.207-.316" fill="#750e34"/>
                        <path d="M29.388 20.495l-9.47-6.093c-3.292.963-5.757 4.02-5.842 7.634l9.47 6.093c.084-3.614 2.55-6.67 5.842-7.634" fill="#710e32"/>
                    </g>
                    <path fill="#6d0d30" d="M14.994 57.885l-9.469-6.094.697-29.755 9.47 6.093-.698 29.756z"/>
                    <path d="M180.971 12.238c8.667 0 15.55 7.128 15.345 15.891l-.697 29.756c-.206 8.763-7.423 15.892-16.09 15.892H30.34c-8.667 0-15.55-7.129-15.345-15.892l.697-29.756c.206-8.763 7.423-15.891 16.09-15.891h149.19zm6.794 45.647l.697-29.756c.103-4.386-3.339-7.95-7.677-7.95H31.595c-4.338 0-7.947 3.564-8.05 7.95l-.697 29.756c-.102 4.386 3.34 7.95 7.677 7.95h149.19c4.338 0 7.947-3.564 8.05-7.95" fill="#cf195c"/>
                    <g style="isolation:isolate" clip-path="url(#cx)">
                        <path d="M15.691 28.13l-9.469-6.094c.17-7.222 5.101-13.334 11.682-15.26l9.47 6.093c-6.582 1.926-11.513 8.038-11.683 15.26" fill="#710e32"/>
                        <path d="M27.373 12.87l-9.47-6.094a15.669 15.669 0 014.408-.632l9.47 6.094c-1.524 0-3.004.22-4.408.631" fill="#750e34"/>
                    </g>
                </g>
                <g id="cy" fill="#1a2601">
                    <path d="M28.377 44.378c-.042-.042-.042-.168-.042-.168v-.798c.042-.042.042-.336.084-.377l.336-1.26c.042 0 .294-.167.294-.167l.126-.042h.168c.042-.042.546 0 .714 0 .125-.042.504.084.545.042.127 0 .546.167.63.167.083.084.587.42.63.504.125.084.503.63.587.756.041.041.168.63.21.713-.126 0-.672.042-.84-.042l-.504-.63a1.728 1.728 0 00-.168-.125s-.21.042-.25.042c-.084 0-.295.042-.336.042-.043 0-.295.167-.38.251-.04.042-.251.168-.251.168-.041.042-.125.168-.125.168v.126c0 .042.04.126.04.168.128.126.716.714.884.798.04.084.084.126.167.126.084.084.377.21.461.252.084 0 .504.126.63.168.084.042.42.042.42.042s.546-.042.755-.084c.211-.042.714-.168.756-.168.126 0 .798-.21.966-.294 0-.042.378-.168.419-.21.127-.084 1.008-.42 1.176-.546h.126c.083 0 .755-.252.797-.252l1.26-.42c.041 0 1.091-.168 1.469-.252l1.469-.251c.084.084.504.084.63.084.125-.042 1.301-.294 1.47-.252.083-.042.88-.042 1.006-.042 0 0 .798-.126 1.05-.168.168 0 .88-.21 1.008-.21.084 0 .252-.126.293-.168l.042-.042s-.083-.084-.083-.126c-.084-.126-.756-.671-.84-.797-.168-.168-.63-.714-.714-.756l-.924-1.133c-.042-.042-.335-.462-.335-.504l-.588-.672c-.043 0-.252-.336-.336-.294-.127-.167-.588-.587-.714-.671-.294-.21-1.762-1.301-2.098-1.47l-.588-.335-.965-.294c-.127 0-.799-.084-.799-.084-.04 0-.545.084-.67.084-.21.042-.757.126-.798.168-.042 0-.21.084-.21.168-.042 0-.126.126-.167.126.04.084-.168.462-.211.462 0 .084-.293.587-.252.671-.041.084-.041.588-.041.714.04.042.04.461.084.671.04.126.125.504.168.546 0 .084.084.378.168.462l.46.294c.042.042.336.084.462.084h.126c.042 0 .126-.042.126-.042.042 0 .252-.126.252-.21l.378-.336s.084-.042.125-.042h.168c.043 0 .336.042.504.042 0 .042.21.084.252.084.084.084.294.252.294.252s.042.168.042.21c0 .084.042.21.042.252 0 0-.126.251-.21.293-.084.126-.46.504-.504.504 0 0-.209.042-.336.042-.084.042-.336.084-.336.084-.084 0-.587-.126-.755-.168-.168 0-.671-.21-.755-.252-.251-.126-1.26-.755-1.427-.923-.084-.042-.378-.336-.42-.378 0-.042-.588-.546-.672-.63l-.168-.21v-.126c-.042-.293-.084-1.217-.084-1.3s0-.504.042-.63.084-.63.126-.672c.084-.168.294-.63.378-.672 0 0 .294-.252.336-.378.168-.083.587-.461.67-.461.044-.126.505-.42.589-.462.127 0 .672-.252.84-.252 0 0 .335-.126.461-.126.126-.042.503-.042.546-.084 0 0 .504.042.672.042.252.042 1.049.042 1.175.126.21 0 .798.084.923.084.043.084 1.218.42 1.638.63.126 0 .671.21.755.252.335.167 1.343.63 1.386.587.083.084.587.42.629.504l.588.504c.042 0 .252.21.336.252.04-.042.293.294.293.294.043 0 .21.168.21.168s.169.21.21.21c0 .083.588.587.63.671.168.084.462.42.546.462.042.084.63.84.712 1.007.043.042.631.546.715.546.041.126.21.923.293.965.043.042.168.336.168.462.084.126.42.462.462.462 0 .084.84.63.924.713l.503.63 1.386.336s.294.042.336.084c.084 0 .586.168.713.126.041 0 .377.126.42.084.125 0 .293.084.293.084s.084.21.084.251c.043.126.043.294.043.294 0 .126-.168.294-.252.378-.084 0-.547.084-.715.126-.167.042-.628.126-.628.126-.084 0-.42-.084-.462-.126-.084 0-.42-.21-.462-.21-.084 0-.588.042-.713-.042-.043 0-.127.042-.168.042h-.127c0 .042-.209.21-.251.252 0 0-.378-.042-.42-.126-.084.042-.588-.126-.63-.126-.084-.042-.504-.042-.588-.042 0 0-.377.084-.504.084-.125.042-.503.084-.503.084l-.21.168c-.042 0-.293-.084-.293-.084-.042 0-.294.042-.336.084-.126 0-.336.042-.378.042l-.588.252s-.545.21-.63.21c0 .042-.335.21-.377.21h-.126l-.504.587c-.042 0-.336.126-.378.21-.084.042-.503.168-.587.252-.043 0-.168.168-.21.168l-.673.378c-.04.084-.209.168-.209.168-.042.042-.126.168-.126.21-.21.042-1.05.377-1.258.503-.043 0-.336.168-.38.21-.04 0-.46.21-.503.21-.084 0-.461.336-.545.378-.294.084-1.68.126-1.973.168-.084.042-.756.042-.84.042-.21 0-.923.042-1.007.042s-.881.167-.965.167c-.127-.084-1.512-.293-1.68-.293h-.125c-.168 0-.756-.126-.883-.126-.04 0-.377-.168-.377-.21-.168-.042-.924-.21-.966-.294-.042 0-.586-.336-.797-.42-.041 0-.125-.084-.125-.084-.211-.21-.714-.755-.756-.755 0-.084-.21-.462-.21-.546-.126-.21-.798-1.091-.966-1.301v-.168zm15.322 5.583c0-.042.252-.882.336-1.218l.21-.461.671-.966c.084 0 .588-.42.798-.545.042-.084.503-.336.63-.42.125-.042.672-.378.839-.42.042 0 .42-.168.504-.21.168-.084.587-.294.671-.294l1.385-.377h.042c.042 0 .084-.042.084-.042.042.084.798.252.924.294 0 0 .377.084.42.084.125 0 .46.167.46.21.044 0 .044.125.085.209 0 .042 0 .168-.041.168 0 0-.168.21-.252.21-.043 0-.756.126-.84.168-.084 0-.546.21-.63.21-.21.084-.923.545-1.09.63 0 .041-.547.461-.589.587-.042 0-.335.126-.377.168-.084.084-.21.126-.252.168-.042.084-.42.42-.504.545-.167.168-.587.588-.63.672-.041.126-.42.546-.377.63-.043.042-.127.294-.127.294v.168c.043.042.043.126.043.126 0 .042.168.126.209.126 0 0 .504.168.547.21.084 0 .419.126.46.168l.337.251c.084 0 .126.21.168.252 0 .042.084.294.084.378.042.084.042.336.042.336s-.168.21-.21.293a3.877 3.877 0 01-.546.378l-.335.21h-.127a.977.977 0 00-.168.042c-.168 0-.756.042-.84 0-.167 0-.461-.042-.503-.084-.084 0-.42-.252-.462-.294-.168-.252-.756-1.26-.797-1.427-.043-.084-.168-.545-.168-.755-.043-.126-.084-.672-.084-.672zM164.83 50.129c0-.042-.084-.672-.168-.756-.042 0-.378-.42-.504-.504-.42-.252-1.26-.923-1.511-1.007-.042-.084-1.007-.798-1.26-.881-.083 0-.418-.126-.461-.168 0 0-.504-.168-.588-.168-.041-.042-.42-.294-.461-.294l-.294-.21c-.42-.294-.672-.378-1.092-.588l.252-.251c0-.084 1.091-.126 1.091-.21h.168c.084.084.799.21.883.21s.293.042.335.042l1.385.46.924.379h.084c.041 0 .335.21.377.21 0 0 .336.21.378.21l.882.545c.125.042.629.42.713.546l.504.504c.294.168.84.923.84.965.042.042.378.546.378.672 0 .042.084.504.084.63.083.168.083.755.083.797v.378c0 .168-.041.378-.041.42-.042.042-.084.461-.21.587-.042.084-.084.294-.126.294-.042.126-.42.294-.504.336-.084 0-.378.378-.42.378-.084 0-.756-.084-.881-.084-.168 0-.756-.294-.798-.294l-.462-.588s-.042-.965 0-1.469c.042-.042.42-1.05.42-1.091zm-3.861-6.087c-.084 0-.8.126-.883.168 0 0-.168-.042-.209-.042h-.21a1.71 1.71 0 01-.462-.252l-.294-.168c0-.042-.21-.252-.252-.294-.21-.252.378-1.217 1.008-1.133v-.042c.042-.042.335-.084.378-.168.125.084.965 0 1.09-.042l.505-.461c.126-.084 1.007-1.008 1.133-1.176.042-.042.42-.336.461-.336.168-.21.63-.713.714-.755.042-.126.546-.966.714-1.05.126-.168 1.512-1.511 2.015-1.847l.42-.293c.168-.042.923-.672 1.007-.672.127-.084.503-.378.671-.462 0 0 .211-.084.252-.126.42-.084 1.386-.504 1.428-.504.168-.084 1.049-.168 1.176-.21.04 0 .755.084 1.007.084.336.042 1.175.084 1.218.084.125 0 .67.126.754.252 0 0 .252.252.42.336.168.168.504.504.546.504.21.252.924 1.133 1.049 1.427 0 .042.168.252.127.294 0 0 .252.21.336.294.041.084.167.755.167 1.007.042.084.084.588.084.63v.294l-.21.965s-.168.336-.209.378c-.043.084-.295.42-.336.546-.252.168-1.092 1.007-1.26 1.049-.084.084-.63.378-.756.42-.125.084-.671.126-.755.126s-.63-.126-.713-.294c-.042 0-.588-.21-.756-.294-.084-.084-.294-.168-.336-.252 0-.042-.293-.461-.336-.63-.125-.167-.42-.797-.42-.797-.041 0 0-.378 0-.462 0-.126 0-.294.043-.294l.504-.168.67.882h.169c.084.042.294.042.336.042 0-.042.294-.21.419-.294.127-.084.588-.504.672-.63l.335-.503c.084-.084.126-.462.168-.546 0 0 .042-.168.042-.252v-.294c0-.042-.042-.378-.084-.503-.042-.042-.126-.336-.126-.336-.209-.126-.755-.546-.88-.588-.043 0-.588-.042-.84-.084-.168 0-.798-.042-.84-.042 0 0-.629.378-.881.462-.043.042-.546.252-.714.378-.042 0-.462.252-.504.294-.042 0-.252.083-.294.083-.126.042-.46.294-.545.252 0 .084-.379.462-.462.504-.042 0-.293.042-.293.084-.168.126-.84.714-.966.882-.126.042-.798.881-.84 1.049-.042.042-.546.336-.63.336-.041.126-.713.672-.797.756 0 .042-.42.167-.42.21-.084 0-.084.167-.084.21 0 0 0 .167.084.209l1.553.252c.168.084.924.252 1.05.252.042.042.755.294 1.007.377.084 0 1.133.546 1.301.63.21.042.966.294 1.008.336h.294c.084 0 .252.252.293.252.043.042.336 0 .379 0 .377.084 3.4.462 3.777.462.042 0 .63.042.84.126.168 0 .588.042.629.042.043 0 .547.126.714 0 .168.042.798-.126.882-.168s.84-.42.924-.378c.084 0 .754-.252.754-.294.042 0 .21-.084.21-.126l.84-.504c.084-.042.294-.336.336-.336 0-.042.588-.587.672-.755 0-.042-.084-.714-.084-.755-.084 0-.882-.63-.966-.63s-.672.797-.756.755h-.335c-.043 0-.251-.293-.378-.335 0-.042-.125-.126-.125-.126 0-.126.168-.336.168-.462.084-.126.502-.462.502-.546l1.554-.21s.252.084.336.168l.168.126c.125.126.923.504 1.007.588.042.042.294.504.42.63.126.21.378.881.336.965 0 0 .042.294.042.378a2.405 2.405 0 00-.084.42c0 .125-.252.671-.294.797-.042 0-.336.252-.378.294-.042 0-.252.42-.294.42-.126.084-.923.587-1.007.713-.168.168-.798.714-.924.882-.042 0-.546.294-.756.378-.042 0-.336.084-.377.084 0 .042-.251.293-.294.293-.041 0-.461.21-.63.294-.167.042-1.385.462-1.553.462l-.63.252c-.125.084-.629.21-.713.251-.084 0-.714.126-.714.168-.084 0-.588.084-.63.084-.084-.042-.545-.042-.628-.084-.043.042-.672.126-.756.126 0 0-.462-.042-.588-.042-.168 0-.588-.042-.63-.042 0 0-.335-.252-.42-.293-.083 0-.503-.168-.587-.168.041-.042-.336-.168-.379-.168l-.629-.21c-.042-.084-.378-.294-.504-.336-.042-.084-.42-.378-.46-.42-.128 0-.924-.545-1.176-.63-.168-.251-1.134-.671-1.26-.755 0 0-.377-.21-.461-.21-.043-.042-.547-.377-.672-.42-.043-.041-.462-.125-.588-.251h-.168c-.294-.042-2.392-.588-2.644-.672 0 0-.336-.084-.504-.084-.126 0-.504-.042-.545-.042z"/>
                </g>
            </g>
        </symbol>
        <symbol viewBox="0 0 202 80" id="large-pink-button-up"
                xmlns="http://www.w3.org/2000/svg">
            <defs>
                <clipPath id="dg">
                    <path d="M199.615 61.182c-.206 8.763-7.423 15.892-16.09 15.892l-9.469-6.094c8.667 0 15.884-7.128 16.09-15.891l9.469 6.093z" fill="none"/>
                </clipPath>
                <clipPath id="dh">
                    <path d="M191.76 61.182c-.102 4.386-3.71 7.95-8.048 7.95l-9.47-6.093c4.338 0 7.947-3.564 8.05-7.95l9.469 6.093z" fill="none"/>
                </clipPath>
                <clipPath id="di">
                    <path d="M183.712 69.132l-9.47-6.093c4.338 0 7.947-3.564 8.05-7.95l9.469 6.093c-.103 4.386-3.712 7.95-8.05 7.95z" fill="none"/>
                </clipPath>
                <clipPath id="dj">
                    <path d="M180.216 19.155l9.47 6.094a7.774 7.774 0 012.772 6.177l-9.47-6.093a7.774 7.774 0 00-2.772-6.178z" fill="none"/>
                </clipPath>
                <clipPath id="dk">
                    <path d="M179.45 18.592l9.47 6.094c2.186 1.406 3.604 3.901 3.538 6.74l-9.47-6.093c.067-2.84-1.352-5.334-3.538-6.741z" fill="none"/>
                </clipPath>
                <clipPath id="dl">
                    <path d="M180.03 19.005c3.157 2.03 6.313 4.062 9.47 6.093l.185.15-9.469-6.093a7.615 7.615 0 00-.186-.15z" fill="none"/>
                </clipPath>
                <clipPath id="dm">
                    <path d="M180.03 19.005a7.634 7.634 0 00-.58-.413l9.47 6.093c.2.129.393.267.58.413l-6.13-3.945-1.67-1.074-.219-.14-.218-.141-1.041-.67c-.057-.037-.136-.084-.192-.123z" fill="none"/>
                </clipPath>
                <clipPath id="dn">
                    <path d="M193.236 17.952c4.37 2.812 7.209 7.8 7.076 13.474l-9.47-6.093c.133-5.674-2.705-10.662-7.075-13.474l9.47 6.093z" fill="none"/>
                </clipPath>
                <clipPath id="do">
                    <path d="M188.92 24.686a7.614 7.614 0 00-4.139-1.21l-9.469-6.093c1.53 0 2.948.443 4.138 1.209l9.47 6.094z" fill="none"/>
                </clipPath>
                <clipPath id="dp">
                    <path d="M175.312 17.383c1.53 0 2.947.443 4.138 1.209l9.47 6.093a7.614 7.614 0 00-4.139-1.209l-9.469-6.093z" fill="none"/>
                </clipPath>
                <clipPath id="dq">
                    <path d="M183.767 11.858l9.47 6.094a15.214 15.214 0 00-8.27-2.417l-9.469-6.094c3.055 0 5.89.886 8.269 2.417z" fill="none"/>
                </clipPath>
                <clipPath id="dr">
                    <path d="M16.603 68.565a15.202 15.202 0 008.263 2.415l9.469 6.094c-3.054 0-5.885-.886-8.263-2.415l-9.47-6.094z" fill="none"/>
                </clipPath>
                <clipPath id="ds">
                    <path d="M25.052 63.039l9.469 6.093a7.61 7.61 0 01-4.135-1.21l-9.47-6.093a7.61 7.61 0 004.136 1.21z" fill="none"/>
                </clipPath>
                <clipPath id="dt">
                    <path d="M30.386 67.923l-9.47-6.094a7.61 7.61 0 004.136 1.21l9.469 6.093a7.61 7.61 0 01-4.135-1.21z" fill="none"/>
                </clipPath>
                <clipPath id="du">
                    <path d="M20.917 61.83a7.674 7.674 0 01-1.365-1.121l9.47 6.093c.409.424.867.8 1.364 1.12l-9.47-6.093z" fill="none"/>
                </clipPath>
                <clipPath id="dv">
                    <path d="M20.917 61.83c-2.186-1.407-3.608-3.902-3.542-6.741l9.47 6.093c-.067 2.84 1.355 5.334 3.541 6.74l-9.47-6.093z" fill="none"/>
                </clipPath>
                <clipPath id="dw">
                    <path d="M19.552 60.709a7.786 7.786 0 01-2.177-5.62l9.47 6.093a7.786 7.786 0 002.176 5.62l-9.47-6.093z" fill="none"/>
                </clipPath>
                <clipPath id="dx">
                    <path d="M26.072 74.659l-9.47-6.094c-4.369-2.812-7.205-7.801-7.072-13.476L19 61.182c-.134 5.675 2.703 10.665 7.072 13.477z" fill="none"/>
                </clipPath>
                <clipPath id="dy">
                    <path d="M27.542 31.426l-9.47-6.093c.103-4.386 3.72-7.95 8.05-7.95l9.469 6.093c-4.33 0-7.947 3.564-8.05 7.95z" fill="none"/>
                </clipPath>
                <clipPath id="da`">
                    <path d="M35.59 23.476c-4.328 0-7.946 3.564-8.048 7.95l-9.47-6.093c.103-4.386 3.72-7.95 8.05-7.95l9.469 6.093z" fill="none"/>
                </clipPath>
                <clipPath id="daa">
                    <path d="M19.696 31.426l-9.469-6.093c.205-8.763 7.414-15.892 16.08-15.892l9.47 6.094c-8.667 0-15.875 7.128-16.08 15.891z" fill="none"/>
                </clipPath>
                <style/>
            </defs>
            <g id="df">
                <rect x="3.919" y="5.576" width="180" height="57.682" rx="11.989" ry="11.989" opacity=".4"/>
                <g style="isolation:isolate">
                    <path d="M175.312 17.383c4.338 0 7.78 3.564 7.677 7.95l-.698 29.756c-.102 4.386-3.71 7.95-8.049 7.95H25.052c-4.33 0-7.78-3.564-7.677-7.95l.697-29.756c.103-4.386 3.72-7.95 8.05-7.95h149.19z" fill="#d7cec3"/>
                    <path d="M175.498 9.441c8.667 0 15.55 7.129 15.345 15.892l-.698 29.756c-.205 8.763-7.422 15.891-16.089 15.891H24.866c-8.667 0-15.541-7.128-15.336-15.891l.697-29.756c.205-8.763 7.414-15.892 16.08-15.892h149.191zm6.793 45.648l.698-29.756c.102-4.386-3.34-7.95-7.677-7.95H26.122c-4.33 0-7.947 3.564-8.05 7.95l-.697 29.756c-.103 4.386 3.348 7.95 7.677 7.95h149.19c4.338 0 7.947-3.564 8.05-7.95" fill="#cf195c"/>
                    <g style="isolation:isolate" clip-path="url(#dg)">
                        <path d="M199.615 61.182l-9.47-6.093c-.169 7.222-5.1 13.334-11.681 15.26l9.47 6.093c6.58-1.926 11.512-8.038 11.68-15.26" fill="#710e32"/>
                        <path d="M187.933 76.442l-9.47-6.093a15.668 15.668 0 01-4.407.631l9.47 6.094c1.524 0 3.003-.22 4.407-.632" fill="#750e34"/>
                    </g>
                    <g style="isolation:isolate" clip-path="url(#dh)">
                        <path d="M191.76 61.182l-9.469-6.093c-.084 3.614-2.55 6.67-5.842 7.634l9.47 6.093c3.292-.963 5.757-4.02 5.842-7.634" fill="#75706a"/>
                        <path d="M185.919 68.816l-9.47-6.093a7.846 7.846 0 01-2.207.316l9.47 6.093c.763 0 1.504-.11 2.207-.316" fill="#7a756e"/>
                    </g>
                    <g style="isolation:isolate" clip-path="url(#di)">
                        <path d="M183.712 69.132l-9.47-6.093c.764 0 1.504-.11 2.207-.316l9.47 6.093a7.846 7.846 0 01-2.207.316" fill="#750e34"/>
                        <path d="M185.919 68.816l-9.47-6.093c3.292-.964 5.758-4.02 5.842-7.634l9.47 6.093c-.085 3.614-2.55 6.67-5.842 7.634" fill="#710e32"/>
                    </g>
                    <path fill="#6d0d30" d="M200.312 31.426l-.697 29.756-9.47-6.093.698-29.756 9.469 6.093z"/>
                    <path fill="#716c66" d="M192.458 31.426l-.697 29.756-9.47-6.093.698-29.756 9.469 6.093z"/>
                    <path fill="#6d0d30" d="M191.76 61.182l-9.469-6.093.698-29.756 9.469 6.093-.697 29.756z"/>
                    <g clip-path="url(#dj)">
                        <path d="M188.92 24.686l-9.47-6.094c2.186 1.407 3.605 3.902 3.539 6.741l9.469 6.093c.066-2.839-1.352-5.334-3.538-6.74" fill="#75706a"/>
                    </g>
                    <g clip-path="url(#dk)">
                        <path d="M192.458 31.426l-9.47-6.093c.067-2.84-1.352-5.334-3.538-6.741l9.47 6.094c2.186 1.406 3.604 3.901 3.538 6.74" fill="#710e32"/>
                    </g>
                    <g clip-path="url(#dl)">
                        <path d="M188.92 24.686l-9.47-6.094c2.186 1.407 3.605 3.902 3.539 6.741l9.469 6.093c.066-2.839-1.352-5.334-3.538-6.74" fill="#75706a"/>
                    </g>
                    <g clip-path="url(#dm)">
                        <path d="M188.92 24.686l-9.47-6.094c2.186 1.407 3.605 3.902 3.539 6.741l9.469 6.093c.066-2.839-1.352-5.334-3.538-6.74" fill="#75706a"/>
                    </g>
                    <g clip-path="url(#dn)">
                        <path d="M193.236 17.952l-9.47-6.094c4.371 2.813 7.21 7.801 7.077 13.475l9.469 6.093c.133-5.673-2.706-10.662-7.076-13.474" fill="#710e32"/>
                    </g>
                    <g style="isolation:isolate" clip-path="url(#do)">
                        <path d="M188.92 24.686l-9.47-6.094a7.58 7.58 0 00-1.982-.904l9.469 6.094a7.58 7.58 0 011.983.904" fill="#7a0f36"/>
                        <path d="M186.937 23.782l-9.47-6.094a7.694 7.694 0 00-2.155-.305l9.47 6.093c.75 0 1.472.107 2.155.306" fill="#750e34"/>
                    </g>
                    <g style="isolation:isolate" clip-path="url(#dp)">
                        <path d="M184.781 23.476l-9.469-6.093c.75 0 1.473.106 2.156.305l9.469 6.094a7.695 7.695 0 00-2.156-.306" fill="#7a756e"/>
                        <path d="M186.937 23.782l-9.47-6.094a7.58 7.58 0 011.983.904l9.47 6.094a7.58 7.58 0 00-1.983-.904" fill="#7e7972"/>
                    </g>
                    <g style="isolation:isolate" clip-path="url(#dq)">
                        <path d="M184.967 15.535l-9.469-6.094c1.497 0 2.941.213 4.305.61l9.47 6.094a15.367 15.367 0 00-4.306-.61" fill="#750e34"/>
                        <path d="M189.272 16.145l-9.469-6.094a15.155 15.155 0 013.964 1.807l9.47 6.094a15.155 15.155 0 00-3.965-1.807" fill="#7a0f36"/>
                    </g>
                    <path fill="#760e34" d="M183.526 77.074H34.335l-9.47-6.094h149.191l9.47 6.094z"/>
                    <path fill="#7b766f" d="M183.712 69.132H34.52l-9.47-6.093h149.191l9.47 6.093z"/>
                    <path fill="#760e34" d="M34.521 69.132l-9.47-6.093h149.191l9.47 6.093H34.52z"/>
                    <g style="isolation:isolate" clip-path="url(#dr)">
                        <path d="M34.335 77.074l-9.47-6.094a15.36 15.36 0 01-4.302-.61l9.469 6.094a15.36 15.36 0 004.303.61" fill="#750e34"/>
                        <path d="M30.032 76.464l-9.47-6.093a15.14 15.14 0 01-3.96-1.806l9.47 6.094a15.139 15.139 0 003.96 1.805" fill="#7a0f36"/>
                    </g>
                    <g style="isolation:isolate" clip-path="url(#ds)">
                        <path d="M34.521 69.132l-9.47-6.093c-.747 0-1.469-.107-2.15-.305l9.47 6.093a7.678 7.678 0 002.15.305" fill="#7a756e"/>
                        <path d="M32.37 68.827l-9.47-6.093a7.586 7.586 0 01-1.983-.905l9.47 6.094a7.586 7.586 0 001.983.904" fill="#7e7972"/>
                    </g>
                    <g style="isolation:isolate" clip-path="url(#dt)">
                        <path d="M30.386 67.923l-9.47-6.094a7.586 7.586 0 001.985.905l9.47 6.093a7.586 7.586 0 01-1.985-.904" fill="#7a0f36"/>
                        <path d="M32.37 68.827l-9.47-6.093a7.678 7.678 0 002.152.305l9.469 6.093c-.748 0-1.47-.106-2.15-.305" fill="#750e34"/>
                    </g>
                    <g clip-path="url(#du)">
                        <path d="M30.386 67.923l-9.47-6.094c-2.185-1.406-3.607-3.901-3.54-6.74l9.468 6.093c-.066 2.84 1.356 5.334 3.542 6.74" fill="#75706a"/>
                    </g>
                    <g clip-path="url(#dv)">
                        <path d="M26.844 61.182l-9.469-6.093c-.066 2.839 1.356 5.334 3.542 6.74l9.47 6.094c-2.187-1.407-3.61-3.902-3.543-6.741" fill="#710e32"/>
                    </g>
                    <g clip-path="url(#dw)">
                        <path d="M30.386 67.923l-9.47-6.094c-2.185-1.406-3.607-3.901-3.54-6.74l9.468 6.093c-.066 2.84 1.356 5.334 3.542 6.74" fill="#75706a"/>
                    </g>
                    <g clip-path="url(#dx)">
                        <path d="M26.072 74.659l-9.47-6.094c-4.369-2.812-7.205-7.801-7.072-13.476L19 61.182c-.134 5.675 2.703 10.665 7.072 13.477" fill="#710e32"/>
                    </g>
                    <path fill="#7b766f" d="M35.59 23.476l-9.469-6.093h149.191l9.47 6.093H35.59z"/>
                    <path fill="#760e34" d="M184.781 23.476H35.591l-9.47-6.093h149.191l9.47 6.093z"/>
                    <path fill="#716c66" d="M26.844 61.182l-9.469-6.093.697-29.756 9.47 6.093-.698 29.756z"/>
                    <path fill="#6d0d30" d="M27.542 31.426l-.698 29.756-9.469-6.093.697-29.756 9.47 6.093z"/>
                    <path fill="#760e34" d="M35.777 15.535l-9.47-6.094h149.191l9.47 6.094H35.776z"/>
                    <path d="M184.781 23.476c4.338 0 7.78 3.564 7.677 7.95l-.697 29.756c-.103 4.386-3.712 7.95-8.05 7.95H34.522c-4.329 0-7.78-3.564-7.677-7.95l.698-29.756c.102-4.386 3.72-7.95 8.049-7.95h149.19z" fill="#d7cec3"/>
                    <g style="isolation:isolate" clip-path="url(#dy)">
                        <path d="M27.542 31.426l-9.47-6.093c.085-3.615 2.557-6.672 5.847-7.635l9.47 6.094c-3.29.963-5.763 4.02-5.847 7.634" fill="#75706a"/>
                        <path d="M33.389 23.792l-9.47-6.094a7.828 7.828 0 012.202-.315l9.47 6.093c-.761 0-1.5.11-2.202.316" fill="#7a756e"/>
                    </g>
                    <g style="isolation:isolate" clip-path="url(#da`)">
                        <path d="M35.59 23.476l-9.469-6.093c-.76 0-1.5.11-2.202.315l9.47 6.094a7.828 7.828 0 012.202-.316" fill="#750e34"/>
                        <path d="M33.389 23.792l-9.47-6.094c-3.29.963-5.762 4.02-5.847 7.635l9.47 6.093c.084-3.614 2.556-6.671 5.847-7.634" fill="#710e32"/>
                    </g>
                    <path fill="#6d0d30" d="M19 61.182l-9.47-6.093.697-29.756 9.47 6.093-.698 29.756z"/>
                    <g style="isolation:isolate" clip-path="url(#daa)">
                        <path d="M19.696 31.426l-9.469-6.093c.17-7.223 5.096-13.335 11.675-15.26l9.47 6.093c-6.58 1.926-11.506 8.038-11.676 15.26" fill="#710e32"/>
                        <path d="M31.371 16.166l-9.47-6.094a15.661 15.661 0 014.406-.63l9.47 6.093c-1.524 0-3.002.22-4.406.63" fill="#750e34"/>
                    </g>
                    <path d="M184.967 15.535c8.667 0 15.55 7.128 15.345 15.891l-.697 29.756c-.206 8.763-7.423 15.892-16.09 15.892H34.336c-8.667 0-15.541-7.129-15.336-15.892l.697-29.756c.206-8.763 7.414-15.891 16.08-15.891h149.191zm6.794 45.647l.697-29.756c.103-4.386-3.339-7.95-7.677-7.95H35.591c-4.33 0-7.947 3.564-8.05 7.95l-.697 29.756c-.102 4.386 3.348 7.95 7.677 7.95h149.19c4.338 0 7.947-3.564 8.05-7.95" fill="#cf195c"/>
                </g>
                <g id="dab" fill="#1a2601">
                    <path d="M32.877 46.675c-.042-.041-.042-.167-.042-.167v-.798c.042-.042.042-.336.084-.378l.336-1.26c.042 0 .294-.167.294-.167l.126-.042h.168c.042-.042.546 0 .714 0 .125-.042.504.084.545.042.127 0 .546.167.63.167.083.084.587.42.63.504.125.084.503.63.587.756.041.042.168.63.21.714-.126 0-.672.042-.84-.042l-.504-.63a1.728 1.728 0 00-.168-.126s-.21.042-.25.042c-.084 0-.295.042-.336.042-.043 0-.295.168-.38.252-.04.042-.251.168-.251.168-.041.042-.125.168-.125.168v.126c0 .042.04.126.04.168.128.126.716.713.884.797.04.084.084.126.168.126.083.084.376.21.46.252.084 0 .504.126.63.168.084.042.42.042.42.042s.546-.042.755-.084c.211-.042.714-.168.756-.168.126 0 .798-.21.966-.294 0-.042.378-.168.419-.21.127-.084 1.008-.42 1.176-.545h.126c.084 0 .755-.252.797-.252l1.26-.42c.041 0 1.091-.168 1.469-.252l1.469-.252c.084.084.504.084.63.084.126-.042 1.301-.294 1.47-.252.083-.042.88-.042 1.006-.042 0 0 .798-.126 1.05-.168.168 0 .88-.21 1.008-.21.084 0 .252-.126.293-.168l.042-.042s-.083-.084-.083-.126c-.084-.126-.756-.67-.84-.797-.168-.168-.63-.714-.714-.755l-.924-1.134c-.042-.042-.335-.461-.335-.503l-.588-.672c-.043 0-.252-.336-.336-.294-.127-.168-.588-.588-.714-.672-.294-.21-1.762-1.301-2.098-1.469l-.588-.336-.965-.293c-.127 0-.799-.084-.799-.084-.04 0-.545.084-.67.084-.21.041-.757.125-.798.167-.042 0-.21.084-.21.168-.042 0-.126.126-.167.126.04.084-.168.462-.211.462 0 .084-.293.587-.252.671-.041.084-.041.588-.041.714.04.042.04.462.084.672.04.126.125.504.168.546 0 .084.084.377.168.461l.46.294c.042.042.336.084.462.084h.126c.042 0 .126-.042.126-.042.042 0 .252-.126.252-.21l.378-.335s.084-.042.125-.042h.168c.043 0 .336.042.504.042 0 .042.21.083.252.083.084.084.294.252.294.252s.042.168.042.21c0 .084.042.21.042.252 0 0-.126.252-.21.294-.084.126-.46.504-.504.504 0 0-.209.041-.336.041-.084.042-.336.084-.336.084-.084 0-.587-.125-.755-.167-.168 0-.671-.21-.755-.252-.251-.126-1.26-.756-1.427-.924-.084-.042-.378-.336-.42-.377 0-.042-.588-.546-.672-.63l-.168-.21v-.126c-.042-.294-.084-1.218-.084-1.302s0-.503.042-.629.084-.63.126-.672c.084-.168.294-.63.378-.671 0 0 .294-.252.336-.378.168-.084.587-.462.67-.462.044-.126.505-.42.589-.462.127 0 .672-.251.84-.251 0 0 .335-.126.461-.126.126-.042.503-.042.546-.084 0 0 .504.042.672.042.252.042 1.049.042 1.175.126.21 0 .798.084.923.084.043.084 1.218.42 1.638.629.126 0 .671.21.755.252.335.168 1.343.63 1.386.588.083.084.587.42.629.504l.588.503c.042 0 .252.21.336.252.04-.042.293.294.293.294.043 0 .21.168.21.168s.169.21.21.21c0 .083.588.587.63.671.168.084.462.42.546.462.042.084.63.84.712 1.008.043.042.631.545.715.545.041.126.21.924.293.966.043.042.168.335.168.461.084.126.42.462.462.462 0 .084.84.63.924.713l.503.63 1.386.336s.294.042.336.084c.084 0 .586.168.713.126.041 0 .377.126.42.084.125 0 .293.084.293.084s.084.21.084.252c.043.126.043.294.043.294 0 .126-.168.294-.252.378-.084 0-.547.084-.715.126-.167.042-.628.126-.628.126-.084 0-.42-.084-.462-.126-.084 0-.42-.21-.462-.21-.084 0-.588.042-.713-.042-.043 0-.127.042-.168.042h-.127c0 .042-.209.21-.251.252 0 0-.378-.042-.42-.126-.084.042-.588-.126-.63-.126-.084-.042-.504-.042-.588-.042 0 0-.377.084-.504.084-.125.042-.503.084-.503.084l-.21.168c-.042 0-.293-.084-.293-.084-.042 0-.294.042-.336.084-.126 0-.336.042-.378.042l-.588.251s-.545.21-.63.21c0 .042-.335.21-.377.21h-.126l-.504.588c-.042 0-.336.126-.378.21-.084.042-.503.167-.587.251-.043 0-.168.168-.21.168l-.673.378c-.04.084-.209.168-.209.168-.042.042-.126.168-.126.21-.21.042-1.05.377-1.258.503-.043 0-.336.168-.38.21-.04 0-.46.21-.503.21-.084 0-.461.336-.545.378-.294.084-1.68.126-1.973.168-.084.042-.756.042-.84.042-.21 0-.923.042-1.007.042s-.881.168-.965.168c-.127-.084-1.512-.294-1.68-.294h-.125c-.168 0-.756-.126-.883-.126-.04 0-.377-.168-.377-.21-.168-.042-.924-.21-.966-.294-.042 0-.586-.336-.797-.42-.041 0-.125-.084-.125-.084-.211-.209-.714-.755-.756-.755 0-.084-.21-.462-.21-.546-.126-.21-.798-1.091-.966-1.301v-.168zm15.322 5.583c0-.042.252-.881.336-1.217l.21-.462.671-.965c.084 0 .588-.42.798-.546.042-.084.503-.336.63-.42.125-.042.672-.378.839-.42.042 0 .42-.168.504-.21.168-.083.587-.293.671-.293l1.385-.378h.042c.042 0 .084-.042.084-.042.042.084.798.252.924.294 0 0 .377.084.42.084.125 0 .46.168.46.21.044 0 .044.126.085.21 0 .041 0 .167-.041.167 0 0-.168.21-.252.21-.043 0-.756.126-.84.168-.084 0-.546.21-.63.21-.21.084-.923.546-1.09.63 0 .042-.547.461-.589.587-.042 0-.335.126-.377.168-.084.084-.21.126-.252.168-.042.084-.42.42-.504.546-.167.168-.587.588-.63.672-.041.126-.42.545-.377.629-.043.042-.127.294-.127.294v.168c.043.042.043.126.043.126 0 .042.168.126.209.126 0 0 .504.168.547.21.084 0 .419.126.46.168l.337.251c.084 0 .126.21.168.252 0 .042.084.294.084.378.042.084.042.336.042.336s-.168.21-.21.294a3.877 3.877 0 01-.546.378l-.335.21h-.127a.977.977 0 00-.168.041c-.168 0-.756.042-.84 0-.167 0-.461-.042-.503-.084-.084 0-.42-.251-.462-.293-.168-.252-.756-1.26-.797-1.428-.043-.084-.168-.545-.168-.755-.043-.126-.084-.672-.084-.672zM169.33 52.426c0-.042-.084-.671-.168-.755-.042 0-.378-.42-.504-.504-.42-.252-1.26-.924-1.511-1.008-.042-.084-1.007-.797-1.26-.88-.083 0-.418-.127-.461-.169 0 0-.504-.168-.588-.168-.041-.042-.42-.294-.461-.294l-.294-.21c-.42-.294-.672-.378-1.092-.587l.252-.252c0-.084 1.091-.126 1.091-.21h.168c.084.084.799.21.883.21s.293.042.335.042l1.385.461.924.378h.084c.041 0 .335.21.377.21 0 0 .336.21.378.21l.882.546c.125.042.629.42.713.545l.504.504c.294.168.84.924.84.966.042.042.378.546.378.671 0 .042.084.504.084.63.083.168.083.755.083.797v.378c0 .168-.041.378-.041.42-.042.042-.084.462-.21.588-.042.084-.084.294-.126.294-.042.125-.42.293-.504.335-.084 0-.378.378-.42.378-.084 0-.756-.084-.881-.084-.168 0-.756-.294-.798-.294l-.462-.587s-.042-.966 0-1.47c.042-.042.42-1.049.42-1.091zm-3.861-6.086c-.084 0-.8.126-.883.168 0 0-.168-.042-.209-.042h-.21a1.71 1.71 0 01-.462-.252l-.294-.168c0-.042-.21-.252-.252-.294-.21-.252.378-1.218 1.008-1.134v-.042c.042-.042.335-.084.378-.168.125.084.965 0 1.09-.042l.505-.461c.126-.084 1.007-1.008 1.133-1.176.042-.042.42-.335.461-.335.168-.21.63-.714.714-.756.042-.126.546-.965.714-1.05.126-.167 1.512-1.51 2.015-1.847l.42-.293c.168-.042.923-.672 1.007-.672.127-.084.503-.378.671-.462 0 0 .211-.083.252-.125.42-.084 1.386-.504 1.428-.504.168-.084 1.049-.168 1.176-.21.04 0 .755.084 1.007.084.336.042 1.175.084 1.218.084.125 0 .67.126.754.252 0 0 .252.252.42.336.168.167.504.503.546.503.21.252.924 1.133 1.049 1.427 0 .042.168.252.127.294 0 0 .252.21.336.294.041.084.167.756.167 1.008.042.084.084.587.084.629v.294l-.21.966s-.168.335-.209.377c-.043.084-.295.42-.336.546-.252.168-1.092 1.007-1.26 1.05-.084.083-.63.377-.756.42-.125.083-.671.125-.755.125s-.63-.126-.713-.294c-.042 0-.588-.21-.756-.294-.084-.084-.294-.168-.336-.252 0-.042-.293-.461-.336-.629-.125-.168-.42-.798-.42-.798-.041 0 0-.377 0-.461 0-.126 0-.294.043-.294l.504-.168.67.881h.169c.084.042.294.042.336.042 0-.042.294-.21.419-.293.127-.084.588-.504.672-.63l.335-.504c.084-.084.126-.462.168-.545 0 0 .042-.168.042-.252v-.294c0-.042-.042-.378-.084-.504-.042-.042-.126-.336-.126-.336-.209-.126-.755-.546-.88-.588-.043 0-.588-.042-.84-.084-.168 0-.798-.042-.84-.042 0 0-.629.378-.881.462-.043.042-.546.252-.714.378-.042 0-.462.252-.504.294-.042 0-.252.084-.294.084-.126.042-.46.294-.545.252 0 .084-.379.462-.462.504-.042 0-.293.042-.293.084-.168.126-.84.713-.966.88-.126.043-.798.883-.84 1.05-.042.042-.546.336-.63.336-.041.126-.713.672-.797.756 0 .042-.42.167-.42.21-.084 0-.084.167-.084.21 0 0 0 .167.084.21l1.553.251c.168.084.924.252 1.05.252.042.042.755.294 1.007.378.084 0 1.133.546 1.301.63.21.042.966.294 1.008.336h.294c.084 0 .252.252.293.252.043.041.336 0 .379 0 .377.083 3.4.46 3.777.46.042 0 .63.043.84.127.168 0 .588.042.629.042.043 0 .547.126.714 0 .168.042.798-.126.882-.168s.84-.42.924-.378c.084 0 .754-.251.754-.293.042 0 .21-.084.21-.126l.84-.504c.084-.042.294-.336.336-.336 0-.042.588-.588.672-.756 0-.042-.084-.714-.084-.755-.084 0-.882-.63-.966-.63s-.672.797-.756.755h-.335c-.043 0-.251-.293-.378-.335 0-.042-.125-.126-.125-.126 0-.126.168-.336.168-.462.084-.126.502-.462.502-.545l1.554-.21s.252.084.336.168l.168.125c.125.126.923.504 1.007.588.042.042.294.504.42.63.126.21.378.881.336.965 0 0 .042.294.042.378a2.405 2.405 0 00-.084.42c0 .126-.252.672-.294.798-.042 0-.336.251-.378.293-.042 0-.252.42-.294.42-.126.084-.923.588-1.007.714-.168.167-.798.713-.924.881-.042 0-.546.294-.756.378-.042 0-.336.084-.377.084 0 .042-.251.293-.294.293-.041 0-.461.21-.63.294-.167.042-1.385.462-1.553.462l-.63.252c-.125.084-.629.21-.713.252-.084 0-.714.126-.714.168-.084 0-.588.084-.63.084-.084-.042-.545-.042-.628-.084-.043.042-.672.126-.756.126 0 0-.462-.042-.588-.042-.168 0-.588-.042-.63-.042 0 0-.335-.252-.42-.294-.083 0-.503-.168-.587-.168.041-.042-.336-.168-.379-.168l-.629-.21c-.042-.084-.378-.294-.504-.336-.042-.084-.42-.377-.46-.42-.128 0-.924-.545-1.176-.629-.168-.252-1.134-.672-1.26-.755 0 0-.377-.21-.461-.21-.043-.042-.547-.378-.672-.42-.043-.042-.462-.126-.588-.252h-.168c-.294-.042-2.392-.587-2.644-.671 0 0-.336-.084-.504-.084-.126 0-.504-.042-.545-.042z"/>
                </g>
            </g>
        </symbol>
    </defs>
    <use id="blue-button-usage" xlink:href="#large-blue-button-up" class="sprite-symbol-usage"></use>
    <use id="blue-button-pressed-usage" xlink:href="#large-blue-button-down" class="sprite-symbol-usage"></use>
    <use id="pink-button-usage" xlink:href="#large-pink-button-up" class="sprite-symbol-usage"></use>
    <use id="pink-button-pressed-usage" xlink:href="#large-pink-button-down" class="sprite-symbol-usage"></use>
</svg>