<?xml version="1.0" encoding="utf-8"?>
<svg xmlns="http://www.w3.org/2000/svg" xmlns:xlink="http://www.w3.org/1999/xlink">
    <defs>
        <style xmlns="http://www.w3.org/2000/svg">
            .sprite-symbol-usage {
                display: none;
            }
            
            .sprite-symbol-usage:target {
                display: inline;
            }
        </style>
        <symbol viewBox="0 0 210 90" id="blue-button" xmlns="http://www.w3.org/2000/svg"><rect x="24" y="22.5" width="185" height="62" rx="23.25" opacity=".41"/><rect x="11" y="12.5" width="185" height="62" rx="23.25" fill="#fff" stroke="#19253a" stroke-miterlimit="10" stroke-width="8"/><g data-name="Play Button"><path d="M24 72.1a23.26 23.26 0 01-13-20.85v-15.5a23.25 23.25 0 0110-19.08" fill="none" stroke="#375282" stroke-linecap="round" stroke-miterlimit="10" stroke-width="8"/><rect x="15" y="7.5" width="185" height="62" rx="23.25" fill="#fff" stroke="#253659" stroke-miterlimit="10" stroke-width="8"/><path d="M35.69 40.42V39.45s0-.33.08-.37l.34-1.26a1.85 1.85 0 00.29-.17H36.7a3.31 3.31 0 01.71 0c.12 0 .5.08.54 0s.55.17.63.17a6.93 6.93 0 01.63.5 4.41 4.41 0 01.59.76s.17.62.21.71a3 3 0 01-.84 0l-.5-.63-.21-.16H37.87a1.42 1.42 0 00-.38.25 2.38 2.38 0 01-.25.16l-.12.17V39.88a8.26 8.26 0 00.88.79c0 .09.08.13.17.13a2.6 2.6 0 00.46.25 5.53 5.53 0 01.63.17 1.81 1.81 0 00.42 0s.55 0 .75-.08l.76-.17a5.24 5.24 0 001-.29s.37-.17.42-.21 1-.42 1.17-.55h.13c.08 0 .75-.25.79-.25l1.3-.3c.05 0 1.1-.17 1.47-.25l1.47-.25a1.63 1.63 0 00.63.08A8.68 8.68 0 0151 38.7a8.2 8.2 0 011 0l1-.17c.17 0 .88-.21 1-.21a.7.7 0 00.29-.17s-.08-.09-.08-.13-.76-.67-.84-.8-.63-.71-.72-.75l-.92-1.14a3.59 3.59 0 01-.33-.5l-.59-.67s-.25-.34-.34-.29a6.33 6.33 0 00-.71-.68c-.3-.21-1.76-1.3-2.1-1.46l-.59-.34-1-.29c-.13 0-.8-.09-.8-.09s-.55.09-.67.09a6.5 6.5 0 00-.8.16s-.21.09-.21.17-.13.13-.17.13-.17.46-.21.46-.29.59-.25.67a4 4 0 000 .71s0 .47.08.68a4.41 4.41 0 00.17.54.93.93 0 00.17.46l.46.3a1.31 1.31 0 00.46.08h.13a.4.4 0 00.12 0s.25-.13.25-.21l.38-.34a.5.5 0 01.13 0h.67c0 .05.21.09.25.09l.3.25a2 2 0 010 .21v.25c0 .04-.13.25-.21.29a2.69 2.69 0 01-.5.51 2.37 2.37 0 01-.34 0 1.91 1.91 0 01-.34.08c-.08 0-.58-.12-.75-.16a2.94 2.94 0 01-.76-.26 10.51 10.51 0 01-1.42-.92 2.61 2.61 0 01-.42-.38s-.59-.54-.68-.63l.04-.24v-.12c0-.3-.09-1.22-.09-1.3a3.5 3.5 0 010-.63c0-.13.09-.63.13-.67a3 3 0 01.38-.68 1.6 1.6 0 00.33-.37 7.89 7.89 0 01.68-.47c0-.12.5-.42.58-.46s.72-.3.84-.3a2.26 2.26 0 01.46-.13c.13 0 .51 0 .55-.08s.5 0 .67 0a7.45 7.45 0 011.22.21c.21 0 .8.08.92.08s1.22.42 1.64.63a4.12 4.12 0 01.75.25 9.69 9.69 0 001.39.59c.08.09.59.42.63.51l.59.5s.25.21.33.25.3.29.3.29l.21.17s.16.21.21.21.58.59.63.67.46.42.54.47.63.84.71 1a4.29 4.29 0 00.72.55 5.46 5.46 0 00.29 1 1.29 1.29 0 01.17.47 2.46 2.46 0 00.46.46 8.35 8.35 0 00.93.71l.5.63 1.38.34a1.36 1.36 0 01.34.08 3.74 3.74 0 00.71.13s.38.12.42.08a.81.81 0 01.3.09 1.48 1.48 0 01.08.25 1.11 1.11 0 010 .29c0 .13-.16.29-.25.38a6.57 6.57 0 00-.71.12c-.17.05-.63.13-.63.13a1.24 1.24 0 01-.46-.13c-.09 0-.42-.21-.47-.21a2 2 0 01-.71 0H58.53c0 .05-.21.21-.25.26s-.38-.05-.42-.13a2.8 2.8 0 01-.63-.13 3 3 0 00-.59 0 3.83 3.83 0 01-.51.09 4 4 0 01-.5.08l-.21.17a2.57 2.57 0 01-.29-.09 1 1 0 00-.34.09h-.38l-.58.25a5.77 5.77 0 01-.63.21 1.17 1.17 0 01-.38.21h-.13l-.5.59a.91.91 0 00-.38.21 4.16 4.16 0 00-.59.25s-.16.17-.21.17l-.67.38a.63.63 0 01-.21.17.5.5 0 00-.12.21 7.34 7.34 0 00-1.26.5 1.58 1.58 0 00-.38.21s-.46.21-.51.21a3.56 3.56 0 00-.54.38c-.29.08-1.68.12-2 .16a4.79 4.79 0 01-.84 0h-1c-.08 0-.88.17-1 .17a10 10 0 00-1.68-.3h-.12c-.17 0-.76-.12-.88-.12a1.17 1.17 0 01-.38-.21 4.65 4.65 0 01-1-.3s-.58-.33-.79-.42l-.13-.08c-.21-.21-.71-.76-.75-.76s-.21-.46-.21-.54-.8-1.09-1-1.3zM51 46s.25-.88.34-1.22l.21-.46.67-1a9.21 9.21 0 00.8-.55 4.57 4.57 0 01.63-.42c.12 0 .67-.38.84-.42a4.56 4.56 0 00.5-.21 4.66 4.66 0 01.67-.29l1.39-.38a.14.14 0 00.08 0 4.86 4.86 0 00.93.29s.37.09.42.09a.9.9 0 01.46.21s0 .12.08.21 0 .16 0 .16-.17.21-.25.21a7.36 7.36 0 00-.84.17c-.09 0-.55.21-.63.21s-.93.55-1.09.63c0 0-.55.46-.59.59a1.27 1.27 0 00-.38.17 2.38 2.38 0 01-.25.16c0 .09-.42.42-.5.55a8.4 8.4 0 00-.63.67c0 .13-.42.55-.38.63a1.65 1.65 0 00-.13.29v.17a.22.22 0 010 .13s.17.12.21.12a5 5 0 01.55.21 1.57 1.57 0 01.46.17l.34.25c.08 0 .12.21.16.26s.09.29.09.37a1.29 1.29 0 010 .34 2.84 2.84 0 00-.21.29 3.22 3.22 0 01-.54.38l-.34.21h-.23a4.68 4.68 0 01-.84 0 1.45 1.45 0 01-.51-.08 1.8 1.8 0 01-.46-.29 12.83 12.83 0 01-.8-1.43 3.13 3.13 0 01-.16-.76A4.46 4.46 0 0151 46zM165.14 46.17a2.63 2.63 0 00-.17-.76s-.37-.42-.5-.5c-.42-.25-1.26-.92-1.51-1a6.52 6.52 0 00-1.26-.91 1.33 1.33 0 01-.46-.17 5.9 5.9 0 00-.59-.16 2.41 2.41 0 00-.46-.3l-.29-.21a7.38 7.38 0 00-1.1-.59l.26-.25c0-.08 1.09-.12 1.09-.21h.16a3.2 3.2 0 00.89.21h.33l1.39.47.92.37h.09s.33.21.37.21a3.24 3.24 0 00.38.21l.88.55a3.08 3.08 0 01.72.54l.5.51a4 4 0 01.84 1 2.74 2.74 0 01.38.68s.08.5.08.62a3.19 3.19 0 01.08.8v.8c0 .04-.08.46-.21.59s-.08.29-.12.29-.42.3-.51.34-.37.38-.42.38-.75-.09-.88-.09a5.85 5.85 0 01-.8-.29l-.46-.59v-1.47c0-.02.38-1.03.38-1.07zm-3.86-6.09a6.83 6.83 0 00-.88.17h-.4a1.77 1.77 0 01-.46-.25l-.3-.17a2.09 2.09 0 00-.25-.3c-.21-.25.38-1.21 1-1.13s.33-.08.38-.17a3.09 3.09 0 001.09 0l.5-.46a16.14 16.14 0 001.14-1.18 3.29 3.29 0 01.46-.33 6.17 6.17 0 01.71-.76 4.42 4.42 0 01.71-1.05 19.88 19.88 0 012-1.85l.42-.29c.17 0 .92-.67 1-.67a7.77 7.77 0 01.67-.46 1.53 1.53 0 00.25-.13 14.78 14.78 0 001.43-.5 11.66 11.66 0 011.17-.21s.76.08 1 .08 1.17.09 1.22.09.67.12.75.25a2.12 2.12 0 00.42.33 5 5 0 00.55.51 11.82 11.82 0 011.05 1.42c0 .05.17.26.12.3s.26.21.34.29a5.25 5.25 0 01.17 1 3.88 3.88 0 01.08.63v.29l-.21 1s-.17.33-.21.38-.29.42-.33.54c-.26.17-1.1 1-1.26 1a4 4 0 01-.76.42 2.38 2.38 0 01-.76.13c-.08 0-.62-.13-.71-.3a6.77 6.77 0 01-.75-.29c-.09-.08-.3-.17-.34-.25s-.29-.46-.34-.63-.42-.8-.42-.8v-.46c0-.08 0-.3.05-.3l.5-.16.67.88h.25a1.08 1.08 0 00.34 0 2.05 2.05 0 01.42-.29 6.66 6.66 0 00.67-.63l.33-.51c.09-.08.13-.46.17-.54a1.6 1.6 0 000-.25v-.3a3.14 3.14 0 00-.08-.5 1.9 1.9 0 01-.13-.34c-.21-.12-.75-.54-.88-.59s-.59 0-.84-.08h-.84a7 7 0 01-.88.46s-.54.25-.71.38a3.85 3.85 0 00-.51.29s-.25.09-.29.09-.46.29-.55.25a1.66 1.66 0 01-.46.5s-.29 0-.29.09a9 9 0 00-1 .88 4.46 4.46 0 00-.84 1.05 2.88 2.88 0 01-.63.33 7.09 7.09 0 01-.79.76s-.42.17-.42.21-.09.17-.09.21 0 .17.09.21l1.55.25a5.67 5.67 0 001 .25 9.48 9.48 0 001 .38c.08 0 1.13.54 1.3.63a7.5 7.5 0 011 .33h.36c.08 0 .25.26.29.26h.38c.38.08 3.4.46 3.78.46a4.25 4.25 0 01.84.12h.63c.04 0 .54.12.71 0a2.81 2.81 0 00.88-.17 4.55 4.55 0 01.93-.38 3.26 3.26 0 00.75-.29s.21-.09.21-.13l.84-.5c.09 0 .3-.34.34-.34s.59-.59.67-.75-.08-.72-.08-.76-.89-.63-1-.63-.67.8-.76.76h-.33s-.25-.3-.38-.34-.13-.13-.13-.13.17-.33.17-.46.51-.46.51-.54l1.55-.21a1.32 1.32 0 01.34.16l.16.13c.13.13.93.5 1 .59a7.54 7.54 0 00.42.63 2.93 2.93 0 01.34 1v.38a3 3 0 00-.09.42 6.42 6.42 0 01-.29.8 2.4 2.4 0 00-.38.29s-.25.42-.29.42a9.2 9.2 0 00-1 .72c-.17.16-.8.71-.92.88 0 0-.55.29-.76.38 0 0-.33.08-.38.08a1 1 0 01-.29.29 6.22 6.22 0 00-.63.3c-.17 0-1.38.46-1.55.46l-.63.25c-.13.08-.63.21-.72.25a3.08 3.08 0 00-.71.17c-.08 0-.59.08-.63.08s-.54 0-.63-.08a4.18 4.18 0 01-.75.13h-1.22c-.04 0-.34-.25-.42-.29s-.5-.17-.59-.17-.33-.17-.38-.17l-.63-.21a1.45 1.45 0 00-.5-.33 3.5 3.5 0 00-.46-.42c-.13 0-.92-.55-1.18-.63a5.94 5.94 0 00-1.26-.76 2.25 2.25 0 00-.46-.21 4.35 4.35 0 00-.67-.42s-.46-.12-.59-.25H165c-.29 0-2.39-.59-2.64-.67a2.88 2.88 0 00-.5-.09z"/></g>
        </symbol>
        <symbol viewBox="0 0 210 90" id="blue-button-pressed" xmlns="http://www.w3.org/2000/svg"><rect x="20" y="18.5" width="185" height="62" rx="23.25" opacity=".41"/><rect x="11" y="12.5" width="185" height="62" rx="23.25" fill="#fff" stroke="#19253a" stroke-miterlimit="10" stroke-width="8"/><g data-name="Play Button"><path d="M24 72.1a23.26 23.26 0 01-13-20.85v-15.5a23.25 23.25 0 0110-19.08" fill="none" stroke="#375282" stroke-linecap="round" stroke-miterlimit="10" stroke-width="8"/><rect x="12" y="10.5" width="185" height="62" rx="23.25" fill="#fff" stroke="#253659" stroke-miterlimit="10" stroke-width="8"/><path d="M35.69 40.42V39.45s0-.33.08-.37l.34-1.26a1.85 1.85 0 00.29-.17H36.7a3.31 3.31 0 01.71 0c.12 0 .5.08.54 0s.55.17.63.17a6.93 6.93 0 01.63.5 4.41 4.41 0 01.59.76s.17.62.21.71a3 3 0 01-.84 0l-.5-.63-.21-.16H37.87a1.42 1.42 0 00-.38.25 2.38 2.38 0 01-.25.16l-.12.17V39.88a8.26 8.26 0 00.88.79c0 .09.08.13.17.13a2.6 2.6 0 00.46.25 5.53 5.53 0 01.63.17 1.81 1.81 0 00.42 0s.55 0 .75-.08l.76-.17a5.24 5.24 0 001-.29s.37-.17.42-.21 1-.42 1.17-.55h.13c.08 0 .75-.25.79-.25l1.3-.3c.05 0 1.1-.17 1.47-.25l1.47-.25a1.63 1.63 0 00.63.08A8.68 8.68 0 0151 38.7a8.2 8.2 0 011 0l1-.17c.17 0 .88-.21 1-.21a.7.7 0 00.29-.17s-.08-.09-.08-.13-.76-.67-.84-.8-.63-.71-.72-.75l-.92-1.14a3.59 3.59 0 01-.33-.5l-.59-.67s-.25-.34-.34-.29a6.33 6.33 0 00-.71-.68c-.3-.21-1.76-1.3-2.1-1.46l-.59-.34-1-.29c-.13 0-.8-.09-.8-.09s-.55.09-.67.09a6.5 6.5 0 00-.8.16s-.21.09-.21.17-.13.13-.17.13-.17.46-.21.46-.29.59-.25.67a4 4 0 000 .71s0 .47.08.68a4.41 4.41 0 00.17.54.93.93 0 00.17.46l.46.3a1.31 1.31 0 00.46.08h.13a.4.4 0 00.12 0s.25-.13.25-.21l.38-.34a.5.5 0 01.13 0h.67c0 .05.21.09.25.09l.3.25a2 2 0 010 .21v.25c0 .04-.13.25-.21.29a2.69 2.69 0 01-.5.51 2.37 2.37 0 01-.34 0 1.91 1.91 0 01-.34.08c-.08 0-.58-.12-.75-.16a2.94 2.94 0 01-.76-.26 10.51 10.51 0 01-1.42-.92 2.61 2.61 0 01-.42-.38s-.59-.54-.68-.63l.04-.24v-.12c0-.3-.09-1.22-.09-1.3a3.5 3.5 0 010-.63c0-.13.09-.63.13-.67a3 3 0 01.38-.68 1.6 1.6 0 00.33-.37 7.89 7.89 0 01.68-.47c0-.12.5-.42.58-.46s.72-.3.84-.3a2.26 2.26 0 01.46-.13c.13 0 .51 0 .55-.08s.5 0 .67 0a7.45 7.45 0 011.22.21c.21 0 .8.08.92.08s1.22.42 1.64.63a4.12 4.12 0 01.75.25 9.69 9.69 0 001.39.59c.08.09.59.42.63.51l.59.5s.25.21.33.25.3.29.3.29l.21.17s.16.21.21.21.58.59.63.67.46.42.54.47.63.84.71 1a4.29 4.29 0 00.72.55 5.46 5.46 0 00.29 1 1.29 1.29 0 01.17.47 2.46 2.46 0 00.46.46 8.35 8.35 0 00.93.71l.5.63 1.38.34a1.36 1.36 0 01.34.08 3.74 3.74 0 00.71.13s.38.12.42.08a.81.81 0 01.3.09 1.48 1.48 0 01.08.25 1.11 1.11 0 010 .29c0 .13-.16.29-.25.38a6.57 6.57 0 00-.71.12c-.17.05-.63.13-.63.13a1.24 1.24 0 01-.46-.13c-.09 0-.42-.21-.47-.21a2 2 0 01-.71 0H58.53c0 .05-.21.21-.25.26s-.38-.05-.42-.13a2.8 2.8 0 01-.63-.13 3 3 0 00-.59 0 3.83 3.83 0 01-.51.09 4 4 0 01-.5.08l-.21.17a2.57 2.57 0 01-.29-.09 1 1 0 00-.34.09h-.38l-.58.25a5.77 5.77 0 01-.63.21 1.17 1.17 0 01-.38.21h-.13l-.5.59a.91.91 0 00-.38.21 4.16 4.16 0 00-.59.25s-.16.17-.21.17l-.67.38a.63.63 0 01-.21.17.5.5 0 00-.12.21 7.34 7.34 0 00-1.26.5 1.58 1.58 0 00-.38.21s-.46.21-.51.21a3.56 3.56 0 00-.54.38c-.29.08-1.68.12-2 .16a4.79 4.79 0 01-.84 0h-1c-.08 0-.88.17-1 .17a10 10 0 00-1.68-.3h-.12c-.17 0-.76-.12-.88-.12a1.17 1.17 0 01-.38-.21 4.65 4.65 0 01-1-.3s-.58-.33-.79-.42l-.13-.08c-.21-.21-.71-.76-.75-.76s-.21-.46-.21-.54-.8-1.09-1-1.3zM51 46s.25-.88.34-1.22l.21-.46.67-1a9.21 9.21 0 00.8-.55 4.57 4.57 0 01.63-.42c.12 0 .67-.38.84-.42a4.56 4.56 0 00.5-.21 4.66 4.66 0 01.67-.29l1.39-.38a.14.14 0 00.08 0 4.86 4.86 0 00.93.29s.37.09.42.09a.9.9 0 01.46.21s0 .12.08.21 0 .16 0 .16-.17.21-.25.21a7.36 7.36 0 00-.84.17c-.09 0-.55.21-.63.21s-.93.55-1.09.63c0 0-.55.46-.59.59a1.27 1.27 0 00-.38.17 2.38 2.38 0 01-.25.16c0 .09-.42.42-.5.55a8.4 8.4 0 00-.63.67c0 .13-.42.55-.38.63a1.65 1.65 0 00-.13.29v.17a.22.22 0 010 .13s.17.12.21.12a5 5 0 01.55.21 1.57 1.57 0 01.46.17l.34.25c.08 0 .12.21.16.26s.09.29.09.37a1.29 1.29 0 010 .34 2.84 2.84 0 00-.21.29 3.22 3.22 0 01-.54.38l-.34.21h-.23a4.68 4.68 0 01-.84 0 1.45 1.45 0 01-.51-.08 1.8 1.8 0 01-.46-.29 12.83 12.83 0 01-.8-1.43 3.13 3.13 0 01-.16-.76A4.46 4.46 0 0151 46zM165.14 46.17a2.63 2.63 0 00-.17-.76s-.37-.42-.5-.5c-.42-.25-1.26-.92-1.51-1a6.52 6.52 0 00-1.26-.91 1.33 1.33 0 01-.46-.17 5.9 5.9 0 00-.59-.16 2.41 2.41 0 00-.46-.3l-.29-.21a7.38 7.38 0 00-1.1-.59l.26-.25c0-.08 1.09-.12 1.09-.21h.16a3.2 3.2 0 00.89.21h.33l1.39.47.92.37h.09s.33.21.37.21a3.24 3.24 0 00.38.21l.88.55a3.08 3.08 0 01.72.54l.5.51a4 4 0 01.84 1 2.74 2.74 0 01.38.68s.08.5.08.62a3.19 3.19 0 01.08.8v.8c0 .04-.08.46-.21.59s-.08.29-.12.29-.42.3-.51.34-.37.38-.42.38-.75-.09-.88-.09a5.85 5.85 0 01-.8-.29l-.46-.59v-1.47c0-.02.38-1.03.38-1.07zm-3.86-6.09a6.83 6.83 0 00-.88.17h-.4a1.77 1.77 0 01-.46-.25l-.3-.17a2.09 2.09 0 00-.25-.3c-.21-.25.38-1.21 1-1.13s.33-.08.38-.17a3.09 3.09 0 001.09 0l.5-.46a16.14 16.14 0 001.14-1.18 3.29 3.29 0 01.46-.33 6.17 6.17 0 01.71-.76 4.42 4.42 0 01.71-1.05 19.88 19.88 0 012-1.85l.42-.29c.17 0 .92-.67 1-.67a7.77 7.77 0 01.67-.46 1.53 1.53 0 00.25-.13 14.78 14.78 0 001.43-.5 11.66 11.66 0 011.17-.21s.76.08 1 .08 1.17.09 1.22.09.67.12.75.25a2.12 2.12 0 00.42.33 5 5 0 00.55.51 11.82 11.82 0 011.05 1.42c0 .05.17.26.12.3s.26.21.34.29a5.25 5.25 0 01.17 1 3.88 3.88 0 01.08.63v.29l-.21 1s-.17.33-.21.38-.29.42-.33.54c-.26.17-1.1 1-1.26 1a4 4 0 01-.76.42 2.38 2.38 0 01-.76.13c-.08 0-.62-.13-.71-.3a6.77 6.77 0 01-.75-.29c-.09-.08-.3-.17-.34-.25s-.29-.46-.34-.63-.42-.8-.42-.8v-.46c0-.08 0-.3.05-.3l.5-.16.67.88h.25a1.08 1.08 0 00.34 0 2.05 2.05 0 01.42-.29 6.66 6.66 0 00.67-.63l.33-.51c.09-.08.13-.46.17-.54a1.6 1.6 0 000-.25v-.3a3.14 3.14 0 00-.08-.5 1.9 1.9 0 01-.13-.34c-.21-.12-.75-.54-.88-.59s-.59 0-.84-.08h-.84a7 7 0 01-.88.46s-.54.25-.71.38a3.85 3.85 0 00-.51.29s-.25.09-.29.09-.46.29-.55.25a1.66 1.66 0 01-.46.5s-.29 0-.29.09a9 9 0 00-1 .88 4.46 4.46 0 00-.84 1.05 2.88 2.88 0 01-.63.33 7.09 7.09 0 01-.79.76s-.42.17-.42.21-.09.17-.09.21 0 .17.09.21l1.55.25a5.67 5.67 0 001 .25 9.48 9.48 0 001 .38c.08 0 1.13.54 1.3.63a7.5 7.5 0 011 .33h.36c.08 0 .25.26.29.26h.38c.38.08 3.4.46 3.78.46a4.25 4.25 0 01.84.12h.63c.04 0 .54.12.71 0a2.81 2.81 0 00.88-.17 4.55 4.55 0 01.93-.38 3.26 3.26 0 00.75-.29s.21-.09.21-.13l.84-.5c.09 0 .3-.34.34-.34s.59-.59.67-.75-.08-.72-.08-.76-.89-.63-1-.63-.67.8-.76.76h-.33s-.25-.3-.38-.34-.13-.13-.13-.13.17-.33.17-.46.51-.46.51-.54l1.55-.21a1.32 1.32 0 01.34.16l.16.13c.13.13.93.5 1 .59a7.54 7.54 0 00.42.63 2.93 2.93 0 01.34 1v.38a3 3 0 00-.09.42 6.42 6.42 0 01-.29.8 2.4 2.4 0 00-.38.29s-.25.42-.29.42a9.2 9.2 0 00-1 .72c-.17.16-.8.71-.92.88 0 0-.55.29-.76.38 0 0-.33.08-.38.08a1 1 0 01-.29.29 6.22 6.22 0 00-.63.3c-.17 0-1.38.46-1.55.46l-.63.25c-.13.08-.63.21-.72.25a3.08 3.08 0 00-.71.17c-.08 0-.59.08-.63.08s-.54 0-.63-.08a4.18 4.18 0 01-.75.13h-1.22c-.04 0-.34-.25-.42-.29s-.5-.17-.59-.17-.33-.17-.38-.17l-.63-.21a1.45 1.45 0 00-.5-.33 3.5 3.5 0 00-.46-.42c-.13 0-.92-.55-1.18-.63a5.94 5.94 0 00-1.26-.76 2.25 2.25 0 00-.46-.21 4.35 4.35 0 00-.67-.42s-.46-.12-.59-.25H165c-.29 0-2.39-.59-2.64-.67a2.88 2.88 0 00-.5-.09z"/></g>
        </symbol>
        <symbol viewBox="0 0 50 50" id="leaderboard-button" xmlns="http://www.w3.org/2000/svg"><path opacity=".28" d="M7.08 41.5V12.33h43.16V45H10.4"/><path fill="#d62d7a" d="M12.4 36.19V8.31H7.09V41.5M7.09 8.31h5.31V3"/><path fill="#871242" d="M12.4 36.19v5.31H7M40.19 41.5H12.4v-5.31h33.19"/><path fill="#d91a60" d="M12.4 3h33.19v33.19H12.4z"/><path d="M37.4 12.69h-2.8v-.85a.67.67 0 00-.68-.67h-9.49a.67.67 0 00-.68.67v.85H21a.59.59 0 00-.59.59h0a6.73 6.73 0 001 3.84 3.43 3.43 0 002.38 1.7.33.33 0 01.21.18 4.61 4.61 0 002.17 2.21 8 8 0 002.19.92.33.33 0 01.26.33v3.43a.35.35 0 01-.33.34h-2.82a.6.6 0 00-.61.56.58.58 0 00.56.62h7.47a.6.6 0 00.61-.56.59.59 0 00-.56-.62h-2.83a.35.35 0 01-.34-.34V22.5a.33.33 0 01.26-.33 8.48 8.48 0 002.2-.92A4.63 4.63 0 0034.39 19a.37.37 0 01.26-.21A3.44 3.44 0 0037 17.12a6.81 6.81 0 001-3.84h0a.6.6 0 00-.6-.59zm-13.65 4.69a.18.18 0 01-.17.17h-.06a2.5 2.5 0 01-1.3-1.22 4.48 4.48 0 01-.64-2.07.35.35 0 01.31-.37h1.52a.34.34 0 01.34.34zm12.38-1.06a2.5 2.5 0 01-1.3 1.22.17.17 0 01-.22-.1.13.13 0 010-.06v-3.16a.34.34 0 01.34-.34h1.49a.34.34 0 01.34.34v0a4.73 4.73 0 01-.65 2.1z" fill="#c7b299" stroke="#c7b299" stroke-miterlimit="10" stroke-width=".75"/></symbol>
        <symbol viewBox="0 0 50 50" id="leaderboard-button-pressed" xmlns="http://www.w3.org/2000/svg"><path opacity=".28" d="M7.02 41.5V12.33h37.29V45H9.89"/><path fill="#d62d7a" d="M12.34 36.19V8.31H7.03V41.5M7.03 8.31h1.31V7"/><path fill="#871242" d="M12.34 36.19v5.31H6.95M41.5 40.16l-1.36 1.34h-27.8v-5.31h29.19"/><path fill="#d91a60" d="M8.34 7h33.19v33.19H8.34z"/><path d="M32.9 16.79h-2.8v-.85a.68.68 0 00-.68-.68h-9.49a.68.68 0 00-.68.68v.85h-2.8a.59.59 0 00-.59.59h0a6.7 6.7 0 001 3.83 3.44 3.44 0 002.38 1.71.36.36 0 01.27.21 4.59 4.59 0 002.16 2.21 8.28 8.28 0 002.19.92.33.33 0 01.27.33V30a.34.34 0 01-.34.34H21a.61.61 0 00-.61.57.59.59 0 00.56.62h7.47A.61.61 0 0029 31a.59.59 0 00-.56-.62h-2.83a.34.34 0 01-.34-.34v-3.45a.34.34 0 01.27-.33 8.74 8.74 0 002.19-.91 4.61 4.61 0 002.16-2.22.33.33 0 01.27-.2 3.47 3.47 0 002.38-1.71 6.81 6.81 0 001-3.84h0a.58.58 0 00-.64-.59zm-13.65 4.69a.18.18 0 01-.17.17H19a2.52 2.52 0 01-1.3-1.23 4.45 4.45 0 01-.64-2.07.34.34 0 01.31-.36h1.52a.35.35 0 01.34.34zm12.38-1.07a2.52 2.52 0 01-1.3 1.23.18.18 0 01-.22-.11.07.07 0 010-.05v-3.17a.34.34 0 01.34-.34h1.49a.34.34 0 01.34.34v0a4.48 4.48 0 01-.65 2.1z" fill="#c7b299" stroke="#c7b299" stroke-miterlimit="10" stroke-width=".75"/></symbol>
        <symbol viewBox="0 0 50 50" id="logo-button" xmlns="http://www.w3.org/2000/svg"><path opacity=".28" d="M50.38 14.41v35.76H7.98V10.12h39.14"/><path fill="#a59481" d="M44.44 38.47v-33h-44v38.35h42.17"/><path fill="#c7b299" d="M2.44.12h42v38.35h-42z"/><path fill="#ddc6ac" d="M2.44.12l-2 5.35v38.35l2-5.35V.12z"/><g>
                <g data-name="Tuna 6"><path d="M11.68 9.61c.6 1.4 1.94 2.17 3 1.72s1.41-1.95.81-3.35a4.83 4.83 0 00-1.72-2.26c-.19-.09-.59.24-1.26.54s-1.15.26-1.27.54c-.46 1.12.4 2.71.44 2.81z" fill="#ff7bac"/><path d="M11.83 10c.6 1.4 1.94 2.17 3 1.72s1.41-2 .81-3.35a4.83 4.83 0 00-1.72-2.26c-.19-.09-.59.24-1.26.54s-1.15.26-1.27.55c-.46 1.13.4 2.72.44 2.8z" fill="#d91a60"/></g>
                <g data-name="Tuna 5"><path d="M16.32 5.85C16.69 7.32 17.89 8.29 19 8s1.7-1.7 1.33-3.18A5 5 0 0019 2.34c-.18-.12-.63.14-1.34.33s-1.17.08-1.33.34c-.64.99-.04 2.73-.01 2.84z" fill="#ff7bac"/><path d="M16.4 6.28c.38 1.48 1.57 2.45 2.68 2.17s1.7-1.7 1.33-3.18a4.87 4.87 0 00-1.34-2.5c-.18-.12-.63.14-1.33.33s-1.18.08-1.34.34c-.63 1.03-.02 2.74 0 2.84z" fill="#d91a60"/></g>
                <g data-name="Tuna 7"><path d="M8.15 15c.85 1.2 2.34 1.68 3.27 1s1-2.19.11-3.44c-.13-.18-1.12-1.62-2.15-1.86-.21-.05-.53.36-1.13.8s-1.07.49-1.12.79c-.22 1.2.96 2.58 1.02 2.71z" fill="#ff7bac"/><path d="M8.38 15.33c.87 1.24 2.34 1.72 3.27 1.07s1-2.2.11-3.45c-.12-.18-1.12-1.61-2.15-1.85-.21 0-.53.36-1.12.79s-1.07.49-1.13.79c-.22 1.18.96 2.56 1.02 2.65z" fill="#d91a60"/></g><path data-name="Nopal 2" d="M37.1 21c0 5.6-1.38 5.85-4.83 10-3 3.55-3.43 4.13-8.6 4.13-5.48 0-5-.57-8.61-4.13s-5-4.65-4.82-10c.22-6.35 5.35-14.12 13.43-14.12C31.08 6.86 37.1 13.18 37.1 21z" fill="#324001"/><path data-name="Nopal 1" d="M35.72 21c0 5.6-1.38 5.85-4.82 10-3 3.55-3.43 4.13-8.61 4.13-5.48 0-5-.57-8.61-4.13s-5-4.65-4.82-10c.22-6.35 5.35-14.12 13.43-14.12 7.42-.02 13.43 6.3 13.43 14.12z" fill="#7c8c03"/><g data-name="Tuna 1"><path d="M38.89 15c-.89 1.2-2.34 1.68-3.28 1s-1-2.19-.1-3.44c.12-.18 1.12-1.62 2.14-1.86.22-.05.54.36 1.13.8s1.07.49 1.13.79c.22 1.2-.91 2.58-1.02 2.71z" fill="#ff7bac"/><path d="M39.68 12.68c-.06-.3-.64-.44-1.13-.79s-.92-.84-1.13-.79c-1 .24-2 1.67-2.14 1.85a3.12 3.12 0 00-.58 2.33 2.79 2.79 0 01.85 1.21 2.58 2.58 0 003.11-1.16c.06-.09 1.23-1.47 1.02-2.65z" fill="#d91a60"/></g>
                <g data-name="Tuna 2"><path d="M36 9.61c-.6 1.4-1.94 2.17-3 1.72S31.6 9.38 32.2 8c.09-.2.76-1.81 1.72-2.26.19-.09.59.24 1.26.54s1.15.26 1.27.54c.45 1.1-.45 2.69-.45 2.79z" fill="#ff7bac"/><path d="M36.3 7.22c-.12-.29-.72-.3-1.27-.55S34 6 33.77 6.13a4.83 4.83 0 00-1.72 2.26 3.12 3.12 0 00-.1 2.37 2.67 2.67 0 011.19 1.06A2.62 2.62 0 0035.85 10c.04-.08.9-1.67.45-2.78z" fill="#d91a60"/></g>
                <g data-name="Tuna 3"><path d="M31.25 5.85c-.37 1.47-1.57 2.44-2.67 2.15s-1.7-1.7-1.33-3.18a4.79 4.79 0 011.34-2.5c.18-.12.62.14 1.33.33s1.18.08 1.34.34c.62 1.01.02 2.75-.01 2.86z" fill="#ff7bac"/><path d="M31.18 3.44c-.16-.26-.76-.18-1.34-.34s-1.16-.45-1.34-.33a5 5 0 00-1.34 2.5A3 3 0 0027.7 8a3 3 0 011.51.49 2.79 2.79 0 002-2.17c-.01-.14.59-1.85-.03-2.88z" fill="#d91a60"/></g>
                <g data-name="Tuna 4"><path d="M25.76 4c0 1.52-.92 2.75-2.06 2.75S21.63 5.49 21.63 4a4.92 4.92 0 01.69-2.76c.14-.16.64 0 1.38 0s1.16-.21 1.38 0c.85.82.68 2.62.68 2.76z" fill="#ff7bac"/><path d="M23 7a3.24 3.24 0 01.64-.06 3.43 3.43 0 01.74.08 2.81 2.81 0 001.4-2.6c0-.1.17-1.91-.69-2.75-.22-.21-.77 0-1.38 0s-1.23-.16-1.38 0a4.87 4.87 0 00-.68 2.75A2.82 2.82 0 0023 7z" fill="#d91a60"/></g>
                <g data-name="Espinas 2" fill="#4d4d4d" stroke="#4d4d4d" stroke-miterlimit="10" stroke-width=".5"><ellipse cx="13.97" cy="15.46" rx=".42" ry=".33" transform="rotate(-66.4 13.976 15.464)"/><ellipse cx="14.82" cy="31.3" rx=".27" ry=".37" transform="rotate(-20.83 14.832 31.298)"/><ellipse cx="17.83" cy="27.67" rx=".21" ry=".26" transform="rotate(-13.56 17.823 27.667)"/><ellipse cx="27.16" cy="29.31" rx=".29" ry=".35" transform="rotate(-6.22 27.115 29.255)"/><ellipse cx="23.05" cy="24.38" rx=".22" ry=".31"/><ellipse cx="22.44" cy="30.33" rx=".25" ry=".3" transform="translate(-.63 .48)"/><ellipse cx="28.15" cy="24.63" rx=".23" ry=".19" transform="matrix(.08 -1 1 .08 1.43 50.81)"/><ellipse cx="26.75" cy="19.92" rx=".25" ry=".18" transform="rotate(-84.34 26.753 19.922)"/><ellipse cx="30.01" cy="16.72" rx=".23" ry=".27" transform="rotate(-1.11 30.294 16.812)"/><ellipse cx="32.41" cy="21.31" rx=".21" ry=".26"/><ellipse cx="34.32" cy="25.15" rx=".25" ry=".46" transform="rotate(-4.65 34.26 25.075)"/><ellipse cx="33.38" cy="15.78" rx=".19" ry=".45" transform="rotate(-20.5 33.383 15.774)"/><ellipse cx="25.31" cy="12.26" rx=".18" ry=".21" transform="rotate(-65.63 25.306 12.256)"/><ellipse cx="27.54" cy="9.85" rx=".21" ry=".34" transform="rotate(-67.84 27.54 9.85)"/><ellipse cx="13.43" cy="24.51" rx=".34" ry=".25" transform="rotate(-80.44 13.428 24.509)"/><ellipse cx="12.72" cy="20.75" rx=".34" ry=".25" transform="rotate(-80.44 12.719 20.755)"/><ellipse cx="18.22" cy="21.15" rx=".29" ry=".23" transform="rotate(-74.8 18.219 21.142)"/><ellipse cx="21.1" cy="17.32" rx=".39" ry=".25" transform="rotate(-84.72 21.1 17.323)"/><ellipse cx="9.84" cy="22.27" rx=".29" ry=".59" transform="rotate(-1.79 9.897 22.244)"/><ellipse cx="10.73" cy="15.38" rx=".58" ry=".27" transform="rotate(-79.22 10.725 15.38)"/><ellipse cx="18.23" cy="10.91" rx=".24" ry=".29" transform="rotate(-6.75 18.242 10.945)"/><ellipse cx="20.95" cy="13.14" rx=".2" ry=".23" transform="rotate(-1.4 21.12 13.356)"/></g>
                <g data-name="Espinas 1" fill="#fcee21"><path d="M13.91 15.44a1.19 1.19 0 01-.5-.19 1.29 1.29 0 01-.28-.37 7.8 7.8 0 01-.5-.77 8.86 8.86 0 01.77.55 1.34 1.34 0 01.36.3.88.88 0 01.15.48zM21 17.2a1.57 1.57 0 01-.81.34 4.47 4.47 0 01-.82 0 1.91 1.91 0 00-1.47.46 1.9 1.9 0 011.47-.81 3.9 3.9 0 01.82-.07c.27 0 .52.05.81.11zM9.81 22.29a3.33 3.33 0 01-.4.9 5.52 5.52 0 01-.62.74c-.42.49-.86 1-1.3 1.43.33-.55.67-1.1 1-1.64a5.34 5.34 0 01.54-.8 3.36 3.36 0 01.76-.63zM10.56 15.21a1.11 1.11 0 01-.54.12 1.25 1.25 0 01-.49-.14 9.36 9.36 0 01-1-.36h1a1.4 1.4 0 01.5 0 1.13 1.13 0 01.46.32zM23 24.23a1.23 1.23 0 01-.42-.43 1.82 1.82 0 01-.16-.53c-.09-.35-.17-.72-.24-1.08.21.31.4.63.58 1a1.89 1.89 0 01.25.49 1.31 1.31 0 010 .59zM23 24.58a1.43 1.43 0 010 .62 1.84 1.84 0 01-.27.52c-.19.33-.39.67-.6 1 .08-.39.18-.77.28-1.14a1.69 1.69 0 01.18-.55 1.31 1.31 0 01.43-.45zM34.28 25.06a3.43 3.43 0 011-.51 5 5 0 011.08-.19 16.26 16.26 0 012.2-.15v.05c-.72.14-1.43.31-2.13.49a8 8 0 01-1 .28 5.1 5.1 0 01-1.11.08zM27.37 9.87a2.57 2.57 0 01-.88 0 3.75 3.75 0 01-.79-.29c-.53-.21-1.05-.43-1.57-.66v-.08c.56.1 1.12.21 1.67.33a3.35 3.35 0 01.83.2 2.67 2.67 0 01.74.46zM33.42 15.63a.94.94 0 01.43-.28 1.23 1.23 0 01.47 0c.31 0 .63 0 1 .06-.3.11-.6.2-.9.29a1.47 1.47 0 01-.46.11 1.15 1.15 0 01-.49-.17zM33.33 15.86a.9.9 0 01.17.43 1 1 0 01-.11.4 8 8 0 01-.27.78 7.56 7.56 0 01-.07-.82.94.94 0 010-.41.87.87 0 01.28-.38zM18.19 10.87a3.66 3.66 0 01-.8.68 5.4 5.4 0 01-1 .4 17.13 17.13 0 01-2 .59c.62-.29 1.23-.59 1.83-.91a8.54 8.54 0 01.89-.48 5.36 5.36 0 011-.28zM18.34 10.61a.64.64 0 010-.57c.05-.19.1-.37.16-.55a5.47 5.47 0 010 .57.61.61 0 01-.16.55zM20.94 13.07a1.22 1.22 0 01.53.16 1.72 1.72 0 01.34.37 10 10 0 01.64.79c-.3-.16-.59-.34-.87-.52a1.38 1.38 0 01-.41-.29 1.1 1.1 0 01-.23-.5zM25.24 12.29a.64.64 0 01-.55-.19 5.09 5.09 0 01-.47-.34l.55.19a.67.67 0 01.47.34zM25.38 12.38a1.13 1.13 0 01-.1.54 1.44 1.44 0 01-.33.37c-.23.25-.47.48-.72.71.13-.31.28-.62.43-.91a1.52 1.52 0 01.25-.43 1.2 1.2 0 01.47-.28zM26.72 19.94a3.4 3.4 0 011.06.44 5 5 0 01.86.73 13.25 13.25 0 011.5 1.68c-.56-.5-1.13-1-1.73-1.4a9.21 9.21 0 01-.9-.64 6 6 0 01-.79-.8zM30.07 16.54a.87.87 0 01-.41.22 1 1 0 01-.42 0c-.27 0-.55-.1-.83-.17v-.09a6.16 6.16 0 01.83-.18 1 1 0 01.41-.06.88.88 0 01.42.23zM32.42 21.15a4.07 4.07 0 01.83-.67 6.23 6.23 0 011-.42c.64-.27 1.28-.52 1.93-.77-.58.38-1.17.74-1.77 1.09a6.8 6.8 0 01-.91.51 3.8 3.8 0 01-1 .26zM28 24.72a1 1 0 01-.48-.18 1.17 1.17 0 01-.28-.38 8.24 8.24 0 01-.5-.8 8.77 8.77 0 01.76.56 1.17 1.17 0 01.35.31.92.92 0 01.15.49zM18.3 21.16a1 1 0 01-.27.45 1.13 1.13 0 01-.42.22c-.29.14-.59.27-.89.38a8.82 8.82 0 01.7-.67 1.19 1.19 0 01.37-.3 1.06 1.06 0 01.52-.08zM17.92 21a1.27 1.27 0 01-.55-.25 1.65 1.65 0 01-.36-.43c-.22-.3-.44-.61-.65-.93.31.22.61.44.9.68a1.69 1.69 0 01.43.37A1.3 1.3 0 0118 21zM12.69 20.81a4.18 4.18 0 01-1.07-.1 6.09 6.09 0 01-1-.36c-.65-.25-1.29-.51-1.93-.79.69.14 1.37.29 2 .46a6.8 6.8 0 011 .26 4.12 4.12 0 01.93.53zM12.89 20.65a.48.48 0 01.33-.38l.45-.25c-.11.14-.23.26-.34.38a.51.51 0 01-.45.25zM13.35 24.27a4.22 4.22 0 011.11-.08 6.62 6.62 0 011.08.2c.71.14 1.42.3 2.14.47v.05q-1.09 0-2.19-.12a8 8 0 01-1.09-.1 4.7 4.7 0 01-1.05-.37zM17.86 27.63a2.65 2.65 0 01-.84.3 3.61 3.61 0 01-.87 0h-1.74v-.05q.86-.18 1.71-.33a4.24 4.24 0 01.86-.12 2.76 2.76 0 01.88.15zM18 27.52a.73.73 0 010-.58.93.93 0 01.41-.4 1.55 1.55 0 011-.27v.05a1.7 1.7 0 00-.77.52 3.22 3.22 0 01-.24.36 4.75 4.75 0 01-.38.33zM14.61 31.2a2.36 2.36 0 01-.79 0 3.1 3.1 0 01-.73-.23c-.49-.16-1-.34-1.44-.53v-.05c.51.05 1 .11 1.52.19a3.18 3.18 0 01.76.13 2.57 2.57 0 01.69.4zM14.89 31.24a2 2 0 01.67-.41 3.14 3.14 0 01.74-.15c.5-.09 1-.16 1.51-.22-.47.2-.94.39-1.41.56a3.24 3.24 0 01-.72.25 2.35 2.35 0 01-.79 0zM22.38 30.1a4.71 4.71 0 01.84-.94 7.06 7.06 0 011-.68 20.77 20.77 0 012.19-1.15c-.67.47-1.34.95-2 1.44a9.57 9.57 0 01-1 .75 6.86 6.86 0 01-1.11.58zM27.15 29.25a2.41 2.41 0 01-1.08.25q-.55.06-1.11.09c.36-.09.72-.18 1.08-.25a2.31 2.31 0 011.11-.09zM27.27 29.25a1.71 1.71 0 01.68.27 2.52 2.52 0 01.5.48c.32.33.64.67.95 1q-.6-.36-1.17-.75a2.88 2.88 0 01-.56-.41 2 2 0 01-.39-.61zM22.43 30.59a1.56 1.56 0 01-.2.39 1.86 1.86 0 01-.31.21 2.29 2.29 0 00-.53.58h-.05a1.73 1.73 0 01.29-.83.79.79 0 01.29-.34.63.63 0 01.49 0zM34.22 25.44h-1.26a1.7 1.7 0 00-1 .71 1.7 1.7 0 01.95-1.07 1.27 1.27 0 01.76-.15 1 1 0 01.65.41z"/></g>
                <g stroke="#7c8c03" stroke-miterlimit="10"><path d="M15.79 13.38s4.2-1.15 4.2-.81 1.09 1.69 1.77.27 4.67-1.19 5.89-1.19-.41 8.44-.41 10.44a2.88 2.88 0 001.66 2.67s-.07 5.22-.37 5.49-1.35.21-3.42-.78-2.31-7.38-2.24-8.26-1.66-.44-2.4-.31-.07 5.63-.07 6-2.74 2.81-2.74 2.81a5 5 0 01-2-.88c-.48-.51.23-15.38.13-15.45z" fill="#fff"/><path d="M15.51 24.23a49.55 49.55 0 01.1-7.41 23.17 23.17 0 01.27-3.36v-.17a6.41 6.41 0 001.76-1.15c1.19-.91 3.73-2.74 3.73-.13.14.37.41.81.54 1.15a3.42 3.42 0 01.44-.88c1.19-.82 2-1.83 3.29-1.83a16.15 16.15 0 002.3.1 1.68 1.68 0 011 .13c0 4.44-1.32 8.1-.24 12.47.31 1.46 1.12.78 1.7 1.59-.37 1.76-1.36 4.24-1.39 5.93-2.74.51-3.73-.71-4.78-2.17-.79-1.18-1.23-5.08-1.23-7.82v-1.39a6.43 6.43 0 01-.58 1.18c-.47.65-1.56.55-2.23.28a3.17 3.17 0 01-.14.57c-.54 1.86.64 3.86.41 5.69-.11.71-2.07 2.47-2.38 3.25l-2.13-1a1 1 0 00-.2-.07c.44-1.6-.1-3.33-.24-4.96zM18 29.82c.38-2-.44-9.31.68-12 1.12.78 1.05 1.49 1.42 2.34 1.73 1.32 2.44-.68 3.19-1.86.06.06.2.1.2.3a16.79 16.79 0 00.17 5.52 15.07 15.07 0 00.68 3.66A7.38 7.38 0 0027 30.3a4 4 0 001.66.07 30.5 30.5 0 00-.23-3.15c-.51 0-.68 0-.88-.21v0c-1-.68-1-2.48-1-3.66 0-3.83-.34-7.32.55-10.81h-2a18.78 18.78 0 00-2.57.1c-.68 1.32-1 3.69-1.7 4.88a.34.34 0 01-.3-.1c-.51-1.33-.37-2.78-.85-4.1a8.74 8.74 0 01-3.35.37c.27 4-.81 8-.1 12 0 .71.4 2.5 0 3.28a.11.11 0 010 .1 8.32 8.32 0 001.77.75z" fill="#d91a60"/></g>
            </g>
        </symbol>
        <symbol viewBox="0 0 50 50" id="logo-button-pressed" xmlns="http://www.w3.org/2000/svg"><path opacity=".28" d="M48.33 14.39v32.27H10.07V10.52h35.31"/><path fill="#a59481" d="M43.97 37.1V7.33H4.26v34.6h38.06"/><path fill="#c7b299" d="M6.07 2.5h37.9v34.6H6.07z"/><path fill="#ddc6ac" d="M6.07 2.5L4.26 7.33v34.6l1.81-4.83V2.5z"/><g>
                <g data-name="Tuna 6"><path d="M14.41 11.06c.54 1.26 1.74 2 2.69 1.55s1.28-1.75.74-3a4.47 4.47 0 00-1.55-2c-.18-.08-.54.22-1.15.49s-1 .24-1.14.49a3.61 3.61 0 00.41 2.47z" fill="#ff7bac"/><path d="M14.54 11.43a2.25 2.25 0 002.7 1.57 2.25 2.25 0 00.76-3c-.08-.19-.69-1.64-1.55-2-.18-.09-.54.21-1.14.49s-1 .23-1.14.48a3.6 3.6 0 00.37 2.46z" fill="#d91a60"/></g>
                <g data-name="Tuna 5"><path d="M18.59 7.67C18.93 9 20 9.88 21 9.63s1.53-1.54 1.2-2.87A4.43 4.43 0 0021 4.5c-.16-.11-.57.13-1.21.3s-1.06.07-1.2.31a3.6 3.6 0 000 2.56z" fill="#ff7bac"/><path d="M18.67 8.06c.33 1.33 1.41 2.21 2.41 2a2.25 2.25 0 001.2-2.87 4.36 4.36 0 00-1.2-2.26c-.17-.11-.57.13-1.21.3s-1.06.07-1.21.31a3.59 3.59 0 00.01 2.52z" fill="#d91a60"/></g>
                <g data-name="Tuna 7"><path d="M11.22 15.89c.79 1.12 2.11 1.55 2.95 1s.89-2 .1-3.1c-.11-.17-1-1.46-1.94-1.68-.19-.05-.48.32-1 .71s-1 .45-1 .72a3.56 3.56 0 00.89 2.35z" fill="#ff7bac"/><path d="M11.43 16.23c.79 1.12 2.11 1.55 3 1s.89-2 .1-3.11c-.11-.16-1-1.46-1.94-1.67-.19-.05-.48.32-1 .71s-1 .44-1 .71a3.6 3.6 0 00.84 2.36z" fill="#d91a60"/></g><path data-name="Nopal 2" d="M37.34 21.32c0 5.06-1.24 5.29-4.35 9-2.67 3.2-3.1 3.72-7.77 3.72-4.94 0-4.55-.5-7.77-3.72s-4.52-4.19-4.35-9c.2-5.73 4.83-12.74 12.12-12.74 6.69 0 12.12 5.71 12.12 12.74z" fill="#324001"/><path data-name="Nopal 1" d="M36.1 21.32c0 5.06-1.25 5.29-4.35 9-2.68 3.2-3.1 3.72-7.77 3.72-4.95 0-4.55-.5-7.77-3.72s-4.52-4.19-4.35-9c.2-5.73 4.83-12.74 12.14-12.74 6.67 0 12.1 5.71 12.1 12.74z" fill="#7c8c03"/><g data-name="Tuna 1"><path d="M39 15.89a2.25 2.25 0 01-3 1c-.84-.59-.88-2-.09-3.1.11-.17 1-1.46 1.93-1.68.19-.05.49.32 1 .71s1 .45 1 .72a3.67 3.67 0 01-.84 2.35z" fill="#ff7bac"/><path d="M39.67 13.83c-.05-.27-.58-.39-1-.71s-.83-.76-1-.71c-.92.21-1.82 1.51-1.93 1.67a2.78 2.78 0 00-.52 2.1 2.62 2.62 0 01.78 1.09 2.32 2.32 0 002.8-1 3.7 3.7 0 00.87-2.44z" fill="#d91a60"/></g>
                <g data-name="Tuna 2"><path d="M36.35 11.06c-.54 1.26-1.75 2-2.69 1.55s-1.28-1.75-.74-3a4.47 4.47 0 011.55-2c.18-.08.54.22 1.14.49s1 .24 1.15.49a3.61 3.61 0 01-.41 2.47z" fill="#ff7bac"/><path d="M36.62 8.9c-.1-.25-.65-.26-1.14-.48s-1-.58-1.15-.49a4.27 4.27 0 00-1.54 2 2.79 2.79 0 00-.09 2.13 2.38 2.38 0 011.07 1 2.35 2.35 0 002.44-1.63 3.59 3.59 0 00.41-2.53z" fill="#d91a60"/></g>
                <g data-name="Tuna 3"><path d="M32.07 7.67c-.34 1.33-1.42 2.21-2.42 2s-1.53-1.54-1.2-2.87a4.43 4.43 0 011.21-2.3c.16-.11.57.13 1.21.3s1.06.07 1.2.31a3.6 3.6 0 010 2.56z" fill="#ff7bac"/><path d="M32 5.5c-.15-.24-.68-.16-1.21-.31s-1-.41-1.2-.3a4.39 4.39 0 00-1.21 2.26 2.62 2.62 0 00.48 2.42 2.71 2.71 0 011.36.45 2.53 2.53 0 001.77-2A3.59 3.59 0 0032 5.5z" fill="#d91a60"/></g>
                <g data-name="Tuna 4"><path d="M27.11 6c0 1.38-.83 2.49-1.86 2.49S23.39 7.35 23.39 6A4.32 4.32 0 0124 3.49c.13-.15.58 0 1.24 0s1.05-.2 1.24 0A3.57 3.57 0 0127.11 6z" fill="#ff7bac"/><path d="M24.62 8.69a3.68 3.68 0 01.59-.06 2.86 2.86 0 01.67.08 2.53 2.53 0 001.26-2.34 3.61 3.61 0 00-.63-2.49c-.19-.19-.69 0-1.24 0s-1.11-.14-1.24 0a4.43 4.43 0 00-.62 2.49 2.56 2.56 0 001.21 2.32z" fill="#d91a60"/></g>
                <g data-name="Espinas 2" fill="#4d4d4d" stroke="#4d4d4d" stroke-miterlimit="10" stroke-width=".5"><ellipse cx="16.47" cy="16.35" rx=".38" ry=".3" transform="rotate(-66.4 16.476 16.347)"/><ellipse cx="17.24" cy="30.63" rx=".25" ry=".33" transform="rotate(-20.83 17.23 30.642)"/><ellipse cx="19.96" cy="27.37" rx=".19" ry=".24" transform="rotate(-13.56 19.949 27.365)"/><ellipse cx="28.37" cy="28.84" rx=".26" ry=".32" transform="rotate(-6.22 28.336 28.86)"/><ellipse cx="24.67" cy="24.4" rx=".2" ry=".28"/><ellipse cx="24.11" cy="29.76" rx=".23" ry=".27" transform="rotate(-1.2 24.04 29.857)"/><ellipse cx="29.27" cy="24.62" rx=".21" ry=".17" transform="rotate(-85.6 29.264 24.621)"/><ellipse cx="28.01" cy="20.37" rx=".23" ry=".16" transform="rotate(-84.34 28.01 20.366)"/><ellipse cx="30.94" cy="17.48" rx=".21" ry=".24" transform="rotate(-1.11 30.805 17.333)"/><ellipse cx="33.11" cy="21.62" rx=".19" ry=".24"/><ellipse cx="34.83" cy="25.08" rx=".22" ry=".41" transform="rotate(-4.65 34.753 25.095)"/><ellipse cx="33.99" cy="16.63" rx=".17" ry=".4" transform="rotate(-20.5 34 16.628)"/><ellipse cx="26.7" cy="13.46" rx=".16" ry=".19" transform="rotate(-65.63 26.698 13.45)"/><ellipse cx="28.72" cy="11.28" rx=".19" ry=".31" transform="rotate(-67.84 28.725 11.283)"/><ellipse cx="15.98" cy="24.51" rx=".31" ry=".22" transform="rotate(-80.44 15.983 24.51)"/><ellipse cx="15.35" cy="21.12" rx=".31" ry=".22" transform="rotate(-80.44 15.343 21.118)"/><ellipse cx="20.31" cy="21.47" rx=".27" ry=".2" transform="rotate(-74.8 20.307 21.474)"/><ellipse cx="22.91" cy="18.02" rx=".35" ry=".23" transform="rotate(-84.72 22.903 18.022)"/><ellipse cx="12.74" cy="22.49" rx=".26" ry=".54" transform="rotate(-1.79 12.773 22.61)"/><ellipse cx="13.55" cy="16.27" rx=".53" ry=".24" transform="rotate(-79.22 13.545 16.279)"/><ellipse cx="20.31" cy="12.24" rx=".21" ry=".26" transform="rotate(-6.75 20.292 12.257)"/><ellipse cx="22.77" cy="14.25" rx=".18" ry=".21" transform="rotate(-1.4 22.747 14.194)"/></g>
                <g data-name="Espinas 1" fill="#fcee21"><path d="M16.42 16.32a.9.9 0 01-.47-.16c-.12-.07-.17-.21-.25-.33a6.33 6.33 0 01-.44-.7c.25.16.48.32.71.49s.26.15.33.27a.84.84 0 01.12.44zM22.8 17.91a1.28 1.28 0 01-.73.33 2.6 2.6 0 01-.74 0 1.72 1.72 0 00-1.31.38 1.72 1.72 0 011.33-.75 3.14 3.14 0 01.74-.07c.24 0 .46.06.73.13zM12.72 22.51a3.22 3.22 0 01-.34.83 4.42 4.42 0 01-.57.66c-.38.44-.78.86-1.18 1.28.29-.5.59-1 .9-1.49A4.56 4.56 0 0112 23a2.58 2.58 0 01.7-.56zM13.39 16.12a.93.93 0 01-.49.13 1.06 1.06 0 01-.44-.13c-.29-.1-.57-.21-.86-.34h.93a1.19 1.19 0 01.46 0 1 1 0 01.4.31zM24.61 24.26a1.1 1.1 0 01-.39-.38 1.49 1.49 0 01-.14-.48c-.08-.32-.15-.65-.2-1 .19.28.37.56.53.85a1.37 1.37 0 01.23.45 1.11 1.11 0 010 .54zM24.59 24.57a1.23 1.23 0 010 .57 1.58 1.58 0 01-.25.46 10.4 10.4 0 01-.56.9h-.05c.07-.35.15-.69.24-1a1.46 1.46 0 01.16-.5 1.07 1.07 0 01.4-.39zM34.8 25a3.41 3.41 0 01.9-.48 4.68 4.68 0 011-.17 16.61 16.61 0 012-.12v.05c-.65.14-1.29.29-1.92.46a7.75 7.75 0 01-.94.27 4.73 4.73 0 01-1 0zM28.56 11.31a2.38 2.38 0 01-.8 0 3.06 3.06 0 01-.71-.27c-.48-.19-.95-.4-1.41-.61v-.05c.51.08 1 .17 1.51.28a3.26 3.26 0 01.75.17 2.31 2.31 0 01.66.44zM34 16.5a.84.84 0 01.39-.28 1 1 0 01.42 0l.86.06c-.27.11-.54.2-.81.28a1 1 0 01-.41.11.86.86 0 01-.44-.18zM33.94 16.71a.69.69 0 01.18.39.88.88 0 01-.1.35c-.08.24-.17.47-.27.71 0-.25-.06-.5-.08-.75a.77.77 0 010-.37.73.73 0 01.27-.33zM20.28 12.2a2.85 2.85 0 01-.71.64 4.4 4.4 0 01-.87.35 13.61 13.61 0 01-1.79.52v-.05q.84-.4 1.65-.84a8.83 8.83 0 01.8-.43 3.36 3.36 0 01.92-.23zM20.41 12a.54.54 0 010-.52l.15-.49v.52a.52.52 0 01-.15.49zM22.77 14.19a1 1 0 01.48.12 1.26 1.26 0 01.31.34 7.72 7.72 0 01.56.72c-.27-.14-.54-.3-.79-.46a1.42 1.42 0 01-.38-.26 1 1 0 01-.19-.47zM26.64 13.49a.56.56 0 01-.5-.17 4.56 4.56 0 01-.42-.31l.5.17a.53.53 0 01.42.31zM26.77 13.57a.94.94 0 01-.07.49 1.38 1.38 0 01-.3.34c-.21.22-.44.42-.67.63.12-.29.24-.56.38-.83a1.2 1.2 0 01.22-.4 1 1 0 01.44-.23zM28 20.38a3.11 3.11 0 011 .38 4.18 4.18 0 01.78.67A12.13 12.13 0 0131.07 23c-.51-.45-1-.86-1.57-1.25-.27-.2-.56-.35-.81-.57a5 5 0 01-.7-.75zM31 17.32a.77.77 0 01-.37.22.83.83 0 01-.38 0c-.25-.05-.5-.1-.74-.17a4.7 4.7 0 01.74-.18.8.8 0 01.37-.06.78.78 0 01.38.23zM33.12 21.48a3.39 3.39 0 01.74-.63 5.57 5.57 0 01.86-.37c.57-.24 1.16-.47 1.75-.68-.52.35-1.06.68-1.6 1a5 5 0 01-.81.46 3.23 3.23 0 01-.94.22zM29.14 24.7a.86.86 0 01-.45-.15.94.94 0 01-.25-.34 7.85 7.85 0 01-.44-.73 7.32 7.32 0 01.7.5.94.94 0 01.32.27.81.81 0 01.12.46zM20.38 21.49a1 1 0 01-.23.43 1.18 1.18 0 01-.39.19q-.39.18-.81.33v-.05c.2-.21.41-.42.62-.61a1 1 0 01.34-.28.92.92 0 01.48-.05zM20 21.35a1.12 1.12 0 01-.51-.2 1.57 1.57 0 01-.32-.4c-.2-.27-.39-.55-.57-.85.29.19.57.39.83.6a1.55 1.55 0 01.39.33 1.28 1.28 0 01.19.52zM15.31 21.17a3.38 3.38 0 01-1-.07 5.92 5.92 0 01-.89-.32c-.58-.23-1.16-.48-1.74-.73V20c.62.12 1.23.25 1.84.39a4.79 4.79 0 01.92.24 3.23 3.23 0 01.83.49zM15.49 21a.45.45 0 01.3-.35l.41-.21-.3.35a.44.44 0 01-.41.21zM15.91 24.29a3.52 3.52 0 011-.09 5.35 5.35 0 011 .18c.64.14 1.29.28 1.93.45v.05c-.66 0-1.32-.05-2-.1a5.41 5.41 0 01-1-.09 3.69 3.69 0 01-.94-.35zM20 27.33a2.64 2.64 0 01-.76.29 4.15 4.15 0 01-.79 0h-1.57v-.05c.51-.12 1-.22 1.54-.31a3.43 3.43 0 01.77-.12 2.28 2.28 0 01.8.16zM20.09 27.23a.64.64 0 010-.54.83.83 0 01.38-.36 1.39 1.39 0 01.94-.24v.05a1.5 1.5 0 00-.68.49 2.53 2.53 0 01-.21.32 2.66 2.66 0 01-.37.29zM17.05 30.55a2 2 0 01-.72.05 2.67 2.67 0 01-.66-.21c-.43-.15-.87-.31-1.3-.49q.69.06 1.38.15a2.62 2.62 0 01.68.12 2 2 0 01.61.38zM17.3 30.58a1.91 1.91 0 01.6-.4 2.55 2.55 0 01.67-.12c.45-.08.91-.14 1.36-.19v.05c-.42.19-.85.36-1.27.52a2.66 2.66 0 01-.65.23 2 2 0 01-.72 0zM24.06 29.55a4.1 4.1 0 01.74-.86 5.82 5.82 0 01.94-.61 18.58 18.58 0 012-1c-.61.43-1.2.87-1.78 1.32a9.28 9.28 0 01-.87.68 5.28 5.28 0 01-1 .5zM28.37 28.79a1.89 1.89 0 01-1 .23c-.33 0-.66.06-1 .07.32-.09.65-.17 1-.24a1.88 1.88 0 011-.07zM28.48 28.78a1.7 1.7 0 01.62.23 2.34 2.34 0 01.45.44q.43.45.84.93c-.36-.21-.72-.43-1.07-.67a2 2 0 01-.51-.36 1.45 1.45 0 01-.33-.57zM24.11 30a1.52 1.52 0 01-.17.36c-.07.09-.18.12-.28.19a2.17 2.17 0 00-.49.51h-.05a1.65 1.65 0 01.24-.76.74.74 0 01.27-.31.6.6 0 01.46 0zM34.74 25.35c-.24 0-.42 0-.6.06s-.34 0-.52 0a1.57 1.57 0 00-.95.62 1.54 1.54 0 01.86-1 1.11 1.11 0 01.69-.14.9.9 0 01.59.4z"/></g>
                <g stroke="#7c8c03" stroke-miterlimit="10"><path d="M18.12 14.47s3.79-1 3.79-.73 1 1.52 1.59.24 4.21-1.07 5.32-1.07-.37 7.61-.37 9.41A2.61 2.61 0 0030 24.74s-.06 4.71-.34 5-1.22.18-3.09-.7-2.08-6.67-2-7.46-1.5-.4-2.17-.28-.07 5.08-.07 5.45-2.47 2.53-2.47 2.53a4.43 4.43 0 01-1.8-.79c-.49-.49.15-13.96.06-14.02z" fill="#fff"/><path d="M17.86 24.26a45.28 45.28 0 01.14-6.69 20.41 20.41 0 01.25-3v-.15a6.29 6.29 0 001.59-1c1.07-.83 3.36-2.48 3.36-.12.12.33.37.73.49 1a3 3 0 01.4-.8c1.07-.73 1.83-1.65 3-1.65a14.75 14.75 0 002.08.09A1.51 1.51 0 0130 12c0 4-1.2 7.31-.22 11.25.28 1.32 1 .71 1.53 1.44-.33 1.59-1.22 3.82-1.25 5.35-2.48.46-3.36-.64-4.31-2-.75-1.04-1.13-4.51-1.13-6.99V19.8a7 7 0 01-.52 1.07c-.43.58-1.41.49-2 .24a2.49 2.49 0 01-.12.52c-.49 1.68.58 3.49.36 5.14-.09.64-1.86 2.23-2.14 2.93l-1.92-.92a1.18 1.18 0 00-.18-.06c.37-1.43-.1-2.99-.24-4.46zm2.23 5c.34-1.77-.39-8.4.61-10.82 1 .71.95 1.35 1.29 2.11 1.56 1.2 2.2-.61 2.87-1.68.06.06.18.09.18.28a15.16 15.16 0 00.16 5 13.17 13.17 0 00.61 3.3 6.6 6.6 0 002.41 2.26 3.4 3.4 0 001.5.06 27.16 27.16 0 00-.21-2.77c-.46 0-.61 0-.8-.18v0c-.91-.61-.88-2.23-.88-3.3 0-3.46-.31-6.61.49-9.75h-1.84a17.48 17.48 0 00-2.32.09c-.61 1.19-.92 3.33-1.53 4.4a.3.3 0 01-.27-.09c-.46-1.2-.34-2.51-.77-3.7a8 8 0 01-3 .34c.25 3.6-.73 7.24-.09 10.85 0 .64.37 2.26 0 3a.11.11 0 010 .09 8.43 8.43 0 001.59.55z" fill="#d91a60"/></g>
            </g>
        </symbol>
        <symbol viewBox="0 0 50 50" id="menu-button" xmlns="http://www.w3.org/2000/svg"><path opacity=".28" d="M7.08 41.5V12.33h43.16V45H10.4"/><path fill="#d62d7a" d="M12.4 36.19V8.31H7.09V41.5M7.09 8.31h5.31V3"/><path fill="#871242" d="M12.4 36.19v5.31H7M40.19 41.5H12.4v-5.31h33.19"/><path fill="#d91a60" d="M12.4 3h33.19v33.19H12.4z"/><g fill="#c7b299"><path d="M21 17.24h16.53c.54 0 1 .62 1 1.38v.14c0 .76-.44 1.38-1 1.38H21c-.53 0-1-.62-1-1.38v-.14c0-.76.48-1.38 1-1.38zM21 24.48h16.53c.54 0 1 .62 1 1.38V26c0 .76-.44 1.38-1 1.38H21c-.53 0-1-.62-1-1.38v-.14c0-.76.48-1.38 1-1.38zM21 10h16.53c.54 0 1 .62 1 1.38v.14c0 .76-.44 1.38-1 1.38H21c-.53 0-1-.62-1-1.38v-.14c0-.76.48-1.38 1-1.38z"/></g>
        </symbol>
        <symbol viewBox="0 0 50 50" id="menu-button-pressed" xmlns="http://www.w3.org/2000/svg"><path opacity=".28" d="M7.02 41.5V12.33h37.29V45H9.89"/><path fill="#d62d7a" d="M12.34 36.19V8.31H7.03V41.5M7.03 8.31h1.31V7"/><path fill="#871242" d="M12.34 36.19v5.31H6.95M41.5 40.16l-1.36 1.34h-27.8v-5.31h29.19"/><path fill="#d91a60" d="M8.34 7h33.19v33.19H8.34z"/><g fill="#c7b299"><path d="M17 22.24h16.48c.54 0 1 .62 1 1.38v.14c0 .76-.43 1.38-1 1.38H17c-.54 0-1-.62-1-1.38v-.14c0-.76.42-1.38 1-1.38zM17 29.48h16.48c.54 0 1 .62 1 1.38V31c0 .76-.43 1.38-1 1.38H17c-.54 0-1-.62-1-1.38v-.14c0-.76.42-1.38 1-1.38zM17 15h16.48c.54 0 1 .62 1 1.38v.14c0 .76-.43 1.38-1 1.38H17c-.54 0-1-.62-1-1.38v-.14c0-.76.42-1.38 1-1.38z"/></g>
        </symbol>
        <symbol viewBox="0 0 210 90" id="pink-button" xmlns="http://www.w3.org/2000/svg"><rect x="24" y="22.5" width="185" height="62" rx="23.25" opacity=".41"/><rect x="11" y="12.5" width="185" height="62" rx="23.25" fill="none" stroke="#871242" stroke-miterlimit="10" stroke-width="8"/><g data-name="Play Button"><path d="M24 72.1a23.26 23.26 0 01-13-20.85v-15.5a23.25 23.25 0 0110-19.08" fill="none" stroke="#d62d7a" stroke-miterlimit="10" stroke-width="8"/><rect x="15" y="7.5" width="185" height="62" rx="23.25" fill="#fff" stroke="#d91a60" stroke-miterlimit="10" stroke-width="8"/><path d="M35.69 40.42V39.45s0-.33.08-.37l.34-1.26a1.85 1.85 0 00.29-.17H36.7a3.31 3.31 0 01.71 0c.12 0 .5.08.54 0s.55.17.63.17a6.93 6.93 0 01.63.5 4.41 4.41 0 01.59.76s.17.62.21.71a3 3 0 01-.84 0l-.5-.63-.21-.16H37.87a1.42 1.42 0 00-.38.25 2.38 2.38 0 01-.25.16l-.12.17V39.88a8.26 8.26 0 00.88.79c0 .09.08.13.17.13a2.6 2.6 0 00.46.25 5.53 5.53 0 01.63.17 1.81 1.81 0 00.42 0s.55 0 .75-.08l.76-.17a5.24 5.24 0 001-.29s.37-.17.42-.21 1-.42 1.17-.55h.13c.08 0 .75-.25.79-.25l1.3-.3c.05 0 1.1-.17 1.47-.25l1.47-.25a1.63 1.63 0 00.63.08A8.68 8.68 0 0151 38.7a8.2 8.2 0 011 0l1-.17c.17 0 .88-.21 1-.21a.7.7 0 00.29-.17s-.08-.09-.08-.13-.76-.67-.84-.8-.63-.71-.72-.75l-.92-1.14a3.59 3.59 0 01-.33-.5l-.59-.67s-.25-.34-.34-.29a6.33 6.33 0 00-.71-.68c-.3-.21-1.76-1.3-2.1-1.46l-.59-.34-1-.29c-.13 0-.8-.09-.8-.09s-.55.09-.67.09a6.5 6.5 0 00-.8.16s-.21.09-.21.17-.13.13-.17.13-.17.46-.21.46-.29.59-.25.67a4 4 0 000 .71s0 .47.08.68a4.41 4.41 0 00.17.54.93.93 0 00.17.46l.46.3a1.31 1.31 0 00.46.08h.13a.4.4 0 00.12 0s.25-.13.25-.21l.38-.34a.5.5 0 01.13 0h.67c0 .05.21.09.25.09l.3.25a2 2 0 010 .21v.25c0 .04-.13.25-.21.29a2.69 2.69 0 01-.5.51 2.37 2.37 0 01-.34 0 1.91 1.91 0 01-.34.08c-.08 0-.58-.12-.75-.16a2.94 2.94 0 01-.76-.26 10.51 10.51 0 01-1.42-.92 2.61 2.61 0 01-.42-.38s-.59-.54-.68-.63l.04-.24v-.12c0-.3-.09-1.22-.09-1.3a3.5 3.5 0 010-.63c0-.13.09-.63.13-.67a3 3 0 01.38-.68 1.6 1.6 0 00.33-.37 7.89 7.89 0 01.68-.47c0-.12.5-.42.58-.46s.72-.3.84-.3a2.26 2.26 0 01.46-.13c.13 0 .51 0 .55-.08s.5 0 .67 0a7.45 7.45 0 011.22.21c.21 0 .8.08.92.08s1.22.42 1.64.63a4.12 4.12 0 01.75.25 9.69 9.69 0 001.39.59c.08.09.59.42.63.51l.59.5s.25.21.33.25.3.29.3.29l.21.17s.16.21.21.21.58.59.63.67.46.42.54.47.63.84.71 1a4.29 4.29 0 00.72.55 5.46 5.46 0 00.29 1 1.29 1.29 0 01.17.47 2.46 2.46 0 00.46.46 8.35 8.35 0 00.93.71l.5.63 1.38.34a1.36 1.36 0 01.34.08 3.74 3.74 0 00.71.13s.38.12.42.08a.81.81 0 01.3.09 1.48 1.48 0 01.08.25 1.11 1.11 0 010 .29c0 .13-.16.29-.25.38a6.57 6.57 0 00-.71.12c-.17.05-.63.13-.63.13a1.24 1.24 0 01-.46-.13c-.09 0-.42-.21-.47-.21a2 2 0 01-.71 0H58.53c0 .05-.21.21-.25.26s-.38-.05-.42-.13a2.8 2.8 0 01-.63-.13 3 3 0 00-.59 0 3.83 3.83 0 01-.51.09 4 4 0 01-.5.08l-.21.17a2.57 2.57 0 01-.29-.09 1 1 0 00-.34.09h-.38l-.58.25a5.77 5.77 0 01-.63.21 1.17 1.17 0 01-.38.21h-.13l-.5.59a.91.91 0 00-.38.21 4.16 4.16 0 00-.59.25s-.16.17-.21.17l-.67.38a.63.63 0 01-.21.17.5.5 0 00-.12.21 7.34 7.34 0 00-1.26.5 1.58 1.58 0 00-.38.21s-.46.21-.51.21a3.56 3.56 0 00-.54.38c-.29.08-1.68.12-2 .16a4.79 4.79 0 01-.84 0h-1c-.08 0-.88.17-1 .17a10 10 0 00-1.68-.3h-.12c-.17 0-.76-.12-.88-.12a1.17 1.17 0 01-.38-.21 4.65 4.65 0 01-1-.3s-.58-.33-.79-.42l-.13-.08c-.21-.21-.71-.76-.75-.76s-.21-.46-.21-.54-.8-1.09-1-1.3zM51 46s.25-.88.34-1.22l.21-.46.67-1a9.21 9.21 0 00.8-.55 4.57 4.57 0 01.63-.42c.12 0 .67-.38.84-.42a4.56 4.56 0 00.5-.21 4.66 4.66 0 01.67-.29l1.39-.38a.14.14 0 00.08 0 4.86 4.86 0 00.93.29s.37.09.42.09a.9.9 0 01.46.21s0 .12.08.21 0 .16 0 .16-.17.21-.25.21a7.36 7.36 0 00-.84.17c-.09 0-.55.21-.63.21s-.93.55-1.09.63c0 0-.55.46-.59.59a1.27 1.27 0 00-.38.17 2.38 2.38 0 01-.25.16c0 .09-.42.42-.5.55a8.4 8.4 0 00-.63.67c0 .13-.42.55-.38.63a1.65 1.65 0 00-.13.29v.17a.22.22 0 010 .13s.17.12.21.12a5 5 0 01.55.21 1.57 1.57 0 01.46.17l.34.25c.08 0 .12.21.16.26s.09.29.09.37a1.29 1.29 0 010 .34 2.84 2.84 0 00-.21.29 3.22 3.22 0 01-.54.38l-.34.21h-.23a4.68 4.68 0 01-.84 0 1.45 1.45 0 01-.51-.08 1.8 1.8 0 01-.46-.29 12.83 12.83 0 01-.8-1.43 3.13 3.13 0 01-.16-.76A4.46 4.46 0 0151 46zM165.14 46.17a2.63 2.63 0 00-.17-.76s-.37-.42-.5-.5c-.42-.25-1.26-.92-1.51-1a6.52 6.52 0 00-1.26-.91 1.33 1.33 0 01-.46-.17 5.9 5.9 0 00-.59-.16 2.41 2.41 0 00-.46-.3l-.29-.21a7.38 7.38 0 00-1.1-.59l.26-.25c0-.08 1.09-.12 1.09-.21h.16a3.2 3.2 0 00.89.21h.33l1.39.47.92.37h.09s.33.21.37.21a3.24 3.24 0 00.38.21l.88.55a3.08 3.08 0 01.72.54l.5.51a4 4 0 01.84 1 2.74 2.74 0 01.38.68s.08.5.08.62a3.19 3.19 0 01.08.8v.8c0 .04-.08.46-.21.59s-.08.29-.12.29-.42.3-.51.34-.37.38-.42.38-.75-.09-.88-.09a5.85 5.85 0 01-.8-.29l-.46-.59v-1.47c0-.02.38-1.03.38-1.07zm-3.86-6.09a6.83 6.83 0 00-.88.17h-.4a1.77 1.77 0 01-.46-.25l-.3-.17a2.09 2.09 0 00-.25-.3c-.21-.25.38-1.21 1-1.13s.33-.08.38-.17a3.09 3.09 0 001.09 0l.5-.46a16.14 16.14 0 001.14-1.18 3.29 3.29 0 01.46-.33 6.17 6.17 0 01.71-.76 4.42 4.42 0 01.71-1.05 19.88 19.88 0 012-1.85l.42-.29c.17 0 .92-.67 1-.67a7.77 7.77 0 01.67-.46 1.53 1.53 0 00.25-.13 14.78 14.78 0 001.43-.5 11.66 11.66 0 011.17-.21s.76.08 1 .08 1.17.09 1.22.09.67.12.75.25a2.12 2.12 0 00.42.33 5 5 0 00.55.51 11.82 11.82 0 011.05 1.42c0 .05.17.26.12.3s.26.21.34.29a5.25 5.25 0 01.17 1 3.88 3.88 0 01.08.63v.29l-.21 1s-.17.33-.21.38-.29.42-.33.54c-.26.17-1.1 1-1.26 1a4 4 0 01-.76.42 2.38 2.38 0 01-.76.13c-.08 0-.62-.13-.71-.3a6.77 6.77 0 01-.75-.29c-.09-.08-.3-.17-.34-.25s-.29-.46-.34-.63-.42-.8-.42-.8v-.46c0-.08 0-.3.05-.3l.5-.16.67.88h.25a1.08 1.08 0 00.34 0 2.05 2.05 0 01.42-.29 6.66 6.66 0 00.67-.63l.33-.51c.09-.08.13-.46.17-.54a1.6 1.6 0 000-.25v-.3a3.14 3.14 0 00-.08-.5 1.9 1.9 0 01-.13-.34c-.21-.12-.75-.54-.88-.59s-.59 0-.84-.08h-.84a7 7 0 01-.88.46s-.54.25-.71.38a3.85 3.85 0 00-.51.29s-.25.09-.29.09-.46.29-.55.25a1.66 1.66 0 01-.46.5s-.29 0-.29.09a9 9 0 00-1 .88 4.46 4.46 0 00-.84 1.05 2.88 2.88 0 01-.63.33 7.09 7.09 0 01-.79.76s-.42.17-.42.21-.09.17-.09.21 0 .17.09.21l1.55.25a5.67 5.67 0 001 .25 9.48 9.48 0 001 .38c.08 0 1.13.54 1.3.63a7.5 7.5 0 011 .33h.36c.08 0 .25.26.29.26h.38c.38.08 3.4.46 3.78.46a4.25 4.25 0 01.84.12h.63c.04 0 .54.12.71 0a2.81 2.81 0 00.88-.17 4.55 4.55 0 01.93-.38 3.26 3.26 0 00.75-.29s.21-.09.21-.13l.84-.5c.09 0 .3-.34.34-.34s.59-.59.67-.75-.08-.72-.08-.76-.89-.63-1-.63-.67.8-.76.76h-.33s-.25-.3-.38-.34-.13-.13-.13-.13.17-.33.17-.46.51-.46.51-.54l1.55-.21a1.32 1.32 0 01.34.16l.16.13c.13.13.93.5 1 .59a7.54 7.54 0 00.42.63 2.93 2.93 0 01.34 1v.38a3 3 0 00-.09.42 6.42 6.42 0 01-.29.8 2.4 2.4 0 00-.38.29s-.25.42-.29.42a9.2 9.2 0 00-1 .72c-.17.16-.8.71-.92.88 0 0-.55.29-.76.38 0 0-.33.08-.38.08a1 1 0 01-.29.29 6.22 6.22 0 00-.63.3c-.17 0-1.38.46-1.55.46l-.63.25c-.13.08-.63.21-.72.25a3.08 3.08 0 00-.71.17c-.08 0-.59.08-.63.08s-.54 0-.63-.08a4.18 4.18 0 01-.75.13h-1.22c-.04 0-.34-.25-.42-.29s-.5-.17-.59-.17-.33-.17-.38-.17l-.63-.21a1.45 1.45 0 00-.5-.33 3.5 3.5 0 00-.46-.42c-.13 0-.92-.55-1.18-.63a5.94 5.94 0 00-1.26-.76 2.25 2.25 0 00-.46-.21 4.35 4.35 0 00-.67-.42s-.46-.12-.59-.25H165c-.29 0-2.39-.59-2.64-.67a2.88 2.88 0 00-.5-.09z"/></g>
        </symbol>
        <symbol viewBox="0 0 210 90" id="pink-button-pressed" xmlns="http://www.w3.org/2000/svg"><rect x="20" y="18.5" width="185" height="62" rx="23.25" opacity=".41"/><rect x="11" y="12.5" width="185" height="62" rx="23.25" fill="none" stroke="#871242" stroke-miterlimit="10" stroke-width="8"/><g data-name="Play Button"><path d="M24 72.1a23.26 23.26 0 01-13-20.85v-15.5a23.25 23.25 0 0110-19.08" fill="none" stroke="#d62d7a" stroke-miterlimit="10" stroke-width="8"/><rect x="12" y="10.5" width="185" height="62" rx="23.25" fill="#fff" stroke="#d91a60" stroke-miterlimit="10" stroke-width="8"/><path d="M35.69 40.42V39.45s0-.33.08-.37l.34-1.26a1.85 1.85 0 00.29-.17H36.7a3.31 3.31 0 01.71 0c.12 0 .5.08.54 0s.55.17.63.17a6.93 6.93 0 01.63.5 4.41 4.41 0 01.59.76s.17.62.21.71a3 3 0 01-.84 0l-.5-.63-.21-.16H37.87a1.42 1.42 0 00-.38.25 2.38 2.38 0 01-.25.16l-.12.17V39.88a8.26 8.26 0 00.88.79c0 .09.08.13.17.13a2.6 2.6 0 00.46.25 5.53 5.53 0 01.63.17 1.81 1.81 0 00.42 0s.55 0 .75-.08l.76-.17a5.24 5.24 0 001-.29s.37-.17.42-.21 1-.42 1.17-.55h.13c.08 0 .75-.25.79-.25l1.3-.3c.05 0 1.1-.17 1.47-.25l1.47-.25a1.63 1.63 0 00.63.08A8.68 8.68 0 0151 38.7a8.2 8.2 0 011 0l1-.17c.17 0 .88-.21 1-.21a.7.7 0 00.29-.17s-.08-.09-.08-.13-.76-.67-.84-.8-.63-.71-.72-.75l-.92-1.14a3.59 3.59 0 01-.33-.5l-.59-.67s-.25-.34-.34-.29a6.33 6.33 0 00-.71-.68c-.3-.21-1.76-1.3-2.1-1.46l-.59-.34-1-.29c-.13 0-.8-.09-.8-.09s-.55.09-.67.09a6.5 6.5 0 00-.8.16s-.21.09-.21.17-.13.13-.17.13-.17.46-.21.46-.29.59-.25.67a4 4 0 000 .71s0 .47.08.68a4.41 4.41 0 00.17.54.93.93 0 00.17.46l.46.3a1.31 1.31 0 00.46.08h.13a.4.4 0 00.12 0s.25-.13.25-.21l.38-.34a.5.5 0 01.13 0h.67c0 .05.21.09.25.09l.3.25a2 2 0 010 .21v.25c0 .04-.13.25-.21.29a2.69 2.69 0 01-.5.51 2.37 2.37 0 01-.34 0 1.91 1.91 0 01-.34.08c-.08 0-.58-.12-.75-.16a2.94 2.94 0 01-.76-.26 10.51 10.51 0 01-1.42-.92 2.61 2.61 0 01-.42-.38s-.59-.54-.68-.63l.04-.24v-.12c0-.3-.09-1.22-.09-1.3a3.5 3.5 0 010-.63c0-.13.09-.63.13-.67a3 3 0 01.38-.68 1.6 1.6 0 00.33-.37 7.89 7.89 0 01.68-.47c0-.12.5-.42.58-.46s.72-.3.84-.3a2.26 2.26 0 01.46-.13c.13 0 .51 0 .55-.08s.5 0 .67 0a7.45 7.45 0 011.22.21c.21 0 .8.08.92.08s1.22.42 1.64.63a4.12 4.12 0 01.75.25 9.69 9.69 0 001.39.59c.08.09.59.42.63.51l.59.5s.25.21.33.25.3.29.3.29l.21.17s.16.21.21.21.58.59.63.67.46.42.54.47.63.84.71 1a4.29 4.29 0 00.72.55 5.46 5.46 0 00.29 1 1.29 1.29 0 01.17.47 2.46 2.46 0 00.46.46 8.35 8.35 0 00.93.71l.5.63 1.38.34a1.36 1.36 0 01.34.08 3.74 3.74 0 00.71.13s.38.12.42.08a.81.81 0 01.3.09 1.48 1.48 0 01.08.25 1.11 1.11 0 010 .29c0 .13-.16.29-.25.38a6.57 6.57 0 00-.71.12c-.17.05-.63.13-.63.13a1.24 1.24 0 01-.46-.13c-.09 0-.42-.21-.47-.21a2 2 0 01-.71 0H58.53c0 .05-.21.21-.25.26s-.38-.05-.42-.13a2.8 2.8 0 01-.63-.13 3 3 0 00-.59 0 3.83 3.83 0 01-.51.09 4 4 0 01-.5.08l-.21.17a2.57 2.57 0 01-.29-.09 1 1 0 00-.34.09h-.38l-.58.25a5.77 5.77 0 01-.63.21 1.17 1.17 0 01-.38.21h-.13l-.5.59a.91.91 0 00-.38.21 4.16 4.16 0 00-.59.25s-.16.17-.21.17l-.67.38a.63.63 0 01-.21.17.5.5 0 00-.12.21 7.34 7.34 0 00-1.26.5 1.58 1.58 0 00-.38.21s-.46.21-.51.21a3.56 3.56 0 00-.54.38c-.29.08-1.68.12-2 .16a4.79 4.79 0 01-.84 0h-1c-.08 0-.88.17-1 .17a10 10 0 00-1.68-.3h-.12c-.17 0-.76-.12-.88-.12a1.17 1.17 0 01-.38-.21 4.65 4.65 0 01-1-.3s-.58-.33-.79-.42l-.13-.08c-.21-.21-.71-.76-.75-.76s-.21-.46-.21-.54-.8-1.09-1-1.3zM51 46s.25-.88.34-1.22l.21-.46.67-1a9.21 9.21 0 00.8-.55 4.57 4.57 0 01.63-.42c.12 0 .67-.38.84-.42a4.56 4.56 0 00.5-.21 4.66 4.66 0 01.67-.29l1.39-.38a.14.14 0 00.08 0 4.86 4.86 0 00.93.29s.37.09.42.09a.9.9 0 01.46.21s0 .12.08.21 0 .16 0 .16-.17.21-.25.21a7.36 7.36 0 00-.84.17c-.09 0-.55.21-.63.21s-.93.55-1.09.63c0 0-.55.46-.59.59a1.27 1.27 0 00-.38.17 2.38 2.38 0 01-.25.16c0 .09-.42.42-.5.55a8.4 8.4 0 00-.63.67c0 .13-.42.55-.38.63a1.65 1.65 0 00-.13.29v.17a.22.22 0 010 .13s.17.12.21.12a5 5 0 01.55.21 1.57 1.57 0 01.46.17l.34.25c.08 0 .12.21.16.26s.09.29.09.37a1.29 1.29 0 010 .34 2.84 2.84 0 00-.21.29 3.22 3.22 0 01-.54.38l-.34.21h-.23a4.68 4.68 0 01-.84 0 1.45 1.45 0 01-.51-.08 1.8 1.8 0 01-.46-.29 12.83 12.83 0 01-.8-1.43 3.13 3.13 0 01-.16-.76A4.46 4.46 0 0151 46zM165.14 46.17a2.63 2.63 0 00-.17-.76s-.37-.42-.5-.5c-.42-.25-1.26-.92-1.51-1a6.52 6.52 0 00-1.26-.91 1.33 1.33 0 01-.46-.17 5.9 5.9 0 00-.59-.16 2.41 2.41 0 00-.46-.3l-.29-.21a7.38 7.38 0 00-1.1-.59l.26-.25c0-.08 1.09-.12 1.09-.21h.16a3.2 3.2 0 00.89.21h.33l1.39.47.92.37h.09s.33.21.37.21a3.24 3.24 0 00.38.21l.88.55a3.08 3.08 0 01.72.54l.5.51a4 4 0 01.84 1 2.74 2.74 0 01.38.68s.08.5.08.62a3.19 3.19 0 01.08.8v.8c0 .04-.08.46-.21.59s-.08.29-.12.29-.42.3-.51.34-.37.38-.42.38-.75-.09-.88-.09a5.85 5.85 0 01-.8-.29l-.46-.59v-1.47c0-.02.38-1.03.38-1.07zm-3.86-6.09a6.83 6.83 0 00-.88.17h-.4a1.77 1.77 0 01-.46-.25l-.3-.17a2.09 2.09 0 00-.25-.3c-.21-.25.38-1.21 1-1.13s.33-.08.38-.17a3.09 3.09 0 001.09 0l.5-.46a16.14 16.14 0 001.14-1.18 3.29 3.29 0 01.46-.33 6.17 6.17 0 01.71-.76 4.42 4.42 0 01.71-1.05 19.88 19.88 0 012-1.85l.42-.29c.17 0 .92-.67 1-.67a7.77 7.77 0 01.67-.46 1.53 1.53 0 00.25-.13 14.78 14.78 0 001.43-.5 11.66 11.66 0 011.17-.21s.76.08 1 .08 1.17.09 1.22.09.67.12.75.25a2.12 2.12 0 00.42.33 5 5 0 00.55.51 11.82 11.82 0 011.05 1.42c0 .05.17.26.12.3s.26.21.34.29a5.25 5.25 0 01.17 1 3.88 3.88 0 01.08.63v.29l-.21 1s-.17.33-.21.38-.29.42-.33.54c-.26.17-1.1 1-1.26 1a4 4 0 01-.76.42 2.38 2.38 0 01-.76.13c-.08 0-.62-.13-.71-.3a6.77 6.77 0 01-.75-.29c-.09-.08-.3-.17-.34-.25s-.29-.46-.34-.63-.42-.8-.42-.8v-.46c0-.08 0-.3.05-.3l.5-.16.67.88h.25a1.08 1.08 0 00.34 0 2.05 2.05 0 01.42-.29 6.66 6.66 0 00.67-.63l.33-.51c.09-.08.13-.46.17-.54a1.6 1.6 0 000-.25v-.3a3.14 3.14 0 00-.08-.5 1.9 1.9 0 01-.13-.34c-.21-.12-.75-.54-.88-.59s-.59 0-.84-.08h-.84a7 7 0 01-.88.46s-.54.25-.71.38a3.85 3.85 0 00-.51.29s-.25.09-.29.09-.46.29-.55.25a1.66 1.66 0 01-.46.5s-.29 0-.29.09a9 9 0 00-1 .88 4.46 4.46 0 00-.84 1.05 2.88 2.88 0 01-.63.33 7.09 7.09 0 01-.79.76s-.42.17-.42.21-.09.17-.09.21 0 .17.09.21l1.55.25a5.67 5.67 0 001 .25 9.48 9.48 0 001 .38c.08 0 1.13.54 1.3.63a7.5 7.5 0 011 .33h.36c.08 0 .25.26.29.26h.38c.38.08 3.4.46 3.78.46a4.25 4.25 0 01.84.12h.63c.04 0 .54.12.71 0a2.81 2.81 0 00.88-.17 4.55 4.55 0 01.93-.38 3.26 3.26 0 00.75-.29s.21-.09.21-.13l.84-.5c.09 0 .3-.34.34-.34s.59-.59.67-.75-.08-.72-.08-.76-.89-.63-1-.63-.67.8-.76.76h-.33s-.25-.3-.38-.34-.13-.13-.13-.13.17-.33.17-.46.51-.46.51-.54l1.55-.21a1.32 1.32 0 01.34.16l.16.13c.13.13.93.5 1 .59a7.54 7.54 0 00.42.63 2.93 2.93 0 01.34 1v.38a3 3 0 00-.09.42 6.42 6.42 0 01-.29.8 2.4 2.4 0 00-.38.29s-.25.42-.29.42a9.2 9.2 0 00-1 .72c-.17.16-.8.71-.92.88 0 0-.55.29-.76.38 0 0-.33.08-.38.08a1 1 0 01-.29.29 6.22 6.22 0 00-.63.3c-.17 0-1.38.46-1.55.46l-.63.25c-.13.08-.63.21-.72.25a3.08 3.08 0 00-.71.17c-.08 0-.59.08-.63.08s-.54 0-.63-.08a4.18 4.18 0 01-.75.13h-1.22c-.04 0-.34-.25-.42-.29s-.5-.17-.59-.17-.33-.17-.38-.17l-.63-.21a1.45 1.45 0 00-.5-.33 3.5 3.5 0 00-.46-.42c-.13 0-.92-.55-1.18-.63a5.94 5.94 0 00-1.26-.76 2.25 2.25 0 00-.46-.21 4.35 4.35 0 00-.67-.42s-.46-.12-.59-.25H165c-.29 0-2.39-.59-2.64-.67a2.88 2.88 0 00-.5-.09z"/></g>
        </symbol>
    </defs>
    <use id="menu-button-pressed-usage" xlink:href="#menu-button-pressed" class="sprite-symbol-usage"></use>
    <use id="menu-button-usage" xlink:href="#menu-button" class="sprite-symbol-usage"></use>
    <use id="leaderboard-button-pressed-usage" xlink:href="#leaderboard-button-pressed" class="sprite-symbol-usage"></use>
    <use id="leaderboard-button-usage" xlink:href="#leaderboard-button" class="sprite-symbol-usage"></use>
    <use id="logo-button-usage" xlink:href="#logo-button" class="sprite-symbol-usage"></use>
    <use id="logo-button-pressed-usage" xlink:href="#logo-button-pressed" class="sprite-symbol-usage"></use>
    <use id="blue-button-usage" xlink:href="#blue-button" class="sprite-symbol-usage"></use>
    <use id="blue-button-pressed-usage" xlink:href="#blue-button-pressed" class="sprite-symbol-usage"></use>
    <use id="pink-button-usage" xlink:href="#pink-button" class="sprite-symbol-usage"></use>
    <use id="pink-button-pressed-usage" xlink:href="#pink-button-pressed" class="sprite-symbol-usage"></use>
</svg>