<?xml version="1.0" encoding="utf-8"?>
<svg xmlns="http://www.w3.org/2000/svg" xmlns:xlink="http://www.w3.org/1999/xlink">
    <defs>
        <style xmlns="http://www.w3.org/2000/svg">
            .sprite-symbol-usage {
                display: none;
            }
            
            .sprite-symbol-usage:target {
                display: inline;
            }
        </style>
         <symbol preserveAspectRatio="xMidYMid slice" viewBox="0 0 960 560" id="hero-box" xmlns="http://www.w3.org/2000/svg"><path fill="#253659" stroke="#000" stroke-miterlimit="10" d="M.5.5h960v560H.5z" data-name="HeroBox Web Background"/><g data-name="HeroBox Web"><path d="M0 559h948.73l-64.4-22.26c-11.45-4-23.11-8-35.22-8.3-21.62-.61-43.05 10.49-64.23 6.1-26.35-5.46-43.45-33-69.53-39.64-31.39-8-63.09 17-95.23 13-30.28-3.77-51.28-31.43-78.38-45.47-49.29-25.52-108.7-2.81-164.2-3.83C318 457.46 263 428.63 210.5 400.5l-66.8-35.82c-9.8-5.25-19.7-10.57-28-17.95-14.06-12.49-22.57-29.87-31.52-46.41s-19.31-33.33-35.44-43c-14.94-9-36.13-9.62-48.72 1.84z" fill="#c7b299"/><path data-name="mountain 2" d="M959.13 560V252.64a29.35 29.35 0 00-18.6 4c-14.25 8.36-18.41 26.5-24.53 40.63-5.38 12.43-14.43 25.12-27.83 27.18-14.62 2.25-30.1-9-43.6-2.91-10.46 4.69-14.25 17.66-14.62 29.12s1.37 23.42-2.94 34c-6.62 16.3-25.49 24.18-43 25.79s-35.32-1.31-52.71 1.34c-44.49 6.8-75.71 47.45-117.19 64.93-31.69 13.35-67.34 12.38-101.69 10.89s-69.86-3.08-102 9.19c-27.78 10.61-51.13 34.63-55.77 63.13z" fill="#603813"/><g data-name="Nopal 2">
                <g data-name="Tuna 4"><path d="M288.56 168.21c8.14 7.47 17.52 14.24 28.39 16.22 16.39 3 32.49-5.33 47.08-13.37 12.76-7 26.16-14.68 33.24-27.4 6-10.77 6.57-23.75 5.32-36a136.2 136.2 0 00-32.49-74.92c-6.47-7.43-13.93-14.26-22.91-18.31-7.22-3.26-15.13-4.6-22.95-5.91-4.61-.78-9.36-1.52-13.92-.52a36.42 36.42 0 00-8.5 3.52l-16.94 8.79c-9.11 4.73-18.23 9.46-27.3 14.26-3.51 1.86-7.14 3.83-9.48 7.05-6.89 9.49-1.57 25.08-3 36-1.34 10.56-.93 18.12 2.68 28.45 8.22 23.44 22.22 45.58 40.78 62.14z" fill="#d91a60"/><path d="M403.34 107.62a136.08 136.08 0 00-32.48-74.9c-6.47-7.43-13.93-14.27-22.86-18.32-7.22-3.26-15.13-4.6-22.95-5.91-4.66-.77-9.41-1.49-13.97-.49a36 36 0 00-8.5 3.53l-16.95 8.77Q272 27.38 258.34 34.55c-3.51 1.86-7.14 3.83-9.48 7.05-6.89 9.49-1.58 25.08-3 36-1.34 10.56-.93 18.13 2.68 28.46 8.17 23.39 22.18 45.53 40.73 62.09-5.38-6.77-6.57-17.42-5-25.92.83-4.47 2.67-9.1 1.23-13.41-1.24-3.71-4.64-6.26-6.54-9.68-5.32-9.6 2.42-23-3.76-32.09-3.5-5.14-10.78-7.48-12.62-13.42-1.8-5.78 3-11.94 8.76-13.85s12-.76 17.95.41L313.6 65c5.79 1.15 13.23 1.6 16.15-3.54 3.34-5.9-2.59-14 .91-19.85 2.72-4.52 9.26-4.52 14.38-3.23a56.63 56.63 0 0127.2 16c10.82 11.47 16.31 26.84 21.51 41.74 1.62 4.62 7.97 6.88 9.59 11.5z" fill="#ff7bac"/><path d="M397.45 141.25c.11 3.12-3 5.92-5.54 8.66-7.48 8-17.28 13.43-26.78 18.67-14.59 8-30.69 16.35-47.08 13.36-6.19-1.12-27.88-9.25-27.66-17.21.25-9.32 22.55-12.26 28.81-12.74 10.75-.81 21.9-.3 31.9-4.36 5.55-2.25 10.46-5.82 15.61-8.9s10.8-5.73 16.79-5.84c4.36-.09 9.43 1.46 12.38 4.84a5.75 5.75 0 011.57 3.52z" fill="#9e005d"/></g><path d="M840.19 559.61h.2a407 407 0 009.52-96c-2.39-107.47-55.73-215.84-147.67-271.52-40.48-24.51-86.61-38.34-133.15-46.91-61.88-11.39-126.29-13.78-187.3 1.61s-118.51 49.72-154.45 101.36c-24 34.44-37.61 75.1-46.22 116.16a548.86 548.86 0 00-9 58.73c-4.46 45.55-3.08 92 7 136.57z" fill="#324001"/><path d="M832.48 559.61a107.06 107.06 0 002.32-13.3c2.28-20.39 2.48-40.95 2.68-61.46.34-34.14.6-68.9-9.36-101.55-6.7-21.95-18.29-43.27-18.85-66.65-.2-8.09 1.35-7.7-6.19-9.64-5.72-1.47-11.68-2.05-17.42-3.61a109.9 109.9 0 01-32.38-14.33c-14.32-9.59-23.75-20.56-34-34.19-3.72-4.94-7.19-10-10.64-15.15-1.92-2.86-3.87-5.69-5.81-8.53l-.33-.48a80.02 80.02 0 01-3.78-5.42c-1.7-1-3.37-2-5.09-3-4.57-2.62-9.13-5.26-13.79-7.71q-3.48-1.84-7-3.55l-1.9-.88c-2.7-.68-5.61-1.23-6.18-1.43l-2.15-.44c-1.09-.08-2.17-.16-3.27-.21a127.73 127.73 0 00-15.9.36l-33.22 3.9a151.79 151.79 0 01-17.71.9c-28.07-.44-55.11-9.82-79.45-23.34-4.11-2.28-6.85-4.12-11.49-4.7a87.18 87.18 0 01-12.89-2.64A94.94 94.94 0 01464.57 172a93.42 93.42 0 01-16.72-13c-2.19-2.16-4.26-5.54-6.88-7.1s-6.38-2.43-9.28-3.86a75.37 75.37 0 01-13.36-8.52q-13.26 1.85-26.36 4.69a69.28 69.28 0 01-73.2 26.05q-4.68 2.38-9.28 4.94a83.84 83.84 0 014.37 20.8c3.8 46.48-40.05 85.17-85.62 70.15a84.62 84.62 0 01-9.92-4c-18.46 31.19-29.71 66.45-37.16 102a546.55 546.55 0 00-9 58.72c-4.47 45.62-3.08 92.16 7.05 136.77z" fill="#7c8c03"/><path d="M644.39 208.39c-7.89 2.06-17 4.74-23.27 10.08-5.33 4.54-11 11-11.29 18.35-.17 4.44.73 9-.26 13.3-1.81 7.9-10.7 13.45-18.58 11.53s-13.21-11-10.94-18.83 10-12.17 17.07-15.88c3.24-1.7 6.49-3.63 8.82-6.51 2.15-2.66 4.82-6.14 5.51-9.55" fill="#324001"/><g data-name="Black spots"><path d="M389.67 446.32c-1.74 2.49-3.56 5.28-3.23 8.3.44 4.07 4.48 6.62 8.08 8.56 4.66 2.51 9.79 5.09 15 4.14s9.52-5.86 10.39-11.22-1.29-11-5-14.92c-3.13-3.33-9.1-7.66-14-6.8-5.3.91-8.52 8.04-11.24 11.94zM271.21 316.06c-2 6-.7 13.4 4.34 17.2 4.17 3.14 10.05 3.25 15 1.47s9-5.21 12.88-8.76a25.57 25.57 0 005.52-6.5 9.63 9.63 0 00.66-8.26c-1.77-3.92-6.47-5.41-10.64-6.47-5.08-1.29-12.62-5.1-17.41-2.12-4.56 2.8-8.69 8.48-10.35 13.44zM567.07 424.62c2.09 8.92 3.48 18.31 8.5 26s15.09 13.05 23.46 9.32c8-3.54 10.9-13.34 11.39-22s-.44-17.88 3.41-25.7c5.27-10.68 19.79-15.6 30.46-10.31s15.57 19.81 10.27 30.48c-2.09 4.19-5.41 7.63-8 11.54A37.67 37.67 0 00662.45 499c8 3.65 17.07 4.35 25.86 5.24s17.85 2.11 25.46 6.62 13.43 13.13 12 21.86c-1.74 11-13.31 17.28-23.86 20.77-11.83 3.91-26 6.06-35.81-1.58s-11.24-21.4-17.22-32.15a41.1 41.1 0 00-68.14-5.51c-8.3 10.48-11.51 25-22.06 33.2-12.5 9.74-33.32 5.51-41-8.33s-.35-33.77 14.51-39.28c5.75-2.13 12-2.28 18-3.48s12.25-3.85 15.26-9.19c4.62-8.21-.32-18.32-5.17-26.39q-12.31-20.52-24.65-41c-4.33-7.22-10.14-15.32-18.56-15.37-6.5 0-12 4.92-18.29 6.35s-13.17-.87-18.48-4.71-9.41-9.1-13.43-14.28c-6.69-8.62-13.69-18-14.08-28.94a26.71 26.71 0 0111.23-22.45c6.92-4.81 17.67-6.75 25.23-2.43 3.29 1.87 5.51 5.36 8.45 7.67 4.5 3.54 4.73 9.57 3.81 15.22-.56 3.45-1.92 6.83-1.71 10.32.26 4.31 2.91 8.15 6.09 11.07 9.7 8.87 23.8 10.59 35.59 16.39 10.83 5.29 22.85 14.28 25.59 26zM186.82 459c2.54 2.84 4.18 6.34 5.81 9.78 4.65 9.86 13.61 34.65 27.58 34.24 4.66-.14 8.94-3 11.7-6.75s4.17-8.34 5.08-12.91a69.62 69.62 0 00.46-24.68c-1.12-7-3.29-14.27-1-21a16.64 16.64 0 0132.39 5.09c.08 4.55-2 9.29-5.9 11.61-4.52 2.69-10.68 1.89-14.71 5.26-4.76 4-4.05 11.41-2.4 17.38s3.76 12.69.65 18c-1.3 2.24-3.43 4-4.24 6.46-1.33 4.07 1.63 8.54 5.48 10.4 12.35 6 27.31-2.66 38.91 6.76a18.76 18.76 0 01-13.92 33.21c-7-.78-12.91-5.37-17.88-10.32s-9.49-10.51-15.47-14.18c-6.84-4.2-15-5.55-22.64-7.95s-15.51-6.44-18.95-13.68c-1.5-3.15-2.07-6.73-3.9-9.7s-5.75-5.19-8.82-3.53c-3.91 2.14-3.5 8.71-7.48 10.73-2.74 1.38-6.23-.36-7.83-3s-1.8-5.83-1.95-8.9c-.21-4.12-.91-7.63-.13-11.58.92-4.66 2.24-8.53 1.62-13.42a34.39 34.39 0 01-.67-6.61c.62-9.03 14.28-5.55 18.21-.71zM708.53 355.32a18.41 18.41 0 0015.33 8.9 16.73 16.73 0 0014.93-9.22c4.79-10.09-3.65-23-15.08-22.13-11.13.83-21.71 11.57-15.18 22.45zM203.23 335.14a18.41 18.41 0 0015.87-7.89 16.74 16.74 0 00.54-17.54c-5.79-9.56-21.2-9.62-26.79.39-5.44 9.75-2.3 24.5 10.38 25.04zM453.62 258.15c-.82 4.52.79 9.23 3.46 13s6.33 6.65 10.05 9.35c4.52 3.28 9.66 6.46 15.23 6.09 6.18-.41 11.49-5.52 13-11.53 5.96-23.65-37.14-42.13-41.74-16.91zM385.51 215.67c.15 10.34 9.52 19.65 19.85 19.74s19.86-9.06 20.19-19.39c.24-7.48-3.65-14.39-7.42-20.85-1.48-2.52-3-5.14-5.46-6.76-9.51-6.37-9.45 8.18-14 12-6.28 5.3-13.32 4.04-13.16 15.26zM796.53 330.9a25 25 0 0018.59 19.1c3.92.88 8.93.26 10.6-3.4 1.25-2.73.06-5.9-1.12-8.66q-4.94-11.47-9.85-22.95c-8.34-19.43-20.53 4.22-18.22 15.91zM777.05 429.7c-3.35 3.55-4.59 8.54-5.7 13.3-1.79 7.7-3.44 16.37.78 23.05 4.36 6.91 13.25 9 20.32 13.1a37.21 37.21 0 0117.74 25c3-1.35 4.94-4.59 5.55-7.87s.13-6.67-.34-10q-2.19-15.28-4.4-30.56c-.78-5.48-1.64-11.16-4.68-15.79-4.97-7.56-21.18-18.78-29.27-10.23zM827.43 549.35c.05 2.63.11 5.33 1.15 7.74a8.45 8.45 0 001.67 2.52h8.55a8.5 8.5 0 001.48-2 20.41 20.41 0 001.75-7.14c.88-7.3 3.06-15 2.56-22.32a25.29 25.29 0 00-1.59-8.52c-1.18-2.66-3.53-5-6.41-5.3-3.52-.39-6.79 2.34-8.19 5.6s-1.36 6.92-1.3 10.46z" fill="#324001"/><ellipse cx="287.2" cy="319.25" rx="10.18" ry="8.46" transform="rotate(-45 287.206 319.245)" stroke="#000" stroke-miterlimit="10"/><ellipse cx="534.24" cy="524.31" rx="6" ry="7.2" stroke="#000" stroke-miterlimit="10"/><ellipse cx="672.81" cy="530.03" rx="5.32" ry="5.06" transform="rotate(-70.4 672.815 530.03)" stroke="#000" stroke-miterlimit="10"/><ellipse cx="634.89" cy="421.64" rx="5.88" ry="4.94" transform="rotate(-78.73 634.886 421.639)" stroke="#000" stroke-miterlimit="10"/><ellipse cx="723.39" cy="348.06" rx="6.21" ry="6.26" transform="rotate(-37.66 723.45 348.068)" stroke="#000" stroke-miterlimit="10"/><ellipse cx="788.79" cy="453.55" rx="5.7" ry="6" stroke="#000" stroke-miterlimit="10"/><ellipse cx="840.67" cy="541.82" rx="6.69" ry="10.52" transform="rotate(-6.56 840.09 541.477)" stroke="#000" stroke-miterlimit="10"/><ellipse cx="815.23" cy="326.46" rx="5.11" ry="10.52" transform="rotate(-25.84 815.127 326.437)" stroke="#000" stroke-miterlimit="10"/><ellipse cx="595.47" cy="245.55" rx="4.23" ry="5.73" transform="rotate(-78.07 595.504 245.547)" stroke="#000" stroke-miterlimit="10"/><ellipse cx="656.36" cy="190.16" rx="4.93" ry="9.14" transform="rotate(-73.8 656.407 190.145)" stroke="#000" stroke-miterlimit="10"/><ellipse cx="272.35" cy="527.19" rx="7.88" ry="6.63" transform="rotate(-70.88 272.355 527.189)" stroke="#000" stroke-miterlimit="10"/><ellipse cx="253.16" cy="440.84" rx="7.88" ry="6.63" transform="rotate(-70.88 253.163 440.839)" stroke="#000" stroke-miterlimit="10"/><ellipse cx="402.77" cy="449.86" rx="6.95" ry="6.01" transform="rotate(-56.57 402.77 449.862)" stroke="#000" stroke-miterlimit="10"/><ellipse cx="481.12" cy="361.91" rx="8.92" ry="6.91" transform="rotate(-81.4 478.763 361.453)" stroke="#000" stroke-miterlimit="10"/><ellipse cx="174.63" cy="475.64" rx="7.83" ry="13.64" transform="rotate(-2.41 174.768 475.97)" stroke="#000" stroke-miterlimit="10"/><ellipse cx="198.91" cy="317.39" rx="13.53" ry="7.24" transform="rotate(-75.87 198.92 317.392)" stroke="#000" stroke-miterlimit="10"/><ellipse cx="402.87" cy="214.56" rx="6.33" ry="6.65" transform="rotate(-33.42 402.828 214.545)" stroke="#000" stroke-miterlimit="10"/><ellipse cx="476.96" cy="265.73" rx="5.27" ry="5.34" transform="rotate(-70.88 476.965 265.725)" stroke="#000" stroke-miterlimit="10"/></g>
                <g data-name="Tuna 1"><path d="M720 121.21c2.07-10.71 5-21.45 10.7-30.75s14.56-17.09 25.2-19.54c7.09-1.63 14.48-.84 21.71 0l43.53 4.8c12.18 1.34 25 2.9 34.94 10 13.57 9.65 18.84 27.32 20.3 43.9C881 181 855.18 234 811.91 262.27c-12 7.82-25.58 13.93-39.89 14.45-10.7.38-23.73-2.79-31.49-10.69-5.92-6-8-16.81-10.8-24.57A228.69 228.69 0 01716 165.7a225.14 225.14 0 014-44.49z" fill="#d91a60"/><path d="M877.17 130.17c-1.46-16.59-6.73-34.26-20.3-43.91-10-7.1-22.76-8.66-34.94-10l-43.53-4.79c-7.23-.8-14.63-1.59-21.72 0-10.63 2.53-19.48 10.29-25.2 19.58 1.87 3.45 8.24 3.74 11.93 2.42s6.55-4.22 9.38-6.93 6-5.42 9.82-6.17c6.37-1.23 12.36 3.23 17 7.75s9.51 9.71 15.95 10.48c4.58.55 9.06-1.27 13.58-2.2s9.93-.64 12.77 3c3.81 4.86 1.29 13.5 6.49 16.82 4.35 2.76 9.86-.92 13.43-4.63s8.1-8.06 13-6.61c4.14 1.22 6.06 6 6.55 10.31s.2 8.87 2.29 12.66 10.77 5.57 13.5 2.22z" fill="#ff7bac"/><path d="M876 164.33c-6.46 39.53-29.52 76.47-63.16 98.41-12 7.82-25.58 13.94-39.9 14.45a51.15 51.15 0 01-10.19-.66 47.25 47.25 0 01-10.94-3.15c-1.67-.72-3.21-1.65-4.91-2.27a23.21 23.21 0 01-5.19-2.68c-1-.72-2-1.56-2.92-2.36a3.66 3.66 0 01-1.56-2.78c.1-1.94 2.15-3.29 4.08-3.39s3.79.71 5.61 1.38c13.31 4.92 29.76 3.5 38.51-8.95a27.53 27.53 0 003.18-25.05c7.58 8 21.94 7.91 29.46-.11 5.87-6.27 7.16-15.42 10.71-23.24a42.58 42.58 0 0124-21.86c4.47-1.65 11.1-1.08 14.93-3.72S874 168.2 876 164.33z" fill="#9e005d"/></g>
                <g data-name="Tuna 2"><path d="M692.59 0H549.87c-2 .07-4 .08-6 0h-15.15a186.36 186.36 0 00-3.65 34.61 190.65 190.65 0 0016.43 79.91c4.13 9.24 9.75 17.66 13.53 27.05 4.71 11.68 10.43 21.79 21.23 28.95a52.42 52.42 0 0044.32 6.12c14-4.5 25.42-14.75 35-25.93a177.76 177.76 0 0042.14-116.55A120.34 120.34 0 00692.59 0z" fill="#d91a60"/><path d="M549.87 0c-2 .07-4 .08-6 0h-15.64a186.66 186.66 0 00-3.39 33.26 190.49 190.49 0 0016.43 79.91c2.8-5.45 6.71-12.06 9.51-17.52 2.34-4.56 4.71-9.21 5.53-14.26 2.21-13.63-7-26.11-12.24-38.88-2.27-5.52-3.21-13.14 1.85-16.31 3.23-2 7.57-1.09 10.81.92s5.81 4.95 8.86 7.23c10.58 7.91 27.08 6.31 35.94-3.48 7.59-8.37 9.17-20.55 13.72-30.87zM686 0c.63.76 1.23 1.53 1.81 2.32a53 53 0 019.32 22.22A115.77 115.77 0 00692.76 0zM697.48 32.81a35.47 35.47 0 00-.35-8.26q.3 4.16.35 8.26z" fill="#ff7bac"/><path d="M697.79 32.17a177.76 177.76 0 01-42.17 116.56c-9.55 11.18-21 21.43-35 25.93a52.39 52.39 0 01-44.32-6.12c-10.8-7.15-16.52-17.26-21.23-28.95-3.78-9.39-9.4-17.8-13.53-27 8.61 5.68 16.16 10.7 22.4 18.9 4.48 5.9 8.23 12.33 12.81 18.15s10.14 11.14 17 13.83 15.32 2.31 21.08-2.34 7.66-14 3-19.78c8.28-1.67 16.63-3.36 24.37-6.72s14.94-8.58 19.19-15.87 5.13-16.85.89-24.15c-2.88-5-7.94-8.84-9-14.47-1.34-7.24 4.47-13.64 9.81-18.71 10.53-9.96 24.26-19.35 34.7-29.26z" fill="#9e005d"/></g>
                <g data-name="Tuna 3"><path d="M363.51 0c1.75 9.21 8.51 19.4 12 26.32a385.22 385.22 0 0049 74.4 381.55 381.55 0 0033.8 35.38c9.31 8.56 19.25 16.78 31 21.59s25.51 5.79 36.77 0c17.17-8.82 23.56-30 25.93-49.16A244.22 244.22 0 00540.58 0z" fill="#d91a60"/><path d="M533.17 0a67.09 67.09 0 011.37 19c-1.1 11.27-6.57 21.69-13.24 30.84s-14.6 17.32-21.54 26.26c-4.4 5.68-8.61 12.74-6.65 19.65s8.91 10.58 15.39 13.3 13.65 5.57 16.92 11.79c3.54 6.73.8 15.72-5.27 20.29s-14.64 5-21.72 2.26-12.53-8.09-19.36-11-16.33-1.92-19.69 4.72c9.31 8.56 19.25 16.78 30.95 21.59s25.52 5.79 36.77 0c17.18-8.82 23.56-30 25.93-49.16A244.32 244.32 0 00541.29 0z" fill="#9e005d"/><path d="M405.74 41.82c0-3.49 1.2-6.88 1.51-10.36.79-8.72-4-16.8-7.69-24.75A51.23 51.23 0 01397 0h-32.72c1.5 9.41 8.55 20 12.14 27.12a384.94 384.94 0 0049 74.39 381.61 381.61 0 0033.8 35.38c-11.74-26.44-25.35-54.09-43.83-76.34-4.58-5.55-9.62-11.55-9.65-18.73z" fill="#ff7bac"/></g>
                <g data-name="Tuna 5"><path d="M146.23 128.21c6-14.26 21.18-23.41 36.6-24.65s30.8 4.56 43.45 13.47 22.89 20.78 32.41 33c8.9 11.39 17.46 23.5 21.32 37.43s2.26 30.14-7.4 40.89c-7.47 8.29-18.61 12.3-29.61 14.55a130.08 130.08 0 01-85.57-12C140.78 222.25 111 200 114 177.8c1.66-12.11 14.2-12.7 21.19-20.32 7.18-7.83 7.09-19.87 11.04-29.27z" fill="#d91a60"/><path d="M262 195.7a51.08 51.08 0 002.6-13.14c.07-2.81 2.68-6.12 5.55-6.48 3.43-.44 4.77 4.22 7.35 6.09 4 2.88 3.18 5.56 3.95 9.84a52.41 52.41 0 01.76 13.11c-.6 8.45-3.5 16.84-9.22 23.2-7.47 8.32-18.62 12.32-29.58 14.58a130.08 130.08 0 01-85.57-12c6.65-5.67 15.39-9.38 23.91-7.46 2.55.57 5 1.5 7.65 1.69s5.48-.51 7.06-2.59c2.15-2.85 1-7.08-1.21-9.85s-5.41-4.63-8-7.13-4.53-6.15-3.44-9.55c4.09-3.83 10.7-3.22 15.84-1 6.58 2.85 12.19 7.89 19.79 8.21a11.29 11.29 0 007.3-2.13c5.17-3.94 4-10 1.89-14.89-2-4.59-4.68-9.07-3.69-14.31a7.34 7.34 0 013.72-5.22c4.41-2.24 8.41 1.29 10.06 5.17 1.34 3.17 1.63 6.71 2.83 9.94 2.6 6.97 13.09 13.68 20.45 13.92z" fill="#9e005d"/><path d="M241.88 243.36a130 130 0 01-85.58-12c-16.68-8.7-46.48-31-43.45-53.15 1.66-12.11 14.19-12.7 21.18-20.32 7.19-7.83 7.09-19.87 11-29.27 7 5.35 7 15.72 5.3 24.34s-5.25 17.09-4.53 25.85c.92 11.11 8.53 20.51 16.73 28.08 21.12 19.51 50.83 33.29 79.35 36.47z" fill="#ff7bac"/></g>
                <g><path d="M400.77 450.49c-1.26-1-2.47-2-3.69-3.11s-2.25-2.3-3.34-3.49-2-2.53-3-3.8L388 436c-.79-1.41-1.57-2.83-2.31-4.27s-1.28-3-1.88-4.48l-1.52-4.61L381 418a82.64 82.64 0 01-2.43-19.07A74.62 74.62 0 01381 380l.39.08a78.24 78.24 0 00-.75 18.77 79.76 79.76 0 003.51 18.28l1.55 4.38 1.83 4.26 2 4.18c.72 1.36 1.39 2.75 2.06 4.14l2.16 4.09c.77 1.34 1.58 2.66 2.32 4s1.66 2.64 2.48 4 1.75 2.61 2.58 4zM401 214.74c-1 1.53-2.12 3-3.19 4.41s-2 3-3 4.47-1.83 3-2.75 4.57l-2.51 4.68c-.75 1.6-1.51 3.2-2.31 4.77s-1.41 3.24-2.15 4.85l-1.91 5-1.55 5.1a78.29 78.29 0 00-2.58 21.2 74.58 74.58 0 003.23 21.21l-.38.13a72.85 72.85 0 01-4.9-21.29 81.11 81.11 0 011.46-22l1.27-5.4 1.61-5.34c.66-1.73 1.35-3.47 2.07-5.18s1.7-3.31 2.58-5l3.05-4.67c1.16-1.46 2.29-2.94 3.47-4.36s2.57-2.67 3.87-4 2.83-2.39 4.29-3.5z" fill="#fcee21"/><path d="M402 447.69a81 81 0 00-17.86 12.47 71.06 71.06 0 00-13.66 16.68 63.77 63.77 0 00-6.95 42.36l-.29.06a62.69 62.69 0 015.13-43.56 56.79 56.79 0 0113.78-17.79 51.55 51.55 0 0119.74-10.5z" fill="#fcee21"/><path d="M285.78 319.82a31 31 0 01-9.11-9 36.83 36.83 0 01-5.09-11.8 44 44 0 01-1.37-12.71 39.59 39.59 0 012.57-12.43l.15.19-1.34.11v-.2l1.33-.19h.22l-.07.22a39.3 39.3 0 00-1.79 12.35 42.27 42.27 0 001.89 12.25 53.57 53.57 0 005.18 11.18 55.81 55.81 0 007.57 9.87z" fill="#d9e021"/><path d="M287.35 319.71c-7.14 1.48-14.21 2.84-21.23 4.45s-14.08 3-21 5a219.83 219.83 0 00-40.12 16.2l-.15-.27a195.36 195.36 0 0139.55-18.19 144.19 144.19 0 0121.13-5.69 114.61 114.61 0 0121.79-1.8z" fill="#d9e021"/><path d="M284.57 319.28c-1.52 3.82-3.08 7.55-4.47 11.34s-2.91 7.54-4 11.43a97.76 97.76 0 00-2.67 11.86 96.4 96.4 0 00-1.25 12.14h-.2a96.65 96.65 0 01.46-12.26 98.18 98.18 0 012.12-12.14 67.61 67.61 0 013.72-11.77 54.36 54.36 0 016.16-10.69zM195.72 315.49a127 127 0 01-17-11.88 169.31 169.31 0 01-15-14.33q-7.17-7.48-13.79-15.46c-4.36-5.35-8.56-10.83-12.49-16.5l.24-.18c4.31 5.38 8.74 10.64 13.39 15.69s9.39 10 14.35 14.75 10.23 9.12 15.27 13.75 10.2 9.16 15.23 13.92zM197.27 318.41a149.48 149.48 0 00-20 8.1 126.42 126.42 0 00-18.5 10.9A98.31 98.31 0 00142.89 352a94.29 94.29 0 00-12.4 17.77l-.27-.13a95.27 95.27 0 0111.52-18.6 100.16 100.16 0 0115.54-15.54A83.09 83.09 0 01176 323.79a69.79 69.79 0 0121.24-5.67zM476.42 264.82a25.68 25.68 0 01.74-4.64 42.71 42.71 0 011.3-4.39 27.87 27.87 0 011.86-4.13c.74-1.33 1.5-2.64 2.19-4q2.07-4 4.22-8c1.48-2.65 2.9-5.32 4.41-7.95l.37.17c-.94 2.89-2 5.74-3 8.62s-2.06 5.7-3.13 8.53c-.54 1.41-1 2.86-1.5 4.3a28.85 28.85 0 01-1.82 4.15 40.1 40.1 0 01-2.38 3.89 25.62 25.62 0 01-2.94 3.64z" fill="#d9e021"/><path d="M477.78 265.32a78.66 78.66 0 01-9.74-1.11c-3.21-.52-6.35-1.44-9.51-2.19l-9.5-2.28-9.47-2.39v-.19l9.64 1.6 9.61 1.69c3.21.58 6.44 1 9.6 1.8a76.59 76.59 0 019.37 2.87zM480.67 360.07c-8.94-3.69-17.84-7.31-26.87-10.55s-18.06-6.51-27.33-9a262 262 0 00-28.16-6.13 258.3 258.3 0 00-28.72-3.11v-.3a249.17 249.17 0 0157.48 7.22 199.15 199.15 0 0127.79 8.57 164.56 164.56 0 0125.94 13.08zM722.59 348c2.22 6 4.24 12 6.45 18s4.17 11.94 6.67 17.77A190 190 0 00744 400.8c3 5.59 6.34 11 9.88 16.32l-.24.17a178.76 178.76 0 01-10.94-15.74q-5-8.19-9.18-16.88a124.35 124.35 0 01-7.32-17.81 97 97 0 01-3.9-18.86zM842.64 542a15.35 15.35 0 012.93 1.24 23.26 23.26 0 012.63 1.59 35 35 0 014.51 4.1c1.49 1.39 3 2.79 4.42 4.22s2.91 2.86 4.32 4.33l-.19.23c-1.72-1.1-3.39-2.27-5.08-3.4s-3.35-2.33-5-3.53a35.69 35.69 0 01-4.9-3.63 26.32 26.32 0 01-2.06-2.28 15.44 15.44 0 01-1.78-2.64zM791.35 453a81.78 81.78 0 017.69-9.69 106 106 0 019-8.51q4.65-4.06 9.51-7.88c3.25-2.52 6.59-4.92 10-7.24l.5-.34-.26.53-.8 1.65-.18-.08.69-1.7.24.19c-3.24 2.52-6.39 5.14-9.49 7.82s-6.13 5.42-9.07 8.27-5.72 5.84-8.67 8.66-5.87 5.7-9 8.45zM786.64 456.45a76.34 76.34 0 008.12 9.71c.76.71 1.51 1.42 2.24 2.16s1.54 1.38 2.3 2.1l2.38 2 2.54 1.84a44.8 44.8 0 0011.32 5.45 43.59 43.59 0 0012.5 2.14h.56l-.36.39-1.24 1.4-.23-.19 1.13-1.5.2.4a41.92 41.92 0 01-12.95-1.09 47.55 47.55 0 01-12.19-4.88l-2.83-1.72-2.72-1.91c-.85-.7-1.7-1.42-2.52-2.17s-1.53-1.61-2.27-2.43a30.17 30.17 0 01-6.21-11.58zM596.32 247.13c-3.44-3.2-6.8-6.41-10.27-9.49s-6.88-6.22-10.51-9.12a133.42 133.42 0 00-11.34-8.11 139.6 139.6 0 00-12.12-6.95l.22-.24 1.26 2.39-.17.1-1.39-2.33-.28-.46.51.22a125.81 125.81 0 0112.53 6.35 136.36 136.36 0 0111.79 7.71 89.88 89.88 0 0110.85 9 75.35 75.35 0 019.07 10.8zM674 529.12a71.53 71.53 0 00-11.32 2.39 60.49 60.49 0 00-10.68 4.16 46.45 46.45 0 00-9.42 6.64 43 43 0 00-7.53 8.83l-.17-.1a44.09 44.09 0 017-9.45 47.27 47.27 0 019.33-7.31 38.5 38.5 0 0110.94-4.71 32.17 32.17 0 0111.84-.65zM673.37 531c-.31 2.34-.67 4.56-.9 6.79s-.63 4.44-.65 6.71a36.76 36.76 0 00.51 6.77 39.75 39.75 0 001.68 6.65l-.18.08a34.87 34.87 0 01-2.47-6.52 37.65 37.65 0 01-1.14-6.94 24.66 24.66 0 01.27-7.07 18.94 18.94 0 012.69-6.54zM636.49 419.11a64.08 64.08 0 01-11-22.78 70.08 70.08 0 01-1.66-25.39 77.35 77.35 0 0120.8-45.27l.23.21a78.76 78.76 0 00-18.64 45.26 87.92 87.92 0 002.18 24.48 99.75 99.75 0 008.34 23.38zM534.09 519.42l-9.88-8.36c-3.31-2.73-6.56-5.53-10-8.17s-6.95-5.08-10.59-7.38-7.37-4.48-11.2-6.46l.23-.36 3 2.7-.13.15-3.1-2.54-1.32-1 1.55.7c4 1.78 7.84 3.71 11.6 5.88s7.44 4.49 11 7a83 83 0 0110.23 8.09 72.92 72.92 0 018.75 9.67zM534.5 524.21c-1.79 2.12-3.68 4-5.54 6s-3.88 3.71-5.73 5.69-3.61 4-5.27 6.15-3.27 4.32-4.79 6.57l-.18-.1a79.6 79.6 0 014.16-7.06c1.52-2.28 3.15-4.48 4.88-6.62a46.42 46.42 0 015.56-6.08 33.49 33.49 0 016.78-4.7zM654.72 189.25a62 62 0 019.09-5.79c3.13-1.73 6.52-2.9 9.79-4.31l9.86-4.17c3.31-1.34 6.6-2.72 9.92-4l.13.27c-3.12 1.74-6.27 3.41-9.41 5.12l-9.47 5c-3.17 1.64-6.22 3.52-9.54 4.85a62.91 62.91 0 01-10.24 3.35zM172.89 476.63A114.26 114.26 0 00126.25 506a96.58 96.58 0 00-15.79 22.89 88.49 88.49 0 00-8.46 26.62h-.3a89.6 89.6 0 017.38-27.22 98.42 98.42 0 0115.37-23.85 87.44 87.44 0 0121.68-18.46 74.46 74.46 0 0126.68-9.6zM172.54 471.2a38.72 38.72 0 01-7.7-8.61 50.83 50.83 0 01-5-10.39 85.53 85.53 0 01-3.42-11 77.64 77.64 0 01-1.72-11.31h.29a87.94 87.94 0 002.88 10.94 81.28 81.28 0 004.13 10.41c1.61 3.39 3.66 6.51 5.39 9.8s3.63 6.52 5.38 10zM172.88 472.75a114.5 114.5 0 01-17.43 3.6 164.17 164.17 0 01-17.74 1.09q-8.88.24-17.75.05c-5.91-.18-11.82-.46-17.71-1v-.3c5.9 0 11.8 0 17.68-.23s11.77-.49 17.64-.95 11.69-1.29 17.55-1.68 11.74-.83 17.69-.91zM249.66 440.69a87.52 87.52 0 01-16.13-14.94 102.9 102.9 0 01-12.15-18.39 127 127 0 01-8.76-20.18 39.93 39.93 0 01-1.93-10.89 19.14 19.14 0 012.73-10.59l.26.16a18.5 18.5 0 00-2.09 10.39A39.36 39.36 0 00214 386.7c1.23 3.37 2.75 6.68 4.29 9.94s3.28 6.44 5.14 9.53 3.81 6.13 5.94 9 4.26 5.8 6.45 8.66 4.48 5.64 6.8 8.42 4.77 5.45 7.2 8.19zM254.29 439.87a81 81 0 0112.27-20.45 95.6 95.6 0 0117.49-16.32 115.3 115.3 0 0120.47-12.23 110.15 110.15 0 0122.53-7.49l.07.29a109.71 109.71 0 00-21.94 8.55A113.81 113.81 0 00285.52 405a144.91 144.91 0 00-16.68 16.37A171.62 171.62 0 00254.55 440zM270.84 526.17a48.82 48.82 0 014.93 7.4c1.46 2.54 2.41 5.33 3.64 8s2.44 5.34 3.71 8 2.54 5.3 3.8 8l-.26.15c-1.68-2.42-3.26-4.91-4.85-7.39s-3.06-5-4.54-7.6a60.88 60.88 0 01-4.2-7.79 38.18 38.18 0 01-2.5-8.58zM815.15 324.38a152.56 152.56 0 0114.18-8.26c2.41-1.27 4.86-2.47 7.35-3.58l7.49-3.29 14.93-6.69 15-6.58 1.58-.7-1.27 1.14-2.41 2.15-.21-.21L874 296l.31.44L859.8 304l-14.55 7.47-7.25 3.81q-3.65 1.86-7.39 3.49a153.7 153.7 0 01-15.32 5.88zM815.85 326.56a123.18 123.18 0 0117.48 5.62 174.33 174.33 0 0116.53 8q8.13 4.23 16 8.85c5.25 3.12 10.44 6.33 15.51 9.73l-.16.25c-5.31-3-10.65-5.91-16.08-8.67s-10.86-5.47-16.37-8-11.19-4.74-16.67-7.36-11-5.17-16.39-8.09z" fill="#d9e021"/></g>
            </g>
        </g>
    </symbol>
    <symbol viewBox="0 0 270 340" id="milpa-name-mobile" xmlns="http://www.w3.org/2000/svg">
    <g data-name="Milpa Name Mobile"><path d="M36 38.16s19.2-5.26 19.2-3.71 5 7.74 8.05 1.23 21.36-5.41 26.94-5.41S88.32 68.81 88.32 78a13.23 13.23 0 007.58 12.18s-.31 23.84-1.7 25.08-6.19.93-15.64-3.56S68 78 68.35 73.92s-7.59-2-11-1.39-.31 25.7-.31 27.56-12.54 12.84-12.54 12.84-7-1.54-9.14-4 1.1-70.46.64-70.77zM126.71 42.5c.15-5.42-.78-11.15-.93-16.72a3.17 3.17 0 014-2.64c4-4.18 13.93-4.18 18.88-4.18 1.55.62 3.56-1.7 4.18-.15 0 4.8-1.08 16.41-1.08 16.41-.93 14.4 1.08 25.23 2 39.32.62 8.83.47 17.65.47 26.47 0 2.17-2.17 6-2.79 8.21-1.24 3.87-5 6-8.67 7.43-3.25 1.24-9 .62-13.93-.77-.84-18.27-2.75-54.19-2.13-73.38zm8.2-30.66a5.24 5.24 0 011.09-1.7c3.25-2.48 6.81.77 4.49 4a2.41 2.41 0 01-.62.93c-.16.31-.31.31-.31.31-2.17 1.73-5.56.02-4.65-3.54zM180 14.94c-.62 0 28.18-6.81 26.32-4s-8.36 72.61-6.81 72.61 32.51 0 33.44 1.86-.62 14.09-.62 14.09-9.17 16.69-11.33 18.5-40.72.31-43.19-.31S180.58 14.94 180 14.94z" fill="#fff"/><path d="M34.48 86.79c-.47-11.46-.78-22.45.46-33.91 0-3.87.62-13.31 1.24-15.32v-.78a31 31 0 008-5.26c5.42-4.18 17-12.54 17-.62.62 1.7 1.86 3.72 2.48 5.26a16.34 16.34 0 012-4c5.42-3.72 9.29-8.36 15-8.36 2.16 0 7.43.93 10.52.46 1.71-.15 3.1-.31 4.8.62-.15 20.28-6 37-1.08 57 1.39 6.66 5.11 3.56 7.74 7.28-1.7 8-6.19 19.35-6.35 27.09-12.54 2.32-17-3.25-21.83-9.91-3.87-5.41-5.88-23.22-5.88-35.76v-6.39a28.6 28.6 0 01-2.63 5.41c-2.17 3-7.12 2.48-10.22 1.24a12.67 12.67 0 01-.62 2.63c-2.47 8.52 2.94 17.65 1.86 26-.46 3.25-9.44 11.3-10.84 14.86l-9.75-4.64a6.75 6.75 0 00-.93-.31c2.12-7.27-.35-15.16-.97-22.59zm11.3 25.54c1.7-9-2-42.57 3.1-54.8 5.1 3.56 4.8 6.81 6.5 10.68 7.89 6 11.14-3.1 14.55-8.51.31.31.93.46.93 1.39-1.39 8.51-.62 16.72.77 25.23.62 5.58 1.09 11.46 3.1 16.72 1.27 2.48 8.2 10.22 12.27 11.46a17.69 17.69 0 007.59.31c.46-1.7-.93-11.3-1.09-14.4-2.32 0-3.09-.15-4-.93v.16c-4.71-3.1-4.5-11.3-4.5-16.72.15-17.5-1.55-33.44 2.47-49.39-1.7-.15-5.41-.15-9.28-.15-5.27 0-11 .15-11.77.46-3.1 6-4.64 16.88-7.74 22.3a1.54 1.54 0 01-1.39-.47c-2.33-6-1.71-12.69-3.87-18.73-3.72 1.24-11.62 2.48-15.33 1.7 1.24 18.27-3.72 36.69-.47 55 .16 3.25 1.86 11.46.16 15a.57.57 0 01.15.46c-.05.6 7.07 2.9 7.85 3.23zM126.59 110.32c-1.24-12.85-1.39-68.27-1.7-72.61a72.36 72.36 0 01.46-8.51V29a25.11 25.11 0 012.17-4.8c5.11-10.21 15.63-3.87 24.15-7.12.46 15 .62 30.5 1.7 45.36.93 14.09 2 29.26-.62 43.2-.77 3.71-3.25 4.64-5.88 7.43-.77 7.12-9.6 3.56-15.17 4.49-5.58.5-5.11-1.2-5.11-7.24zm11 5.57a11.46 11.46 0 003.25.16 1.13 1.13 0 001.09-.62c6-16.88 4.33-35.14 2.94-52.64-1.24-12.54-1.09-25.23-.78-37.77-3.4 1.24-6.34.62-9.9 1.39a7.49 7.49 0 00-3.72 1.7 10.53 10.53 0 01-3.25 1.55c-1.24 26.79 0 53.26 1.08 79.73 0 2.17-.77 4.34 0 6.5 2.93 1.11 6.49-1.08 9.28 0zM134 10.47a54.41 54.41 0 015.73-6.35c10.22-9.75 16.72 9.29.62 12.85h-.47c-4.31.93-7.72-3.87-5.88-6.5zm6.19-.62c-3.25-.62-5.11 1.54-4.8 3.56A5.77 5.77 0 00139.9 15a5.87 5.87 0 00.31-5.15zM179.38 76.88c-.16-20.13.77-39.79.46-60.22a1.4 1.4 0 01.47-1.24c8.82-7.9 16.87-8.82 28.17-9.91a4.43 4.43 0 01.93.47c-2.16 24.77-7.27 49.85-7.27 74.77 10.21 2.63 21.52-2.63 31.73.31.47.31.47.46.78 1.08-1.09 5.11 1.55 16.41-1.24 22-2.48 4.8-7.12 9-10.37 13.47-12.7 2-30.81-.62-43.82-1.24-1.39.3.47-30.2.16-39.49zM221.49 117c0-.16.31-.47.31-.62-1.4-3.1-.78-10.68-.62-15.17-1.08.15-2.63.15-4.34.46-6.65.93-22.44 5.73-23.68-2.94-1.71-22.6-.31-47.53 1.08-65.8a132.75 132.75 0 001.24-15.48 28.48 28.48 0 00-5.11-.46c-1.55 0-3.09.15-4.64.15h-4c0 32.82-1.24 65.18-1.08 98 13.44.29 27.52 1.37 40.84 1.86z" fill="#d91a60"/><g><path d="M46.93 250.77c-.43-23.19-8.16-95.78-9-102.65s35.43-4.29 45.52 2.15 19.54 10.95 17.83 17.39-16.54 21.69-21.26 23-4.3 73.44-4.3 73.44-10.3 11.81-17.39 9.67-10.97.23-11.4-23zM154.72 243.68c3.66-4.72 7.09-38 9.24-55s12-45.53 11.17-45.53 36.93 75.59 38 78.38 10.53 44.67 8.59 47.46-15.24 2.58-16.53 0-8.59-26.63-9.66-28.13-8.59 2.15-10.1 5.37-15.67 19.54-17 20-21.48 4.94-23.84 4.94 6.48-22.76 10.13-27.49z" fill="#fff"/><path d="M49.77 265.18c-.65-20.83-2.36-40.8-4.3-61.2-1.93-19.54-3-38.65-3.65-58.2 8.38-7.73 20.19-16.53 27.7-16.53 8.59 0 27.92 8.37 38.44 13.31 11.38 6.66 11.81 10.53 8.16 21.05-3.86 10.95-23.83 17.61-33.07 22.55 0 .85-.21 1.5-.21 2.36-2.36 21.69 5.58 41.87 5.15 64l-11.81 17.6c0 3-9.23 4.51-16.32 4.51a21.48 21.48 0 01-7.51-1.08c-2.58-1.71-2.58-5.79-2.58-8.37zm7.73 7.3c2.79 0 5.58-.21 7.94-.43 5.8 0 7.52-1.29 7.52-5.37-.86-9.88-1.72-19.32-2.79-29.2C68.45 220.51 67 204 67 187c0-3.22 7.51-1.28 9.88-1.71 7.51-1.29 18.46-8.38 25.12-12.89 3-3 2.15-11.16-.64-14-7.36-7.46-27.76-15.62-43.22-15.62-5.58 0-10.52 1.07-14 3.43.26 19.79 2.19 42.79 3.91 62.06 1.72 18.69 3.65 37.8 3.87 56.91 0 3.65 1.28 7.3 5.58 7.3zm9.5-98.14a16.64 16.64 0 00-.86-4.5c-.65-3.44-1.29-6.45.21-9.88 3-7.09 11.17 3.22 11.17 9.23 0 0-.43 0-.43.22l-3 2.79c-1.71 1.71-3.43 3.43-7.08 4.08zM144.25 270.12c-2.36.43-2.36-1.5-2.15-1.72 3.23-5.58 11.82-20 14.61-30.06 3.65-13.53 6-29.64 7.94-44.45 1.51-11.6 3.65-26.2 6.44-36.94a133.29 133.29 0 004.08-20.61c2.8-1.72 4.3-4.73 5.8-8 2.15-4.08 3.87-8.16 7.3-8.16a1.14 1.14 0 00.86.43c13.75 26.41 20 55.4 31.14 82.46 2.79 7.09 11.81 23.62 10.52 28.35-3.65 12.66-3.65 27-3 39.29-2.15 2.36-4.08 2.15-6.45 1.94-8.37-.86-13.53 4.08-17.61-6.23-2.79-6.87-4.72-15-6.87-22.55-.86-3-1.71-6.23-3.43-7.95-.43-.42-2.15-.21-3.65 0a52.4 52.4 0 01.21 6.88 160.27 160.27 0 01-16.1 20 7.07 7.07 0 00-3.65 3zm24.27-6.23c.86-3.43 1.07-6 1.72-9.23.64-3 1.07-6.66 2.36-12.24 2.79-11.17 18.25-12.46 22.55-8.16 3.86 4.29 5.36 11.16 7.08 18.46 1.5 6.88 3.22 14 6.44 18.26a38.56 38.56 0 009.88-.22c1.29-.21 6 0 6.87-.86 0-6.22-5.58-10.52-7.3-17-3.65-13.1-11.16-26.2-16.1-39.3-3.87-10.95-8-22.55-11.81-33.71-4.51-13.53-8-24.27-13.53-37.58-.86 5.15-2.15 11-3.22 15.67-3.44 12-4.94 24.06-6.45 36.3-1.93 15.46-3.86 30.49-7.94 44.88a147.65 147.65 0 01-8.81 21.26l-.21.21c-2.36 3.22-1.07 2.79-4.51 7.09a152.17 152.17 0 0022.98-3.83zm6.87-41.66c-1.5-.86-1.5-1.72-1.07-2.36l.42-29.21 1.51-1.28c1.93.64 1.93 2.14 2.36 3.43a71.45 71.45 0 004.51 9.67c3.44 6.65 7.52 14.6 7.52 18.68l-1.08 1.07-13.31.22z" fill="#d91a60"/></g>
        <g data-name="Card Game 2"><path d="M13.69 333.27a7.82 7.82 0 002-.77c1.73-.49 6.91-2.43 7.48-2.53 1.44-.39 6.62-1.84 7.77-2a30.11 30.11 0 00-3.45-.58c-1.16-.2-3.74-.49-4.32-.49s-4.31-.19-5.18-.29c-.57-.39-2-1.85-1.72-2.14a6.58 6.58 0 01-.86-.87 2.48 2.48 0 011.15-.78 1 1 0 01.57-.48 24.61 24.61 0 013.74-1.46l3.74-1.17c.86-.19 5.18-1.36 6-1.36l-.57-.58s-12.37-1.16-17.84-2a11.22 11.22 0 01-1.44-.19 8.84 8.84 0 01-1.15-.2c-.57.2-4-.48-4.6-.38s-2.3-.69-2.88-.78c0-.2-.86-.68-1.15-1.07-.29-.1-.29-.49 0-.68a3.18 3.18 0 011.15-1c0-.29.58-.78.58-.78l12.37-1.75.57-.48c-1.44-.29-6.9-.68-8.34-.88a16 16 0 01-2-.78c-.58-.19-2-.48-2-.67a7.42 7.42 0 00-.86-.39v-.78a12 12 0 011.15-1.16 8 8 0 001.44-1.17 10.24 10.24 0 012.3-.88 37.21 37.21 0 013.74-1.06c.29-.2 5.18-.88 6.62-1.07l15.82-1.94 3.74-.1c1.15-.29 7.48-1.26 8-1.36.87 0 4.89-.49 5.47-.39.29-.1 5.75-.78 6.61-.78s4.32-.48 4.89-.48c1.44-.1 6.62-.49 7.49-.49a13.19 13.19 0 012.58-.19 32.26 32.26 0 013.75-.29c1.43-.2 8-.59 9.49-.59 1.43-.19 5.46-.38 6.33-.38.57-.2 7.76-.49 8.63-.49.57-.1 3.45-.39 3.74-.39.86.1 6.33-.1 6.9-.1.87.1 6.9-.48 8.92-.48.29 0 5.46-.29 5.75-.39 2 0 9.78-.39 10.93-.58 1.73 0 8.35-.2 9.5-.2a49.42 49.42 0 015.46 0h2.88a34.43 34.43 0 013.45-.19c1.44.09 7.48.09 8.92.09 1.73.1 9.78.1 11.51.1 1.15-.1 7.19-.1 8.34-.29a35.05 35.05 0 004.6-.19c1.73.09 9.21 0 10.65-.1a27.72 27.72 0 012.88.1c2.29 0 16.1.58 17.83.68.86 0 9.78.29 10.93.29l8.92.39c.57.09 5.75.38 6.33.48.57-.1 4.6.2 5.46.2 0 0 1.15.19 2 .29a13.91 13.91 0 012 .29s.87.39 1.44.68c.29 0 1.15.29.29.29 0 0-.58.68-.86 1 0 .19-.58.78-.58.78s-4.6.87-6.33 1.16c-1.15.39-10.07 1.56-12.37 1.95l-10.64 1.26c-.29.1-.87.19-.87.29h-.86s.58.29.58.39c.57.1 5.17.87 6.33 1.16.86.1 10.93 1.36 11.79 1.56s6.33 1.07 7.48 1.36a4 4 0 011.72.58s.87.29.87.39c-.29.1 0 .68 0 .87l-.29.2v.1c-.29.19-2 .67-2 1a46.47 46.47 0 00-5.47 1.55c-.86.2-5.75 1-6.62 1.07l-1.15.87 15.83 2.14a26.82 26.82 0 014 1.17c-.28 0 0 .77 0 .87l-.86.58a19.42 19.42 0 01-2.3.59c0 .19-1.73.58-1.73.58s-.29.1-.29.19v.1c-.28.19 1.44 1.17 1.44 1.46l8.35 2.23c.28.2 2.59.88 2.59 1a2.22 2.22 0 01-.29 1.17v.1l-.29.19a14.81 14.81 0 01-3.16.48 13.6 13.6 0 01-2.31.49c-.57 0-3.45.19-3.45.19-.29 0-2 .39-2.3.39-.58.1-4.89-.09-6-.09l-.86-.2c-.29 0-4.9-.19-5.18-.19-1.44-.29-11.51-.1-12.66-.2 0 0-5.47-.19-7.77-.19a29.41 29.41 0 00-3.45-.2c-1.73 0-7.48.3-8.92.2-1.73 0-9.49.29-11.5.29-1.44 0-7.2.49-7.77.39-1.73.19-8.35.48-9.5.39-.86.09-5.75.48-6.32.39-2.59.09-22.73.87-25 1.16-.87 0-8.34.29-8.92.39l-12.66 1c-2.3.29-21.86 1.07-23.87 1.17-.87.19-4.32.39-5.18.58s-5.76.58-6.33.58a11.22 11.22 0 00-1.73.29c-1.73.3-8.34.59-9.2.59-.29 0-4.89.48-5.18.48-3.45.29-11.22.88-11.51.78-1.15.19-10.07 1.75-11.22 1.75l-9.2 1.07c-1.44.19-11.22 1.45-12.09 1.65-2.59.19-10.07 1.16-10.35 1.26-1.44.1-5.18.49-5.47.49l-1.15-.2a15 15 0 01-1.72-.19 16.63 16.63 0 00-2.84-2.01v-.87c.29-.2.29-.88.29-1s.28-.39.28-.39.29-.37.58-.47z" fill="#253659"/><text transform="rotate(-10.18 1863.26 -152.128)" font-size="24" fill="#fff" stroke="#7c8c03" stroke-miterlimit="10" font-family="GoodlifeBrush,Goodlife"/><text transform="rotate(-9.54 1982.38 -223.572)" font-size="24" fill="#fff" stroke="#7c8c03" stroke-miterlimit="10" font-family="GoodlifeBrush,Goodlife"/><text transform="rotate(-8.1 2182.987 -338.8)" font-size="30" fill="#fff" font-family="GoodlifeBrush,Goodlife">C</text>
            <text transform="rotate(-7.45 2515.222 -512.471)" font-size="30" fill="#fff" font-family="GoodlifeBrush,Goodlife">a</text>
            <text transform="rotate(-6.37 2925.916 -752.563)" font-size="30" fill="#fff" font-family="GoodlifeBrush,Goodlife">r</text>
            <text transform="rotate(-5.25 3530.089 -1105.784)" font-size="30" fill="#fff" font-family="GoodlifeBrush,Goodlife">d</text><text transform="rotate(-4.39 4200.884 -1553.14)" font-size="30" fill="#fff" font-family="GoodlifeBrush,Goodlife"/><text transform="rotate(-3.48 5276.855 -2123.55)" font-size="30" fill="#fff" font-family="GoodlifeBrush,Goodlife">G</text>
            <text transform="translate(155.26 315.39)" font-size="30" fill="#fff" font-family="GoodlifeBrush,Goodlife">a</text>
            <text transform="rotate(-.93 19476.65 -10267.754)" font-size="30" fill="#fff" font-family="GoodlifeBrush,Goodlife">m</text>
            <text transform="translate(191.98 314.47)" font-size="30" fill="#fff" font-family="GoodlifeBrush,Goodlife">e</text>
        </g>
    </g>
    </symbol>
    <symbol viewBox="0 0 690 260" id="milpa-name-web" xmlns="http://www.w3.org/2000/svg">
        <g data-name="MIlpa Name Web">
            <g data-name="Card Game Banner"><path d="M411.75 72.1a7.9 7.9 0 002-.77c1.72-.49 6.9-2.43 7.48-2.53 1.44-.39 6.61-1.84 7.76-2a29.38 29.38 0 00-3.45-.58c-1.15-.2-3.74-.49-4.31-.49s-4.32-.19-5.18-.29c-.58-.39-2-1.84-1.73-2.13a7.15 7.15 0 01-.86-.88 2.48 2.48 0 011.15-.78 1.05 1.05 0 01.57-.48 25.43 25.43 0 013.82-1.5l3.74-1.16c.86-.2 5.17-1.36 6-1.36l-.58-.59s-12.37-1.16-17.83-2a11.22 11.22 0 01-1.44-.19 8.84 8.84 0 01-1.15-.2c-.58.2-4-.48-4.61-.38s-2.3-.68-2.87-.78c0-.19-.87-.68-1.15-1.07-.29-.1-.29-.48 0-.68a3.09 3.09 0 011.15-1c0-.29.57-.78.57-.78l12.37-1.75.58-.48c-1.44-.29-6.91-.68-8.34-.87a16.77 16.77 0 01-2-.78c-.57-.2-2-.49-2-.68 0 0-.58-.29-.86-.39v-.78a12 12 0 011.15-1.16 7.83 7.83 0 001.43-1.17 10.36 10.36 0 012.31-.87 35.29 35.29 0 013.74-1.07c.28-.2 5.17-.88 6.61-1.07l15.82-1.94 3.74-.1c1.16-.29 7.48-1.26 8.06-1.36.86 0 4.89-.48 5.46-.39.29-.09 5.76-.78 6.62-.78s4.32-.48 4.89-.48c1.44-.1 6.62-.49 7.48-.49a13.29 13.29 0 012.59-.19 32.06 32.06 0 013.74-.29c1.44-.2 8.05-.59 9.49-.59 1.44-.19 5.47-.38 6.33-.38.58-.2 7.77-.49 8.63-.49.58-.1 3.46-.39 3.74-.39.86.1 6.33-.1 6.91-.1.86.1 6.9-.48 8.91-.48.29 0 5.47-.29 5.76-.39 2 0 9.78-.39 10.93-.58 1.72 0 8.34-.2 9.49-.2.87-.09 5.18-.09 5.47 0h2.88c.28-.19 2.87-.09 3.45-.19 1.44.1 7.48.1 8.92.1 1.72.09 9.78.09 11.5.09 1.15-.09 7.2-.09 8.35-.29a33.4 33.4 0 004.6-.19c1.73.1 9.2 0 10.64-.1a27.72 27.72 0 012.88.1c2.3 0 16.11.58 17.84.68.86 0 9.78.29 10.93.29l8.91.39c.58.09 5.76.39 6.33.48.58-.09 4.61.2 5.47.2 0 0 1.15.19 2 .29a14 14 0 012 .29s.86.39 1.43.68c.29 0 1.15.29.29.29 0 0-.57.68-.86 1 0 .2-.58.78-.58.78s-4.6.88-6.32 1.17c-1.15.38-10.07 1.55-12.37 1.94L627.51 38c-.29.1-.86.2-.86.29h-.86s.57.29.57.39c.58.1 5.18.88 6.33 1.17.86.09 10.93 1.36 11.79 1.55s6.33 1.07 7.49 1.36a4.09 4.09 0 011.72.58s.86.29.86.39c-.28.1 0 .68 0 .88l-.28.19v.1c-.29.19-2 .68-2 1a47.61 47.61 0 00-5.46 1.55c-.87.2-5.76 1-6.62 1.07l-1.15.88 15.82 2.13a27.23 27.23 0 014 1.17c-.29 0 0 .77 0 .87l-.87.58a19.27 19.27 0 01-2.29.59c0 .19-1.73.58-1.73.58s-.29.1-.29.19v.1c-.29.2 1.44 1.17 1.44 1.46l8.34 2.23c.29.2 2.59.88 2.59 1a2.22 2.22 0 01-.29 1.17v.1l-.29.19a14.08 14.08 0 01-3.16.49 14.39 14.39 0 01-2.3.48c-.58 0-3.45.2-3.45.2-.29 0-2 .39-2.3.39-.58.09-4.89-.1-6-.1l-.87-.2c-.29 0-4.89-.19-5.18-.19-1.44-.29-11.5-.1-12.66-.19 0 0-5.46-.2-7.76-.2a29.9 29.9 0 00-3.45-.19c-1.73 0-7.48.29-8.92.19-1.73 0-9.5.29-11.51.29-1.44 0-7.19.49-7.77.39-1.72.2-8.34.49-9.49.39-.86.1-5.75.49-6.33.39-2.59.1-22.72.87-25 1.16-.86 0-8.34.3-8.92.39l-12.65 1c-2.3.29-21.87 1.07-23.88 1.17-.86.19-4.31.39-5.18.58s-5.75.59-6.33.59a9.15 9.15 0 00-1.72.29c-1.73.29-8.35.58-9.21.58-.29 0-4.89.49-5.18.49-3.45.29-11.21.87-11.5.77-1.15.2-10.07 1.75-11.22 1.75l-9.21 1.07c-1.44.19-11.22 1.46-12.08 1.65-2.59.2-10.07 1.17-10.36 1.26-1.44.1-5.18.49-5.46.49l-1.16-.2a15 15 0 01-1.72-.19 17.47 17.47 0 00-2.88-1.85V74c.29-.19.29-.87.29-1s.29-.39.29-.39.23-.41.51-.51z" fill="#253659"/><text transform="rotate(-10.18 596.225 -2517.205)" font-size="24" fill="#fff" font-family="GoodlifeBrush,Goodlife"/><text transform="rotate(-9.54 616.488 -2739.319)" font-size="24" fill="#fff" font-family="GoodlifeBrush,Goodlife"/><text transform="rotate(-8.1 625.695 -3096.42)" font-size="30" fill="#fff" font-family="GoodlifeBrush,Goodlife">C</text>
                <text transform="rotate(-7.45 708.506 -3700.182)" font-size="30" fill="#fff" font-family="GoodlifeBrush,Goodlife">a</text>
                <text transform="rotate(-6.37 778.334 -4459.946)" font-size="30" fill="#fff" font-family="GoodlifeBrush,Goodlife">r</text>
                <text transform="rotate(-5.25 880.84 -5577.55)" font-size="30" fill="#fff" font-family="GoodlifeBrush,Goodlife">d</text><text transform="rotate(-4.39 992.945 -6876.566)" font-size="30" fill="#fff" font-family="GoodlifeBrush,Goodlife"/><text transform="rotate(-3.48 1177.224 -8805.901)" font-size="30" fill="#fff" font-family="GoodlifeBrush,Goodlife">G</text>
                <text transform="translate(553.32 54.23)" font-size="30" fill="#fff" font-family="GoodlifeBrush,Goodlife">a</text>
                <text transform="rotate(-.93 3586.397 -34922.237)" font-size="30" fill="#fff" font-family="GoodlifeBrush,Goodlife">m</text>
                <text transform="translate(590.05 53.3)" font-size="30" fill="#fff" font-family="GoodlifeBrush,Goodlife">e</text>
            </g>
            <g data-name="Big milpa word" fill="#fff"><path d="M7.37 82s41.77-11.46 41.77-8.09 10.78 16.85 17.51 2.7 46.49-11.79 58.62-11.79-4 83.87-4 103.75a28.77 28.77 0 0016.51 26.61S137.06 247 134 249.7s-13.47 2-34-7.75-22.9-73.43-22.23-82.19-16.51-4.38-23.92-3-.67 55.92-.67 60-27.29 28-27.29 28-15.15-3.48-19.89-8.87S8.38 82.62 7.37 82zM204.76 91.38c.34-11.79-1.69-24.25-2-36.38 1-4.72 5.39-7.08 8.76-5.73 8.75-9.09 30.31-9.09 41.09-9.09 3.37 1.35 7.75-3.71 9.1-.34 0 10.44-2.36 35.71-2.36 35.71-2 31.32 2.36 54.9 4.38 85.56 1.35 19.2 1 38.4 1 57.6 0 4.72-4.72 13.14-6.06 17.85-2.7 8.42-10.78 13.14-18.87 16.17-7.07 2.7-19.54 1.35-30.32-1.68-2.03-39.75-6.07-117.9-4.72-159.67zm17.85-66.7C223 23.33 224 22.32 225 21c7.07-5.39 14.82 1.68 9.77 8.75a5.18 5.18 0 01-1.35 2c-.34.67-.67.67-.67.67-4.75 3.72-12.16.01-10.14-7.74zM320.63 31.42c-1.34 0 61.31-14.82 57.27-8.76s-18.19 158-14.82 158 70.74 0 72.76 4-1.35 30.65-1.35 30.65-19.87 36.38-24.59 40.42-88.59.68-94-.67 6.1-223.64 4.73-223.64zM470.61 229.26C470.11 201.85 461 116.07 460 108s41.87-5.08 53.8 2.54 23.09 12.94 21.06 20.55-19.54 25.64-25.12 27.16-5.12 86.75-5.12 86.75-12.18 14-20.55 11.42-12.95.25-13.46-27.16zM598 220.88c4.32-5.58 8.38-44.92 10.92-65s14.21-53.8 13.19-53.8 43.65 89.34 44.92 92.63 12.44 52.79 10.16 56.09-18 3-19.55 0-10.15-31.47-11.42-33.24-10.15 2.53-11.92 6.34-18.53 23.09-20 23.6-25.38 5.84-28.17 5.84 7.57-26.87 11.87-32.46z"/></g>
            <g data-name="Big milpa word top" fill="#d91a60"><path d="M4.08 187.76c-1-24.93-1.69-48.85 1-73.78 0-8.42 1.34-29 2.69-33.34V79c6.06-2.36 11.79-6.74 17.52-11.45 11.79-9.1 37.05-27.29 37.05-1.35 1.35 3.71 4 8.09 5.39 11.45a35.42 35.42 0 014.38-8.75c11.79-8.09 20.21-18.19 32.68-18.19 4.71 0 16.16 2 22.9 1 3.71-.34 6.74-.68 10.44 1.34-.33 44.13-13.13 80.51-2.35 124 3 14.48 11.11 7.74 16.84 15.83-3.71 17.51-13.48 42.1-13.81 58.95-27.29 5.05-37.06-7.08-47.5-21.56-8.42-11.79-12.8-50.53-12.8-77.81v-13.89c-1.68 4.05-3 7.75-5.73 11.79-4.71 6.4-15.49 5.39-22.23 2.7a27.8 27.8 0 01-1.35 5.73c-5.39 18.52 6.4 38.4 4 56.59-1 7.07-20.55 24.59-23.58 32.33l-21.16-10.1a12.94 12.94 0 00-2-.67c4.35-15.84-1.04-33.02-2.38-49.18zm24.59 55.58c3.7-19.54-4.38-92.64 6.73-119.25 11.12 7.75 10.45 14.82 14.15 23.24 17.18 13.14 24.25-6.73 31.67-18.52.67.67 2 1 2 3-3 18.52-1.35 36.38 1.68 54.9 1.35 12.13 2.36 24.93 6.74 36.38 2.69 5.39 17.85 22.24 26.61 24.93a38.32 38.32 0 0016.51.68c1-3.71-2-24.59-2.36-31.33-5.06 0-6.74-.34-8.76-2v.33c-10.11-6.73-9.77-24.59-9.77-36.38.34-38.06-3.37-72.76 5.39-107.45-3.71-.34-11.79-.34-20.21-.34-11.45 0-23.92.34-25.6 1-6.74 13.14-10.11 36.72-16.84 48.51-1.35 0-2 0-3-1-5.05-13.14-3.7-27.62-8.42-40.76-8.1 2.72-25.28 5.4-33.37 3.72 2.7 39.75-8.08 79.84-1 119.59.34 7.07 4 24.92.34 32.67a1.24 1.24 0 01.34 1c-.01 1.35 15.5 6.4 17.17 7.08zM204.5 239c-2.7-28-3-148.56-3.71-158a158.27 158.27 0 011-18.52v-.34a54 54 0 014.72-10.44c11.12-22.24 34-8.42 52.55-15.5 1 32.68 1.35 66.36 3.7 98.7 2 30.65 4.38 63.66-1.34 94-1.69 8.09-7.08 10.11-12.8 16.17-1.69 15.5-20.89 7.75-33 9.77-12.13.96-11.12-2.75-11.12-15.84zm23.92 12.12a24.7 24.7 0 007.07.34 2.42 2.42 0 002.36-1.35c13.13-36.71 9.43-76.46 6.4-114.53-2.7-27.28-2.36-54.9-1.69-82.19-7.41 2.7-13.81 1.35-21.56 3-3 .34-5.38 1.69-8.08 3.71-2.36 1.35-4 2.69-7.07 3.37-2.7 58.27 0 115.87 2.35 173.48 0 4.71-1.68 9.43 0 14.14 6.4 2.35 14.15-2.36 20.22-.01zm-7.75-229.43c3.33-4.69 8.08-9.44 12.46-13.81 22.23-21.23 36.38 20.21 1.35 28h-1c-9.48 1.98-16.85-8.47-12.81-14.19zm13.47-1.35C227.07 19 223 23.71 223.7 28.09c2 2.35 6.4 3.7 9.77 3.37 1.68-3.71 2.36-7.08.67-11.12zM319.36 166.2c-.33-43.79 1.69-86.57 1-131a3.07 3.07 0 011-2.69c19.2-17.18 36.71-19.2 61.3-21.56a9.16 9.16 0 012 1c-4.71 53.89-15.83 108.46-15.83 162.7 22.23 5.72 46.82-5.73 69.06.67 1 .68 1 1 1.68 2.36-2.36 11.12 3.37 35.71-2.69 47.83-5.39 10.45-15.5 19.54-22.57 29.31-27.62 4.38-67-1.35-95.33-2.7-2.98.65 1.02-65.71.38-85.92zM411 253.44c0-.34.67-1 .67-1.35-3-6.73-1.68-23.24-1.34-33-2.36.34-5.73.34-9.44 1-14.48 2-48.84 12.47-51.54-6.4-3.7-49.18-.67-103.41 2.36-143.16 1.35-11.45 2.7-22.57 2.7-33.69a62.41 62.41 0 00-11.12-1c-3.37 0-6.74.34-10.1.34h-8.76c0 71.41-2.7 141.82-2.36 213.23 29.3.66 59.93 3.02 88.93 4.03zM474 246.29c-.76-24.62-2.79-48.22-5.07-72.33-2.29-23.09-3.56-45.68-4.32-68.78 9.9-9.13 23.86-19.54 32.74-19.54 10.15 0 33 9.9 45.43 15.74 13.45 7.87 14 12.43 9.64 24.87-4.57 12.94-28.17 20.81-39.08 26.65 0 1-.25 1.77-.25 2.79-2.8 25.63 6.59 49.49 6.09 75.63l-14 20.81c0 3.55-10.91 5.33-19.29 5.33a25.45 25.45 0 01-8.88-1.27c-3.01-2.03-3.01-6.85-3.01-9.9zm9.14 8.63c3.3 0 6.6-.25 9.39-.51 6.85 0 8.88-1.52 8.88-6.34-1-11.68-2-22.84-3.3-34.52-2-20.05-3.8-39.59-3.8-59.64 0-3.8 8.88-1.52 11.67-2 8.88-1.52 21.82-9.9 29.69-15.23 3.56-3.55 2.54-13.19-.76-16.49-8.63-8.88-32.74-18.53-51-18.53-6.6 0-12.44 1.27-16.5 4.06.26 23.35 2.54 50.51 4.57 73.35 2 22.08 4.32 44.66 4.57 67.25-.04 4.29 1.45 8.6 6.56 8.6zm11.17-116a19.69 19.69 0 00-1-5.33c-.76-4.06-1.52-7.61.25-11.68 3.56-8.37 13.2 3.81 13.2 10.92 0 0-.51 0-.51.25l-3.55 3.3c-2 2-4.06 4.06-8.37 4.82zM585.64 252.13c-2.8.51-2.8-1.78-2.54-2 3.8-6.6 14-23.6 17.26-35.53 4.31-16 7.1-35 9.39-52.54 1.77-13.7 4.31-31 7.61-43.65A158.65 158.65 0 00622.18 94c3.3-2 5.08-5.59 6.85-9.39 2.54-4.82 4.57-9.65 8.63-9.65a1.32 1.32 0 001 .51c16.24 31.22 23.6 65.48 36.8 97.46 3.3 8.37 14 27.91 12.43 33.5-4.31 15-4.31 32-3.55 46.44-2.54 2.79-4.82 2.54-7.61 2.28-9.9-1-16 4.83-20.81-7.36-3.3-8.12-5.59-17.76-8.13-26.64-1-3.56-2-7.36-4.06-9.39-.5-.51-2.53-.26-4.31 0a61.19 61.19 0 01.25 8.12 188.45 188.45 0 01-19 23.6 8.49 8.49 0 00-4.32 3.55zm28.67-7.36c1-4.06 1.27-7.11 2-10.92.77-3.55 1.27-7.86 2.8-14.46 3.3-13.2 21.57-14.72 26.64-9.64 4.57 5.07 6.35 13.19 8.38 21.82 1.78 8.12 3.81 16.5 7.61 21.57a45.41 45.41 0 0011.68-.25c1.52-.25 7.1 0 8.12-1 0-7.36-6.6-12.43-8.63-20.05-4.32-15.48-13.2-31-19-46.44-4.56-12.94-9.39-26.65-13.95-39.84-5.33-16-9.39-28.68-16-44.42-1 6.1-2.54 12.95-3.81 18.53-4.06 14.21-5.84 28.42-7.61 42.89-2.29 18.27-4.57 36-9.39 53a174.7 174.7 0 01-10.41 25.13l-.25.25c-2.79 3.81-1.27 3.3-5.33 8.38a180.1 180.1 0 0027.15-4.55zm8.13-49.24c-1.78-1-1.78-2-1.27-2.79l.5-34.51 1.78-1.53c2.28.76 2.28 2.54 2.79 4.06a84.94 84.94 0 005.33 11.42c4.06 7.87 8.88 17.26 8.88 22.08l-1.26 1.27-15.74.26z"/></g>
        </g>
    </symbol>
    </defs>
    <use id="hero-box-usage" xlink:href="#hero-box" class="sprite-symbol-usage"></use>
    <use id="milpa-name-web-usage" xlink:href="#milpa-name-web" class="sprite-symbol-usage"></use>
    <use id="milpa-name-mobile-usage" xlink:href="#milpa-name-mobile" class="sprite-symbol-usage"></use>
</svg>