<?xml version="1.0" encoding="utf-8"?>
<svg xmlns="http://www.w3.org/2000/svg" xmlns:xlink="http://www.w3.org/1999/xlink">
    <defs>
        <style xmlns="http://www.w3.org/2000/svg">
            .sprite-symbol-usage {
                display: none;
            }
            
            .sprite-symbol-usage:target {
                display: inline;
            }
        </style>
        <symbol viewBox="0 0 690 260" id="milpa-cardgame" xmlns="http://www.w3.org/2000/svg">
            <g data-name="Card Game Banner"><path d="M411.61 71.94a8 8 0 002-.77c1.73-.49 6.9-2.43 7.48-2.53 1.44-.39 6.62-1.85 7.77-2a28.07 28.07 0 00-3.45-.58c-1.16-.2-3.74-.49-4.32-.49s-4.32-.19-5.18-.29c-.57-.39-2-1.85-1.73-2.14a7.31 7.31 0 01-.86-.87 2.55 2.55 0 011.15-.78c0-.1.29-.39.58-.48a24.61 24.61 0 013.74-1.46l3.74-1.17c.86-.19 5.18-1.36 6-1.36l-.53-.62s-12.38-1.17-17.84-2a13.39 13.39 0 01-1.44-.19 8.84 8.84 0 01-1.15-.2c-.58.2-4-.48-4.6-.39s-2.3-.68-2.88-.77c0-.2-.86-.68-1.15-1.07-.29-.1-.29-.49 0-.68a3.18 3.18 0 011.15-1c0-.3.58-.78.58-.78L413 47.56l.58-.48c-1.44-.29-6.91-.68-8.34-.88a16.77 16.77 0 01-2-.78c-.57-.19-2-.48-2-.68a8 8 0 00-.86-.38v-.78a13.14 13.14 0 011.15-1.17 7.68 7.68 0 001.47-1.16 10.06 10.06 0 012.3-.88 37.21 37.21 0 013.7-1.06c.28-.2 5.17-.88 6.61-1.07l15.83-2 3.74-.09c1.15-.29 7.47-1.26 8.05-1.36.86 0 4.89-.49 5.47-.39.28-.1 5.75-.78 6.61-.78s4.32-.48 4.89-.48c1.44-.1 6.62-.49 7.48-.49a13.29 13.29 0 012.59-.19 31.93 31.93 0 013.74-.3c1.44-.19 8.06-.58 9.5-.58 1.43-.19 5.46-.39 6.33-.39.57-.19 7.76-.48 8.62-.48.58-.1 3.46-.39 3.74-.39.87.1 6.33-.1 6.91-.1.86.1 6.9-.48 8.92-.48.29 0 5.46-.29 5.75-.39 2 0 9.78-.39 10.93-.58 1.73 0 8.34-.2 9.5-.2a49.42 49.42 0 015.46 0h2.88a34.43 34.43 0 013.45-.19c1.44.09 7.48.09 8.92.09 1.72.1 9.78.1 11.51.1 1.15-.1 7.19-.1 8.34-.29a35.05 35.05 0 004.6-.19c1.73.09 9.21 0 10.64-.1a27.72 27.72 0 012.88.1c2.3 0 16.11.58 17.84.68.86 0 9.78.29 10.93.29l8.92.39c.57.09 5.75.38 6.33.48.57-.1 4.6.2 5.46.2 0 0 1.15.19 2 .29a14 14 0 012 .29s.86.39 1.44.68c.29 0 1.15.29.29.29 0 0-.58.68-.87 1 0 .19-.57.78-.57.78s-4.61.87-6.33 1.16c-1.15.39-10.07 1.56-12.37 2l-10.65 1.26c-.28.09-.86.19-.86.29h-.86s.57.29.57.39c.58.09 5.18.87 6.33 1.16.87.1 10.94 1.36 11.8 1.56s6.33 1.07 7.48 1.36a4.09 4.09 0 011.72.58s.86.29.86.39c-.28.1 0 .68 0 .87l-.28.2v.09c-.29.2-2 .68-2 1a46.77 46.77 0 00-5.46 1.55c-.86.2-5.75 1-6.62 1.07l-1.15.87 15.82 2.14a26.89 26.89 0 014 1.17c-.29 0 0 .77 0 .87l-.86.58a19.36 19.36 0 01-2.3.58c0 .2-1.73.59-1.73.59s-.29.09-.29.19v.1c-.29.19 1.44 1.16 1.44 1.46l8.34 2.23c.29.2 2.59.87 2.59 1a2.29 2.29 0 01-.28 1.17v.09l-.29.2a14.8 14.8 0 01-3.17.48 13.32 13.32 0 01-2.3.49c-.57 0-3.45.19-3.45.19-.29 0-2 .39-2.3.39-.58.1-4.89-.09-6-.09l-.86-.2c-.29 0-4.9-.19-5.18-.19-1.44-.29-11.51-.1-12.66-.2 0 0-5.47-.19-7.77-.19a29.55 29.55 0 00-3.45-.2c-1.73 0-7.48.3-8.92.2-1.73 0-9.49.29-11.51.29-1.44 0-7.19.49-7.76.39-1.73.19-8.35.48-9.5.39-.86.09-5.75.48-6.33.39-2.59.09-22.72.87-25 1.16-.87 0-8.35.29-8.92.39l-12.66 1c-2.3.29-21.86 1.07-23.88 1.17-.86.19-4.31.38-5.18.58s-5.75.58-6.32.58a11.22 11.22 0 00-1.73.29c-1.73.3-8.34.59-9.21.59-.28 0-4.89.48-5.17.48-3.46.29-11.22.88-11.51.78-1.15.19-10.07 1.75-11.22 1.75l-9.21 1.07c-1.44.19-11.21 1.45-12.08 1.65-2.59.19-10.07 1.16-10.35 1.26-1.44.1-5.18.49-5.47.49l-1.15-.2a15 15 0 01-1.73-.19 16.25 16.25 0 00-2.88-1.85v-.87c.29-.2.29-.88.29-1s.29-.39.29-.39.29-.51.58-.57z" fill="#253659"/><g data-name="Card Game" fill="#fff"><path d="M470.13 60s-.23-.33-.33-.4l-.22-.27c-.1-.23-.51-1-.56-1.07s-.08-.33-.12-.41a15.51 15.51 0 01-.36-2.59 13.66 13.66 0 01.49-3.62 2.16 2.16 0 01.05-.46 6 6 0 00.31-1.17l.55-1.2.18-.4c.46-1 .86-2 1.38-2.93l.43-.76.12-.2s.69-.87.71-1a5.52 5.52 0 00.32-.47s.13-.2.12-.23a3.64 3.64 0 01.3-.41s.2-.34.25-.37a14.5 14.5 0 011.15-1.45l1.46-.8a3.54 3.54 0 01.58.07c.15 0 1.43-.16 1.62-.15h.31a4.55 4.55 0 013.1 2.29l.1.08a10.51 10.51 0 01.52 1.38v.88a2.41 2.41 0 010 .36v.33a2.57 2.57 0 01-.09.41v.61c0 .03-.46.58-.51.65l-.12.23a2.76 2.76 0 01-1.2.88c-.08 0-.39.21-.42.21l-1 .16a2.92 2.92 0 01-1.6-.37c-.44-.27-.85-.57-.89-1-.07-.66.3-1.44.76-1.24.52-.14.17-.23.68-.31a2.78 2.78 0 01.48.2c.53.31.13 1.07.68 1.48a.76.76 0 001.13 0l.24-.37.09-.26s.09-.56.09-.62a1.14 1.14 0 00.09-.19 1.34 1.34 0 00.11-.45c0-.21.05-1.52 0-1.82a2.65 2.65 0 00-2-2h-.28c-.27-.14-.3 0-.61 0l-1.19.18a3.59 3.59 0 00-.52.35 7.69 7.69 0 00-2.24 3.49c0 .06-.09.38-.09.38a6.6 6.6 0 000 .78s-.11.45-.11.48.21.54.17.73a6.82 6.82 0 01-.07 1s-.07.31-.07.34v.58c0 .06-.11 1.47-.09 1.62 0 .4.08 3.36.07 3.69l.16 1.71v.11c.06.6.12 2 .12 2l.15.19.92 1.68a1.49 1.49 0 00.58.28h.18l.32.08 1.39-.21 1.11-.29c.11 0 .77-.3.85-.37s.24-.22.3-.26.13-.11.12-.17l1-.45a19.53 19.53 0 003.29-2.74c.25-.31 1.15-2.2 1.46-2.55l.09-.23c.06 0 0-.57 0-.6a1.51 1.51 0 01.21-.46.85.85 0 01.1-.35.93.93 0 01.29-.28h.48a4.23 4.23 0 00.4.19 5.54 5.54 0 01.25.69v.21a2.37 2.37 0 01-.41.67l-.19.39a.46.46 0 00-.09.2 1.12 1.12 0 01-.22.16c-.13.11-1.23 2.27-1.31 2.38a.48.48 0 01-.11.26l-.2.27-.42.27-.72.81a2.25 2.25 0 01-.46.4s-.4.18-.45.22a3.78 3.78 0 00-.61.4l-.56.53h-.2c-.06 0-.19.15-.25.18l-.6.64a3.87 3.87 0 01-.47.28l-.37.42c-.14.05-1.15.18-1.21.21l-.63.46c-.08.05-.61.16-.69.2s-.25.16-.28.16l-.45.07a7 7 0 01-3.84-.33s-.08-.11-.11-.11a1.2 1.2 0 00-.3-.2l-.57-.34a.65.65 0 00-.22-.08c-.24-.2-1.52-1.28-1.78-1.55z"/><path d="M484.3 56.35c0-.1.26-.82.25-.91s.07-.38.18-.66l.69-1.45a5.63 5.63 0 01.38-.81c.07-.13.58-.89.73-1.09l.55-.71 1.69-2.34a2.2 2.2 0 00.2-.3h.12a3.12 3.12 0 00.52.08 5.45 5.45 0 01.75-.1 1.29 1.29 0 01.25.09 2.41 2.41 0 01.37.07l.54.17c.72-.3 1 1 .74 1l-.57 1.22c-.68 1.45-1.87 2.12-2.46 3.62l-.48 1.18a13.88 13.88 0 00.49 1.39v.09a1.53 1.53 0 00.92-.34 6.21 6.21 0 001.23-2.16l.43-1.32c.07-.16.28-1.37.32-1.53s.27-.73.26-.79l.08-.52a2.2 2.2 0 01.33-.28s.31-.17.34-.17a.92.92 0 01.25-.15.38.38 0 01.11 0c.21 0 .5.09.53.32a10.93 10.93 0 01-.06 1.4 24.62 24.62 0 00.19 3.55 4.4 4.4 0 00.37 1.61c.08.17.28.12.43.1l.33-.07a2.2 2.2 0 00.46-.19s1.87-1.36 1.87-1.39 1.38-1.69 1.43-1.76.53-1.28.61-1.35a1.31 1.31 0 01.83-.38 1.57 1.57 0 01.79.74v.09a.77.77 0 01-.2.39 5.4 5.4 0 01-.68.57s-.07.13-.1.17L498.68 55a.86.86 0 01-.2.27c-.11.13-2.2 1.95-2.31 2a1.75 1.75 0 01-1 .25l-.59.08a1.87 1.87 0 01-.4-.07c-.86-.31-1.15-1.57-1.31-2.37a2.23 2.23 0 01-.69 1.45l-.44.3c-.14.14-1.22 1.07-1.36 1.18a4.25 4.25 0 01-1.94.89h-.18C488 59 487.1 59 487 59s-1.09-.46-1.35-.58c-.06 0-.54-.41-.67-.54a2.33 2.33 0 01-.7-1.37z"/><path d="M503.85 55.09a1.7 1.7 0 01.06-.28 2.9 2.9 0 00.42-.59 7.53 7.53 0 00.61-1.25 14.76 14.76 0 00.91-1.31c0-.06-.09-.29-.1-.35s-.21 0-.3 0-.45 0-.53.06-.2.12-.2.15c-.23.08-1.13.7-1.28.71s-.35.4-.38.41-.93.8-1.08.84a3.12 3.12 0 01-1.84.3.89.89 0 00-.3-.24s-.45-.31-.52-.39a4 4 0 01-.26-.37.76.76 0 01-.23-.21 1 1 0 01-.19-.34 7.58 7.58 0 01-.13-.9 18.6 18.6 0 01.36-1.91l.65-.43a3 3 0 01.65-.13 5.07 5.07 0 01.9 0 3.22 3.22 0 01.74.15 2.75 2.75 0 00.28.09 2.72 2.72 0 01.28.36l.06.54a8.17 8.17 0 01-.42 1.35c-.16.23.11.17.11.17l.28-.22s.84-.54 1-.56.29-.15.34-.19h.09a16.25 16.25 0 011.76-.49 3.11 3.11 0 01.61.08 4.7 4.7 0 01.76.28 6.41 6.41 0 01.83.69c0 .09.14.22.15.28a3.09 3.09 0 01.29.73 2.82 2.82 0 01.21.52s.05.2.06.29a2.44 2.44 0 010 .36c0 .15-.1 1-.1 1.22a.62.62 0 01-.09.25s-.11.14-.11.16a8 8 0 01-.3.82c-.07.16-.49 1.27-.57 1.39l-.21.54a2.83 2.83 0 01-.13.68v.27s.23.18.23.21h.15c.15-.05.6-.28.69-.32s1-.65 1.12-.79.13-.14.13-.14.4-.52.48-.59a7.27 7.27 0 01.7-.8l.53-.61a12.63 12.63 0 001.44-1.73l.43-.47a1 1 0 00.21-.29c0-.07.3-1.09.32-1.16l.52-.75.15-.59a.8.8 0 01.21-.26 5 5 0 01.38-.35 1.59 1.59 0 00.36-.07h.39l.24.06a1.43 1.43 0 01.05.18v.21s-.14.34-.16.44a2.68 2.68 0 00-.27.6 3.79 3.79 0 00-.34.43 1.33 1.33 0 01-.17.44s-.16.17-.19.17c-.34.16-1.15 1.82-1.4 2a13.49 13.49 0 01-.87 1.19 3.37 3.37 0 01-.32.33 4.75 4.75 0 00-.4.77 2.45 2.45 0 01-.25.42l-.41.47a4.73 4.73 0 01-.31.43c0 .09-.27.3-.3.33s-.66.8-.71.9l-.28.18-.63.61a4 4 0 00-.57.31l-.68.1h-.63a10.07 10.07 0 00-1-.12 2 2 0 01-.26-.13 6.59 6.59 0 01-.86-.44s-.13-.11-.17-.14a4.17 4.17 0 00-.41-.46l-.44-.74a8.35 8.35 0 01-.19-.88v-.12a6.05 6.05 0 01.35-2.36z"/><path d="M526.25 51.68l.18.35c.1.41.07.44-.2.71a.63.63 0 00-.2.2s-.28.2-.34.21-.16.2-.19.2-.59.48-.65.48a4.62 4.62 0 01-1.22.5h-.24c-.19-.11-1-.66-1.18-.77l-.13-.11c-.07 0-.44-.83-.48-.89s-.51-.61-.54-.7-.25-.4-.32-.45l-.1.13a5.45 5.45 0 01-.19.62l-.31.54-.72 1.69c0 .1-.28.57-.33.63s-.08.13-.11.13a2.75 2.75 0 01-1.75.68h-.53s-.25-.1-.28-.1-.67 0-.73-.05-1.1-.5-1.33-.63c-.06-.06-.65-.52-.78-.68a2.43 2.43 0 01-.64-1.42v-.15c0-.15.05-.79 0-.85l.09-.4c.07-.22.37-.94.42-1l.31-.51c.22-.26 1.14-1.4 1.36-1.63a2.13 2.13 0 01.33-.28 1.85 1.85 0 00.22-.29 1.37 1.37 0 00.26-.14c.11 0 .51-.26.57-.29a5 5 0 01.5-.17c.06 0 .67.06.76.05l.71-.07a1.89 1.89 0 01.52.08l.26.21v.06a.41.41 0 010 .09 1.49 1.49 0 01-.22.26c-.06 0-.56.15-.62.18s-.4.49-.54.68a10.53 10.53 0 00-.66.94.92.92 0 00-.21.28s-.09.34-.12.37-.38.7-.41.79a10.46 10.46 0 00-.23 1.38v.54c0 .15.08.57.08.6a.91.91 0 00.14.22l.28.34a.34.34 0 00.13.11 1.28 1.28 0 00.21 0h.15l1.46-1.74a6.56 6.56 0 00.32-.78l.27-1a2.16 2.16 0 01.1-.25 6.2 6.2 0 00.18-.65 7.31 7.31 0 00.19-.89c0-.15-.16-1.43-.15-1.61a8 8 0 010-1l.27-1c.07-.18.31-1.17.38-1.39 0-.45-.13-2.43-.14-2.85v-2.62a2 2 0 011.28-1.2l.25.1h.48c.06 0 .49.41.55.43s.69 1.54.78 1.56.28.46.3.66v.3a4.76 4.76 0 00-.06.64l-.13 1.52c0 .09-.13.89-.15 1l-.13 1.25a3.09 3.09 0 00-.07.48v1.75l-.2.77a6.48 6.48 0 01-.06.76c0 .06-.07.46-.07.49l.14 1.49c0 .12.2 1.19.25 1.39a3.16 3.16 0 01.14.32 5.45 5.45 0 00.33.57c0 .06.2.23.26.25h.12c.11-.1.42-.07.72-.37s.18-.34.33-.63.23-.17.3-.36l.29-.18zM537.32 41.55a6.59 6.59 0 011.13-1.66c0-.09.42-.48.42-.53.42-.45.75-1 1.14-1.46l.14-.15c.09-.07.53-.76.58-.82a3.53 3.53 0 00.52-.39 8.34 8.34 0 00.56-.76 5.51 5.51 0 00.76-.86c.11-.09.64-.85.78-1s.08-.13.08-.13.47-.27.58-.37l.49-.27a4.44 4.44 0 01.73-.49 3 3 0 011.59-.46h.57a2.19 2.19 0 01.43.09 5.17 5.17 0 011.47.48l.63.45.23.43a2.63 2.63 0 00.27.47.74.74 0 01.25.19 3.76 3.76 0 00.06.51s.11.29.11.32v.27a2.1 2.1 0 01-.3 1l-.45.45a.76.76 0 01-.35.17 1.94 1.94 0 01-.33 0h-.27c-.47-.3-.13-.68.21-1a2.16 2.16 0 00.36-.93v-.12c0-.06-.08-.2-.11-.2a2 2 0 00-1-.87c-.28-.08-.92-.31-1-.3l-1.59.09a1.48 1.48 0 00-.32.14l-.17.1c0 .06-.17.16-.2.17-.26.16-.27.49-.38.71 0 0-.15.1-.14.16a12.27 12.27 0 00-1.13 2.62c-.09.07-.47.75-.56.82a1.27 1.27 0 01-.12.36 2.85 2.85 0 00-.24.5 3.67 3.67 0 00-.13.46 5.77 5.77 0 00-.56 1.11c0 .12-.25 1.28-.28 1.4a1.37 1.37 0 00-.15.37s-.11.19-.11.22a3.91 3.91 0 01-.22.82 6.61 6.61 0 01-.12.94c0 .37-.17 1.24-.16 1.33a7.2 7.2 0 000 .81v1.59l.17.84c.07.08.3.91.43 1.17l.07.18s.05.32.06.35.4.73.43.79.11.32.12.35a2.79 2.79 0 01.14.47 1.27 1.27 0 01.12.36c0 .06.13.17.16.23a2.33 2.33 0 00.38.4 1.88 1.88 0 00.48.33 3 3 0 00.59.32l1.25-.07s.56-.22.71-.29.58-.24.58-.24a9.79 9.79 0 01.75-.65c.11-.1.59-.63.7-.73a6.39 6.39 0 001.41-4.11 8.59 8.59 0 000-.88c0-.06-.08-.32-.11-.35 0-.24-.08-.32-.32-.31H549c-.21 0-1.67.19-1.88.21l-2.36.14a1.81 1.81 0 00-.34-.07 1.6 1.6 0 00-.28-.22l-.13-.12.06-.06v-.09a.65.65 0 01.07-.34.72.72 0 01.27-.1 1.64 1.64 0 01.31-.26 1.45 1.45 0 00.25-.29s.39-.08.45-.11l.93-.06H549.53l.58.11s.22.17.31.22.07.09.07.09a4 4 0 010 .6s.1 0 .1.11a3.71 3.71 0 010 1.29 6.92 6.92 0 01-.08.7s-.13.31-.13.34a4 4 0 010 .69 4 4 0 01-.16.7 7 7 0 00-.13.85 7 7 0 01-.58 1.45c0 .06-.07.18-.13.22-.42.59-1 1.17-1.43 1.74a4.12 4.12 0 01-.62.69c0 .1-.31.26-.31.29l-.85.39a1.57 1.57 0 00-.23.13c-.44.18-1.62.64-1.73.71a7 7 0 01-.92.17h-.57l-1-.06a2.85 2.85 0 00-.54-.09c-.07 0-.87-.4-1.15-.53a2.71 2.71 0 00-.53-.3l-.53-.45c-.23-.19-.89-.78-1-.87l-.32-.43a.57.57 0 01-.08-.24c-.06-.08-.4-.6-.46-.66a17.15 17.15 0 00-.7-1.61l-.58-1.59a7 7 0 01-.22-2.21 3.09 3.09 0 00.06-.45 14.75 14.75 0 011.65-5.57zM552.26 49.84c0-.09.33-.8.32-.89s.11-.36.25-.64l.81-1.38a4.9 4.9 0 01.45-.77c.08-.12.66-.83.83-1l.6-.66 1.9-2.17a3.25 3.25 0 00.23-.28h.12a3.18 3.18 0 00.51.13h.75a1.56 1.56 0 01.24.11 1.73 1.73 0 01.37.11l.52.22c.74-.24.88 1.07.64 1.08l-.67 1.17c-.82 1.38-2 1.94-2.78 3.38l-.58 1.14a14 14 0 00.36 1.42v.09a1.5 1.5 0 001-.25 6.32 6.32 0 001.42-2l.55-1.29c.08-.15.39-1.33.45-1.49s.33-.7.33-.76l.13-.52a2.16 2.16 0 01.35-.25s.32-.13.35-.13A1.16 1.16 0 01562 44a.31.31 0 01.12 0 .45.45 0 01.49.37 11 11 0 01-.18 1.39 22.19 22.19 0 00-.13 3.55 4.31 4.31 0 00.21 1.64c.07.18.28.14.43.13h.33a2.2 2.2 0 00.47-.14s2-1.19 2-1.22 1.52-1.56 1.58-1.63.64-1.22.73-1.29a1.29 1.29 0 01.86-.3c.15 0 .71.6.72.81v.09a.66.66 0 01-.22.37 7.88 7.88 0 01-.73.51s-.09.12-.11.15l-1.84 1.49a.78.78 0 01-.23.25c-.11.12-2.36 1.74-2.47 1.81a1.87 1.87 0 01-1 .16h-.6A2.79 2.79 0 01562 52c-.83-.39-1-1.67-1.09-2.48a2.25 2.25 0 01-.82 1.38l-.47.26c-.14.13-1.31 1-1.46 1a4.1 4.1 0 01-2 .71H556c-.3 0-1.18-.16-1.24-.19s-1-.56-1.28-.7c-.07-.06-.5-.46-.63-.6a2.32 2.32 0 01-.57-1.42z"/><path d="M580.28 49.66c0-.12.38-1 .41-1.18s.36-1.41.42-1.57.23-.72.23-.81v-.48a1.49 1.49 0 00-.21 0c-.09 0-.27.12-.27.12s-.15.24-.18.27-.23.25-.29.28a1.78 1.78 0 01-.12.24s-.11.12-.14.18-.09.36-.15.36a5.25 5.25 0 01-.59.28 3.72 3.72 0 00-.53.67s-.12.09-.15.12a.7.7 0 00-.15.28l-.58.79a8.41 8.41 0 00-.26.93s-.11.24-.14.24-.15.52-.15.55a1.56 1.56 0 01-.11.24l-.59.94-.26.24h-.9a1.31 1.31 0 01-.28-.12l-.3-.35c0-.06-.1-.39-.13-.54-.1-.51-.48-1.88-.48-2v-1.17c0-.09.11-.82.13-1.06 0 0 .11-.6.14-.63v-.3a.8.8 0 00-.3.16c-.06 0-.38.48-.44.54l-.42.25c-.12.12-.61 1-.7 1.06s-.62.61-.71.67a4.51 4.51 0 01-.44.52 4.44 4.44 0 01-.24.39c-.14.19-.43.64-.46.67s-.24.52-.29.67a3.08 3.08 0 01-.12.42 1 1 0 00-.14.24 3.09 3.09 0 01-.42.25l-2-.45-.3-.14a1.15 1.15 0 00-.27-.27c0-.24-.15-1.44-.15-1.71v-.24a9.45 9.45 0 01.11-1.05c0-.09.14-.48.14-.54s.11-.69.11-.75a9.14 9.14 0 01.28-1.09c0-.06.14-.57.14-.63s.08-.51.11-.54.37-1.06.46-1.18l.14-.66c0-.09-.07-.48 0-.54a2 2 0 01.57-.25h.99c.09 0 .72.2.87.23l.7.38a.27.27 0 01.18.14v.9a10 10 0 01-.15 1.84c0 .09-.08.48-.08.54v.12l.09.12a1.31 1.31 0 00.32-.25c.12-.12.86-.94 1-1s.38-.39.38-.42a9.44 9.44 0 001-.56c.15-.06.54-.25.57-.25h1.02a1.63 1.63 0 01.42.11 3.65 3.65 0 01.73.38l.3.38c.09.12.4.69.46.77a1.48 1.48 0 00.13.39 4.65 4.65 0 01.16.69h.15c.18-.19 1.1-.92 1.27-1.1a8.12 8.12 0 01.75-.5s.23-.12.29-.18a3.18 3.18 0 01.51-.13h.57a3.8 3.8 0 01.82.29c.21.12 1.06.94 1.27 1.12a5.83 5.83 0 01.15 1.44c0 .09-.28 1.26-.39 1.71a3.26 3.26 0 00-.12.39 4.69 4.69 0 00-.17.67c0 .06-.26.72-.25.78a4.37 4.37 0 01-.12.51v.39a1.18 1.18 0 00.12.27 1.31 1.31 0 00.28.12 7 7 0 00.71-.25l.87-.41.29-.24.3-.16.74-.4.72-.4s.26-.25.29-.25a.79.79 0 01.27-.15s.12-.09.15-.12.77-.47.89-.56l.68-.49c.09-.09.8-.85.86-.94s.17-.52.23-.58.6-.16.65-.16a3 3 0 01.52.14c.09 0 .3.09.3.15v.39l-.45.4-1.12.91-1.3 1.2c-.06.06-.75.4-.81.43a5.57 5.57 0 00-.62.4 3.27 3.27 0 01-.57.25c0 .06-.38.24-.44.31s-.21.09-.24.09-.56.58-.65.58l-1.1.8c-.09 0-.53.22-.59.25a7.94 7.94 0 00-.84 0h-.12a3.35 3.35 0 00-.46-.11c-.06 0-.51-.11-.63-.11s-.39-.11-.42-.14a.83.83 0 00-.15-.27 6 6 0 01-.7-.65s-.25-.47-.31-.5-.13-.12-.13-.15a3.28 3.28 0 01-.15-.51c-.05-.22.06-1.18.08-1.36z"/><path d="M589.83 46.53s.27-.5.36-.65l.34-.57.33-.33.69-.56a1.16 1.16 0 01.37-.21 7.07 7.07 0 01.81-.35c.06 0 .48-.51.54-.57l.48-.36.79-.41.57-.27a1.42 1.42 0 00.36-.21h.42a2.81 2.81 0 00.48.12c.09 0 .81.1.9.1s.54.3.69.36a6.38 6.38 0 01.53.46 4 4 0 01.36.36 4.64 4.64 0 01.12.45v1a2.8 2.8 0 01-.21.45l-.28.33a4.48 4.48 0 01-.33.47 2 2 0 01-.21.33l-.57.45-.82.68a.75.75 0 00-.21.12l-.9.32a8.79 8.79 0 00-1 .69l-.15.33c0 .06-.07 1.32-.13 1.82V51a1.09 1.09 0 00.26.6h.66a1.27 1.27 0 00.36-.09 5.13 5.13 0 001.15-.23l.57-.38c0-.06.18-.18.21-.24s.36-.21.51-.42c.37-.48.73-1.16.82-1.28a2.29 2.29 0 01.24-.33h.45c.21 0 .15.24.27.27 0 .45.2 1-.43 1.44a3.12 3.12 0 00-.63.63 3.65 3.65 0 01-1.87 1.3 1.71 1.71 0 01-.24.21c-.06 0-.45.09-.45.09l-1 .29a3 3 0 01-1.2.2h-.42a6.67 6.67 0 01-1-.13 4.52 4.52 0 01-.68-.36c-.12 0-.75-.55-.93-.67a5.76 5.76 0 01-.42-.45c0-.06-.23-.42-.23-.45l-.09-.12-.27-.58s-.06-.21-.09-.21v-.24c0-.06-.11-.63-.11-.66V47.7c.01-.18.2-.96.23-1.17zm6.74-2.53a1.76 1.76 0 00-.33.27 10.94 10.94 0 00-.91.89l-.15.21s-.06.12-.09.12a.6.6 0 01-.13.21c-.06.21-.21.66-.21.69v1c.6-.27 1.12-.56 1.72-.89a6.16 6.16 0 01.57-.32l.54-.48.13-.09.12-.24.12-.09a5.3 5.3 0 00.12-.6 2.28 2.28 0 00-.12-.33l-.23-.36-.12-.09h-.78z"/></g>
            </g>
            <g data-name="Big milpa word" fill="#fff"><path d="M7.22 81.78S49 70.33 49 73.7s10.78 16.84 17.52 2.69 46.48-11.78 58.6-11.78-4 83.87-4 103.75A28.77 28.77 0 00137.58 195s-.67 51.87-3.7 54.57-13.48 2-34-7.75S77 168.36 77.62 159.6s-16.5-4.38-23.91-3-.68 55.91-.68 60-27.28 27.95-27.28 27.95-15.16-3.36-19.88-8.75S8.23 82.46 7.22 81.78zM204.61 91.22c.34-11.79-1.68-24.26-2-36.38 1-4.72 5.39-7.08 8.76-5.73 8.76-9.1 30.32-9.1 41.09-9.1 3.37 1.35 7.75-3.7 9.1-.33 0 10.44-2.36 35.7-2.36 35.7-2 31.33 2.36 54.91 4.38 85.56 1.35 19.21 1 38.41 1 57.61 0 4.71-4.71 13.13-6.06 17.85-2.7 8.42-10.78 13.14-18.87 16.17-7.07 2.69-19.53 1.35-30.31-1.69-2.03-39.74-6.08-117.88-4.73-159.66zm17.85-66.7c.34-1.35 1.35-2.36 2.36-3.71 7.08-5.39 14.82 1.69 9.77 8.76a5.12 5.12 0 01-1.35 2c-.33.68-.67.68-.67.68-4.72 3.75-12.13.02-10.11-7.73zM320.49 31.26c-1.35 0 61.31-14.82 57.26-8.76s-18.19 158-14.82 158 70.74 0 72.76 4-1.35 30.66-1.35 30.66-19.87 36.38-24.59 40.42-88.59.67-94-.67 6.09-223.65 4.74-223.65zM470.47 229.1c-.51-27.41-9.65-113.19-10.66-121.31s41.87-5.08 53.8 2.53 23.1 13 21.07 20.56-19.55 25.63-25.13 27.12-5.08 86.79-5.08 86.79-12.18 14-20.55 11.42-12.92.3-13.45-27.11zM597.87 220.72c4.31-5.58 8.37-44.92 10.91-65S623 102 622 102s43.65 89.33 44.92 92.63 12.43 52.79 10.15 56.09-18 3-19.54 0-10.16-31.47-11.42-33.25-10.16 2.54-11.93 6.35-18.53 23.09-20 23.6-25.38 5.84-28.17 5.84 7.54-26.95 11.86-32.54z"/></g>
            <g data-name="Big milpa word top" fill="#d91a60"><path d="M3.93 187.59c-1-24.92-1.69-48.84 1-73.77 0-8.42 1.35-29 2.69-33.35v-1.68c6.07-2.36 11.79-6.74 17.52-11.45C36.94 58.24 62.2 40.05 62.2 66c1.35 3.7 4 8.08 5.39 11.45A35.69 35.69 0 0172 68.68c11.79-8.08 20.21-18.19 32.68-18.19 4.71 0 16.17 2 22.9 1 3.71-.33 6.74-.67 10.45 1.35-.34 44.13-13.14 80.51-2.36 124 3 14.49 11.11 7.75 16.84 15.84-3.7 17.51-13.47 42.1-13.81 58.94-27.29 5.06-37-7.07-47.5-21.55-8.42-11.79-12.8-50.53-12.8-77.82v-13.84c-1.68 4-3 7.75-5.72 11.79-4.72 6.4-15.5 5.39-22.24 2.7a28.2 28.2 0 01-1.34 5.72c-5.39 18.53 6.4 38.4 4 56.59-1 7.08-20.55 24.59-23.58 32.34l-21.21-10.1a13.4 13.4 0 00-2-.68c4.36-15.83-1.03-33.01-2.38-49.18zm24.59 55.58c3.7-19.53-4.38-92.63 6.74-119.24 11.11 7.74 10.44 14.82 14.14 23.24 17.18 13.14 24.26-6.74 31.67-18.53.67.68 2 1 2 3-3 18.53-1.35 36.39 1.68 54.91 1.35 12.13 2.36 24.93 6.74 36.38 2.7 5.39 17.85 22.23 26.61 24.93a38.32 38.32 0 0016.51.67c1-3.7-2-24.59-2.36-31.32-5.05 0-6.74-.34-8.76-2v.34c-10.1-6.74-9.77-24.59-9.77-36.38.34-38.06-3.37-72.76 5.39-107.46-3.7-.33-11.79-.33-20.21-.33-11.45 0-23.92.33-25.6 1-6.74 13.14-10.1 36.72-16.84 48.51-1.35 0-2 0-3-1-5.07-13.14-3.72-27.63-8.46-40.76-8.08 2.69-25.26 5.39-33.34 3.7 2.69 39.75-8.09 79.84-1 119.58.33 7.08 4 24.93.33 32.68a1.23 1.23 0 01.34 1c.01 1.36 15.5 6.41 17.19 7.08zM204.35 238.79c-2.69-27.95-3-148.55-3.7-158a156.3 156.3 0 011-18.53V62a54.67 54.67 0 014.71-10.45c11.12-22.23 34-8.42 52.55-15.49 1 32.67 1.35 66.36 3.71 98.7 2 30.65 4.38 63.66-1.35 94-1.68 8.08-7.07 10.1-12.8 16.17-1.68 15.49-20.89 7.75-33 9.77-12.13.94-11.12-2.77-11.12-15.91zm23.92 12.13a25.08 25.08 0 007.07.34 2.44 2.44 0 002.36-1.35c13.14-36.72 9.43-76.47 6.4-114.53-2.69-27.28-2.36-54.91-1.68-82.19-7.41 2.69-13.81 1.35-21.56 3-3 .34-5.39 1.68-8.09 3.71-2.35 1.34-4 2.69-7.07 3.36-2.7 58.28 0 115.88 2.36 173.48 0 4.72-1.69 9.44 0 14.15 6.4 2.39 14.14-2.33 20.21.03zm-7.75-229.4c3.37-4.71 8.09-9.43 12.46-13.81 22.24-21.22 36.38 20.21 1.35 28h-1c-9.44 1.98-16.85-8.46-12.81-14.19zM234 20.18c-7.07-1.35-11.11 3.37-10.44 7.74 2 2.36 6.4 3.71 9.77 3.37 1.67-3.7 2.35-7.07.67-11.11zM319.22 166c-.34-43.79 1.68-86.57 1-131a3.08 3.08 0 011-2.7c19.2-17.18 36.72-19.2 61.31-21.56a9.48 9.48 0 012 1c-4.72 53.89-15.83 108.46-15.83 162.7 22.23 5.72 46.82-5.73 69.05.67 1 .67 1 1 1.68 2.36-2.35 11.11 3.37 35.7-2.69 47.83-5.39 10.44-15.5 19.54-22.57 29.31-27.62 4.38-67-1.35-95.33-2.7-2.99.7 1.05-65.66.38-85.91zm91.62 87.25c0-.34.68-1 .68-1.35-3-6.74-1.69-23.24-1.35-33-2.36.34-5.73.34-9.43 1-14.49 2-48.85 12.46-51.54-6.4-3.71-49.18-.68-103.41 2.36-143.16 1.34-11.46 2.69-22.57 2.69-33.69a62.41 62.41 0 00-11.12-1c-3.36 0-6.73.34-10.1.34h-8.76c0 71.41-2.69 141.81-2.36 213.23 29.31.69 59.96 3.05 88.93 4.06zM473.82 246.13c-.76-24.62-2.79-48.22-5.07-72.33-2.29-23.1-3.55-45.68-4.32-68.78 9.9-9.13 23.86-19.54 32.74-19.54 10.15 0 33 9.9 45.43 15.74 13.45 7.86 14 12.43 9.64 24.87-4.56 12.94-28.17 20.81-39.08 26.64 0 1-.25 1.78-.25 2.8-2.79 25.63 6.6 49.48 6.09 75.62L505 252c0 3.55-10.91 5.32-19.29 5.32a25.32 25.32 0 01-8.88-1.26c-3.01-2.06-3.01-6.89-3.01-9.93zm9.14 8.63c3.3 0 6.6-.26 9.39-.51 6.85 0 8.88-1.52 8.88-6.35-1-11.67-2-22.84-3.3-34.51-2-20-3.8-39.59-3.8-59.64 0-3.81 8.88-1.52 11.67-2 8.88-1.52 21.83-9.9 29.69-15.23 3.56-3.55 2.54-13.2-.76-16.49-8.63-8.89-32.73-18.53-51-18.53-6.6 0-12.43 1.27-16.49 4.06.25 23.35 2.53 50.5 4.56 73.34 2 22.08 4.32 44.67 4.57 67.26-.01 4.28 1.52 8.6 6.63 8.6zm11.17-116a19.62 19.62 0 00-1-5.33c-.76-4.06-1.52-7.62.26-11.68 3.55-8.37 13.19 3.81 13.19 10.91 0 0-.5 0-.5.26l-3.56 3.3c-2 2-4.06 4.06-8.37 4.82zM585.49 252c-2.79.5-2.79-1.78-2.54-2 3.81-6.59 14-23.6 17.26-35.53 4.31-16 7.1-35 9.39-52.53 1.78-13.7 4.31-31 7.61-43.65A158.65 158.65 0 00622 93.86c3.3-2 5.08-5.59 6.86-9.39 2.53-4.83 4.56-9.65 8.63-9.65a1.31 1.31 0 001 .51c16.24 31.21 23.6 65.48 36.8 97.45 3.3 8.38 14 27.92 12.44 33.5-4.32 15-4.32 32-3.56 46.45-2.54 2.79-4.82 2.53-7.61 2.28-9.9-1-16 4.82-20.81-7.36-3.3-8.12-5.59-17.76-8.12-26.65-1-3.55-2-7.36-4.06-9.39-.51-.5-2.54-.25-4.32 0a59 59 0 01.26 8.12 187.89 187.89 0 01-19 23.61 8.42 8.42 0 00-4.31 3.55zm28.68-7.36c1-4.07 1.27-7.11 2-10.92.76-3.55 1.27-7.87 2.79-14.46 3.3-13.2 21.57-14.72 26.65-9.65 4.56 5.08 6.34 13.2 8.37 21.83 1.78 8.12 3.81 16.49 7.61 21.57a45.86 45.86 0 0011.68-.25c1.52-.26 7.11 0 8.12-1 0-7.36-6.6-12.43-8.63-20.05-4.31-15.48-13.2-31-19-46.44-4.57-12.94-9.39-26.65-14-39.85-5.33-16-9.39-28.67-16-44.41-1 6.09-2.54 12.94-3.81 18.53-4.06 14.21-5.83 28.42-7.61 42.89-2.28 18.27-4.57 36-9.39 53a174.59 174.59 0 01-10.41 25.12l-.25.26c-2.79 3.81-1.27 3.3-5.33 8.37a178.91 178.91 0 0027.21-4.57zm8.12-49.24c-1.78-1-1.78-2-1.27-2.79l.51-34.52 1.77-1.52c2.29.76 2.29 2.54 2.79 4.06a86.79 86.79 0 005.33 11.37c4.06 7.87 8.89 17.26 8.89 22.08l-1.31 1.29-15.74.25z"/></g>
        </symbol>
        <symbol viewBox="0 0 270 340" id="milpa-cardgame-mobile" xmlns="http://www.w3.org/2000/svg"><path d="M36.84 38.79S56 33.52 56 35.07s5 7.74 8.05 1.24S85.46 30.89 91 30.89s-1.86 38.55-1.86 47.68a13.21 13.21 0 007.62 12.23s-.31 23.84-1.71 25.08-6.19.93-15.63-3.56S68.89 78.57 69.2 74.55s-7.59-2-11-1.4-.31 25.7-.31 27.56-12.54 12.85-12.54 12.85-7-1.55-9.13-4 1.09-70.46.62-70.77zM127.56 43.12c.16-5.42-.77-11.15-.93-16.72a3.17 3.17 0 014-2.63c4-4.18 13.93-4.18 18.89-4.18 1.54.62 3.56-1.7 4.18-.15 0 4.79-1.09 16.41-1.09 16.41-.93 14.39 1.09 25.23 2 39.32.62 8.82.47 17.65.47 26.47 0 2.17-2.17 6-2.79 8.21-1.24 3.87-5 6-8.67 7.43-3.25 1.23-9 .62-13.93-.78-.89-18.27-2.75-54.18-2.13-73.38zm8.21-30.65a5.1 5.1 0 011.08-1.7c3.25-2.48 6.81.77 4.49 4a2.28 2.28 0 01-.62.93c-.15.31-.31.31-.31.31-2.17 1.72-5.57-.01-4.64-3.54zM180.82 15.56c-.62 0 28.17-6.81 26.31-4s-8.36 72.61-6.81 72.61 32.51 0 33.44 1.85-.62 14.09-.62 14.09-9.13 16.72-11.3 18.58-40.71.31-43.19-.31 2.79-102.82 2.17-102.82z" fill="#fff"/><path d="M35.33 87.41c-.46-11.41-.77-22.41.47-33.9 0-3.87.62-13.31 1.23-15.33v-.77a31.23 31.23 0 008-5.26c5.42-4.18 17-12.54 17-.62.62 1.7 1.86 3.71 2.48 5.26a16.34 16.34 0 012-4c5.42-3.72 9.29-8.36 15-8.36 2.17 0 7.43.92 10.53.46 1.7-.15 3.09-.31 4.8.62-.16 20.28-6 37-1.09 57 1.4 6.66 5.11 3.56 7.74 7.28-1.7 8.05-6.19 19.35-6.34 27.09-12.54 2.32-17-3.25-21.83-9.91-3.87-5.42-5.88-23.22-5.88-35.76v-6.4a29.36 29.36 0 01-2.64 5.42c-2.16 2.94-7.12 2.48-10.21 1.24a13.34 13.34 0 01-.62 2.63c-2.48 8.51 2.94 17.65 1.85 26-.46 3.25-9.44 11.3-10.83 14.86l-9.76-4.64a5.56 5.56 0 00-.92-.31c2.12-7.27-.31-15.17-.98-22.6zM46.63 113c1.71-9-2-42.58 3.1-54.81 5.11 3.57 4.8 6.82 6.5 10.69 7.9 6 11.15-3.1 14.55-8.52.31.31.93.47.93 1.4-1.39 8.51-.62 16.72.78 25.23.62 5.57 1.08 11.46 3.09 16.72 1.24 2.48 8.21 10.22 12.23 11.46a17.7 17.7 0 007.59.3c.46-1.7-.93-11.3-1.09-14.39-2.32 0-3.09-.16-4-.93v.15C85.65 97.17 85.8 89 85.8 83.54c.2-17.49-1.55-33.44 2.48-49.38C86.57 34 82.86 34 79 34c-5.26 0-11 .16-11.77.47-3.09 6-4.64 16.87-7.74 22.29a1.56 1.56 0 01-1.39-.46c-2.32-6-1.7-12.7-3.87-18.74C50.5 38.8 42.61 40 38.89 39.27c1.24 18.27-3.71 36.69-.46 55 .15 3.25 1.86 11.45.15 15a.57.57 0 01.16.47c0 .59 7.12 2.91 7.89 3.26zM127.44 111c-1.24-12.85-1.39-68.28-1.7-72.61a72.53 72.53 0 01.46-8.52v-.15a24.8 24.8 0 012.17-4.8c5.11-10.27 15.63-3.92 24.15-7.17.47 15 .62 30.5 1.7 45.36.93 14.09 2 29.26-.61 43.19-.78 3.72-3.26 4.65-5.89 7.43-.77 7.12-9.6 3.56-15.17 4.49-5.55.47-5.11-1.22-5.11-7.22zm11 5.57a11.52 11.52 0 003.26.15 1.12 1.12 0 001.08-.62c6-16.87 4.33-35.14 2.94-52.63-1.24-12.54-1.08-25.24-.77-37.78-3.41 1.24-6.35.62-9.91 1.4a7.32 7.32 0 00-3.72 1.7 10.53 10.53 0 01-3.25 1.55c-1.24 26.78 0 53.25 1.09 79.73 0 2.16-.78 4.33 0 6.5 2.93 1.03 6.49-1.14 9.27-.05zm-3.57-105.48a55.24 55.24 0 015.73-6.35c10.22-9.75 16.72 9.29.62 12.85h-.46c-4.34.93-7.76-3.87-5.89-6.5zm6.2-.62c-3.26-.62-5.07 1.53-4.8 3.53a5.69 5.69 0 004.49 1.55 5.94 5.94 0 00.31-5.08zM180.23 77.51c-.15-20.13.78-39.79.47-60.23a1.4 1.4 0 01.46-1.23C190 8.15 198 7.22 209.34 6.14a4.34 4.34 0 01.93.46C208.1 31.37 203 56.45 203 81.38c10.22 2.63 21.52-2.64 31.74.31.46.31.46.46.77 1.08-1.08 5.11 1.55 16.41-1.24 22-2.48 4.8-7.12 9-10.37 13.47-12.69 2-30.81-.62-43.81-1.24-1.41.29.45-30.21.14-39.49zm42.11 40.09c0-.15.31-.46.31-.62-1.39-3.09-.77-10.68-.62-15.17-1.08.16-2.63.16-4.33.47-6.66.92-22.45 5.72-23.69-3-1.7-22.6-.31-47.52 1.08-65.79a132.75 132.75 0 001.24-15.48 28.41 28.41 0 00-5.11-.47c-1.54 0-3.09.16-4.64.16h-4c0 32.82-1.23 65.17-1.08 98 13.44.35 27.5 1.44 40.84 1.9z" fill="#d91a60"/><g><path d="M47.78 251.39c-.43-23.19-8.16-95.77-9-102.64s35.43-4.3 45.53 2.15 19.54 10.95 17.82 17.39-16.54 21.69-21.26 23-4.29 73.44-4.29 73.44-10.31 11.81-17.4 9.66-10.97.2-11.4-23zM155.58 244.31c3.65-4.73 7.08-38 9.23-55s12-45.52 11.17-45.52 36.93 75.59 38 78.38 10.52 44.67 8.59 47.46-15.25 2.57-16.54 0-8.59-26.63-9.66-28.13-8.59 2.14-10.09 5.37-15.68 19.54-17 20-21.47 4.93-23.83 4.93 6.48-22.8 10.13-27.49z" fill="#fff"/><path d="M50.62 265.81C50 245 48.26 225 46.33 204.6c-1.94-19.54-3-38.65-3.65-58.19 8.37-7.73 20.18-16.53 27.7-16.53 8.59 0 27.91 8.37 38.44 13.31 11.38 6.66 11.81 10.52 8.16 21-3.87 11-23.84 17.61-33.07 22.55 0 .86-.22 1.5-.22 2.36-2.36 21.69 5.58 41.88 5.16 64L77 270.74c0 3-9.23 4.51-16.32 4.51a21.35 21.35 0 01-7.51-1.07c-2.55-1.72-2.55-5.8-2.55-8.37zm7.73 7.3c2.79 0 5.59-.22 7.95-.43 5.8 0 7.51-1.29 7.51-5.37C73 257.43 72.1 248 71 238.1c-1.72-17-3.22-33.5-3.22-50.46 0-3.22 7.52-1.29 9.88-1.72 7.51-1.29 18.47-8.37 25.12-12.88 3-3 2.15-11.17-.64-14-7.3-7.52-27.7-15.68-43.16-15.68-5.59 0-10.53 1.08-14 3.44.21 19.76 2.15 42.73 3.86 62.06 1.72 18.68 3.65 37.79 3.87 56.91.06 3.69 1.35 7.34 5.64 7.34zM67.8 175a16.71 16.71 0 00-.86-4.51c-.64-3.43-1.29-6.44.22-9.88 3-7.08 11.16 3.22 11.16 9.24 0 0-.43 0-.43.21l-3 2.79c-1.72 1.72-3.44 3.44-7.09 4.08zM145.1 270.74c-2.36.43-2.36-1.5-2.14-1.71 3.22-5.59 11.81-20 14.6-30.07 3.65-13.53 6-29.63 7.95-44.45 1.5-11.59 3.65-26.2 6.44-36.93A134.86 134.86 0 00176 137c2.79-1.72 4.29-4.72 5.8-7.94 2.14-4.08 3.86-8.16 7.3-8.16a1.12 1.12 0 00.86.43c13.74 26.41 20 55.4 31.13 82.46 2.79 7.08 11.81 23.62 10.53 28.34-3.66 12.67-3.66 27.06-3 39.3-2.15 2.36-4.08 2.15-6.44 1.93-8.38-.86-13.53 4.08-17.61-6.23-2.79-6.87-4.73-15-6.87-22.54-.86-3-1.72-6.23-3.44-8-.43-.43-2.15-.21-3.65 0a52.22 52.22 0 01.21 6.87 157.93 157.93 0 01-16.1 20 7.22 7.22 0 00-3.65 3zm24.27-6.22c.86-3.44 1.07-6 1.72-9.24.64-3 1.07-6.65 2.36-12.24 2.79-11.16 18.25-12.45 22.55-8.16 3.86 4.3 5.37 11.17 7.08 18.47 1.51 6.87 3.23 14 6.45 18.25a38.46 38.46 0 009.87-.21c1.29-.22 6 0 6.88-.86 0-6.23-5.59-10.52-7.3-17-3.66-13.1-11.17-26.2-16.11-39.3-3.87-11-8-22.55-11.81-33.72-4.51-13.52-7.95-24.26-13.53-37.58-.86 5.16-2.15 11-3.22 15.68-3.44 12-4.94 24-6.44 36.29-1.94 15.46-3.87 30.49-8 44.88a148.24 148.24 0 01-8.8 21.26l-.22.22c-2.36 3.22-1.07 2.79-4.51 7.08a150.87 150.87 0 0023.03-3.82zm6.87-41.66c-1.5-.86-1.5-1.72-1.07-2.36l.43-29.21 1.5-1.29c1.93.65 1.93 2.15 2.36 3.44a74.57 74.57 0 004.54 9.66c3.44 6.66 7.52 14.6 7.52 18.68l-1.07 1.08-13.32.21z" fill="#d91a60"/></g>
            <g data-name="Card Game Banner"><path d="M14.54 333.9a7.89 7.89 0 002-.78c1.72-.48 6.9-2.43 7.47-2.52 1.44-.39 6.62-1.85 7.77-2a28 28 0 00-3.45-.59c-1.15-.19-3.74-.48-4.32-.48s-4.31-.2-5.17-.29c-.58-.39-2-1.85-1.73-2.14a6.49 6.49 0 01-.86-.88 2.49 2.49 0 011.15-.77c0-.1.29-.39.57-.49a25.81 25.81 0 013.74-1.45l3.74-1.17c.86-.19 5.18-1.36 6-1.36l-.57-.58s-12.37-1.17-17.84-2a11.28 11.28 0 01-1.43-.2 9.51 9.51 0 01-1.16-.19c-.57.19-4-.49-4.6-.39s-2.3-.68-2.88-.78c0-.19-.86-.68-1.15-1.06-.28-.1-.28-.49 0-.69A3.28 3.28 0 013 312c0-.29.58-.77.58-.77L16 309.52l.58-.49c-1.44-.29-6.91-.68-8.35-.87a16.64 16.64 0 01-2-.78c-.58-.19-2-.48-2-.68 0 0-.57-.29-.86-.39v-.77a11.91 11.91 0 011.15-1.17 8.19 8.19 0 001.44-1.16 10.44 10.44 0 012.3-.88 36 36 0 013.74-1.07c.29-.19 5.18-.87 6.62-1.07l15.82-1.94 3.74-.1c1.15-.29 7.48-1.26 8.06-1.36.86 0 4.89-.48 5.46-.38.29-.1 5.75-.78 6.62-.78s4.31-.49 4.89-.49c1.44-.09 6.62-.48 7.48-.48a12.59 12.59 0 012.59-.2 32.06 32.06 0 013.74-.29c1.44-.19 8-.58 9.49-.58 1.44-.2 5.47-.39 6.33-.39.57-.19 7.77-.49 8.63-.49.58-.09 3.45-.38 3.74-.38.86.09 6.33-.1 6.9-.1.87.1 6.91-.49 8.92-.49.29 0 5.47-.29 5.76-.38 2 0 9.78-.39 10.93-.59 1.72 0 8.34-.19 9.49-.19a49.6 49.6 0 015.47 0h2.87a34.24 34.24 0 013.46-.2c1.43.1 7.48.1 8.91.1 1.73.1 9.78.1 11.51.1 1.15-.1 7.19-.1 8.34-.29a35 35 0 004.61-.2c1.72.1 9.2 0 10.64-.1a27.72 27.72 0 012.88.1c2.3 0 16.11.59 17.83.68.87 0 9.79.29 10.94.29l8.91.39c.58.1 5.76.39 6.33.49.58-.1 4.6.19 5.47.19 0 0 1.15.2 2 .29a15.6 15.6 0 012 .29s.86.39 1.43.68c.29 0 1.15.3.29.3 0 0-.57.67-.86 1 0 .19-.58.77-.58.77s-4.6.88-6.33 1.17c-1.15.39-10.07 1.55-12.37 1.94l-10.66 1.23c-.29.1-.86.2-.86.3h-.87s.58.29.58.38c.57.1 5.18.88 6.33 1.17.86.1 10.93 1.36 11.79 1.56s6.33 1.06 7.48 1.35a4.1 4.1 0 011.73.59s.86.29.86.39c-.29.09 0 .68 0 .87l-.29.19v.1c-.28.2-2 .68-2 1a48.14 48.14 0 00-5.47 1.56c-.86.19-5.75 1-6.61 1.07l-1.15.87 15.82 2.14a27 27 0 014 1.16c-.29 0 0 .78 0 .88l-.87.58a19.36 19.36 0 01-2.3.58c0 .2-1.72.58-1.72.58s-.29.1-.29.2v.1c-.29.19 1.44 1.16 1.44 1.45l8.34 2.24c.29.19 2.59.87 2.59 1a2.17 2.17 0 01-.29 1.16v.1l-.29.19a14.08 14.08 0 01-3.16.49 14.57 14.57 0 01-2.3.49c-.58 0-3.45.19-3.45.19-.29 0-2 .39-2.31.39-.57.1-4.89-.1-6-.1l-.86-.19c-.29 0-4.89-.2-5.18-.2-1.44-.29-11.5-.09-12.66-.19 0 0-5.46-.2-7.76-.2a32.41 32.41 0 00-3.46-.19c-1.72 0-7.48.29-8.92.19-1.72 0-9.49.3-11.5.3-1.44 0-7.19.48-7.77.39-1.72.19-8.34.48-9.49.38-.87.1-5.76.49-6.33.39-2.59.1-22.73.88-25 1.17-.86 0-8.34.29-8.92.39l-12.65 1c-2.31.29-21.87 1.07-23.88 1.16-.86.2-4.32.39-5.18.59s-5.75.58-6.33.58a10.28 10.28 0 00-1.73.29c-1.72.29-8.34.58-9.2.58-.29 0-4.89.49-5.18.49-3.45.29-11.22.87-11.51.78-1.15.19-10.07 1.74-11.22 1.74l-9.2 1.07c-1.44.2-11.22 1.46-12.08 1.65-2.59.2-10.07 1.17-10.36 1.27-1.44.09-5.18.48-5.46.48l-1.2-.28a14.28 14.28 0 01-1.72-.2 17.29 17.29 0 00-2.88-1.84v-.88c.29-.19.29-.87.29-1s.29-.39.29-.39a1 1 0 01.56-.45z" fill="#253659"/><g data-name="Card Game" fill="#fff"><path d="M73.07 322s-.23-.33-.34-.41l-.22-.27c-.09-.23-.51-1-.55-1.07s-.08-.32-.12-.4a14.54 14.54 0 01-.36-2.59 13.2 13.2 0 01.52-3.66 2.14 2.14 0 01.06-.46 8.37 8.37 0 00.31-1.17l.54-1.21.19-.39c.46-1 .85-2 1.38-2.94l.43-.76.12-.2s.69-.86.7-1A4.48 4.48 0 0076 305s.12-.2.12-.23a4.33 4.33 0 01.3-.41s.19-.33.25-.37a13 13 0 011.14-1.44l1.46-.8a2.8 2.8 0 01.59.07c.14 0 1.43-.16 1.61-.16a1.66 1.66 0 00.31.05 4.57 4.57 0 013.13 2.29l.1.08a10.36 10.36 0 01.51 1.38v.87a1.74 1.74 0 010 .37v.33a2.57 2.57 0 01-.09.41v.6a6.79 6.79 0 01-.51.66l-.11.23a2.94 2.94 0 01-1.21.88c-.08 0-.39.21-.42.21l-1 .15a2.93 2.93 0 01-1.6-.36c-.43-.27-.84-.57-.88-1.05-.07-.66.3-1.44.75-1.24.53-.14.18-.24.68-.31a2.91 2.91 0 01.49.2c.53.31.13 1.07.67 1.47a.77.77 0 001.13.05l.25-.38.08-.25s.1-.56.09-.62.1-.17.09-.2a1.63 1.63 0 00.12-.44v-1.82a2.63 2.63 0 00-2-2l-.28-.05c-.26-.14-.29 0-.61 0l-1.19.18a4.25 4.25 0 00-.52.35 7.54 7.54 0 00-2.23 3.49 3.69 3.69 0 00-.1.38 6.52 6.52 0 000 .78s-.12.44-.11.47.2.55.17.74a9.2 9.2 0 01-.07.95s-.08.31-.07.34 0 .51 0 .58-.11 1.47-.09 1.62c0 .39.08 3.35.07 3.69l.17 1.7v.12c.06.59.12 2 .12 2l.15.19.92 1.68a1.71 1.71 0 00.59.28h.18a2.82 2.82 0 00.31.07l1.39-.21 1.11-.28a8.55 8.55 0 00.86-.37s.24-.22.29-.26.14-.11.13-.17l1-.45a20.11 20.11 0 003.29-2.74c.26-.31 1.16-2.2 1.47-2.55l.09-.23c.05 0 0-.57 0-.61a1.22 1.22 0 01.2-.45.81.81 0 01.1-.35 1.12 1.12 0 01.29-.29 4.82 4.82 0 01.49 0 3.75 3.75 0 00.39.18 7 7 0 01.26.69v.22a2.2 2.2 0 01-.42.67l-.18.39a.37.37 0 00-.09.2 1 1 0 01-.22.15c-.14.11-1.24 2.28-1.31 2.38a.45.45 0 01-.12.26l-.2.28-.41.27-.73.81a2 2 0 01-.46.4s-.39.18-.45.22a4.22 4.22 0 00-.61.39L85 322h-.21c-.06 0-.19.15-.24.19l-.61.64a3.24 3.24 0 01-.47.28l-.36.42c-.14.05-1.16.17-1.21.21l-.63.46c-.09 0-.62.15-.7.2s-.25.16-.28.16l-.44.07a7.09 7.09 0 01-3.85-.34s-.07-.11-.1-.1a.91.91 0 00-.31-.2l-.56-.34a1.09 1.09 0 00-.23-.09c-.2-.26-1.48-1.34-1.73-1.56z"/><path d="M87.24 318.3c0-.09.25-.82.24-.91a6.34 6.34 0 00.19-.66l.69-1.45a5.51 5.51 0 01.37-.8c.08-.13.58-.9.74-1.1l.54-.7 1.69-2.34a2.44 2.44 0 00.21-.3h.11a3.46 3.46 0 00.53.09 5.51 5.51 0 01.74-.1 1.63 1.63 0 01.26.09 1.27 1.27 0 01.37.07l.53.17c.72-.3 1 1 .74 1l-.56 1.23c-.69 1.45-1.87 2.12-2.46 3.62l-.48 1.18c0 .13.51 1.35.48 1.39v.08a1.53 1.53 0 00.93-.33 6.55 6.55 0 001.23-2.16l.43-1.32c.07-.17.27-1.37.31-1.53s.27-.73.26-.79l.09-.52s.24-.22.32-.29.31-.16.34-.16a1.48 1.48 0 01.25-.16.25.25 0 01.12 0 .46.46 0 01.53.32 13.11 13.11 0 01-.06 1.4 23.4 23.4 0 00.19 3.55 4.24 4.24 0 00.36 1.61c.08.17.29.11.44.1l.32-.08a1.63 1.63 0 00.46-.18s1.88-1.36 1.87-1.39 1.39-1.7 1.44-1.76.53-1.28.61-1.35a1.26 1.26 0 01.83-.38 1.65 1.65 0 01.79.74v.09a.68.68 0 01-.19.39 7.59 7.59 0 01-.68.57.7.7 0 01-.1.16l-1.64 1.61a1.09 1.09 0 01-.21.27c-.1.13-2.19 2-2.31 2a1.72 1.72 0 01-1 .25l-.6.08a3.06 3.06 0 01-.4-.07c-.86-.31-1.14-1.58-1.31-2.37a2.29 2.29 0 01-.68 1.45l-.45.3c-.13.14-1.22 1.07-1.36 1.18a4.09 4.09 0 01-1.94.88h-.18c-.3 0-1.18-.06-1.25-.08s-1.09-.46-1.34-.58a9.74 9.74 0 01-.68-.55 2.26 2.26 0 01-.69-1.36z"/><path d="M106.78 317c0-.06.07-.25.06-.28a2.36 2.36 0 00.42-.59 7.36 7.36 0 00.62-1.24c.07-.13.89-1.19.91-1.31s-.1-.29-.1-.35h-.3a1.54 1.54 0 00-.54.06s-.2.11-.2.14c-.23.09-1.13.7-1.27.72a4.67 4.67 0 01-.38.4c-.09 0-.94.8-1.08.85a3.13 3.13 0 01-1.84.3 1.13 1.13 0 00-.3-.24 6.14 6.14 0 01-.53-.4s-.24-.3-.25-.36a1 1 0 01-.24-.22c-.06 0-.18-.31-.18-.34a5.58 5.58 0 01-.13-.89 17.63 17.63 0 01.36-1.91l.64-.43a3.8 3.8 0 01.65-.14 8.28 8.28 0 01.9 0 3.84 3.84 0 01.74.16l.29.09a4.39 4.39 0 01.28.36l.06.54a7.78 7.78 0 01-.43 1.34c-.15.23.11.17.11.17l.28-.21s.85-.55 1-.56.28-.15.34-.19h.09c.35 0 1.36-.51 1.75-.5a4.25 4.25 0 01.62.09 5.29 5.29 0 01.75.27 5.94 5.94 0 01.83.7c0 .08.15.22.16.28a3.87 3.87 0 01.29.72 3.13 3.13 0 01.21.52s0 .21.06.3 0 .36 0 .36c0 .15-.1 1-.11 1.22a.5.5 0 01-.09.25s-.11.13-.1.16-.25.75-.3.82-.5 1.26-.57 1.39l-.21.54a3.36 3.36 0 01-.14.68v.27a1.64 1.64 0 01.24.21h.14c.15-.05.61-.28.69-.32s1-.66 1.12-.79a.92.92 0 00.14-.14 6.22 6.22 0 01.48-.59 7.58 7.58 0 01.69-.81l.54-.6a14 14 0 001.43-1.73l.44-.47a1 1 0 00.2-.3c.06-.06.3-1.09.33-1.15l.52-.75.14-.59a1.17 1.17 0 01.21-.27l.39-.34a1.43 1.43 0 00.35-.07h.39a1.31 1.31 0 01.25.06v.38s-.14.35-.16.44a2.63 2.63 0 00-.26.61 4.06 4.06 0 00-.35.43 1.18 1.18 0 01-.16.44.52.52 0 01-.19.17c-.35.16-1.16 1.82-1.41 2a10.51 10.51 0 01-.86 1.18 3.58 3.58 0 01-.33.34 5.66 5.66 0 00-.4.77 1.61 1.61 0 01-.25.42l-.4.47a4.8 4.8 0 01-.32.43c0 .09-.26.3-.29.33a10.82 10.82 0 00-.72.89l-.28.19-.62.61a2.59 2.59 0 00-.57.31l-.68.1h-.63s-.8-.12-1-.13a1.23 1.23 0 01-.25-.12 6.66 6.66 0 01-.87-.45s-.13-.1-.16-.13a4.25 4.25 0 00-.42-.47l-.44-.73s-.16-.62-.19-.89v-.11a6.35 6.35 0 01.39-2.37z"/><path d="M129.19 313.64l.18.35c.1.41.07.44-.21.71a.46.46 0 00-.19.2s-.28.2-.34.21-.17.19-.19.2-.59.47-.65.48a4.76 4.76 0 01-1.22.5h-.24c-.19-.1-1-.66-1.19-.76l-.13-.11c-.06-.05-.44-.83-.47-.89s-.51-.62-.55-.7-.25-.4-.31-.46l-.11.13a4.83 4.83 0 01-.18.62l-.32.54-.71 1.7c0 .09-.28.57-.34.63s-.08.13-.11.13a2.69 2.69 0 01-1.74.67l-.54.05s-.25-.09-.28-.09-.66 0-.73-.06-1.1-.5-1.32-.63a7.94 7.94 0 01-.79-.68 2.43 2.43 0 01-.64-1.42v-.14-.85l.08-.4c.07-.22.37-.94.42-1l.32-.52c.21-.26 1.13-1.4 1.35-1.63a2.68 2.68 0 01.34-.27 1.32 1.32 0 00.21-.29 2.36 2.36 0 00.26-.14 5.14 5.14 0 00.58-.3l.49-.16c.06 0 .67.06.76.05l.72-.07a2.52 2.52 0 01.52.07l.26.22v.15a2 2 0 01-.21.26c-.06 0-.56.14-.62.18s-.41.49-.54.68a10.62 10.62 0 00-.67.94.92.92 0 00-.22.26s-.09.34-.11.37-.39.7-.41.79a9 9 0 00-.24 1.38v.54c0 .15.09.56.09.59a.69.69 0 00.14.23l.27.34a.73.73 0 00.13.11 1.7 1.7 0 01.21 0l.15-.05 1.47-1.73a6.56 6.56 0 00.32-.78l.27-1a1.2 1.2 0 01.09-.25 4.43 4.43 0 00.18-.65 6 6 0 00.19-.89c0-.15-.16-1.43-.14-1.61s0-.88 0-1l.27-1c.08-.19.32-1.17.39-1.39 0-.45-.14-2.43-.14-2.85v-2.62a1.89 1.89 0 011.27-1.2l.25.09c.1.06.42 0 .49.05s.49.41.55.43.68 1.54.77 1.56.29.45.31.66v.3c0 .06-.06.58-.06.64l-.13 1.52c0 .09-.13.88-.15 1l-.12 1.24a3.54 3.54 0 00-.08.49v1.75l-.2.77a6.61 6.61 0 010 .76c0 .05-.08.45-.08.48l.14 1.5c0 .12.2 1.18.25 1.39s.14.26.15.32.26.52.32.57.2.22.27.25h.12c.11-.1.41-.07.72-.37s.17-.35.33-.63.22-.17.3-.36l.28-.18zM140.25 303.51a6.22 6.22 0 011.14-1.66c0-.09.42-.48.41-.54.43-.44.76-1 1.15-1.45l.14-.16c.08-.06.52-.75.58-.81a3.42 3.42 0 00.52-.4 8.12 8.12 0 00.55-.75 4.65 4.65 0 00.76-.86c.11-.1.64-.85.78-1s.09-.12.09-.12.46-.27.57-.37l.5-.27a3.82 3.82 0 01.72-.49 3 3 0 011.6-.46h.56a1.56 1.56 0 01.43.09 5.07 5.07 0 011.47.48l.63.44.24.44a2.19 2.19 0 00.26.46 1 1 0 01.26.2 2 2 0 00.06.51s.11.29.11.32v.27a2.11 2.11 0 01-.29 1l-.46.45c0 .06-.29.17-.35.17s-.23.05-.32.05a2.1 2.1 0 00-.28 0c-.46-.3-.13-.69.21-1a1.94 1.94 0 00.37-.92V297c0-.06-.07-.21-.1-.2a2.09 2.09 0 00-1-.88c-.27-.07-.92-.3-1-.3l-1.58.1a1.3 1.3 0 00-.32.14l-.18.1c0 .06-.17.16-.2.16-.26.17-.27.5-.38.72 0 0-.14.09-.14.15a12.57 12.57 0 00-1.13 2.63c-.09.06-.47.75-.55.81a1.35 1.35 0 01-.13.37 3.8 3.8 0 00-.24.5 3.39 3.39 0 00-.12.45 6.93 6.93 0 00-.57 1.12c0 .12-.25 1.28-.27 1.4a1.38 1.38 0 00-.16.37s-.11.19-.11.22a3.49 3.49 0 01-.22.82 5.42 5.42 0 01-.12.94c0 .36-.17 1.24-.16 1.33a7.34 7.34 0 00.05.81v1.59l.17.83c.06.09.29.92.43 1.18l.07.17a1.49 1.49 0 010 .36c.07.09.41.73.44.79s.11.32.11.35a2.84 2.84 0 01.15.47 1.27 1.27 0 01.11.36c0 .06.13.17.17.23a2 2 0 00.38.39 1.68 1.68 0 00.47.34 4 4 0 00.59.32l1.26-.08s.56-.21.7-.28.59-.24.59-.24a9.39 9.39 0 01.74-.65c.12-.1.59-.64.71-.73a6.47 6.47 0 001.4-4.12v-.87a.8.8 0 00-.11-.35c0-.24-.08-.33-.32-.31H152c-.21 0-1.67.19-1.88.2l-2.37.15a1.68 1.68 0 00-.33-.07 2.45 2.45 0 00-.29-.23l-.12-.11v-.15c0-.06 0-.31.07-.34a.62.62 0 01.26-.1 1.58 1.58 0 01.32-.26s.22-.23.25-.29.38-.08.44-.12l.93-.05h1.26a17.75 17.75 0 001.93 0l.57.12a3.11 3.11 0 00.32.22l.06.09a3 3 0 010 .6s.09.05.1.11a3.71 3.71 0 010 1.29c0 .15-.08.67-.07.7s-.13.31-.13.33a5.46 5.46 0 010 .7 4 4 0 01-.17.7c0 .12-.13.76-.13.85a7.18 7.18 0 01-.57 1.44c0 .06-.08.19-.14.22-.41.6-1 1.17-1.43 1.74a4.14 4.14 0 01-.61.7c-.06.09-.32.26-.32.29l-.84.38a1.7 1.7 0 00-.24.14c-.44.17-1.61.64-1.73.7a5.55 5.55 0 01-.92.18H144.65a2.36 2.36 0 00-.55-.09c-.06-.06-.86-.4-1.14-.53a2.5 2.5 0 00-.53-.3l-.54-.45c-.22-.2-.89-.79-1-.87l-.33-.43a.73.73 0 01-.07-.24c-.07-.09-.4-.61-.47-.66-.07-.21-.53-1.32-.69-1.61l-.58-1.59a7 7 0 01-.23-2.21 3 3 0 00.07-.46 14.73 14.73 0 011.66-5.69zM155.19 311.79c0-.09.33-.79.33-.88s.1-.36.24-.64l.82-1.38a5.85 5.85 0 01.44-.77c.09-.12.66-.84.83-1l.61-.66 1.89-2.18a1.58 1.58 0 00.23-.28h.12a3.3 3.3 0 00.52.13 5.86 5.86 0 01.74 0 1.6 1.6 0 01.25.11 2.42 2.42 0 01.36.1l.52.22c.74-.24.89 1.08.65 1.09l-.68 1.17c-.81 1.38-2.05 1.94-2.77 3.38l-.59 1.13c0 .13.39 1.4.36 1.43v.09a1.49 1.49 0 00.94-.25 6.36 6.36 0 001.42-2l.55-1.28c.09-.15.4-1.34.45-1.49s.33-.7.33-.76l.13-.52a2.74 2.74 0 01.35-.25s.33-.14.36-.14a1.05 1.05 0 01.26-.13.31.31 0 01.12 0c.21 0 .49.13.5.37a13.62 13.62 0 01-.19 1.39 24.65 24.65 0 00-.13 3.54 4.52 4.52 0 00.22 1.64c.07.18.28.14.43.14l.32-.05a1.84 1.84 0 00.48-.13s2-1.2 2-1.23 1.53-1.56 1.59-1.62.64-1.23.72-1.29a1.31 1.31 0 01.86-.3c.15 0 .72.6.73.81v.09a.74.74 0 01-.23.37 6.73 6.73 0 01-.73.51s-.08.12-.11.15l-1.83 1.48a.92.92 0 01-.23.25c-.12.13-2.36 1.75-2.48 1.81a1.65 1.65 0 01-1 .16h-.6a2 2 0 01-.4-.11c-.82-.38-1-1.67-1.09-2.47a2.26 2.26 0 01-.81 1.38l-.47.26c-.15.13-1.31 1-1.46 1.05a4.24 4.24 0 01-2 .71h-.18c-.31-.05-1.18-.17-1.24-.19s-1-.56-1.29-.7c-.06-.06-.5-.46-.62-.61a2.24 2.24 0 01-.57-1.42z"/><path d="M183.22 311.62c0-.12.37-1 .4-1.18s.37-1.42.42-1.57.23-.72.23-.81v-.48h-.21a2 2 0 00-.26.13c-.07 0-.15.24-.18.27a1.35 1.35 0 01-.3.27 2 2 0 01-.11.25s-.12.12-.15.18-.08.36-.14.36a5.38 5.38 0 01-.6.28 3.72 3.72 0 00-.53.67s-.12.09-.15.12a.59.59 0 00-.14.27l-.59.79a6.81 6.81 0 00-.25.94s-.12.24-.15.24-.14.51-.14.54a1.8 1.8 0 01-.12.25l-.58.93c-.06.07-.27.25-.27.25h-.9a1 1 0 01-.27-.11l-.31-.36c0-.06-.09-.39-.12-.53-.1-.51-.49-1.89-.49-2v-1.17c0-.09.11-.81.14-1 0 0 .11-.6.14-.63v-.3a.93.93 0 00-.3.15c-.06 0-.38.49-.44.55l-.41.25c-.12.12-.62 1-.71 1.06s-.62.61-.71.67a3.66 3.66 0 01-.44.52 4.48 4.48 0 01-.23.39c-.15.18-.44.64-.47.67s-.23.51-.29.66a3 3 0 01-.11.43 1.05 1.05 0 00-.15.24 4.5 4.5 0 01-.41.25l-2-.45-.3-.15a1.37 1.37 0 00-.28-.26c0-.24-.14-1.44-.15-1.71v-.24a9.63 9.63 0 01.1-1.05c0-.09.14-.48.14-.54s.11-.7.11-.76.26-1 .28-1.08.14-.57.14-.63.09-.52.11-.55.38-1 .47-1.17l.13-.67c0-.09-.06-.47 0-.54a2 2 0 01.56-.24h.99c.06 0 .73.2.88.22l.69.38c.09 0 .18.12.18.15v.9a10.73 10.73 0 01-.15 1.83c0 .09-.08.48-.08.55v.12l.09.11a1.33 1.33 0 00.33-.24c.12-.12.85-1 1-1s.38-.39.38-.42a11.52 11.52 0 001.05-.56c.14-.06.53-.25.56-.25h1.02a2.21 2.21 0 01.42.12 3.44 3.44 0 01.73.37l.31.39c.09.12.4.68.46.77a1.2 1.2 0 00.12.39 4.64 4.64 0 01.17.69h.15c.17-.18 1.09-.91 1.27-1.1a7.83 7.83 0 01.74-.49s.24-.12.3-.18a3.18 3.18 0 01.51-.13h.57a3.72 3.72 0 01.81.29c.21.11 1.07.94 1.28 1.12a5.74 5.74 0 01.14 1.43c0 .09-.28 1.27-.39 1.72a2.63 2.63 0 00-.11.39 4.24 4.24 0 00-.17.66c0 .06-.26.73-.26.79a4.71 4.71 0 01-.11.51v.39a1.18 1.18 0 00.12.27.77.77 0 00.27.11 5.24 5.24 0 00.72-.25l.86-.4.3-.25.29-.15.75-.4.71-.4s.27-.25.3-.25.24-.15.26-.15.12-.1.15-.13.78-.46.89-.55l.69-.49c.09-.09.79-.86.85-.95s.17-.51.23-.57.6-.16.66-.16a2.86 2.86 0 01.51.14c.09 0 .3.09.3.15v.39c0 .03-.29.27-.44.39l-1.13.92-1.3 1.19c-.06.06-.74.41-.8.44a4.77 4.77 0 00-.62.4 4.91 4.91 0 01-.57.25c0 .06-.39.24-.45.3s-.21.1-.23.1-.57.58-.66.58l-1.09.8a1.86 1.86 0 00-.6.25 7.94 7.94 0 00-.84 0H186a3.24 3.24 0 00-.45-.11c-.06 0-.51-.11-.63-.11a3.46 3.46 0 00-.43-.14.83.83 0 00-.15-.27 6.92 6.92 0 01-.7-.65 4.63 4.63 0 00-.31-.51s-.12-.11-.12-.14a3.33 3.33 0 01-.16-.51c.04-.32.14-1.28.17-1.46z"/><path d="M192.76 308.49s.28-.51.37-.66l.33-.56.33-.33.7-.57a1.08 1.08 0 01.36-.2c.09-.06.72-.33.81-.36s.49-.5.55-.56l.48-.36.78-.41.57-.27a1.48 1.48 0 00.37-.21h.42a2.06 2.06 0 00.47.13c.09 0 .81.09.9.09s.54.31.69.37a6.1 6.1 0 01.54.45 3.83 3.83 0 01.36.37s.08.36.11.45v1a3 3 0 01-.22.45l-.27.32a4.58 4.58 0 01-.33.48 2.1 2.1 0 01-.22.33l-.57.45-.81.68a.63.63 0 00-.21.12l-.91.32a10 10 0 00-1 .68l-.15.33c0 .06-.07 1.32-.14 1.83v.06a1.1 1.1 0 00.27.6h.66a1.27 1.27 0 00.36-.09 5 5 0 001.14-.23l.57-.39c0-.06.18-.18.21-.23s.37-.21.52-.42c.36-.48.73-1.17.82-1.29a2.22 2.22 0 01.24-.32h.45c.21 0 .15.24.27.27 0 .45.2 1-.43 1.44a3.07 3.07 0 00-.64.62 3.58 3.58 0 01-1.87 1.31 1.71 1.71 0 01-.24.21c-.06 0-.45.09-.45.09l-1 .29a3.15 3.15 0 01-1.2.2h-.42a6.67 6.67 0 01-1-.13 5.13 5.13 0 01-.69-.36c-.12 0-.75-.55-.92-.67a5.76 5.76 0 01-.42-.45c0-.06-.24-.43-.24-.46a1.2 1.2 0 01-.09-.12l-.26-.57s-.06-.21-.09-.21v-.24c0-.06-.12-.63-.12-.66v-1.5c.05-.12.23-.9.26-1.11zm6.74-2.56a1.76 1.76 0 00-.33.27c-.15.12-.79.74-.91.89l-.15.21s-.06.12-.09.12a.75.75 0 01-.12.21c-.06.21-.21.66-.21.69v1c.6-.27 1.11-.57 1.71-.89.13-.09.52-.3.58-.33l.54-.47.12-.09.12-.24.12-.09a5.46 5.46 0 00.13-.6 2.28 2.28 0 00-.12-.33l-.24-.36-.12-.09h-.78z"/></g>
            </g>
        </symbol>
        <symbol preserveAspectRatio="xMidYMid slice" viewBox="0 0 960 560" id="play-background" xmlns="http://www.w3.org/2000/svg"><path fill="#253659" d="M-1.5-.27h962v560h-962z"/><path data-name="Mountain 1" d="M-.32 560.23h948.73L884 538c-11.44-4-23.11-8-35.21-8.3-21.62-.61-43 10.49-64.24 6.1-26.34-5.46-43.44-33-69.53-39.63-31.39-8-63.08 17-95.22 12.95-30.28-3.78-51.29-31.44-78.38-45.47-49.3-25.53-108.7-2.82-164.2-3.84-59.53-1.09-114.57-29.92-167.05-58L143.37 366c-9.8-5.26-19.7-10.58-28-18-14.07-12.48-22.57-29.87-31.52-46.41s-19.31-33.33-35.44-43c-14.94-9-36.14-9.61-48.72 1.84z" fill="#c7b299"/><path data-name="Mountain 2" d="M960.8 561.21V253.88a29.26 29.26 0 00-18.59 4c-14.26 8.38-18.42 26.51-24.53 40.64-5.39 12.44-14.44 25.13-27.83 27.19-14.62 2.24-30.1-9-43.6-2.92-10.46 4.69-14.26 17.66-14.63 29.12s1.38 23.42-2.94 34.05c-6.62 16.3-25.48 24.18-43 25.79s-35.32-1.31-52.71 1.35c-44.5 6.8-75.72 47.45-117.2 64.92-31.68 13.36-67.33 12.38-101.68 10.9s-69.86-3.09-102 9.18c-27.78 10.62-51.13 34.63-55.77 63.13z" fill="#603813"/><g data-name="Tuna 4"><path d="M291.23 169.44c8.14 7.47 17.53 14.24 28.4 16.22 16.39 3 32.49-5.33 47.08-13.37 12.75-7 26.15-14.68 33.24-27.4 6-10.77 6.57-23.75 5.31-36A136 136 0 00372.77 34c-6.47-7.43-13.92-14.27-22.9-18.32-7.22-3.26-15.14-4.6-22.95-5.91-4.61-.77-9.36-1.56-13.92-.53a36 36 0 00-8.5 3.53l-16.95 8.79q-13.67 7.08-27.29 14.25c-3.51 1.86-7.15 3.83-9.48 7-6.9 9.49-1.58 25.08-3 36-1.33 10.56-.93 18.13 2.68 28.46 8.21 23.47 22.22 45.61 40.77 62.17z" fill="#d91a60"/><path d="M401.82 105a1.64 1.64 0 002.77-1.37c-2.74-25.5-15.06-50.15-32.06-69.63-6.47-7.43-13.92-14.26-22.9-18.32-7.22-3.26-15.14-4.6-22.95-5.91-4.61-.77-9.36-1.54-13.92-.51a36.27 36.27 0 00-8.51 3.53l-16.94 8.79C278.2 26.26 269.09 31 260 35.78c-3.52 1.86-7.15 3.84-9.48 7-6.9 9.5-1.58 25.09-3 36-1.34 10.56-.93 18.13 2.68 28.46 8.18 23.39 22.19 45.53 40.74 62.09-5.38-6.77-6.57-17.42-5-25.92.84-4.47 2.68-9.1 1.23-13.41-1.24-3.71-4.64-6.25-6.53-9.67-5.32-9.61 2.42-23-3.76-32.09-3.95-5.79-12.67-8-13.05-15.86a10.81 10.81 0 014.93-9.32c6.8-4.6 14.75-3.16 22.2-1.68l29.13 5.75a11.16 11.16 0 009.18-2.11c8.16-6.56-3.08-17.83 4.85-24.37a10 10 0 018-2 56.41 56.41 0 0131.76 16.89c10.86 11.46 16.34 26.88 21.54 41.77 1.09 3.13 3.91 5.29 6.4 7.69z" fill="#ff7bac"/><path d="M400.12 142.48c.12 3.12-3 5.92-5.53 8.66-7.49 8-17.29 13.44-26.78 18.67-14.59 8-30.7 16.35-47.08 13.37-6.19-1.13-27.88-9.26-27.66-17.21.25-9.33 22.55-12.27 28.8-12.75 10.76-.81 21.91-.3 31.9-4.36 5.56-2.25 10.46-5.82 15.61-8.89s10.8-5.74 16.8-5.85c4.36-.08 9.43 1.46 12.37 4.85a5.6 5.6 0 011.57 3.51z" fill="#9e005d"/></g>
            <g data-name="Nopal"><path d="M842.86 560.84h.21a407.66 407.66 0 009.52-96C850.2 357.35 796.86 249 704.91 193.3c-40.47-24.51-86.61-38.3-133.14-46.91-61.88-11.39-126.3-13.78-187.31 1.61S266 197.74 230 249.39c-24 34.43-37.61 75.09-46.21 116.15a546.73 546.73 0 00-9 58.73c-4.46 45.55-3.08 92 7 136.57z" fill="#324001"/><path d="M835.16 560.84a105.23 105.23 0 002.31-13.3c2.28-20.39 2.49-40.95 2.69-61.46.34-34.13.59-68.9-9.37-101.55-6.69-21.95-18.28-43.26-18.84-66.65-.2-8.09 1.34-7.69-6.19-9.63-5.73-1.48-11.68-2.06-17.42-3.62A109.91 109.91 0 01756 290.31c-14.32-9.59-23.76-20.57-34-34.2-3.72-4.94-7.18-10-10.63-15.15-1.92-2.85-3.87-5.69-5.82-8.53-.12-.18-.22-.32-.32-.48a80.01 80.01 0 01-3.79-5.41c-1.69-1-3.36-2-5.08-3-4.57-2.62-9.13-5.25-13.8-7.71q-3.48-1.85-7-3.55l-1.91-.88c-2.69-.68-5.6-1.23-6.18-1.43l-2.14-.44c-1.09-.08-2.18-.16-3.27-.21a127.68 127.68 0 00-15.9.36l-33.23 3.9a151.51 151.51 0 01-17.7.9c-28.07-.44-55.12-9.82-79.45-23.34-4.11-2.28-6.86-4.12-11.49-4.7a88.46 88.46 0 01-12.89-2.63 95.56 95.56 0 01-24.06-10.53 94.23 94.23 0 01-16.71-13.06c-2.2-2.16-4.26-5.54-6.89-7.1s-6.37-2.42-9.27-3.86a75.24 75.24 0 01-13.47-8.52q-13.25 1.84-26.35 4.7a70.55 70.55 0 01-20.95 18.83 69.78 69.78 0 01-52.26 7.21q-4.68 2.39-9.27 4.94a83.37 83.37 0 014.36 20.78c3.8 46.48-40 85.18-85.62 70.15a87 87 0 01-9.92-4c-18.45 31.18-29.7 66.44-37.15 102a543.86 543.86 0 00-9 58.73c-4.47 45.61-3.08 92.15 7 136.76z" fill="#7c8c03"/><path d="M647.07 209.63c-7.89 2.05-17 4.73-23.28 10.08-5.32 4.53-11 11-11.29 18.34-.17 4.44.74 9-.26 13.3-1.81 7.9-10.69 13.45-18.57 11.53s-13.21-11-10.94-18.83 10-12.17 17.07-15.88c3.24-1.7 6.48-3.63 8.82-6.51 2.15-2.66 4.81-6.14 5.51-9.55" fill="#324001"/></g>
            <g data-name="Black spots"><path d="M392.34 447.55c-1.74 2.49-3.56 5.28-3.23 8.3.45 4.07 4.48 6.62 8.09 8.56 4.66 2.51 9.78 5.1 15 4.14s9.52-5.85 10.38-11.22-1.28-10.95-5-14.91c-3.13-3.34-9.09-7.67-14-6.81-5.29.92-8.51 8.05-11.24 11.94zM273.89 317.29c-2 6-.71 13.4 4.34 17.2 4.17 3.15 10 3.26 15 1.47s9-5.21 12.88-8.76a25 25 0 005.52-6.5 9.58 9.58 0 00.67-8.25c-1.77-3.93-6.47-5.42-10.64-6.47-5.09-1.29-12.62-5.11-17.41-2.13-4.54 2.8-8.71 8.48-10.36 13.44zM569.75 425.85c2.09 8.92 3.48 18.31 8.49 26s15.1 13 23.47 9.31c8-3.53 10.9-13.34 11.39-22s-.44-17.88 3.41-25.69c5.27-10.69 19.79-15.61 30.46-10.32s15.57 19.81 10.26 30.48c-2.08 4.2-5.41 7.64-8 11.55a37.67 37.67 0 0015.88 55.1c8 3.65 17.07 4.35 25.87 5.24s17.85 2.11 25.45 6.62 13.44 13.14 12 21.87c-1.74 11-13.32 17.27-23.87 20.76-11.82 3.92-26 6.06-35.8-1.58s-11.24-21.4-17.23-32.14a41.09 41.09 0 00-68.13-5.52c-8.3 10.49-11.51 25-22.06 33.2-12.5 9.74-33.32 5.51-41-8.33s-.35-33.77 14.51-39.28c5.74-2.12 12-2.28 18-3.48s12.25-3.85 15.26-9.19c4.61-8.21-.32-18.32-5.17-26.39l-24.65-41c-4.34-7.22-10.14-15.32-18.56-15.37-6.5 0-11.95 4.92-18.29 6.36s-13.18-.87-18.48-4.72-9.41-9.1-13.43-14.27c-6.7-8.63-13.69-18-14.08-28.94a26.66 26.66 0 0111.23-22.46c6.92-4.81 17.66-6.75 25.23-2.43 3.28 1.88 5.51 5.36 8.45 7.67 4.5 3.54 4.72 9.57 3.81 15.23-.56 3.45-1.92 6.82-1.71 10.31.25 4.31 2.9 8.15 6.09 11.07 9.7 8.87 23.8 10.59 35.59 16.39 10.86 5.25 22.86 14.23 25.61 25.95zM189.5 460.23c2.53 2.84 4.18 6.34 5.8 9.78 4.65 9.86 13.62 34.65 27.59 34.24 4.65-.14 8.94-3 11.69-6.75s4.18-8.33 5.09-12.91a69.8 69.8 0 00.46-24.67c-1.12-7-3.29-14.28-1-21A16.64 16.64 0 01271.5 444c.07 4.55-2 9.29-5.91 11.62-4.51 2.68-10.68 1.89-14.71 5.25-4.76 4-4 11.41-2.39 17.38s3.76 12.69.64 18.05c-1.3 2.24-3.43 4-4.23 6.47-1.33 4.06 1.63 8.53 5.48 10.39 12.35 6 27.31-2.65 38.91 6.76a18.76 18.76 0 01-13.93 33.21c-7-.78-12.9-5.37-17.87-10.32S248 532.32 242 528.65c-6.83-4.2-15-5.55-22.63-7.95s-15.51-6.43-19-13.68c-1.5-3.15-2.06-6.73-3.9-9.7s-5.74-5.19-8.81-3.52c-3.91 2.13-3.5 8.7-7.48 10.72-2.74 1.39-6.23-.36-7.83-3s-1.8-5.83-2-8.89c-.21-4.13-.9-7.64-.12-11.59.92-4.66 2.24-8.53 1.62-13.42a34.39 34.39 0 01-.67-6.61c.72-9.1 14.39-5.62 18.32-.78zM711.21 356.55a18.38 18.38 0 0015.32 8.9 16.73 16.73 0 0014.94-9.21c4.79-10.1-3.65-23-15.08-22.14-11.13.83-21.71 11.58-15.18 22.45zM205.9 336.37a18.44 18.44 0 0015.88-7.88 16.76 16.76 0 00.53-17.55c-5.79-9.56-21.19-9.62-26.78.4-5.44 9.74-2.3 24.49 10.37 25.03zM456.3 259.38c-.82 4.52.78 9.23 3.46 13s6.33 6.64 10.05 9.34c4.51 3.29 9.65 6.47 15.22 6.09 6.18-.41 11.49-5.52 13-11.52 5.97-23.64-37.13-42.13-41.73-16.91zM388.18 216.91c.15 10.33 9.52 19.64 19.86 19.73s19.86-9.06 20.19-19.39c.24-7.47-3.65-14.39-7.43-20.85-1.47-2.52-3-5.13-5.46-6.76-9.5-6.37-9.45 8.18-14 12-6.27 5.3-13.34 4.04-13.16 15.27zM799.21 332.13a25 25 0 0018.58 19.11c3.93.89 8.93.26 10.61-3.4 1.24-2.73.06-5.9-1.13-8.65l-9.84-23c-8.34-19.4-20.53 4.25-18.22 15.94zM779.73 430.94c-3.36 3.54-4.59 8.54-5.7 13.29-1.79 7.7-3.45 16.37.78 23 4.36 6.91 13.24 9 20.32 13.1a37.17 37.17 0 0117.73 25c3.06-1.35 4.95-4.58 5.55-7.87s.14-6.67-.34-10L813.69 457c-.78-5.48-1.64-11.16-4.69-15.78-5-7.62-21.19-18.84-29.27-10.28zM830.11 550.59c0 2.62.11 5.32 1.14 7.73a8.65 8.65 0 001.67 2.52h8.56a8.46 8.46 0 001.47-2 20.42 20.42 0 001.76-7.13c.88-7.3 3.06-15 2.55-22.33a25 25 0 00-1.59-8.52c-1.17-2.65-3.52-5-6.41-5.3-3.52-.39-6.78 2.34-8.18 5.6s-1.37 6.92-1.3 10.46z" fill="#324001"/><ellipse cx="289.88" cy="320.48" rx="10.18" ry="8.46" transform="rotate(-45 289.877 320.48)" stroke="#000" stroke-miterlimit="10"/><ellipse cx="536.92" cy="525.54" rx="6" ry="7.2" stroke="#000" stroke-miterlimit="10"/><ellipse cx="675.49" cy="531.26" rx="5.32" ry="5.06" transform="rotate(-70.4 675.492 531.26)" stroke="#000" stroke-miterlimit="10"/><ellipse cx="637.57" cy="422.87" rx="5.88" ry="4.94" transform="rotate(-78.73 637.56 422.865)" stroke="#000" stroke-miterlimit="10"/><ellipse cx="726.06" cy="349.29" rx="6.21" ry="6.26" transform="rotate(-37.66 726.127 349.292)" stroke="#000" stroke-miterlimit="10"/><ellipse cx="791.46" cy="454.78" rx="5.7" ry="6" stroke="#000" stroke-miterlimit="10"/><ellipse cx="843.35" cy="543.05" rx="6.69" ry="10.52" transform="rotate(-6.56 842.816 542.77)" stroke="#000" stroke-miterlimit="10"/><ellipse cx="817.91" cy="327.7" rx="5.11" ry="10.52" transform="rotate(-25.84 817.804 327.67)" stroke="#000" stroke-miterlimit="10"/><ellipse cx="598.15" cy="246.79" rx="4.23" ry="5.73" transform="rotate(-78.07 598.178 246.775)" stroke="#000" stroke-miterlimit="10"/><ellipse cx="659.04" cy="191.39" rx="4.93" ry="9.14" transform="rotate(-73.8 659.086 191.376)" stroke="#000" stroke-miterlimit="10"/><ellipse cx="275.02" cy="528.42" rx="7.88" ry="6.63" transform="rotate(-70.88 275.024 528.421)" stroke="#000" stroke-miterlimit="10"/><ellipse cx="255.84" cy="442.07" rx="7.88" ry="6.63" transform="rotate(-70.88 255.843 442.07)" stroke="#000" stroke-miterlimit="10"/><ellipse cx="405.44" cy="451.1" rx="6.95" ry="6.01" transform="rotate(-56.57 405.447 451.099)" stroke="#000" stroke-miterlimit="10"/><ellipse cx="483.8" cy="363.14" rx="8.92" ry="6.91" transform="rotate(-81.1 483.764 363.143)" stroke="#000" stroke-miterlimit="10"/><ellipse cx="177.31" cy="476.87" rx="7.83" ry="13.64" transform="rotate(-2.41 177.358 477.214)" stroke="#000" stroke-miterlimit="10"/><ellipse cx="201.59" cy="318.62" rx="13.53" ry="7.24" transform="rotate(-75.87 201.599 318.624)" stroke="#000" stroke-miterlimit="10"/><ellipse cx="405.54" cy="215.79" rx="6.33" ry="6.65" transform="rotate(-33.42 405.506 215.784)" stroke="#000" stroke-miterlimit="10"/><ellipse cx="479.64" cy="266.96" rx="5.27" ry="5.34" transform="rotate(-70.88 479.64 266.962)" stroke="#000" stroke-miterlimit="10"/></g><path d="M403.45 451.72c-1.27-1-2.48-2-3.69-3.1s-2.25-2.31-3.34-3.5-2-2.53-3-3.8l-2.68-4c-.79-1.42-1.57-2.84-2.31-4.28s-1.28-3-1.89-4.48l-1.54-4.65-1.27-4.67a82.57 82.57 0 01-2.43-19.07 74.73 74.73 0 012.35-18.93l.39.08a78.75 78.75 0 00-.74 18.77 79.84 79.84 0 003.51 18.29l1.55 4.38 1.83 4.25q1 2.08 2 4.18t2.05 4.14l2.17 4.09c.77 1.34 1.58 2.67 2.32 4s1.66 2.64 2.47 4 1.76 2.61 2.58 4zM403.65 216c-1 1.53-2.12 3-3.2 4.41s-2 3-3 4.47-1.84 3.06-2.75 4.57l-2.51 4.68q-1.12 2.42-2.31 4.77c-.69 1.63-1.41 3.24-2.15 4.85l-1.92 5-1.55 5.1a79.14 79.14 0 00-2.58 21.2 75.28 75.28 0 003.32 21.21l-.37.13a72.86 72.86 0 01-4.89-21.32 81.41 81.41 0 011.47-22l1.27-5.41 1.61-5.34q1-2.59 2.07-5.18c.83-1.67 1.7-3.31 2.58-4.95l3.05-4.67c1.16-1.46 2.29-2.93 3.47-4.35s2.57-2.68 3.87-4 2.82-2.39 4.29-3.5z" fill="#fcee21"/><path d="M404.71 448.92a81 81 0 00-17.86 12.47 71.06 71.06 0 00-13.66 16.68 63.77 63.77 0 00-6.95 42.36l-.29.06a62.69 62.69 0 015.13-43.56 56.79 56.79 0 0113.78-17.79 51.62 51.62 0 0119.74-10.5z" fill="#fcee21"/><path d="M288.45 321.05a31.23 31.23 0 01-9.11-9 37 37 0 01-5.08-11.81 43.65 43.65 0 01-1.37-12.71 39.31 39.31 0 012.57-12.43l.15.19-1.34.11v-.2l1.34-.19h.22l-.07.22a39.6 39.6 0 00-1.8 12.35 42.63 42.63 0 001.9 12.25A53.57 53.57 0 00281 311a55.41 55.41 0 007.57 9.88z" fill="#d9e021"/><path d="M290 321c-7.14 1.48-14.22 2.83-21.24 4.44s-14.07 3-21 5a220.31 220.31 0 00-40.16 16.16l-.14-.26a202.24 202.24 0 0119.26-10.2 209.08 209.08 0 0120.33-8 142.29 142.29 0 0121.13-5.69 112.94 112.94 0 0121.79-1.8z" fill="#d9e021"/><path d="M287.25 320.51c-1.52 3.82-3.08 7.55-4.48 11.35s-2.91 7.53-4 11.43a102.37 102.37 0 00-3.92 24h-.2a94.92 94.92 0 01.46-12.27 98.47 98.47 0 012.11-12.14 67.64 67.64 0 013.73-11.77 54.31 54.31 0 016.15-10.69zM198.4 316.72a127 127 0 01-17-11.88 169.31 169.31 0 01-15-14.33q-7.19-7.49-13.79-15.46c-4.37-5.35-8.57-10.83-12.49-16.5l.24-.17c4.3 5.37 8.74 10.63 13.38 15.69s9.4 10 14.36 14.74 10.23 9.12 15.26 13.76 10.2 9.15 15.24 13.91zM200 319.64a148.87 148.87 0 00-20 8.11 124.57 124.57 0 00-18.49 10.9 98.8 98.8 0 00-15.86 14.6A94.17 94.17 0 00133.17 371l-.27-.13a95.15 95.15 0 0111.51-18.59A100.73 100.73 0 01160 336.74 82.48 82.48 0 01178.65 325a69.73 69.73 0 0121.24-5.68zM479.1 266.05a25.82 25.82 0 01.74-4.64 42.71 42.71 0 011.3-4.39 28.34 28.34 0 011.86-4.13c.74-1.32 1.49-2.64 2.18-4q2.07-4 4.23-8c1.47-2.64 2.89-5.32 4.41-7.94l.36.16c-.93 2.9-2 5.74-2.95 8.62s-2.06 5.7-3.14 8.53c-.53 1.41-1 2.86-1.49 4.3a28.37 28.37 0 01-1.82 4.15 42.18 42.18 0 01-2.38 3.89 25.75 25.75 0 01-2.94 3.64z" fill="#d9e021"/><path d="M480.46 266.55a78.66 78.66 0 01-9.74-1.11c-3.22-.52-6.35-1.44-9.52-2.19l-9.49-2.25-9.47-2.38v-.2l9.63 1.6 9.62 1.7c3.2.57 6.44 1 9.6 1.79a79.51 79.51 0 019.37 2.87zM483.35 361.3c-9-3.69-17.84-7.31-26.88-10.55s-18.05-6.5-27.32-9.05a262.14 262.14 0 00-28.15-6.12 255.44 255.44 0 00-28.72-3.11v-.3a257.06 257.06 0 0128.93 1.92 261.61 261.61 0 0128.55 5.29 198.32 198.32 0 0127.78 8.62 164.61 164.61 0 0125.94 13zM725.27 349.18c2.22 6 4.24 12 6.45 18s4.17 11.94 6.66 17.77 5.25 11.55 8.3 17.12 6.34 11 9.88 16.32l-.25.18a180.31 180.31 0 01-10.93-15.75 191 191 0 01-9.18-16.88 125.56 125.56 0 01-7.33-17.81 96.86 96.86 0 01-3.87-18.88zM845.32 543.27a16.64 16.64 0 012.92 1.24 25.65 25.65 0 012.64 1.59 35.67 35.67 0 014.51 4.1q2.24 2.09 4.42 4.22c1.44 1.45 2.9 2.86 4.32 4.33l-.19.24c-1.72-1.11-3.39-2.28-5.09-3.41s-3.34-2.33-5-3.52a37.16 37.16 0 01-4.89-3.64 26.42 26.42 0 01-2.07-2.28 16 16 0 01-1.77-2.64zM794 454.19a81.78 81.78 0 017.69-9.69 104.54 104.54 0 019-8.51q4.65-4.07 9.51-7.87c3.25-2.53 6.59-4.93 10-7.25l.49-.34-.25.53-.81 1.66-.18-.09.7-1.7.24.19c-3.24 2.52-6.4 5.14-9.49 7.82s-6.14 5.42-9.07 8.27-5.72 5.84-8.68 8.66-5.86 5.7-9 8.45zM789.32 457.68a76.34 76.34 0 008.12 9.71c.76.71 1.51 1.42 2.23 2.16s1.55 1.38 2.3 2.1l2.39 2 2.53 1.84a45.49 45.49 0 0011.32 5.51 43.36 43.36 0 0012.51 2.13h.56l-.36.39-1.28 1.38-.23-.19 1.13-1.5.19.4a42 42 0 01-13-1.09 47.63 47.63 0 01-12.18-4.88l-2.83-1.72-2.67-1.92c-.85-.7-1.7-1.42-2.52-2.17s-1.53-1.61-2.27-2.43a30.2 30.2 0 01-6.21-11.57zM599 248.36c-3.44-3.2-6.8-6.4-10.27-9.49s-6.88-6.21-10.51-9.12a133.42 133.42 0 00-11.34-8.11 138.3 138.3 0 00-12.13-6.95l.23-.24 1.26 2.39-.18.1-1.38-2.32-.28-.47.5.23a124.84 124.84 0 0112.54 6.34 136.36 136.36 0 0111.79 7.71 88.19 88.19 0 0110.84 9 74.8 74.8 0 019.08 10.78zM676.7 530.36a70.19 70.19 0 00-11.32 2.38 60.89 60.89 0 00-10.68 4.16 46.73 46.73 0 00-9.42 6.64 43.73 43.73 0 00-7.53 8.84l-.17-.11a44.14 44.14 0 017-9.45 47 47 0 019.33-7.31 38.48 38.48 0 0110.94-4.7 31.74 31.74 0 0111.84-.65zM676 532.25c-.3 2.34-.67 4.56-.9 6.8s-.62 4.44-.65 6.7a37.53 37.53 0 00.52 6.77 38.8 38.8 0 001.68 6.65l-.18.08a35.61 35.61 0 01-2.48-6.52 38.51 38.51 0 01-1.14-6.94 24.66 24.66 0 01.28-7.07 18.56 18.56 0 012.69-6.54zM639.17 420.34a63.92 63.92 0 01-11-22.78 70.07 70.07 0 01-1.67-25.39 78.78 78.78 0 016.7-24.43 78 78 0 0114.11-20.83l.22.2a78.93 78.93 0 00-18.64 45.27 87.58 87.58 0 002.11 24.48 99.84 99.84 0 008.38 23.32zM536.77 520.65l-9.88-8.36c-3.31-2.73-6.56-5.53-10-8.17s-6.89-5.12-10.54-7.38-7.37-4.48-11.21-6.46l.24-.35 3 2.69-.13.16-3.15-2.53-1.33-1.06 1.56.71a127.35 127.35 0 0111.6 5.87c3.77 2.15 7.44 4.49 11 7a85.75 85.75 0 0110.23 8.09 73.62 73.62 0 018.75 9.67zM537.17 525.45c-1.79 2.11-3.67 4-5.53 6s-3.89 3.71-5.73 5.69-3.61 4-5.28 6.15-3.27 4.32-4.79 6.58l-.17-.11c1.25-2.42 2.66-4.76 4.15-7.06s3.16-4.48 4.89-6.61a46.43 46.43 0 015.55-6.09 33.56 33.56 0 016.79-4.7zM657.4 190.48a62 62 0 019.09-5.79 106.8 106.8 0 019.79-4.31l9.86-4.16c3.31-1.35 6.6-2.73 9.92-4l.13.28c-3.12 1.74-6.27 3.4-9.41 5.11l-9.47 5c-3.17 1.65-6.22 3.52-9.54 4.85a62.26 62.26 0 01-10.24 3.35zM175.57 477.86a111.23 111.23 0 00-25.18 11.87 110 110 0 00-21.46 17.51 96.32 96.32 0 00-15.79 22.88 88.23 88.23 0 00-8.45 26.62h-.29a89 89 0 017.38-27.22 98.08 98.08 0 0115.36-23.85 87.66 87.66 0 0121.69-18.46 74.48 74.48 0 0126.67-9.6zM175.22 472.43a38 38 0 01-7.7-8.61 50.32 50.32 0 01-5-10.39 84 84 0 01-3.42-11 77.66 77.66 0 01-1.73-11.31h.3a89.69 89.69 0 002.84 10.88 83.55 83.55 0 004.18 10.44c1.61 3.38 3.66 6.5 5.39 9.79s3.63 6.52 5.37 10zM175.55 474a114.38 114.38 0 01-17.42 3.6 164.33 164.33 0 01-17.74 1.09q-8.88.24-17.75.05c-5.92-.18-11.82-.46-17.71-1v-.3c5.91 0 11.8 0 17.69-.23s11.77-.49 17.63-1S152 475 157.82 474.6s11.73-.84 17.69-.92zM252.34 441.93A88.31 88.31 0 01236.2 427a103.63 103.63 0 01-12.15-18.39 127 127 0 01-8.75-20.18 39.93 39.93 0 01-1.93-10.89 19.06 19.06 0 012.73-10.59l.25.16a18.51 18.51 0 00-2.08 10.4 39 39 0 002.45 10.44c1.23 3.37 2.75 6.68 4.28 9.94s3.29 6.44 5.14 9.54 3.82 6.12 6 9 4.26 5.81 6.45 8.66 4.48 5.64 6.8 8.42 4.77 5.45 7.2 8.19zM257 441.1a81.25 81.25 0 0112.27-20.45 95.68 95.68 0 0117.5-16.32 115.91 115.91 0 0120.43-12.23 110 110 0 0122.53-7.49l.07.29a109.47 109.47 0 00-21.94 8.55 113.48 113.48 0 00-19.66 12.78 144 144 0 00-16.68 16.36 170.36 170.36 0 00-14.29 18.65zM273.52 527.4a49.58 49.58 0 014.93 7.4c1.46 2.54 2.41 5.33 3.63 8s2.45 5.33 3.72 8 2.53 5.3 3.8 8l-.26.15c-1.68-2.42-3.27-4.9-4.86-7.39s-3.05-5-4.53-7.6a61 61 0 01-4.21-7.79 38.56 38.56 0 01-2.5-8.58zM817.83 325.61a156 156 0 0114.17-8.26q3.63-1.91 7.35-3.58l7.49-3.29 14.94-6.68 15-6.59 1.57-.7-1.26 1.14-2.39 2.15-.21-.21 2.21-2.33.31.44-14.51 7.56-14.56 7.47-7.25 3.78q-3.64 1.86-7.4 3.49a156.08 156.08 0 01-15.29 5.89zM818.53 327.79a123.59 123.59 0 0117.47 5.62 175.51 175.51 0 0116.53 8q8.13 4.23 16.05 8.85c5.24 3.12 10.44 6.33 15.51 9.73l-.16.25c-5.31-3-10.65-5.91-16.08-8.66s-10.86-5.48-16.38-8-11.18-4.74-16.66-7.35-11-5.17-16.4-8.1z" fill="#d9e021"/><g data-name="Tuna 1"><path d="M722.71 122.44c2.06-10.71 5-21.45 10.69-30.75s14.6-17.08 25.2-19.54c7.09-1.63 14.49-.84 21.72-.05l43.53 4.8c12.18 1.34 24.95 2.9 34.94 10 13.57 9.65 18.84 27.32 20.3 43.9 4.54 51.46-21.23 104.47-64.5 132.7-12 7.82-25.58 13.93-39.89 14.45-10.7.39-23.73-2.78-31.49-10.69-5.92-6-8-16.81-10.8-24.56a228.8 228.8 0 01-13.69-75.77 223.64 223.64 0 013.99-44.49z" fill="#d91a60"/><path d="M875.25 132.1a4.06 4.06 0 003.48-4.33c-1-15.26-7.36-32.16-20.19-41.27-10-7.11-22.76-8.66-34.94-10l-43.52-4.8c-7.24-.8-14.63-1.58-21.72 0-10.64 2.5-19.14 10.5-24.86 19.8 1.87 3.44 7.89 3.52 11.59 2.21s6.55-4.23 9.38-6.94 6-5.42 9.82-6.16c6.37-1.23 12.35 3.22 17 7.74s9.51 9.71 16 10.49c4.58.55 9.06-1.28 13.58-2.21s9.93-.64 12.77 3c3.8 4.86 1.29 13.51 6.49 16.82s12-2.55 15.23-6.71a12.33 12.33 0 016.46-4.45c7.53-2 10.68 4.54 11.33 10.23.49 4.29.2 8.88 2.29 12.66 1.43 2.67 6.19 4.35 9.81 3.92z" fill="#ff7bac"/><path d="M877.69 165.56c-6.46 39.53-29.53 76.44-63.17 98.44-12 7.83-25.58 13.94-39.89 14.45a51.25 51.25 0 01-10.2-.66 48.67 48.67 0 01-8-2 33.66 33.66 0 01-7.65-3.67 31.08 31.08 0 01-7.8-7.46 7.8 7.8 0 01-1.1-2.1 2.76 2.76 0 01-.27-1.49 1 1 0 011-.69 7.68 7.68 0 012.49.82 46.08 46.08 0 0010.36 2.25c1.78.26 3.58.32 5.36.53a32.3 32.3 0 005.29.22 33.88 33.88 0 0010.36-2.05c.91-.33 1.8-.69 2.71-1a21.27 21.27 0 0010-7.5 27.14 27.14 0 004.51-11.23 9.59 9.59 0 0110.65-8.05c6.35.77 13.09-1.2 17.48-5.89 5.88-6.26 7.17-15.42 10.72-23.24a42.59 42.59 0 0124-21.86c4.48-1.65 11.11-1.08 14.94-3.72s6.19-10.23 8.21-14.1z" fill="#9e005d"/></g>
            <g data-name="Tuna 2"><path d="M695.26-.76H552.54c-2 .07-4 .08-6 0H531.4a187.22 187.22 0 00-3.66 34.61 190.8 190.8 0 0016.43 79.91c4.14 9.25 9.75 17.66 13.54 27.05 4.71 11.69 10.43 21.8 21.22 28.95a52.4 52.4 0 0044.32 6.12c14-4.5 25.42-14.75 35-25.93a177.71 177.71 0 0042.14-116.56 119.64 119.64 0 00-5.13-34.15z" fill="#d91a60"/><path d="M552.54-.76c-2 .07-4 .08-6 0h-15.63a187.71 187.71 0 00-3.4 33.27 190.68 190.68 0 0016.43 79.91c2.8-5.46 6.72-12.07 9.52-17.53 2.34-4.56 4.71-9.21 5.53-14.26 2.21-13.63-7-26.1-12.24-38.88-2.27-5.52-3.21-13.14 1.84-16.31 3.24-2 7.58-1.09 10.82.93s5.81 4.94 8.86 7.22c10.58 7.91 27.08 6.31 35.94-3.48 7.58-8.38 9.17-20.56 13.72-30.87zM688.68-.76c.62.76 1.23 1.53 1.81 2.32a53 53 0 019.31 22.23 115.11 115.11 0 00-4.36-24.55zM700.16 32a34.87 34.87 0 00-.36-8.25c.2 2.8.33 5.56.36 8.25z" fill="#ff7bac"/><path d="M695.47 37.92a3 3 0 014.94 2.31A177.94 177.94 0 01658.29 150c-9.55 11.17-21 21.42-35 25.92a52.4 52.4 0 01-44.29-6.14c-10.8-7.16-16.52-17.27-21.23-29a167.58 167.58 0 00-8.24-16.54 3 3 0 014.41-3.84 61.61 61.61 0 0112.69 12.24c4.48 5.89 8.24 12.32 12.81 18.14s10.15 11.14 17 13.83 15.32 2.32 21.08-2.34a15.73 15.73 0 005.55-13.38 7.51 7.51 0 015.76-8.14 89.81 89.81 0 0016.07-5c7.74-3.36 14.94-8.58 19.19-15.87s5.13-16.85.88-24.15c-2.87-5-7.93-8.84-9-14.46-1.34-7.24 4.47-13.65 9.81-18.72 8.92-8.33 20.13-16.36 29.69-24.63z" fill="#9e005d"/></g>
            <g data-name="Tuna 3"><path d="M366.19-.76c1.75 9.21 8.51 19.41 12 26.32a384.71 384.71 0 0049 74.4A383 383 0 00461 135.34c9.31 8.56 19.25 16.79 30.95 21.59s25.52 5.8 36.77 0c17.18-8.82 23.56-30 25.93-49.16A244.36 244.36 0 00543.26-.76z" fill="#d91a60"/><path d="M535.85-.76a67.09 67.09 0 011.37 19C536.12 29.55 530.64 40 524 49.12s-14.59 17.32-21.53 26.27c-4.47 5.67-8.64 12.73-6.69 19.61s8.92 10.58 15.4 13.3 13.64 5.57 16.91 11.79c3.54 6.73.81 15.72-5.27 20.3s-14.63 5-21.72 2.26c-6.93-2.71-12.52-8.1-19.36-11s-16.32-1.92-19.69 4.72c9.31 8.56 19.26 16.79 31 21.59s25.52 5.8 36.77 0c17.17-8.82 23.56-30 25.93-49.16A244.33 244.33 0 00544-.76z" fill="#9e005d"/><path d="M408.42 41.05c0-3.49 1.2-6.88 1.51-10.36.78-8.72-4-16.8-7.7-24.75a50.65 50.65 0 01-2.55-6.7H366c1.5 9.41 8.55 20 12.13 27.12a385.83 385.83 0 0049 74.4c10.49 12.5 22.79 24.32 34.8 35.37-11.74-26.44-25.35-54.08-43.84-76.34-4.61-5.52-9.65-11.56-9.67-18.74z" fill="#ff7bac"/></g>
            <g data-name="Tuna 5"><path d="M148.9 129.44c6-14.26 21.19-23.41 36.61-24.64s30.8 4.55 43.44 13.46 22.89 20.78 32.42 33c8.9 11.39 17.46 23.5 21.32 37.43s2.26 30.14-7.4 40.9c-7.47 8.32-18.62 12.32-29.58 14.57a130 130 0 01-85.58-11.95c-16.67-8.7-46.48-31-43.45-53.15 1.66-12.11 14.19-12.7 21.18-20.32 7.19-7.86 7.14-19.9 11.04-29.3z" fill="#d91a60"/><path d="M259.16 195.79a5.3 5.3 0 006.92-3.79 42.62 42.62 0 001.2-8.2c.07-2.81 2.69-6.13 5.56-6.49 3.43-.44 6.42 2.25 7.66 5.19a70 70 0 014 11c1.21 4.22.72 8.47.4 12.85-.61 8.45-3.5 16.84-9.22 23.2-7.47 8.32-18.62 12.32-29.58 14.58a130.07 130.07 0 01-85.57-12c6.64-5.66 15.39-9.37 23.91-7.46 2.55.57 5 1.5 7.65 1.7 3.72.27 8-1.28 8.25-6.06a8.29 8.29 0 00-1-4.3c-2.15-4-6.22-6.14-9.36-9.22a11.69 11.69 0 01-3.74-7.11 4 4 0 012-3.72c4.07-2.36 9.65-1.65 14.12.29 6.74 2.93 12.48 8.16 20.38 8.23a10.79 10.79 0 006.18-1.77c5.77-3.92 4.58-10.2 2.42-15.27-2-4.71-4.83-9.3-3.6-14.72a7.09 7.09 0 013.18-4.57c4.58-2.72 8.8.92 10.5 4.93 1.35 3.18 1.64 6.71 2.84 9.95 1.97 5.34 8.6 10.52 14.9 12.76z" fill="#9e005d"/><path d="M246.59 243.27a.38.38 0 010 .74c-24.09 6.27-61.27 1.86-86.65-11.37-16.68-8.7-46.49-31-43.45-53.15 1.65-12.11 12.66-12.68 20-20 8-8 8.3-20.19 12.25-29.6 7 5.35 7 15.72 5.3 24.34s-5.26 17.09-4.53 25.85c.92 11.12 8.53 20.51 16.72 28.08 20.63 19.04 52.3 31.59 80.36 35.11z" fill="#ff7bac"/></g>
        </symbol>
        <symbol viewBox="0 0 905 649" id="herobox-nopal" xmlns="http://www.w3.org/2000/svg">
        <g data-name="Layer 10">
            <g data-name="Tuna 4"><path d="M217.407 196.638c9.405 8.631 20.248 16.452 32.808 18.737 18.934 3.444 37.54-6.158 54.395-15.446 14.734-8.118 30.216-16.962 38.4-31.658 6.93-12.444 7.594-27.437 6.141-41.605a157.213 157.213 0 00-37.535-86.536c-7.475-8.586-16.086-16.481-26.461-21.165-8.343-3.767-17.488-5.315-26.515-6.827-5.327-.893-10.816-1.782-16.083-.59a41.768 41.768 0 00-9.826 4.077l-19.575 10.154c-10.526 5.46-21.052 10.921-31.533 16.467-4.06 2.148-8.256 4.43-10.954 8.146-7.965 10.968-1.821 28.98-3.424 41.628-1.546 12.2-1.076 20.942 3.096 32.877 9.449 27.029 25.634 52.605 47.066 71.74z" fill="#d91a60"/><path d="M345.177 122.195a1.894 1.894 0 003.203-1.575c-3.172-29.478-17.403-57.961-37.043-80.521-7.475-8.586-16.087-16.48-26.462-21.165-8.343-3.767-17.487-5.314-26.515-6.827-5.327-.893-10.816-1.782-16.083-.59a41.767 41.767 0 00-9.826 4.077L212.876 25.75c-10.526 5.46-21.052 10.92-31.533 16.466-4.06 2.148-8.255 4.43-10.954 8.147-7.964 10.967-1.821 28.978-3.424 41.627-1.546 12.201-1.075 20.943 3.096 32.877 9.449 27.029 25.634 52.605 47.066 71.741-6.218-7.822-7.59-20.13-5.751-29.952.967-5.166 3.091-10.508 1.424-15.492-1.433-4.284-5.362-7.226-7.55-11.178-6.145-11.097 2.794-26.591-4.348-37.074-4.558-6.689-14.638-9.273-15.07-18.316a12.472 12.472 0 015.69-10.775c7.863-5.313 17.05-3.643 25.654-1.943l33.652 6.648a12.924 12.924 0 0010.61-2.438c9.424-7.58-3.561-20.601 5.6-28.151a11.572 11.572 0 019.201-2.376 65.245 65.245 0 0136.694 19.519c12.508 13.256 18.842 31.014 24.85 48.221 1.26 3.613 4.511 6.118 7.394 8.895z" fill="#ff7bac"/><path d="M343.213 165.494c.136 3.6-3.436 6.835-6.392 9.997-8.648 9.247-19.97 15.526-30.943 21.571-16.856 9.288-35.461 18.89-54.396 15.446-7.151-1.301-32.205-10.695-31.956-19.885.292-10.77 26.058-14.173 33.283-14.72 12.425-.942 25.31-.35 36.854-5.038 6.42-2.607 12.087-6.728 18.036-10.28 5.948-3.553 12.477-6.623 19.404-6.756 5.034-.097 10.899 1.686 14.299 5.6a6.54 6.54 0 011.811 4.065z" fill="#9e005d"/></g>
            <g data-name="Nopal"><path d="M854.732 648.84c.08-.003.16-.002.24-.004A470.664 470.664 0 00865.967 537.9c-2.762-124.16-64.387-249.367-170.615-313.7-46.76-28.318-100.065-44.29-153.828-54.19-71.496-13.166-145.913-15.93-216.402 1.854s-136.916 57.468-178.444 117.137c-27.69 39.786-43.454 86.76-53.392 134.204a631.294 631.294 0 00-10.398 67.847c-5.156 52.628-3.561 106.315 8.096 157.787z" fill="#324001"/><path d="M845.835 648.84a123.666 123.666 0 002.672-15.37c2.63-23.554 2.869-47.303 3.104-71.003.392-39.438.684-79.605-10.823-117.328-7.735-25.355-21.125-49.984-21.776-77.004-.226-9.341 1.556-8.888-7.145-11.129-6.617-1.703-13.497-2.373-20.13-4.177a126.834 126.834 0 01-37.406-16.55c-16.55-11.08-27.45-23.755-39.328-39.51-4.296-5.7-8.303-11.578-12.285-17.497-2.221-3.302-4.474-6.579-6.72-9.863l-.377-.55a93.858 93.858 0 01-4.37-6.256c-1.957-1.154-3.891-2.328-5.873-3.464-5.28-3.026-10.554-6.068-15.94-8.903q-4.018-2.132-8.114-4.106c-.872-.399-1.6-.734-2.202-1.012-3.114-.788-6.475-1.42-7.14-1.653-.995-.2-1.81-.369-2.478-.512-1.258-.09-2.516-.187-3.778-.239a148.756 148.756 0 00-18.373.41l-38.383 4.51a173.835 173.835 0 01-20.458 1.039c-32.43-.506-63.676-11.347-91.79-26.962-4.75-2.638-7.92-4.759-13.276-5.428a102.33 102.33 0 01-14.894-3.05 109.886 109.886 0 01-27.793-12.164 108.565 108.565 0 01-19.31-15.085c-2.534-2.493-4.923-6.399-7.953-8.202-3.133-1.865-7.369-2.8-10.718-4.458a87.018 87.018 0 01-15.439-9.845q-15.314 2.134-30.45 5.424a80.045 80.045 0 01-84.578 30.09q-5.408 2.764-10.715 5.71a96.605 96.605 0 015.044 24.007c4.389 53.703-46.274 98.407-98.923 81.048a99.272 99.272 0 01-11.46-4.65c-21.323 36.03-34.322 76.771-42.931 117.875a631.338 631.338 0 00-10.398 67.847c-5.164 52.704-3.557 106.47 8.146 158.01z" fill="#7c8c03"/><path d="M628.523 243.065c-9.115 2.375-19.649 5.473-26.894 11.647-6.147 5.24-12.718 12.678-13.043 21.198-.195 5.13.849 10.354-.298 15.359-2.094 9.134-12.36 15.547-21.463 13.323s-15.26-12.757-12.635-21.753c2.589-8.87 11.534-14.058 19.718-18.348 3.743-1.962 7.494-4.19 10.188-7.52 2.487-3.073 5.566-7.097 6.371-11.03" fill="#324001"/></g>
            <g data-name="Black spots"><path d="M334.226 517.955c-2.01 2.876-4.113 6.095-3.734 9.583.512 4.702 5.178 7.65 9.343 9.893 5.381 2.896 11.306 5.887 17.316 4.78 6.172-1.135 11.004-6.762 12-12.957s-1.487-12.657-5.778-17.236c-3.614-3.857-10.509-8.852-16.193-7.863-6.086 1.058-9.807 9.297-12.954 13.8zM197.371 367.458c-2.32 6.918-.818 15.476 5.008 19.868 4.823 3.635 11.618 3.763 17.293 1.7s10.445-6.02 14.883-10.116a29.328 29.328 0 006.378-7.516c1.544-2.919 2.12-6.525.765-9.536-2.04-4.535-7.474-6.252-12.294-7.475-5.87-1.49-14.582-5.899-20.11-2.457-5.199 3.236-10.011 9.798-11.923 15.532zM539.192 492.882c2.413 10.308 4.017 21.15 9.812 30.009s17.437 15.067 27.11 10.767c9.195-4.09 12.592-15.413 13.16-25.46s-.507-20.656 3.942-29.683c6.083-12.343 22.86-18.026 35.192-11.921s17.986 22.892 11.86 35.213c-2.412 4.85-6.251 8.825-9.239 13.343a43.53 43.53 0 0018.35 63.667c9.304 4.213 19.726 5.02 29.887 6.048s20.622 2.444 29.407 7.654 15.525 15.174 13.92 25.26c-2.017 12.68-15.387 19.956-27.576 23.991-13.663 4.522-29.999 7.002-41.366-1.824-11.222-8.713-12.99-24.727-19.901-37.14a47.485 47.485 0 00-78.722-6.373c-9.59 12.115-13.295 28.865-25.484 38.36-14.445 11.252-38.495 6.368-47.406-9.627s-.406-39.016 16.763-45.376c6.64-2.46 13.876-2.64 20.82-4.028s14.158-4.441 17.629-10.613c5.336-9.487-.364-21.163-5.97-30.494l-28.477-47.39c-5.01-8.337-11.72-17.699-21.447-17.755-7.51-.043-13.804 5.68-21.129 7.34-7.386 1.676-15.222-1.004-21.355-5.448s-10.866-10.51-15.513-16.492c-7.736-9.96-15.82-20.832-16.27-33.435a30.851 30.851 0 0112.976-25.946c7.996-5.56 20.408-7.794 29.148-2.806 3.798 2.168 6.368 6.19 9.762 8.859 5.2 4.09 5.463 11.062 4.403 17.593-.648 3.987-2.219 7.882-1.977 11.914.298 4.983 3.36 9.424 7.043 12.794 11.201 10.249 27.492 12.237 41.116 18.939 12.476 6.137 26.363 16.522 29.532 30.06zM99.868 532.601c2.929 3.279 4.832 7.323 6.708 11.3 5.373 11.389 15.728 40.032 31.867 39.557 5.383-.16 10.328-3.458 13.514-7.8s4.824-9.628 5.877-14.909a80.752 80.752 0 00.533-28.511c-1.298-8.08-3.806-16.49-1.177-24.24a19.221 19.221 0 0137.42 5.872c.083 5.258-2.305 10.736-6.825 13.423-5.215 3.1-12.337 2.184-16.995 6.071-5.498 4.588-4.679 13.184-2.766 20.084s4.342 14.659.744 20.85c-1.502 2.584-3.961 4.629-4.891 7.47-1.537 4.697 1.88 9.859 6.329 12.008 14.27 6.893 31.551-3.066 44.959 7.812a21.677 21.677 0 01-16.09 38.372c-8.055-.91-14.911-6.205-20.657-11.922s-10.966-12.147-17.874-16.387c-7.9-4.85-17.305-6.415-26.15-9.187s-17.922-7.433-21.903-15.804c-1.733-3.643-2.382-7.778-4.507-11.207s-6.636-6-10.18-4.072c-4.524 2.463-4.05 10.057-8.645 12.386-3.164 1.604-7.197-.407-9.045-3.434s-2.078-6.737-2.258-10.28c-.243-4.77-1.044-8.819-.145-13.385 1.06-5.382 2.584-9.86 1.871-15.5-.322-2.548-.95-5.086-.772-7.647.732-10.528 16.515-6.51 21.058-.92zM702.624 412.816a21.27 21.27 0 0017.707 10.284 19.347 19.347 0 0017.257-10.649c5.533-11.665-4.219-26.56-17.428-25.575-12.855.959-25.078 13.374-17.536 25.94zM118.824 389.501a21.27 21.27 0 0018.337-9.112 19.347 19.347 0 00.62-20.268c-6.687-11.044-24.49-11.111-30.945.455-6.283 11.256-2.655 28.297 11.988 28.925zM408.119 300.549c-.952 5.223.905 10.661 3.992 14.981s7.315 7.68 11.611 10.8c5.22 3.79 11.156 7.466 17.592 7.033 7.139-.48 13.277-6.379 15.027-13.316 6.88-27.277-42.91-48.639-48.222-19.498zM329.42 251.477c.173 11.936 11 22.7 22.937 22.804s22.95-10.47 23.33-22.402c.276-8.64-4.222-16.625-8.58-24.09-1.704-2.917-3.5-5.935-6.307-7.816-10.98-7.358-10.921 9.457-16.178 13.885-7.247 6.105-15.389 4.651-15.201 17.619zM804.294 384.603a28.912 28.912 0 0021.474 22.075c4.534 1.025 10.319.302 12.25-3.927 1.44-3.154.069-6.813-1.298-9.999l-11.373-26.517c-9.634-22.46-23.718 4.856-21.053 18.368zM781.788 498.756c-3.875 4.098-5.3 9.867-6.58 15.36-2.075 8.896-3.983 18.91.895 26.635 5.04 7.98 15.307 10.414 23.483 15.129a42.984 42.984 0 0120.487 28.923c3.533-1.559 5.71-5.3 6.41-9.097s.154-7.7-.393-11.522l-5.061-35.376c-.906-6.33-1.896-12.893-5.414-18.234-5.756-8.738-24.482-21.7-33.827-11.818zM840 636.994c.053 3.032.125 6.153 1.32 8.94a9.753 9.753 0 001.93 2.906h9.884a9.82 9.82 0 001.703-2.312c1.323-2.52 1.685-5.416 2.025-8.24 1.017-8.435 3.535-17.32 2.953-25.796-.23-3.347-.478-6.773-1.836-9.841-1.358-3.068-4.07-5.758-7.405-6.127-4.068-.449-7.84 2.71-9.46 6.468s-1.575 7.996-1.503 12.088l.388 21.914z" fill="#324001"/><ellipse cx="215.845" cy="371.138" rx="11.757" ry="9.776" transform="rotate(-45 215.845 371.138)" stroke="#000" stroke-miterlimit="10"/><ellipse cx="501.263" cy="608.06" rx="6.928" ry="8.314" stroke="#000" stroke-miterlimit="10"/><ellipse cx="661.353" cy="614.666" rx="6.151" ry="5.843" transform="rotate(-70.401 661.353 614.666)" stroke="#000" stroke-miterlimit="10"/><ellipse cx="617.542" cy="489.433" rx="6.794" ry="5.706" transform="rotate(-78.73 617.542 489.433)" stroke="#000" stroke-miterlimit="10"/><ellipse cx="719.79" cy="404.427" rx="7.178" ry="7.227" transform="rotate(-37.663 719.79 404.427)" stroke="#000" stroke-miterlimit="10"/><ellipse cx="795.348" cy="526.31" rx="6.591" ry="6.928" stroke="#000" stroke-miterlimit="10"/><ellipse cx="855.291" cy="628.287" rx="7.727" ry="12.151" transform="rotate(-6.556 855.29 628.287)" stroke="#000" stroke-miterlimit="10"/><ellipse cx="825.904" cy="379.478" rx="5.903" ry="12.151" transform="rotate(-25.837 825.904 379.478)" stroke="#000" stroke-miterlimit="10"/><ellipse cx="572.005" cy="285.997" rx="4.883" ry="6.619" transform="rotate(-78.073 572.005 285.997)" stroke="#000" stroke-miterlimit="10"/><ellipse cx="642.354" cy="222.001" rx="5.696" ry="10.559" transform="rotate(-73.805 642.354 222.001)" stroke="#000" stroke-miterlimit="10"/><ellipse cx="198.681" cy="611.382" rx="9.105" ry="7.661" transform="rotate(-70.881 198.68 611.38)" stroke="#000" stroke-miterlimit="10"/><ellipse cx="176.511" cy="511.619" rx="9.105" ry="7.661" transform="rotate(-70.881 176.511 511.619)" stroke="#000" stroke-miterlimit="10"/><ellipse cx="349.36" cy="522.048" rx="8.027" ry="6.938" transform="rotate(-56.57 349.36 522.049)" stroke="#000" stroke-miterlimit="10"/><ellipse cx="439.889" cy="420.426" rx="10.305" ry="7.981" transform="rotate(-81.095 439.889 420.426)" stroke="#000" stroke-miterlimit="10"/><ellipse cx="85.787" cy="551.829" rx="9.043" ry="15.757" transform="rotate(-2.411 85.787 551.83)" stroke="#000" stroke-miterlimit="10"/><ellipse cx="113.84" cy="368.995" rx="15.628" ry="8.363" transform="rotate(-75.872 113.84 368.995)" stroke="#000" stroke-miterlimit="10"/><ellipse cx="349.478" cy="250.188" rx="7.309" ry="7.679" transform="rotate(-33.417 349.478 250.188)" stroke="#000" stroke-miterlimit="10"/><ellipse cx="435.078" cy="309.307" rx="6.092" ry="6.169" transform="rotate(-70.881 435.078 309.307)" stroke="#000" stroke-miterlimit="10"/></g><path d="M347.082 522.75a64.286 64.286 0 01-19.308-26.903l-1.779-5.298-1.497-5.37a89.489 89.489 0 01-.294-43.836l.391.082a93.4 93.4 0 002.984 42.887c2.7 8.343 6.9 16.714 11.068 24.398 2.698 4.723 5.688 9.224 8.726 13.765l-.291.274zM347.261 250.373a135.04 135.04 0 00-16.168 26.348c-1.53 3.456-3.373 7.765-4.664 11.388l-1.768 5.916a90.28 90.28 0 00.998 49.145l-.377.133c-6.22-15.766-7.208-33.417-3.738-50.003l1.493-6.226 1.88-6.134a79.885 79.885 0 015.36-11.667l3.484-5.396a67.212 67.212 0 0113.22-13.79l.28.286z" fill="#fcee21"/><path d="M348.504 519.514c-22.513 11.25-41.082 31.904-44.765 57.344a72.004 72.004 0 00.304 25.3l-.293.064a72.91 72.91 0 01-1.497-25.573c2.123-17.099 10.275-33.827 23.482-45.133a61 61 0 0122.66-12.282l.109.28z" fill="#fcee21"/><path d="M214.208 371.788c-16.694-11.056-21.833-34.854-15.002-53.019l.15.187-1.554.134-.022-.198c.136-.038 1.681-.223 1.764-.248l-.07.219c-4.492 13.861-1.685 29.268 5.995 41.435a60.53 60.53 0 008.865 11.335l-.126.155z" fill="#d9e021"/><path d="M216.01 371.655c-16.455 3.15-32.732 6.315-48.85 10.8a248.598 248.598 0 00-46.352 18.828l-.147-.261c21.68-12.777 45.456-22.463 70.188-27.382a140.183 140.183 0 0125.134-2.284l.027.299z" fill="#d9e021"/><path d="M212.791 371.171a275.365 275.365 0 00-9.938 26.286 115.865 115.865 0 00-4.426 27.75h-.2a106.009 106.009 0 017.409-41.734 66.023 66.023 0 016.981-12.4l.174.098zM110.165 366.777c-13.778-8.169-25.929-18.765-36.872-30.393a307.124 307.124 0 01-30.476-36.803l.24-.18a348.397 348.397 0 0031.93 35.285c5.705 5.507 11.771 10.602 17.62 15.934 5.868 5.321 11.845 10.52 17.736 15.916l-.178.241zM111.936 370.149c-32.22 9.915-61.166 28.978-77.167 59.365l-.268-.135a111.602 111.602 0 0152.927-52.775 83.617 83.617 0 0124.447-6.749l.061.294zM434.482 308.272c.794-7.115 3.764-13.572 7.233-19.72q4.712-9.368 9.779-18.554l.363.166q-3.441 9.927-7.232 19.72c-2.239 6.682-5.029 13.218-9.779 18.554l-.363-.166z" fill="#d9e021"/><path d="M436.03 308.815a119.14 119.14 0 01-22.222-3.914 1786.818 1786.818 0 01-21.936-5.284l.04-.196c5.553.93 16.69 2.89 22.223 3.914a119.142 119.142 0 0121.936 5.284l-.041.196zM439.375 418.283c-20.49-8.742-41.163-16.718-62.579-22.802a308.779 308.779 0 00-65.768-10.517l.01-.3c41.545.606 93.709 10.827 128.337 33.62zM718.848 404.306c4.844 13.925 9.406 27.744 15.005 41.35a230.428 230.428 0 0021.145 38.573l-.243.176c-13.377-17.628-24.444-37.304-31.5-58.327a119.724 119.724 0 01-4.7-21.705l.293-.067zM857.553 628.562c4.614 1.692 8.182 4.714 11.533 8.133q5.201 4.767 10.2 9.754l-.191.231q-5.849-3.952-11.534-8.132c-3.999-2.632-7.65-5.552-10.199-9.754l.191-.232zM798.326 525.63c8.118-11.827 19.156-21.178 30.277-30.067 3.898-3.054 7.909-5.956 11.983-8.757l-.255.53-.92 1.917-.182-.082.815-1.963.236.192a272.919 272.919 0 00-21.517 18.507c-6.755 6.656-13.313 13.395-20.286 19.855l-.15-.131zM792.849 529.663a79.996 79.996 0 0020.226 20.751 52.003 52.003 0 0027.63 8.635l.553.007c-.203.22-1.58 1.742-1.82 2.003l-.231-.192 1.317-1.73.195.4a51.24 51.24 0 01-28.94-7.017 45.497 45.497 0 01-11.88-9.5 36.274 36.274 0 01-7.322-13.23l.272-.127zM572.992 287.808c-7.64-7.361-15.717-14.925-23.938-21.592a151.182 151.182 0 00-13.137-9.336 158.838 158.838 0 00-14.038-7.99l.225-.241 1.462 2.762-.175.098-1.59-2.69-.274-.465.5.223a144.65 144.65 0 0140.542 26.74 111.408 111.408 0 018.15 9.092c.81 1.091 1.643 2.16 2.425 3.268l-.152.13zM662.754 613.605c-17.866 1.94-35.211 9.824-45.006 25.45l-.172-.103a52.187 52.187 0 0131.54-24.661 38.129 38.129 0 0113.64-.886l-.002.2zM661.982 615.808a128.587 128.587 0 00-1.899 15.6 45.23 45.23 0 002.647 15.51l-.184.078a40.54 40.54 0 01-3.716-23.685 22.955 22.955 0 012.965-7.574l.187.071zM619.41 486.499c-18.037-23.681-19.101-57.287-6.85-83.816a90.074 90.074 0 0116.212-24.102l.222.202a89.18 89.18 0 00-15.059 24.499c-11.978 28.505-6.944 56.482 5.476 83.217zM501.1 602.397c-11.316-9.754-22.381-19.802-35.113-27.693-4.224-2.633-8.535-5.141-12.979-7.412l.233-.358 3.478 3.103-.13.152-3.627-2.926-1.317-1.064c14.205 6.378 27.798 14.55 39.41 24.985a90.666 90.666 0 0110.191 11.076l-.145.137zM501.545 607.936c-4.213 4.717-8.71 8.923-13.096 13.428a111.62 111.62 0 00-11.553 14.778l-.172-.102a94.604 94.604 0 0110.52-15.729 46.56 46.56 0 0114.177-12.532l.124.157zM640.466 220.97c6.716-4.991 14.19-8.434 21.885-11.52 6.68-2.878 16.13-6.934 22.783-9.622l.129.271c-6.261 3.423-15.45 8.193-21.885 11.52-7.266 3.994-14.667 7.592-22.784 9.621l-.128-.27zM83.773 552.95c-30.702 9.787-58.032 31.13-72.233 60.346a102.187 102.187 0 00-9.672 30.806l-.297-.037a103.088 103.088 0 018.613-31.41c13.427-29.204 41.251-55.768 73.59-59.705zM83.392 546.681c-6.838-5.79-11.505-13.68-14.56-22.011a90.235 90.235 0 01-6.089-25.679l.297-.04a102.303 102.303 0 007.995 24.765c3.94 7.808 8.403 15.035 12.59 22.776l-.233.19zM83.755 548.465c-13.237 3.699-26.942 5.021-40.632 5.25a366.796 366.796 0 01-40.96-.898l.015-.3c13.62.164 27.241-.18 40.818-1.198 6.784-.493 13.522-1.41 20.298-1.89 6.78-.496 13.555-1.043 20.416-1.26l.045.296zM172.488 511.435c-17.306-12.47-29.627-30.655-38.128-50-3.297-7.778-6.634-15.814-6.84-24.393a22.01 22.01 0 013.1-12.218l.257.155a21.41 21.41 0 00-2.458 12.026c.443 6.24 2.643 12.2 5.123 17.905a147.88 147.88 0 008.503 16.753 229.876 229.876 0 0022.22 30.178c2.735 3.165 5.569 6.253 8.421 9.369l-.198.225zM177.834 510.512c14.45-33.78 48.89-57.363 84.057-65.256l.07.292c-26.422 6.92-49.907 22.715-67.505 43.415a183.854 183.854 0 00-16.357 21.69l-.265-.14zM196.92 610.213c4.247 5.476 7.084 11.563 9.75 17.865 2.835 6.165 5.828 12.25 8.831 18.338l-.259.151c-3.814-5.642-7.337-11.472-10.706-17.393-3.575-5.862-6.614-11.996-7.89-18.839l.274-.122zM825.817 377.094a235.11 235.11 0 0133.598-17.335 5109.864 5109.864 0 0136.064-16.167c-.776.699-3.185 2.903-4.004 3.643l-.209-.215 2.57-2.678.312.446a4922.376 4922.376 0 01-33.653 17.222c-5.614 2.86-11.156 5.868-16.941 8.37-5.768 2.539-11.586 4.973-17.607 6.985l-.13-.27zM826.609 379.609c13.76 3.437 26.76 9.164 39.22 15.832a395.092 395.092 0 0136.53 21.318l-.157.256c-12.219-6.966-24.681-13.495-37.43-19.42-6.362-2.975-12.892-5.558-19.24-8.545-6.36-2.973-12.74-5.902-19.03-9.16l.107-.281z" fill="#d9e021"/><g data-name="Tuna 1"><path d="M715.916 142.341c2.384-12.382 5.75-24.79 12.354-35.531s16.828-19.739 29.114-22.572c8.191-1.888 16.736-.977 25.09-.057l50.291 5.54c14.073 1.55 28.828 3.35 40.367 11.554 15.677 11.146 21.767 31.562 23.455 50.724 5.24 59.45-24.531 120.7-74.518 153.306-13.856 9.04-29.554 16.103-46.087 16.699-12.369.445-27.417-3.216-36.385-12.354-6.841-6.972-9.214-19.415-12.474-28.377a264.134 264.134 0 01-15.82-87.531 258.763 258.763 0 014.613-51.401z" fill="#d91a60"/><path d="M892.155 153.492a4.693 4.693 0 004.02-5.004c-1.103-17.62-8.509-37.145-23.327-47.68-11.539-8.205-26.294-10.005-40.366-11.555l-50.29-5.54c-8.356-.92-16.9-1.83-25.09.058-12.288 2.833-22.118 12.076-28.722 22.818 2.163 3.98 9.12 4.07 13.387 2.548s7.57-4.877 10.84-8.01 6.897-6.264 11.344-7.123c7.359-1.422 14.275 3.72 19.644 8.95s10.982 11.217 18.423 12.111c5.291.636 10.47-1.478 15.69-2.551s11.476-.739 14.76 3.459c4.39 5.613 1.485 15.6 7.497 19.427 5.97 3.8 13.869-2.938 17.59-7.744a14.275 14.275 0 017.471-5.143c8.694-2.35 12.334 5.244 13.087 11.817.568 4.961.23 10.253 2.647 14.623 1.711 3.095 7.21 5.04 11.395 4.539z" fill="#ff7bac"/><path d="M894.969 192.154c-7.468 45.677-34.113 88.346-72.98 113.7-13.857 9.039-29.554 16.103-46.088 16.698a59.274 59.274 0 01-11.78-.771 56.213 56.213 0 01-9.303-2.342 38.327 38.327 0 01-8.837-4.244 35.773 35.773 0 01-9.016-8.612 9.209 9.209 0 01-1.269-2.425 3.146 3.146 0 01-.311-1.725 1.104 1.104 0 011.095-.797 9.03 9.03 0 012.877.941c3.902 1.522 7.878 2.01 11.971 2.604 2.06.298 4.133.368 6.194.617a39.001 39.001 0 0018.081-2.116c1.048-.385 2.074-.8 3.123-1.176a24.593 24.593 0 0011.595-8.675 31.215 31.215 0 005.203-12.974 11.095 11.095 0 0112.31-9.298c7.338.887 15.119-1.384 20.199-6.8 6.789-7.24 8.276-17.816 12.38-26.852 5.325-11.722 15.736-20.838 27.758-25.259 5.17-1.901 12.825-1.24 17.257-4.295 4.304-2.966 7.21-11.73 9.54-16.2z" fill="#9e005d"/></g>
            <g data-name="Tuna 2"><path d="M684.203 0h-164.89c-2.283.08-4.586.088-6.915 0h-17.517a215.765 215.765 0 00-4.22 39.989 220.264 220.264 0 0018.982 92.323c4.777 10.678 11.264 20.398 15.636 31.246 5.442 13.502 12.05 25.183 24.524 33.452a60.552 60.552 0 0051.205 7.065c16.168-5.199 29.366-17.04 40.4-29.952a205.357 205.357 0 0048.722-134.67A138.62 138.62 0 00684.203 0z" fill="#d91a60"/><path d="M519.312 0c-2.282.08-4.585.088-6.914 0H494.32a215.942 215.942 0 00-3.927 38.43 220.264 220.264 0 0018.983 92.323c3.234-6.304 7.758-13.942 10.993-20.246 2.701-5.265 5.44-10.639 6.387-16.48 2.556-15.746-8.083-30.157-14.142-44.914-2.618-6.376-3.703-15.18 2.136-18.842 3.735-2.341 8.75-1.258 12.496 1.065 3.747 2.323 6.707 5.71 10.237 8.35 12.217 9.137 31.286 7.29 41.522-4.022 8.76-9.68 10.595-23.754 15.85-35.664zM676.595 0a55.566 55.566 0 012.093 2.68 61.223 61.223 0 0110.761 25.675A133.553 133.553 0 00684.408 0zM689.863 37.894a40.9 40.9 0 00-.414-9.539c.234 3.193.373 6.38.414 9.54z" fill="#ff7bac"/><path d="M684.441 44.681a3.45 3.45 0 015.713 2.677 205.553 205.553 0 01-48.665 126.78c-11.033 12.91-24.231 24.753-40.4 29.952a60.552 60.552 0 01-51.204-7.065c-12.475-8.27-19.083-19.95-24.524-33.452a190.952 190.952 0 00-9.52-19.116 3.461 3.461 0 015.099-4.428 71.024 71.024 0 0114.662 14.134c5.177 6.812 9.515 14.236 14.8 20.964s11.724 12.87 19.697 15.973 17.696 2.679 24.348-2.702a18.135 18.135 0 006.416-15.46 8.683 8.683 0 016.658-9.402 103.91 103.91 0 0018.56-5.754c8.947-3.887 17.26-9.91 22.176-18.335s5.924-19.47 1.022-27.904c-3.324-5.718-9.169-10.205-10.37-16.71-1.546-8.364 5.165-15.766 11.332-21.623 10.21-9.696 23.154-18.964 34.2-28.529z" fill="#9e005d"/></g>
            <g data-name="Tuna 3"><path d="M304.006 0c2.025 10.637 9.832 22.418 13.856 30.409a445.05 445.05 0 0056.627 85.955 441.162 441.162 0 0039.055 40.873c10.757 9.891 22.245 19.396 35.764 24.944 13.52 5.548 29.483 6.698 42.483.023 19.842-10.189 27.22-34.658 29.96-56.794A282.28 282.28 0 00508.588 0z" fill="#d91a60"/><path d="M500.027 0c1.38 7.261 2.298 14.655 1.581 21.998-1.272 13.02-7.599 25.058-15.305 35.63s-16.86 20.006-24.878 30.343c-5.089 6.56-9.948 14.712-7.69 22.7 2.208 7.81 10.3 12.217 17.783 15.36 7.483 3.142 15.768 6.443 19.546 13.625 4.09 7.775.928 18.16-6.088 23.449-7.015 5.287-16.91 5.805-25.094 2.61-8.008-3.128-14.474-9.348-22.37-12.748-7.896-3.4-18.857-2.217-22.749 5.449 10.757 9.891 22.245 19.396 35.764 24.944 13.52 5.548 29.483 6.698 42.483.023 19.842-10.189 27.22-34.658 29.96-56.794A282.309 282.309 0 00509.399 0z" fill="#9e005d"/><path d="M352.796 48.307c-.014-4.038 1.388-7.949 1.75-11.971.905-10.074-4.659-19.414-8.894-28.599A58.775 58.775 0 01342.698 0H303.74c1.73 10.871 9.881 23.106 14.02 31.327a445.047 445.047 0 0056.628 85.955c12.128 14.442 26.335 28.1 40.21 40.873-13.565-30.549-29.287-62.49-50.648-88.198-5.3-6.38-11.126-13.355-11.155-21.65z" fill="#ff7bac"/></g>
            <g data-name="Tuna 5"><path d="M52.967 150.424c6.921-16.48 24.477-27.047 42.294-28.474s35.58 5.26 50.192 15.553 26.446 24.013 37.45 38.098c10.283 13.16 20.172 27.149 24.635 43.241s2.612 34.827-8.549 47.25c-8.635 9.613-21.518 14.238-34.175 16.843a150.298 150.298 0 01-98.87-13.816c-19.27-10.048-53.71-35.79-50.206-61.4 1.914-13.997 16.398-14.675 24.473-23.475 8.302-9.047 8.193-22.956 12.756-33.82z" fill="#d91a60"/><path d="M180.355 227.081a6.121 6.121 0 007.992-4.384 49.9 49.9 0 001.39-9.473c.081-3.248 3.105-7.076 6.415-7.496 3.97-.505 7.42 2.6 8.856 5.998a80.81 80.81 0 014.62 12.708c1.395 4.879.83 9.786.465 14.851-.703 9.758-4.048 19.448-10.653 26.8-8.635 9.613-21.518 14.238-34.175 16.843a150.298 150.298 0 01-98.87-13.815v-.002c7.68-6.544 17.784-10.829 27.629-8.618 2.948.662 5.824 1.737 8.837 1.959 4.297.317 9.213-1.474 9.53-6.991a9.476 9.476 0 00-1.154-4.972c-2.483-4.653-7.186-7.096-10.81-10.65-2.246-2.202-4.115-5.185-4.317-8.218a4.666 4.666 0 012.334-4.303c4.7-2.727 11.14-1.898 16.304.342 7.796 3.384 14.424 9.422 23.55 9.503a12.472 12.472 0 007.136-2.04c6.674-4.534 5.29-11.789 2.8-17.644-2.312-5.44-5.584-10.745-4.163-17.009a8.169 8.169 0 013.68-5.272c5.294-3.142 10.17 1.057 12.133 5.688 1.556 3.672 1.888 7.754 3.271 11.494 2.264 6.123 9.918 12.114 17.2 14.701z" fill="#9e005d"/><path d="M165.834 281.94a.435.435 0 01.048.856c-27.833 7.234-70.795 2.146-100.116-13.143-19.27-10.048-53.71-35.79-50.206-61.4 1.915-13.997 14.632-14.655 23.077-23.1 9.243-9.243 9.59-23.331 14.153-34.196 8.054 6.182 8.113 18.161 6.124 28.118s-6.072 19.745-5.237 29.864c1.061 12.846 9.856 23.697 19.326 32.441 23.818 21.994 60.413 36.488 92.83 40.56z" fill="#ff7bac"/></g>
        </g>
    </symbol>
    </defs>
    <use id="play-background-usage" xlink:href="#play-background" class="sprite-symbol-usage"></use>
    <use id="milpa-cardgame-usage" xlink:href="#milpa-cardgame" class="sprite-symbol-usage"></use>
    <use id="milpa-cardgame-mobile-usage" xlink:href="#milpa-cardgame-mobile" class="sprite-symbol-usage"></use>
    <use id="nopal-herobox-usage" xlink:href="#herobox-nopal" class="sprite-symbol-usage"></use>
</svg>