<svg xmlns="http://www.w3.org/2000/svg" viewBox="0 0 50 50"><g id="Welcome_Page_Web" data-name="Welcome Page Web"><polyline points="3.01 43.5 3.01 14.33 46.18 14.33 46.18 47 6.33 47" style="opacity:0.28"/></g><g id="Sprite_buttons" data-name="Sprite buttons"><polyline points="8.33 38.19 8.33 10.31 3.02 10.31 3.02 43.5" style="fill:#d62d7a"/><polyline points="3.02 10.31 8.33 10.31 8.33 5" style="fill:#d62d7a"/><polyline points="8.33 38.19 8.33 43.5 2.94 43.5" style="fill:#d62d7a"/><polyline points="36.13 43.5 8.33 43.5 8.33 38.19 41.52 38.19" style="fill:#d62d7a"/><rect x="8.33" y="5" width="33.19" height="33.19" style="fill:#d62d7a"/><path id="Icon_ionic-ios-trophy" data-name="Icon ionic-ios-trophy" d="M36.21,14.13H32.52V13a.89.89,0,0,0-.89-.89H19.13a.89.89,0,0,0-.9.89v1.12H14.55a.78.78,0,0,0-.78.78h0A8.74,8.74,0,0,0,15,20a4.5,4.5,0,0,0,3.14,2.25.46.46,0,0,1,.35.28,6,6,0,0,0,2.85,2.91,10.8,10.8,0,0,0,2.89,1.21.43.43,0,0,1,.34.43v4.51a.45.45,0,0,1-.44.45H20.49a.8.8,0,0,0-.8.74.78.78,0,0,0,.74.82h9.84a.8.8,0,0,0,.81-.74.79.79,0,0,0-.75-.82H26.61a.46.46,0,0,1-.45-.45V27a.47.47,0,0,1,.35-.44,10.77,10.77,0,0,0,2.89-1.2,6,6,0,0,0,2.85-2.92.45.45,0,0,1,.35-.27A4.53,4.53,0,0,0,35.74,20,9,9,0,0,0,37,14.91h0A.78.78,0,0,0,36.21,14.13Zm-18,6.17a.22.22,0,0,1-.22.23l-.08,0a3.24,3.24,0,0,1-1.71-1.61,5.82,5.82,0,0,1-.84-2.72.45.45,0,0,1,.41-.49h2a.45.45,0,0,1,.44.45Zm16.3-1.4a3.24,3.24,0,0,1-1.71,1.61.22.22,0,0,1-.29-.13s0-.05,0-.08V16.14a.45.45,0,0,1,.45-.45h2a.45.45,0,0,1,.45.45.08.08,0,0,1,0,0A5.86,5.86,0,0,1,34.53,18.9Z" style="fill:#d62d7a"/><polyline points="8.33 38.19 8.33 10.31 3.02 10.31 3.02 43.5" style="fill:#d62d7a"/><polyline points="3.02 10.31 8.33 10.31 8.33 5" style="fill:#d62d7a"/><polyline points="8.33 38.19 8.33 43.5 2.94 43.5" style="fill:#871242"/><polyline points="36.13 43.5 8.33 43.5 8.33 38.19 41.52 38.19" style="fill:#871242"/><rect x="8.33" y="5" width="33.19" height="33.19" style="fill:#d91a60"/><path id="Icon_ionic-ios-trophy-2" data-name="Icon ionic-ios-trophy" d="M36.21,14.13H32.52V13a.89.89,0,0,0-.89-.89H19.13a.89.89,0,0,0-.9.89v1.12H14.55a.78.78,0,0,0-.78.78h0A8.74,8.74,0,0,0,15,20a4.5,4.5,0,0,0,3.14,2.25.46.46,0,0,1,.35.28,6,6,0,0,0,2.85,2.91,10.8,10.8,0,0,0,2.89,1.21.43.43,0,0,1,.34.43v4.51a.45.45,0,0,1-.44.45H20.49a.8.8,0,0,0-.8.74.78.78,0,0,0,.74.82h9.84a.8.8,0,0,0,.81-.74.79.79,0,0,0-.75-.82H26.61a.46.46,0,0,1-.45-.45V27a.47.47,0,0,1,.35-.44,10.77,10.77,0,0,0,2.89-1.2,6,6,0,0,0,2.85-2.92.45.45,0,0,1,.35-.27A4.53,4.53,0,0,0,35.74,20,9,9,0,0,0,37,14.91h0A.78.78,0,0,0,36.21,14.13Zm-18,6.17a.22.22,0,0,1-.22.23l-.08,0a3.24,3.24,0,0,1-1.71-1.61,5.82,5.82,0,0,1-.84-2.72.45.45,0,0,1,.41-.49h2a.45.45,0,0,1,.44.45Zm16.3-1.4a3.24,3.24,0,0,1-1.71,1.61.22.22,0,0,1-.29-.13s0-.05,0-.08V16.14a.45.45,0,0,1,.45-.45h2a.45.45,0,0,1,.45.45.08.08,0,0,1,0,0A5.86,5.86,0,0,1,34.53,18.9Z" style="fill:#c7b299;stroke:#c7b299;stroke-miterlimit:10"/></g></svg>