<svg xmlns="http://www.w3.org/2000/svg" viewBox="0 0 50 50"><g id="Welcome_Page_Web" data-name="Welcome Page Web"><polyline points="2.71 42.5 2.71 13.33 40 13.33 40 46 5.58 46" style="opacity:0.28"/></g><g id="Sprite_buttons" data-name="Sprite buttons"><polyline points="8.03 37.19 8.03 9.31 2.72 9.31 2.72 42.5" style="fill:#d62d7a"/><polyline points="2.72 9.31 4.03 9.31 4.03 8" style="fill:#d62d7a"/><polyline points="8.03 37.19 8.03 42.5 2.63 42.5" style="fill:#d62d7a"/><path d="M37.19,41.16,35.82,42.5H8V37.19H37.22" style="fill:#d62d7a"/><rect x="4.03" y="8" width="33.19" height="33.19" style="fill:#d62d7a"/><path id="Icon_ionic-ios-trophy" data-name="Icon ionic-ios-trophy" d="M31.21,16.13H27.52V15a.89.89,0,0,0-.89-.89H14.13a.89.89,0,0,0-.9.89v1.12H9.55a.78.78,0,0,0-.78.78h0A8.74,8.74,0,0,0,10,22a4.5,4.5,0,0,0,3.14,2.25.46.46,0,0,1,.35.28,6,6,0,0,0,2.85,2.91,10.8,10.8,0,0,0,2.89,1.21.43.43,0,0,1,.34.43v4.51a.45.45,0,0,1-.44.45H15.49a.8.8,0,0,0-.8.74.78.78,0,0,0,.74.82h9.84a.8.8,0,0,0,.81-.74.79.79,0,0,0-.75-.82H21.61a.46.46,0,0,1-.45-.45V29a.47.47,0,0,1,.35-.44,10.77,10.77,0,0,0,2.89-1.2,6,6,0,0,0,2.85-2.92.45.45,0,0,1,.35-.27A4.53,4.53,0,0,0,30.74,22,9,9,0,0,0,32,16.91h0A.78.78,0,0,0,31.21,16.13Zm-18,6.17a.22.22,0,0,1-.22.23l-.08,0a3.24,3.24,0,0,1-1.71-1.61,5.82,5.82,0,0,1-.84-2.72.45.45,0,0,1,.41-.49h2a.45.45,0,0,1,.44.45Zm16.3-1.4a3.24,3.24,0,0,1-1.71,1.61.22.22,0,0,1-.29-.13s0-.05,0-.08V18.14a.45.45,0,0,1,.45-.45h2a.45.45,0,0,1,.45.45.08.08,0,0,1,0,0A5.86,5.86,0,0,1,29.53,20.9Z" style="fill:#d62d7a"/><polyline points="8.03 37.19 8.03 9.31 2.72 9.31 2.72 42.5" style="fill:#d62d7a"/><polyline points="2.72 9.31 4.03 9.31 4.03 8" style="fill:#d62d7a"/><polyline points="8.03 37.19 8.03 42.5 2.63 42.5" style="fill:#871242"/><path d="M37.19,41.16,35.82,42.5H8V37.19H37.22" style="fill:#871242"/><rect x="4.03" y="8" width="33.19" height="33.19" style="fill:#d91a60"/><path id="Icon_ionic-ios-trophy-2" data-name="Icon ionic-ios-trophy" d="M31.21,16.13H27.52V15a.89.89,0,0,0-.89-.89H14.13a.89.89,0,0,0-.9.89v1.12H9.55a.78.78,0,0,0-.78.78h0A8.74,8.74,0,0,0,10,22a4.5,4.5,0,0,0,3.14,2.25.46.46,0,0,1,.35.28,6,6,0,0,0,2.85,2.91,10.8,10.8,0,0,0,2.89,1.21.43.43,0,0,1,.34.43v4.51a.45.45,0,0,1-.44.45H15.49a.8.8,0,0,0-.8.74.78.78,0,0,0,.74.82h9.84a.8.8,0,0,0,.81-.74.79.79,0,0,0-.75-.82H21.61a.46.46,0,0,1-.45-.45V29a.47.47,0,0,1,.35-.44,10.77,10.77,0,0,0,2.89-1.2,6,6,0,0,0,2.85-2.92.45.45,0,0,1,.35-.27A4.53,4.53,0,0,0,30.74,22,9,9,0,0,0,32,16.91h0A.78.78,0,0,0,31.21,16.13Zm-18,6.17a.22.22,0,0,1-.22.23l-.08,0a3.24,3.24,0,0,1-1.71-1.61,5.82,5.82,0,0,1-.84-2.72.45.45,0,0,1,.41-.49h2a.45.45,0,0,1,.44.45Zm16.3-1.4a3.24,3.24,0,0,1-1.71,1.61.22.22,0,0,1-.29-.13s0-.05,0-.08V18.14a.45.45,0,0,1,.45-.45h2a.45.45,0,0,1,.45.45.08.08,0,0,1,0,0A5.86,5.86,0,0,1,29.53,20.9Z" style="fill:#c7b299;stroke:#c7b299;stroke-miterlimit:10"/></g></svg>