<svg xmlns="http://www.w3.org/2000/svg" viewBox="0 0 50 50"><g id="Layer_23" data-name="Layer 23"><polyline points="50.05 14.54 50.05 50.3 7.66 50.3 7.66 10.25 46.79 10.25" style="opacity:0.28"/><polyline points="44.11 38.6 44.11 5.6 0.11 5.6 0.11 43.95 42.28 43.95" style="fill:#a59481"/><rect x="2.11" y="0.25" width="42" height="38.35" style="fill:#c7b299"/><polygon points="2.11 0.25 0.11 5.6 0.11 43.95 2.11 38.6 2.11 0.25" style="fill:#ddc6ac"/><g id="Logo_M" data-name="Logo M"><g id="Nopal_Logo_Sin_M" data-name="Nopal Logo Sin M"><g id="Tuna_6" data-name="Tuna 6"><path d="M11.35,9.74c.6,1.4,1.94,2.17,3,1.72s1.41-2,.81-3.34a4.83,4.83,0,0,0-1.71-2.27c-.2-.09-.6.25-1.27.55s-1.15.26-1.27.54C10.45,8.05,11.31,9.64,11.35,9.74Z" style="fill:#ff7bac"/><path d="M11.5,10.15c.6,1.4,1.94,2.17,3,1.72s1.41-1.94.81-3.34c-.08-.2-.76-1.82-1.71-2.26-.2-.1-.6.24-1.27.54s-1.15.26-1.27.54C10.6,8.46,11.46,10.06,11.5,10.15Z" style="fill:#d91a60"/></g><g id="Tuna_5" data-name="Tuna 5"><path d="M16,6c.37,1.48,1.57,2.45,2.68,2.17S20.37,6.45,20,5a4.85,4.85,0,0,0-1.34-2.51c-.18-.12-.63.15-1.34.34s-1.17.07-1.33.33C15.36,4.17,16,5.88,16,6Z" style="fill:#ff7bac"/><path d="M16.08,6.41c.37,1.48,1.57,2.45,2.67,2.17s1.7-1.7,1.33-3.17A4.78,4.78,0,0,0,18.74,2.9c-.18-.12-.62.15-1.33.34s-1.18.07-1.34.34C15.45,4.6,16.05,6.31,16.08,6.41Z" style="fill:#d91a60"/></g><g id="Tuna_7" data-name="Tuna 7"><path d="M7.82,15.09c.87,1.25,2.34,1.72,3.27,1.07s1-2.2.11-3.44c-.13-.18-1.12-1.62-2.15-1.86-.21,0-.53.36-1.12.79s-1.08.49-1.13.79C6.58,13.63,7.76,15,7.82,15.09Z" style="fill:#ff7bac"/><path d="M8.05,15.46c.88,1.25,2.34,1.73,3.28,1.07s1-2.2.1-3.44c-.12-.18-1.12-1.62-2.14-1.86-.22-.05-.54.36-1.13.79s-1.07.49-1.13.79C6.81,14,8,15.38,8.05,15.46Z" style="fill:#d91a60"/></g><path d="M36.77,21.12c0,5.59-1.38,5.85-4.82,10-3,3.55-3.44,4.13-8.61,4.13-5.48,0-5-.56-8.61-4.13s-5-4.64-4.82-10C10.13,14.76,15.26,7,23.34,7,30.75,7,36.77,13.32,36.77,21.12Z" style="fill:#324001"/><path d="M35.39,21.12c0,5.59-1.38,5.85-4.82,10-3,3.55-3.43,4.13-8.61,4.13-5.48,0-5-.56-8.61-4.13s-5-4.64-4.82-10C8.75,14.76,13.88,7,22,7,29.38,7,35.39,13.32,35.39,21.12Z" style="fill:#7c8c03"/><g id="Tuna_1" data-name="Tuna 1"><path d="M38.56,15.09c-.87,1.25-2.34,1.72-3.27,1.07s-1-2.2-.11-3.44c.13-.18,1.12-1.62,2.15-1.86.21,0,.53.36,1.12.79s1.08.49,1.13.79C39.8,13.63,38.62,15,38.56,15.09Z" style="fill:#ff7bac"/><path d="M39.35,12.81c-.06-.3-.64-.43-1.13-.79s-.91-.84-1.13-.79c-1,.24-2,1.68-2.14,1.86a3.09,3.09,0,0,0-.58,2.32,2.89,2.89,0,0,1,.86,1.21,2.55,2.55,0,0,0,3.1-1.16C38.39,15.38,39.57,14,39.35,12.81Z" style="fill:#d91a60"/></g><g id="Tuna_2" data-name="Tuna 2"><path d="M35.67,9.74c-.6,1.4-1.94,2.17-3,1.72s-1.42-2-.82-3.34c.09-.21.76-1.82,1.72-2.27.19-.09.59.25,1.26.55s1.15.26,1.27.54C36.58,8.05,35.71,9.64,35.67,9.74Z" style="fill:#ff7bac"/><path d="M36,7.35c-.12-.28-.72-.29-1.27-.54s-1.07-.64-1.26-.54c-1,.44-1.63,2.06-1.72,2.26a3.09,3.09,0,0,0-.09,2.36A2.79,2.79,0,0,1,32.82,12a2.61,2.61,0,0,0,2.7-1.8C35.56,10.06,36.43,8.46,36,7.35Z" style="fill:#d91a60"/></g><g id="Tuna_3" data-name="Tuna 3"><path d="M30.93,6c-.38,1.48-1.57,2.45-2.68,2.17S26.55,6.45,26.92,5a4.85,4.85,0,0,1,1.34-2.51c.18-.12.63.15,1.33.34s1.18.07,1.34.33C31.56,4.17,31,5.88,30.93,6Z" style="fill:#ff7bac"/><path d="M30.85,3.58c-.16-.27-.76-.18-1.34-.34s-1.16-.46-1.33-.34a4.89,4.89,0,0,0-1.35,2.51,2.94,2.94,0,0,0,.54,2.68,3,3,0,0,1,1.51.5,2.82,2.82,0,0,0,2-2.18C30.87,6.31,31.47,4.6,30.85,3.58Z" style="fill:#d91a60"/></g><g id="Tuna_4" data-name="Tuna 4"><path d="M25.44,4.1c0,1.52-.93,2.76-2.07,2.76S21.3,5.62,21.3,4.1A4.87,4.87,0,0,1,22,1.35c.15-.17.65,0,1.38,0s1.16-.22,1.38,0C25.6,2.19,25.44,4,25.44,4.1Z" style="fill:#ff7bac"/><path d="M22.68,7.11a4.22,4.22,0,0,1,.64-.06,3.43,3.43,0,0,1,.74.08,2.79,2.79,0,0,0,1.4-2.59c0-.11.17-1.91-.69-2.76-.22-.21-.77,0-1.38,0s-1.23-.16-1.37,0a4.83,4.83,0,0,0-.69,2.76A2.82,2.82,0,0,0,22.68,7.11Z" style="fill:#d91a60"/></g><ellipse cx="13.64" cy="15.6" rx="0.42" ry="0.33" transform="translate(-6.11 21.86) rotate(-66.4)" style="fill:#4d4d4d;stroke:#4d4d4d;stroke-miterlimit:10;stroke-width:0.5px"/><ellipse cx="14.49" cy="31.43" rx="0.27" ry="0.37" transform="translate(-10.23 7.21) rotate(-20.83)" style="fill:#4d4d4d;stroke:#4d4d4d;stroke-miterlimit:10;stroke-width:0.5px"/><ellipse cx="17.5" cy="27.81" rx="0.21" ry="0.26" transform="translate(-6.03 4.88) rotate(-13.56)" style="fill:#4d4d4d;stroke:#4d4d4d;stroke-miterlimit:10;stroke-width:0.5px"/><ellipse cx="26.83" cy="29.45" rx="0.29" ry="0.35" transform="translate(-3.03 3.08) rotate(-6.22)" style="fill:#4d4d4d;stroke:#4d4d4d;stroke-miterlimit:10;stroke-width:0.5px"/><ellipse cx="22.73" cy="24.52" rx="0.22" ry="0.31" style="fill:#4d4d4d;stroke:#4d4d4d;stroke-miterlimit:10;stroke-width:0.5px"/><ellipse cx="22.11" cy="30.46" rx="0.25" ry="0.3" transform="matrix(1, -0.02, 0.02, 1, -0.63, 0.47)" style="fill:#4d4d4d;stroke:#4d4d4d;stroke-miterlimit:10;stroke-width:0.5px"/><ellipse cx="27.82" cy="24.77" rx="0.23" ry="0.19" transform="matrix(0.08, -1, 1, 0.08, 0.99, 50.6)" style="fill:#4d4d4d;stroke:#4d4d4d;stroke-miterlimit:10;stroke-width:0.5px"/><ellipse cx="26.43" cy="20.05" rx="0.25" ry="0.18" transform="translate(3.86 44.37) rotate(-84.34)" style="fill:#4d4d4d;stroke:#4d4d4d;stroke-miterlimit:10;stroke-width:0.5px"/><ellipse cx="29.68" cy="16.85" rx="0.23" ry="0.27" transform="translate(-0.32 0.58) rotate(-1.11)" style="fill:#4d4d4d;stroke:#4d4d4d;stroke-miterlimit:10;stroke-width:0.5px"/><ellipse cx="32.08" cy="21.44" rx="0.21" ry="0.26" style="fill:#4d4d4d;stroke:#4d4d4d;stroke-miterlimit:10;stroke-width:0.5px"/><ellipse cx="33.99" cy="25.28" rx="0.25" ry="0.46" transform="translate(-1.94 2.84) rotate(-4.65)" style="fill:#4d4d4d;stroke:#4d4d4d;stroke-miterlimit:10;stroke-width:0.5px"/><ellipse cx="33.06" cy="15.91" rx="0.19" ry="0.45" transform="translate(-3.48 12.58) rotate(-20.5)" style="fill:#4d4d4d;stroke:#4d4d4d;stroke-miterlimit:10;stroke-width:0.5px"/><ellipse cx="24.98" cy="12.39" rx="0.18" ry="0.21" transform="translate(3.38 30.03) rotate(-65.63)" style="fill:#4d4d4d;stroke:#4d4d4d;stroke-miterlimit:10;stroke-width:0.5px"/><ellipse cx="27.22" cy="9.99" rx="0.21" ry="0.34" transform="translate(7.7 31.42) rotate(-67.84)" style="fill:#4d4d4d;stroke:#4d4d4d;stroke-miterlimit:10;stroke-width:0.5px"/><ellipse cx="13.1" cy="24.64" rx="0.34" ry="0.25" transform="translate(-13.38 33.47) rotate(-80.44)" style="fill:#4d4d4d;stroke:#4d4d4d;stroke-miterlimit:10;stroke-width:0.5px"/><ellipse cx="12.39" cy="20.89" rx="0.34" ry="0.25" transform="translate(-10.26 29.64) rotate(-80.44)" style="fill:#4d4d4d;stroke:#4d4d4d;stroke-miterlimit:10;stroke-width:0.5px"/><ellipse cx="17.89" cy="21.28" rx="0.29" ry="0.23" transform="translate(-7.34 32.97) rotate(-74.8)" style="fill:#4d4d4d;stroke:#4d4d4d;stroke-miterlimit:10;stroke-width:0.5px"/><ellipse cx="20.77" cy="17.46" rx="0.39" ry="0.25" transform="translate(1.48 36.53) rotate(-84.72)" style="fill:#4d4d4d;stroke:#4d4d4d;stroke-miterlimit:10;stroke-width:0.5px"/><ellipse cx="9.51" cy="22.4" rx="0.29" ry="0.59" transform="translate(-0.69 0.31) rotate(-1.79)" style="fill:#4d4d4d;stroke:#4d4d4d;stroke-miterlimit:10;stroke-width:0.5px"/><ellipse cx="10.4" cy="15.52" rx="0.58" ry="0.27" transform="translate(-6.79 22.83) rotate(-79.22)" style="fill:#4d4d4d;stroke:#4d4d4d;stroke-miterlimit:10;stroke-width:0.5px"/><ellipse cx="17.9" cy="11.05" rx="0.24" ry="0.29" transform="translate(-1.17 2.18) rotate(-6.75)" style="fill:#4d4d4d;stroke:#4d4d4d;stroke-miterlimit:10;stroke-width:0.5px"/><ellipse cx="20.62" cy="13.27" rx="0.2" ry="0.23" transform="translate(-0.32 0.51) rotate(-1.4)" style="fill:#4d4d4d;stroke:#4d4d4d;stroke-miterlimit:10;stroke-width:0.5px"/><g id="Espinas"><path d="M13.58,15.57a1.09,1.09,0,0,1-.49-.19A1.24,1.24,0,0,1,12.8,15c-.18-.25-.34-.51-.5-.78l0,0c.27.18.53.36.78.56a1.48,1.48,0,0,1,.36.3.87.87,0,0,1,.14.47Z" style="fill:#fcee21"/><path d="M20.65,17.33a1.49,1.49,0,0,1-.81.34,3.2,3.2,0,0,1-.82,0,1.88,1.88,0,0,0-1.45.45l0,0A1.93,1.93,0,0,1,19,17.24a3.9,3.9,0,0,1,.82-.07c.27,0,.52,0,.81.12Z" style="fill:#fcee21"/><path d="M9.48,22.42a3.4,3.4,0,0,1-.4.91,5.4,5.4,0,0,1-.62.74c-.42.48-.85,1-1.3,1.43l0,0c.33-.56.67-1.11,1-1.64a4.49,4.49,0,0,1,.54-.8,3.39,3.39,0,0,1,.76-.64Z" style="fill:#fcee21"/><path d="M10.23,15.34a1.22,1.22,0,0,1-.54.13,1.71,1.71,0,0,1-.49-.14l-1-.36v-.05c.35,0,.69,0,1,0a1.4,1.4,0,0,1,.5.05,1.1,1.1,0,0,1,.46.31Z" style="fill:#fcee21"/><path d="M22.67,24.37a1.42,1.42,0,0,1-.42-.43,1.61,1.61,0,0,1-.15-.53c-.1-.36-.18-.72-.25-1.09l0,0q.3.48.57,1a1.89,1.89,0,0,1,.25.49,1.36,1.36,0,0,1,0,.6Z" style="fill:#fcee21"/><path d="M22.64,24.72a1.6,1.6,0,0,1,0,.62,1.79,1.79,0,0,1-.27.51c-.18.34-.39.67-.6,1l-.05,0c.08-.38.18-.76.28-1.13a2.16,2.16,0,0,1,.18-.56,1.38,1.38,0,0,1,.43-.44Z" style="fill:#fcee21"/><path d="M34,25.19a3.78,3.78,0,0,1,1-.51,5.65,5.65,0,0,1,1.09-.19,16.12,16.12,0,0,1,2.19-.15v.05c-.72.15-1.43.31-2.13.49a10.09,10.09,0,0,1-1,.29,5.76,5.76,0,0,1-1.11.07Z" style="fill:#fcee21"/><path d="M27,10a2.87,2.87,0,0,1-.88,0,3.78,3.78,0,0,1-.79-.3c-.53-.2-1.05-.42-1.57-.65V9c.56.09,1.12.2,1.67.32a4.57,4.57,0,0,1,.83.2,2.92,2.92,0,0,1,.74.46Z" style="fill:#fcee21"/><path d="M33.09,15.77a1,1,0,0,1,.43-.29,1.24,1.24,0,0,1,.47,0c.31,0,.63,0,.95,0v.05c-.3.11-.6.21-.9.29a1.24,1.24,0,0,1-.46.11,1.17,1.17,0,0,1-.49-.16Z" style="fill:#fcee21"/><path d="M33,16a.9.9,0,0,1,.17.43,1.07,1.07,0,0,1-.1.39,6.55,6.55,0,0,1-.28.78h0a7.74,7.74,0,0,1-.07-.83.94.94,0,0,1,0-.41A.85.85,0,0,1,33,16Z" style="fill:#fcee21"/><path d="M17.86,11a3.21,3.21,0,0,1-.8.68,4.24,4.24,0,0,1-1,.4,14.88,14.88,0,0,1-2,.59l0-.05q.93-.43,1.83-.9a7,7,0,0,1,.89-.48,4.7,4.7,0,0,1,1-.28Z" style="fill:#fcee21"/><path d="M18,10.74a.61.61,0,0,1,0-.57,5.52,5.52,0,0,1,.16-.54h0a5.42,5.42,0,0,1,0,.57.62.62,0,0,1-.16.55Z" style="fill:#fcee21"/><path d="M20.61,13.21a1.1,1.1,0,0,1,.53.16,1.17,1.17,0,0,1,.34.36c.22.25.44.52.64.79l0,0c-.3-.17-.59-.34-.87-.53a1.33,1.33,0,0,1-.41-.29,1.06,1.06,0,0,1-.23-.5Z" style="fill:#fcee21"/><path d="M24.91,12.43a.67.67,0,0,1-.55-.19c-.16-.11-.32-.22-.47-.34v0l.55.19a.68.68,0,0,1,.47.35Z" style="fill:#fcee21"/><path d="M25.05,12.52a1,1,0,0,1-.1.53,1.33,1.33,0,0,1-.33.38c-.23.24-.47.48-.72.7l0,0c.13-.31.28-.61.44-.91a1.4,1.4,0,0,1,.24-.43,1.14,1.14,0,0,1,.47-.27Z" style="fill:#fcee21"/><path d="M26.39,20.07a3.83,3.83,0,0,1,1.06.44,5.51,5.51,0,0,1,.86.74,12.51,12.51,0,0,1,1.5,1.67l0,0c-.56-.5-1.13-1-1.73-1.41-.3-.21-.62-.39-.9-.63a6.08,6.08,0,0,1-.79-.81Z" style="fill:#fcee21"/><path d="M29.74,16.67a.9.9,0,0,1-.41.23,1,1,0,0,1-.42,0,8,8,0,0,1-.82-.17v-.05c.27-.07.55-.13.82-.18a1,1,0,0,1,.41-.05.86.86,0,0,1,.42.22Z" style="fill:#fcee21"/><path d="M32.09,21.28a4,4,0,0,1,.83-.66,5.38,5.38,0,0,1,.95-.42c.64-.27,1.28-.53,1.93-.78l0,0c-.59.37-1.18.74-1.78,1.09a7.33,7.33,0,0,1-.91.51,4.2,4.2,0,0,1-1,.26Z" style="fill:#fcee21"/><path d="M27.68,24.86a1.1,1.1,0,0,1-.48-.19,1.29,1.29,0,0,1-.28-.37c-.18-.26-.35-.53-.5-.8l0,0a8.85,8.85,0,0,1,.76.57,1.31,1.31,0,0,1,.36.3,1.05,1.05,0,0,1,.15.5Z" style="fill:#fcee21"/><path d="M18,21.3a1.12,1.12,0,0,1-.28.45,1.4,1.4,0,0,1-.42.22c-.29.13-.59.26-.89.37l0,0c.23-.23.46-.46.7-.67a1.32,1.32,0,0,1,.37-.3,1,1,0,0,1,.52-.07Z" style="fill:#fcee21"/><path d="M17.59,21.14A1.32,1.32,0,0,1,17,20.9a1.73,1.73,0,0,1-.36-.44c-.22-.29-.44-.6-.65-.92l0,0q.46.33.9.69a1.65,1.65,0,0,1,.43.36,1.4,1.4,0,0,1,.22.56Z" style="fill:#fcee21"/><path d="M12.36,20.94a3.68,3.68,0,0,1-1.06-.1,5.43,5.43,0,0,1-1-.35C9.67,20.24,9,20,8.38,19.7v-.05c.69.14,1.37.29,2,.45a5.92,5.92,0,0,1,1,.27,3.73,3.73,0,0,1,.93.52Z" style="fill:#fcee21"/><path d="M12.56,20.78a.53.53,0,0,1,.33-.38l.45-.24,0,0c-.11.13-.22.26-.34.38a.51.51,0,0,1-.45.24Z" style="fill:#fcee21"/><path d="M13,24.4a4.2,4.2,0,0,1,1.11-.07,6.62,6.62,0,0,1,1.08.2c.71.14,1.43.3,2.14.47v.05c-.73,0-1.46-.07-2.19-.13a5.57,5.57,0,0,1-1.08-.1A4.11,4.11,0,0,1,13,24.45Z" style="fill:#fcee21"/><path d="M17.54,27.76a2.79,2.79,0,0,1-.85.3,4.1,4.1,0,0,1-.86,0q-.87,0-1.74,0v0c.57-.12,1.14-.23,1.71-.32a4.24,4.24,0,0,1,.86-.12,3,3,0,0,1,.88.14Z" style="fill:#fcee21"/><path d="M17.65,27.66a.71.71,0,0,1,0-.59.91.91,0,0,1,.4-.4,1.55,1.55,0,0,1,1-.27v.05a1.72,1.72,0,0,0-.77.53,3.22,3.22,0,0,1-.24.36c-.11.09-.21.2-.38.33Z" style="fill:#fcee21"/><path d="M14.28,31.33a2.13,2.13,0,0,1-.79,0,3.1,3.1,0,0,1-.73-.23c-.48-.16-1-.34-1.44-.53v0c.51,0,1,.11,1.52.19a2.75,2.75,0,0,1,.76.13,2.33,2.33,0,0,1,.69.4Z" style="fill:#fcee21"/><path d="M14.56,31.37a2.37,2.37,0,0,1,.67-.41,3.14,3.14,0,0,1,.74-.15c.5-.08,1-.16,1.51-.22v.05c-.47.2-.94.39-1.41.56a3.21,3.21,0,0,1-.72.24,2.35,2.35,0,0,1-.79,0Z" style="fill:#fcee21"/><path d="M22.05,30.24a4.45,4.45,0,0,1,.84-.94,6.33,6.33,0,0,1,1-.68,20.85,20.85,0,0,1,2.19-1.16l0,.05q-1,.69-2,1.44c-.32.25-.62.53-1,.75a6.76,6.76,0,0,1-1.1.58Z" style="fill:#fcee21"/><path d="M26.82,29.38a2.27,2.27,0,0,1-1.08.26l-1.1.08v0c.36-.1.72-.18,1.08-.26a2.32,2.32,0,0,1,1.11-.08Z" style="fill:#fcee21"/><path d="M26.94,29.38a2.06,2.06,0,0,1,.68.27,2.52,2.52,0,0,1,.5.48c.32.33.64.67.95,1l0,0c-.4-.24-.8-.49-1.18-.75a2.84,2.84,0,0,1-.56-.4,2,2,0,0,1-.39-.62Z" style="fill:#fcee21"/><path d="M22.1,30.72a1.18,1.18,0,0,1-.2.39,1.25,1.25,0,0,1-.3.21,2.5,2.5,0,0,0-.54.58l0,0a1.69,1.69,0,0,1,.29-.82.76.76,0,0,1,.29-.35.68.68,0,0,1,.49,0Z" style="fill:#fcee21"/><path d="M33.89,25.57c-.26,0-.46,0-.66.05s-.39,0-.6,0a1.79,1.79,0,0,0-1,.71l0,0a1.71,1.71,0,0,1,1-1.07,1.24,1.24,0,0,1,.76-.14,1,1,0,0,1,.65.41Z" style="fill:#fcee21"/></g></g><text transform="translate(13.97 31.54)" style="font-size:33.866939544677734px;fill:#fff;stroke:#7c8c03;stroke-miterlimit:10;font-family:HVDSteinzeit-FillIn, HVD Steinzeit">M</text><text transform="translate(14.03 31.79)" style="font-size:33.866939544677734px;fill:#d91a60;stroke:#7c8c03;stroke-miterlimit:10;font-family:HVDSteinzeit, HVD Steinzeit">M</text></g></g></svg>